<svg width="335" height="237" viewBox="0 0 335 237" fill="none" xmlns="http://www.w3.org/2000/svg">
<g clip-path="url(#clip0_8030_5555)">
<mask id="mask0_8030_5555" style="mask-type:alpha" maskUnits="userSpaceOnUse" x="-27" y="-30" width="393" height="168">
<path d="M31.1877 93.8639H-16.3457C-21.8686 93.8639 -26.3457 89.3867 -26.3457 83.8639V-17.1672C-26.3457 -22.6621 -21.9119 -27.1277 -16.4171 -27.1669L352.854 -29.8032C358.293 -29.842 362.766 -25.5268 362.922 -20.0902L365.449 68.0101C365.61 73.643 361.088 78.2969 355.453 78.2969H295.059C291.238 78.2969 287.751 80.4743 286.074 83.9075L263.361 130.402C261.887 133.419 258.997 135.495 255.666 135.929L244.317 137.406C242.359 137.661 240.37 137.33 238.599 136.456L148.269 91.8548C146.78 91.1194 145.131 90.7666 143.471 90.8282L66.193 93.6962C63.3209 93.8028 60.6335 95.14 58.8164 97.3667L56.4455 100.272C52.291 105.363 44.4394 105.131 40.5917 99.8048L39.294 98.0082C37.4139 95.4055 34.3985 93.8639 31.1877 93.8639Z" fill="url(#paint0_radial_8030_5555)"/>
</mask>
<g mask="url(#mask0_8030_5555)">
<path d="M0.255371 -81.2773L0.255371 237.451" stroke="#1C76FD" stroke-width="0.5"/>
<path d="M4.25537 -81.2773L4.25537 237.451" stroke="#1C76FD" stroke-width="0.5"/>
<path d="M8.25537 -81.2773L8.25537 237.451" stroke="#1C76FD" stroke-width="0.5"/>
<path d="M12.2554 -81.2773L12.2554 237.451" stroke="#1C76FD" stroke-width="0.5"/>
<path d="M16.2554 -81.2773L16.2554 237.451" stroke="#1C76FD" stroke-width="0.5"/>
<path d="M20.2554 -81.2773L20.2554 237.451" stroke="#1C76FD" stroke-width="0.5"/>
<path d="M24.2554 -81.2773L24.2554 237.451" stroke="#1C76FD" stroke-width="0.5"/>
<path d="M28.2554 -81.2773L28.2554 237.451" stroke="#1C76FD" stroke-width="0.5"/>
<path d="M32.2554 -81.2773L32.2554 237.451" stroke="#1C76FD" stroke-width="0.5"/>
<path d="M36.2554 -81.2773L36.2554 237.451" stroke="#1C76FD" stroke-width="0.5"/>
<path d="M40.2554 -81.2773L40.2554 237.451" stroke="#1C76FD" stroke-width="0.5"/>
<path d="M44.2554 -81.2773L44.2554 237.451" stroke="#1C76FD" stroke-width="0.5"/>
<path d="M48.2554 -81.2773L48.2554 237.451" stroke="#1C76FD" stroke-width="0.5"/>
<path d="M52.2554 -81.2773L52.2554 237.451" stroke="#1C76FD" stroke-width="0.5"/>
<path d="M56.2554 -81.2773L56.2554 237.451" stroke="#1C76FD" stroke-width="0.5"/>
<path d="M60.2554 -81.2773L60.2554 237.451" stroke="#1C76FD" stroke-width="0.5"/>
<path d="M64.2554 -81.2773L64.2554 237.451" stroke="#1C76FD" stroke-width="0.5"/>
<path d="M68.2554 -81.2773L68.2554 237.451" stroke="#1C76FD" stroke-width="0.5"/>
<path d="M72.2554 -81.2773L72.2554 237.451" stroke="#1C76FD" stroke-width="0.5"/>
<path d="M76.2554 -81.2773L76.2554 237.451" stroke="#1C76FD" stroke-width="0.5"/>
<path d="M80.2554 -81.2773L80.2554 237.451" stroke="#1C76FD" stroke-width="0.5"/>
<path d="M84.2554 -81.2773L84.2554 237.451" stroke="#1C76FD" stroke-width="0.5"/>
<path d="M88.2554 -81.2773L88.2554 237.451" stroke="#1C76FD" stroke-width="0.5"/>
<path d="M92.2554 -81.2773L92.2554 237.451" stroke="#1C76FD" stroke-width="0.5"/>
<path d="M96.2554 -81.2773L96.2554 237.451" stroke="#1C76FD" stroke-width="0.5"/>
<path d="M100.255 -81.2773L100.255 237.451" stroke="#1C76FD" stroke-width="0.5"/>
<path d="M104.255 -81.2773L104.255 237.451" stroke="#1C76FD" stroke-width="0.5"/>
<path d="M108.255 -81.2773L108.255 237.451" stroke="#1C76FD" stroke-width="0.5"/>
<path d="M112.255 -81.2773L112.255 237.451" stroke="#1C76FD" stroke-width="0.5"/>
<path d="M116.255 -81.2773L116.255 237.451" stroke="#1C76FD" stroke-width="0.5"/>
<path d="M120.255 -81.2773L120.255 237.451" stroke="#1C76FD" stroke-width="0.5"/>
<path d="M124.255 -81.2773L124.255 237.451" stroke="#1C76FD" stroke-width="0.5"/>
<path d="M128.255 -81.2773L128.255 237.451" stroke="#1C76FD" stroke-width="0.5"/>
<path d="M132.255 -81.2773L132.255 237.451" stroke="#1C76FD" stroke-width="0.5"/>
<path d="M136.255 -81.2773L136.255 237.451" stroke="#1C76FD" stroke-width="0.5"/>
<path d="M140.255 -81.2773L140.255 237.451" stroke="#1C76FD" stroke-width="0.5"/>
<path d="M144.255 -81.2773L144.255 237.451" stroke="#1C76FD" stroke-width="0.5"/>
<path d="M148.255 -81.2773L148.255 237.451" stroke="#1C76FD" stroke-width="0.5"/>
<path d="M152.255 -81.2773L152.255 237.451" stroke="#1C76FD" stroke-width="0.5"/>
<path d="M156.255 -81.2773L156.255 237.451" stroke="#1C76FD" stroke-width="0.5"/>
<path d="M160.255 -81.2773L160.255 237.451" stroke="#1C76FD" stroke-width="0.5"/>
<path d="M164.255 -81.2773L164.255 237.451" stroke="#1C76FD" stroke-width="0.5"/>
<path d="M168.255 -81.2773L168.255 237.451" stroke="#1C76FD" stroke-width="0.5"/>
<path d="M172.255 -81.2773L172.255 237.451" stroke="#1C76FD" stroke-width="0.5"/>
<path d="M176.255 -81.2773L176.255 237.451" stroke="#1C76FD" stroke-width="0.5"/>
<path d="M180.255 -81.2773L180.255 237.451" stroke="#1C76FD" stroke-width="0.5"/>
<path d="M184.255 -81.2773L184.255 237.451" stroke="#1C76FD" stroke-width="0.5"/>
<path d="M188.255 -81.2773L188.255 237.451" stroke="#1C76FD" stroke-width="0.5"/>
<path d="M192.255 -81.2773L192.255 237.451" stroke="#1C76FD" stroke-width="0.5"/>
<path d="M196.255 -81.2773L196.255 237.451" stroke="#1C76FD" stroke-width="0.5"/>
<path d="M200.255 -81.2773L200.255 237.451" stroke="#1C76FD" stroke-width="0.5"/>
<path d="M204.255 -81.2773L204.255 237.451" stroke="#1C76FD" stroke-width="0.5"/>
<path d="M208.255 -81.2773L208.255 237.451" stroke="#1C76FD" stroke-width="0.5"/>
<path d="M212.255 -81.2773L212.255 237.451" stroke="#1C76FD" stroke-width="0.5"/>
<path d="M216.255 -81.2773L216.255 237.451" stroke="#1C76FD" stroke-width="0.5"/>
<path d="M220.255 -81.2773L220.255 237.451" stroke="#1C76FD" stroke-width="0.5"/>
<path d="M224.255 -81.2773L224.255 237.451" stroke="#1C76FD" stroke-width="0.5"/>
<path d="M228.255 -81.2773L228.255 237.451" stroke="#1C76FD" stroke-width="0.5"/>
<path d="M232.255 -81.2773L232.255 237.451" stroke="#1C76FD" stroke-width="0.5"/>
<path d="M236.255 -81.2773L236.255 237.451" stroke="#1C76FD" stroke-width="0.5"/>
<path d="M240.255 -81.2773L240.255 237.451" stroke="#1C76FD" stroke-width="0.5"/>
<path d="M244.255 -81.2773L244.255 237.451" stroke="#1C76FD" stroke-width="0.5"/>
<path d="M248.255 -81.2773L248.255 237.451" stroke="#1C76FD" stroke-width="0.5"/>
<path d="M252.255 -81.2773L252.255 237.451" stroke="#1C76FD" stroke-width="0.5"/>
<path d="M256.255 -81.2773V237.451" stroke="#1C76FD" stroke-width="0.5"/>
<path d="M260.255 -81.2773V237.451" stroke="#1C76FD" stroke-width="0.5"/>
<path d="M264.255 -81.2773V237.451" stroke="#1C76FD" stroke-width="0.5"/>
<path d="M268.255 -81.2773V237.451" stroke="#1C76FD" stroke-width="0.5"/>
<path d="M272.255 -81.2773V237.451" stroke="#1C76FD" stroke-width="0.5"/>
<path d="M276.255 -81.2773V237.451" stroke="#1C76FD" stroke-width="0.5"/>
<path d="M280.255 -81.2773V237.451" stroke="#1C76FD" stroke-width="0.5"/>
<path d="M284.255 -81.2773V237.451" stroke="#1C76FD" stroke-width="0.5"/>
<path d="M288.255 -81.2773V237.451" stroke="#1C76FD" stroke-width="0.5"/>
<path d="M292.255 -81.2773V237.451" stroke="#1C76FD" stroke-width="0.5"/>
<path d="M296.255 -81.2773V237.451" stroke="#1C76FD" stroke-width="0.5"/>
<path d="M300.255 -81.2773V237.451" stroke="#1C76FD" stroke-width="0.5"/>
<path d="M304.255 -81.2773V237.451" stroke="#1C76FD" stroke-width="0.5"/>
<path d="M308.255 -81.2773V237.451" stroke="#1C76FD" stroke-width="0.5"/>
<path d="M312.255 -81.2773V237.451" stroke="#1C76FD" stroke-width="0.5"/>
<path d="M316.255 -81.2773V237.451" stroke="#1C76FD" stroke-width="0.5"/>
<path d="M320.255 -81.2773V237.451" stroke="#1C76FD" stroke-width="0.5"/>
<path d="M324.255 -81.2773V237.451" stroke="#1C76FD" stroke-width="0.5"/>
<path d="M328.255 -81.2773V237.451" stroke="#1C76FD" stroke-width="0.5"/>
<path d="M332.255 -81.2773V237.451" stroke="#1C76FD" stroke-width="0.5"/>
</g>
<g clip-path="url(#clip1_8030_5555)">
<g filter="url(#filter0_d_8030_5555)">
<path d="M39.4985 139.437L63.1482 107.799C65.036 105.274 68.0045 103.786 71.1577 103.786H256.571C260.104 103.786 263.374 105.65 265.175 108.689L283.433 139.507C285.234 142.546 288.504 144.41 292.037 144.41H357.265C360.124 144.41 362.441 142.093 362.441 139.235C362.441 136.376 360.124 134.059 357.265 134.059H297.458C293.936 134.059 290.673 132.206 288.869 129.181L270.311 98.0605C268.507 95.0353 265.244 93.1823 261.722 93.1823H67.063C63.9868 93.1823 61.0818 94.5981 59.1865 97.0211L33.6829 129.625C31.7876 132.048 28.8826 133.464 25.8064 133.464H-35.6297C-38.3872 133.464 -40.6226 135.699 -40.6226 138.457C-40.6226 141.215 -38.3872 143.45 -35.6297 143.45H31.489C34.6422 143.45 37.6107 141.963 39.4985 139.437Z" fill="#0E1214"/>
</g>
<path d="M376.919 139.549L295.508 139.549C292.063 139.549 288.861 137.776 287.033 134.856L267.069 102.977C265.241 100.058 262.038 98.2846 258.594 98.2846H70.4947C67.4185 98.2846 64.5134 99.7005 62.6181 102.124L36.9293 134.965C35.034 137.388 32.129 138.804 29.0527 138.804L-32.7197 138.804" stroke="#3B3D3F" stroke-dasharray="1 2"/>
</g>
<g filter="url(#filter1_d_8030_5555)">
<path d="M39.4985 98.1547L63.1482 129.793C65.036 132.318 68.0045 133.805 71.1577 133.805H255.566C259.622 133.805 263.276 131.355 264.816 127.603L283.792 81.3838C285.332 77.6316 288.987 75.1816 293.043 75.1816H359.265C362.124 75.1816 364.441 77.4988 364.441 80.3571C364.441 83.2154 362.124 85.5326 359.265 85.5326H298.461C294.416 85.5326 290.769 87.9697 289.222 91.7073L269.958 138.235C268.411 141.972 264.764 144.41 260.719 144.41H67.063C63.9868 144.41 61.0818 142.994 59.1865 140.571L33.6829 107.967C31.7876 105.544 28.8826 104.128 25.8064 104.128H-35.6297C-38.3872 104.128 -40.6226 101.892 -40.6226 99.1348C-40.6226 96.3773 -38.3872 94.1419 -35.6297 94.1419H31.489C34.6422 94.1419 37.6107 95.6291 39.4985 98.1547Z" fill="#0E1214"/>
</g>
<path d="M376.919 80.043L296.52 80.0432C292.543 80.0433 288.943 82.4004 287.354 86.0464L266.748 133.304C265.158 136.95 261.559 139.307 257.581 139.307H70.4947C67.4185 139.307 64.5134 137.891 62.6181 135.468L36.9293 102.626C35.034 100.203 32.129 98.7875 29.0527 98.7875L-32.7197 98.7875" stroke="#3B3D3F" stroke-dasharray="1 2"/>
<g filter="url(#filter2_f_8030_5555)">
<rect x="138.855" y="119.595" width="59.2523" height="57.0022" rx="22.5009" fill="#1C76FD" fill-opacity="0.3"/>
</g>
<g filter="url(#filter3_f_8030_5555)">
<rect x="113.283" y="101.461" width="110.426" height="76.9204" rx="22.5009" fill="#0A0D0F"/>
</g>
<rect x="113.519" y="64.7569" width="109.676" height="109.676" rx="23.6259" fill="#0A0D0F" stroke="url(#paint1_linear_8030_5555)" stroke-width="0.750029"/>
<g filter="url(#filter4_i_8030_5555)">
<rect x="119.144" y="70.3821" width="98.4255" height="98.4255" rx="18.7507" fill="#060809"/>
</g>
<rect x="119.519" y="70.7571" width="97.6755" height="97.6755" rx="18.3757" stroke="url(#paint2_linear_8030_5555)" stroke-width="0.750029"/>
<rect x="123.269" y="74.5073" width="90.1752" height="90.1752" rx="14.6256" fill="#0A0D0F" stroke="url(#paint3_linear_8030_5555)" stroke-width="0.750029"/>
<g filter="url(#filter5_i_8030_5555)">
<rect x="126.644" y="77.8823" width="83.425" height="83.425" rx="11.2504" fill="#060809"/>
</g>
<rect x="127.019" y="78.2573" width="82.6749" height="82.6749" rx="10.8754" stroke="url(#paint4_linear_8030_5555)" stroke-width="0.750029"/>
<rect x="131.119" y="82.0471" width="74.2529" height="75.0029" rx="7.12527" fill="#0A0D0F" stroke="url(#paint5_linear_8030_5555)" stroke-width="0.750029"/>
<path d="M168.107 101.513C157.912 101.513 149.647 109.777 149.647 119.972C149.647 130.167 157.912 138.431 168.107 138.431C178.301 138.431 186.566 130.167 186.566 119.972C186.566 109.777 178.301 101.513 168.107 101.513ZM165.375 133.15V133.537V134.134C162.488 133.58 159.908 132.166 157.91 130.169C155.301 127.559 153.687 123.954 153.687 119.972C153.687 118.271 153.982 116.638 154.523 115.12L155.375 115.611C154.906 116.979 154.653 118.446 154.653 119.972C154.653 123.689 156.159 127.052 158.593 129.487C160.188 131.082 162.182 132.278 164.411 132.914L164.41 132.912V128.438L161.895 127.765V120.648C161.375 120.456 161.003 119.956 161.003 119.369C161.003 118.615 161.615 118.003 162.369 118.003C163.123 118.003 163.734 118.615 163.734 119.369C163.734 119.95 163.37 120.445 162.858 120.642V127.026L165.375 127.701V133.15H165.375ZM168.589 122.159V133.42V133.911V134.385C168.428 134.39 168.268 134.392 168.107 134.392C167.945 134.392 167.785 134.389 167.625 134.385V133.911V133.42V122.167C167.077 121.973 166.685 121.453 166.685 120.839C166.685 120.06 167.316 119.429 168.095 119.429C168.874 119.429 169.505 120.06 169.505 120.839C169.505 121.445 169.124 121.959 168.589 122.159ZM169.877 123.087C169.877 122.473 170.283 121.953 170.84 121.782V106.794C169.958 106.61 169.044 106.516 168.108 106.516C167.171 106.516 166.257 106.612 165.376 106.794V121.653C165.925 121.846 166.319 122.367 166.319 122.983C166.319 123.761 165.688 124.393 164.909 124.393C164.13 124.393 163.499 123.761 163.499 122.983C163.499 122.379 163.878 121.866 164.411 121.665V107.031C162.181 107.667 160.188 108.863 158.593 110.458C157.608 111.442 156.776 112.578 156.133 113.83L159.777 115.934V124.051C160.253 124.264 160.586 124.741 160.586 125.297C160.586 126.051 159.975 126.662 159.22 126.662C158.466 126.662 157.855 126.051 157.855 125.297C157.855 124.685 158.257 124.167 158.812 123.994V116.487L155.723 114.704L155.261 114.437L154.882 114.219C155.609 112.55 156.642 111.046 157.91 109.777C160.52 107.168 164.125 105.554 168.107 105.554V105.552C172.089 105.552 175.693 107.166 178.303 109.775C179.559 111.031 180.584 112.516 181.309 114.164L180.84 114.436L180.47 114.65L177.289 116.487V124.022C177.803 124.219 178.167 124.715 178.167 125.297C178.167 126.051 177.556 126.662 176.802 126.662C176.048 126.662 175.436 126.051 175.436 125.297C175.436 124.71 175.807 124.212 176.326 124.018V115.933L180.056 113.779C179.417 112.549 178.594 111.43 177.622 110.458C176.028 108.863 174.034 107.667 171.804 107.031V121.842C172.278 122.057 172.608 122.532 172.608 123.086C172.608 123.84 171.997 124.452 171.242 124.452C170.488 124.452 169.877 123.841 169.877 123.087ZM178.303 130.168C176.305 132.165 173.725 133.579 170.839 134.132V133.536V133.15V133.149V127.701L173.355 127.026V120.663C172.813 120.482 172.423 119.971 172.423 119.369C172.423 118.615 173.034 118.003 173.788 118.003C174.542 118.003 175.153 118.615 175.153 119.369C175.153 119.934 174.81 120.42 174.32 120.627V127.765L171.803 128.438V132.912C174.033 132.277 176.026 131.08 177.621 129.486C180.057 127.051 181.562 123.686 181.562 119.972C181.562 118.425 181.3 116.939 180.821 115.556L181.67 115.065C182.225 116.596 182.526 118.248 182.526 119.972C182.526 123.953 180.912 127.559 178.303 130.168Z" fill="#1C76FD"/>
<rect x="-26.1855" y="110.234" width="53" height="43" fill="url(#paint6_linear_8030_5555)"/>
</g>
<defs>
<filter id="filter0_d_8030_5555" x="-44.6226" y="90.1824" width="411.063" height="59.2278" filterUnits="userSpaceOnUse" color-interpolation-filters="sRGB">
<feFlood flood-opacity="0" result="BackgroundImageFix"/>
<feColorMatrix in="SourceAlpha" type="matrix" values="0 0 0 0 0 0 0 0 0 0 0 0 0 0 0 0 0 0 127 0" result="hardAlpha"/>
<feOffset dy="1"/>
<feGaussianBlur stdDeviation="2"/>
<feComposite in2="hardAlpha" operator="out"/>
<feColorMatrix type="matrix" values="0 0 0 0 0 0 0 0 0 0 0 0 0 0 0 0 0 0 1 0"/>
<feBlend mode="normal" in2="BackgroundImageFix" result="effect1_dropShadow_8030_5555"/>
<feBlend mode="normal" in="SourceGraphic" in2="effect1_dropShadow_8030_5555" result="shape"/>
</filter>
<filter id="filter1_d_8030_5555" x="-44.6226" y="72.1816" width="413.063" height="77.2278" filterUnits="userSpaceOnUse" color-interpolation-filters="sRGB">
<feFlood flood-opacity="0" result="BackgroundImageFix"/>
<feColorMatrix in="SourceAlpha" type="matrix" values="0 0 0 0 0 0 0 0 0 0 0 0 0 0 0 0 0 0 127 0" result="hardAlpha"/>
<feOffset dy="1"/>
<feGaussianBlur stdDeviation="2"/>
<feComposite in2="hardAlpha" operator="out"/>
<feColorMatrix type="matrix" values="0 0 0 0 0 0 0 0 0 0 0 0 0 0 0 0 0 0 1 0"/>
<feBlend mode="normal" in2="BackgroundImageFix" result="effect1_dropShadow_8030_5555"/>
<feBlend mode="normal" in="SourceGraphic" in2="effect1_dropShadow_8030_5555" result="shape"/>
</filter>
<filter id="filter2_f_8030_5555" x="78.8532" y="59.5931" width="179.257" height="177.007" filterUnits="userSpaceOnUse" color-interpolation-filters="sRGB">
<feFlood flood-opacity="0" result="BackgroundImageFix"/>
<feBlend mode="normal" in="SourceGraphic" in2="BackgroundImageFix" result="shape"/>
<feGaussianBlur stdDeviation="30.0012" result="effect1_foregroundBlur_8030_5555"/>
</filter>
<filter id="filter3_f_8030_5555" x="108.783" y="96.9613" width="119.426" height="85.9208" filterUnits="userSpaceOnUse" color-interpolation-filters="sRGB">
<feFlood flood-opacity="0" result="BackgroundImageFix"/>
<feBlend mode="normal" in="SourceGraphic" in2="BackgroundImageFix" result="shape"/>
<feGaussianBlur stdDeviation="2.25009" result="effect1_foregroundBlur_8030_5555"/>
</filter>
<filter id="filter4_i_8030_5555" x="119.144" y="70.3821" width="98.4255" height="99.1756" filterUnits="userSpaceOnUse" color-interpolation-filters="sRGB">
<feFlood flood-opacity="0" result="BackgroundImageFix"/>
<feBlend mode="normal" in="SourceGraphic" in2="BackgroundImageFix" result="shape"/>
<feColorMatrix in="SourceAlpha" type="matrix" values="0 0 0 0 0 0 0 0 0 0 0 0 0 0 0 0 0 0 127 0" result="hardAlpha"/>
<feOffset dy="0.750029"/>
<feGaussianBlur stdDeviation="0.750029"/>
<feComposite in2="hardAlpha" operator="arithmetic" k2="-1" k3="1"/>
<feColorMatrix type="matrix" values="0 0 0 0 0 0 0 0 0 0 0 0 0 0 0 0 0 0 1 0"/>
<feBlend mode="normal" in2="shape" result="effect1_innerShadow_8030_5555"/>
</filter>
<filter id="filter5_i_8030_5555" x="126.644" y="77.8823" width="83.425" height="84.1751" filterUnits="userSpaceOnUse" color-interpolation-filters="sRGB">
<feFlood flood-opacity="0" result="BackgroundImageFix"/>
<feBlend mode="normal" in="SourceGraphic" in2="BackgroundImageFix" result="shape"/>
<feColorMatrix in="SourceAlpha" type="matrix" values="0 0 0 0 0 0 0 0 0 0 0 0 0 0 0 0 0 0 127 0" result="hardAlpha"/>
<feOffset dy="0.750029"/>
<feGaussianBlur stdDeviation="0.750029"/>
<feComposite in2="hardAlpha" operator="arithmetic" k2="-1" k3="1"/>
<feColorMatrix type="matrix" values="0 0 0 0 0 0 0 0 0 0 0 0 0 0 0 0 0 0 1 0"/>
<feBlend mode="normal" in2="shape" result="effect1_innerShadow_8030_5555"/>
</filter>
<radialGradient id="paint0_radial_8030_5555" cx="0" cy="0" r="1" gradientUnits="userSpaceOnUse" gradientTransform="translate(168.148 12.3092) rotate(90) scale(132.492 213.262)">
<stop stop-color="white"/>
<stop offset="1" stop-color="#F5F6F7" stop-opacity="0.1"/>
</radialGradient>
<linearGradient id="paint1_linear_8030_5555" x1="168.357" y1="119.558" x2="168.357" y2="174.808" gradientUnits="userSpaceOnUse">
<stop stop-color="#3B3D3F" stop-opacity="0.5"/>
<stop offset="1" stop-color="#3B3D3F" stop-opacity="0.89"/>
</linearGradient>
<linearGradient id="paint2_linear_8030_5555" x1="168.341" y1="69.9161" x2="168.381" y2="168.808" gradientUnits="userSpaceOnUse">
<stop stop-color="#1E1E1F" stop-opacity="0"/>
<stop offset="1" stop-color="#1E1E1F" stop-opacity="0.8"/>
</linearGradient>
<linearGradient id="paint3_linear_8030_5555" x1="168.356" y1="74.1323" x2="168.356" y2="165.058" gradientUnits="userSpaceOnUse">
<stop stop-color="#3B3D3F" stop-opacity="0.5"/>
<stop offset="1" stop-color="#3B3D3F" stop-opacity="0.8"/>
</linearGradient>
<linearGradient id="paint4_linear_8030_5555" x1="168.344" y1="77.4874" x2="168.377" y2="161.307" gradientUnits="userSpaceOnUse">
<stop stop-color="#1E1E1F" stop-opacity="0"/>
<stop offset="1" stop-color="#1E1E1F" stop-opacity="0.8"/>
</linearGradient>
<linearGradient id="paint5_linear_8030_5555" x1="168.246" y1="81.6721" x2="168.246" y2="157.425" gradientUnits="userSpaceOnUse">
<stop stop-color="#3B3D3F" stop-opacity="0.2"/>
<stop offset="1" stop-color="#3B3D3F" stop-opacity="0.4"/>
</linearGradient>
<linearGradient id="paint6_linear_8030_5555" x1="26.8145" y1="132.046" x2="-22.2596" y2="132.046" gradientUnits="userSpaceOnUse">
<stop stop-color="#13181C" stop-opacity="0"/>
<stop offset="1" stop-color="#13181C"/>
</linearGradient>
<clipPath id="clip0_8030_5555">
<rect width="335" height="237" fill="white"/>
</clipPath>
<clipPath id="clip1_8030_5555">
<rect width="250" height="51" fill="white" transform="translate(-41 93.2344)"/>
</clipPath>
</defs>
</svg>
