<svg width="360" height="325" viewBox="0 0 360 325" fill="none" xmlns="http://www.w3.org/2000/svg">
<g clip-path="url(#clip0_8029_5077)">
<mask id="mask0_8029_5077" style="mask-type:alpha" maskUnits="userSpaceOnUse" x="-12" y="-34" width="346" height="431">
<path d="M41.5035 356.5H-1.16016C-6.683 356.5 -11.1602 352.023 -11.1602 346.5V-20.6391C-11.1602 -26.1225 -6.74444 -30.5831 -1.26136 -30.6386L320.81 -33.8986C326.339 -33.9546 330.864 -29.5126 330.911 -23.9832L333.844 324.749C333.891 330.305 329.401 334.833 323.845 334.833H310.559C306.577 334.833 302.974 337.197 301.387 340.85L279.613 390.984C278.026 394.637 274.423 397 270.441 397H251.987C250.675 397 249.376 396.742 248.164 396.24L164.081 361.451C163.035 361.018 161.922 360.766 160.791 360.706L87.0536 356.77C83.8764 356.6 80.8081 357.953 78.7898 360.412L72.8259 367.681C69.1397 372.173 62.4136 372.589 58.203 368.583L48.3957 359.254C46.5367 357.486 44.0692 356.5 41.5035 356.5Z" fill="url(#paint0_radial_8029_5077)"/>
</mask>
<g mask="url(#mask0_8029_5077)">
<path d="M3 -98L3 346" stroke="#1C76FD" stroke-width="0.5"/>
<path d="M7 -98L7 346" stroke="#1C76FD" stroke-width="0.5"/>
<path d="M11 -98L11 346" stroke="#1C76FD" stroke-width="0.5"/>
<path d="M15 -98L15 346" stroke="#1C76FD" stroke-width="0.5"/>
<path d="M19 -98L19 346" stroke="#1C76FD" stroke-width="0.5"/>
<path d="M23 -98L23 346" stroke="#1C76FD" stroke-width="0.5"/>
<path d="M27 -98L27 346" stroke="#1C76FD" stroke-width="0.5"/>
<path d="M31 -98L31 346" stroke="#1C76FD" stroke-width="0.5"/>
<path d="M35 -98L35 346" stroke="#1C76FD" stroke-width="0.5"/>
<path d="M39 -98L39 346" stroke="#1C76FD" stroke-width="0.5"/>
<path d="M43 -98L43 346" stroke="#1C76FD" stroke-width="0.5"/>
<path d="M47 -98L47 346" stroke="#1C76FD" stroke-width="0.5"/>
<path d="M51 -98L51 346" stroke="#1C76FD" stroke-width="0.5"/>
<path d="M55 -98L55 346" stroke="#1C76FD" stroke-width="0.5"/>
<path d="M59 -98L59 346" stroke="#1C76FD" stroke-width="0.5"/>
<path d="M63 -98L63 346" stroke="#1C76FD" stroke-width="0.5"/>
<path d="M67 -98L67 346" stroke="#1C76FD" stroke-width="0.5"/>
<path d="M71 -98L71 346" stroke="#1C76FD" stroke-width="0.5"/>
<path d="M75 -98L75 346" stroke="#1C76FD" stroke-width="0.5"/>
<path d="M79 -98L79 346" stroke="#1C76FD" stroke-width="0.5"/>
<path d="M83 -98L83 346" stroke="#1C76FD" stroke-width="0.5"/>
<path d="M87 -98L87 346" stroke="#1C76FD" stroke-width="0.5"/>
<path d="M91 -98L91 346" stroke="#1C76FD" stroke-width="0.5"/>
<path d="M95 -98L95 346" stroke="#1C76FD" stroke-width="0.5"/>
<path d="M99 -98L99 346" stroke="#1C76FD" stroke-width="0.5"/>
<path d="M103 -98L103 346" stroke="#1C76FD" stroke-width="0.5"/>
<path d="M107 -98L107 346" stroke="#1C76FD" stroke-width="0.5"/>
<path d="M111 -98L111 346" stroke="#1C76FD" stroke-width="0.5"/>
<path d="M115 -98L115 346" stroke="#1C76FD" stroke-width="0.5"/>
<path d="M119 -98L119 346" stroke="#1C76FD" stroke-width="0.5"/>
<path d="M123 -98L123 346" stroke="#1C76FD" stroke-width="0.5"/>
<path d="M127 -98L127 346" stroke="#1C76FD" stroke-width="0.5"/>
<path d="M131 -98L131 346" stroke="#1C76FD" stroke-width="0.5"/>
<path d="M135 -98L135 346" stroke="#1C76FD" stroke-width="0.5"/>
<path d="M139 -98L139 346" stroke="#1C76FD" stroke-width="0.5"/>
<path d="M143 -98L143 346" stroke="#1C76FD" stroke-width="0.5"/>
<path d="M147 -98L147 346" stroke="#1C76FD" stroke-width="0.5"/>
<path d="M151 -98L151 346" stroke="#1C76FD" stroke-width="0.5"/>
<path d="M155 -98L155 346" stroke="#1C76FD" stroke-width="0.5"/>
<path d="M159 -98L159 346" stroke="#1C76FD" stroke-width="0.5"/>
<path d="M163 -98L163 346" stroke="#1C76FD" stroke-width="0.5"/>
<path d="M167 -98L167 346" stroke="#1C76FD" stroke-width="0.5"/>
<path d="M171 -98L171 346" stroke="#1C76FD" stroke-width="0.5"/>
<path d="M175 -98L175 346" stroke="#1C76FD" stroke-width="0.5"/>
<path d="M179 -98L179 346" stroke="#1C76FD" stroke-width="0.5"/>
<path d="M183 -98L183 346" stroke="#1C76FD" stroke-width="0.5"/>
<path d="M187 -98L187 346" stroke="#1C76FD" stroke-width="0.5"/>
<path d="M191 -98L191 346" stroke="#1C76FD" stroke-width="0.5"/>
<path d="M195 -98L195 346" stroke="#1C76FD" stroke-width="0.5"/>
<path d="M199 -98L199 346" stroke="#1C76FD" stroke-width="0.5"/>
<path d="M203 -98L203 346" stroke="#1C76FD" stroke-width="0.5"/>
<path d="M207 -98L207 346" stroke="#1C76FD" stroke-width="0.5"/>
<path d="M211 -98L211 346" stroke="#1C76FD" stroke-width="0.5"/>
<path d="M215 -98L215 346" stroke="#1C76FD" stroke-width="0.5"/>
<path d="M219 -98L219 346" stroke="#1C76FD" stroke-width="0.5"/>
<path d="M223 -98L223 346" stroke="#1C76FD" stroke-width="0.5"/>
<path d="M227 -98L227 346" stroke="#1C76FD" stroke-width="0.5"/>
<path d="M231 -98L231 346" stroke="#1C76FD" stroke-width="0.5"/>
<path d="M235 -98L235 346" stroke="#1C76FD" stroke-width="0.5"/>
<path d="M239 -98L239 346" stroke="#1C76FD" stroke-width="0.5"/>
<path d="M243 -98L243 346" stroke="#1C76FD" stroke-width="0.5"/>
<path d="M247 -98L247 346" stroke="#1C76FD" stroke-width="0.5"/>
<path d="M251 -98L251 346" stroke="#1C76FD" stroke-width="0.5"/>
<path d="M255 -98L255 346" stroke="#1C76FD" stroke-width="0.5"/>
<path d="M259 -98V346" stroke="#1C76FD" stroke-width="0.5"/>
<path d="M263 -98V346" stroke="#1C76FD" stroke-width="0.5"/>
<path d="M267 -98V346" stroke="#1C76FD" stroke-width="0.5"/>
<path d="M271 -98V346" stroke="#1C76FD" stroke-width="0.5"/>
<path d="M275 -98V346" stroke="#1C76FD" stroke-width="0.5"/>
<path d="M279 -98V346" stroke="#1C76FD" stroke-width="0.5"/>
<path d="M283 -98V346" stroke="#1C76FD" stroke-width="0.5"/>
<path d="M287 -98V346" stroke="#1C76FD" stroke-width="0.5"/>
<path d="M291 -98V346" stroke="#1C76FD" stroke-width="0.5"/>
<path d="M295 -98V346" stroke="#1C76FD" stroke-width="0.5"/>
<path d="M299 -98V346" stroke="#1C76FD" stroke-width="0.5"/>
<path d="M303 -98V346" stroke="#1C76FD" stroke-width="0.5"/>
<path d="M307 -98V346" stroke="#1C76FD" stroke-width="0.5"/>
<path d="M311 -98V346" stroke="#1C76FD" stroke-width="0.5"/>
<path d="M315 -98V346" stroke="#1C76FD" stroke-width="0.5"/>
<path d="M319 -98V346" stroke="#1C76FD" stroke-width="0.5"/>
<path d="M323 -98V346" stroke="#1C76FD" stroke-width="0.5"/>
<path d="M327 -98V346" stroke="#1C76FD" stroke-width="0.5"/>
<path d="M331 -98V346" stroke="#1C76FD" stroke-width="0.5"/>
</g>
<g clip-path="url(#clip1_8029_5077)">
<g filter="url(#filter0_d_8029_5077)">
<path d="M54.6841 176.64L78.3337 145.002C80.2216 142.477 83.1901 140.989 86.3433 140.989H271.757C275.289 140.989 278.56 142.853 280.36 145.892L298.619 176.71C300.42 179.75 303.69 181.613 307.222 181.613H372.451C375.309 181.613 377.626 179.296 377.626 176.438C377.626 173.579 375.309 171.262 372.451 171.262H312.644C309.121 171.262 305.859 169.409 304.055 166.384L285.497 135.264C283.693 132.238 280.43 130.385 276.908 130.385H82.2486C79.1724 130.385 76.2674 131.801 74.372 134.224L48.8685 166.828C46.9731 169.251 44.0681 170.667 40.9919 170.667H-20.4441C-23.2017 170.667 -25.4371 172.903 -25.4371 175.66C-25.4371 178.418 -23.2017 180.653 -20.4441 180.653H46.6745C49.8277 180.653 52.7962 179.166 54.6841 176.64Z" fill="#0E1214"/>
</g>
<path d="M392.104 176.752L310.693 176.752C307.249 176.752 304.046 174.979 302.218 172.059L282.254 140.18C280.426 137.261 277.224 135.488 273.779 135.488H85.6803C82.604 135.488 79.6989 136.904 77.8036 139.327L52.1149 172.168C50.2196 174.592 47.3145 176.007 44.2383 176.007L-17.5342 176.007" stroke="#3B3D3F" stroke-dasharray="1 2"/>
</g>
<g filter="url(#filter1_d_8029_5077)">
<path d="M54.6841 135.358L78.3337 166.996C80.2216 169.521 83.1901 171.009 86.3433 171.009H270.751C274.807 171.009 278.462 168.559 280.002 164.807L298.977 118.587C300.518 114.835 304.172 112.385 308.228 112.385H374.451C377.309 112.385 379.626 114.702 379.626 117.56C379.626 120.419 377.309 122.736 374.451 122.736H313.647C309.602 122.736 305.955 125.173 304.407 128.91L285.144 175.438C283.597 179.176 279.95 181.613 275.905 181.613H82.2486C79.1724 181.613 76.2674 180.197 74.372 177.774L48.8685 145.17C46.9731 142.747 44.0681 141.331 40.9919 141.331H-20.4441C-23.2017 141.331 -25.4371 139.095 -25.4371 136.338C-25.4371 133.58 -23.2017 131.345 -20.4441 131.345H46.6745C49.8277 131.345 52.7962 132.832 54.6841 135.358Z" fill="#0E1214"/>
</g>
<path d="M391.104 117.246L310.706 117.246C306.728 117.246 303.129 119.604 301.539 123.249L280.933 170.507C279.344 174.153 275.744 176.51 271.767 176.51H84.6803C81.604 176.51 78.6989 175.094 76.8036 172.671L51.1149 139.83C49.2196 137.407 46.3145 135.991 43.2383 135.991L-18.5342 135.991" stroke="#3B3D3F" stroke-dasharray="1 2"/>
<g filter="url(#filter2_f_8029_5077)">
<rect x="136.13" y="156" width="79" height="76" rx="30" fill="#1C76FD" fill-opacity="0.3"/>
</g>
<g filter="url(#filter3_f_8029_5077)">
<rect x="102.034" y="131.822" width="147.229" height="102.557" rx="30" fill="#0A0D0F"/>
</g>
<rect x="102.349" y="82.8848" width="146.229" height="146.229" rx="31.5" fill="#0A0D0F" stroke="url(#paint1_linear_8029_5077)"/>
<g filter="url(#filter4_i_8029_5077)">
<rect x="109.849" y="90.3848" width="131.229" height="131.229" rx="25" fill="#060809"/>
</g>
<rect x="110.349" y="90.8848" width="130.229" height="130.229" rx="24.5" stroke="url(#paint2_linear_8029_5077)"/>
<rect x="115.349" y="95.8848" width="120.229" height="120.229" rx="19.5" fill="#0A0D0F" stroke="url(#paint3_linear_8029_5077)"/>
<g filter="url(#filter5_i_8029_5077)">
<rect x="119.849" y="100.385" width="111.229" height="111.229" rx="15" fill="#060809"/>
</g>
<rect x="120.349" y="100.885" width="110.229" height="110.229" rx="14.5" stroke="url(#paint4_linear_8029_5077)"/>
<rect x="125.815" y="105.938" width="99" height="100" rx="9.5" fill="#0A0D0F" stroke="url(#paint5_linear_8029_5077)"/>
<g clip-path="url(#clip2_8029_5077)">
<path d="M175.13 131.891C161.537 131.891 150.518 142.91 150.518 156.502C150.518 170.095 161.537 181.114 175.13 181.114C188.722 181.114 199.741 170.095 199.741 156.502C199.741 142.91 188.722 131.891 175.13 131.891ZM171.488 174.072V174.588V175.383C167.639 174.645 164.199 172.76 161.535 170.097C158.056 166.618 155.905 161.812 155.905 156.502C155.905 154.234 156.298 152.057 157.02 150.034L158.155 150.688C157.53 152.511 157.192 154.468 157.192 156.502C157.192 161.457 159.2 165.941 162.446 169.188C164.572 171.315 167.231 172.909 170.203 173.758L170.202 173.755V167.79L166.848 166.892V157.404C166.154 157.147 165.659 156.481 165.659 155.698C165.659 154.693 166.474 153.877 167.479 153.877C168.485 153.877 169.3 154.693 169.3 155.698C169.3 156.473 168.815 157.133 168.133 157.396V165.907L171.488 166.807V174.072H171.488ZM175.773 159.419V174.432V175.086V175.718C175.559 175.726 175.345 175.728 175.13 175.728C174.914 175.728 174.701 175.724 174.487 175.718V175.086V174.432V159.429C173.758 159.17 173.234 158.477 173.234 157.658C173.234 156.62 174.076 155.778 175.115 155.778C176.153 155.778 176.995 156.62 176.995 157.658C176.995 158.465 176.486 159.152 175.773 159.419ZM177.491 160.655C177.491 159.836 178.031 159.144 178.774 158.915V138.932C177.598 138.687 176.38 138.561 175.132 138.561C173.883 138.561 172.664 138.69 171.489 138.932V158.744C172.221 159.001 172.747 159.696 172.747 160.516C172.747 161.555 171.905 162.396 170.867 162.396C169.828 162.396 168.986 161.555 168.986 160.516C168.986 159.711 169.492 159.027 170.203 158.759V139.248C167.229 140.096 164.572 141.691 162.445 143.817C161.133 145.13 160.023 146.644 159.166 148.313L164.024 151.118V161.94C164.659 162.225 165.103 162.86 165.103 163.602C165.103 164.607 164.288 165.422 163.282 165.422C162.277 165.422 161.462 164.607 161.462 163.602C161.462 162.786 161.998 162.095 162.737 161.864V151.856L158.62 149.478L158.003 149.122L157.498 148.831C158.467 146.607 159.844 144.602 161.535 142.91C165.014 139.43 169.821 137.279 175.131 137.279V137.276C180.439 137.276 185.245 139.428 188.724 142.907C190.399 144.582 191.765 146.561 192.732 148.759L192.107 149.121L191.613 149.407L187.373 151.856V161.903C188.057 162.165 188.544 162.826 188.544 163.601C188.544 164.607 187.728 165.422 186.723 165.422C185.717 165.422 184.902 164.607 184.902 163.601C184.902 162.82 185.396 162.155 186.088 161.897V151.117L191.062 148.245C190.209 146.605 189.113 145.113 187.816 143.817C185.691 141.69 183.032 140.096 180.059 139.248V158.995C180.691 159.281 181.131 159.915 181.131 160.654C181.131 161.66 180.316 162.475 179.311 162.475C178.306 162.475 177.491 161.66 177.491 160.655ZM188.724 170.096C186.061 172.759 182.62 174.644 178.773 175.382V174.587V174.072V174.071V166.807L182.127 165.907V157.424C181.405 157.182 180.884 156.501 180.884 155.698C180.884 154.693 181.699 153.877 182.705 153.877C183.71 153.877 184.525 154.693 184.525 155.698C184.525 156.452 184.067 157.099 183.414 157.375V166.892L180.058 167.79V173.755C183.032 172.908 185.689 171.312 187.815 169.187C191.063 165.94 193.07 161.455 193.07 156.502C193.07 154.439 192.72 152.458 192.082 150.614L193.214 149.96C193.954 152.001 194.356 154.204 194.356 156.502C194.355 161.81 192.203 166.617 188.724 170.096Z" fill="#1C76FD"/>
</g>
<rect x="-11" y="147.438" width="53" height="43" fill="url(#paint6_linear_8029_5077)"/>
<rect width="113" height="371" transform="matrix(-1 0 0 1 405 -29)" fill="url(#paint7_linear_8029_5077)"/>
<rect x="-64" y="-29" width="113" height="371" fill="url(#paint8_linear_8029_5077)"/>
</g>
<defs>
<filter id="filter0_d_8029_5077" x="-29.437" y="127.385" width="411.063" height="59.2279" filterUnits="userSpaceOnUse" color-interpolation-filters="sRGB">
<feFlood flood-opacity="0" result="BackgroundImageFix"/>
<feColorMatrix in="SourceAlpha" type="matrix" values="0 0 0 0 0 0 0 0 0 0 0 0 0 0 0 0 0 0 127 0" result="hardAlpha"/>
<feOffset dy="1"/>
<feGaussianBlur stdDeviation="2"/>
<feComposite in2="hardAlpha" operator="out"/>
<feColorMatrix type="matrix" values="0 0 0 0 0 0 0 0 0 0 0 0 0 0 0 0 0 0 1 0"/>
<feBlend mode="normal" in2="BackgroundImageFix" result="effect1_dropShadow_8029_5077"/>
<feBlend mode="normal" in="SourceGraphic" in2="effect1_dropShadow_8029_5077" result="shape"/>
</filter>
<filter id="filter1_d_8029_5077" x="-29.437" y="109.385" width="413.063" height="77.2279" filterUnits="userSpaceOnUse" color-interpolation-filters="sRGB">
<feFlood flood-opacity="0" result="BackgroundImageFix"/>
<feColorMatrix in="SourceAlpha" type="matrix" values="0 0 0 0 0 0 0 0 0 0 0 0 0 0 0 0 0 0 127 0" result="hardAlpha"/>
<feOffset dy="1"/>
<feGaussianBlur stdDeviation="2"/>
<feComposite in2="hardAlpha" operator="out"/>
<feColorMatrix type="matrix" values="0 0 0 0 0 0 0 0 0 0 0 0 0 0 0 0 0 0 1 0"/>
<feBlend mode="normal" in2="BackgroundImageFix" result="effect1_dropShadow_8029_5077"/>
<feBlend mode="normal" in="SourceGraphic" in2="effect1_dropShadow_8029_5077" result="shape"/>
</filter>
<filter id="filter2_f_8029_5077" x="56.1298" y="76" width="239" height="236" filterUnits="userSpaceOnUse" color-interpolation-filters="sRGB">
<feFlood flood-opacity="0" result="BackgroundImageFix"/>
<feBlend mode="normal" in="SourceGraphic" in2="BackgroundImageFix" result="shape"/>
<feGaussianBlur stdDeviation="40" result="effect1_foregroundBlur_8029_5077"/>
</filter>
<filter id="filter3_f_8029_5077" x="96.0341" y="125.822" width="159.229" height="114.557" filterUnits="userSpaceOnUse" color-interpolation-filters="sRGB">
<feFlood flood-opacity="0" result="BackgroundImageFix"/>
<feBlend mode="normal" in="SourceGraphic" in2="BackgroundImageFix" result="shape"/>
<feGaussianBlur stdDeviation="3" result="effect1_foregroundBlur_8029_5077"/>
</filter>
<filter id="filter4_i_8029_5077" x="109.849" y="90.3848" width="131.229" height="132.229" filterUnits="userSpaceOnUse" color-interpolation-filters="sRGB">
<feFlood flood-opacity="0" result="BackgroundImageFix"/>
<feBlend mode="normal" in="SourceGraphic" in2="BackgroundImageFix" result="shape"/>
<feColorMatrix in="SourceAlpha" type="matrix" values="0 0 0 0 0 0 0 0 0 0 0 0 0 0 0 0 0 0 127 0" result="hardAlpha"/>
<feOffset dy="1"/>
<feGaussianBlur stdDeviation="1"/>
<feComposite in2="hardAlpha" operator="arithmetic" k2="-1" k3="1"/>
<feColorMatrix type="matrix" values="0 0 0 0 0 0 0 0 0 0 0 0 0 0 0 0 0 0 1 0"/>
<feBlend mode="normal" in2="shape" result="effect1_innerShadow_8029_5077"/>
</filter>
<filter id="filter5_i_8029_5077" x="119.849" y="100.385" width="111.229" height="112.229" filterUnits="userSpaceOnUse" color-interpolation-filters="sRGB">
<feFlood flood-opacity="0" result="BackgroundImageFix"/>
<feBlend mode="normal" in="SourceGraphic" in2="BackgroundImageFix" result="shape"/>
<feColorMatrix in="SourceAlpha" type="matrix" values="0 0 0 0 0 0 0 0 0 0 0 0 0 0 0 0 0 0 127 0" result="hardAlpha"/>
<feOffset dy="1"/>
<feGaussianBlur stdDeviation="1"/>
<feComposite in2="hardAlpha" operator="arithmetic" k2="-1" k3="1"/>
<feColorMatrix type="matrix" values="0 0 0 0 0 0 0 0 0 0 0 0 0 0 0 0 0 0 1 0"/>
<feBlend mode="normal" in2="shape" result="effect1_innerShadow_8029_5077"/>
</filter>
<radialGradient id="paint0_radial_8029_5077" cx="0" cy="0" r="1" gradientUnits="userSpaceOnUse" gradientTransform="translate(183.333 18.58) rotate(90) scale(165.151 213.262)">
<stop stop-color="white"/>
<stop offset="1" stop-color="#F5F6F7" stop-opacity="0.1"/>
</radialGradient>
<linearGradient id="paint1_linear_8029_5077" x1="175.463" y1="155.95" x2="175.463" y2="229.614" gradientUnits="userSpaceOnUse">
<stop stop-color="#3B3D3F" stop-opacity="0.5"/>
<stop offset="1" stop-color="#3B3D3F" stop-opacity="0.89"/>
</linearGradient>
<linearGradient id="paint2_linear_8029_5077" x1="175.443" y1="89.7635" x2="175.495" y2="221.614" gradientUnits="userSpaceOnUse">
<stop stop-color="#1E1E1F" stop-opacity="0"/>
<stop offset="1" stop-color="#1E1E1F" stop-opacity="0.8"/>
</linearGradient>
<linearGradient id="paint3_linear_8029_5077" x1="175.463" y1="95.3848" x2="175.463" y2="216.614" gradientUnits="userSpaceOnUse">
<stop stop-color="#3B3D3F" stop-opacity="0.5"/>
<stop offset="1" stop-color="#3B3D3F" stop-opacity="0.8"/>
</linearGradient>
<linearGradient id="paint4_linear_8029_5077" x1="175.446" y1="99.8582" x2="175.49" y2="211.614" gradientUnits="userSpaceOnUse">
<stop stop-color="#1E1E1F" stop-opacity="0"/>
<stop offset="1" stop-color="#1E1E1F" stop-opacity="0.8"/>
</linearGradient>
<linearGradient id="paint5_linear_8029_5077" x1="175.315" y1="105.438" x2="175.315" y2="206.438" gradientUnits="userSpaceOnUse">
<stop stop-color="#3B3D3F" stop-opacity="0.2"/>
<stop offset="1" stop-color="#3B3D3F" stop-opacity="0.4"/>
</linearGradient>
<linearGradient id="paint6_linear_8029_5077" x1="42" y1="169.249" x2="-7.07408" y2="169.249" gradientUnits="userSpaceOnUse">
<stop stop-color="#13181C" stop-opacity="0"/>
<stop offset="1" stop-color="#13181C"/>
</linearGradient>
<linearGradient id="paint7_linear_8029_5077" x1="116" y1="188.188" x2="8.37079" y2="188.402" gradientUnits="userSpaceOnUse">
<stop stop-color="#0F1416" stop-opacity="0"/>
<stop offset="0.597286" stop-color="#0F1416"/>
</linearGradient>
<linearGradient id="paint8_linear_8029_5077" x1="52" y1="159.188" x2="-55.6292" y2="159.402" gradientUnits="userSpaceOnUse">
<stop stop-color="#161C20" stop-opacity="0"/>
<stop offset="0.597286" stop-color="#161C20"/>
</linearGradient>
<clipPath id="clip0_8029_5077">
<rect width="360" height="325" fill="white"/>
</clipPath>
<clipPath id="clip1_8029_5077">
<rect width="250" height="51" fill="white" transform="translate(-25.8145 130.438)"/>
</clipPath>
<clipPath id="clip2_8029_5077">
<rect width="51" height="51" fill="white" transform="translate(149.63 131.002)"/>
</clipPath>
</defs>
</svg>
