<svg width="387" height="289" viewBox="0 0 387 289" fill="none" xmlns="http://www.w3.org/2000/svg">
<mask id="mask0_8027_4598" style="mask-type:alpha" maskUnits="userSpaceOnUse" x="-2" y="-16" width="393" height="168">
<path d="M56.3733 108.067H8.83984C3.317 108.067 -1.16016 103.59 -1.16016 98.067V-2.96403C-1.16016 -8.45902 3.27361 -12.9245 8.76846 -12.9638L378.04 -15.6001C383.479 -15.6389 387.951 -11.3237 388.107 -5.88703L390.634 82.2133C390.796 87.8461 386.273 92.5 380.638 92.5H320.244C316.423 92.5 312.936 94.6774 311.259 98.1107L288.546 144.605C287.072 147.622 284.182 149.698 280.852 150.132L269.503 151.609C267.545 151.864 265.555 151.533 263.785 150.659L173.455 106.058C171.965 105.323 170.316 104.97 168.657 105.031L91.3786 107.899C88.5065 108.006 85.8191 109.343 84.0019 111.57L81.6311 114.475C77.4765 119.566 69.625 119.334 65.7773 114.008L64.4796 112.211C62.5995 109.609 59.584 108.067 56.3733 108.067Z" fill="url(#paint0_radial_8027_4598)"/>
</mask>
<g mask="url(#mask0_8027_4598)">
<path d="M1.44092 -67.0742L1.44092 251.655" stroke="#1C76FD" stroke-width="0.5"/>
<path d="M5.44092 -67.0742L5.44092 251.655" stroke="#1C76FD" stroke-width="0.5"/>
<path d="M9.44092 -67.0742L9.44092 251.655" stroke="#1C76FD" stroke-width="0.5"/>
<path d="M13.4409 -67.0742L13.4409 251.655" stroke="#1C76FD" stroke-width="0.5"/>
<path d="M17.4409 -67.0742L17.4409 251.655" stroke="#1C76FD" stroke-width="0.5"/>
<path d="M21.4409 -67.0742L21.4409 251.655" stroke="#1C76FD" stroke-width="0.5"/>
<path d="M25.4409 -67.0742L25.4409 251.655" stroke="#1C76FD" stroke-width="0.5"/>
<path d="M29.4409 -67.0742L29.4409 251.655" stroke="#1C76FD" stroke-width="0.5"/>
<path d="M33.4409 -67.0742L33.4409 251.655" stroke="#1C76FD" stroke-width="0.5"/>
<path d="M37.4409 -67.0742L37.4409 251.655" stroke="#1C76FD" stroke-width="0.5"/>
<path d="M41.4409 -67.0742L41.4409 251.655" stroke="#1C76FD" stroke-width="0.5"/>
<path d="M45.4409 -67.0742L45.4409 251.655" stroke="#1C76FD" stroke-width="0.5"/>
<path d="M49.4409 -67.0742L49.4409 251.655" stroke="#1C76FD" stroke-width="0.5"/>
<path d="M53.4409 -67.0742L53.4409 251.655" stroke="#1C76FD" stroke-width="0.5"/>
<path d="M57.4409 -67.0742L57.4409 251.655" stroke="#1C76FD" stroke-width="0.5"/>
<path d="M61.4409 -67.0742L61.4409 251.655" stroke="#1C76FD" stroke-width="0.5"/>
<path d="M65.4409 -67.0742L65.4409 251.655" stroke="#1C76FD" stroke-width="0.5"/>
<path d="M69.4409 -67.0742L69.4409 251.655" stroke="#1C76FD" stroke-width="0.5"/>
<path d="M73.4409 -67.0742L73.4409 251.655" stroke="#1C76FD" stroke-width="0.5"/>
<path d="M77.4409 -67.0742L77.4409 251.655" stroke="#1C76FD" stroke-width="0.5"/>
<path d="M81.4409 -67.0742L81.4409 251.655" stroke="#1C76FD" stroke-width="0.5"/>
<path d="M85.4409 -67.0742L85.4409 251.655" stroke="#1C76FD" stroke-width="0.5"/>
<path d="M89.4409 -67.0742L89.4409 251.655" stroke="#1C76FD" stroke-width="0.5"/>
<path d="M93.4409 -67.0742L93.4409 251.655" stroke="#1C76FD" stroke-width="0.5"/>
<path d="M97.4409 -67.0742L97.4409 251.655" stroke="#1C76FD" stroke-width="0.5"/>
<path d="M101.441 -67.0742L101.441 251.655" stroke="#1C76FD" stroke-width="0.5"/>
<path d="M105.441 -67.0742L105.441 251.655" stroke="#1C76FD" stroke-width="0.5"/>
<path d="M109.441 -67.0742L109.441 251.655" stroke="#1C76FD" stroke-width="0.5"/>
<path d="M113.441 -67.0742L113.441 251.655" stroke="#1C76FD" stroke-width="0.5"/>
<path d="M117.441 -67.0742L117.441 251.655" stroke="#1C76FD" stroke-width="0.5"/>
<path d="M121.441 -67.0742L121.441 251.655" stroke="#1C76FD" stroke-width="0.5"/>
<path d="M125.441 -67.0742L125.441 251.655" stroke="#1C76FD" stroke-width="0.5"/>
<path d="M129.441 -67.0742L129.441 251.655" stroke="#1C76FD" stroke-width="0.5"/>
<path d="M133.441 -67.0742L133.441 251.655" stroke="#1C76FD" stroke-width="0.5"/>
<path d="M137.441 -67.0742L137.441 251.655" stroke="#1C76FD" stroke-width="0.5"/>
<path d="M141.441 -67.0742L141.441 251.655" stroke="#1C76FD" stroke-width="0.5"/>
<path d="M145.441 -67.0742L145.441 251.655" stroke="#1C76FD" stroke-width="0.5"/>
<path d="M149.441 -67.0742L149.441 251.655" stroke="#1C76FD" stroke-width="0.5"/>
<path d="M153.441 -67.0742L153.441 251.655" stroke="#1C76FD" stroke-width="0.5"/>
<path d="M157.441 -67.0742L157.441 251.655" stroke="#1C76FD" stroke-width="0.5"/>
<path d="M161.441 -67.0742L161.441 251.655" stroke="#1C76FD" stroke-width="0.5"/>
<path d="M165.441 -67.0742L165.441 251.655" stroke="#1C76FD" stroke-width="0.5"/>
<path d="M169.441 -67.0742L169.441 251.655" stroke="#1C76FD" stroke-width="0.5"/>
<path d="M173.441 -67.0742L173.441 251.655" stroke="#1C76FD" stroke-width="0.5"/>
<path d="M177.441 -67.0742L177.441 251.655" stroke="#1C76FD" stroke-width="0.5"/>
<path d="M181.441 -67.0742L181.441 251.655" stroke="#1C76FD" stroke-width="0.5"/>
<path d="M185.441 -67.0742L185.441 251.655" stroke="#1C76FD" stroke-width="0.5"/>
<path d="M189.441 -67.0742L189.441 251.655" stroke="#1C76FD" stroke-width="0.5"/>
<path d="M193.441 -67.0742L193.441 251.655" stroke="#1C76FD" stroke-width="0.5"/>
<path d="M197.441 -67.0742L197.441 251.655" stroke="#1C76FD" stroke-width="0.5"/>
<path d="M201.441 -67.0742L201.441 251.655" stroke="#1C76FD" stroke-width="0.5"/>
<path d="M205.441 -67.0742L205.441 251.655" stroke="#1C76FD" stroke-width="0.5"/>
<path d="M209.441 -67.0742L209.441 251.655" stroke="#1C76FD" stroke-width="0.5"/>
<path d="M213.441 -67.0742L213.441 251.655" stroke="#1C76FD" stroke-width="0.5"/>
<path d="M217.441 -67.0742L217.441 251.655" stroke="#1C76FD" stroke-width="0.5"/>
<path d="M221.441 -67.0742L221.441 251.655" stroke="#1C76FD" stroke-width="0.5"/>
<path d="M225.441 -67.0742L225.441 251.655" stroke="#1C76FD" stroke-width="0.5"/>
<path d="M229.441 -67.0742L229.441 251.655" stroke="#1C76FD" stroke-width="0.5"/>
<path d="M233.441 -67.0742L233.441 251.655" stroke="#1C76FD" stroke-width="0.5"/>
<path d="M237.441 -67.0742L237.441 251.655" stroke="#1C76FD" stroke-width="0.5"/>
<path d="M241.441 -67.0742L241.441 251.655" stroke="#1C76FD" stroke-width="0.5"/>
<path d="M245.441 -67.0742L245.441 251.655" stroke="#1C76FD" stroke-width="0.5"/>
<path d="M249.441 -67.0742L249.441 251.655" stroke="#1C76FD" stroke-width="0.5"/>
<path d="M253.441 -67.0742L253.441 251.655" stroke="#1C76FD" stroke-width="0.5"/>
<path d="M257.441 -67.0742V251.655" stroke="#1C76FD" stroke-width="0.5"/>
<path d="M261.441 -67.0742V251.655" stroke="#1C76FD" stroke-width="0.5"/>
<path d="M265.441 -67.0742V251.655" stroke="#1C76FD" stroke-width="0.5"/>
<path d="M269.441 -67.0742V251.655" stroke="#1C76FD" stroke-width="0.5"/>
<path d="M273.441 -67.0742V251.655" stroke="#1C76FD" stroke-width="0.5"/>
<path d="M277.441 -67.0742V251.655" stroke="#1C76FD" stroke-width="0.5"/>
<path d="M281.441 -67.0742V251.655" stroke="#1C76FD" stroke-width="0.5"/>
<path d="M285.441 -67.0742V251.655" stroke="#1C76FD" stroke-width="0.5"/>
<path d="M289.441 -67.0742V251.655" stroke="#1C76FD" stroke-width="0.5"/>
<path d="M293.441 -67.0742V251.655" stroke="#1C76FD" stroke-width="0.5"/>
<path d="M297.441 -67.0742V251.655" stroke="#1C76FD" stroke-width="0.5"/>
<path d="M301.441 -67.0742V251.655" stroke="#1C76FD" stroke-width="0.5"/>
<path d="M305.441 -67.0742V251.655" stroke="#1C76FD" stroke-width="0.5"/>
<path d="M309.441 -67.0742V251.655" stroke="#1C76FD" stroke-width="0.5"/>
<path d="M313.441 -67.0742V251.655" stroke="#1C76FD" stroke-width="0.5"/>
<path d="M317.441 -67.0742V251.655" stroke="#1C76FD" stroke-width="0.5"/>
<path d="M321.441 -67.0742V251.655" stroke="#1C76FD" stroke-width="0.5"/>
<path d="M325.441 -67.0742V251.655" stroke="#1C76FD" stroke-width="0.5"/>
<path d="M329.441 -67.0742V251.655" stroke="#1C76FD" stroke-width="0.5"/>
<path d="M333.441 -67.0742V251.655" stroke="#1C76FD" stroke-width="0.5"/>
<path d="M337.441 -67.0742V251.655" stroke="#1C76FD" stroke-width="0.5"/>
<path d="M341.441 -67.0742V251.655" stroke="#1C76FD" stroke-width="0.5"/>
<path d="M345.441 -67.0742V251.655" stroke="#1C76FD" stroke-width="0.5"/>
<path d="M349.441 -67.0742V251.655" stroke="#1C76FD" stroke-width="0.5"/>
<path d="M353.441 -67.0742V251.655" stroke="#1C76FD" stroke-width="0.5"/>
<path d="M357.441 -67.0742V251.655" stroke="#1C76FD" stroke-width="0.5"/>
<path d="M361.441 -67.0742V251.655" stroke="#1C76FD" stroke-width="0.5"/>
<path d="M365.441 -67.0742V251.655" stroke="#1C76FD" stroke-width="0.5"/>
<path d="M369.441 -67.0742V251.655" stroke="#1C76FD" stroke-width="0.5"/>
<path d="M373.441 -67.0742V251.655" stroke="#1C76FD" stroke-width="0.5"/>
<path d="M377.441 -67.0742V251.655" stroke="#1C76FD" stroke-width="0.5"/>
<path d="M381.441 -67.0742V251.655" stroke="#1C76FD" stroke-width="0.5"/>
<path d="M385.441 -67.0742V251.655" stroke="#1C76FD" stroke-width="0.5"/>
</g>
<g clip-path="url(#clip0_8027_4598)">
<g filter="url(#filter0_d_8027_4598)">
<path d="M64.6841 153.64L88.3337 122.002C90.2216 119.477 93.1901 117.989 96.3433 117.989H281.757C285.289 117.989 288.56 119.853 290.36 122.892L308.619 153.71C310.42 156.75 313.69 158.613 317.222 158.613H382.451C385.309 158.613 387.626 156.296 387.626 153.438C387.626 150.579 385.309 148.262 382.451 148.262H322.644C319.121 148.262 315.859 146.409 314.055 143.384L295.497 112.264C293.693 109.238 290.43 107.385 286.908 107.385H92.2486C89.1724 107.385 86.2674 108.801 84.372 111.224L58.8685 143.828C56.9731 146.251 54.0681 147.667 50.9919 147.667H-10.4441C-13.2017 147.667 -15.4371 149.903 -15.4371 152.66C-15.4371 155.418 -13.2017 157.653 -10.4441 157.653H56.6745C59.8277 157.653 62.7962 156.166 64.6841 153.64Z" fill="#0E1214"/>
</g>
<path d="M402.104 153.752L320.693 153.752C317.249 153.752 314.046 151.979 312.218 149.059L292.254 117.18C290.426 114.261 287.224 112.488 283.779 112.488H95.6803C92.604 112.488 89.6989 113.904 87.8036 116.327L62.1149 149.168C60.2196 151.592 57.3145 153.007 54.2383 153.007L-7.53418 153.007" stroke="#3B3D3F" stroke-dasharray="1 2"/>
</g>
<g filter="url(#filter1_d_8027_4598)">
<path d="M64.6841 112.358L88.3337 143.996C90.2216 146.521 93.1901 148.009 96.3433 148.009H280.751C284.807 148.009 288.462 145.559 290.002 141.807L308.977 95.5869C310.518 91.8348 314.172 89.3848 318.228 89.3848H384.451C387.309 89.3848 389.626 91.7019 389.626 94.5602C389.626 97.4186 387.309 99.7357 384.451 99.7357H323.647C319.602 99.7357 315.955 102.173 314.407 105.91L295.144 152.438C293.597 156.176 289.95 158.613 285.905 158.613H92.2486C89.1724 158.613 86.2674 157.197 84.372 154.774L58.8685 122.17C56.9731 119.747 54.0681 118.331 50.9919 118.331H-10.4441C-13.2017 118.331 -15.4371 116.095 -15.4371 113.338C-15.4371 110.58 -13.2017 108.345 -10.4441 108.345H56.6745C59.8277 108.345 62.7962 109.832 64.6841 112.358Z" fill="#0E1214"/>
</g>
<path d="M402.104 94.2461L321.706 94.2464C317.728 94.2464 314.129 96.6036 312.539 100.249L291.933 147.507C290.344 151.153 286.744 153.51 282.767 153.51H95.6803C92.604 153.51 89.6989 152.094 87.8036 149.671L62.1149 116.83C60.2196 114.407 57.3145 112.991 54.2383 112.991L-7.53418 112.991" stroke="#3B3D3F" stroke-dasharray="1 2"/>
<g filter="url(#filter2_f_8027_4598)">
<rect x="154" y="133" width="79" height="76" rx="30" fill="#1C76FD" fill-opacity="0.3"/>
</g>
<g filter="url(#filter3_f_8027_4598)">
<rect x="119.904" y="108.822" width="147.229" height="102.557" rx="30" fill="#0A0D0F"/>
</g>
<rect x="120.219" y="59.8848" width="146.229" height="146.229" rx="31.5" fill="#0A0D0F" stroke="url(#paint1_linear_8027_4598)"/>
<g filter="url(#filter4_i_8027_4598)">
<rect x="127.719" y="67.3848" width="131.229" height="131.229" rx="25" fill="#060809"/>
</g>
<rect x="128.219" y="67.8848" width="130.229" height="130.229" rx="24.5" stroke="url(#paint2_linear_8027_4598)"/>
<rect x="133.219" y="72.8848" width="120.229" height="120.229" rx="19.5" fill="#0A0D0F" stroke="url(#paint3_linear_8027_4598)"/>
<g filter="url(#filter5_i_8027_4598)">
<rect x="137.719" y="77.3848" width="111.229" height="111.229" rx="15" fill="#060809"/>
</g>
<rect x="138.219" y="77.8848" width="110.229" height="110.229" rx="14.5" stroke="url(#paint4_linear_8027_4598)"/>
<rect x="143.686" y="82.9375" width="99" height="100" rx="9.5" fill="#0A0D0F" stroke="url(#paint5_linear_8027_4598)"/>
<g clip-path="url(#clip1_8027_4598)">
<path d="M193 108.891C179.408 108.891 168.389 119.91 168.389 133.502C168.389 147.095 179.408 158.114 193 158.114C206.593 158.114 217.612 147.095 217.612 133.502C217.612 119.91 206.593 108.891 193 108.891ZM189.358 151.072V151.588V152.383C185.509 151.645 182.069 149.76 179.405 147.097C175.926 143.618 173.775 138.812 173.775 133.502C173.775 131.234 174.168 129.057 174.89 127.033L176.025 127.688C175.4 129.511 175.062 131.468 175.062 133.502C175.062 138.457 177.07 142.941 180.316 146.188C182.443 148.315 185.101 149.909 188.073 150.758L188.072 150.755V144.79L184.718 143.892V134.404C184.024 134.147 183.529 133.481 183.529 132.698C183.529 131.693 184.344 130.877 185.35 130.877C186.355 130.877 187.17 131.693 187.17 132.698C187.17 133.473 186.685 134.133 186.003 134.396V142.907L189.358 143.806V151.072H189.358ZM193.643 136.418V151.432V152.086V152.718C193.429 152.726 193.215 152.728 193.001 152.728C192.784 152.728 192.571 152.724 192.357 152.718V152.086V151.432V136.429C191.628 136.17 191.104 135.477 191.104 134.658C191.104 133.62 191.946 132.778 192.985 132.778C194.023 132.778 194.865 133.62 194.865 134.658C194.865 135.465 194.357 136.152 193.643 136.418ZM195.361 137.655C195.361 136.836 195.901 136.144 196.644 135.915V115.932C195.469 115.687 194.251 115.561 193.002 115.561C191.753 115.561 190.535 115.69 189.359 115.932V135.744C190.091 136.001 190.617 136.696 190.617 137.516C190.617 138.554 189.775 139.396 188.737 139.396C187.698 139.396 186.857 138.554 186.857 137.516C186.857 136.711 187.363 136.027 188.073 135.759V116.248C185.099 117.096 182.442 118.691 180.316 120.817C179.003 122.13 177.893 123.644 177.036 125.313L181.894 128.118V138.94C182.529 139.225 182.973 139.86 182.973 140.602C182.973 141.607 182.158 142.422 181.152 142.422C180.147 142.422 179.332 141.607 179.332 140.602C179.332 139.786 179.868 139.095 180.608 138.864V128.856L176.49 126.478L175.873 126.122L175.368 125.831C176.337 123.607 177.715 121.602 179.405 119.91C182.885 116.43 187.691 114.279 193.001 114.279V114.276C198.309 114.276 203.115 116.428 206.595 119.907C208.269 121.582 209.636 123.561 210.602 125.759L209.977 126.121L209.483 126.407L205.243 128.856V138.903C205.928 139.165 206.414 139.826 206.414 140.601C206.414 141.607 205.599 142.422 204.593 142.422C203.588 142.422 202.773 141.607 202.773 140.601C202.773 139.82 203.266 139.155 203.958 138.897V128.117L208.932 125.245C208.079 123.605 206.983 122.113 205.686 120.817C203.562 118.69 200.902 117.096 197.929 116.248V135.995C198.561 136.281 199.002 136.915 199.002 137.654C199.002 138.659 198.187 139.475 197.181 139.475C196.176 139.475 195.361 138.66 195.361 137.655ZM206.594 147.096C203.931 149.759 200.49 151.644 196.643 152.382V151.587V151.072V151.071V143.806L199.997 142.907V134.423C199.275 134.182 198.754 133.501 198.754 132.698C198.754 131.693 199.57 130.877 200.575 130.877C201.581 130.877 202.396 131.693 202.396 132.698C202.396 133.452 201.937 134.099 201.284 134.375V143.892L197.929 144.79V150.755C200.902 149.908 203.559 148.312 205.686 146.187C208.933 142.94 210.94 138.454 210.94 133.502C210.94 131.439 210.591 129.458 209.952 127.614L211.085 126.96C211.824 129.001 212.226 131.204 212.226 133.502C212.225 138.809 210.074 143.617 206.594 147.096Z" fill="#1C76FD"/>
</g>
<rect x="-1" y="124.438" width="53" height="43" fill="url(#paint6_linear_8027_4598)"/>
<defs>
<filter id="filter0_d_8027_4598" x="-19.437" y="104.385" width="411.063" height="59.2278" filterUnits="userSpaceOnUse" color-interpolation-filters="sRGB">
<feFlood flood-opacity="0" result="BackgroundImageFix"/>
<feColorMatrix in="SourceAlpha" type="matrix" values="0 0 0 0 0 0 0 0 0 0 0 0 0 0 0 0 0 0 127 0" result="hardAlpha"/>
<feOffset dy="1"/>
<feGaussianBlur stdDeviation="2"/>
<feComposite in2="hardAlpha" operator="out"/>
<feColorMatrix type="matrix" values="0 0 0 0 0 0 0 0 0 0 0 0 0 0 0 0 0 0 1 0"/>
<feBlend mode="normal" in2="BackgroundImageFix" result="effect1_dropShadow_8027_4598"/>
<feBlend mode="normal" in="SourceGraphic" in2="effect1_dropShadow_8027_4598" result="shape"/>
</filter>
<filter id="filter1_d_8027_4598" x="-19.437" y="86.3848" width="413.063" height="77.2278" filterUnits="userSpaceOnUse" color-interpolation-filters="sRGB">
<feFlood flood-opacity="0" result="BackgroundImageFix"/>
<feColorMatrix in="SourceAlpha" type="matrix" values="0 0 0 0 0 0 0 0 0 0 0 0 0 0 0 0 0 0 127 0" result="hardAlpha"/>
<feOffset dy="1"/>
<feGaussianBlur stdDeviation="2"/>
<feComposite in2="hardAlpha" operator="out"/>
<feColorMatrix type="matrix" values="0 0 0 0 0 0 0 0 0 0 0 0 0 0 0 0 0 0 1 0"/>
<feBlend mode="normal" in2="BackgroundImageFix" result="effect1_dropShadow_8027_4598"/>
<feBlend mode="normal" in="SourceGraphic" in2="effect1_dropShadow_8027_4598" result="shape"/>
</filter>
<filter id="filter2_f_8027_4598" x="74" y="53" width="239" height="236" filterUnits="userSpaceOnUse" color-interpolation-filters="sRGB">
<feFlood flood-opacity="0" result="BackgroundImageFix"/>
<feBlend mode="normal" in="SourceGraphic" in2="BackgroundImageFix" result="shape"/>
<feGaussianBlur stdDeviation="40" result="effect1_foregroundBlur_8027_4598"/>
</filter>
<filter id="filter3_f_8027_4598" x="113.904" y="102.822" width="159.229" height="114.557" filterUnits="userSpaceOnUse" color-interpolation-filters="sRGB">
<feFlood flood-opacity="0" result="BackgroundImageFix"/>
<feBlend mode="normal" in="SourceGraphic" in2="BackgroundImageFix" result="shape"/>
<feGaussianBlur stdDeviation="3" result="effect1_foregroundBlur_8027_4598"/>
</filter>
<filter id="filter4_i_8027_4598" x="127.719" y="67.3848" width="131.229" height="132.229" filterUnits="userSpaceOnUse" color-interpolation-filters="sRGB">
<feFlood flood-opacity="0" result="BackgroundImageFix"/>
<feBlend mode="normal" in="SourceGraphic" in2="BackgroundImageFix" result="shape"/>
<feColorMatrix in="SourceAlpha" type="matrix" values="0 0 0 0 0 0 0 0 0 0 0 0 0 0 0 0 0 0 127 0" result="hardAlpha"/>
<feOffset dy="1"/>
<feGaussianBlur stdDeviation="1"/>
<feComposite in2="hardAlpha" operator="arithmetic" k2="-1" k3="1"/>
<feColorMatrix type="matrix" values="0 0 0 0 0 0 0 0 0 0 0 0 0 0 0 0 0 0 1 0"/>
<feBlend mode="normal" in2="shape" result="effect1_innerShadow_8027_4598"/>
</filter>
<filter id="filter5_i_8027_4598" x="137.719" y="77.3848" width="111.229" height="112.229" filterUnits="userSpaceOnUse" color-interpolation-filters="sRGB">
<feFlood flood-opacity="0" result="BackgroundImageFix"/>
<feBlend mode="normal" in="SourceGraphic" in2="BackgroundImageFix" result="shape"/>
<feColorMatrix in="SourceAlpha" type="matrix" values="0 0 0 0 0 0 0 0 0 0 0 0 0 0 0 0 0 0 127 0" result="hardAlpha"/>
<feOffset dy="1"/>
<feGaussianBlur stdDeviation="1"/>
<feComposite in2="hardAlpha" operator="arithmetic" k2="-1" k3="1"/>
<feColorMatrix type="matrix" values="0 0 0 0 0 0 0 0 0 0 0 0 0 0 0 0 0 0 1 0"/>
<feBlend mode="normal" in2="shape" result="effect1_innerShadow_8027_4598"/>
</filter>
<radialGradient id="paint0_radial_8027_4598" cx="0" cy="0" r="1" gradientUnits="userSpaceOnUse" gradientTransform="translate(193.333 26.5123) rotate(90) scale(132.492 213.262)">
<stop stop-color="white"/>
<stop offset="1" stop-color="#F5F6F7" stop-opacity="0.1"/>
</radialGradient>
<linearGradient id="paint1_linear_8027_4598" x1="193.333" y1="132.95" x2="193.333" y2="206.614" gradientUnits="userSpaceOnUse">
<stop stop-color="#3B3D3F" stop-opacity="0.5"/>
<stop offset="1" stop-color="#3B3D3F" stop-opacity="0.89"/>
</linearGradient>
<linearGradient id="paint2_linear_8027_4598" x1="193.313" y1="66.7635" x2="193.366" y2="198.614" gradientUnits="userSpaceOnUse">
<stop stop-color="#1E1E1F" stop-opacity="0"/>
<stop offset="1" stop-color="#1E1E1F" stop-opacity="0.8"/>
</linearGradient>
<linearGradient id="paint3_linear_8027_4598" x1="193.333" y1="72.3848" x2="193.333" y2="193.614" gradientUnits="userSpaceOnUse">
<stop stop-color="#3B3D3F" stop-opacity="0.5"/>
<stop offset="1" stop-color="#3B3D3F" stop-opacity="0.8"/>
</linearGradient>
<linearGradient id="paint4_linear_8027_4598" x1="193.316" y1="76.8582" x2="193.361" y2="188.614" gradientUnits="userSpaceOnUse">
<stop stop-color="#1E1E1F" stop-opacity="0"/>
<stop offset="1" stop-color="#1E1E1F" stop-opacity="0.8"/>
</linearGradient>
<linearGradient id="paint5_linear_8027_4598" x1="193.186" y1="82.4375" x2="193.186" y2="183.438" gradientUnits="userSpaceOnUse">
<stop stop-color="#3B3D3F" stop-opacity="0.2"/>
<stop offset="1" stop-color="#3B3D3F" stop-opacity="0.4"/>
</linearGradient>
<linearGradient id="paint6_linear_8027_4598" x1="52" y1="146.249" x2="2.92592" y2="146.249" gradientUnits="userSpaceOnUse">
<stop stop-color="#13181C" stop-opacity="0"/>
<stop offset="1" stop-color="#13181C"/>
</linearGradient>
<clipPath id="clip0_8027_4598">
<rect width="250" height="51" fill="white" transform="translate(-15.8145 107.438)"/>
</clipPath>
<clipPath id="clip1_8027_4598">
<rect width="51" height="51" fill="white" transform="translate(167.5 108.002)"/>
</clipPath>
</defs>
</svg>
