<svg width="335" height="237" viewBox="0 0 335 237" fill="none" xmlns="http://www.w3.org/2000/svg">
<g clip-path="url(#clip0_8985_209743)">
<g filter="url(#filter0_d_8985_209743)">
<path d="M365.937 142.565H269.248C267.605 142.565 265.989 142.161 264.54 141.388L202.604 108.34C200.815 107.385 198.638 107.531 196.991 108.716C193.799 111.014 194.119 115.863 197.587 117.722L261.511 151.983C262.964 152.762 264.586 153.169 266.235 153.169H365.937C368.866 153.169 371.24 150.795 371.24 147.867C371.24 144.939 368.866 142.565 365.937 142.565Z" fill="#0E1214"/>
</g>
<path d="M362.334 148.276H267.713C266.071 148.276 264.454 147.871 263.006 147.098L162.44 93.4376" stroke="#3B3D3F" stroke-dasharray="1 2"/>
<g filter="url(#filter1_d_8985_209743)">
<path d="M365.937 39.0407H269.248C267.605 39.0407 265.989 39.4451 264.54 40.2181L202.604 73.2662C200.815 74.2211 198.638 74.0752 196.991 72.89C193.799 70.5913 194.119 65.7423 197.587 63.8839L261.511 29.6228C262.964 28.8442 264.586 28.4367 266.235 28.4367H365.937C368.866 28.4367 371.24 30.8105 371.24 33.7387C371.24 36.667 368.866 39.0407 365.937 39.0407Z" fill="#0E1214"/>
</g>
<path d="M362.334 33.3298H267.713C266.071 33.3298 264.454 33.7342 263.006 34.5072L162.44 88.1679" stroke="#3B3D3F" stroke-dasharray="1 2"/>
<g clip-path="url(#clip1_8985_209743)">
<g filter="url(#filter2_d_8985_209743)">
<path d="M271.832 33.945L70.6998 141.266C69.2511 142.039 67.6343 142.444 65.9922 142.444H-30.6977C-33.626 142.444 -35.9998 144.818 -35.9998 147.746C-35.9998 150.674 -33.626 153.048 -30.6977 153.048H69.005C70.6533 153.048 72.2761 152.64 73.7289 151.862L275.089 43.9396C276.542 43.1609 278.165 42.7535 279.813 42.7535H366.167C368.925 42.7535 371.16 40.5181 371.16 37.7605C371.16 35.003 368.925 32.7676 366.167 32.7676H276.54C274.897 32.7676 273.281 33.172 271.832 33.945Z" fill="#0E1214"/>
</g>
<path d="M372.313 37.7109H277.692C276.05 37.7109 274.433 38.1153 272.985 38.8883L71.8526 146.21C70.4039 146.983 68.7871 147.387 67.145 147.387H-34.8469" stroke="#3B3D3F" stroke-dasharray="1 2"/>
</g>
<mask id="mask0_8985_209743" style="mask-type:alpha" maskUnits="userSpaceOnUse" x="-36" y="-93" width="408" height="235">
<path d="M361.16 28.4375H265.833C264.182 28.4375 262.557 28.8464 261.102 29.6276L227.939 47.4375L95.9395 126.938L70.7004 140.704C69.2173 141.513 67.5534 141.933 65.864 141.925L-26.0479 141.485C-31.552 141.459 -36 136.989 -36 131.485V-82.0352C-36 -87.558 -31.5228 -92.0352 -26 -92.0352H361.16C366.683 -92.0352 371.16 -87.558 371.16 -82.0352V18.4375C371.16 23.9604 366.683 28.4375 361.16 28.4375Z" fill="url(#paint0_radial_8985_209743)"/>
</mask>
<g mask="url(#mask0_8985_209743)">
<path d="M331.951 -143.074V175.655" stroke="#FFCB5C" stroke-width="0.5"/>
<path d="M327.951 -143.074V175.655" stroke="#FFCB5C" stroke-width="0.5"/>
<path d="M323.951 -143.074V175.655" stroke="#FFCB5C" stroke-width="0.5"/>
<path d="M319.951 -143.074V175.655" stroke="#FFCB5C" stroke-width="0.5"/>
<path d="M315.951 -143.074V175.655" stroke="#FFCB5C" stroke-width="0.5"/>
<path d="M311.951 -143.074V175.655" stroke="#FFCB5C" stroke-width="0.5"/>
<path d="M307.951 -143.074V175.655" stroke="#FFCB5C" stroke-width="0.5"/>
<path d="M303.951 -143.074V175.655" stroke="#FFCB5C" stroke-width="0.5"/>
<path d="M299.951 -143.074V175.655" stroke="#FFCB5C" stroke-width="0.5"/>
<path d="M295.951 -143.074V175.655" stroke="#FFCB5C" stroke-width="0.5"/>
<path d="M291.951 -143.074V175.655" stroke="#FFCB5C" stroke-width="0.5"/>
<path d="M287.951 -143.074V175.655" stroke="#FFCB5C" stroke-width="0.5"/>
<path d="M283.951 -143.074V175.655" stroke="#FFCB5C" stroke-width="0.5"/>
<path d="M279.951 -143.074V175.655" stroke="#FFCB5C" stroke-width="0.5"/>
<path d="M275.951 -143.074V175.655" stroke="#FFCB5C" stroke-width="0.5"/>
<path d="M271.951 -143.074V175.655" stroke="#FFCB5C" stroke-width="0.5"/>
<path d="M267.951 -143.074V175.655" stroke="#FFCB5C" stroke-width="0.5"/>
<path d="M263.951 -143.074V175.655" stroke="#FFCB5C" stroke-width="0.5"/>
<path d="M259.951 -143.074V175.655" stroke="#FFCB5C" stroke-width="0.5"/>
<path d="M255.951 -143.074L255.951 175.655" stroke="#FFCB5C" stroke-width="0.5"/>
<path d="M251.951 -143.074L251.951 175.655" stroke="#FFCB5C" stroke-width="0.5"/>
<path d="M247.951 -143.074L247.951 175.655" stroke="#FFCB5C" stroke-width="0.5"/>
<path d="M243.951 -143.074L243.951 175.655" stroke="#FFCB5C" stroke-width="0.5"/>
<path d="M239.951 -143.074L239.951 175.655" stroke="#FFCB5C" stroke-width="0.5"/>
<path d="M235.951 -143.074L235.951 175.655" stroke="#FFCB5C" stroke-width="0.5"/>
<path d="M231.951 -143.074L231.951 175.655" stroke="#FFCB5C" stroke-width="0.5"/>
<path d="M227.951 -143.074L227.951 175.655" stroke="#FFCB5C" stroke-width="0.5"/>
<path d="M223.951 -143.074L223.951 175.655" stroke="#FFCB5C" stroke-width="0.5"/>
<path d="M219.951 -143.074L219.951 175.655" stroke="#FFCB5C" stroke-width="0.5"/>
<path d="M215.951 -143.074L215.951 175.655" stroke="#FFCB5C" stroke-width="0.5"/>
<path d="M211.951 -143.074L211.951 175.655" stroke="#FFCB5C" stroke-width="0.5"/>
<path d="M207.951 -143.074L207.951 175.655" stroke="#FFCB5C" stroke-width="0.5"/>
<path d="M203.951 -143.074L203.951 175.655" stroke="#FFCB5C" stroke-width="0.5"/>
<path d="M199.951 -143.074L199.951 175.655" stroke="#FFCB5C" stroke-width="0.5"/>
<path d="M195.951 -143.074L195.951 175.655" stroke="#FFCB5C" stroke-width="0.5"/>
<path d="M191.951 -143.074L191.951 175.655" stroke="#FFCB5C" stroke-width="0.5"/>
<path d="M187.951 -143.074L187.951 175.655" stroke="#FFCB5C" stroke-width="0.5"/>
<path d="M183.951 -143.074L183.951 175.655" stroke="#FFCB5C" stroke-width="0.5"/>
<path d="M179.951 -143.074L179.951 175.655" stroke="#FFCB5C" stroke-width="0.5"/>
<path d="M175.951 -143.074L175.951 175.655" stroke="#FFCB5C" stroke-width="0.5"/>
<path d="M171.951 -143.074L171.951 175.655" stroke="#FFCB5C" stroke-width="0.5"/>
<path d="M167.951 -143.074L167.951 175.655" stroke="#FFCB5C" stroke-width="0.5"/>
<path d="M163.951 -143.074L163.951 175.655" stroke="#FFCB5C" stroke-width="0.5"/>
<path d="M159.951 -143.074L159.951 175.655" stroke="#FFCB5C" stroke-width="0.5"/>
<path d="M155.951 -143.074L155.951 175.655" stroke="#FFCB5C" stroke-width="0.5"/>
<path d="M151.951 -143.074L151.951 175.655" stroke="#FFCB5C" stroke-width="0.5"/>
<path d="M147.951 -143.074L147.951 175.655" stroke="#FFCB5C" stroke-width="0.5"/>
<path d="M143.951 -143.074L143.951 175.655" stroke="#FFCB5C" stroke-width="0.5"/>
<path d="M139.951 -143.074L139.951 175.655" stroke="#FFCB5C" stroke-width="0.5"/>
<path d="M135.951 -143.074L135.951 175.655" stroke="#FFCB5C" stroke-width="0.5"/>
<path d="M131.951 -143.074L131.951 175.655" stroke="#FFCB5C" stroke-width="0.5"/>
<path d="M127.951 -143.074L127.951 175.655" stroke="#FFCB5C" stroke-width="0.5"/>
<path d="M123.951 -143.074L123.951 175.655" stroke="#FFCB5C" stroke-width="0.5"/>
<path d="M119.951 -143.074L119.951 175.655" stroke="#FFCB5C" stroke-width="0.5"/>
<path d="M115.951 -143.074L115.951 175.655" stroke="#FFCB5C" stroke-width="0.5"/>
<path d="M111.951 -143.074L111.951 175.655" stroke="#FFCB5C" stroke-width="0.5"/>
<path d="M107.951 -143.074L107.951 175.655" stroke="#FFCB5C" stroke-width="0.5"/>
<path d="M103.951 -143.074L103.951 175.655" stroke="#FFCB5C" stroke-width="0.5"/>
<path d="M99.9509 -143.074L99.9509 175.655" stroke="#FFCB5C" stroke-width="0.5"/>
<path d="M95.9509 -143.074L95.9509 175.655" stroke="#FFCB5C" stroke-width="0.5"/>
<path d="M91.9509 -143.074L91.9509 175.655" stroke="#FFCB5C" stroke-width="0.5"/>
<path d="M87.9509 -143.074L87.9509 175.655" stroke="#FFCB5C" stroke-width="0.5"/>
<path d="M83.9509 -143.074L83.9509 175.655" stroke="#FFCB5C" stroke-width="0.5"/>
<path d="M79.9509 -143.074L79.9509 175.655" stroke="#FFCB5C" stroke-width="0.5"/>
<path d="M75.9509 -143.074L75.9509 175.655" stroke="#FFCB5C" stroke-width="0.5"/>
<path d="M71.9509 -143.074L71.9509 175.655" stroke="#FFCB5C" stroke-width="0.5"/>
<path d="M67.9509 -143.074L67.9509 175.655" stroke="#FFCB5C" stroke-width="0.5"/>
<path d="M63.9509 -143.074L63.9509 175.655" stroke="#FFCB5C" stroke-width="0.5"/>
<path d="M59.9509 -143.074L59.9509 175.655" stroke="#FFCB5C" stroke-width="0.5"/>
<path d="M55.9509 -143.074L55.9509 175.655" stroke="#FFCB5C" stroke-width="0.5"/>
<path d="M51.9509 -143.074L51.9509 175.655" stroke="#FFCB5C" stroke-width="0.5"/>
<path d="M47.9509 -143.074L47.9509 175.655" stroke="#FFCB5C" stroke-width="0.5"/>
<path d="M43.9509 -143.074L43.9509 175.655" stroke="#FFCB5C" stroke-width="0.5"/>
<path d="M39.9509 -143.074L39.9509 175.655" stroke="#FFCB5C" stroke-width="0.5"/>
<path d="M35.9509 -143.074L35.9509 175.655" stroke="#FFCB5C" stroke-width="0.5"/>
<path d="M31.9509 -143.074L31.9509 175.655" stroke="#FFCB5C" stroke-width="0.5"/>
<path d="M27.9509 -143.074L27.9509 175.655" stroke="#FFCB5C" stroke-width="0.5"/>
<path d="M23.9509 -143.074L23.9509 175.655" stroke="#FFCB5C" stroke-width="0.5"/>
<path d="M19.9509 -143.074L19.9509 175.655" stroke="#FFCB5C" stroke-width="0.5"/>
<path d="M15.9509 -143.074L15.9509 175.655" stroke="#FFCB5C" stroke-width="0.5"/>
<path d="M11.9509 -143.074L11.9509 175.655" stroke="#FFCB5C" stroke-width="0.5"/>
<path d="M7.95093 -143.074L7.95093 175.655" stroke="#FFCB5C" stroke-width="0.5"/>
<path d="M3.95093 -143.074L3.95093 175.655" stroke="#FFCB5C" stroke-width="0.5"/>
<path d="M-0.0490723 -143.074L-0.0490723 175.655" stroke="#FFCB5C" stroke-width="0.5"/>
</g>
<g filter="url(#filter3_f_8985_209743)">
<path d="M164.468 107.933C166.963 106.492 170.037 106.492 172.532 107.933L192.864 119.672C195.359 121.112 196.897 123.775 196.897 126.656V150.133C196.897 153.015 195.359 155.677 192.864 157.117L172.532 168.856C170.037 170.297 166.963 170.297 164.468 168.856L144.135 157.117C141.64 155.677 140.103 153.015 140.103 150.133V126.656C140.103 123.775 141.64 121.112 144.135 119.672L164.468 107.933Z" fill="#FF5500" fill-opacity="0.35"/>
</g>
<g filter="url(#filter4_f_8985_209743)">
<path d="M164.468 54.0268C166.963 52.5862 170.037 52.5862 172.532 54.0268L218.594 80.6207C221.09 82.0613 222.627 84.7236 222.627 87.6048V140.793C222.627 143.674 221.09 146.336 218.594 147.777L172.532 174.371C170.037 175.811 166.963 175.811 164.468 174.371L118.406 147.777C115.911 146.336 114.373 143.674 114.373 140.793V87.6048C114.373 84.7236 115.911 82.0613 118.406 80.6207L164.468 54.0268Z" fill="#0A0D0F"/>
</g>
<path d="M162.25 51.7408C164.624 50.3702 165.735 49.7341 166.907 49.485C167.957 49.2617 169.043 49.2617 170.093 49.485C171.265 49.7341 172.376 50.3702 174.75 51.7408L215.973 75.5411C218.347 76.9117 219.454 77.5559 220.255 78.4464C220.974 79.2442 221.517 80.1842 221.848 81.2053C222.219 82.3449 222.223 83.6253 222.223 86.3664V133.967C222.223 136.708 222.219 137.989 221.848 139.128C221.517 140.149 220.974 141.089 220.255 141.887C219.454 142.778 218.347 143.422 215.973 144.792L174.75 168.593C172.376 169.963 171.265 170.599 170.093 170.849C169.043 171.072 167.957 171.072 166.907 170.849C165.735 170.599 164.624 169.963 162.25 168.593L121.027 144.792C118.653 143.422 117.546 142.778 116.744 141.887C116.026 141.089 115.483 140.149 115.151 139.128C114.781 137.989 114.777 136.708 114.777 133.967V86.3664C114.777 83.6253 114.781 82.3449 115.151 81.2053C115.483 80.1842 116.026 79.2442 116.744 78.4464C117.546 77.5559 118.653 76.9117 121.027 75.5411L162.25 51.7408Z" fill="#0A0D0F" stroke="url(#paint1_linear_8985_209743)" stroke-width="0.806452"/>
<g filter="url(#filter5_i_8985_209743)">
<path d="M167.21 54.8631C167.68 54.5917 167.915 54.456 168.165 54.4029C168.386 54.3559 168.614 54.3559 168.835 54.4029C169.085 54.456 169.32 54.5917 169.79 54.8631L215.745 81.395C216.216 81.6664 216.451 81.8021 216.622 81.992C216.773 82.1599 216.887 82.3578 216.957 82.5728C217.036 82.8157 217.036 83.0871 217.036 83.6299V136.694C217.036 137.236 217.036 137.508 216.957 137.751C216.887 137.966 216.773 138.164 216.622 138.332C216.451 138.522 216.216 138.657 215.745 138.929L169.79 165.461C169.32 165.732 169.085 165.868 168.835 165.921C168.614 165.968 168.386 165.968 168.165 165.921C167.915 165.868 167.68 165.732 167.21 165.46L121.254 138.929C120.784 138.657 120.549 138.522 120.378 138.332C120.227 138.164 120.113 137.966 120.043 137.751C119.964 137.508 119.964 137.236 119.964 136.694V83.6299C119.964 83.0871 119.964 82.8157 120.043 82.5728C120.113 82.3578 120.227 82.1599 120.378 81.992C120.549 81.8021 120.784 81.6664 121.254 81.395L167.21 54.8631Z" fill="#060809"/>
</g>
<path d="M167.411 55.2123C167.905 54.9273 168.076 54.834 168.248 54.7973C168.414 54.7621 168.586 54.7621 168.751 54.7973C168.924 54.834 169.095 54.9273 169.589 55.2123L215.544 81.7442C216.037 82.0292 216.204 82.1306 216.322 82.2618C216.435 82.3877 216.521 82.5362 216.573 82.6974L216.957 82.5728L216.573 82.6974C216.628 82.8652 216.633 83.0599 216.633 83.6299V136.694C216.633 137.264 216.628 137.458 216.573 137.626C216.521 137.787 216.435 137.936 216.322 138.062C216.204 138.193 216.037 138.294 215.544 138.579L169.589 165.111C169.095 165.396 168.924 165.49 168.751 165.526C168.586 165.562 168.414 165.562 168.248 165.526C168.076 165.49 167.905 165.396 167.411 165.111L121.456 138.579C120.962 138.294 120.796 138.193 120.678 138.062C120.565 137.936 120.479 137.787 120.427 137.626C120.372 137.458 120.367 137.264 120.367 136.694V83.6299C120.367 83.0599 120.372 82.8652 120.427 82.6974L120.044 82.5731L120.427 82.6974C120.479 82.5362 120.565 82.3877 120.678 82.2618C120.796 82.1306 120.962 82.0292 121.456 81.7442L167.411 55.2123Z" stroke="url(#paint2_linear_8985_209743)" stroke-width="0.806452"/>
<path d="M212.83 84.2786L213.129 84.0088L212.83 84.2786C212.943 84.4046 213.029 84.553 213.081 84.7143C213.136 84.8821 213.14 85.0768 213.14 85.6468V134.679C213.14 135.249 213.136 135.444 213.081 135.612C213.029 135.773 212.943 135.922 212.83 136.048C212.712 136.179 212.545 136.28 212.052 136.565L169.589 161.081C169.095 161.366 168.924 161.46 168.751 161.496C168.586 161.532 168.414 161.532 168.248 161.496C168.076 161.46 167.905 161.366 167.411 161.081L124.948 136.565C124.454 136.28 124.288 136.179 124.17 136.048C124.057 135.922 123.971 135.773 123.918 135.612C123.864 135.444 123.859 135.249 123.859 134.679V85.6468C123.859 85.0768 123.864 84.882 123.918 84.7143C123.971 84.553 124.057 84.4046 124.17 84.2786L123.871 84.0097L124.17 84.2786C124.288 84.1475 124.454 84.0461 124.948 83.7611L167.411 59.2448C167.905 58.9598 168.076 58.8665 168.248 58.8298C168.414 58.7946 168.586 58.7946 168.751 58.8298C168.924 58.8665 169.095 58.9598 169.589 59.2448L212.052 83.7611C212.545 84.0461 212.712 84.1475 212.83 84.2786Z" fill="#0A0D0F" stroke="url(#paint3_linear_8985_209743)" stroke-width="0.806452"/>
<g filter="url(#filter6_i_8985_209743)">
<path d="M167.188 62.9633C167.665 62.6815 167.904 62.5406 168.158 62.4856C168.383 62.4368 168.616 62.4368 168.841 62.4856C169.095 62.5406 169.334 62.6815 169.812 62.9633L207.867 85.4269C208.329 85.7 208.56 85.8365 208.728 86.0257C208.877 86.1931 208.989 86.3896 209.058 86.6028C209.135 86.8437 209.135 87.1122 209.135 87.6493V132.676C209.135 133.213 209.135 133.482 209.058 133.723C208.989 133.936 208.877 134.133 208.728 134.3C208.56 134.489 208.329 134.626 207.867 134.899L169.812 157.362C169.334 157.644 169.095 157.785 168.841 157.84C168.616 157.889 168.383 157.889 168.158 157.84C167.904 157.785 167.665 157.644 167.188 157.362L129.133 134.899C128.67 134.626 128.439 134.489 128.271 134.3C128.122 134.133 128.01 133.936 127.942 133.723C127.864 133.482 127.864 133.213 127.864 132.676V87.6493C127.864 87.1122 127.864 86.8437 127.942 86.6028C128.01 86.3896 128.122 86.1931 128.271 86.0257C128.439 85.8365 128.67 85.7 129.133 85.4269L167.188 62.9633Z" fill="#060809"/>
</g>
<path d="M167.393 63.3106C167.894 63.0146 168.068 62.9177 168.244 62.8796C168.412 62.8431 168.587 62.8431 168.756 62.8796C168.931 62.9177 169.105 63.0146 169.607 63.3106L207.662 85.7742C208.147 86.0609 208.311 86.1628 208.427 86.2934C208.538 86.419 208.623 86.5664 208.674 86.7263C208.728 86.8927 208.732 87.0854 208.732 87.6493V132.676C208.732 133.24 208.728 133.433 208.674 133.599C208.623 133.759 208.538 133.907 208.427 134.032C208.311 134.163 208.147 134.265 207.662 134.552L169.607 157.015C169.105 157.311 168.931 157.408 168.756 157.446C168.587 157.483 168.412 157.483 168.244 157.446C168.068 157.408 167.894 157.311 167.393 157.015L129.338 134.552C128.852 134.265 128.689 134.163 128.572 134.032C128.461 133.907 128.377 133.759 128.325 133.599C128.272 133.433 128.267 133.24 128.267 132.676V87.6493C128.267 87.0854 128.272 86.8927 128.325 86.7263C128.377 86.5664 128.461 86.419 128.572 86.2934C128.689 86.1628 128.852 86.0609 129.338 85.7742L167.393 63.3106Z" stroke="url(#paint4_linear_8985_209743)" stroke-width="0.806452"/>
<g filter="url(#filter7_i_8985_209743)">
<path d="M167.21 62.9376C167.68 62.6662 167.915 62.5305 168.165 62.4774C168.386 62.4304 168.614 62.4304 168.835 62.4774C169.085 62.5305 169.32 62.6662 169.79 62.9376L208.758 85.4346C209.228 85.706 209.463 85.8417 209.634 86.0316C209.785 86.1995 209.899 86.3974 209.969 86.6124C210.048 86.8554 210.048 87.1268 210.048 87.6696V132.664C210.048 133.206 210.048 133.478 209.969 133.721C209.899 133.936 209.785 134.134 209.634 134.302C209.463 134.491 209.228 134.627 208.758 134.898L169.79 157.396C169.32 157.667 169.085 157.803 168.835 157.856C168.614 157.903 168.386 157.903 168.165 157.856C167.915 157.803 167.68 157.667 167.21 157.396L128.242 134.898C127.772 134.627 127.537 134.491 127.366 134.302C127.215 134.134 127.1 133.936 127.031 133.721C126.952 133.478 126.952 133.206 126.952 132.664V87.6696C126.952 87.1268 126.952 86.8554 127.031 86.6124C127.1 86.3974 127.215 86.1995 127.366 86.0316C127.537 85.8417 127.772 85.706 128.242 85.4346L167.21 62.9376Z" fill="#060809"/>
</g>
<path d="M167.411 63.2868C167.905 63.0018 168.076 62.9085 168.248 62.8718C168.414 62.8366 168.586 62.8366 168.751 62.8718C168.924 62.9085 169.095 63.0018 169.589 63.2868L208.556 85.7838C209.05 86.0688 209.216 86.1703 209.334 86.3014C209.448 86.4274 209.533 86.5758 209.586 86.737L209.969 86.6124L209.586 86.737C209.64 86.9048 209.645 87.0995 209.645 87.6696V132.664C209.645 133.234 209.64 133.428 209.586 133.596C209.533 133.757 209.448 133.906 209.334 134.032C209.216 134.163 209.05 134.264 208.556 134.549L169.589 157.046C169.095 157.331 168.924 157.425 168.751 157.461C168.586 157.497 168.414 157.497 168.248 157.461C168.076 157.425 167.905 157.331 167.411 157.046L128.444 134.549C127.95 134.264 127.784 134.163 127.666 134.032C127.552 133.906 127.466 133.757 127.414 133.596C127.36 133.428 127.355 133.234 127.355 132.664V87.6696C127.355 87.0996 127.36 86.9048 127.414 86.737L127.032 86.6127L127.414 86.737C127.466 86.5758 127.552 86.4274 127.666 86.3014C127.784 86.1703 127.95 86.0688 128.444 85.7838L167.411 63.2868Z" stroke="url(#paint5_linear_8985_209743)" stroke-width="0.806452"/>
<path d="M166.956 66.8446C167.45 66.5597 167.621 66.4663 167.793 66.4297C167.959 66.3944 168.13 66.3944 168.296 66.4297C168.469 66.4663 168.64 66.5597 169.133 66.8446L204.598 87.3193C205.092 87.6043 205.258 87.7057 205.376 87.8368C205.489 87.9628 205.575 88.1112 205.627 88.2724C205.682 88.4402 205.687 88.635 205.687 89.205V130.154C205.687 130.724 205.682 130.919 205.627 131.087C205.575 131.248 205.489 131.396 205.376 131.522C205.258 131.653 205.092 131.755 204.598 132.04L169.133 152.514C168.64 152.799 168.469 152.893 168.296 152.929L168.38 153.324L168.296 152.929C168.13 152.965 167.959 152.965 167.793 152.929L167.709 153.324L167.793 152.929C167.621 152.893 167.45 152.799 166.956 152.514L131.491 132.04C130.998 131.755 130.832 131.653 130.713 131.522C130.6 131.396 130.514 131.248 130.462 131.087C130.407 130.919 130.403 130.724 130.403 130.154V89.205C130.403 88.635 130.407 88.4402 130.462 88.2724C130.514 88.1112 130.6 87.9628 130.713 87.8368C130.832 87.7057 130.998 87.6043 131.491 87.3193L166.956 66.8446Z" fill="#0A0D0F" stroke="url(#paint6_linear_8985_209743)" stroke-width="0.806452"/>
<path d="M168.808 121.933L160.843 126.531L168.808 131.13L176.774 126.531L168.808 121.933Z" fill="#FFCB5C"/>
<path d="M177.4 105.604V95.6826L169.435 100.281V110.204L178.653 115.525V125.447L186.619 120.848V110.926L177.4 105.604Z" fill="#FFCB5C"/>
<path d="M159.591 125.808L168.809 120.485L177.401 125.447V116.248L168.809 111.288L159.591 116.61L151 111.649V120.848L159.591 125.808Z" fill="#FFCB5C"/>
<path d="M159.592 115.164L168.184 110.204V99.5599L176.775 94.5987L168.809 90L160.218 94.9601V105.604L151.626 110.564L159.592 115.164Z" fill="#FFCB5C"/>
<path d="M178.654 95.6826V104.881L186.619 109.48V100.281L178.654 95.6826Z" fill="#FFCB5C"/>
<path d="M158.966 104.881V95.6826L151 100.281V109.48L158.966 104.881Z" fill="#FFCB5C"/>
<rect width="49" height="43" transform="matrix(-1 0 0 1 364.254 126)" fill="url(#paint7_linear_8985_209743)"/>
</g>
<defs>
<filter id="filter0_d_8985_209743" x="190.78" y="104.713" width="184.46" height="53.4558" filterUnits="userSpaceOnUse" color-interpolation-filters="sRGB">
<feFlood flood-opacity="0" result="BackgroundImageFix"/>
<feColorMatrix in="SourceAlpha" type="matrix" values="0 0 0 0 0 0 0 0 0 0 0 0 0 0 0 0 0 0 127 0" result="hardAlpha"/>
<feOffset dy="1"/>
<feGaussianBlur stdDeviation="2"/>
<feComposite in2="hardAlpha" operator="out"/>
<feColorMatrix type="matrix" values="0 0 0 0 0 0 0 0 0 0 0 0 0 0 0 0 0 0 1 0"/>
<feBlend mode="normal" in2="BackgroundImageFix" result="effect1_dropShadow_8985_209743"/>
<feBlend mode="normal" in="SourceGraphic" in2="effect1_dropShadow_8985_209743" result="shape"/>
</filter>
<filter id="filter1_d_8985_209743" x="190.78" y="25.4368" width="184.46" height="53.4558" filterUnits="userSpaceOnUse" color-interpolation-filters="sRGB">
<feFlood flood-opacity="0" result="BackgroundImageFix"/>
<feColorMatrix in="SourceAlpha" type="matrix" values="0 0 0 0 0 0 0 0 0 0 0 0 0 0 0 0 0 0 127 0" result="hardAlpha"/>
<feOffset dy="1"/>
<feGaussianBlur stdDeviation="2"/>
<feComposite in2="hardAlpha" operator="out"/>
<feColorMatrix type="matrix" values="0 0 0 0 0 0 0 0 0 0 0 0 0 0 0 0 0 0 1 0"/>
<feBlend mode="normal" in2="BackgroundImageFix" result="effect1_dropShadow_8985_209743"/>
<feBlend mode="normal" in="SourceGraphic" in2="effect1_dropShadow_8985_209743" result="shape"/>
</filter>
<filter id="filter2_d_8985_209743" x="-39.9998" y="29.7676" width="415.16" height="128.28" filterUnits="userSpaceOnUse" color-interpolation-filters="sRGB">
<feFlood flood-opacity="0" result="BackgroundImageFix"/>
<feColorMatrix in="SourceAlpha" type="matrix" values="0 0 0 0 0 0 0 0 0 0 0 0 0 0 0 0 0 0 127 0" result="hardAlpha"/>
<feOffset dy="1"/>
<feGaussianBlur stdDeviation="2"/>
<feComposite in2="hardAlpha" operator="out"/>
<feColorMatrix type="matrix" values="0 0 0 0 0 0 0 0 0 0 0 0 0 0 0 0 0 0 1 0"/>
<feBlend mode="normal" in2="BackgroundImageFix" result="effect1_dropShadow_8985_209743"/>
<feBlend mode="normal" in="SourceGraphic" in2="effect1_dropShadow_8985_209743" result="shape"/>
</filter>
<filter id="filter3_f_8985_209743" x="75.5871" y="42.3364" width="185.825" height="192.116" filterUnits="userSpaceOnUse" color-interpolation-filters="sRGB">
<feFlood flood-opacity="0" result="BackgroundImageFix"/>
<feBlend mode="normal" in="SourceGraphic" in2="BackgroundImageFix" result="shape"/>
<feGaussianBlur stdDeviation="32.2581" result="effect1_foregroundBlur_8985_209743"/>
</filter>
<filter id="filter4_f_8985_209743" x="109.535" y="48.1076" width="117.93" height="132.182" filterUnits="userSpaceOnUse" color-interpolation-filters="sRGB">
<feFlood flood-opacity="0" result="BackgroundImageFix"/>
<feBlend mode="normal" in="SourceGraphic" in2="BackgroundImageFix" result="shape"/>
<feGaussianBlur stdDeviation="2.41935" result="effect1_foregroundBlur_8985_209743"/>
</filter>
<filter id="filter5_i_8985_209743" x="119.964" y="54.3677" width="97.0718" height="112.395" filterUnits="userSpaceOnUse" color-interpolation-filters="sRGB">
<feFlood flood-opacity="0" result="BackgroundImageFix"/>
<feBlend mode="normal" in="SourceGraphic" in2="BackgroundImageFix" result="shape"/>
<feColorMatrix in="SourceAlpha" type="matrix" values="0 0 0 0 0 0 0 0 0 0 0 0 0 0 0 0 0 0 127 0" result="hardAlpha"/>
<feOffset dy="0.806452"/>
<feGaussianBlur stdDeviation="0.806452"/>
<feComposite in2="hardAlpha" operator="arithmetic" k2="-1" k3="1"/>
<feColorMatrix type="matrix" values="0 0 0 0 0 0 0 0 0 0 0 0 0 0 0 0 0 0 1 0"/>
<feBlend mode="normal" in2="shape" result="effect1_innerShadow_8985_209743"/>
</filter>
<filter id="filter6_i_8985_209743" x="127.864" y="62.449" width="81.2715" height="96.2342" filterUnits="userSpaceOnUse" color-interpolation-filters="sRGB">
<feFlood flood-opacity="0" result="BackgroundImageFix"/>
<feBlend mode="normal" in="SourceGraphic" in2="BackgroundImageFix" result="shape"/>
<feColorMatrix in="SourceAlpha" type="matrix" values="0 0 0 0 0 0 0 0 0 0 0 0 0 0 0 0 0 0 127 0" result="hardAlpha"/>
<feOffset dy="0.806452"/>
<feGaussianBlur stdDeviation="0.806452"/>
<feComposite in2="hardAlpha" operator="arithmetic" k2="-1" k3="1"/>
<feColorMatrix type="matrix" values="0 0 0 0 0 0 0 0 0 0 0 0 0 0 0 0 0 0 1 0"/>
<feBlend mode="normal" in2="shape" result="effect1_innerShadow_8985_209743"/>
</filter>
<filter id="filter7_i_8985_209743" x="126.952" y="62.4421" width="83.0964" height="96.2552" filterUnits="userSpaceOnUse" color-interpolation-filters="sRGB">
<feFlood flood-opacity="0" result="BackgroundImageFix"/>
<feBlend mode="normal" in="SourceGraphic" in2="BackgroundImageFix" result="shape"/>
<feColorMatrix in="SourceAlpha" type="matrix" values="0 0 0 0 0 0 0 0 0 0 0 0 0 0 0 0 0 0 127 0" result="hardAlpha"/>
<feOffset dy="0.806452"/>
<feGaussianBlur stdDeviation="0.806452"/>
<feComposite in2="hardAlpha" operator="arithmetic" k2="-1" k3="1"/>
<feColorMatrix type="matrix" values="0 0 0 0 0 0 0 0 0 0 0 0 0 0 0 0 0 0 1 0"/>
<feBlend mode="normal" in2="shape" result="effect1_innerShadow_8985_209743"/>
</filter>
<radialGradient id="paint0_radial_8985_209743" cx="0" cy="0" r="1" gradientUnits="userSpaceOnUse" gradientTransform="translate(167.58 -32.259) rotate(90) scale(187.753 223.226)">
<stop stop-color="white"/>
<stop offset="1" stop-color="#F5F6F7" stop-opacity="0.1"/>
</radialGradient>
<linearGradient id="paint1_linear_8985_209743" x1="168.5" y1="110.125" x2="168.5" y2="172.667" gradientUnits="userSpaceOnUse">
<stop stop-color="#3B3D3F" stop-opacity="0.5"/>
<stop offset="1" stop-color="#3B3D3F" stop-opacity="0.89"/>
</linearGradient>
<linearGradient id="paint2_linear_8985_209743" x1="168.483" y1="53.5875" x2="168.527" y2="166.205" gradientUnits="userSpaceOnUse">
<stop stop-color="#1E1E1F" stop-opacity="0"/>
<stop offset="1" stop-color="#1E1E1F" stop-opacity="0.8"/>
</linearGradient>
<linearGradient id="paint3_linear_8985_209743" x1="168.5" y1="58.1506" x2="168.5" y2="162.176" gradientUnits="userSpaceOnUse">
<stop stop-color="#3B3D3F" stop-opacity="0.5"/>
<stop offset="1" stop-color="#3B3D3F" stop-opacity="0.8"/>
</linearGradient>
<linearGradient id="paint4_linear_8985_209743" x1="168.485" y1="61.7347" x2="168.525" y2="158.137" gradientUnits="userSpaceOnUse">
<stop stop-color="#1E1E1F" stop-opacity="0"/>
<stop offset="1" stop-color="#1E1E1F" stop-opacity="0.8"/>
</linearGradient>
<linearGradient id="paint5_linear_8985_209743" x1="168.485" y1="61.7384" x2="168.523" y2="158.14" gradientUnits="userSpaceOnUse">
<stop stop-color="#1E1E1F" stop-opacity="0"/>
<stop offset="1" stop-color="#1E1E1F" stop-opacity="0.8"/>
</linearGradient>
<linearGradient id="paint6_linear_8985_209743" x1="168.045" y1="65.7505" x2="168.045" y2="153.609" gradientUnits="userSpaceOnUse">
<stop stop-color="#3B3D3F" stop-opacity="0.2"/>
<stop offset="1" stop-color="#3B3D3F" stop-opacity="0.4"/>
</linearGradient>
<linearGradient id="paint7_linear_8985_209743" x1="49" y1="21.8116" x2="3.62963" y2="21.8116" gradientUnits="userSpaceOnUse">
<stop stop-color="#13181C" stop-opacity="0"/>
<stop offset="1" stop-color="#13181C"/>
</linearGradient>
<clipPath id="clip0_8985_209743">
<rect width="335" height="237" fill="white"/>
</clipPath>
<clipPath id="clip1_8985_209743">
<rect width="204" height="133" fill="white" transform="matrix(-1 0 0 1 168.44 32.4375)"/>
</clipPath>
</defs>
</svg>
