<svg width="360" height="353" viewBox="0 0 360 353" fill="none" xmlns="http://www.w3.org/2000/svg">
<g clip-path="url(#clip0_8985_217290)">
<mask id="mask0_8985_217290" style="mask-type:alpha" maskUnits="userSpaceOnUse" x="-30" y="-25" width="408" height="425">
<path d="M367.906 376.438H272.579C270.928 376.438 269.302 376.846 267.848 377.628L237.277 394.046C235.585 394.954 233.667 395.357 231.753 395.204L105.653 385.174C103.716 385.02 101.777 385.433 100.072 386.363L77.4462 398.704C75.9631 399.513 74.2992 399.933 72.6098 399.925L-19.3021 399.485C-24.8062 399.459 -29.2542 394.989 -29.2542 389.485V-14.0352C-29.2542 -19.558 -24.7771 -24.0352 -19.2542 -24.0352H367.906C373.428 -24.0352 377.906 -19.558 377.906 -14.0352V366.438C377.906 371.96 373.428 376.438 367.906 376.438Z" fill="url(#paint0_radial_8985_217290)"/>
</mask>
<g mask="url(#mask0_8985_217290)">
<path d="M359 -75V363" stroke="#FFCB5C" stroke-width="0.5"/>
<path d="M355 -75V363" stroke="#FFCB5C" stroke-width="0.5"/>
<path d="M351 -75V363" stroke="#FFCB5C" stroke-width="0.5"/>
<path d="M347 -75V363" stroke="#FFCB5C" stroke-width="0.5"/>
<path d="M343 -75V363" stroke="#FFCB5C" stroke-width="0.5"/>
<path d="M339 -75V363" stroke="#FFCB5C" stroke-width="0.5"/>
<path d="M335 -75V363" stroke="#FFCB5C" stroke-width="0.5"/>
<path d="M331 -75V363" stroke="#FFCB5C" stroke-width="0.5"/>
<path d="M327 -75V363" stroke="#FFCB5C" stroke-width="0.5"/>
<path d="M323 -75V363" stroke="#FFCB5C" stroke-width="0.5"/>
<path d="M319 -75V363" stroke="#FFCB5C" stroke-width="0.5"/>
<path d="M315 -75V363" stroke="#FFCB5C" stroke-width="0.5"/>
<path d="M311 -75V363" stroke="#FFCB5C" stroke-width="0.5"/>
<path d="M307 -75V363" stroke="#FFCB5C" stroke-width="0.5"/>
<path d="M303 -75V363" stroke="#FFCB5C" stroke-width="0.5"/>
<path d="M299 -75V363" stroke="#FFCB5C" stroke-width="0.5"/>
<path d="M295 -75V363" stroke="#FFCB5C" stroke-width="0.5"/>
<path d="M291 -75V363" stroke="#FFCB5C" stroke-width="0.5"/>
<path d="M287 -75V363" stroke="#FFCB5C" stroke-width="0.5"/>
<path d="M283 -75V363" stroke="#FFCB5C" stroke-width="0.5"/>
<path d="M279 -75V363" stroke="#FFCB5C" stroke-width="0.5"/>
<path d="M275 -75V363" stroke="#FFCB5C" stroke-width="0.5"/>
<path d="M271 -75V363" stroke="#FFCB5C" stroke-width="0.5"/>
<path d="M267 -75V363" stroke="#FFCB5C" stroke-width="0.5"/>
<path d="M263 -75V363" stroke="#FFCB5C" stroke-width="0.5"/>
<path d="M259 -75V363" stroke="#FFCB5C" stroke-width="0.5"/>
<path d="M255 -75L255 363" stroke="#FFCB5C" stroke-width="0.5"/>
<path d="M251 -75L251 363" stroke="#FFCB5C" stroke-width="0.5"/>
<path d="M247 -75L247 363" stroke="#FFCB5C" stroke-width="0.5"/>
<path d="M243 -75L243 363" stroke="#FFCB5C" stroke-width="0.5"/>
<path d="M239 -75L239 363" stroke="#FFCB5C" stroke-width="0.5"/>
<path d="M235 -75L235 363" stroke="#FFCB5C" stroke-width="0.5"/>
<path d="M231 -75L231 363" stroke="#FFCB5C" stroke-width="0.5"/>
<path d="M227 -75L227 363" stroke="#FFCB5C" stroke-width="0.5"/>
<path d="M223 -75L223 363" stroke="#FFCB5C" stroke-width="0.5"/>
<path d="M219 -75L219 363" stroke="#FFCB5C" stroke-width="0.5"/>
<path d="M215 -75L215 363" stroke="#FFCB5C" stroke-width="0.5"/>
<path d="M211 -75L211 363" stroke="#FFCB5C" stroke-width="0.5"/>
<path d="M207 -75L207 363" stroke="#FFCB5C" stroke-width="0.5"/>
<path d="M203 -75L203 363" stroke="#FFCB5C" stroke-width="0.5"/>
<path d="M199 -75L199 363" stroke="#FFCB5C" stroke-width="0.5"/>
<path d="M195 -75L195 363" stroke="#FFCB5C" stroke-width="0.5"/>
<path d="M191 -75L191 363" stroke="#FFCB5C" stroke-width="0.5"/>
<path d="M187 -75L187 363" stroke="#FFCB5C" stroke-width="0.5"/>
<path d="M183 -75L183 363" stroke="#FFCB5C" stroke-width="0.5"/>
<path d="M179 -75L179 363" stroke="#FFCB5C" stroke-width="0.5"/>
<path d="M175 -75L175 363" stroke="#FFCB5C" stroke-width="0.5"/>
<path d="M171 -75L171 363" stroke="#FFCB5C" stroke-width="0.5"/>
<path d="M167 -75L167 363" stroke="#FFCB5C" stroke-width="0.5"/>
<path d="M163 -75L163 363" stroke="#FFCB5C" stroke-width="0.5"/>
<path d="M159 -75L159 363" stroke="#FFCB5C" stroke-width="0.5"/>
<path d="M155 -75L155 363" stroke="#FFCB5C" stroke-width="0.5"/>
<path d="M151 -75L151 363" stroke="#FFCB5C" stroke-width="0.5"/>
<path d="M147 -75L147 363" stroke="#FFCB5C" stroke-width="0.5"/>
<path d="M143 -75L143 363" stroke="#FFCB5C" stroke-width="0.5"/>
<path d="M139 -75L139 363" stroke="#FFCB5C" stroke-width="0.5"/>
<path d="M135 -75L135 363" stroke="#FFCB5C" stroke-width="0.5"/>
<path d="M131 -75L131 363" stroke="#FFCB5C" stroke-width="0.5"/>
<path d="M127 -75L127 363" stroke="#FFCB5C" stroke-width="0.5"/>
<path d="M123 -75L123 363" stroke="#FFCB5C" stroke-width="0.5"/>
<path d="M119 -75L119 363" stroke="#FFCB5C" stroke-width="0.5"/>
<path d="M115 -75L115 363" stroke="#FFCB5C" stroke-width="0.5"/>
<path d="M111 -75L111 363" stroke="#FFCB5C" stroke-width="0.5"/>
<path d="M107 -75L107 363" stroke="#FFCB5C" stroke-width="0.5"/>
<path d="M103 -75L103 363" stroke="#FFCB5C" stroke-width="0.5"/>
<path d="M99 -75L99 363" stroke="#FFCB5C" stroke-width="0.5"/>
<path d="M95 -75L95 363" stroke="#FFCB5C" stroke-width="0.5"/>
<path d="M91 -75L91 363" stroke="#FFCB5C" stroke-width="0.5"/>
<path d="M87 -75L87 363" stroke="#FFCB5C" stroke-width="0.5"/>
<path d="M83 -75L83 363" stroke="#FFCB5C" stroke-width="0.5"/>
<path d="M79 -75L79 363" stroke="#FFCB5C" stroke-width="0.5"/>
<path d="M75 -75L75 363" stroke="#FFCB5C" stroke-width="0.5"/>
<path d="M71 -75L71 363" stroke="#FFCB5C" stroke-width="0.5"/>
<path d="M67 -75L67 363" stroke="#FFCB5C" stroke-width="0.5"/>
<path d="M63 -75L63 363" stroke="#FFCB5C" stroke-width="0.5"/>
<path d="M59 -75L59 363" stroke="#FFCB5C" stroke-width="0.5"/>
<path d="M55 -75L55 363" stroke="#FFCB5C" stroke-width="0.5"/>
<path d="M51 -75L51 363" stroke="#FFCB5C" stroke-width="0.5"/>
<path d="M47 -75L47 363" stroke="#FFCB5C" stroke-width="0.5"/>
<path d="M43 -75L43 363" stroke="#FFCB5C" stroke-width="0.5"/>
<path d="M39 -75L39 363" stroke="#FFCB5C" stroke-width="0.5"/>
<path d="M35 -75L35 363" stroke="#FFCB5C" stroke-width="0.5"/>
<path d="M31 -75L31 363" stroke="#FFCB5C" stroke-width="0.5"/>
<path d="M27 -75L27 363" stroke="#FFCB5C" stroke-width="0.5"/>
<path d="M23 -75L23 363" stroke="#FFCB5C" stroke-width="0.5"/>
<path d="M19 -75L19 363" stroke="#FFCB5C" stroke-width="0.5"/>
<path d="M15 -75L15 363" stroke="#FFCB5C" stroke-width="0.5"/>
<path d="M11 -75L11 363" stroke="#FFCB5C" stroke-width="0.5"/>
<path d="M7 -75L7 363" stroke="#FFCB5C" stroke-width="0.5"/>
<path d="M3 -75L3 363" stroke="#FFCB5C" stroke-width="0.5"/>
</g>
<g filter="url(#filter0_d_8985_217290)">
<path d="M372.683 197.565H275.993C274.351 197.565 272.734 197.161 271.286 196.388L209.35 163.339C207.56 162.385 205.383 162.53 203.737 163.716C200.545 166.014 200.865 170.863 204.333 172.722L268.257 206.983C269.709 207.761 271.332 208.169 272.98 208.169H372.683C375.611 208.169 377.985 205.795 377.985 202.867C377.985 199.939 375.611 197.565 372.683 197.565Z" fill="#0E1214"/>
</g>
<path d="M369.08 203.276H274.459C272.817 203.276 271.2 202.871 269.751 202.098L169.185 148.438" stroke="#3B3D3F" stroke-dasharray="1 2"/>
<g filter="url(#filter1_d_8985_217290)">
<path d="M372.683 94.0406H275.993C274.351 94.0406 272.734 94.445 271.286 95.218L209.35 128.266C207.56 129.221 205.383 129.075 203.737 127.89C200.545 125.591 200.865 120.742 204.333 118.884L268.257 84.6227C269.709 83.844 271.332 83.4366 272.98 83.4366H372.683C375.611 83.4366 377.985 85.8104 377.985 88.7386C377.985 91.6668 375.611 94.0406 372.683 94.0406Z" fill="#0E1214"/>
</g>
<path d="M369.08 88.3299H274.459C272.817 88.3299 271.2 88.7343 269.751 89.5073L169.185 143.168" stroke="#3B3D3F" stroke-dasharray="1 2"/>
<g clip-path="url(#clip1_8985_217290)">
<g filter="url(#filter2_d_8985_217290)">
<path d="M278.578 88.945L77.4455 196.266C75.9968 197.039 74.38 197.444 72.7379 197.444H-23.952C-26.8802 197.444 -29.254 199.818 -29.254 202.746C-29.254 205.674 -26.8802 208.048 -23.952 208.048H75.7507C77.399 208.048 79.0218 207.64 80.4747 206.862L281.835 98.9396C283.288 98.1609 284.91 97.7535 286.559 97.7535H372.913C375.67 97.7535 377.906 95.5181 377.906 92.7605C377.906 90.003 375.67 87.7676 372.913 87.7676H283.285C281.643 87.7676 280.026 88.172 278.578 88.945Z" fill="#0E1214"/>
</g>
<path d="M379.059 92.7109H284.438C282.796 92.7109 281.179 93.1153 279.73 93.8883L78.5984 201.21C77.1496 201.983 75.5328 202.387 73.8907 202.387H-28.1012" stroke="#3B3D3F" stroke-dasharray="1 2"/>
</g>
<rect width="49" height="43" transform="matrix(-1 0 0 1 371 194)" fill="url(#paint1_linear_8985_217290)"/>
<rect width="113" height="400" transform="matrix(-1 0 0 1 410 -21)" fill="url(#paint2_linear_8985_217290)"/>
<rect x="-59" y="-21" width="113" height="400" fill="url(#paint3_linear_8985_217290)"/>
<g filter="url(#filter3_f_8985_217290)">
<path d="M170.105 172.491C173.339 170.624 177.323 170.624 180.557 172.491L206.908 187.705C210.142 189.572 212.134 193.022 212.134 196.756V227.184C212.134 230.918 210.142 234.368 206.908 236.235L180.557 251.449C177.323 253.316 173.339 253.316 170.105 251.449L143.754 236.235C140.52 234.368 138.528 230.918 138.528 227.184V196.756C138.528 193.022 140.52 189.572 143.754 187.705L170.105 172.491Z" fill="#FFCB5C" fill-opacity="0.35"/>
</g>
<g filter="url(#filter4_f_8985_217290)">
<path d="M170.105 102.626C173.339 100.759 177.323 100.759 180.557 102.626L240.255 137.093C243.489 138.96 245.481 142.41 245.481 146.145V215.078C245.481 218.812 243.489 222.262 240.255 224.13L180.557 258.596C177.323 260.463 173.339 260.463 170.105 258.596L110.407 224.13C107.173 222.262 105.181 218.812 105.181 215.078V146.145C105.181 142.41 107.173 138.96 110.407 137.093L170.105 102.626Z" fill="#0A0D0F"/>
</g>
<path d="M167.231 99.6632C170.308 97.8869 171.748 97.0625 173.267 96.7396C174.628 96.4503 176.035 96.4503 177.396 96.7396C178.915 97.0625 180.355 97.8869 183.432 99.6632L236.858 130.509C239.935 132.286 241.369 133.12 242.408 134.275C243.339 135.309 244.043 136.527 244.473 137.85C244.953 139.327 244.959 140.987 244.959 144.539V206.231C244.959 209.784 244.953 211.443 244.473 212.92C244.043 214.244 243.339 215.462 242.408 216.496C241.369 217.65 239.935 218.485 236.858 220.261L183.432 251.107C180.355 252.884 178.915 253.708 177.396 254.031C176.035 254.32 174.628 254.32 173.267 254.031C171.748 253.708 170.308 252.884 167.231 251.107L113.804 220.261C110.728 218.485 109.294 217.65 108.254 216.496C107.323 215.462 106.62 214.244 106.19 212.92C105.71 211.443 105.704 209.784 105.704 206.231V144.539C105.704 140.987 105.71 139.327 106.19 137.85C106.62 136.527 107.323 135.309 108.254 134.275C109.294 133.12 110.728 132.286 113.804 130.509L167.231 99.6632Z" fill="#0A0D0F" stroke="url(#paint4_linear_8985_217290)" stroke-width="1.04519"/>
<g filter="url(#filter5_i_8985_217290)">
<path d="M173.659 103.71C174.268 103.358 174.573 103.183 174.897 103.114C175.183 103.053 175.479 103.053 175.766 103.114C176.09 103.183 176.394 103.358 177.004 103.71L236.563 138.096C237.172 138.448 237.477 138.624 237.699 138.87C237.895 139.088 238.043 139.344 238.133 139.623C238.235 139.938 238.235 140.289 238.235 140.993V209.765C238.235 210.469 238.235 210.821 238.133 211.135C238.043 211.414 237.895 211.671 237.699 211.888C237.477 212.134 237.172 212.31 236.563 212.662L177.004 247.048C176.394 247.4 176.09 247.576 175.766 247.645C175.479 247.706 175.183 247.706 174.897 247.645C174.573 247.576 174.268 247.4 173.659 247.048L114.1 212.662C113.49 212.31 113.186 212.134 112.964 211.888C112.768 211.671 112.62 211.414 112.529 211.135C112.427 210.821 112.427 210.469 112.427 209.765V140.993C112.427 140.289 112.427 139.938 112.529 139.623C112.62 139.344 112.768 139.088 112.964 138.87C113.186 138.624 113.49 138.448 114.1 138.096L173.659 103.71Z" fill="#060809"/>
</g>
<path d="M175.005 103.625L174.897 103.114L175.005 103.625C175.22 103.579 175.442 103.579 175.657 103.625C175.881 103.672 176.103 103.793 176.742 104.163L177.003 103.71L176.742 104.163L236.302 138.549C236.942 138.918 237.157 139.05 237.31 139.22C237.457 139.383 237.568 139.575 237.636 139.784C237.707 140.002 237.713 140.254 237.713 140.993V209.765C237.713 210.504 237.707 210.757 237.636 210.974C237.568 211.183 237.457 211.375 237.31 211.539C237.157 211.709 236.942 211.84 236.302 212.209L176.742 246.596C176.103 246.965 175.881 247.086 175.657 247.133C175.442 247.179 175.22 247.179 175.005 247.133C174.782 247.086 174.56 246.965 173.92 246.596L114.361 212.209C113.721 211.84 113.505 211.709 113.352 211.539C113.205 211.375 113.094 211.183 113.027 210.974C112.956 210.757 112.95 210.504 112.95 209.765V140.993C112.95 140.254 112.956 140.002 113.027 139.784C113.094 139.575 113.205 139.383 113.352 139.22C113.505 139.05 113.721 138.918 114.361 138.549L173.92 104.163C174.56 103.793 174.782 103.672 175.005 103.625Z" stroke="url(#paint5_linear_8985_217290)" stroke-width="1.04519"/>
<path d="M117.49 209.277C117.711 209.523 118.016 209.699 118.625 210.051L173.659 241.825C174.268 242.177 174.573 242.353 174.897 242.421C175.183 242.482 175.479 242.482 175.766 242.421L117.49 209.277ZM117.49 209.277C117.294 209.06 117.146 208.803 117.055 208.525M117.49 209.277L117.055 208.525M117.055 208.525C116.953 208.21 116.953 207.858 116.953 207.155M117.055 208.525L116.953 207.155M116.953 207.155V143.607M116.953 207.155V143.607M116.953 143.607C116.953 142.903 116.953 142.551 117.055 142.237M116.953 143.607L117.055 142.237M117.055 142.237C117.146 141.958 117.294 141.701 117.49 141.484L117.055 142.237ZM173.92 109.389C174.56 109.019 174.782 108.898 175.005 108.851C175.22 108.805 175.442 108.805 175.657 108.851C175.881 108.898 176.103 109.019 176.742 109.389L231.776 141.163C232.416 141.532 232.631 141.663 232.784 141.833C232.931 141.997 233.042 142.189 233.11 142.398C233.181 142.615 233.187 142.868 233.187 143.607V207.155C233.187 207.893 233.181 208.146 233.11 208.363C233.042 208.572 232.931 208.764 232.784 208.928C232.631 209.098 232.416 209.229 231.776 209.598L176.742 241.372C176.103 241.742 175.881 241.863 175.657 241.91C175.442 241.956 175.22 241.956 175.005 241.91C174.782 241.863 174.56 241.742 173.92 241.372L118.887 209.598C118.247 209.229 118.031 209.098 117.878 208.928L117.49 209.277L117.878 208.928C117.731 208.764 117.62 208.572 117.552 208.363C117.482 208.146 117.476 207.893 117.476 207.155V143.607C117.476 142.868 117.482 142.615 117.552 142.398C117.62 142.189 117.731 141.997 117.878 141.833C118.031 141.663 118.247 141.532 118.887 141.163L173.92 109.389Z" fill="#0A0D0F" stroke="url(#paint6_linear_8985_217290)" stroke-width="1.04519"/>
<g filter="url(#filter6_i_8985_217290)">
<path d="M173.631 114.208C174.249 113.843 174.559 113.66 174.888 113.589C175.18 113.526 175.482 113.526 175.773 113.589C176.103 113.66 176.412 113.843 177.031 114.208L226.352 143.322C226.951 143.676 227.251 143.853 227.469 144.098C227.661 144.315 227.807 144.57 227.896 144.846C227.996 145.158 227.996 145.506 227.996 146.202V204.559C227.996 205.255 227.996 205.603 227.896 205.915C227.807 206.191 227.661 206.446 227.469 206.663C227.251 206.908 226.951 207.085 226.352 207.439L177.031 236.553C176.412 236.918 176.103 237.101 175.773 237.172C175.482 237.235 175.18 237.235 174.888 237.172C174.559 237.101 174.249 236.918 173.631 236.553L124.31 207.439C123.711 207.085 123.411 206.908 123.193 206.663C123 206.446 122.855 206.191 122.766 205.915C122.666 205.603 122.666 205.255 122.666 204.559V146.202C122.666 145.506 122.666 145.158 122.766 144.846C122.855 144.57 123 144.315 123.193 144.098C123.411 143.853 123.711 143.676 124.31 143.322L173.631 114.208Z" fill="#060809"/>
</g>
<path d="M173.896 114.658C174.546 114.275 174.771 114.149 174.999 114.1C175.218 114.052 175.444 114.052 175.663 114.1C175.89 114.149 176.116 114.275 176.765 114.658L226.086 143.772C226.716 144.143 226.928 144.276 227.078 144.445L227.469 144.098L227.078 144.445C227.223 144.608 227.332 144.799 227.398 145.006C227.468 145.222 227.474 145.471 227.474 146.202V204.559C227.474 205.29 227.468 205.539 227.398 205.755C227.332 205.962 227.223 206.153 227.078 206.316C226.928 206.485 226.716 206.618 226.086 206.989L176.765 236.103C176.116 236.486 175.89 236.612 175.663 236.661C175.444 236.709 175.218 236.709 174.999 236.661C174.771 236.612 174.546 236.486 173.896 236.103L124.576 206.989C123.946 206.618 123.734 206.485 123.584 206.316C123.439 206.153 123.33 205.962 123.264 205.755C123.194 205.539 123.188 205.29 123.188 204.559V146.202C123.188 145.471 123.194 145.222 123.264 145.006C123.33 144.799 123.439 144.608 123.584 144.445C123.734 144.276 123.946 144.143 124.576 143.772L173.896 114.658L173.631 114.208L173.896 114.658Z" stroke="url(#paint7_linear_8985_217290)" stroke-width="1.04519"/>
<g filter="url(#filter7_i_8985_217290)">
<path d="M173.659 114.175C174.268 113.823 174.573 113.647 174.897 113.579C175.183 113.518 175.479 113.518 175.766 113.579C176.09 113.647 176.394 113.823 177.004 114.175L227.507 143.332C228.116 143.684 228.421 143.86 228.642 144.106C228.838 144.323 228.987 144.58 229.077 144.858C229.179 145.173 229.179 145.525 229.179 146.228V204.542C229.179 205.246 229.179 205.597 229.077 205.912C228.987 206.191 228.838 206.447 228.642 206.665C228.421 206.911 228.116 207.087 227.507 207.439L177.004 236.596C176.394 236.947 176.09 237.123 175.766 237.192C175.479 237.253 175.183 237.253 174.897 237.192C174.573 237.123 174.268 236.947 173.659 236.596L123.156 207.439C122.546 207.087 122.242 206.911 122.02 206.665C121.824 206.447 121.676 206.191 121.586 205.912C121.483 205.597 121.483 205.246 121.483 204.542V146.228C121.483 145.525 121.483 145.173 121.586 144.858C121.676 144.58 121.824 144.323 122.02 144.106C122.242 143.86 122.546 143.684 123.156 143.332L173.659 114.175Z" fill="#060809"/>
</g>
<path d="M173.92 114.628C174.56 114.258 174.782 114.137 175.005 114.09C175.22 114.044 175.442 114.044 175.657 114.09C175.881 114.137 176.103 114.258 176.742 114.628L227.246 143.784C227.885 144.154 228.101 144.285 228.254 144.455C228.401 144.619 228.512 144.811 228.58 145.02C228.651 145.237 228.657 145.49 228.657 146.228V204.542C228.657 205.281 228.651 205.533 228.58 205.751C228.512 205.96 228.401 206.152 228.254 206.315C228.101 206.485 227.885 206.617 227.246 206.986L176.742 236.143C176.103 236.513 175.881 236.633 175.657 236.681C175.442 236.727 175.22 236.727 175.005 236.681C174.782 236.633 174.56 236.513 173.92 236.143L123.417 206.986C122.777 206.617 122.562 206.485 122.409 206.315C122.262 206.152 122.151 205.96 122.083 205.751C122.012 205.533 122.006 205.281 122.006 204.542V146.228C122.006 145.49 122.012 145.237 122.083 145.02C122.151 144.811 122.262 144.619 122.409 144.455C122.562 144.285 122.777 144.154 123.417 143.784L173.92 114.628Z" stroke="url(#paint8_linear_8985_217290)" stroke-width="1.04519"/>
<path d="M173.92 119.873C174.56 119.504 174.781 119.383 175.005 119.335C175.22 119.29 175.442 119.29 175.657 119.335C175.881 119.383 176.102 119.504 176.742 119.873L222.705 146.409C223.345 146.778 223.56 146.91 223.713 147.08C223.86 147.243 223.972 147.435 224.039 147.644C224.11 147.862 224.116 148.114 224.116 148.853V201.924C224.116 202.663 224.11 202.916 224.039 203.133C223.972 203.342 223.86 203.534 223.713 203.698C223.56 203.868 223.345 203.999 222.705 204.368L176.742 230.904C176.102 231.274 175.881 231.395 175.657 231.442C175.442 231.488 175.22 231.488 175.005 231.442C174.781 231.395 174.56 231.274 173.92 230.904L127.957 204.368C127.317 203.999 127.101 203.868 126.948 203.698L126.56 204.047L126.948 203.698C126.801 203.534 126.69 203.342 126.622 203.133C126.552 202.916 126.546 202.663 126.546 201.924V148.853C126.546 148.114 126.552 147.862 126.622 147.644C126.69 147.435 126.801 147.243 126.948 147.08C127.101 146.91 127.317 146.778 127.957 146.409L173.92 119.873Z" fill="#0A0D0F" stroke="url(#paint9_linear_8985_217290)" stroke-width="1.04519"/>
<path d="M175.329 190.12L165.006 196.079L175.329 202.039L185.652 196.079L175.329 190.12Z" fill="#FFCB5C"/>
<path d="M186.464 168.96V156.103L176.141 162.062V174.92L188.088 181.817V194.674L198.411 188.714V175.856L186.464 168.96Z" fill="#FFCB5C"/>
<path d="M163.386 195.142L175.331 188.244L186.465 194.674V182.753L175.331 176.326L163.386 183.222L152.252 176.794V188.714L163.386 195.142Z" fill="#FFCB5C"/>
<path d="M163.387 181.349L174.521 174.921V161.127L185.655 154.698L175.332 148.739L164.198 155.167V168.96L153.064 175.388L163.387 181.349Z" fill="#FFCB5C"/>
<path d="M188.088 156.103V168.023L198.411 173.982V162.062L188.088 156.103Z" fill="#FFCB5C"/>
<path d="M162.575 168.023V156.103L152.252 162.062V173.982L162.575 168.023Z" fill="#FFCB5C"/>
</g>
<defs>
<filter id="filter0_d_8985_217290" x="197.526" y="159.713" width="184.46" height="53.4559" filterUnits="userSpaceOnUse" color-interpolation-filters="sRGB">
<feFlood flood-opacity="0" result="BackgroundImageFix"/>
<feColorMatrix in="SourceAlpha" type="matrix" values="0 0 0 0 0 0 0 0 0 0 0 0 0 0 0 0 0 0 127 0" result="hardAlpha"/>
<feOffset dy="1"/>
<feGaussianBlur stdDeviation="2"/>
<feComposite in2="hardAlpha" operator="out"/>
<feColorMatrix type="matrix" values="0 0 0 0 0 0 0 0 0 0 0 0 0 0 0 0 0 0 1 0"/>
<feBlend mode="normal" in2="BackgroundImageFix" result="effect1_dropShadow_8985_217290"/>
<feBlend mode="normal" in="SourceGraphic" in2="effect1_dropShadow_8985_217290" result="shape"/>
</filter>
<filter id="filter1_d_8985_217290" x="197.526" y="80.4366" width="184.46" height="53.4559" filterUnits="userSpaceOnUse" color-interpolation-filters="sRGB">
<feFlood flood-opacity="0" result="BackgroundImageFix"/>
<feColorMatrix in="SourceAlpha" type="matrix" values="0 0 0 0 0 0 0 0 0 0 0 0 0 0 0 0 0 0 127 0" result="hardAlpha"/>
<feOffset dy="1"/>
<feGaussianBlur stdDeviation="2"/>
<feComposite in2="hardAlpha" operator="out"/>
<feColorMatrix type="matrix" values="0 0 0 0 0 0 0 0 0 0 0 0 0 0 0 0 0 0 1 0"/>
<feBlend mode="normal" in2="BackgroundImageFix" result="effect1_dropShadow_8985_217290"/>
<feBlend mode="normal" in="SourceGraphic" in2="effect1_dropShadow_8985_217290" result="shape"/>
</filter>
<filter id="filter2_d_8985_217290" x="-33.254" y="84.7676" width="415.16" height="128.28" filterUnits="userSpaceOnUse" color-interpolation-filters="sRGB">
<feFlood flood-opacity="0" result="BackgroundImageFix"/>
<feColorMatrix in="SourceAlpha" type="matrix" values="0 0 0 0 0 0 0 0 0 0 0 0 0 0 0 0 0 0 127 0" result="hardAlpha"/>
<feOffset dy="1"/>
<feGaussianBlur stdDeviation="2"/>
<feComposite in2="hardAlpha" operator="out"/>
<feColorMatrix type="matrix" values="0 0 0 0 0 0 0 0 0 0 0 0 0 0 0 0 0 0 1 0"/>
<feBlend mode="normal" in2="BackgroundImageFix" result="effect1_dropShadow_8985_217290"/>
<feBlend mode="normal" in="SourceGraphic" in2="effect1_dropShadow_8985_217290" result="shape"/>
</filter>
<filter id="filter3_f_8985_217290" x="54.9131" y="87.4752" width="240.836" height="248.99" filterUnits="userSpaceOnUse" color-interpolation-filters="sRGB">
<feFlood flood-opacity="0" result="BackgroundImageFix"/>
<feBlend mode="normal" in="SourceGraphic" in2="BackgroundImageFix" result="shape"/>
<feGaussianBlur stdDeviation="41.8076" result="effect1_foregroundBlur_8985_217290"/>
</filter>
<filter id="filter4_f_8985_217290" x="98.9102" y="94.9548" width="152.842" height="171.313" filterUnits="userSpaceOnUse" color-interpolation-filters="sRGB">
<feFlood flood-opacity="0" result="BackgroundImageFix"/>
<feBlend mode="normal" in="SourceGraphic" in2="BackgroundImageFix" result="shape"/>
<feGaussianBlur stdDeviation="3.13557" result="effect1_foregroundBlur_8985_217290"/>
</filter>
<filter id="filter5_i_8985_217290" x="112.427" y="103.068" width="125.808" height="145.668" filterUnits="userSpaceOnUse" color-interpolation-filters="sRGB">
<feFlood flood-opacity="0" result="BackgroundImageFix"/>
<feBlend mode="normal" in="SourceGraphic" in2="BackgroundImageFix" result="shape"/>
<feColorMatrix in="SourceAlpha" type="matrix" values="0 0 0 0 0 0 0 0 0 0 0 0 0 0 0 0 0 0 127 0" result="hardAlpha"/>
<feOffset dy="1.04519"/>
<feGaussianBlur stdDeviation="1.04519"/>
<feComposite in2="hardAlpha" operator="arithmetic" k2="-1" k3="1"/>
<feColorMatrix type="matrix" values="0 0 0 0 0 0 0 0 0 0 0 0 0 0 0 0 0 0 1 0"/>
<feBlend mode="normal" in2="shape" result="effect1_innerShadow_8985_217290"/>
</filter>
<filter id="filter6_i_8985_217290" x="122.666" y="113.542" width="105.331" height="124.723" filterUnits="userSpaceOnUse" color-interpolation-filters="sRGB">
<feFlood flood-opacity="0" result="BackgroundImageFix"/>
<feBlend mode="normal" in="SourceGraphic" in2="BackgroundImageFix" result="shape"/>
<feColorMatrix in="SourceAlpha" type="matrix" values="0 0 0 0 0 0 0 0 0 0 0 0 0 0 0 0 0 0 127 0" result="hardAlpha"/>
<feOffset dy="1.04519"/>
<feGaussianBlur stdDeviation="1.04519"/>
<feComposite in2="hardAlpha" operator="arithmetic" k2="-1" k3="1"/>
<feColorMatrix type="matrix" values="0 0 0 0 0 0 0 0 0 0 0 0 0 0 0 0 0 0 1 0"/>
<feBlend mode="normal" in2="shape" result="effect1_innerShadow_8985_217290"/>
</filter>
<filter id="filter7_i_8985_217290" x="121.483" y="113.533" width="107.696" height="124.75" filterUnits="userSpaceOnUse" color-interpolation-filters="sRGB">
<feFlood flood-opacity="0" result="BackgroundImageFix"/>
<feBlend mode="normal" in="SourceGraphic" in2="BackgroundImageFix" result="shape"/>
<feColorMatrix in="SourceAlpha" type="matrix" values="0 0 0 0 0 0 0 0 0 0 0 0 0 0 0 0 0 0 127 0" result="hardAlpha"/>
<feOffset dy="1.04519"/>
<feGaussianBlur stdDeviation="1.04519"/>
<feComposite in2="hardAlpha" operator="arithmetic" k2="-1" k3="1"/>
<feColorMatrix type="matrix" values="0 0 0 0 0 0 0 0 0 0 0 0 0 0 0 0 0 0 1 0"/>
<feBlend mode="normal" in2="shape" result="effect1_innerShadow_8985_217290"/>
</filter>
<radialGradient id="paint0_radial_8985_217290" cx="0" cy="0" r="1" gradientUnits="userSpaceOnUse" gradientTransform="translate(174.326 11.8705) rotate(90) scale(112.778 223.226)">
<stop stop-color="white"/>
<stop offset="1" stop-color="#F5F6F7" stop-opacity="0.1"/>
</radialGradient>
<linearGradient id="paint1_linear_8985_217290" x1="49" y1="21.8116" x2="3.62963" y2="21.8116" gradientUnits="userSpaceOnUse">
<stop stop-color="#13181C" stop-opacity="0"/>
<stop offset="1" stop-color="#13181C"/>
</linearGradient>
<linearGradient id="paint2_linear_8985_217290" x1="116" y1="202.899" x2="8.37073" y2="203.097" gradientUnits="userSpaceOnUse">
<stop stop-color="#0F1416" stop-opacity="0"/>
<stop offset="0.597286" stop-color="#0F1416"/>
</linearGradient>
<linearGradient id="paint3_linear_8985_217290" x1="57" y1="181.899" x2="-50.6293" y2="182.097" gradientUnits="userSpaceOnUse">
<stop stop-color="#161C20" stop-opacity="0"/>
<stop offset="0.597286" stop-color="#161C20"/>
</linearGradient>
<linearGradient id="paint4_linear_8985_217290" x1="175.331" y1="175.331" x2="175.331" y2="256.387" gradientUnits="userSpaceOnUse">
<stop stop-color="#3B3D3F" stop-opacity="0.5"/>
<stop offset="1" stop-color="#3B3D3F" stop-opacity="0.89"/>
</linearGradient>
<linearGradient id="paint5_linear_8985_217290" x1="175.309" y1="102.057" x2="175.367" y2="248.014" gradientUnits="userSpaceOnUse">
<stop stop-color="#1E1E1F" stop-opacity="0"/>
<stop offset="1" stop-color="#1E1E1F" stop-opacity="0.8"/>
</linearGradient>
<linearGradient id="paint6_linear_8985_217290" x1="175.331" y1="107.971" x2="175.331" y2="242.79" gradientUnits="userSpaceOnUse">
<stop stop-color="#3B3D3F" stop-opacity="0.5"/>
<stop offset="1" stop-color="#3B3D3F" stop-opacity="0.8"/>
</linearGradient>
<linearGradient id="paint7_linear_8985_217290" x1="175.312" y1="112.616" x2="175.363" y2="237.556" gradientUnits="userSpaceOnUse">
<stop stop-color="#1E1E1F" stop-opacity="0"/>
<stop offset="1" stop-color="#1E1E1F" stop-opacity="0.8"/>
</linearGradient>
<linearGradient id="paint8_linear_8985_217290" x1="175.312" y1="112.621" x2="175.362" y2="237.561" gradientUnits="userSpaceOnUse">
<stop stop-color="#1E1E1F" stop-opacity="0"/>
<stop offset="1" stop-color="#1E1E1F" stop-opacity="0.8"/>
</linearGradient>
<linearGradient id="paint9_linear_8985_217290" x1="175.331" y1="118.455" x2="175.331" y2="232.322" gradientUnits="userSpaceOnUse">
<stop stop-color="#3B3D3F" stop-opacity="0.2"/>
<stop offset="1" stop-color="#3B3D3F" stop-opacity="0.4"/>
</linearGradient>
<clipPath id="clip0_8985_217290">
<rect width="360" height="353" fill="white"/>
</clipPath>
<clipPath id="clip1_8985_217290">
<rect width="204" height="133" fill="white" transform="matrix(-1 0 0 1 175.185 87.4375)"/>
</clipPath>
</defs>
</svg>
