<svg width="387" height="296" viewBox="0 0 387 296" fill="none" xmlns="http://www.w3.org/2000/svg">
<g clip-path="url(#clip0_8985_233830)">
<g filter="url(#filter0_d_8985_233830)">
<path d="M391.683 166.565H294.993C293.351 166.565 291.734 166.161 290.286 165.388L228.35 132.339C226.56 131.385 224.383 131.53 222.737 132.716C219.545 135.014 219.865 139.863 223.332 141.722L287.257 175.983C288.709 176.761 290.332 177.169 291.98 177.169H391.683C394.611 177.169 396.985 174.795 396.985 171.867C396.985 168.939 394.611 166.565 391.683 166.565Z" fill="#0E1214"/>
</g>
<path d="M388.08 172.276H293.459C291.817 172.276 290.2 171.871 288.751 171.098L188.185 117.438" stroke="#3B3D3F" stroke-dasharray="1 2"/>
<g filter="url(#filter1_d_8985_233830)">
<path d="M391.683 63.0406H294.993C293.351 63.0406 291.734 63.445 290.286 64.218L228.35 97.2661C226.56 98.221 224.383 98.0751 222.737 96.8899C219.545 94.5912 219.865 89.7422 223.333 87.8838L287.257 53.6227C288.709 52.844 290.332 52.4366 291.981 52.4366H391.683C394.611 52.4366 396.985 54.8104 396.985 57.7386C396.985 60.6668 394.611 63.0406 391.683 63.0406Z" fill="#0E1214"/>
</g>
<path d="M388.08 57.3299H293.459C291.817 57.3299 290.2 57.7343 288.752 58.5073L188.185 112.168" stroke="#3B3D3F" stroke-dasharray="1 2"/>
<g clip-path="url(#clip1_8985_233830)">
<g filter="url(#filter2_d_8985_233830)">
<path d="M297.578 57.945L96.4455 165.266C94.9968 166.039 93.38 166.444 91.7379 166.444H-4.95204C-7.88026 166.444 -10.2541 168.818 -10.2541 171.746C-10.2541 174.674 -7.88026 177.048 -4.95204 177.048H94.7507C96.399 177.048 98.0218 176.64 99.4746 175.862L300.835 67.9396C302.288 67.1609 303.91 66.7535 305.559 66.7535H391.913C394.67 66.7535 396.906 64.5181 396.906 61.7605C396.906 59.003 394.67 56.7676 391.913 56.7676H302.285C300.643 56.7676 299.026 57.172 297.578 57.945Z" fill="#0E1214"/>
</g>
<path d="M398.059 61.7109H303.438C301.796 61.7109 300.179 62.1153 298.73 62.8883L97.5983 170.21C96.1496 170.983 94.5328 171.387 92.8907 171.387H-9.10123" stroke="#3B3D3F" stroke-dasharray="1 2"/>
</g>
<mask id="mask0_8985_233830" style="mask-type:alpha" maskUnits="userSpaceOnUse" x="-11" y="-69" width="408" height="235">
<path d="M386.906 52.4375H291.579C289.928 52.4375 288.302 52.8464 286.848 53.6276L253.685 71.4375L121.685 150.938L96.4462 164.704C94.963 165.513 93.2991 165.933 91.6098 165.925L-0.302149 165.485C-5.80625 165.459 -10.2543 160.989 -10.2543 155.485V-58.0352C-10.2543 -63.558 -5.77712 -68.0352 -0.254272 -68.0352H386.906C392.428 -68.0352 396.906 -63.558 396.906 -58.0352V42.4375C396.906 47.9604 392.428 52.4375 386.906 52.4375Z" fill="url(#paint0_radial_8985_233830)"/>
</mask>
<g mask="url(#mask0_8985_233830)">
<path d="M385.697 -119.074V199.655" stroke="#FFCB5C" stroke-width="0.5"/>
<path d="M381.697 -119.074V199.655" stroke="#FFCB5C" stroke-width="0.5"/>
<path d="M377.697 -119.074V199.655" stroke="#FFCB5C" stroke-width="0.5"/>
<path d="M373.697 -119.074V199.655" stroke="#FFCB5C" stroke-width="0.5"/>
<path d="M369.697 -119.074V199.655" stroke="#FFCB5C" stroke-width="0.5"/>
<path d="M365.697 -119.074V199.655" stroke="#FFCB5C" stroke-width="0.5"/>
<path d="M361.697 -119.074V199.655" stroke="#FFCB5C" stroke-width="0.5"/>
<path d="M357.697 -119.074V199.655" stroke="#FFCB5C" stroke-width="0.5"/>
<path d="M353.697 -119.074V199.655" stroke="#FFCB5C" stroke-width="0.5"/>
<path d="M349.697 -119.074V199.655" stroke="#FFCB5C" stroke-width="0.5"/>
<path d="M345.697 -119.074V199.655" stroke="#FFCB5C" stroke-width="0.5"/>
<path d="M341.697 -119.074V199.655" stroke="#FFCB5C" stroke-width="0.5"/>
<path d="M337.697 -119.074V199.655" stroke="#FFCB5C" stroke-width="0.5"/>
<path d="M333.697 -119.074V199.655" stroke="#FFCB5C" stroke-width="0.5"/>
<path d="M329.697 -119.074V199.655" stroke="#FFCB5C" stroke-width="0.5"/>
<path d="M325.697 -119.074V199.655" stroke="#FFCB5C" stroke-width="0.5"/>
<path d="M321.697 -119.074V199.655" stroke="#FFCB5C" stroke-width="0.5"/>
<path d="M317.697 -119.074V199.655" stroke="#FFCB5C" stroke-width="0.5"/>
<path d="M313.697 -119.074V199.655" stroke="#FFCB5C" stroke-width="0.5"/>
<path d="M309.697 -119.074V199.655" stroke="#FFCB5C" stroke-width="0.5"/>
<path d="M305.697 -119.074V199.655" stroke="#FFCB5C" stroke-width="0.5"/>
<path d="M301.697 -119.074V199.655" stroke="#FFCB5C" stroke-width="0.5"/>
<path d="M297.697 -119.074V199.655" stroke="#FFCB5C" stroke-width="0.5"/>
<path d="M293.697 -119.074V199.655" stroke="#FFCB5C" stroke-width="0.5"/>
<path d="M289.697 -119.074V199.655" stroke="#FFCB5C" stroke-width="0.5"/>
<path d="M285.697 -119.074V199.655" stroke="#FFCB5C" stroke-width="0.5"/>
<path d="M281.697 -119.074V199.655" stroke="#FFCB5C" stroke-width="0.5"/>
<path d="M277.697 -119.074V199.655" stroke="#FFCB5C" stroke-width="0.5"/>
<path d="M273.697 -119.074V199.655" stroke="#FFCB5C" stroke-width="0.5"/>
<path d="M269.697 -119.074V199.655" stroke="#FFCB5C" stroke-width="0.5"/>
<path d="M265.697 -119.074V199.655" stroke="#FFCB5C" stroke-width="0.5"/>
<path d="M261.697 -119.074V199.655" stroke="#FFCB5C" stroke-width="0.5"/>
<path d="M257.697 -119.074V199.655" stroke="#FFCB5C" stroke-width="0.5"/>
<path d="M253.697 -119.074L253.697 199.655" stroke="#FFCB5C" stroke-width="0.5"/>
<path d="M249.697 -119.074L249.697 199.655" stroke="#FFCB5C" stroke-width="0.5"/>
<path d="M245.697 -119.074L245.697 199.655" stroke="#FFCB5C" stroke-width="0.5"/>
<path d="M241.697 -119.074L241.697 199.655" stroke="#FFCB5C" stroke-width="0.5"/>
<path d="M237.697 -119.074L237.697 199.655" stroke="#FFCB5C" stroke-width="0.5"/>
<path d="M233.697 -119.074L233.697 199.655" stroke="#FFCB5C" stroke-width="0.5"/>
<path d="M229.697 -119.074L229.697 199.655" stroke="#FFCB5C" stroke-width="0.5"/>
<path d="M225.697 -119.074L225.697 199.655" stroke="#FFCB5C" stroke-width="0.5"/>
<path d="M221.697 -119.074L221.697 199.655" stroke="#FFCB5C" stroke-width="0.5"/>
<path d="M217.697 -119.074L217.697 199.655" stroke="#FFCB5C" stroke-width="0.5"/>
<path d="M213.697 -119.074L213.697 199.655" stroke="#FFCB5C" stroke-width="0.5"/>
<path d="M209.697 -119.074L209.697 199.655" stroke="#FFCB5C" stroke-width="0.5"/>
<path d="M205.697 -119.074L205.697 199.655" stroke="#FFCB5C" stroke-width="0.5"/>
<path d="M201.697 -119.074L201.697 199.655" stroke="#FFCB5C" stroke-width="0.5"/>
<path d="M197.697 -119.074L197.697 199.655" stroke="#FFCB5C" stroke-width="0.5"/>
<path d="M193.697 -119.074L193.697 199.655" stroke="#FFCB5C" stroke-width="0.5"/>
<path d="M189.697 -119.074L189.697 199.655" stroke="#FFCB5C" stroke-width="0.5"/>
<path d="M185.697 -119.074L185.697 199.655" stroke="#FFCB5C" stroke-width="0.5"/>
<path d="M181.697 -119.074L181.697 199.655" stroke="#FFCB5C" stroke-width="0.5"/>
<path d="M177.697 -119.074L177.697 199.655" stroke="#FFCB5C" stroke-width="0.5"/>
<path d="M173.697 -119.074L173.697 199.655" stroke="#FFCB5C" stroke-width="0.5"/>
<path d="M169.697 -119.074L169.697 199.655" stroke="#FFCB5C" stroke-width="0.5"/>
<path d="M165.697 -119.074L165.697 199.655" stroke="#FFCB5C" stroke-width="0.5"/>
<path d="M161.697 -119.074L161.697 199.655" stroke="#FFCB5C" stroke-width="0.5"/>
<path d="M157.697 -119.074L157.697 199.655" stroke="#FFCB5C" stroke-width="0.5"/>
<path d="M153.697 -119.074L153.697 199.655" stroke="#FFCB5C" stroke-width="0.5"/>
<path d="M149.697 -119.074L149.697 199.655" stroke="#FFCB5C" stroke-width="0.5"/>
<path d="M145.697 -119.074L145.697 199.655" stroke="#FFCB5C" stroke-width="0.5"/>
<path d="M141.697 -119.074L141.697 199.655" stroke="#FFCB5C" stroke-width="0.5"/>
<path d="M137.697 -119.074L137.697 199.655" stroke="#FFCB5C" stroke-width="0.5"/>
<path d="M133.697 -119.074L133.697 199.655" stroke="#FFCB5C" stroke-width="0.5"/>
<path d="M129.697 -119.074L129.697 199.655" stroke="#FFCB5C" stroke-width="0.5"/>
<path d="M125.697 -119.074L125.697 199.655" stroke="#FFCB5C" stroke-width="0.5"/>
<path d="M121.697 -119.074L121.697 199.655" stroke="#FFCB5C" stroke-width="0.5"/>
<path d="M117.697 -119.074L117.697 199.655" stroke="#FFCB5C" stroke-width="0.5"/>
<path d="M113.697 -119.074L113.697 199.655" stroke="#FFCB5C" stroke-width="0.5"/>
<path d="M109.697 -119.074L109.697 199.655" stroke="#FFCB5C" stroke-width="0.5"/>
<path d="M105.697 -119.074L105.697 199.655" stroke="#FFCB5C" stroke-width="0.5"/>
<path d="M101.697 -119.074L101.697 199.655" stroke="#FFCB5C" stroke-width="0.5"/>
<path d="M97.6966 -119.074L97.6966 199.655" stroke="#FFCB5C" stroke-width="0.5"/>
<path d="M93.6966 -119.074L93.6966 199.655" stroke="#FFCB5C" stroke-width="0.5"/>
<path d="M89.6966 -119.074L89.6966 199.655" stroke="#FFCB5C" stroke-width="0.5"/>
<path d="M85.6966 -119.074L85.6966 199.655" stroke="#FFCB5C" stroke-width="0.5"/>
<path d="M81.6966 -119.074L81.6966 199.655" stroke="#FFCB5C" stroke-width="0.5"/>
<path d="M77.6966 -119.074L77.6966 199.655" stroke="#FFCB5C" stroke-width="0.5"/>
<path d="M73.6966 -119.074L73.6966 199.655" stroke="#FFCB5C" stroke-width="0.5"/>
<path d="M69.6966 -119.074L69.6966 199.655" stroke="#FFCB5C" stroke-width="0.5"/>
<path d="M65.6966 -119.074L65.6966 199.655" stroke="#FFCB5C" stroke-width="0.5"/>
<path d="M61.6966 -119.074L61.6966 199.655" stroke="#FFCB5C" stroke-width="0.5"/>
<path d="M57.6966 -119.074L57.6966 199.655" stroke="#FFCB5C" stroke-width="0.5"/>
<path d="M53.6966 -119.074L53.6966 199.655" stroke="#FFCB5C" stroke-width="0.5"/>
<path d="M49.6966 -119.074L49.6966 199.655" stroke="#FFCB5C" stroke-width="0.5"/>
<path d="M45.6966 -119.074L45.6966 199.655" stroke="#FFCB5C" stroke-width="0.5"/>
<path d="M41.6966 -119.074L41.6966 199.655" stroke="#FFCB5C" stroke-width="0.5"/>
<path d="M37.6966 -119.074L37.6966 199.655" stroke="#FFCB5C" stroke-width="0.5"/>
<path d="M33.6966 -119.074L33.6966 199.655" stroke="#FFCB5C" stroke-width="0.5"/>
<path d="M29.6966 -119.074L29.6966 199.655" stroke="#FFCB5C" stroke-width="0.5"/>
<path d="M25.6966 -119.074L25.6966 199.655" stroke="#FFCB5C" stroke-width="0.5"/>
<path d="M21.6966 -119.074L21.6966 199.655" stroke="#FFCB5C" stroke-width="0.5"/>
<path d="M17.6966 -119.074L17.6966 199.655" stroke="#FFCB5C" stroke-width="0.5"/>
<path d="M13.6966 -119.074L13.6966 199.655" stroke="#FFCB5C" stroke-width="0.5"/>
<path d="M9.69662 -119.074L9.69662 199.655" stroke="#FFCB5C" stroke-width="0.5"/>
<path d="M5.69662 -119.074L5.69662 199.655" stroke="#FFCB5C" stroke-width="0.5"/>
<path d="M1.69662 -119.074L1.69662 199.655" stroke="#FFCB5C" stroke-width="0.5"/>
</g>
<rect width="49" height="43" transform="matrix(-1 0 0 1 390 150)" fill="url(#paint1_linear_8985_233830)"/>
<g filter="url(#filter3_f_8985_233830)">
<path d="M187.776 130.491C191.01 128.624 194.994 128.624 198.228 130.491L224.579 145.705C227.813 147.572 229.805 151.022 229.805 154.756V185.184C229.805 188.918 227.813 192.368 224.579 194.235L198.228 209.449C194.994 211.316 191.01 211.316 187.776 209.449L161.425 194.235C158.191 192.368 156.199 188.918 156.199 185.184V154.756C156.199 151.022 158.191 147.572 161.425 145.705L187.776 130.491Z" fill="#FFCB5C" fill-opacity="0.35"/>
</g>
<g filter="url(#filter4_f_8985_233830)">
<path d="M187.776 60.6263C191.01 58.7592 194.994 58.7592 198.228 60.6263L257.926 95.093C261.16 96.96 263.152 100.41 263.152 104.145V173.078C263.152 176.812 261.16 180.262 257.926 182.13L198.228 216.596C194.994 218.463 191.01 218.463 187.776 216.596L128.078 182.13C124.844 180.262 122.852 176.812 122.852 173.078V104.145C122.852 100.41 124.844 96.96 128.078 95.093L187.776 60.6263Z" fill="#0A0D0F"/>
</g>
<path d="M184.902 57.6632C187.979 55.8869 189.419 55.0625 190.938 54.7396C192.299 54.4503 193.706 54.4503 195.067 54.7396C196.586 55.0625 198.026 55.8869 201.102 57.6632L254.529 88.5092C257.606 90.2855 259.04 91.1205 260.079 92.2746C261.01 93.3087 261.714 94.5269 262.144 95.8503C262.624 97.3272 262.63 98.9866 262.63 102.539V164.231C262.63 167.784 262.624 169.443 262.144 170.92C261.714 172.244 261.01 173.462 260.079 174.496C259.04 175.65 257.606 176.485 254.529 178.261L201.102 209.107C198.026 210.884 196.586 211.708 195.067 212.031C193.706 212.32 192.299 212.32 190.938 212.031C189.419 211.708 187.979 210.884 184.902 209.107L131.475 178.261C128.398 176.485 126.964 175.65 125.925 174.496C124.994 173.462 124.291 172.244 123.861 170.92C123.381 169.443 123.375 167.784 123.375 164.231V102.539C123.375 98.9866 123.381 97.3272 123.861 95.8503C124.291 94.5269 124.994 93.3087 125.925 92.2746C126.964 91.1205 128.398 90.2856 131.475 88.5092L184.902 57.6632Z" fill="#0A0D0F" stroke="url(#paint2_linear_8985_233830)" stroke-width="1.04519"/>
<g filter="url(#filter5_i_8985_233830)">
<path d="M191.33 61.7101C191.939 61.3584 192.244 61.1825 192.568 61.1137C192.854 61.0528 193.15 61.0528 193.437 61.1137C193.761 61.1825 194.065 61.3584 194.675 61.7101L254.234 96.0964C254.843 96.4481 255.148 96.624 255.369 96.87C255.565 97.0877 255.714 97.3442 255.804 97.6228C255.906 97.9377 255.906 98.2894 255.906 98.9929V167.765C255.906 168.469 255.906 168.821 255.804 169.135C255.714 169.414 255.565 169.671 255.369 169.888C255.148 170.134 254.843 170.31 254.234 170.662L194.675 205.048C194.065 205.4 193.761 205.576 193.437 205.645C193.15 205.706 192.854 205.706 192.568 205.645C192.244 205.576 191.939 205.4 191.33 205.048L131.77 170.662C131.161 170.31 130.857 170.134 130.635 169.888C130.439 169.671 130.291 169.414 130.2 169.135C130.098 168.821 130.098 168.469 130.098 167.765V98.9929C130.098 98.2894 130.098 97.9377 130.2 97.6228C130.291 97.3442 130.439 97.0877 130.635 96.87C130.857 96.624 131.161 96.4481 131.77 96.0964L191.33 61.7101Z" fill="#060809"/>
</g>
<path d="M192.676 61.6248L192.568 61.1137L192.676 61.6248C192.891 61.5792 193.113 61.5792 193.328 61.6248C193.552 61.6724 193.773 61.7933 194.413 62.1627L194.674 61.7103L194.413 62.1627L253.973 96.549C254.613 96.9183 254.828 97.0498 254.981 97.2197C255.128 97.383 255.239 97.5753 255.307 97.7843C255.378 98.0018 255.384 98.2542 255.384 98.9929V167.765C255.384 168.504 255.378 168.757 255.307 168.974C255.239 169.183 255.128 169.375 254.981 169.539C254.828 169.709 254.613 169.84 253.973 170.209L194.413 204.596C193.773 204.965 193.552 205.086 193.328 205.133C193.113 205.179 192.891 205.179 192.676 205.133C192.453 205.086 192.231 204.965 191.591 204.596L132.032 170.209C131.392 169.84 131.176 169.709 131.023 169.539C130.876 169.375 130.765 169.183 130.697 168.974C130.627 168.757 130.621 168.504 130.621 167.765V98.9929C130.621 98.2542 130.627 98.0018 130.697 97.7843C130.765 97.5753 130.876 97.383 131.023 97.2197C131.176 97.0498 131.392 96.9183 132.032 96.549L191.591 62.1627C192.231 61.7933 192.453 61.6724 192.676 61.6248Z" stroke="url(#paint3_linear_8985_233830)" stroke-width="1.04519"/>
<path d="M135.161 167.277C135.382 167.523 135.687 167.699 136.296 168.051L191.33 199.825C191.939 200.177 192.244 200.353 192.568 200.421C192.854 200.482 193.15 200.482 193.437 200.421L135.161 167.277ZM135.161 167.277C134.965 167.06 134.817 166.803 134.726 166.525M135.161 167.277L134.726 166.525M134.726 166.525C134.624 166.21 134.624 165.858 134.624 165.155M134.726 166.525L134.624 165.155M134.624 165.155V101.607M134.624 165.155V101.607M134.624 101.607C134.624 100.903 134.624 100.551 134.726 100.237M134.624 101.607L134.726 100.237M134.726 100.237C134.817 99.9579 134.965 99.7014 135.161 99.4837L134.726 100.237ZM191.591 67.3887C192.231 67.0193 192.453 66.8984 192.676 66.8509C192.891 66.8052 193.113 66.8052 193.328 66.8509C193.552 66.8984 193.774 67.0193 194.413 67.3887L249.447 99.1627C250.087 99.532 250.302 99.6635 250.455 99.8334C250.602 99.9967 250.713 100.189 250.781 100.398C250.852 100.615 250.858 100.868 250.858 101.607V165.155C250.858 165.893 250.852 166.146 250.781 166.363C250.713 166.572 250.602 166.764 250.455 166.928C250.302 167.098 250.087 167.229 249.447 167.598L194.413 199.372C193.774 199.742 193.552 199.863 193.328 199.91C193.113 199.956 192.891 199.956 192.676 199.91C192.453 199.863 192.231 199.742 191.591 199.372L136.558 167.598C135.918 167.229 135.702 167.098 135.549 166.928L135.161 167.277L135.549 166.928C135.402 166.764 135.291 166.572 135.223 166.363C135.153 166.146 135.147 165.893 135.147 165.155V101.607C135.147 100.868 135.153 100.615 135.223 100.398C135.291 100.189 135.402 99.9967 135.549 99.8334C135.702 99.6635 135.918 99.532 136.558 99.1627L191.591 67.3887Z" fill="#0A0D0F" stroke="url(#paint4_linear_8985_233830)" stroke-width="1.04519"/>
<g filter="url(#filter6_i_8985_233830)">
<path d="M191.302 72.2083C191.92 71.8431 192.23 71.6604 192.559 71.589C192.851 71.5259 193.153 71.5259 193.444 71.589C193.774 71.6604 194.083 71.843 194.702 72.2083L244.023 101.322C244.622 101.676 244.922 101.853 245.14 102.098C245.332 102.315 245.478 102.57 245.567 102.846C245.667 103.158 245.667 103.506 245.667 104.202V162.559C245.667 163.255 245.667 163.603 245.567 163.915C245.478 164.191 245.332 164.446 245.14 164.663C244.922 164.908 244.622 165.085 244.023 165.439L194.702 194.553C194.083 194.918 193.774 195.101 193.444 195.172C193.153 195.235 192.851 195.235 192.559 195.172C192.23 195.101 191.92 194.918 191.302 194.553L141.981 165.439C141.382 165.085 141.082 164.908 140.864 164.663C140.671 164.446 140.526 164.191 140.437 163.915C140.337 163.603 140.337 163.255 140.337 162.559V104.202C140.337 103.506 140.337 103.158 140.437 102.846C140.526 102.57 140.671 102.315 140.864 102.098C141.082 101.853 141.382 101.676 141.981 101.322L191.302 72.2083Z" fill="#060809"/>
</g>
<path d="M191.567 72.6583C192.217 72.2747 192.442 72.1491 192.67 72.0998C192.889 72.0524 193.115 72.0524 193.334 72.0998C193.561 72.1491 193.787 72.2747 194.436 72.6583L243.757 101.772C244.386 102.143 244.598 102.276 244.749 102.445L245.14 102.098L244.749 102.445C244.893 102.608 245.003 102.799 245.069 103.006C245.139 103.222 245.145 103.471 245.145 104.202V162.559C245.145 163.29 245.139 163.539 245.069 163.755C245.003 163.962 244.893 164.153 244.749 164.316C244.598 164.485 244.386 164.618 243.757 164.989L194.436 194.103C193.787 194.486 193.561 194.612 193.334 194.661C193.115 194.709 192.889 194.709 192.67 194.661C192.442 194.612 192.217 194.486 191.567 194.103L142.247 164.989C141.617 164.618 141.405 164.485 141.255 164.316C141.11 164.153 141.001 163.962 140.934 163.755C140.865 163.539 140.859 163.29 140.859 162.559V104.202C140.859 103.471 140.865 103.222 140.934 103.006C141.001 102.799 141.11 102.608 141.255 102.445C141.405 102.276 141.617 102.143 142.247 101.772L191.567 72.6583L191.302 72.2083L191.567 72.6583Z" stroke="url(#paint5_linear_8985_233830)" stroke-width="1.04519"/>
<g filter="url(#filter7_i_8985_233830)">
<path d="M191.33 72.1749C191.939 71.8232 192.244 71.6473 192.568 71.5785C192.854 71.5176 193.15 71.5176 193.437 71.5785C193.761 71.6473 194.065 71.8232 194.674 72.1749L245.178 101.332C245.787 101.684 246.092 101.86 246.313 102.106C246.509 102.323 246.657 102.58 246.748 102.858C246.85 103.173 246.85 103.525 246.85 104.228V162.542C246.85 163.246 246.85 163.597 246.748 163.912C246.657 164.191 246.509 164.447 246.313 164.665C246.092 164.911 245.787 165.087 245.178 165.439L194.674 194.596C194.065 194.947 193.761 195.123 193.437 195.192C193.15 195.253 192.854 195.253 192.568 195.192C192.244 195.123 191.939 194.947 191.33 194.596L140.827 165.439C140.217 165.087 139.913 164.911 139.691 164.665C139.495 164.447 139.347 164.191 139.257 163.912C139.154 163.597 139.154 163.246 139.154 162.542V104.228C139.154 103.525 139.154 103.173 139.257 102.858C139.347 102.58 139.495 102.323 139.691 102.106C139.913 101.86 140.217 101.684 140.827 101.332L191.33 72.1749Z" fill="#060809"/>
</g>
<path d="M191.591 72.6275C192.231 72.2582 192.453 72.1372 192.676 72.0897C192.891 72.044 193.113 72.044 193.328 72.0897C193.552 72.1372 193.773 72.2582 194.413 72.6275L244.917 101.784C245.556 102.154 245.772 102.285 245.925 102.455C246.072 102.619 246.183 102.811 246.251 103.02C246.322 103.237 246.328 103.49 246.328 104.228V162.542C246.328 163.281 246.322 163.533 246.251 163.751C246.183 163.96 246.072 164.152 245.925 164.315C245.772 164.485 245.556 164.617 244.917 164.986L194.413 194.143C193.773 194.513 193.552 194.633 193.328 194.681C193.113 194.727 192.891 194.727 192.676 194.681C192.453 194.633 192.231 194.513 191.591 194.143L141.088 164.986C140.448 164.617 140.233 164.485 140.08 164.315C139.932 164.152 139.821 163.96 139.754 163.751C139.683 163.533 139.677 163.281 139.677 162.542V104.228C139.677 103.49 139.683 103.237 139.754 103.02C139.821 102.811 139.932 102.619 140.08 102.455C140.233 102.285 140.448 102.154 141.088 101.784L191.591 72.6275Z" stroke="url(#paint6_linear_8985_233830)" stroke-width="1.04519"/>
<path d="M191.591 77.8732C192.231 77.5038 192.452 77.3829 192.676 77.3354C192.891 77.2897 193.113 77.2897 193.328 77.3354C193.551 77.3829 193.773 77.5038 194.413 77.8732L240.376 104.409C241.016 104.778 241.231 104.91 241.384 105.08C241.531 105.243 241.642 105.435 241.71 105.644C241.781 105.862 241.787 106.114 241.787 106.853V159.924C241.787 160.663 241.781 160.916 241.71 161.133C241.642 161.342 241.531 161.534 241.384 161.698C241.231 161.868 241.016 161.999 240.376 162.368L194.413 188.904C193.773 189.274 193.551 189.395 193.328 189.442C193.113 189.488 192.891 189.488 192.676 189.442C192.452 189.395 192.231 189.274 191.591 188.904L145.628 162.368C144.988 161.999 144.772 161.868 144.619 161.698L144.231 162.047L144.619 161.698C144.472 161.534 144.361 161.342 144.293 161.133C144.223 160.916 144.217 160.663 144.217 159.924V106.853C144.217 106.114 144.223 105.862 144.293 105.644C144.361 105.435 144.472 105.243 144.619 105.08C144.772 104.91 144.988 104.778 145.628 104.409L191.591 77.8732Z" fill="#0A0D0F" stroke="url(#paint7_linear_8985_233830)" stroke-width="1.04519"/>
<path d="M193.081 148.381L182.758 154.341L193.081 160.3L203.404 154.341L193.081 148.381Z" fill="#FFCB5C"/>
<path d="M204.216 127.221V114.364L193.893 120.324V133.182L205.84 140.078V152.935L216.163 146.976V134.117L204.216 127.221Z" fill="#FFCB5C"/>
<path d="M181.138 153.403L193.083 146.506L204.217 152.935V141.015L193.083 134.587L181.138 141.483L170.004 135.055V146.976L181.138 153.403Z" fill="#FFCB5C"/>
<path d="M181.139 139.61L192.273 133.182V119.389L203.407 112.959L193.084 107L181.95 113.428V127.221L170.816 133.649L181.139 139.61Z" fill="#FFCB5C"/>
<path d="M205.84 114.364V126.284L216.163 132.244V120.324L205.84 114.364Z" fill="#FFCB5C"/>
<path d="M180.327 126.284V114.364L170.004 120.324V132.244L180.327 126.284Z" fill="#FFCB5C"/>
</g>
<defs>
<filter id="filter0_d_8985_233830" x="216.525" y="128.713" width="184.46" height="53.4559" filterUnits="userSpaceOnUse" color-interpolation-filters="sRGB">
<feFlood flood-opacity="0" result="BackgroundImageFix"/>
<feColorMatrix in="SourceAlpha" type="matrix" values="0 0 0 0 0 0 0 0 0 0 0 0 0 0 0 0 0 0 127 0" result="hardAlpha"/>
<feOffset dy="1"/>
<feGaussianBlur stdDeviation="2"/>
<feComposite in2="hardAlpha" operator="out"/>
<feColorMatrix type="matrix" values="0 0 0 0 0 0 0 0 0 0 0 0 0 0 0 0 0 0 1 0"/>
<feBlend mode="normal" in2="BackgroundImageFix" result="effect1_dropShadow_8985_233830"/>
<feBlend mode="normal" in="SourceGraphic" in2="effect1_dropShadow_8985_233830" result="shape"/>
</filter>
<filter id="filter1_d_8985_233830" x="216.526" y="49.4366" width="184.46" height="53.4559" filterUnits="userSpaceOnUse" color-interpolation-filters="sRGB">
<feFlood flood-opacity="0" result="BackgroundImageFix"/>
<feColorMatrix in="SourceAlpha" type="matrix" values="0 0 0 0 0 0 0 0 0 0 0 0 0 0 0 0 0 0 127 0" result="hardAlpha"/>
<feOffset dy="1"/>
<feGaussianBlur stdDeviation="2"/>
<feComposite in2="hardAlpha" operator="out"/>
<feColorMatrix type="matrix" values="0 0 0 0 0 0 0 0 0 0 0 0 0 0 0 0 0 0 1 0"/>
<feBlend mode="normal" in2="BackgroundImageFix" result="effect1_dropShadow_8985_233830"/>
<feBlend mode="normal" in="SourceGraphic" in2="effect1_dropShadow_8985_233830" result="shape"/>
</filter>
<filter id="filter2_d_8985_233830" x="-14.2541" y="53.7676" width="415.16" height="128.28" filterUnits="userSpaceOnUse" color-interpolation-filters="sRGB">
<feFlood flood-opacity="0" result="BackgroundImageFix"/>
<feColorMatrix in="SourceAlpha" type="matrix" values="0 0 0 0 0 0 0 0 0 0 0 0 0 0 0 0 0 0 127 0" result="hardAlpha"/>
<feOffset dy="1"/>
<feGaussianBlur stdDeviation="2"/>
<feComposite in2="hardAlpha" operator="out"/>
<feColorMatrix type="matrix" values="0 0 0 0 0 0 0 0 0 0 0 0 0 0 0 0 0 0 1 0"/>
<feBlend mode="normal" in2="BackgroundImageFix" result="effect1_dropShadow_8985_233830"/>
<feBlend mode="normal" in="SourceGraphic" in2="effect1_dropShadow_8985_233830" result="shape"/>
</filter>
<filter id="filter3_f_8985_233830" x="72.5839" y="45.4752" width="240.836" height="248.99" filterUnits="userSpaceOnUse" color-interpolation-filters="sRGB">
<feFlood flood-opacity="0" result="BackgroundImageFix"/>
<feBlend mode="normal" in="SourceGraphic" in2="BackgroundImageFix" result="shape"/>
<feGaussianBlur stdDeviation="41.8076" result="effect1_foregroundBlur_8985_233830"/>
</filter>
<filter id="filter4_f_8985_233830" x="116.581" y="52.9548" width="152.842" height="171.313" filterUnits="userSpaceOnUse" color-interpolation-filters="sRGB">
<feFlood flood-opacity="0" result="BackgroundImageFix"/>
<feBlend mode="normal" in="SourceGraphic" in2="BackgroundImageFix" result="shape"/>
<feGaussianBlur stdDeviation="3.13557" result="effect1_foregroundBlur_8985_233830"/>
</filter>
<filter id="filter5_i_8985_233830" x="130.098" y="61.068" width="125.808" height="145.668" filterUnits="userSpaceOnUse" color-interpolation-filters="sRGB">
<feFlood flood-opacity="0" result="BackgroundImageFix"/>
<feBlend mode="normal" in="SourceGraphic" in2="BackgroundImageFix" result="shape"/>
<feColorMatrix in="SourceAlpha" type="matrix" values="0 0 0 0 0 0 0 0 0 0 0 0 0 0 0 0 0 0 127 0" result="hardAlpha"/>
<feOffset dy="1.04519"/>
<feGaussianBlur stdDeviation="1.04519"/>
<feComposite in2="hardAlpha" operator="arithmetic" k2="-1" k3="1"/>
<feColorMatrix type="matrix" values="0 0 0 0 0 0 0 0 0 0 0 0 0 0 0 0 0 0 1 0"/>
<feBlend mode="normal" in2="shape" result="effect1_innerShadow_8985_233830"/>
</filter>
<filter id="filter6_i_8985_233830" x="140.337" y="71.5417" width="105.331" height="124.723" filterUnits="userSpaceOnUse" color-interpolation-filters="sRGB">
<feFlood flood-opacity="0" result="BackgroundImageFix"/>
<feBlend mode="normal" in="SourceGraphic" in2="BackgroundImageFix" result="shape"/>
<feColorMatrix in="SourceAlpha" type="matrix" values="0 0 0 0 0 0 0 0 0 0 0 0 0 0 0 0 0 0 127 0" result="hardAlpha"/>
<feOffset dy="1.04519"/>
<feGaussianBlur stdDeviation="1.04519"/>
<feComposite in2="hardAlpha" operator="arithmetic" k2="-1" k3="1"/>
<feColorMatrix type="matrix" values="0 0 0 0 0 0 0 0 0 0 0 0 0 0 0 0 0 0 1 0"/>
<feBlend mode="normal" in2="shape" result="effect1_innerShadow_8985_233830"/>
</filter>
<filter id="filter7_i_8985_233830" x="139.154" y="71.5328" width="107.696" height="124.75" filterUnits="userSpaceOnUse" color-interpolation-filters="sRGB">
<feFlood flood-opacity="0" result="BackgroundImageFix"/>
<feBlend mode="normal" in="SourceGraphic" in2="BackgroundImageFix" result="shape"/>
<feColorMatrix in="SourceAlpha" type="matrix" values="0 0 0 0 0 0 0 0 0 0 0 0 0 0 0 0 0 0 127 0" result="hardAlpha"/>
<feOffset dy="1.04519"/>
<feGaussianBlur stdDeviation="1.04519"/>
<feComposite in2="hardAlpha" operator="arithmetic" k2="-1" k3="1"/>
<feColorMatrix type="matrix" values="0 0 0 0 0 0 0 0 0 0 0 0 0 0 0 0 0 0 1 0"/>
<feBlend mode="normal" in2="shape" result="effect1_innerShadow_8985_233830"/>
</filter>
<radialGradient id="paint0_radial_8985_233830" cx="0" cy="0" r="1" gradientUnits="userSpaceOnUse" gradientTransform="translate(193.326 -8.259) rotate(90) scale(187.753 223.226)">
<stop stop-color="white"/>
<stop offset="1" stop-color="#F5F6F7" stop-opacity="0.1"/>
</radialGradient>
<linearGradient id="paint1_linear_8985_233830" x1="49" y1="21.8116" x2="3.62963" y2="21.8116" gradientUnits="userSpaceOnUse">
<stop stop-color="#13181C" stop-opacity="0"/>
<stop offset="1" stop-color="#13181C"/>
</linearGradient>
<linearGradient id="paint2_linear_8985_233830" x1="193.002" y1="133.331" x2="193.002" y2="214.387" gradientUnits="userSpaceOnUse">
<stop stop-color="#3B3D3F" stop-opacity="0.5"/>
<stop offset="1" stop-color="#3B3D3F" stop-opacity="0.89"/>
</linearGradient>
<linearGradient id="paint3_linear_8985_233830" x1="192.98" y1="60.0569" x2="193.038" y2="206.014" gradientUnits="userSpaceOnUse">
<stop stop-color="#1E1E1F" stop-opacity="0"/>
<stop offset="1" stop-color="#1E1E1F" stop-opacity="0.8"/>
</linearGradient>
<linearGradient id="paint4_linear_8985_233830" x1="193.002" y1="65.9706" x2="193.002" y2="200.79" gradientUnits="userSpaceOnUse">
<stop stop-color="#3B3D3F" stop-opacity="0.5"/>
<stop offset="1" stop-color="#3B3D3F" stop-opacity="0.8"/>
</linearGradient>
<linearGradient id="paint5_linear_8985_233830" x1="192.983" y1="70.616" x2="193.034" y2="195.556" gradientUnits="userSpaceOnUse">
<stop stop-color="#1E1E1F" stop-opacity="0"/>
<stop offset="1" stop-color="#1E1E1F" stop-opacity="0.8"/>
</linearGradient>
<linearGradient id="paint6_linear_8985_233830" x1="192.983" y1="70.6207" x2="193.033" y2="195.561" gradientUnits="userSpaceOnUse">
<stop stop-color="#1E1E1F" stop-opacity="0"/>
<stop offset="1" stop-color="#1E1E1F" stop-opacity="0.8"/>
</linearGradient>
<linearGradient id="paint7_linear_8985_233830" x1="193.002" y1="76.4551" x2="193.002" y2="190.322" gradientUnits="userSpaceOnUse">
<stop stop-color="#3B3D3F" stop-opacity="0.2"/>
<stop offset="1" stop-color="#3B3D3F" stop-opacity="0.4"/>
</linearGradient>
<clipPath id="clip0_8985_233830">
<rect width="387" height="296" fill="white"/>
</clipPath>
<clipPath id="clip1_8985_233830">
<rect width="204" height="133" fill="white" transform="matrix(-1 0 0 1 194.185 56.4375)"/>
</clipPath>
</defs>
</svg>
