<svg width="335" height="237" viewBox="0 0 335 237" fill="none" xmlns="http://www.w3.org/2000/svg">
<g clip-path="url(#clip0_1418_74202)">
<mask id="mask0_1418_74202" style="mask-type:alpha" maskUnits="userSpaceOnUse" x="-27" y="-53" width="394" height="157">
<path d="M33.5312 76.2747L57.3215 100.077C59.197 101.953 61.7413 103.008 64.3943 103.008H281.514C284.582 103.008 287.48 101.599 289.376 99.1869L307.438 76.2046C309.334 73.7923 312.233 72.3838 315.301 72.3838H356.544C362.067 72.3838 366.544 67.9066 366.544 62.3838V-42.1928C366.544 -47.7156 362.067 -52.1928 356.544 -52.1928L318.852 -52.1933H286.373H92.0388H36.5346H-16.5196C-22.0424 -52.1933 -26.5196 -47.7162 -26.5196 -42.1933V63.344C-26.5196 68.8669 -22.0424 73.344 -16.5196 73.344H26.4584C29.1114 73.344 31.6557 74.3983 33.5312 76.2747Z" fill="url(#paint0_radial_1418_74202)"/>
</mask>
<g mask="url(#mask0_1418_74202)">
<path d="M3.33252 -95.3652L3.33252 223.364" stroke="#6DC28B" stroke-width="0.5"/>
<path d="M7.33252 -95.3652L7.33252 223.364" stroke="#6DC28B" stroke-width="0.5"/>
<path d="M11.3325 -95.3652L11.3325 223.364" stroke="#6DC28B" stroke-width="0.5"/>
<path d="M15.3325 -95.3652L15.3325 223.364" stroke="#6DC28B" stroke-width="0.5"/>
<path d="M19.3325 -95.3652L19.3325 223.364" stroke="#6DC28B" stroke-width="0.5"/>
<path d="M23.3325 -95.3652L23.3325 223.364" stroke="#6DC28B" stroke-width="0.5"/>
<path d="M27.3325 -95.3652L27.3325 223.364" stroke="#6DC28B" stroke-width="0.5"/>
<path d="M31.3325 -95.3652L31.3325 223.364" stroke="#6DC28B" stroke-width="0.5"/>
<path d="M35.3325 -95.3652L35.3325 223.364" stroke="#6DC28B" stroke-width="0.5"/>
<path d="M39.3325 -95.3652L39.3325 223.364" stroke="#6DC28B" stroke-width="0.5"/>
<path d="M43.3325 -95.3652L43.3325 223.364" stroke="#6DC28B" stroke-width="0.5"/>
<path d="M47.3325 -95.3652L47.3325 223.364" stroke="#6DC28B" stroke-width="0.5"/>
<path d="M51.3325 -95.3652L51.3325 223.364" stroke="#6DC28B" stroke-width="0.5"/>
<path d="M55.3325 -95.3652L55.3325 223.364" stroke="#6DC28B" stroke-width="0.5"/>
<path d="M59.3325 -95.3652L59.3325 223.364" stroke="#6DC28B" stroke-width="0.5"/>
<path d="M63.3325 -95.3652L63.3325 223.364" stroke="#6DC28B" stroke-width="0.5"/>
<path d="M67.3325 -95.3652L67.3325 223.364" stroke="#6DC28B" stroke-width="0.5"/>
<path d="M71.3325 -95.3652L71.3325 223.364" stroke="#6DC28B" stroke-width="0.5"/>
<path d="M75.3325 -95.3652L75.3325 223.364" stroke="#6DC28B" stroke-width="0.5"/>
<path d="M79.3325 -95.3652L79.3325 223.364" stroke="#6DC28B" stroke-width="0.5"/>
<path d="M83.3325 -95.3652L83.3325 223.364" stroke="#6DC28B" stroke-width="0.5"/>
<path d="M87.3325 -95.3652L87.3325 223.364" stroke="#6DC28B" stroke-width="0.5"/>
<path d="M91.3325 -95.3652L91.3325 223.364" stroke="#6DC28B" stroke-width="0.5"/>
<path d="M95.3325 -95.3652L95.3325 223.364" stroke="#6DC28B" stroke-width="0.5"/>
<path d="M99.3325 -95.3652L99.3325 223.364" stroke="#6DC28B" stroke-width="0.5"/>
<path d="M103.333 -95.3652L103.333 223.364" stroke="#6DC28B" stroke-width="0.5"/>
<path d="M107.333 -95.3652L107.333 223.364" stroke="#6DC28B" stroke-width="0.5"/>
<path d="M111.333 -95.3652L111.333 223.364" stroke="#6DC28B" stroke-width="0.5"/>
<path d="M115.333 -95.3652L115.333 223.364" stroke="#6DC28B" stroke-width="0.5"/>
<path d="M119.333 -95.3652L119.333 223.364" stroke="#6DC28B" stroke-width="0.5"/>
<path d="M123.333 -95.3652L123.333 223.364" stroke="#6DC28B" stroke-width="0.5"/>
<path d="M127.333 -95.3652L127.333 223.364" stroke="#6DC28B" stroke-width="0.5"/>
<path d="M131.333 -95.3652L131.333 223.364" stroke="#6DC28B" stroke-width="0.5"/>
<path d="M135.333 -95.3652L135.333 223.364" stroke="#6DC28B" stroke-width="0.5"/>
<path d="M139.333 -95.3652L139.333 223.364" stroke="#6DC28B" stroke-width="0.5"/>
<path d="M143.333 -95.3652L143.333 223.364" stroke="#6DC28B" stroke-width="0.5"/>
<path d="M147.333 -95.3652L147.333 223.364" stroke="#6DC28B" stroke-width="0.5"/>
<path d="M151.333 -95.3652L151.333 223.364" stroke="#6DC28B" stroke-width="0.5"/>
<path d="M155.333 -95.3652L155.333 223.364" stroke="#6DC28B" stroke-width="0.5"/>
<path d="M159.333 -95.3652L159.333 223.364" stroke="#6DC28B" stroke-width="0.5"/>
<path d="M163.333 -95.3652L163.333 223.364" stroke="#6DC28B" stroke-width="0.5"/>
<path d="M167.333 -95.3652L167.333 223.364" stroke="#6DC28B" stroke-width="0.5"/>
<path d="M171.333 -95.3652L171.333 223.364" stroke="#6DC28B" stroke-width="0.5"/>
<path d="M175.333 -95.3652L175.333 223.364" stroke="#6DC28B" stroke-width="0.5"/>
<path d="M179.333 -95.3652L179.333 223.364" stroke="#6DC28B" stroke-width="0.5"/>
<path d="M183.333 -95.3652L183.333 223.364" stroke="#6DC28B" stroke-width="0.5"/>
<path d="M187.333 -95.3652L187.333 223.364" stroke="#6DC28B" stroke-width="0.5"/>
<path d="M191.333 -95.3652L191.333 223.364" stroke="#6DC28B" stroke-width="0.5"/>
<path d="M195.333 -95.3652L195.333 223.364" stroke="#6DC28B" stroke-width="0.5"/>
<path d="M199.333 -95.3652L199.333 223.364" stroke="#6DC28B" stroke-width="0.5"/>
<path d="M203.333 -95.3652L203.333 223.364" stroke="#6DC28B" stroke-width="0.5"/>
<path d="M207.333 -95.3652L207.333 223.364" stroke="#6DC28B" stroke-width="0.5"/>
<path d="M211.333 -95.3652L211.333 223.364" stroke="#6DC28B" stroke-width="0.5"/>
<path d="M215.333 -95.3652L215.333 223.364" stroke="#6DC28B" stroke-width="0.5"/>
<path d="M219.333 -95.3652L219.333 223.364" stroke="#6DC28B" stroke-width="0.5"/>
<path d="M223.333 -95.3652L223.333 223.364" stroke="#6DC28B" stroke-width="0.5"/>
<path d="M227.333 -95.3652L227.333 223.364" stroke="#6DC28B" stroke-width="0.5"/>
<path d="M231.333 -95.3652L231.333 223.364" stroke="#6DC28B" stroke-width="0.5"/>
<path d="M235.333 -95.3652L235.333 223.364" stroke="#6DC28B" stroke-width="0.5"/>
<path d="M239.333 -95.3652L239.333 223.364" stroke="#6DC28B" stroke-width="0.5"/>
<path d="M243.333 -95.3652L243.333 223.364" stroke="#6DC28B" stroke-width="0.5"/>
<path d="M247.333 -95.3652L247.333 223.364" stroke="#6DC28B" stroke-width="0.5"/>
<path d="M251.333 -95.3652L251.333 223.364" stroke="#6DC28B" stroke-width="0.5"/>
<path d="M255.333 -95.3652L255.333 223.364" stroke="#6DC28B" stroke-width="0.5"/>
<path d="M259.333 -95.3652V223.364" stroke="#6DC28B" stroke-width="0.5"/>
<path d="M263.333 -95.3652V223.364" stroke="#6DC28B" stroke-width="0.5"/>
<path d="M267.333 -95.3652V223.364" stroke="#6DC28B" stroke-width="0.5"/>
<path d="M271.333 -95.3652V223.364" stroke="#6DC28B" stroke-width="0.5"/>
<path d="M275.333 -95.3652V223.364" stroke="#6DC28B" stroke-width="0.5"/>
<path d="M279.333 -95.3652V223.364" stroke="#6DC28B" stroke-width="0.5"/>
<path d="M283.333 -95.3652V223.364" stroke="#6DC28B" stroke-width="0.5"/>
<path d="M287.333 -95.3652V223.364" stroke="#6DC28B" stroke-width="0.5"/>
<path d="M291.333 -95.3652V223.364" stroke="#6DC28B" stroke-width="0.5"/>
<path d="M295.333 -95.3652V223.364" stroke="#6DC28B" stroke-width="0.5"/>
<path d="M299.333 -95.3652V223.364" stroke="#6DC28B" stroke-width="0.5"/>
<path d="M303.333 -95.3652V223.364" stroke="#6DC28B" stroke-width="0.5"/>
<path d="M307.333 -95.3652V223.364" stroke="#6DC28B" stroke-width="0.5"/>
<path d="M311.333 -95.3652V223.364" stroke="#6DC28B" stroke-width="0.5"/>
<path d="M315.333 -95.3652V223.364" stroke="#6DC28B" stroke-width="0.5"/>
<path d="M319.333 -95.3652V223.364" stroke="#6DC28B" stroke-width="0.5"/>
<path d="M323.333 -95.3652V223.364" stroke="#6DC28B" stroke-width="0.5"/>
<path d="M327.333 -95.3652V223.364" stroke="#6DC28B" stroke-width="0.5"/>
<path d="M331.333 -95.3652V223.364" stroke="#6DC28B" stroke-width="0.5"/>
</g>
<g filter="url(#filter0_d_1418_74202)">
<path d="M33.0688 76.2757L56.8591 100.078C58.7346 101.954 61.2789 103.009 63.932 103.009H281.051C284.119 103.009 287.018 101.6 288.914 99.1879L306.976 76.2055C308.872 73.7932 311.77 72.3848 314.838 72.3848H360.906C363.764 72.3848 366.082 74.7019 366.082 77.5602C366.082 80.4186 363.764 82.7357 360.906 82.7357H319.289C316.284 82.7357 313.439 84.087 311.54 86.4157L292.361 109.933C290.462 112.261 287.616 113.613 284.611 113.613H60.9461C58.2713 113.613 55.708 112.541 53.8291 110.638L29.8126 86.306C27.9337 84.4024 25.3704 83.3309 22.6956 83.3309H-21.989C-24.7466 83.3309 -26.982 81.0955 -26.982 78.3379C-26.982 75.5804 -24.7466 73.345 -21.989 73.345H25.996C28.649 73.345 31.1933 74.3993 33.0688 76.2757Z" fill="#0E1214"/>
</g>
<path d="M-29.0001 78.4883H23.2055C25.7418 78.4883 28.1834 79.452 30.0359 81.1844L56.9052 106.312C58.7577 108.044 61.1992 109.008 63.7355 109.008H281.922C284.887 109.008 287.699 107.692 289.599 105.416L309.912 81.0802C311.812 78.804 314.624 77.4883 317.589 77.4883H366.559" stroke="#3B3D3F" stroke-dasharray="1 2"/>
<g filter="url(#filter1_d_1418_74202)">
<path d="M33.0688 157.722L56.8591 133.92C58.7346 132.044 61.2789 130.989 63.932 130.989H281.051C284.119 130.989 287.018 132.398 288.914 134.81L306.976 157.793C308.872 160.205 311.77 161.613 314.838 161.613H360.906C363.764 161.613 366.082 159.296 366.082 156.438C366.082 153.579 363.764 151.262 360.906 151.262H319.289C316.284 151.262 313.439 149.911 311.54 147.582L292.361 124.065C290.462 121.737 287.616 120.385 284.611 120.385H60.8279C58.2231 120.385 55.7212 121.402 53.8543 123.218L28.555 147.834C26.6881 149.651 24.1861 150.667 21.5813 150.667H-21.989C-24.7466 150.667 -26.982 152.903 -26.982 155.66C-26.982 158.418 -24.7466 160.653 -21.989 160.653H25.996C28.649 160.653 31.1933 159.599 33.0688 157.722Z" fill="#0E1214"/>
</g>
<path d="M370.559 156.008L318.03 156.008C315.148 156.008 312.405 154.764 310.506 152.595L289.759 128.9C287.86 126.732 285.118 125.488 282.235 125.488H63.3947C60.7478 125.488 58.2089 126.537 56.3344 128.406L31.5762 153.089C29.7017 154.958 27.1627 156.008 24.5158 156.008H-25" stroke="#3B3D3F" stroke-dasharray="1 2"/>
<rect x="-23.791" y="134.438" width="53" height="43" fill="url(#paint1_linear_1418_74202)"/>
<rect width="57" height="43.46" transform="matrix(-1 0 0 1 372.209 57.9775)" fill="url(#paint2_linear_1418_74202)"/>
<g filter="url(#filter2_f_1418_74202)">
<path d="M167.142 175.41C167.577 175.758 168.059 175.93 168.541 175.93C169.023 175.924 169.501 175.741 169.932 175.38L183.822 163.896C187.76 160.647 190.844 157.014 193.245 152.785C193.455 152.415 193.662 152.04 193.864 151.662C202.495 135.538 186.415 119.811 168.127 119.974C149.963 120.134 134.183 135.93 142.851 151.892C143.098 152.347 143.351 152.796 143.609 153.239C146.038 157.41 149.149 160.99 153.126 164.18L167.142 175.41Z" fill="#6DC28B" fill-opacity="0.3"/>
</g>
<g filter="url(#filter3_f_1418_74202)">
<path d="M166.491 175.184C167.215 175.563 168.018 175.75 168.82 175.75C169.623 175.743 170.419 175.544 171.136 175.152L194.265 162.668C200.822 159.136 205.956 155.186 209.955 150.588C224.18 134.228 205.777 114.701 184.098 114.826L152.732 115.007C131.038 115.133 112.858 134.9 127.307 151.083C131.352 155.616 136.532 159.508 143.154 162.976L166.491 175.184Z" fill="#0A0D0F"/>
</g>
<path d="M129.59 147.659L129.59 147.659C133.416 151.799 138.324 155.362 144.617 158.544C144.617 158.544 144.617 158.544 144.617 158.544L166.901 169.799L166.732 170.133L166.901 169.799C167.537 170.12 168.244 170.279 168.954 170.279C169.662 170.274 170.363 170.104 170.993 169.772L170.994 169.771L193.079 158.262L193.08 158.261C199.31 155.021 204.174 151.405 207.957 147.206C216.244 138.004 222.59 125.935 222.51 113.907L222.248 73.812V73.8116C222.236 71.6384 221.057 69.5391 219.276 67.78C217.498 66.0241 215.156 64.6452 212.91 63.9135L212.91 63.9134L171.836 50.4675L171.835 50.4672C169.439 49.6756 166.813 49.6877 164.463 50.5067L164.46 50.5076L123.543 64.4269L129.59 147.659ZM129.59 147.659C121.165 138.548 114.134 126.51 114.06 114.472L114.06 114.472M129.59 147.659L114.06 114.472M114.06 114.472L113.798 74.4071L113.798 74.407M114.06 114.472L113.798 74.407M113.798 74.407C113.783 72.2447 115.056 70.1442 116.952 68.3665M113.798 74.407L116.952 68.3665M116.952 68.3665C118.842 66.5948 121.302 65.1928 123.542 64.4271L116.952 68.3665Z" fill="#0A0D0F" stroke="url(#paint3_linear_1418_74202)" stroke-width="0.75"/>
<g filter="url(#filter4_i_1418_74202)">
<path d="M168.64 164.679C167.95 164.679 167.261 164.524 166.638 164.208L146.575 154.027C140.882 151.135 136.428 147.889 132.951 144.108C125.339 135.839 119.632 125.224 119.565 114.212L119.329 77.9701C119.301 73.7873 123.528 70.0329 127.645 68.619L164.484 56.0277C166.672 55.2618 169.111 55.2511 171.338 55.9902L208.318 68.1531C212.457 69.5081 216.729 73.2356 216.751 77.4131L216.987 113.682C217.06 124.677 211.498 135.335 204.005 143.696C200.566 147.53 196.152 150.824 190.515 153.77L170.632 164.181C170.015 164.508 169.33 164.674 168.64 164.679Z" fill="#060809"/>
</g>
<path d="M133.227 143.854L133.227 143.854C125.653 135.625 120.006 125.096 119.94 114.21L119.94 114.21L119.704 77.9677L119.704 77.9676C119.691 76.0057 120.677 74.1105 122.203 72.5155C123.728 70.9226 125.762 69.6622 127.766 68.9737C127.766 68.9737 127.766 68.9737 127.766 68.9737L164.605 56.3826L164.608 56.3816C166.716 55.6437 169.071 55.6327 171.22 56.3461L171.221 56.3464L208.201 68.5093L208.201 68.5095C210.216 69.1689 212.266 70.4082 213.81 71.9869C215.357 73.5677 216.366 75.4558 216.376 77.4151V77.4155L216.612 113.684C216.684 124.554 211.182 135.126 203.726 143.445C200.323 147.24 195.948 150.508 190.342 153.437L190.341 153.437L170.458 163.849L170.456 163.85C169.894 164.147 169.27 164.299 168.638 164.304C168.005 164.304 167.374 164.161 166.808 163.874L146.745 153.692C141.082 150.816 136.668 147.595 133.227 143.854Z" stroke="url(#paint4_linear_1418_74202)" stroke-width="0.75"/>
<path d="M135.776 141.715L135.776 141.715C138.955 145.178 143.033 148.158 148.265 150.821L166.813 160.25C167.333 160.514 167.912 160.646 168.493 160.646C169.072 160.641 169.645 160.502 170.16 160.228L170.161 160.228L188.544 150.585L188.544 150.585C193.725 147.873 197.767 144.848 200.909 141.337C207.8 133.636 213.066 123.347 212.999 113.288L212.781 79.6975V79.6971C212.772 77.8953 211.819 76.1538 210.364 74.6913C208.911 73.2314 206.991 72.0851 205.132 71.4753L205.131 71.4751L170.944 60.2106L170.943 60.2103C168.961 59.5515 166.791 59.5617 164.849 60.243L164.846 60.244L130.789 71.9051L135.776 141.715ZM135.776 141.715C128.784 134.106 123.737 123.855 123.676 113.774L123.676 113.774M135.776 141.715L123.676 113.774M123.676 113.774L123.458 80.2085L123.458 80.2084M123.676 113.774L123.458 80.2084M123.458 80.2084C123.446 78.3975 124.33 76.648 125.711 75.1757M123.458 80.2084L125.711 75.1757M125.711 75.1757C127.091 73.7049 128.94 72.541 130.788 71.9053L125.711 75.1757Z" fill="#0A0D0F" stroke="url(#paint5_linear_1418_74202)" stroke-width="0.75"/>
<g filter="url(#filter5_i_1418_74202)">
<path d="M168.44 157.328C167.847 157.328 167.254 157.195 166.719 156.924L149.483 148.203C144.592 145.725 140.766 142.945 137.778 139.706C131.239 132.622 126.961 122.921 126.903 113.488L126.701 82.4419C126.677 78.8587 129.779 75.6426 133.316 74.4314L164.965 63.6454C166.844 62.9893 168.941 62.9801 170.854 63.6133L202.623 74.0323C206.179 75.193 209.32 78.3862 209.34 81.9647L209.542 113.034C209.605 122.453 205.259 132.191 198.822 139.353C195.868 142.638 192.075 145.459 187.233 147.983L170.15 156.901C169.62 157.181 169.032 157.323 168.44 157.328Z" fill="#060809"/>
</g>
<path d="M138.054 139.452L138.054 139.452C131.57 132.427 127.335 122.813 127.278 113.486L127.278 113.485L127.076 82.4394L127.076 82.4393C127.053 79.0727 129.993 75.9657 133.437 74.7862L165.086 64.0003L165.089 63.9994C166.888 63.3711 168.9 63.3616 170.736 63.9693L170.737 63.9696L202.506 74.3886L202.507 74.3888C205.969 75.5187 208.946 78.6042 208.965 81.9667V81.9672L209.167 113.036C209.229 122.345 204.93 131.996 198.543 139.102C195.625 142.347 191.871 145.143 187.059 147.65L187.059 147.65L169.977 156.569L169.975 156.57C169.5 156.82 168.972 156.949 168.438 156.953C167.901 156.953 167.368 156.832 166.889 156.59L149.652 147.868C144.792 145.406 141.005 142.651 138.054 139.452Z" stroke="url(#paint6_linear_1418_74202)" stroke-width="0.75"/>
<path d="M140.307 137.149L140.307 137.149C134.314 130.692 131.029 121.814 130.976 113.207L130.976 113.207L130.788 84.5898L130.788 84.5897C130.767 81.4594 132.847 78.6315 135.983 77.5635L165.316 67.6214L165.319 67.6205C166.981 67.0432 168.84 67.0344 170.536 67.5928L170.537 67.5931L199.982 77.1971L199.983 77.1973C203.135 78.2206 205.249 81.0282 205.266 84.1545V84.1549L205.454 112.793C205.511 121.384 202.233 130.297 196.331 136.827C193.63 139.815 190.154 142.39 185.696 144.7L185.695 144.7L169.863 152.922L169.861 152.922C169.425 153.151 168.94 153.269 168.448 153.273C167.955 153.272 167.464 153.162 167.024 152.941L151.049 144.901C146.547 142.633 143.039 140.095 140.307 137.149Z" fill="#0A0D0F" stroke="url(#paint7_linear_1418_74202)" stroke-width="0.75"/>
<g clip-path="url(#clip1_1418_74202)">
<path d="M174.208 113.281H173.644V114.242H172.684V114.805H173.644V115.766H174.208V114.805H175.169V114.242H174.208V113.281Z" fill="#6DC28B"/>
<path fill-rule="evenodd" clip-rule="evenodd" d="M168.405 91.1243C158.227 91.1243 149.977 99.3744 149.977 109.552C149.977 119.729 158.227 127.979 168.405 127.979C178.582 127.979 186.832 119.729 186.832 109.552C186.832 99.3744 178.582 91.1243 168.405 91.1243ZM172.615 111.319C171.519 111.769 170.706 112.764 170.512 113.967L167.715 113.65C167.707 113.649 167.701 113.642 167.7 113.634V100.256C167.701 100.25 167.704 100.244 167.71 100.241C167.718 100.237 167.728 100.241 167.732 100.249L172.615 111.319ZM162.822 114.339C162.822 114.336 162.822 114.333 162.823 114.33L166.97 104.93C166.974 104.921 166.984 104.918 166.992 104.922C166.998 104.925 167.002 104.93 167.002 104.937L167.001 113.615C167.002 113.623 166.996 113.631 166.988 113.632L162.841 114.353C162.832 114.355 162.824 114.349 162.822 114.339ZM167.008 117.091C167.004 117.093 167 117.093 166.996 117.091L162.844 114.999C162.836 114.995 162.832 114.985 162.835 114.977C162.838 114.971 162.844 114.967 162.851 114.967H170.497C170.541 115.312 170.635 115.64 170.773 115.945L167.008 117.091ZM173.931 117.466C172.305 117.466 170.987 116.148 170.987 114.522C170.987 112.897 172.305 111.579 173.931 111.579C175.556 111.579 176.874 112.897 176.874 114.522C176.874 116.148 175.556 117.466 173.931 117.466ZM166.353 98.5172L168.384 95.1331L170.414 98.5172H166.353ZM166.353 121.181L168.384 124.565L170.414 121.181H166.353ZM183.083 109.721L179.699 107.691V111.752L183.083 109.721ZM157.111 107.691L153.727 109.721L157.111 111.752V107.691Z" fill="#6DC28B"/>
</g>
</g>
<defs>
<filter id="filter0_d_1418_74202" x="-30.9819" y="69.3848" width="401.063" height="49.2279" filterUnits="userSpaceOnUse" color-interpolation-filters="sRGB">
<feFlood flood-opacity="0" result="BackgroundImageFix"/>
<feColorMatrix in="SourceAlpha" type="matrix" values="0 0 0 0 0 0 0 0 0 0 0 0 0 0 0 0 0 0 127 0" result="hardAlpha"/>
<feOffset dy="1"/>
<feGaussianBlur stdDeviation="2"/>
<feComposite in2="hardAlpha" operator="out"/>
<feColorMatrix type="matrix" values="0 0 0 0 0 0 0 0 0 0 0 0 0 0 0 0 0 0 1 0"/>
<feBlend mode="normal" in2="BackgroundImageFix" result="effect1_dropShadow_1418_74202"/>
<feBlend mode="normal" in="SourceGraphic" in2="effect1_dropShadow_1418_74202" result="shape"/>
</filter>
<filter id="filter1_d_1418_74202" x="-30.9819" y="117.385" width="401.063" height="49.2279" filterUnits="userSpaceOnUse" color-interpolation-filters="sRGB">
<feFlood flood-opacity="0" result="BackgroundImageFix"/>
<feColorMatrix in="SourceAlpha" type="matrix" values="0 0 0 0 0 0 0 0 0 0 0 0 0 0 0 0 0 0 127 0" result="hardAlpha"/>
<feOffset dy="1"/>
<feGaussianBlur stdDeviation="2"/>
<feComposite in2="hardAlpha" operator="out"/>
<feColorMatrix type="matrix" values="0 0 0 0 0 0 0 0 0 0 0 0 0 0 0 0 0 0 1 0"/>
<feBlend mode="normal" in2="BackgroundImageFix" result="effect1_dropShadow_1418_74202"/>
<feBlend mode="normal" in="SourceGraphic" in2="effect1_dropShadow_1418_74202" result="shape"/>
</filter>
<filter id="filter2_f_1418_74202" x="80.4053" y="59.9723" width="175.857" height="175.957" filterUnits="userSpaceOnUse" color-interpolation-filters="sRGB">
<feFlood flood-opacity="0" result="BackgroundImageFix"/>
<feBlend mode="normal" in="SourceGraphic" in2="BackgroundImageFix" result="shape"/>
<feGaussianBlur stdDeviation="30" result="effect1_foregroundBlur_1418_74202"/>
</filter>
<filter id="filter3_f_1418_74202" x="117.633" y="110.325" width="101.833" height="69.9243" filterUnits="userSpaceOnUse" color-interpolation-filters="sRGB">
<feFlood flood-opacity="0" result="BackgroundImageFix"/>
<feBlend mode="normal" in="SourceGraphic" in2="BackgroundImageFix" result="shape"/>
<feGaussianBlur stdDeviation="2.25" result="effect1_foregroundBlur_1418_74202"/>
</filter>
<filter id="filter4_i_1418_74202" x="119.329" y="55.4445" width="97.6587" height="109.985" filterUnits="userSpaceOnUse" color-interpolation-filters="sRGB">
<feFlood flood-opacity="0" result="BackgroundImageFix"/>
<feBlend mode="normal" in="SourceGraphic" in2="BackgroundImageFix" result="shape"/>
<feColorMatrix in="SourceAlpha" type="matrix" values="0 0 0 0 0 0 0 0 0 0 0 0 0 0 0 0 0 0 127 0" result="hardAlpha"/>
<feOffset dy="0.75"/>
<feGaussianBlur stdDeviation="0.75"/>
<feComposite in2="hardAlpha" operator="arithmetic" k2="-1" k3="1"/>
<feColorMatrix type="matrix" values="0 0 0 0 0 0 0 0 0 0 0 0 0 0 0 0 0 0 1 0"/>
<feBlend mode="normal" in2="shape" result="effect1_innerShadow_1418_74202"/>
</filter>
<filter id="filter5_i_1418_74202" x="126.701" y="63.1458" width="82.8418" height="94.9324" filterUnits="userSpaceOnUse" color-interpolation-filters="sRGB">
<feFlood flood-opacity="0" result="BackgroundImageFix"/>
<feBlend mode="normal" in="SourceGraphic" in2="BackgroundImageFix" result="shape"/>
<feColorMatrix in="SourceAlpha" type="matrix" values="0 0 0 0 0 0 0 0 0 0 0 0 0 0 0 0 0 0 127 0" result="hardAlpha"/>
<feOffset dy="0.75"/>
<feGaussianBlur stdDeviation="0.75"/>
<feComposite in2="hardAlpha" operator="arithmetic" k2="-1" k3="1"/>
<feColorMatrix type="matrix" values="0 0 0 0 0 0 0 0 0 0 0 0 0 0 0 0 0 0 1 0"/>
<feBlend mode="normal" in2="shape" result="effect1_innerShadow_1418_74202"/>
</filter>
<radialGradient id="paint0_radial_1418_74202" cx="0" cy="0" r="1" gradientUnits="userSpaceOnUse" gradientTransform="translate(170.012 -12.5421) rotate(90) scale(124.542 215.498)">
<stop stop-color="white"/>
<stop offset="1" stop-color="#F5F6F7" stop-opacity="0.1"/>
</radialGradient>
<linearGradient id="paint1_linear_1418_74202" x1="29.209" y1="156.249" x2="-19.8651" y2="156.249" gradientUnits="userSpaceOnUse">
<stop stop-color="#13181C" stop-opacity="0"/>
<stop offset="1" stop-color="#13181C"/>
</linearGradient>
<linearGradient id="paint2_linear_1418_74202" x1="57" y1="22.0449" x2="4.22222" y2="22.0449" gradientUnits="userSpaceOnUse">
<stop stop-color="#13181C" stop-opacity="0"/>
<stop offset="1" stop-color="#13181C"/>
</linearGradient>
<linearGradient id="paint3_linear_1418_74202" x1="168.154" y1="110.041" x2="168.154" y2="170.654" gradientUnits="userSpaceOnUse">
<stop stop-color="#3B3D3F" stop-opacity="0.5"/>
<stop offset="1" stop-color="#3B3D3F" stop-opacity="0.89"/>
</linearGradient>
<linearGradient id="paint4_linear_1418_74202" x1="168.143" y1="54.9273" x2="168.192" y2="164.679" gradientUnits="userSpaceOnUse">
<stop stop-color="#1E1E1F" stop-opacity="0"/>
<stop offset="1" stop-color="#1E1E1F" stop-opacity="0.8"/>
</linearGradient>
<linearGradient id="paint5_linear_1418_74202" x1="168.229" y1="59.349" x2="168.229" y2="161.021" gradientUnits="userSpaceOnUse">
<stop stop-color="#3B3D3F" stop-opacity="0.5"/>
<stop offset="1" stop-color="#3B3D3F" stop-opacity="0.8"/>
</linearGradient>
<linearGradient id="paint6_linear_1418_74202" x1="168.109" y1="62.6999" x2="168.152" y2="157.328" gradientUnits="userSpaceOnUse">
<stop stop-color="#1E1E1F" stop-opacity="0"/>
<stop offset="1" stop-color="#1E1E1F" stop-opacity="0.8"/>
</linearGradient>
<linearGradient id="paint7_linear_1418_74202" x1="168.121" y1="66.8057" x2="168.121" y2="153.648" gradientUnits="userSpaceOnUse">
<stop stop-color="#3B3D3F" stop-opacity="0.2"/>
<stop offset="1" stop-color="#3B3D3F" stop-opacity="0.4"/>
</linearGradient>
<clipPath id="clip0_1418_74202">
<rect width="335" height="237" fill="white"/>
</clipPath>
<clipPath id="clip1_1418_74202">
<rect width="38" height="38" fill="white" transform="translate(149.384 90.7188)"/>
</clipPath>
</defs>
</svg>
