<svg width="360" height="357" viewBox="0 0 360 357" fill="none" xmlns="http://www.w3.org/2000/svg">
<g clip-path="url(#clip0_1418_80646)">
<mask id="mask0_1418_80646" style="mask-type:alpha" maskUnits="userSpaceOnUse" x="-13" y="-15" width="394" height="470">
<path d="M47.8413 427.275L71.6316 451.077C73.5071 452.953 76.0514 454.008 78.7044 454.008H295.824C298.892 454.008 301.79 452.599 303.686 450.187L321.748 427.205C323.644 424.792 326.543 423.384 329.611 423.384H370.854C376.377 423.384 380.854 418.907 380.854 413.384V-4.19289C380.854 -9.71569 376.377 -14.1928 370.854 -14.1929L333.162 -14.1934H300.683H106.349H50.8447H-2.20953C-7.73239 -14.1934 -12.2095 -9.71621 -12.2095 -4.19336V414.344C-12.2095 419.867 -7.73239 424.344 -2.20953 424.344H40.7685C43.4215 424.344 45.9658 425.398 47.8413 427.275Z" fill="url(#paint0_radial_1418_80646)"/>
</mask>
<g mask="url(#mask0_1418_80646)">
<path d="M2 -57L2 389" stroke="#6DC28B" stroke-width="0.5"/>
<path d="M6 -57L6 389" stroke="#6DC28B" stroke-width="0.5"/>
<path d="M10 -57L10 389" stroke="#6DC28B" stroke-width="0.5"/>
<path d="M14 -57L14 389" stroke="#6DC28B" stroke-width="0.5"/>
<path d="M18 -57L18 389" stroke="#6DC28B" stroke-width="0.5"/>
<path d="M22 -57L22 389" stroke="#6DC28B" stroke-width="0.5"/>
<path d="M26 -57L26 389" stroke="#6DC28B" stroke-width="0.5"/>
<path d="M30 -57L30 389" stroke="#6DC28B" stroke-width="0.5"/>
<path d="M34 -57L34 389" stroke="#6DC28B" stroke-width="0.5"/>
<path d="M38 -57L38 389" stroke="#6DC28B" stroke-width="0.5"/>
<path d="M42 -57L42 389" stroke="#6DC28B" stroke-width="0.5"/>
<path d="M46 -57L46 389" stroke="#6DC28B" stroke-width="0.5"/>
<path d="M50 -57L50 389" stroke="#6DC28B" stroke-width="0.5"/>
<path d="M54 -57L54 389" stroke="#6DC28B" stroke-width="0.5"/>
<path d="M58 -57L58 389" stroke="#6DC28B" stroke-width="0.5"/>
<path d="M62 -57L62 389" stroke="#6DC28B" stroke-width="0.5"/>
<path d="M66 -57L66 389" stroke="#6DC28B" stroke-width="0.5"/>
<path d="M70 -57L70 389" stroke="#6DC28B" stroke-width="0.5"/>
<path d="M74 -57L74 389" stroke="#6DC28B" stroke-width="0.5"/>
<path d="M78 -57L78 389" stroke="#6DC28B" stroke-width="0.5"/>
<path d="M82 -57L82 389" stroke="#6DC28B" stroke-width="0.5"/>
<path d="M86 -57L86 389" stroke="#6DC28B" stroke-width="0.5"/>
<path d="M90 -57L90 389" stroke="#6DC28B" stroke-width="0.5"/>
<path d="M94 -57L94 389" stroke="#6DC28B" stroke-width="0.5"/>
<path d="M98 -57L98 389" stroke="#6DC28B" stroke-width="0.5"/>
<path d="M102 -57L102 389" stroke="#6DC28B" stroke-width="0.5"/>
<path d="M106 -57L106 389" stroke="#6DC28B" stroke-width="0.5"/>
<path d="M110 -57L110 389" stroke="#6DC28B" stroke-width="0.5"/>
<path d="M114 -57L114 389" stroke="#6DC28B" stroke-width="0.5"/>
<path d="M118 -57L118 389" stroke="#6DC28B" stroke-width="0.5"/>
<path d="M122 -57L122 389" stroke="#6DC28B" stroke-width="0.5"/>
<path d="M126 -57L126 389" stroke="#6DC28B" stroke-width="0.5"/>
<path d="M130 -57L130 389" stroke="#6DC28B" stroke-width="0.5"/>
<path d="M134 -57L134 389" stroke="#6DC28B" stroke-width="0.5"/>
<path d="M138 -57L138 389" stroke="#6DC28B" stroke-width="0.5"/>
<path d="M142 -57L142 389" stroke="#6DC28B" stroke-width="0.5"/>
<path d="M146 -57L146 389" stroke="#6DC28B" stroke-width="0.5"/>
<path d="M150 -57L150 389" stroke="#6DC28B" stroke-width="0.5"/>
<path d="M154 -57L154 389" stroke="#6DC28B" stroke-width="0.5"/>
<path d="M158 -57L158 389" stroke="#6DC28B" stroke-width="0.5"/>
<path d="M162 -57L162 389" stroke="#6DC28B" stroke-width="0.5"/>
<path d="M166 -57L166 389" stroke="#6DC28B" stroke-width="0.5"/>
<path d="M170 -57L170 389" stroke="#6DC28B" stroke-width="0.5"/>
<path d="M174 -57L174 389" stroke="#6DC28B" stroke-width="0.5"/>
<path d="M178 -57L178 389" stroke="#6DC28B" stroke-width="0.5"/>
<path d="M182 -57L182 389" stroke="#6DC28B" stroke-width="0.5"/>
<path d="M186 -57L186 389" stroke="#6DC28B" stroke-width="0.5"/>
<path d="M190 -57L190 389" stroke="#6DC28B" stroke-width="0.5"/>
<path d="M194 -57L194 389" stroke="#6DC28B" stroke-width="0.5"/>
<path d="M198 -57L198 389" stroke="#6DC28B" stroke-width="0.5"/>
<path d="M202 -57L202 389" stroke="#6DC28B" stroke-width="0.5"/>
<path d="M206 -57L206 389" stroke="#6DC28B" stroke-width="0.5"/>
<path d="M210 -57L210 389" stroke="#6DC28B" stroke-width="0.5"/>
<path d="M214 -57L214 389" stroke="#6DC28B" stroke-width="0.5"/>
<path d="M218 -57L218 389" stroke="#6DC28B" stroke-width="0.5"/>
<path d="M222 -57L222 389" stroke="#6DC28B" stroke-width="0.5"/>
<path d="M226 -57L226 389" stroke="#6DC28B" stroke-width="0.5"/>
<path d="M230 -57L230 389" stroke="#6DC28B" stroke-width="0.5"/>
<path d="M234 -57L234 389" stroke="#6DC28B" stroke-width="0.5"/>
<path d="M238 -57L238 389" stroke="#6DC28B" stroke-width="0.5"/>
<path d="M242 -57L242 389" stroke="#6DC28B" stroke-width="0.5"/>
<path d="M246 -57L246 389" stroke="#6DC28B" stroke-width="0.5"/>
<path d="M250 -57L250 389" stroke="#6DC28B" stroke-width="0.5"/>
<path d="M254 -57L254 389" stroke="#6DC28B" stroke-width="0.5"/>
<path d="M258 -57V389" stroke="#6DC28B" stroke-width="0.5"/>
<path d="M262 -57V389" stroke="#6DC28B" stroke-width="0.5"/>
<path d="M266 -57V389" stroke="#6DC28B" stroke-width="0.5"/>
<path d="M270 -57V389" stroke="#6DC28B" stroke-width="0.5"/>
<path d="M274 -57V389" stroke="#6DC28B" stroke-width="0.5"/>
<path d="M278 -57V389" stroke="#6DC28B" stroke-width="0.5"/>
<path d="M282 -57V389" stroke="#6DC28B" stroke-width="0.5"/>
<path d="M286 -57V389" stroke="#6DC28B" stroke-width="0.5"/>
<path d="M290 -57V389" stroke="#6DC28B" stroke-width="0.5"/>
<path d="M294 -57V389" stroke="#6DC28B" stroke-width="0.5"/>
<path d="M298 -57V389" stroke="#6DC28B" stroke-width="0.5"/>
<path d="M302 -57V389" stroke="#6DC28B" stroke-width="0.5"/>
<path d="M306 -57V389" stroke="#6DC28B" stroke-width="0.5"/>
<path d="M310 -57V389" stroke="#6DC28B" stroke-width="0.5"/>
<path d="M314 -57V389" stroke="#6DC28B" stroke-width="0.5"/>
<path d="M318 -57V389" stroke="#6DC28B" stroke-width="0.5"/>
<path d="M322 -57V389" stroke="#6DC28B" stroke-width="0.5"/>
<path d="M326 -57V389" stroke="#6DC28B" stroke-width="0.5"/>
<path d="M330 -57V389" stroke="#6DC28B" stroke-width="0.5"/>
<path d="M334 -57V389" stroke="#6DC28B" stroke-width="0.5"/>
<path d="M338 -57V389" stroke="#6DC28B" stroke-width="0.5"/>
<path d="M342 -57V389" stroke="#6DC28B" stroke-width="0.5"/>
<path d="M346 -57V389" stroke="#6DC28B" stroke-width="0.5"/>
<path d="M350 -57V389" stroke="#6DC28B" stroke-width="0.5"/>
<path d="M354 -57V389" stroke="#6DC28B" stroke-width="0.5"/>
<path d="M358 -57V389" stroke="#6DC28B" stroke-width="0.5"/>
</g>
<g filter="url(#filter0_d_1418_80646)">
<path d="M47.3788 133.276L71.1691 157.078C73.0446 158.954 75.5889 160.009 78.2419 160.009H295.361C298.429 160.009 301.328 158.6 303.224 156.188L321.286 133.206C323.182 130.793 326.08 129.385 329.148 129.385H375.216C378.074 129.385 380.391 131.702 380.391 134.56C380.391 137.419 378.074 139.736 375.216 139.736H333.599C330.594 139.736 327.749 141.087 325.849 143.416L306.671 166.933C304.772 169.261 301.926 170.613 298.921 170.613H75.256C72.5813 170.613 70.018 169.541 68.139 167.638L44.1226 143.306C42.2436 141.402 39.6803 140.331 37.0056 140.331H-7.67911C-10.4366 140.331 -12.6721 138.095 -12.6721 135.338C-12.6721 132.58 -10.4366 130.345 -7.67911 130.345H40.3059C42.959 130.345 45.5033 131.399 47.3788 133.276Z" fill="#0E1214"/>
</g>
<path d="M-14.6902 135.488H37.5155C40.0518 135.488 42.4933 136.452 44.3458 138.184L71.2151 163.312C73.0676 165.044 75.5092 166.008 78.0455 166.008H296.232C299.197 166.008 302.009 164.692 303.909 162.416L324.222 138.08C326.122 135.804 328.934 134.488 331.899 134.488H380.869" stroke="#3B3D3F" stroke-dasharray="1 2"/>
<g filter="url(#filter1_d_1418_80646)">
<path d="M47.3789 214.722L71.1692 190.92C73.0447 189.044 75.589 187.989 78.242 187.989H295.361C298.429 187.989 301.328 189.398 303.224 191.81L321.286 214.793C323.182 217.205 326.08 218.613 329.148 218.613H375.216C378.074 218.613 380.392 216.296 380.392 213.438C380.392 210.579 378.074 208.262 375.216 208.262H333.599C330.594 208.262 327.749 206.911 325.85 204.582L306.671 181.065C304.772 178.737 301.926 177.385 298.921 177.385H75.138C72.5332 177.385 70.0312 178.402 68.1643 180.218L42.865 204.834C40.9981 206.651 38.4962 207.667 35.8914 207.667H-7.67899C-10.4365 207.667 -12.6719 209.903 -12.6719 212.66C-12.6719 215.418 -10.4365 217.653 -7.67899 217.653H40.306C42.9591 217.653 45.5034 216.599 47.3789 214.722Z" fill="#0E1214"/>
</g>
<path d="M383.869 213.008L331.34 213.008C328.458 213.008 325.715 211.764 323.816 209.595L303.069 185.9C301.17 183.732 298.428 182.488 295.545 182.488H76.7047C74.0577 182.488 71.5188 183.537 69.6443 185.406L44.8861 210.089C43.0116 211.958 40.4727 213.008 37.8258 213.008H-11.6901" stroke="#3B3D3F" stroke-dasharray="1 2"/>
<g filter="url(#filter2_f_1418_80646)">
<path d="M174.625 263.869C175.205 264.334 175.848 264.563 176.491 264.563C177.133 264.555 177.77 264.31 178.345 263.83L196.866 248.518C202.116 244.186 206.228 239.342 209.43 233.702C209.71 233.209 209.985 232.71 210.255 232.206C221.763 210.707 200.323 189.738 175.939 189.954C151.72 190.169 130.68 211.229 142.237 232.513C142.567 233.119 142.904 233.718 143.248 234.309C146.487 239.87 150.635 244.643 155.938 248.896L174.625 263.869Z" fill="#6DC28B" fill-opacity="0.3"/>
</g>
<g filter="url(#filter3_f_1418_80646)">
<path d="M173.758 263.569C174.724 264.074 175.794 264.322 176.864 264.322C177.934 264.314 178.995 264.048 179.952 263.526L210.789 246.88C219.532 242.17 226.378 236.904 231.71 230.773C250.676 208.96 226.139 182.923 197.234 183.091L155.412 183.333C126.487 183.5 102.247 209.856 121.512 231.433C126.906 237.478 133.813 242.667 142.642 247.291L173.758 263.569Z" fill="#0A0D0F"/>
</g>
<path d="M177.044 257.529C176.022 257.529 175.001 257.3 174.079 256.834L144.366 241.827C135.935 237.564 129.34 232.781 124.19 227.207C112.918 215.019 103.449 198.853 103.349 182.622L103 129.202C102.959 123.037 110.235 117.503 116.332 115.419L170.889 96.8597C174.129 95.7308 177.742 95.715 181.04 96.8044L235.805 114.732C241.935 116.729 248.567 122.245 248.6 128.402L248.949 181.862C249.057 198.069 240.514 214.276 229.417 226.599C224.325 232.252 217.788 237.107 209.44 241.448L179.993 256.795C179.079 257.276 178.066 257.521 177.044 257.529Z" fill="#0A0D0F"/>
<path fill-rule="evenodd" clip-rule="evenodd" d="M124.19 227.207C129.34 232.78 135.935 237.564 144.366 241.827L174.079 256.834C175.001 257.3 176.022 257.529 177.044 257.529C178.066 257.521 179.079 257.276 179.993 256.795L209.44 241.448C217.788 237.107 224.325 232.252 229.417 226.599C240.514 214.276 249.057 198.069 248.949 181.862L248.6 128.402C248.567 122.245 241.935 116.729 235.805 114.732L181.04 96.8044C177.742 95.715 174.129 95.7308 170.889 96.8597L116.332 115.419C110.235 117.503 102.959 123.037 103 129.202L103.349 182.622C103.449 198.853 112.918 215.019 124.19 227.207ZM228.674 225.93C239.676 213.714 248.055 197.737 247.949 181.868L247.601 128.409V128.408C247.586 125.691 246.108 123.012 243.786 120.719C241.473 118.434 238.419 116.636 235.495 115.683L180.726 97.754C177.633 96.7323 174.246 96.7489 171.218 97.804L171.211 97.8064L116.655 116.365C116.655 116.365 116.654 116.366 116.654 116.366C113.729 117.366 110.512 119.2 108.048 121.51C105.567 123.836 103.982 126.512 104 129.196L104.349 182.616C104.447 198.487 113.728 214.422 124.924 226.528C129.976 231.996 136.468 236.713 144.817 240.935C144.817 240.935 144.817 240.935 144.817 240.935L174.53 255.942C175.303 256.332 176.168 256.528 177.04 256.529C177.907 256.522 178.761 256.314 179.527 255.91L179.531 255.908L208.978 240.562C217.244 236.262 223.679 231.475 228.674 225.93Z" fill="url(#paint1_linear_1418_80646)"/>
<g filter="url(#filter4_i_1418_80646)">
<path d="M176.623 249.562C175.704 249.562 174.784 249.355 173.954 248.934L147.203 235.359C139.612 231.502 133.674 227.175 129.037 222.133C118.889 211.108 111.279 196.954 111.189 182.273L110.875 133.95C110.838 128.373 116.473 123.367 121.962 121.482L171.082 104.693C173.998 103.672 177.252 103.658 180.221 104.643L229.527 120.86C235.046 122.667 240.742 127.637 240.771 133.207L241.085 181.566C241.183 196.226 233.767 210.437 223.776 221.584C219.192 226.697 213.306 231.088 205.79 235.016L179.278 248.898C178.456 249.333 177.543 249.555 176.623 249.562Z" fill="#060809"/>
</g>
<path fill-rule="evenodd" clip-rule="evenodd" d="M111.189 182.273C111.279 196.954 118.889 211.108 129.037 222.133C133.674 227.175 139.612 231.502 147.203 235.359L173.954 248.934C174.784 249.355 175.704 249.562 176.623 249.562C177.543 249.555 178.456 249.333 179.278 248.898L205.79 235.016C213.306 231.088 219.192 226.697 223.776 221.584C233.767 210.437 241.183 196.226 241.085 181.566L240.771 133.207C240.741 127.637 235.046 122.667 229.527 120.86L180.221 104.643C177.252 103.658 173.998 103.672 171.082 104.693L121.962 121.482C116.473 123.367 110.838 128.373 110.875 133.95L111.189 182.273ZM122.287 122.427L171.405 105.639L171.412 105.637C174.116 104.69 177.142 104.675 179.906 105.592L229.214 121.81L229.216 121.811C231.828 122.666 234.492 124.276 236.493 126.322C238.499 128.373 239.758 130.773 239.771 133.212V133.214L240.086 181.572C240.181 195.898 232.925 209.878 223.031 220.916C218.543 225.921 212.761 230.245 205.327 234.129L178.814 248.012L178.81 248.014C178.136 248.371 177.383 248.555 176.62 248.562C175.85 248.561 175.087 248.388 174.406 248.042L147.656 234.467C147.655 234.467 147.656 234.467 147.656 234.467C140.147 230.653 134.312 226.392 129.773 221.457C119.725 210.539 112.277 196.614 112.189 182.267L111.875 133.943C111.859 131.5 113.089 129.092 115.069 127.023C117.043 124.959 119.686 123.321 122.286 122.428C122.286 122.428 122.287 122.428 122.287 122.427Z" fill="url(#paint2_linear_1418_80646)"/>
<path d="M176.429 244.684C175.579 244.684 174.728 244.492 173.961 244.102L149.23 231.53C142.212 227.959 136.723 223.951 132.436 219.282C123.054 209.07 116.253 195.289 116.171 181.691L115.88 136.938C115.846 131.772 120.917 127.136 125.992 125.39L171.402 109.842C174.099 108.896 177.106 108.883 179.851 109.796L225.434 124.815C230.537 126.488 235.95 131.091 235.978 136.25L236.268 181.037C236.358 194.614 229.258 208.449 220.021 218.772C215.783 223.508 210.342 227.575 203.393 231.212L178.884 244.069C178.123 244.473 177.28 244.678 176.429 244.684Z" fill="#0A0D0F"/>
<path fill-rule="evenodd" clip-rule="evenodd" d="M132.436 219.282C136.723 223.951 142.212 227.959 149.23 231.53L173.961 244.102C174.728 244.492 175.579 244.684 176.429 244.684C177.28 244.678 178.123 244.473 178.884 244.069L203.393 231.212C210.342 227.575 215.783 223.508 220.021 218.772C229.258 208.449 236.358 194.614 236.268 181.037L235.978 136.25C235.95 131.091 230.537 126.488 225.434 124.815L179.851 109.796C177.106 108.883 174.099 108.896 171.402 109.842L125.992 125.39C120.917 127.136 115.846 131.772 115.88 136.938L116.171 181.691C116.253 195.289 123.054 209.07 132.436 219.282ZM176.425 243.684C177.119 243.678 177.802 243.511 178.415 243.186L178.419 243.184L202.929 230.327C209.796 226.732 215.134 222.733 219.276 218.105C228.413 207.894 235.356 194.289 235.269 181.043L234.978 136.255C234.966 134.03 233.786 131.826 231.9 129.931C230.022 128.042 227.53 126.555 225.123 125.765L225.121 125.765L179.535 110.744C176.997 109.9 174.217 109.914 171.733 110.785L171.726 110.788L126.317 126.336C126.317 126.336 126.317 126.336 126.317 126.336C123.927 127.158 121.531 128.667 119.749 130.566C117.963 132.469 116.865 134.684 116.88 136.931L117.17 181.685C117.252 194.97 123.91 208.524 133.172 218.605C137.361 223.168 142.748 227.109 149.683 230.638C149.683 230.638 149.683 230.639 149.683 230.638L174.414 243.211C175.033 243.525 175.725 243.684 176.425 243.684Z" fill="url(#paint3_linear_1418_80646)"/>
<g filter="url(#filter5_i_1418_80646)">
<path d="M176.356 239.76C175.566 239.76 174.775 239.583 174.062 239.222L151.08 227.593C144.559 224.29 139.458 220.583 135.474 216.264C126.755 206.819 121.051 193.883 120.974 181.307L120.704 139.912C120.672 135.134 124.808 130.846 129.524 129.231L171.723 114.85C174.229 113.975 177.024 113.963 179.574 114.807L221.934 128.699C226.676 130.247 230.863 134.504 230.889 139.276L231.159 180.701C231.242 193.26 225.449 206.244 216.865 215.793C212.927 220.173 207.87 223.935 201.413 227.3L178.637 239.191C177.93 239.564 177.146 239.754 176.356 239.76Z" fill="#060809"/>
</g>
<path fill-rule="evenodd" clip-rule="evenodd" d="M120.974 181.307C121.051 193.883 126.755 206.819 135.474 216.264C139.458 220.583 144.559 224.29 151.08 227.593L174.062 239.222C174.775 239.583 175.566 239.76 176.356 239.76C177.146 239.754 177.93 239.564 178.637 239.191L201.413 227.3C207.87 223.935 212.927 220.173 216.865 215.793C225.449 206.244 231.242 193.26 231.159 180.701L230.889 139.276C230.863 134.504 226.676 130.247 221.934 128.699L179.574 114.807C177.024 113.963 174.229 113.975 171.723 114.85L129.524 129.231C124.808 130.846 120.672 135.134 120.704 139.912L120.974 181.307ZM129.848 130.177L172.046 115.796L172.053 115.794C174.346 114.993 176.915 114.98 179.26 115.756L221.622 129.649L221.624 129.65C226.113 131.115 229.866 135.086 229.889 139.281L230.159 180.708C230.24 192.972 224.571 205.724 216.121 215.124C212.28 219.397 207.326 223.091 200.951 226.413L178.174 238.305L178.17 238.307C177.611 238.602 176.987 238.755 176.352 238.76C175.711 238.76 175.078 238.615 174.514 238.33L151.532 226.701C151.532 226.701 151.532 226.701 151.532 226.701C145.093 223.439 140.095 219.799 136.209 215.586C127.636 206.299 122.049 193.596 121.974 181.3L121.704 139.905C121.676 135.705 125.38 131.708 129.848 130.177C129.849 130.177 129.848 130.177 129.848 130.177Z" fill="url(#paint4_linear_1418_80646)"/>
<path d="M176.37 234.853C175.637 234.853 174.905 234.69 174.244 234.357L152.944 223.638C146.899 220.593 142.171 217.176 138.479 213.195C130.398 204.489 125.976 192.529 125.904 180.936L125.654 142.779C125.624 138.376 128.548 134.423 132.919 132.934L172.031 119.678C174.353 118.872 176.943 118.86 179.307 119.638L218.568 132.444C222.962 133.87 225.934 137.795 225.958 142.193L226.208 180.378C226.285 191.954 221.871 203.959 213.915 212.761C210.265 216.798 205.578 220.266 199.594 223.367L178.484 234.329C177.829 234.673 177.102 234.848 176.37 234.853Z" fill="#0A0D0F"/>
<path fill-rule="evenodd" clip-rule="evenodd" d="M174.694 233.464C175.206 233.722 175.782 233.853 176.366 233.853C176.944 233.848 177.511 233.71 178.019 233.443L178.023 233.441L199.133 222.48C205.036 219.421 209.62 216.02 213.173 212.09C220.957 203.478 225.284 191.716 225.208 180.384L224.958 142.198C224.936 138.26 222.271 134.697 218.259 133.395L218.258 133.394L178.995 120.588C176.835 119.877 174.47 119.89 172.359 120.623L172.352 120.625L133.242 133.881C133.241 133.881 133.242 133.881 133.242 133.881C129.25 135.241 126.628 138.829 126.654 142.773L126.904 180.929C126.974 192.287 131.311 204.003 139.212 212.515C142.806 216.39 147.431 219.741 153.393 222.745L174.694 233.464ZM132.919 132.934L172.031 119.678C174.353 118.872 176.943 118.86 179.307 119.638L218.568 132.444C222.962 133.87 225.934 137.795 225.958 142.193L226.208 180.378C226.285 191.954 221.871 203.959 213.915 212.761C210.265 216.798 205.578 220.266 199.594 223.367L178.484 234.329C177.829 234.673 177.102 234.848 176.37 234.853C175.637 234.853 174.905 234.69 174.244 234.357L152.944 223.638C146.899 220.593 142.171 217.176 138.479 213.195C130.398 204.489 125.976 192.529 125.904 180.936L125.654 142.779C125.624 138.376 128.548 134.423 132.919 132.934Z" fill="url(#paint5_linear_1418_80646)"/>
<g clip-path="url(#clip1_1418_80646)">
<path d="M184.099 181.062H183.342V182.351H182.053V183.108H183.342V184.397H184.099V183.108H185.388V182.351H184.099V181.062Z" fill="#6DC28B"/>
<path fill-rule="evenodd" clip-rule="evenodd" d="M176.31 151.325C162.651 151.325 151.578 162.398 151.578 176.057C151.578 189.716 162.651 200.788 176.31 200.788C189.968 200.788 201.041 189.716 201.041 176.057C201.041 162.398 189.968 151.325 176.31 151.325ZM181.96 178.428C180.49 179.033 179.399 180.369 179.138 181.983L175.384 181.558C175.373 181.556 175.365 181.547 175.364 181.536V163.581C175.365 163.573 175.37 163.565 175.377 163.561C175.389 163.556 175.402 163.561 175.407 163.572L181.96 178.428ZM168.818 182.482C168.817 182.478 168.817 182.474 168.819 182.47L174.385 169.854C174.39 169.842 174.403 169.838 174.414 169.843C174.422 169.847 174.427 169.855 174.427 169.863L174.426 181.511C174.427 181.522 174.419 181.531 174.408 181.533L168.843 182.501C168.831 182.503 168.819 182.495 168.818 182.482ZM174.435 186.176C174.43 186.178 174.424 186.178 174.419 186.176L168.846 183.368C168.835 183.363 168.83 183.35 168.835 183.338C168.839 183.33 168.847 183.325 168.856 183.325H179.117C179.176 183.787 179.303 184.228 179.488 184.637L174.435 186.176ZM183.726 186.679C181.544 186.679 179.775 184.91 179.775 182.728C179.775 180.546 181.544 178.777 183.726 178.777C185.908 178.777 187.676 180.546 187.676 182.728C187.676 184.91 185.908 186.679 183.726 186.679ZM173.556 161.248L176.281 156.706L179.006 161.248H173.556ZM173.556 191.664L176.281 196.206L179.006 191.664H173.556ZM196.009 176.284L191.467 173.559V179.01L196.009 176.284ZM161.152 173.559L156.61 176.284L161.152 179.01V173.559Z" fill="#6DC28B"/>
</g>
<rect x="-9.48096" y="172.438" width="53" height="43" fill="url(#paint6_linear_1418_80646)"/>
<rect width="57" height="43.46" transform="matrix(-1 0 0 1 386.519 95.9775)" fill="url(#paint7_linear_1418_80646)"/>
<rect width="113" height="400" transform="matrix(-1 0 0 1 403 -11)" fill="url(#paint8_linear_1418_80646)"/>
<rect x="-66" y="-11" width="113" height="400" fill="url(#paint9_linear_1418_80646)"/>
</g>
<defs>
<filter id="filter0_d_1418_80646" x="-16.6721" y="126.385" width="401.064" height="49.2279" filterUnits="userSpaceOnUse" color-interpolation-filters="sRGB">
<feFlood flood-opacity="0" result="BackgroundImageFix"/>
<feColorMatrix in="SourceAlpha" type="matrix" values="0 0 0 0 0 0 0 0 0 0 0 0 0 0 0 0 0 0 127 0" result="hardAlpha"/>
<feOffset dy="1"/>
<feGaussianBlur stdDeviation="2"/>
<feComposite in2="hardAlpha" operator="out"/>
<feColorMatrix type="matrix" values="0 0 0 0 0 0 0 0 0 0 0 0 0 0 0 0 0 0 1 0"/>
<feBlend mode="normal" in2="BackgroundImageFix" result="effect1_dropShadow_1418_80646"/>
<feBlend mode="normal" in="SourceGraphic" in2="effect1_dropShadow_1418_80646" result="shape"/>
</filter>
<filter id="filter1_d_1418_80646" x="-16.6719" y="174.385" width="401.064" height="49.2279" filterUnits="userSpaceOnUse" color-interpolation-filters="sRGB">
<feFlood flood-opacity="0" result="BackgroundImageFix"/>
<feColorMatrix in="SourceAlpha" type="matrix" values="0 0 0 0 0 0 0 0 0 0 0 0 0 0 0 0 0 0 127 0" result="hardAlpha"/>
<feOffset dy="1"/>
<feGaussianBlur stdDeviation="2"/>
<feComposite in2="hardAlpha" operator="out"/>
<feColorMatrix type="matrix" values="0 0 0 0 0 0 0 0 0 0 0 0 0 0 0 0 0 0 1 0"/>
<feBlend mode="normal" in2="BackgroundImageFix" result="effect1_dropShadow_1418_80646"/>
<feBlend mode="normal" in="SourceGraphic" in2="effect1_dropShadow_1418_80646" result="shape"/>
</filter>
<filter id="filter2_f_1418_80646" x="58.9765" y="109.953" width="234.476" height="234.61" filterUnits="userSpaceOnUse" color-interpolation-filters="sRGB">
<feFlood flood-opacity="0" result="BackgroundImageFix"/>
<feBlend mode="normal" in="SourceGraphic" in2="BackgroundImageFix" result="shape"/>
<feGaussianBlur stdDeviation="40" result="effect1_foregroundBlur_1418_80646"/>
</filter>
<filter id="filter3_f_1418_80646" x="108.614" y="177.09" width="135.778" height="93.2324" filterUnits="userSpaceOnUse" color-interpolation-filters="sRGB">
<feFlood flood-opacity="0" result="BackgroundImageFix"/>
<feBlend mode="normal" in="SourceGraphic" in2="BackgroundImageFix" result="shape"/>
<feGaussianBlur stdDeviation="3" result="effect1_foregroundBlur_1418_80646"/>
</filter>
<filter id="filter4_i_1418_80646" x="110.875" y="103.916" width="130.212" height="146.646" filterUnits="userSpaceOnUse" color-interpolation-filters="sRGB">
<feFlood flood-opacity="0" result="BackgroundImageFix"/>
<feBlend mode="normal" in="SourceGraphic" in2="BackgroundImageFix" result="shape"/>
<feColorMatrix in="SourceAlpha" type="matrix" values="0 0 0 0 0 0 0 0 0 0 0 0 0 0 0 0 0 0 127 0" result="hardAlpha"/>
<feOffset dy="1"/>
<feGaussianBlur stdDeviation="1"/>
<feComposite in2="hardAlpha" operator="arithmetic" k2="-1" k3="1"/>
<feColorMatrix type="matrix" values="0 0 0 0 0 0 0 0 0 0 0 0 0 0 0 0 0 0 1 0"/>
<feBlend mode="normal" in2="shape" result="effect1_innerShadow_1418_80646"/>
</filter>
<filter id="filter5_i_1418_80646" x="120.704" y="114.184" width="110.456" height="126.576" filterUnits="userSpaceOnUse" color-interpolation-filters="sRGB">
<feFlood flood-opacity="0" result="BackgroundImageFix"/>
<feBlend mode="normal" in="SourceGraphic" in2="BackgroundImageFix" result="shape"/>
<feColorMatrix in="SourceAlpha" type="matrix" values="0 0 0 0 0 0 0 0 0 0 0 0 0 0 0 0 0 0 127 0" result="hardAlpha"/>
<feOffset dy="1"/>
<feGaussianBlur stdDeviation="1"/>
<feComposite in2="hardAlpha" operator="arithmetic" k2="-1" k3="1"/>
<feColorMatrix type="matrix" values="0 0 0 0 0 0 0 0 0 0 0 0 0 0 0 0 0 0 1 0"/>
<feBlend mode="normal" in2="shape" result="effect1_innerShadow_1418_80646"/>
</filter>
<radialGradient id="paint0_radial_1418_80646" cx="0" cy="0" r="1" gradientUnits="userSpaceOnUse" gradientTransform="translate(184.322 25.458) rotate(90) scale(124.542 215.498)">
<stop stop-color="white"/>
<stop offset="1" stop-color="#F5F6F7" stop-opacity="0.1"/>
</radialGradient>
<linearGradient id="paint1_linear_1418_80646" x1="175.975" y1="176.71" x2="175.975" y2="257.529" gradientUnits="userSpaceOnUse">
<stop stop-color="#3B3D3F" stop-opacity="0.5"/>
<stop offset="1" stop-color="#3B3D3F" stop-opacity="0.89"/>
</linearGradient>
<linearGradient id="paint2_linear_1418_80646" x1="175.961" y1="103.226" x2="176.026" y2="249.562" gradientUnits="userSpaceOnUse">
<stop stop-color="#1E1E1F" stop-opacity="0"/>
<stop offset="1" stop-color="#1E1E1F" stop-opacity="0.8"/>
</linearGradient>
<linearGradient id="paint3_linear_1418_80646" x1="176.075" y1="109.122" x2="176.075" y2="244.684" gradientUnits="userSpaceOnUse">
<stop stop-color="#3B3D3F" stop-opacity="0.5"/>
<stop offset="1" stop-color="#3B3D3F" stop-opacity="0.8"/>
</linearGradient>
<linearGradient id="paint4_linear_1418_80646" x1="175.915" y1="113.589" x2="175.972" y2="239.76" gradientUnits="userSpaceOnUse">
<stop stop-color="#1E1E1F" stop-opacity="0"/>
<stop offset="1" stop-color="#1E1E1F" stop-opacity="0.8"/>
</linearGradient>
<linearGradient id="paint5_linear_1418_80646" x1="175.931" y1="119.064" x2="175.931" y2="234.853" gradientUnits="userSpaceOnUse">
<stop stop-color="#3B3D3F" stop-opacity="0.2"/>
<stop offset="1" stop-color="#3B3D3F" stop-opacity="0.4"/>
</linearGradient>
<linearGradient id="paint6_linear_1418_80646" x1="43.519" y1="194.249" x2="-5.55503" y2="194.249" gradientUnits="userSpaceOnUse">
<stop stop-color="#13181C" stop-opacity="0"/>
<stop offset="1" stop-color="#13181C"/>
</linearGradient>
<linearGradient id="paint7_linear_1418_80646" x1="57" y1="22.0449" x2="4.22222" y2="22.0449" gradientUnits="userSpaceOnUse">
<stop stop-color="#13181C" stop-opacity="0"/>
<stop offset="1" stop-color="#13181C"/>
</linearGradient>
<linearGradient id="paint8_linear_1418_80646" x1="116" y1="202.899" x2="8.37073" y2="203.097" gradientUnits="userSpaceOnUse">
<stop stop-color="#0F1416" stop-opacity="0"/>
<stop offset="0.597286" stop-color="#0F1416"/>
</linearGradient>
<linearGradient id="paint9_linear_1418_80646" x1="50" y1="191.899" x2="-57.6293" y2="192.097" gradientUnits="userSpaceOnUse">
<stop stop-color="#161C20" stop-opacity="0"/>
<stop offset="0.597286" stop-color="#161C20"/>
</linearGradient>
<clipPath id="clip0_1418_80646">
<rect width="360" height="385" fill="white"/>
</clipPath>
<clipPath id="clip1_1418_80646">
<rect width="51" height="51" fill="white" transform="translate(150.781 150.781)"/>
</clipPath>
</defs>
</svg>
