<svg width="388" height="304" viewBox="0 0 388 304" fill="none" xmlns="http://www.w3.org/2000/svg">
<mask id="mask0_1418_67758" style="mask-type:alpha" maskUnits="userSpaceOnUse" x="-2" y="-37" width="394" height="157">
<path d="M58.508 92.2747L82.2983 116.077C84.1738 117.953 86.7181 119.008 89.3711 119.008H306.49C309.559 119.008 312.457 117.599 314.353 115.187L332.415 92.2046C334.311 89.7923 337.209 88.3838 340.278 88.3838H381.521C387.044 88.3838 391.521 83.9066 391.521 78.3838V-26.1928C391.521 -31.7156 387.044 -36.1928 381.521 -36.1928L343.829 -36.1933H311.35H117.016H61.5114H8.45715C2.9343 -36.1933 -1.54285 -31.7162 -1.54285 -26.1933V79.344C-1.54285 84.8669 2.9343 89.344 8.45715 89.344H51.4352C54.0882 89.344 56.6325 90.3983 58.508 92.2747Z" fill="url(#paint0_radial_1418_67758)"/>
</mask>
<g mask="url(#mask0_1418_67758)">
<path d="M0.309204 -79.3652L0.309204 239.364" stroke="#6DC28B" stroke-width="0.5"/>
<path d="M4.3092 -79.3652L4.3092 239.364" stroke="#6DC28B" stroke-width="0.5"/>
<path d="M8.3092 -79.3652L8.3092 239.364" stroke="#6DC28B" stroke-width="0.5"/>
<path d="M12.3092 -79.3652L12.3092 239.364" stroke="#6DC28B" stroke-width="0.5"/>
<path d="M16.3092 -79.3652L16.3092 239.364" stroke="#6DC28B" stroke-width="0.5"/>
<path d="M20.3092 -79.3652L20.3092 239.364" stroke="#6DC28B" stroke-width="0.5"/>
<path d="M24.3092 -79.3652L24.3092 239.364" stroke="#6DC28B" stroke-width="0.5"/>
<path d="M28.3092 -79.3652L28.3092 239.364" stroke="#6DC28B" stroke-width="0.5"/>
<path d="M32.3092 -79.3652L32.3092 239.364" stroke="#6DC28B" stroke-width="0.5"/>
<path d="M36.3092 -79.3652L36.3092 239.364" stroke="#6DC28B" stroke-width="0.5"/>
<path d="M40.3092 -79.3652L40.3092 239.364" stroke="#6DC28B" stroke-width="0.5"/>
<path d="M44.3092 -79.3652L44.3092 239.364" stroke="#6DC28B" stroke-width="0.5"/>
<path d="M48.3092 -79.3652L48.3092 239.364" stroke="#6DC28B" stroke-width="0.5"/>
<path d="M52.3092 -79.3652L52.3092 239.364" stroke="#6DC28B" stroke-width="0.5"/>
<path d="M56.3092 -79.3652L56.3092 239.364" stroke="#6DC28B" stroke-width="0.5"/>
<path d="M60.3092 -79.3652L60.3092 239.364" stroke="#6DC28B" stroke-width="0.5"/>
<path d="M64.3092 -79.3652L64.3092 239.364" stroke="#6DC28B" stroke-width="0.5"/>
<path d="M68.3092 -79.3652L68.3092 239.364" stroke="#6DC28B" stroke-width="0.5"/>
<path d="M72.3092 -79.3652L72.3092 239.364" stroke="#6DC28B" stroke-width="0.5"/>
<path d="M76.3092 -79.3652L76.3092 239.364" stroke="#6DC28B" stroke-width="0.5"/>
<path d="M80.3092 -79.3652L80.3092 239.364" stroke="#6DC28B" stroke-width="0.5"/>
<path d="M84.3092 -79.3652L84.3092 239.364" stroke="#6DC28B" stroke-width="0.5"/>
<path d="M88.3092 -79.3652L88.3092 239.364" stroke="#6DC28B" stroke-width="0.5"/>
<path d="M92.3092 -79.3652L92.3092 239.364" stroke="#6DC28B" stroke-width="0.5"/>
<path d="M96.3092 -79.3652L96.3092 239.364" stroke="#6DC28B" stroke-width="0.5"/>
<path d="M100.309 -79.3652L100.309 239.364" stroke="#6DC28B" stroke-width="0.5"/>
<path d="M104.309 -79.3652L104.309 239.364" stroke="#6DC28B" stroke-width="0.5"/>
<path d="M108.309 -79.3652L108.309 239.364" stroke="#6DC28B" stroke-width="0.5"/>
<path d="M112.309 -79.3652L112.309 239.364" stroke="#6DC28B" stroke-width="0.5"/>
<path d="M116.309 -79.3652L116.309 239.364" stroke="#6DC28B" stroke-width="0.5"/>
<path d="M120.309 -79.3652L120.309 239.364" stroke="#6DC28B" stroke-width="0.5"/>
<path d="M124.309 -79.3652L124.309 239.364" stroke="#6DC28B" stroke-width="0.5"/>
<path d="M128.309 -79.3652L128.309 239.364" stroke="#6DC28B" stroke-width="0.5"/>
<path d="M132.309 -79.3652L132.309 239.364" stroke="#6DC28B" stroke-width="0.5"/>
<path d="M136.309 -79.3652L136.309 239.364" stroke="#6DC28B" stroke-width="0.5"/>
<path d="M140.309 -79.3652L140.309 239.364" stroke="#6DC28B" stroke-width="0.5"/>
<path d="M144.309 -79.3652L144.309 239.364" stroke="#6DC28B" stroke-width="0.5"/>
<path d="M148.309 -79.3652L148.309 239.364" stroke="#6DC28B" stroke-width="0.5"/>
<path d="M152.309 -79.3652L152.309 239.364" stroke="#6DC28B" stroke-width="0.5"/>
<path d="M156.309 -79.3652L156.309 239.364" stroke="#6DC28B" stroke-width="0.5"/>
<path d="M160.309 -79.3652L160.309 239.364" stroke="#6DC28B" stroke-width="0.5"/>
<path d="M164.309 -79.3652L164.309 239.364" stroke="#6DC28B" stroke-width="0.5"/>
<path d="M168.309 -79.3652L168.309 239.364" stroke="#6DC28B" stroke-width="0.5"/>
<path d="M172.309 -79.3652L172.309 239.364" stroke="#6DC28B" stroke-width="0.5"/>
<path d="M176.309 -79.3652L176.309 239.364" stroke="#6DC28B" stroke-width="0.5"/>
<path d="M180.309 -79.3652L180.309 239.364" stroke="#6DC28B" stroke-width="0.5"/>
<path d="M184.309 -79.3652L184.309 239.364" stroke="#6DC28B" stroke-width="0.5"/>
<path d="M188.309 -79.3652L188.309 239.364" stroke="#6DC28B" stroke-width="0.5"/>
<path d="M192.309 -79.3652L192.309 239.364" stroke="#6DC28B" stroke-width="0.5"/>
<path d="M196.309 -79.3652L196.309 239.364" stroke="#6DC28B" stroke-width="0.5"/>
<path d="M200.309 -79.3652L200.309 239.364" stroke="#6DC28B" stroke-width="0.5"/>
<path d="M204.309 -79.3652L204.309 239.364" stroke="#6DC28B" stroke-width="0.5"/>
<path d="M208.309 -79.3652L208.309 239.364" stroke="#6DC28B" stroke-width="0.5"/>
<path d="M212.309 -79.3652L212.309 239.364" stroke="#6DC28B" stroke-width="0.5"/>
<path d="M216.309 -79.3652L216.309 239.364" stroke="#6DC28B" stroke-width="0.5"/>
<path d="M220.309 -79.3652L220.309 239.364" stroke="#6DC28B" stroke-width="0.5"/>
<path d="M224.309 -79.3652L224.309 239.364" stroke="#6DC28B" stroke-width="0.5"/>
<path d="M228.309 -79.3652L228.309 239.364" stroke="#6DC28B" stroke-width="0.5"/>
<path d="M232.309 -79.3652L232.309 239.364" stroke="#6DC28B" stroke-width="0.5"/>
<path d="M236.309 -79.3652L236.309 239.364" stroke="#6DC28B" stroke-width="0.5"/>
<path d="M240.309 -79.3652L240.309 239.364" stroke="#6DC28B" stroke-width="0.5"/>
<path d="M244.309 -79.3652L244.309 239.364" stroke="#6DC28B" stroke-width="0.5"/>
<path d="M248.309 -79.3652L248.309 239.364" stroke="#6DC28B" stroke-width="0.5"/>
<path d="M252.309 -79.3652L252.309 239.364" stroke="#6DC28B" stroke-width="0.5"/>
<path d="M256.309 -79.3652V239.364" stroke="#6DC28B" stroke-width="0.5"/>
<path d="M260.309 -79.3652V239.364" stroke="#6DC28B" stroke-width="0.5"/>
<path d="M264.309 -79.3652V239.364" stroke="#6DC28B" stroke-width="0.5"/>
<path d="M268.309 -79.3652V239.364" stroke="#6DC28B" stroke-width="0.5"/>
<path d="M272.309 -79.3652V239.364" stroke="#6DC28B" stroke-width="0.5"/>
<path d="M276.309 -79.3652V239.364" stroke="#6DC28B" stroke-width="0.5"/>
<path d="M280.309 -79.3652V239.364" stroke="#6DC28B" stroke-width="0.5"/>
<path d="M284.309 -79.3652V239.364" stroke="#6DC28B" stroke-width="0.5"/>
<path d="M288.309 -79.3652V239.364" stroke="#6DC28B" stroke-width="0.5"/>
<path d="M292.309 -79.3652V239.364" stroke="#6DC28B" stroke-width="0.5"/>
<path d="M296.309 -79.3652V239.364" stroke="#6DC28B" stroke-width="0.5"/>
<path d="M300.309 -79.3652V239.364" stroke="#6DC28B" stroke-width="0.5"/>
<path d="M304.309 -79.3652V239.364" stroke="#6DC28B" stroke-width="0.5"/>
<path d="M308.309 -79.3652V239.364" stroke="#6DC28B" stroke-width="0.5"/>
<path d="M312.309 -79.3652V239.364" stroke="#6DC28B" stroke-width="0.5"/>
<path d="M316.309 -79.3652V239.364" stroke="#6DC28B" stroke-width="0.5"/>
<path d="M320.309 -79.3652V239.364" stroke="#6DC28B" stroke-width="0.5"/>
<path d="M324.309 -79.3652V239.364" stroke="#6DC28B" stroke-width="0.5"/>
<path d="M328.309 -79.3652V239.364" stroke="#6DC28B" stroke-width="0.5"/>
<path d="M332.309 -79.3652V239.364" stroke="#6DC28B" stroke-width="0.5"/>
<path d="M336.309 -79.3652V239.364" stroke="#6DC28B" stroke-width="0.5"/>
<path d="M340.309 -79.3652V239.364" stroke="#6DC28B" stroke-width="0.5"/>
<path d="M344.309 -79.3652V239.364" stroke="#6DC28B" stroke-width="0.5"/>
<path d="M348.309 -79.3652V239.364" stroke="#6DC28B" stroke-width="0.5"/>
<path d="M352.309 -79.3652V239.364" stroke="#6DC28B" stroke-width="0.5"/>
<path d="M356.309 -79.3652V239.364" stroke="#6DC28B" stroke-width="0.5"/>
<path d="M360.309 -79.3652V239.364" stroke="#6DC28B" stroke-width="0.5"/>
<path d="M364.309 -79.3652V239.364" stroke="#6DC28B" stroke-width="0.5"/>
<path d="M368.309 -79.3652V239.364" stroke="#6DC28B" stroke-width="0.5"/>
<path d="M372.309 -79.3652V239.364" stroke="#6DC28B" stroke-width="0.5"/>
<path d="M376.309 -79.3652V239.364" stroke="#6DC28B" stroke-width="0.5"/>
<path d="M380.309 -79.3652V239.364" stroke="#6DC28B" stroke-width="0.5"/>
<path d="M384.309 -79.3652V239.364" stroke="#6DC28B" stroke-width="0.5"/>
</g>
<g filter="url(#filter0_d_1418_67758)">
<path d="M58.0454 92.2758L81.8357 116.078C83.7112 117.954 86.2555 119.009 88.9085 119.009H306.028C309.096 119.009 311.994 117.6 313.89 115.188L331.953 92.2056C333.848 89.7933 336.747 88.3848 339.815 88.3848H385.883C388.741 88.3848 391.058 90.702 391.058 93.5603C391.058 96.4186 388.741 98.7358 385.883 98.7358H344.266C341.261 98.7358 338.415 100.087 336.516 102.416L317.338 125.933C315.439 128.261 312.593 129.613 309.588 129.613H85.9226C83.2479 129.613 80.6846 128.541 78.8056 126.638L54.7892 102.306C52.9102 100.402 50.3469 99.331 47.6722 99.331H2.98752C0.22998 99.331 -2.00543 97.0955 -2.00543 94.338C-2.00543 91.5805 0.22998 89.3451 2.98752 89.3451H50.9725C53.6256 89.3451 56.1699 90.3993 58.0454 92.2758Z" fill="#0E1214"/>
</g>
<path d="M-4.02356 94.4883H48.1821C50.7184 94.4883 53.16 95.4521 55.0124 97.1845L81.8818 122.312C83.7342 124.044 86.1758 125.008 88.7121 125.008H306.898C309.863 125.008 312.675 123.692 314.575 121.416L334.888 97.0803C336.788 94.8041 339.6 93.4883 342.565 93.4883H391.536" stroke="#3B3D3F" stroke-dasharray="1 2"/>
<g filter="url(#filter1_d_1418_67758)">
<path d="M58.0455 173.722L81.8358 149.92C83.7113 148.044 86.2556 146.989 88.9087 146.989H306.028C309.096 146.989 311.994 148.398 313.89 150.81L331.953 173.793C333.849 176.205 336.747 177.613 339.815 177.613H385.883C388.741 177.613 391.058 175.296 391.058 172.438C391.058 169.58 388.741 167.262 385.883 167.262H344.266C341.261 167.262 338.415 165.911 336.516 163.582L317.338 140.065C315.439 137.737 312.593 136.385 309.588 136.385H85.8046C83.1998 136.385 80.6978 137.402 78.831 139.218L53.5316 163.834C51.6648 165.651 49.1628 166.667 46.558 166.667H2.98764C0.230103 166.667 -2.00531 168.903 -2.00531 171.66C-2.00531 174.418 0.230103 176.653 2.98764 176.653H50.9727C53.6257 176.653 56.17 175.599 58.0455 173.722Z" fill="#0E1214"/>
</g>
<path d="M395.536 172.008L343.007 172.008C340.124 172.008 337.382 170.764 335.483 168.595L314.735 144.9C312.836 142.732 310.094 141.488 307.212 141.488H88.3713C85.7244 141.488 83.1854 142.537 81.3109 144.406L56.5527 169.089C54.6782 170.958 52.1393 172.008 49.4924 172.008H-0.0234375" stroke="#3B3D3F" stroke-dasharray="1 2"/>
<g filter="url(#filter2_f_1418_67758)">
<path d="M194.625 222.342C195.205 222.807 195.848 223.035 196.491 223.035C197.133 223.027 197.77 222.783 198.345 222.303L216.866 206.991C222.116 202.659 226.228 197.815 229.43 192.175C229.71 191.682 229.985 191.183 230.255 190.679C241.763 169.18 220.323 148.211 195.939 148.427C171.72 148.642 150.68 169.702 162.237 190.985C162.567 191.592 162.904 192.191 163.248 192.782C166.487 198.342 170.635 203.116 175.938 207.369L194.625 222.342Z" fill="#6DC28B" fill-opacity="0.3"/>
</g>
<g filter="url(#filter3_f_1418_67758)">
<path d="M193.758 222.041C194.724 222.547 195.794 222.795 196.864 222.795C197.934 222.786 198.995 222.521 199.952 221.999L230.789 205.353C239.532 200.643 246.378 195.377 251.71 189.246C270.676 167.433 246.139 141.396 217.234 141.563L175.412 141.805C146.487 141.973 122.247 168.329 141.512 189.905C146.906 195.951 153.813 201.14 162.642 205.764L193.758 222.041Z" fill="#0A0D0F"/>
</g>
<path d="M197.044 216.002C196.022 216.002 195.001 215.773 194.079 215.307L164.366 200.3C155.935 196.037 149.34 191.253 144.19 185.68C132.918 173.491 123.449 157.326 123.349 141.095L123 87.675C122.959 81.5096 130.235 75.9757 136.332 73.8917L190.889 55.3324C194.129 54.2035 197.742 54.1877 201.04 55.2771L255.805 73.2049C261.935 75.2021 268.567 80.7175 268.6 86.8749L268.949 140.335C269.057 156.541 260.514 172.749 249.417 185.072C244.325 190.724 237.788 195.579 229.44 199.921L199.993 215.267C199.079 215.749 198.066 215.994 197.044 216.002Z" fill="#0A0D0F"/>
<path fill-rule="evenodd" clip-rule="evenodd" d="M144.19 185.68C149.34 191.253 155.935 196.037 164.366 200.3L194.079 215.307C195.001 215.773 196.022 216.002 197.044 216.002C198.066 215.994 199.079 215.749 199.993 215.267L229.44 199.921C237.788 195.579 244.325 190.724 249.417 185.072C260.514 172.749 269.057 156.541 268.949 140.335L268.6 86.8749C268.567 80.7175 261.935 75.2021 255.805 73.2049L201.04 55.2771C197.742 54.1877 194.129 54.2035 190.889 55.3324L136.332 73.8917C130.235 75.9757 122.959 81.5096 123 87.675L123.349 141.095C123.449 157.326 132.918 173.491 144.19 185.68ZM248.674 184.403C259.676 172.186 268.055 156.209 267.949 140.341L267.601 86.8815V86.8803C267.586 84.1639 266.108 81.4842 263.786 79.1913C261.473 76.907 258.419 75.1082 255.495 74.1557L200.726 56.2266C197.633 55.2049 194.246 55.2216 191.218 56.2767L191.211 56.2791L136.655 74.8379C136.655 74.8381 136.654 74.8382 136.654 74.8384C133.729 75.8383 130.512 77.6724 128.048 79.9824C125.567 82.3083 123.982 84.9847 124 87.6682L124.349 141.089C124.447 156.96 133.728 172.895 144.924 185.001C149.976 190.468 156.468 195.186 164.817 199.407C164.817 199.407 164.817 199.407 164.817 199.407L194.53 214.414C195.303 214.805 196.168 215.001 197.04 215.002C197.907 214.994 198.761 214.786 199.527 214.383L199.531 214.381L228.978 199.034C237.244 194.735 243.679 189.948 248.674 184.403Z" fill="url(#paint1_linear_1418_67758)"/>
<g filter="url(#filter4_i_1418_67758)">
<path d="M196.623 208.035C195.704 208.035 194.784 207.827 193.954 207.406L167.203 193.831C159.612 189.975 153.674 185.648 149.037 180.606C138.889 169.58 131.279 155.427 131.189 140.745L130.875 92.4223C130.838 86.8452 136.473 81.8394 141.962 79.9542L191.082 63.1658C193.998 62.1446 197.252 62.1303 200.221 63.1158L249.527 79.3329C255.046 81.1396 260.742 86.1097 260.771 91.6797L261.085 140.038C261.183 154.699 253.767 168.909 243.776 180.056C239.192 185.169 233.306 189.561 225.79 193.488L199.278 207.37C198.456 207.806 197.543 208.027 196.623 208.035Z" fill="#060809"/>
</g>
<path fill-rule="evenodd" clip-rule="evenodd" d="M131.189 140.745C131.279 155.427 138.889 169.58 149.037 180.606C153.674 185.648 159.612 189.975 167.203 193.831L193.954 207.406C194.784 207.827 195.704 208.035 196.623 208.035C197.543 208.027 198.456 207.806 199.278 207.37L225.79 193.488C233.306 189.561 239.192 185.169 243.776 180.056C253.767 168.909 261.183 154.699 261.085 140.038L260.771 91.6797C260.741 86.1097 255.046 81.1396 249.527 79.3329L200.221 63.1158C197.252 62.1303 193.998 62.1446 191.082 63.1658L141.962 79.9542C136.473 81.8394 130.838 86.8452 130.875 92.4223L131.189 140.745ZM142.287 80.9L191.405 64.1121L191.412 64.1096C194.116 63.1629 197.142 63.1478 199.906 64.0649L249.214 80.2829L249.216 80.2833C251.828 81.1385 254.492 82.749 256.493 84.7943C258.499 86.8453 259.758 89.2452 259.771 91.685V91.6862L260.086 140.045C260.181 154.371 252.925 168.351 243.031 179.389C238.543 184.394 232.761 188.717 225.327 192.602L198.814 206.484L198.81 206.487C198.136 206.844 197.383 207.028 196.62 207.035C195.85 207.034 195.087 206.86 194.406 206.514L167.656 192.94C167.655 192.94 167.656 192.94 167.656 192.94C160.147 189.125 154.312 184.865 149.773 179.929C139.725 169.012 132.277 155.087 132.189 140.739L131.875 92.4158C131.859 89.9728 133.089 87.5642 135.069 85.4952C137.043 83.4319 139.686 81.7936 142.286 80.9004C142.286 80.9002 142.287 80.9001 142.287 80.9Z" fill="url(#paint2_linear_1418_67758)"/>
<path d="M196.429 203.157C195.579 203.157 194.728 202.965 193.961 202.575L169.23 190.003C162.212 186.431 156.723 182.423 152.436 177.754C143.054 167.543 136.253 153.761 136.171 140.164L135.88 95.4101C135.846 90.2449 140.917 85.6088 145.992 83.8629L191.402 68.3144C194.099 67.3687 197.106 67.3554 199.851 68.2681L245.434 83.2875C250.537 84.9607 255.95 89.5637 255.978 94.7223L256.268 139.509C256.358 153.087 249.258 166.921 240.021 177.245C235.783 181.98 230.342 186.048 223.393 189.685L198.884 202.542C198.123 202.945 197.28 203.15 196.429 203.157Z" fill="#0A0D0F"/>
<path fill-rule="evenodd" clip-rule="evenodd" d="M152.436 177.754C156.723 182.423 162.212 186.431 169.23 190.003L193.961 202.575C194.728 202.965 195.579 203.157 196.429 203.157C197.28 203.15 198.123 202.945 198.884 202.542L223.393 189.685C230.342 186.048 235.783 181.98 240.021 177.245C249.258 166.921 256.358 153.087 256.268 139.509L255.978 94.7223C255.95 89.5637 250.537 84.9607 245.434 83.2875L199.851 68.2681C197.106 67.3554 194.099 67.3687 191.402 68.3144L145.992 83.8629C140.917 85.6088 135.846 90.2449 135.88 95.4101L136.171 140.164C136.253 153.761 143.054 167.543 152.436 177.754ZM196.425 202.157C197.119 202.151 197.802 201.983 198.415 201.658L198.419 201.656L222.929 188.8C229.796 185.205 235.134 181.206 239.276 176.578C248.413 166.366 255.356 152.762 255.269 139.516L254.978 94.7277C254.966 92.5021 253.786 90.2985 251.9 88.4032C250.022 86.5149 247.53 85.0272 245.123 84.2377L245.121 84.2373L199.535 69.217C196.997 68.3729 194.217 68.387 191.733 69.258L191.726 69.2605L146.317 84.8085C146.317 84.8085 146.317 84.8084 146.317 84.8085C143.927 85.6307 141.531 87.1392 139.749 89.0385C137.963 90.9418 136.865 93.1569 136.88 95.4034L137.17 140.158C137.252 153.443 143.91 166.996 153.172 177.078C157.361 181.641 162.748 185.582 169.683 189.111C169.683 189.111 169.683 189.111 169.683 189.111L194.414 201.683C195.033 201.998 195.725 202.156 196.425 202.157Z" fill="url(#paint3_linear_1418_67758)"/>
<g filter="url(#filter5_i_1418_67758)">
<path d="M196.356 198.233C195.566 198.233 194.775 198.055 194.062 197.695L171.08 186.066C164.559 182.763 159.458 179.056 155.474 174.737C146.755 165.292 141.051 152.356 140.974 139.779L140.704 98.3846C140.672 93.6071 144.808 89.319 149.524 87.704L191.723 73.3226C194.229 72.4479 197.024 72.4356 199.574 73.2798L241.934 87.1718C246.676 88.7195 250.863 92.977 250.889 97.7484L251.159 139.174C251.242 151.732 245.449 164.717 236.865 174.266C232.927 178.646 227.87 182.408 221.413 185.772L198.637 197.664C197.93 198.037 197.146 198.227 196.356 198.233Z" fill="#060809"/>
</g>
<path fill-rule="evenodd" clip-rule="evenodd" d="M140.974 139.779C141.051 152.356 146.755 165.292 155.474 174.737C159.458 179.056 164.559 182.763 171.08 186.066L194.062 197.695C194.775 198.055 195.566 198.233 196.356 198.233C197.146 198.227 197.93 198.037 198.637 197.664L221.413 185.772C227.87 182.408 232.927 178.646 236.865 174.266C245.449 164.717 251.242 151.732 251.159 139.174L250.889 97.7484C250.863 92.977 246.676 88.7195 241.934 87.1718L199.574 73.2798C197.024 72.4356 194.229 72.4479 191.723 73.3226L149.524 87.704C144.808 89.319 140.672 93.6071 140.704 98.3846L140.974 139.779ZM149.848 88.6501L192.046 74.2692L192.053 74.2667C194.346 73.466 196.915 73.4529 199.26 74.2291L241.622 88.122L241.624 88.1225C246.113 89.5879 249.866 93.5584 249.889 97.7538L250.159 139.18C250.24 151.444 244.571 164.197 236.121 173.597C232.28 177.87 227.326 181.563 220.951 184.885L198.174 196.778L198.17 196.78C197.611 197.075 196.987 197.227 196.352 197.233C195.711 197.232 195.078 197.088 194.514 196.802L171.532 185.174C171.532 185.174 171.532 185.174 171.532 185.174C165.093 181.912 160.095 178.272 156.209 174.059C147.636 164.772 142.049 152.068 141.974 139.773L141.704 98.3781C141.676 94.1782 145.38 90.1806 149.848 88.6501C149.849 88.65 149.848 88.6502 149.848 88.6501Z" fill="url(#paint4_linear_1418_67758)"/>
<path d="M196.37 193.326C195.637 193.326 194.905 193.162 194.244 192.83L172.943 182.111C166.899 179.066 162.171 175.649 158.479 171.668C150.398 162.962 145.976 151.002 145.904 139.409L145.654 101.252C145.624 96.8482 148.548 92.8955 152.919 91.4069L192.031 78.1506C194.353 77.3442 196.943 77.333 199.307 78.1111L238.568 90.9164C242.962 92.343 245.934 96.2674 245.958 100.666L246.208 138.85C246.285 150.426 241.871 162.432 233.915 171.234C230.265 175.271 225.578 178.739 219.594 181.84L198.484 192.801C197.829 193.145 197.102 193.32 196.37 193.326Z" fill="#0A0D0F"/>
<path fill-rule="evenodd" clip-rule="evenodd" d="M194.694 191.936C195.206 192.194 195.782 192.325 196.366 192.326C196.944 192.321 197.511 192.183 198.019 191.916L198.023 191.914L219.133 180.952C225.036 177.893 229.62 174.493 233.173 170.563C240.957 161.951 245.284 150.189 245.208 138.857L244.958 100.671C244.936 96.7323 242.271 93.1698 238.259 91.8675L238.258 91.8671L198.995 79.061C196.835 78.3501 194.47 78.3622 192.359 79.0952L192.352 79.0977L153.241 92.3536C153.241 92.3536 153.242 92.3535 153.241 92.3536C149.25 93.7133 146.628 97.3017 146.654 101.245L146.904 139.402C146.974 150.76 151.311 162.475 159.212 170.988C162.806 174.863 167.431 178.214 173.393 181.218L194.694 191.936ZM152.919 91.4069L192.031 78.1506C194.353 77.3442 196.943 77.333 199.307 78.1111L238.568 90.9164C242.962 92.343 245.934 96.2674 245.958 100.666L246.208 138.85C246.285 150.426 241.871 162.432 233.915 171.234C230.265 175.271 225.578 178.739 219.594 181.84L198.484 192.801C197.829 193.145 197.102 193.32 196.37 193.326C195.637 193.326 194.905 193.162 194.244 192.83L172.943 182.111C166.899 179.066 162.171 175.649 158.479 171.668C150.398 162.962 145.976 151.002 145.904 139.409L145.654 101.252C145.624 96.8482 148.548 92.8955 152.919 91.4069Z" fill="url(#paint5_linear_1418_67758)"/>
<g clip-path="url(#clip0_1418_67758)">
<path d="M204.099 139.534H203.342V140.824H202.053V141.581H203.342V142.87H204.099V141.581H205.388V140.824H204.099V139.534Z" fill="#6DC28B"/>
<path fill-rule="evenodd" clip-rule="evenodd" d="M196.31 109.798C182.651 109.798 171.578 120.871 171.578 134.53C171.578 148.188 182.651 159.261 196.31 159.261C209.968 159.261 221.041 148.188 221.041 134.53C221.041 120.871 209.968 109.798 196.31 109.798ZM201.96 136.901C200.49 137.505 199.399 138.841 199.138 140.456L195.384 140.031C195.373 140.029 195.365 140.019 195.364 140.008V122.054C195.365 122.045 195.37 122.038 195.377 122.034C195.389 122.029 195.402 122.034 195.407 122.044L201.96 136.901ZM188.818 140.955C188.817 140.951 188.817 140.947 188.819 140.942L194.385 128.326C194.39 128.315 194.403 128.31 194.414 128.316C194.422 128.319 194.427 128.327 194.427 128.336L194.426 139.984C194.427 139.994 194.419 140.004 194.408 140.006L188.843 140.974C188.831 140.976 188.819 140.968 188.818 140.955ZM194.435 144.648C194.43 144.651 194.424 144.651 194.419 144.648L188.846 141.84C188.835 141.835 188.83 141.822 188.835 141.811C188.839 141.803 188.847 141.797 188.856 141.798H199.117C199.176 142.26 199.303 142.701 199.488 143.11L194.435 144.648ZM203.726 145.151C201.544 145.151 199.775 143.382 199.775 141.201C199.775 139.019 201.544 137.25 203.726 137.25C205.908 137.25 207.676 139.019 207.676 141.201C207.676 143.382 205.908 145.151 203.726 145.151ZM193.556 119.72L196.281 115.178L199.006 119.72H193.556ZM193.556 150.137L196.281 154.679L199.006 150.137H193.556ZM216.009 134.757L211.467 132.032V137.482L216.009 134.757ZM181.152 132.032L176.61 134.757L181.152 137.482V132.032Z" fill="#6DC28B"/>
</g>
<rect x="1.18567" y="150.438" width="53" height="43" fill="url(#paint6_linear_1418_67758)"/>
<rect width="57" height="43.46" transform="matrix(-1 0 0 1 397.186 73.9775)" fill="url(#paint7_linear_1418_67758)"/>
<defs>
<filter id="filter0_d_1418_67758" x="-6.00543" y="85.3848" width="401.064" height="49.2279" filterUnits="userSpaceOnUse" color-interpolation-filters="sRGB">
<feFlood flood-opacity="0" result="BackgroundImageFix"/>
<feColorMatrix in="SourceAlpha" type="matrix" values="0 0 0 0 0 0 0 0 0 0 0 0 0 0 0 0 0 0 127 0" result="hardAlpha"/>
<feOffset dy="1"/>
<feGaussianBlur stdDeviation="2"/>
<feComposite in2="hardAlpha" operator="out"/>
<feColorMatrix type="matrix" values="0 0 0 0 0 0 0 0 0 0 0 0 0 0 0 0 0 0 1 0"/>
<feBlend mode="normal" in2="BackgroundImageFix" result="effect1_dropShadow_1418_67758"/>
<feBlend mode="normal" in="SourceGraphic" in2="effect1_dropShadow_1418_67758" result="shape"/>
</filter>
<filter id="filter1_d_1418_67758" x="-6.00531" y="133.385" width="401.064" height="49.2279" filterUnits="userSpaceOnUse" color-interpolation-filters="sRGB">
<feFlood flood-opacity="0" result="BackgroundImageFix"/>
<feColorMatrix in="SourceAlpha" type="matrix" values="0 0 0 0 0 0 0 0 0 0 0 0 0 0 0 0 0 0 127 0" result="hardAlpha"/>
<feOffset dy="1"/>
<feGaussianBlur stdDeviation="2"/>
<feComposite in2="hardAlpha" operator="out"/>
<feColorMatrix type="matrix" values="0 0 0 0 0 0 0 0 0 0 0 0 0 0 0 0 0 0 1 0"/>
<feBlend mode="normal" in2="BackgroundImageFix" result="effect1_dropShadow_1418_67758"/>
<feBlend mode="normal" in="SourceGraphic" in2="effect1_dropShadow_1418_67758" result="shape"/>
</filter>
<filter id="filter2_f_1418_67758" x="78.9765" y="68.4253" width="234.476" height="234.61" filterUnits="userSpaceOnUse" color-interpolation-filters="sRGB">
<feFlood flood-opacity="0" result="BackgroundImageFix"/>
<feBlend mode="normal" in="SourceGraphic" in2="BackgroundImageFix" result="shape"/>
<feGaussianBlur stdDeviation="40" result="effect1_foregroundBlur_1418_67758"/>
</filter>
<filter id="filter3_f_1418_67758" x="128.614" y="135.563" width="135.778" height="93.2324" filterUnits="userSpaceOnUse" color-interpolation-filters="sRGB">
<feFlood flood-opacity="0" result="BackgroundImageFix"/>
<feBlend mode="normal" in="SourceGraphic" in2="BackgroundImageFix" result="shape"/>
<feGaussianBlur stdDeviation="3" result="effect1_foregroundBlur_1418_67758"/>
</filter>
<filter id="filter4_i_1418_67758" x="130.875" y="62.3881" width="130.212" height="146.646" filterUnits="userSpaceOnUse" color-interpolation-filters="sRGB">
<feFlood flood-opacity="0" result="BackgroundImageFix"/>
<feBlend mode="normal" in="SourceGraphic" in2="BackgroundImageFix" result="shape"/>
<feColorMatrix in="SourceAlpha" type="matrix" values="0 0 0 0 0 0 0 0 0 0 0 0 0 0 0 0 0 0 127 0" result="hardAlpha"/>
<feOffset dy="1"/>
<feGaussianBlur stdDeviation="1"/>
<feComposite in2="hardAlpha" operator="arithmetic" k2="-1" k3="1"/>
<feColorMatrix type="matrix" values="0 0 0 0 0 0 0 0 0 0 0 0 0 0 0 0 0 0 1 0"/>
<feBlend mode="normal" in2="shape" result="effect1_innerShadow_1418_67758"/>
</filter>
<filter id="filter5_i_1418_67758" x="140.704" y="72.6564" width="110.456" height="126.576" filterUnits="userSpaceOnUse" color-interpolation-filters="sRGB">
<feFlood flood-opacity="0" result="BackgroundImageFix"/>
<feBlend mode="normal" in="SourceGraphic" in2="BackgroundImageFix" result="shape"/>
<feColorMatrix in="SourceAlpha" type="matrix" values="0 0 0 0 0 0 0 0 0 0 0 0 0 0 0 0 0 0 127 0" result="hardAlpha"/>
<feOffset dy="1"/>
<feGaussianBlur stdDeviation="1"/>
<feComposite in2="hardAlpha" operator="arithmetic" k2="-1" k3="1"/>
<feColorMatrix type="matrix" values="0 0 0 0 0 0 0 0 0 0 0 0 0 0 0 0 0 0 1 0"/>
<feBlend mode="normal" in2="shape" result="effect1_innerShadow_1418_67758"/>
</filter>
<radialGradient id="paint0_radial_1418_67758" cx="0" cy="0" r="1" gradientUnits="userSpaceOnUse" gradientTransform="translate(194.989 3.45794) rotate(90) scale(124.542 215.498)">
<stop stop-color="white"/>
<stop offset="1" stop-color="#F5F6F7" stop-opacity="0.1"/>
</radialGradient>
<linearGradient id="paint1_linear_1418_67758" x1="195.975" y1="135.183" x2="195.975" y2="216.002" gradientUnits="userSpaceOnUse">
<stop stop-color="#3B3D3F" stop-opacity="0.5"/>
<stop offset="1" stop-color="#3B3D3F" stop-opacity="0.89"/>
</linearGradient>
<linearGradient id="paint2_linear_1418_67758" x1="195.961" y1="61.6986" x2="196.026" y2="208.034" gradientUnits="userSpaceOnUse">
<stop stop-color="#1E1E1F" stop-opacity="0"/>
<stop offset="1" stop-color="#1E1E1F" stop-opacity="0.8"/>
</linearGradient>
<linearGradient id="paint3_linear_1418_67758" x1="196.075" y1="67.5942" x2="196.075" y2="203.157" gradientUnits="userSpaceOnUse">
<stop stop-color="#3B3D3F" stop-opacity="0.5"/>
<stop offset="1" stop-color="#3B3D3F" stop-opacity="0.8"/>
</linearGradient>
<linearGradient id="paint4_linear_1418_67758" x1="195.915" y1="72.0619" x2="195.972" y2="198.233" gradientUnits="userSpaceOnUse">
<stop stop-color="#1E1E1F" stop-opacity="0"/>
<stop offset="1" stop-color="#1E1E1F" stop-opacity="0.8"/>
</linearGradient>
<linearGradient id="paint5_linear_1418_67758" x1="195.931" y1="77.5365" x2="195.931" y2="193.326" gradientUnits="userSpaceOnUse">
<stop stop-color="#3B3D3F" stop-opacity="0.2"/>
<stop offset="1" stop-color="#3B3D3F" stop-opacity="0.4"/>
</linearGradient>
<linearGradient id="paint6_linear_1418_67758" x1="54.1857" y1="172.249" x2="5.11159" y2="172.249" gradientUnits="userSpaceOnUse">
<stop stop-color="#13181C" stop-opacity="0"/>
<stop offset="1" stop-color="#13181C"/>
</linearGradient>
<linearGradient id="paint7_linear_1418_67758" x1="57" y1="22.0449" x2="4.22222" y2="22.0449" gradientUnits="userSpaceOnUse">
<stop stop-color="#13181C" stop-opacity="0"/>
<stop offset="1" stop-color="#13181C"/>
</linearGradient>
<clipPath id="clip0_1418_67758">
<rect width="51" height="51" fill="white" transform="translate(170.781 109.254)"/>
</clipPath>
</defs>
</svg>
