<svg width="47" height="54" viewBox="0 0 47 54" fill="none" xmlns="http://www.w3.org/2000/svg">
<path d="M23.0813 41.3813L12.7584 47.3406L23.0813 53.2999L33.4041 47.3406L23.0813 41.3813Z" fill="#FFCB5C"/>
<path d="M34.216 20.221V7.36414L23.8931 13.3235V26.1817L35.8398 33.0779V45.935L46.1626 39.9757V27.1174L34.216 20.221Z" fill="#FFCB5C"/>
<path d="M11.1378 46.4031L23.0828 39.5057L34.2166 45.9349V34.0146L23.0828 27.587L11.1378 34.4833L0.00390625 28.0553V39.9755L11.1378 46.4031Z" fill="#FFCB5C"/>
<path d="M11.1388 32.6101L22.2728 26.1821V12.3885L33.4065 5.95937L23.0837 0L11.9498 6.42778V20.2215L0.815895 26.6492L11.1388 32.6101Z" fill="#FFCB5C"/>
<path d="M35.8398 7.36414V19.2842L46.1626 25.2436V13.3235L35.8398 7.36414Z" fill="#FFCB5C"/>
<path d="M10.3268 19.2842V7.36414L0.00390625 13.3235V25.2436L10.3268 19.2842Z" fill="#FFCB5C"/>
</svg>
