<svg width="51" height="51" viewBox="0 0 51 51" fill="none" xmlns="http://www.w3.org/2000/svg">
<g clip-path="url(#clip0_8206_36462)">
<path d="M33.3175 30.2801H32.5607V31.5699H31.2717V32.3265H32.5607V33.6154H33.3175V32.3265H34.6068V31.5699H33.3175V30.2801Z" fill="#6DC28B"/>
<path fill-rule="evenodd" clip-rule="evenodd" d="M25.5283 0.543945C11.8695 0.543945 0.796875 11.6165 0.796875 25.2754C0.796875 38.9342 11.8695 50.0068 25.5283 50.0068C39.1871 50.0068 50.2597 38.9342 50.2597 25.2754C50.2597 11.6165 39.1871 0.543945 25.5283 0.543945ZM31.1789 27.6469C29.7087 28.2513 28.6174 29.5872 28.3568 31.2017L24.6031 30.7764C24.5918 30.7748 24.5836 30.7652 24.5832 30.7541V12.7995C24.5836 12.7911 24.5886 12.7835 24.5959 12.78C24.6073 12.7744 24.6204 12.7794 24.6258 12.7903L31.1789 27.6469ZM18.0363 31.7008C18.0357 31.6968 18.0361 31.6924 18.0377 31.6882L23.6034 19.0721C23.6088 19.0609 23.622 19.0561 23.6327 19.0617C23.6405 19.0653 23.6455 19.0731 23.6455 19.0816L23.6451 30.7294C23.6455 30.7401 23.6375 30.7499 23.6269 30.7515L18.0614 31.7199C18.0494 31.7219 18.0381 31.7135 18.0363 31.7008ZM23.6536 35.3941C23.6487 35.3967 23.6427 35.3967 23.6375 35.3941L18.0652 32.5863C18.054 32.5811 18.0488 32.5682 18.0538 32.557C18.0576 32.5486 18.0658 32.5431 18.0747 32.5437H28.3359C28.3952 33.0058 28.5221 33.4465 28.7068 33.8555L23.6536 35.3941ZM32.9446 35.8973C30.7628 35.8973 28.9939 34.1282 28.9939 31.9464C28.9939 29.765 30.7628 27.9959 32.9446 27.9959C35.1264 27.9959 36.8951 29.765 36.8951 31.9464C36.8951 34.1282 35.1264 35.8973 32.9446 35.8973ZM22.7748 10.4661L25.5 5.92419L28.2251 10.4661H22.7748ZM22.7748 40.8829L25.5 45.4248L28.2251 40.8829H22.7748ZM45.2278 25.5029L40.6859 22.7778V28.228L45.2278 25.5029ZM10.3706 22.7778L5.8287 25.5029L10.3706 28.228V22.7778Z" fill="#6DC28B"/>
</g>
<defs>
<clipPath id="clip0_8206_36462">
<rect width="51" height="51" fill="white"/>
</clipPath>
</defs>
</svg>
