<svg width="52" height="51" viewBox="0 0 52 51" fill="none" xmlns="http://www.w3.org/2000/svg">
<g clip-path="url(#clip0_8206_36130)">
<path d="M26 0.890625C12.4075 0.890625 1.38849 11.9096 1.38849 25.5021C1.38849 39.0948 12.4075 50.1136 26 50.1136C39.5925 50.1136 50.6115 39.0948 50.6115 25.5021C50.6115 11.9096 39.5925 0.890625 26 0.890625ZM22.3579 43.0722V43.5878V44.3835C18.5093 43.6454 15.069 41.7598 12.4053 39.0974C8.92633 35.6182 6.77477 30.8117 6.77477 25.5021C6.77477 23.2342 7.16802 21.0565 7.88979 19.0335L9.02494 19.6879C8.40039 21.511 8.06212 23.4679 8.06212 25.5021C8.06212 30.4573 10.07 34.9413 13.3157 38.1884C15.4426 40.3148 18.1011 41.9094 21.0729 42.7578L21.0717 42.7549V36.7898L17.7179 35.8918V26.4036C17.0244 26.1468 16.5291 25.4812 16.5291 24.6981C16.5291 23.6928 17.3443 22.8774 18.3496 22.8774C19.355 22.8774 20.17 23.6926 20.17 24.6981C20.17 25.4728 19.6849 26.133 19.0028 26.3956V34.9074L22.3583 35.8065V43.0722H22.3579ZM26.6429 28.4185V43.4318V44.0862V44.7182C26.4289 44.7255 26.2153 44.7279 26.0006 44.7279C25.7844 44.7279 25.5711 44.7239 25.3573 44.7182V44.0862V43.4318V28.4292C24.628 28.1704 24.1044 27.4768 24.1044 26.6584C24.1044 25.6198 24.9461 24.7781 25.9848 24.7781C27.0232 24.7781 27.8651 25.6198 27.8651 26.6584C27.8649 27.4654 27.3565 28.1515 26.6429 28.4185ZM28.3611 29.6546C28.3611 28.836 28.9012 28.1439 29.6443 27.915V7.93221C28.4685 7.68737 27.2505 7.56127 26.002 7.56127C24.7531 7.56127 23.5344 7.68996 22.3593 7.93221V27.7435C23.0914 28.0007 23.6171 28.6958 23.6171 29.516C23.6171 30.5545 22.7754 31.3962 21.7369 31.3962C20.6984 31.3962 19.8567 30.5545 19.8567 29.516C19.8567 28.7113 20.3625 28.0272 21.0727 27.7589V8.24797C18.0994 9.09585 15.4424 10.6906 13.3155 12.8175C12.0031 14.1297 10.893 15.6444 10.0364 17.3128L14.8941 20.1176V30.9402C15.5294 31.2247 15.9729 31.8604 15.9729 32.6017C15.9729 33.6071 15.1579 34.4223 14.1522 34.4223C13.147 34.4223 12.3318 33.6071 12.3318 32.6017C12.3318 31.7859 12.8683 31.0954 13.6076 30.8641V20.8557L9.48972 18.4779L8.87274 18.1221L8.36812 17.8312C9.33732 15.6071 10.7145 13.6016 12.4053 11.9096C15.8844 8.43046 20.691 6.27889 26.0008 6.27889V6.2763C31.3092 6.2763 36.1153 8.42807 39.5947 11.907C41.2693 13.5817 42.6355 15.5609 43.6019 17.7589L42.9774 18.1209L42.4833 18.4067L38.2434 20.8557V30.9025C38.9275 31.1645 39.4138 31.8257 39.4138 32.6015C39.4138 33.6067 38.5986 34.4219 37.5931 34.4219C36.5877 34.4219 35.7724 33.6067 35.7724 32.6015C35.7724 31.8197 36.2663 31.1547 36.9584 30.897V20.1174L41.9323 17.2453C41.0794 15.6045 39.9829 14.1134 38.6864 12.8173C36.5616 10.6904 33.9024 9.09565 30.9292 8.24777V27.9953C31.5612 28.2814 32.0016 28.9153 32.0016 29.654C32.0016 30.6595 31.1866 31.4747 30.181 31.4747C29.1757 31.4747 28.3611 30.6601 28.3611 29.6546ZM39.5943 39.096C36.9309 41.7586 33.4904 43.6438 29.6431 44.3819V43.5866V43.0722V43.071V35.8065L32.9973 34.9074V26.4235C32.2752 26.1818 31.7544 25.5013 31.7544 24.6981C31.7544 23.6928 32.5696 22.8774 33.5751 22.8774C34.5805 22.8774 35.3955 23.6926 35.3955 24.6981C35.3955 25.4519 34.9369 26.0988 34.2841 26.3753V35.8918L30.9284 36.7898V42.7547C33.9018 41.908 36.5592 40.312 38.6856 38.1868C41.9327 34.9399 43.9404 30.4545 43.9404 25.5019C43.9404 23.439 43.5906 21.4584 42.9517 19.614L44.0845 18.9596C44.8238 21.0014 45.2258 23.2041 45.2258 25.5019C45.2254 30.8095 43.0736 35.617 39.5943 39.096Z" fill="#1C76FD"/>
</g>
<defs>
<clipPath id="clip0_8206_36130">
<rect width="51" height="51" fill="white" transform="translate(0.5 0.00195312)"/>
</clipPath>
</defs>
</svg>
