<svg xmlns="http://www.w3.org/2000/svg" fill="none" viewBox="0 0 2220 717"><mask id="mask0_10001_12461" width="2220" height="2220" x="0" y="-931" maskUnits="userSpaceOnUse" style="mask-type:alpha"><circle cx="1110" cy="179" r="1110" fill="url(#paint0_radial_10001_12461)" fill-opacity=".6"/></mask><g fill="#CECFCF" fill-rule="evenodd" clip-rule="evenodd" mask="url(#mask0_10001_12461)"><path d="M1110.24 1289V-931h.5v2220h-.5Z"/><path d="M.49 178.75h2220v.5H.49v-.5Z"/><path d="m555.27 1140.16 1110-1922.57.44.25-1110 1922.57-.44-.25Z"/><path d="m149.33-376.22 1922.57 1110-.25.44-1922.57-1110 .25-.44Z"/><path d="m149.08 733.78 1922.57-1110 .25.44-1922.57 1110-.25-.44Z"/><path d="m555.7-782.41 1110.01 1922.57-.44.25-1110-1922.57.44-.25Z"/><path d="M325.42 963.71 1895.2-606.07l.35.36L325.78 964.07l-.36-.36Z"/><path d="M325.78-606.07 1895.55 963.71l-.35.36L325.42-605.71l.36-.36Z"/><path d="M38.25 466.05 2182.6-108.53l.13.48L38.38 466.53l-.13-.48Z"/><path d="m823.44-893.24 574.58 2144.35-.48.13L822.96-893.11l.48-.13Z"/><path d="m38.38-108.53 2144.35 574.58-.13.48L38.25-108.05l.13-.48Z"/><path d="M1398.02-893.11 823.44 1251.24l-.48-.13 574.58-2144.35.48.13Z"/><path d="M4.73 82 2216.3 275.5l-.05.5L4.69 82.5l.04-.5Z"/><path d="M1207.48-926.75 1014 1284.8l-.5-.05L1206.98-926.8l.5.05Z"/><path d="M201.37-457.88 2019.9 815.47l-.29.4L201.09-457.47l.28-.4Z"/><path d="M1747.36-730.12 474.02 1088.4l-.4-.28L1746.94-730.4l.41.28Z"/><path d="m641.6-827.1 938.22 2012-.45.21-938.21-2012 .45-.22Z"/><path d="m2116.6-289.88-2012 938.21-.22-.45 2012-938.21.22.45Z"/><path d="m397.19-671.47 1426.98 1700.62-.38.32L396.8-671.15l.39-.32Z"/><path d="M1960.96-534.3 260.34 892.69l-.32-.39L1960.64-534.69l.32.39Z"/><path d="m917.99-914.18 385.49 2186.27-.49.09-385.5-2186.27.5-.09Z"/><path d="M2203.67-13.5 17.4 372l-.1-.5L2203.59-14l.09.5Z"/><path d="M1490.37-863.97 731.08 1222.14l-.47-.17L1489.9-864.14l.47.17Z"/><path d="M2153.46 558.88 67.35-200.41l.17-.47 2086.11 759.29-.17.47Z"/><path d="M4.7 275.5 2216.23 82l.05.5L4.73 276l-.04-.5Z"/><path d="m1013.99-926.8 193.49 2211.55-.5.05L1013.5-926.75l.49-.05Z"/><path d="m104.6-290.33 2012 938.2-.21.46-2012-938.21.2-.45Z"/><path d="M1579.82-826.9 641.61 1185.11l-.45-.21 938.21-2012 .45.2Z"/><path d="m474.02-730.4 1273.34 1818.52-.41.28L473.61-730.12l.41-.28Z"/><path d="M2019.89-457.46 201.37 815.88l-.28-.41L2019.6-457.88l.29.42Z"/><path d="m260.34-534.69 1700.62 1427-.32.38-1700.62-1427 .32-.38Z"/><path d="M1824.17-671.15 397.19 1029.47l-.39-.32L1823.8-671.47l.38.32Z"/><path d="m731.08-864.14 759.29 2086.11-.47.17L730.61-863.97l.47-.17Z"/><path d="M2153.63-200.4 67.52 558.87l-.17-.47 2086.11-759.29.17.47Z"/><path d="m1303.48-914.1-385.5 2186.28-.49-.09L1303-914.18l.49.09Z"/><path d="M2203.58 372 17.31-13.5l.09-.5 2186.27 385.5-.09.5Z"/><path d="m1090.87 1288.83 38.74-2219.66h.5l-38.74 2219.67-.5-.01Z"/><path d="m.66 159.38 2219.66 38.74v.5L.65 159.88l.01-.5Z"/><path d="M538.58 1130.33 1681.97-772.58l.43.25L539.01 1130.58l-.43-.25Z"/><path d="M159.16-392.9 2062.07 750.47l-.25.43L158.9-392.48l.26-.43Z"/><path d="M139.54 716.92 2081.2-359.36l.24.44L139.78 717.36l-.24-.44Z"/><path d="m572.57-791.95 1076.28 1941.66-.44.24L572.13-791.71l.44-.24Z"/><path d="M311.85 949.9 1908.78-592.26l.35.36L312.2 950.25l-.35-.36Z"/><path d="M339.6-619.64 1881.74 977.29l-.36.35L339.24-619.29l.36-.35Z"/><path d="M33.4 447.3 2187.46-89.79l.12.49L33.52 447.78l-.12-.49Z"/><path d="m842.2-898.09 537.07 2154.06-.49.12L841.71-897.97l.49-.12Z"/><path d="m43.56-127.2 2134 611.92-.14.48-2134-611.92.14-.48Z"/><path d="m1416.69-887.93-611.92 2134-.48-.14 611.92-2134 .48.14Z"/><path d="m6.6 62.72 2207.83 232.06-.05.5L6.54 63.21l.06-.5Z"/><path d="M1226.76-924.9 994.71 1282.96l-.5-.06 232.06-2207.84.49.06Z"/><path d="M212.63-473.64 2008.65 831.24l-.3.4L212.33-473.24l.3-.4Z"/><path d="M1763.13-718.86 458.25 1077.16l-.4-.3L1762.73-719.16l.4.3Z"/><path d="m659.24-835.14 902.96 2028.07-.46.21L658.78-834.93l.46-.2Z"/><path d="M2124.63-272.25 96.56 630.71l-.2-.46 2028.06-902.96.21.46Z"/><path d="m412.14-683.79 1397.09 1725.26-.39.32L411.74-683.47l.4-.32Z"/><path d="M1973.28-519.35 248.01 877.74l-.31-.39L1972.96-519.74l.32.39Z"/><path d="m937.1-917.37 347.28 2192.66-.5.08L936.6-917.29l.5-.08Z"/><path d="M2206.86 5.6 14.19 352.9l-.07-.5L2206.78 5.12l.08.5Z"/><path d="M1508.51-857.18 712.93 1215.36l-.46-.18 795.57-2072.54.47.18Z"/><path d="M2146.67 577.02 74.13-218.55l.17-.47 2072.55 795.58-.18.46Z"/><path d="m3.18 256.18 2214.59-154.86.03.5L3.21 256.68l-.03-.5Z"/><path d="m1033.31-928.31 154.86 2214.59-.5.03-154.86-2214.59.5-.03Z"/><path d="m112.94-307.82 1995.32 973.19-.22.45L112.72-307.37l.22-.45Z"/><path d="M1597.31-818.55 624.12 1176.77l-.45-.22 973.19-1995.32.45.22Z"/><path d="m490-741.37 1241.4 1840.46-.41.28L489.58-741.09l.41-.28Z"/><path d="M2030.86-441.5 190.4 799.91l-.28-.41L2030.58-441.91l.28.41Z"/><path d="M272.93-549.41 1948.38 907.04l-.33.37L272.6-549.04l.33-.37Z"/><path d="M1838.9-658.56 382.45 1016.89l-.38-.33L1838.54-658.89l.37.33Z"/><path d="m749.35-870.6 722.76 2099.04-.48.17L748.87-870.44l.48-.17Z"/><path d="M2160.1-182.14 61.05 540.62l-.17-.48 2099.05-722.76.17.48Z"/><path d="m1322.53-910.56-423.6 2179.21-.48-.09 423.59-2179.21.49.1Z"/><path d="M2200.05 391.04 20.83-32.56l.1-.48 2179.21 423.6-.09.48Z"/><path d="m1071.5 1288.32 77.48-2218.65.5.01L1072 1288.34l-.5-.01Z"/><path d="m1.17 140.01 2218.65 77.48-.02.5L1.16 140.5l.01-.5Z"/><path d="M522.07 1120.2 1698.49-762.46l.42.26L522.49 1120.47l-.42-.27Z"/><path d="M169.29-409.42 2051.95 767l-.26.42L169.02-409l.27-.42Z"/><path d="M130.3 699.9 2090.44-342.34l.24.44L130.53 700.33l-.23-.44Z"/><path d="m589.6-801.19 1042.22 1960.14-.44.24L589.15-800.95l.45-.24Z"/><path d="M298.52 935.84 1922.12-578.2l.34.37L298.86 936.2l-.34-.37Z"/><path d="M353.65-632.97 1867.7 990.63l-.37.34L353.29-632.63l.36-.34Z"/><path d="m28.88 428.45 2163.1-499.39.12.49L29 428.94l-.12-.49Z"/><path d="m861.04-902.6 499.39 2163.09-.49.12-499.39-2163.1.49-.12Z"/><path d="m49.06-145.77 2123 649.06-.15.48-2123-649.06.15-.48Z"/><path d="M1435.26-882.42 786.2 1240.56l-.48-.14 649.06-2123 .48.15Z"/><path d="m8.8 43.48 2203.45 270.55-.07.5L8.73 43.96l.06-.5Z"/><path d="M1246.01-922.7 975.46 1280.76l-.5-.06 270.56-2203.46.49.06Z"/><path d="M224.15-489.21 1997.12 846.8l-.3.4L223.85-488.82l.3-.4Z"/><path d="M1778.7-707.34 442.67 1065.64l-.4-.31L1778.3-707.64l.4.3Z"/><path d="m677-842.86 867.43 2043.52-.46.2L676.55-842.66l.46-.2Z"/><path d="M2132.35-254.48 88.83 612.94l-.2-.46 2043.52-867.42.2.46Z"/><path d="m427.3-695.85 1366.77 1749.39-.39.31L426.91-695.54l.4-.3Z"/><path d="M1985.33-504.19 235.95 862.58l-.3-.4L1985.02-504.57l.3.4Z"/><path d="m956.25-920.23 308.97 2198.39-.5.07-308.96-2198.4.5-.06Z"/><path d="M2209.72 24.77 11.32 333.73l-.06-.5L2209.65 24.27l.07.5Z"/><path d="M1526.53-850.08 694.91 1208.27l-.47-.19 831.63-2058.35.46.19Z"/><path d="M2139.57 595.04 81.22-236.58l.19-.46 2058.35 831.62-.19.46Z"/><path d="m2 236.84 2216.95-116.18.03.5L2.02 237.34l-.02-.5Z"/><path d="m1052.65-929.5 116.18 2216.97-.5.02-116.18-2216.96.5-.02Z"/><path d="M121.58-325.15 2099.63 682.7l-.23.44L121.36-324.7l.22-.44Z"/><path d="M1614.64-809.9 606.78 1168.13l-.44-.23L1614.2-810.13l.44.23Z"/><path d="m506.15-752.06 1209.1 1861.85-.42.27L505.73-751.79l.42-.27Z"/><path d="M2041.55-425.34 179.7 783.76l-.27-.42 1861.85-1209.1.27.42Z"/><path d="M285.77-563.92 1935.55 921.55l-.34.37L285.43-563.55l.34-.37Z"/><path d="M1853.41-645.72 367.94 1004.06l-.37-.34L1853.04-646.06l.37.34Z"/><path d="m767.72-876.75 686.01 2111.35-.47.15L767.24-876.6l.48-.15Z"/><path d="M2166.24-163.77 54.89 522.25l-.15-.48 2111.34-686.02.16.48Z"/><path d="M1341.52-906.7 879.95 1264.8l-.49-.11L1341.03-906.8l.49.1Z"/><path d="M2196.18 410.03 24.69-51.54l.1-.49 2171.49 461.57-.1.49Z"/><path d="m1052.15 1287.47 116.18-2216.96.5.02-116.18 2216.96-.5-.02Z"/><path d="m2.02 120.66 2216.96 116.18-.03.5L2 121.16l.02-.5Z"/><path d="m505.73 1109.79 1209.1-1861.85.42.27-1209.1 1861.85-.42-.27Z"/><path d="m179.7-425.76 1861.85 1209.1-.27.42L179.43-425.34l.27-.42Z"/><path d="M121.36 682.7 2099.39-325.14l.23.44L121.59 683.15l-.23-.44Z"/><path d="M606.78-810.13 1614.64 1167.9l-.44.23L606.34-809.9l.44-.23Z"/><path d="M285.43 921.55 1935.21-563.92l.34.37L285.77 921.92l-.34-.37Z"/><path d="m367.94-646.06 1485.47 1649.78-.37.34L367.57-645.72l.37-.34Z"/><path d="M24.7 409.54 2196.17-52.03l.11.5L24.79 410.02l-.1-.5Z"/><path d="m879.95-906.8 461.57 2171.49-.49.11L879.46-906.7l.5-.1Z"/><path d="m54.9-164.25 2111.34 686.02-.16.48L54.74-163.77l.15-.48Z"/><path d="M1453.74-876.6 767.72 1234.75l-.48-.15 686.02-2111.35.48.15Z"/><path d="m11.33 24.27 2198.39 308.96-.07.5L11.25 24.76l.08-.49Z"/><path d="M1265.22-920.16 956.25 1278.23l-.5-.07 308.97-2198.4.5.08Z"/><path d="M235.95-504.58 1985.33 862.19l-.3.4L235.64-504.2l.31-.4Z"/><path d="M1794.07-695.54 427.3 1053.85l-.4-.31L1793.69-695.85l.39.31Z"/><path d="m694.9-850.27 831.63 2058.35-.46.19L694.44-850.08l.47-.19Z"/><path d="M2139.76-236.58 81.41 595.04l-.19-.46 2058.35-831.63.19.47Z"/><path d="M442.67-707.64 1778.7 1065.33l-.4.31L442.27-707.34l.4-.3Z"/><path d="M1997.12-488.81 224.15 847.2l-.3-.4L1996.82-489.2l.3.4Z"/><path d="m975.46-922.76 270.55 2203.46-.49.06L974.97-922.7l.5-.06Z"/><path d="M2212.25 43.97 8.79 314.52l-.06-.5L2212.18 43.49l.07.5Z"/><path d="M1544.43-842.66 677.01 1200.86l-.46-.2 867.42-2043.52.46.2Z"/><path d="M2132.15 612.94 88.63-254.48l.2-.46 2043.52 867.42-.2.46Z"/><path d="M1.16 217.49 2219.8 140l.02.5L1.17 217.99l-.01-.5Z"/><path d="m1072-930.33 77.48 2218.64-.5.02-77.48-2218.64.5-.02Z"/><path d="M130.53-342.33 2090.68 699.89l-.24.44L130.3-341.89l.23-.44Z"/><path d="M1631.82-800.96 589.6 1159.2l-.45-.24L1631.38-801.19l.44.24Z"/><path d="M522.5-762.47 1698.9 1120.2l-.42.27L522.07-762.2l.42-.27Z"/><path d="M2051.95-409 169.29 767.42l-.27-.42L2051.7-409.42l.26.42Z"/><path d="m298.86-578.2 1623.6 1514.04-.34.36L298.52-577.84l.34-.36Z"/><path d="M1867.69-632.63 353.65 990.97l-.36-.34 1514.04-1623.6.36.34Z"/><path d="m786.2-882.57 649.06 2122.99-.48.15-649.06-2123 .48-.14Z"/><path d="m2172.06-145.3-2123 649.07-.14-.48L2171.9-145.77l.15.48Z"/><path d="m1360.43-902.5-499.4 2163.11-.48-.12 499.39-2163.1.49.12Z"/><path d="M2191.98 428.94 28.88-70.46l.11-.48 2163.11 499.4-.12.48Z"/><path d="m1032.81 1286.28 154.86-2214.6.5.04-154.86 2214.59-.5-.03Z"/><path d="M3.21 101.32 2217.8 256.18l-.03.5L3.17 101.82l.04-.5Z"/><path d="M489.58 1099.09 1730.99-741.37l.41.28L490 1099.37l-.42-.28Z"/><path d="m190.4-441.91 1840.46 1241.4-.28.42L190.12-441.49l.28-.42Z"/><path d="m112.72 665.37 1995.32-973.19.22.45L112.94 665.82l-.22-.45Z"/><path d="m624.12-818.77 973.19 1995.32-.45.22L623.67-818.55l.45-.22Z"/><path d="M272.6 907.04 1948.05-549.41l.33.37L272.93 907.41l-.33-.37Z"/><path d="M382.45-658.9 1838.9 1016.57l-.37.33L382.08-658.56l.37-.33Z"/><path d="m20.84 390.55 2179.21-423.6.09.5-2179.2 423.6-.1-.5Z"/><path d="m898.94-910.65 423.59 2179.21-.49.09-423.6-2179.2.5-.1Z"/><path d="M61.05-182.62 2160.1 540.14l-.17.48L60.88-182.14l.17-.48Z"/><path d="M1472.11-870.45 749.35 1228.61l-.48-.17 722.76-2099.05.48.16Z"/><path d="m14.2 5.11 2192.66 347.28-.08.5L14.12 5.6l.07-.49Z"/><path d="M1284.38-917.3 937.09 1275.38l-.49-.08 347.28-2192.66.5.08Z"/><path d="m248.01-519.74 1725.27 1397.1-.32.38L247.7-519.36l.31-.38Z"/><path d="M1809.23-683.48 412.13 1041.8l-.38-.32L1808.84-683.79l.39.31Z"/><path d="m712.93-857.36 795.58 2072.54-.47.18L712.47-857.19l.46-.17Z"/><path d="M2146.85-218.56 74.3 577.02l-.17-.47 2072.54-795.57.18.46Z"/><path d="m458.25-719.16 1304.88 1796.02-.4.3L457.85-718.86l.4-.3Z"/><path d="M2008.65-473.24 212.63 831.64l-.3-.4L2008.35-473.64l.3.4Z"/><path d="m994.71-924.95 232.05 2207.84-.49.05L994.21-924.89l.5-.06Z"/><path d="M2214.43 63.22 6.6 295.27l-.06-.5L2214.38 62.73l.05.5Z"/><path d="M1562.2-834.93 659.24 1193.14l-.46-.21 902.96-2028.07.46.2Z"/><path d="M2124.42 630.7 96.35-272.25l.2-.46 2028.08 902.96-.21.46Z"/><path d="m.65 198.12 2219.67-38.74v.5L.66 198.62v-.5Z"/><path d="m1091.37-930.84 38.74 2219.67h-.5l-38.74-2219.66h.5Z"/><path d="M139.78-359.36 2081.44 716.92l-.24.44L139.54-358.92l.24-.44Z"/><path d="M1648.85-791.7 572.57 1149.94l-.44-.24L1648.41-791.95l.44.24Z"/><path d="M539.01-772.59 1682.4 1130.34l-.43.25L538.58-772.32l.43-.26Z"/><path d="M2062.07-392.48 159.17 750.91l-.26-.43L2061.82-392.91l.25.43Z"/><path d="M312.2-592.25 1909.13 949.89l-.35.36L311.85-591.89l.35-.36Z"/><path d="M1881.74-619.3 339.6 977.65l-.36-.35L1881.38-619.64l.36.35Z"/><path d="m804.77-888.07 611.92 2134-.48.14-611.92-2134 .48-.14Z"/><path d="M2177.56-126.72 43.56 485.2l-.14-.48 2134-611.92.14.48Z"/><path d="M1379.27-897.97 842.2 1256.1l-.49-.12 537.07-2154.06.49.12Z"/><path d="M2187.46 447.78 33.4-89.3l.12-.49L2187.58 447.3l-.12.49Z"/><path d="m1096.87 1288.92 26.74-2219.84h.5l-26.74 2219.84h-.5Z"/><path d="m.57 165.38 2219.84 26.74v.5L.57 165.88v-.5Z"/><path d="M543.74 1133.41 1676.81-775.66l.43.25L544.17 1133.66l-.43-.25Z"/><path d="M156.08-387.75 2065.15 745.32l-.25.43L155.83-387.32l.25-.43Z"/><path d="M142.47 722.17 2078.26-364.6l.24.43L142.71 722.6l-.25-.43Z"/><path d="m567.32-789.02 1086.77 1935.8-.43.24L566.89-788.78l.43-.24Z"/><path d="M316.03 954.2 1904.6-596.56l.35.36L316.38 954.56l-.35-.36Z"/><path d="M335.29-615.46 1886.05 973.11l-.36.35L334.93-615.11l.36-.35Z"/><path d="M34.87 453.12 2185.99-95.6l.12.48L34.99 453.6l-.12-.48Z"/><path d="M836.37-896.62 1385.1 1254.5l-.49.12L835.89-896.5l.48-.12Z"/><path d="M41.92-121.42 2179.2 478.94l-.14.48L41.78-120.94l.14-.48Z"/><path d="M1410.91-889.57 810.55 1247.7l-.48-.14 600.36-2137.28.48.14Z"/><path d="m5.98 68.7 2209.06 220.1-.04.5L5.93 69.2l.05-.5Z"/><path d="m1220.79-925.5-220.1 2209.06-.5-.05 220.1-2209.07.5.05Z"/><path d="M209.1-468.77 2012.17 826.37l-.29.4L208.82-468.37l.29-.4Z"/><path d="M1758.26-722.38 463.12 1080.67l-.4-.29L1757.85-722.67l.4.29Z"/><path d="m653.76-832.68 913.92 2023.15-.46.21L653.3-832.47l.46-.21Z"/><path d="M2122.17-277.73 99.01 636.19l-.2-.46 2023.15-913.92.21.46Z"/><path d="m407.48-680 1406.41 1717.68-.39.32L407.1-679.68l.38-.32Z"/><path d="M1969.49-524.01 251.81 882.39l-.32-.38 1717.68-1406.4.32.38Z"/><path d="m931.16-916.42 359.15 2190.76-.5.08L930.67-916.34l.5-.08Z"/><path d="M2205.91-.33 15.15 358.82l-.08-.5L2205.83-.81l.08.5Z"/><path d="M1502.9-859.32 718.55 1217.5l-.47-.18L1502.43-859.5l.47.18Z"/><path d="M2148.81 571.4 71.99-212.93l.18-.47 2076.82 784.35-.18.47Z"/><path d="M3.6 262.17 2217.34 95.33l.04.5L3.65 262.67l-.04-.5Z"/><path d="m1027.32-927.88 166.84 2213.72-.5.04-166.84-2213.72.5-.04Z"/><path d="m110.32-302.41 2000.56 962.37-.22.45L110.1-301.96l.22-.45Z"/><path d="M1591.9-821.17 629.53 1179.39l-.45-.22 962.37-2000.56.45.22Z"/><path d="m485.02-738 1251.35 1833.72-.41.28L484.61-737.72l.41-.28Z"/><path d="M2027.49-446.47 193.77 804.88l-.28-.41L2027.2-446.88l.28.41Z"/><path d="M269-544.87 1952.3 902.49l-.33.38L268.67-544.49l.33-.38Z"/><path d="M1834.36-662.5 387 1020.83l-.38-.33 1447.36-1683.3.38.32Z"/><path d="m743.67-868.64 734.11 2095.11-.47.17L743.2-868.47l.47-.17Z"/><path d="M2158.13-187.82 63.02 546.3l-.17-.47L2157.96-188.3l.17.47Z"/><path d="m1316.63-911.69-411.8 2181.47-.49-.09 411.8-2181.47.49.1Z"/><path d="M2201.18 385.14 19.71-26.66l.09-.48 2181.47 411.8-.09.48Z"/><path d="m1077.5 1288.51 65.47-2219.03.5.01L1078 1288.52l-.5-.01Z"/><path d="m.98 146.01 2219.03 65.47-.01.5L.97 146.51l.01-.5Z"/><path d="m527.17 1123.37 1166.21-1889 .43.26-1166.22 1889-.42-.26Z"/><path d="m166.12-404.32 1889 1166.21-.26.43-1889-1166.22.26-.42Z"/><path d="M133.13 705.19 2087.61-347.63l.24.44L133.37 705.63l-.24-.44Z"/><path d="m584.3-798.36 1052.82 1954.48-.44.24L583.86-798.12l.44-.24Z"/><path d="m302.62 940.22 1615.39-1522.8.35.36-1615.4 1522.8-.34-.36Z"/><path d="m349.27-628.87 1522.8 1615.4-.36.34-1522.8-1615.4.36-.34Z"/><path d="M30.25 434.3 2190.62-76.79l.11.49L30.36 434.79l-.11-.49Z"/><path d="m855.19-901.24 511.09 2160.37-.49.11L854.7-901.13l.49-.11Z"/><path d="M47.32-140.02 2173.8 497.54l-.14.48L47.18-139.54l.14-.48Z"/><path d="M1429.51-884.17 791.95 1242.31l-.48-.14 637.56-2126.48.48.14Z"/><path d="m8.08 49.44 2204.88 258.62-.06.5L8.02 49.94l.06-.5Z"/><path d="M1240.05-923.41 981.43 1281.47l-.5-.06 258.62-2204.88.5.06Z"/><path d="M220.55-484.4 2000.73 842l-.3.4L220.25-484l.3-.4Z"/><path d="M1773.9-710.94 447.48 1069.24l-.4-.3L1773.5-711.24l.4.3Z"/><path d="m671.48-840.5 878.47 2038.8-.46.2L671.02-840.3l.46-.2Z"/><path d="M2129.99-260 91.19 618.46l-.2-.46 2038.8-878.46.2.45Z"/><path d="m422.58-692.14 1376.21 1741.97-.39.31L422.18-691.83l.4-.3Z"/><path d="M1981.62-508.91 239.66 867.3l-.3-.39L1981.3-509.3l.31.39Z"/><path d="m950.3-919.38 320.86 2196.69-.49.07L949.81-919.31l.5-.07Z"/><path d="M2208.87 18.82 12.18 339.68l-.07-.5L2208.8 18.32l.07.5Z"/><path d="M1520.96-852.32 700.48 1210.5l-.46-.18L1520.49-852.5l.47.18Z"/><path d="M2141.81 589.47 78.99-231.01l.18-.46L2142 589.01l-.18.46Z"/><path d="m2.33 242.84 2216.29-128.18.03.5L2.35 243.34l-.02-.5Z"/><path d="m1046.65-929.16 128.18 2216.29-.5.03-128.18-2216.3.5-.02Z"/><path d="m118.87-319.8 1983.46 997.15-.22.44L118.65-319.35l.22-.44Z"/><path d="M1609.28-812.62 612.14 1170.84l-.44-.22 997.14-1983.46.44.22Z"/><path d="M501.12-748.78 1720.28 1106.5l-.42.28L500.7-748.5l.42-.28Z"/><path d="M2038.27-430.37 182.99 788.8l-.28-.42L2038-430.8l.28.42Z"/><path d="M281.76-559.45 1939.55 917.07l-.33.38L281.42-559.07l.34-.38Z"/><path d="M1848.94-649.73 372.42 1008.06l-.38-.33 1476.52-1657.8.38.34Z"/><path d="m762.01-874.88 697.43 2107.6-.47.16-697.44-2107.6.48-.16Z"/><path d="M2164.37-169.48 56.77 527.95l-.16-.47 2107.6-697.43.16.47Z"/><path d="m1335.64-907.93-449.8 2173.96-.5-.1 449.81-2173.96.49.1Z"/><path d="M2197.42 404.15 23.46-45.65l.1-.5 2173.96 449.8-.1.5Z"/><path d="m1058.15 1287.77 104.18-2217.56.5.02-104.18 2217.56-.5-.02Z"/><path d="m1.72 126.66 2217.56 104.18-.03.5L1.7 127.16l.02-.5Z"/><path d="M510.77 1113.05 1709.78-755.32l.42.27-1199 1868.37-.43-.27Z"/><path d="m176.44-420.71 1868.37 1199-.27.42-1868.37-1199 .27-.42Z"/><path d="M124.1 688.05 2096.65-330.5l.23.45L124.33 688.5l-.23-.45Z"/><path d="m601.44-807.39 1018.55 1972.55-.45.23L600.99-807.16l.45-.23Z"/><path d="M289.46 926 1931.18-568.37l.34.37L289.8 926.37l-.34-.37Z"/><path d="M363.49-642.03 1857.86 999.7l-.37.34L363.12-641.69l.37-.34Z"/><path d="m25.96 415.41 2168.96-473.3.1.48L26.06 415.89l-.1-.48Z"/><path d="m874.08-905.53 473.31 2168.96-.49.1L873.6-905.43l.48-.1Z"/><path d="m53.05-158.53 2115.03 674.58-.15.48L52.9-158.05l.15-.48Z"/><path d="M1448.02-878.44 773.44 1236.6l-.48-.15 674.58-2115.03.48.15Z"/><path d="m10.5 30.22 2200.04 297.06-.07.5L10.44 30.72l.06-.5Z"/><path d="M1259.27-920.98 962.21 1279.05l-.5-.07 297.06-2200.03.5.07Z"/><path d="M232.26-499.84 1989.02 857.44l-.31.4L231.96-499.44l.3-.4Z"/><path d="M1789.33-699.23 432.05 1057.53l-.4-.31L1788.93-699.53l.4.3Z"/><path d="M689.34-848 1532.1 1205.8l-.47.19L688.88-847.81l.46-.2Z"/><path d="M2137.49-242.15 83.67 600.61l-.19-.47L2137.3-242.6l.19.46Z"/><path d="M437.88-704 1783.5 1061.7l-.4.3L437.49-703.71l.4-.3Z"/><path d="M1993.5-493.6 227.78 852l-.3-.4L1993.2-494l.3.4Z"/><path d="m969.5-922.01 282.47 2201.96-.49.06L969.01-921.95l.5-.06Z"/><path d="M2211.5 38.01 9.54 320.48l-.06-.5L2211.43 37.53l.07.5Z"/><path d="M1538.9-845 682.54 1203.2l-.46-.19 856.35-2048.19.47.2Z"/><path d="M2134.48 607.4 86.3-248.94l.2-.46 2048.18 856.36-.2.46Z"/><path d="m1.38 223.5 2218.2-89.5.02.5L1.4 224l-.02-.5Z"/><path d="m1066-930.1 89.48 2218.19-.5.02-89.48-2218.2.5-.02Z"/><path d="m127.73-337.02 1965.75 1031.6-.23.44L127.49-336.58l.24-.44Z"/><path d="M1626.51-803.76 594.91 1161.99l-.44-.23 1031.6-1965.75.44.23Z"/><path d="M517.4-759.27 1704 1117l-.43.27L516.98-759l.42-.27Z"/><path d="M2048.76-414.08 172.49 772.5l-.27-.43L2048.49-414.5l.27.43Z"/><path d="M294.77-573.8 1926.55 931.43l-.34.37L294.43-573.43l.34-.37Z"/><path d="M1863.29-636.72 358.06 995.06l-.37-.34L1862.92-637.06l.37.34Z"/><path d="M780.46-880.8 1441 1238.65l-.48.15L779.98-880.65l.48-.15Z"/><path d="M2170.29-151.03 50.84 509.5l-.15-.48L2170.14-151.5l.15.48Z"/><path d="M1354.57-903.83 866.89 1261.94l-.48-.11 487.67-2165.77.49.1Z"/><path d="M2193.32 423.08 27.55-64.6l.1-.48L2193.44 422.6l-.11.48Z"/><path d="m1038.8 1286.68 142.88-2215.4.49.04L1039.3 1286.7l-.5-.03Z"/><path d="M2.8 107.31 2218.2 250.2l-.03.5L2.77 107.8l.04-.5Z"/><path d="M494.57 1102.44 1726-744.72l.41.28L494.98 1102.72l-.41-.28Z"/><path d="M187.05-436.92 2034.2 794.5l-.27.41L186.77-436.5l.28-.41Z"/><path d="M115.36 670.76 2105.4-313.21l.22.45L115.59 671.21l-.23-.45Z"/><path d="M618.73-816.13 1602.7 1173.9l-.45.22L618.28-815.9l.45-.23Z"/><path d="M276.55 911.56 1944.1-553.94l.33.38L276.88 911.94l-.33-.38Z"/><path d="m377.93-654.94 1465.5 1667.55-.38.33L377.55-654.61l.38-.33Z"/><path d="M22 396.45 2198.88-38.94l.1.5L22.09 396.93l-.1-.5Z"/><path d="m893.04-909.5 435.39 2176.89-.49.1L892.55-909.4l.5-.1Z"/><path d="m59.1-176.93 2102.94 711.39-.17.47L58.94-176.46l.16-.47Z"/><path d="M1466.42-872.39 755.03 1230.55l-.47-.16 711.39-2102.94.47.16Z"/><path d="m13.27 11.05 2194.51 335.4-.07.5L13.19 11.54l.08-.5Z"/><path d="M1278.44-918.22 943.03 1276.29l-.5-.07L1277.95-918.3l.49.08Z"/><path d="M244.25-515.06 1977.04 872.67l-.31.4L243.93-514.68l.32-.4Z"/><path d="M1804.55-687.24 416.82 1045.56l-.4-.32 1387.74-1732.8.39.32Z"/><path d="m707.33-855.2 806.78 2068.22-.46.18L706.87-855.02l.46-.18Z"/><path d="M2144.69-224.16 76.47 582.62l-.18-.46L2144.5-224.62l.19.46Z"/><path d="m453.4-715.61 1314.58 1788.93-.4.29L453-715.32l.4-.3Z"/><path d="M2005.1-478.1 216.17 836.5l-.3-.41L2004.82-478.49l.29.4Z"/><path d="m988.74-924.3 244 2206.55-.5.05-244-2206.55.5-.05Z"/><path d="M2213.79 57.25 7.24 301.25l-.05-.5 2206.55-244 .05.5Z"/><path d="M1556.7-837.36 664.73 1195.56l-.45-.2 891.96-2032.92.46.2Z"/><path d="M2126.85 625.21 93.92-266.76l.2-.45 2032.93 891.96-.2.46Z"/><path d="m.77 204.13 2219.42-50.76.01.5L.78 204.63v-.5Z"/><path d="m1085.36-930.72 50.76 2219.42-.5.02-50.76-2219.42.5-.02Z"/><path d="M136.88-354.1 2084.33 711.66l-.24.44L136.64-353.66l.24-.44Z"/><path d="M1643.59-794.6 577.83 1152.84l-.44-.24L1643.15-794.85l.44.24Z"/><path d="m533.87-769.48 1153.67 1896.7-.43.26L533.44-769.22l.43-.26Z"/><path d="M2058.97-397.62 162.27 756.05l-.26-.43 1896.7-1153.67.26.43Z"/><path d="M308.03-587.92 1913.3 945.56l-.34.36L307.69-587.56l.34-.36Z"/><path d="M1877.41-623.46 343.93 981.8l-.36-.34L1877.05-623.8l.36.34Z"/><path d="m799-886.4 623.46 2130.66-.48.14L798.52-886.26l.48-.14Z"/><path d="M2175.89-132.49 45.23 490.97l-.14-.48 2130.66-623.46.14.48Z"/><path d="m1373.43-899.4-525.4 2156.92-.49-.11 525.41-2156.93.48.11Z"/><path d="M2188.9 441.94 31.96-83.46l.12-.48 2156.93 525.4-.11.48Z"/><path d="M1019.48 1285.26 1201-927.3l.5.04-181.52 2212.56-.5-.04Z"/><path d="m4.23 88 2212.56 181.5-.04.5L4.19 88.5l.04-.5Z"/><path d="M478.54 1091.55 1742.02-733.83l.42.28L478.95 1091.83l-.4-.28Z"/><path d="M197.94-452.95 2023.32 810.53l-.28.42L197.66-452.54l.28-.4Z"/><path d="m106.93 653.32 2006.9-949.09.21.45-2006.9 949.09-.2-.45Z"/><path d="m636.17-824.56 949.09 2006.9-.45.21-949.09-2006.9.45-.2Z"/><path d="M263.9 896.9 1956.75-539.29l.33.38L264.22 897.29l-.33-.39Z"/><path d="m392.6-667.6 1436.17 1692.87-.39.33L392.21-667.28l.39-.32Z"/><path d="M18.37 377.42 2202.52-19.91l.09.5L18.46 377.9l-.1-.5Z"/><path d="m912.07-913.12 397.33 2184.15-.49.09L911.58-913.03l.5-.1Z"/><path d="m65.48-195.23 2090.19 747.99-.17.47L65.3-194.76l.18-.47Z"/><path d="M1484.72-866.01 736.73 1224.18l-.47-.17 747.99-2090.2.47.18Z"/><path d="m16.37-8.08 2188.32 373.66-.08.5L16.28-7.6l.09-.49Z"/><path d="M1297.57-915.12 923.91 1273.2l-.5-.09 373.66-2188.33.5.09Z"/><path d="M256.5-530.08 1964.8 887.7l-.32.38L256.17-529.69l.32-.38Z"/><path d="M1819.56-675 401.8 1033.32l-.39-.32L1819.18-675.32l.38.32Z"/><path d="M725.44-862.08 1496 1219.9l-.46.18L724.97-861.9l.47-.18Z"/><path d="M2151.57-206.05 69.59 564.52l-.18-.47L2151.4-206.52l.18.47Z"/><path d="m469.11-726.95 1283.16 1811.61-.4.28L468.7-726.66l.41-.29Z"/><path d="M2016.43-462.38 204.83 820.78l-.29-.4 1811.6-1283.16.29.4Z"/><path d="m1008.01-926.26 205.45 2210.47-.49.05-205.46-2210.47.5-.05Z"/><path d="M2215.75 76.52 5.28 281.97l-.05-.5L2215.7 76.04l.05.5Z"/><path d="m1574.37-829.42-927.3 2017.05-.46-.21 927.31-2017.05.45.2Z"/><path d="M2118.91 642.88 101.86-284.42l.2-.46 2017.06 927.3-.21.46Z"/><path d="m.5 184.76 2219.97-12.02v.5L.51 185.26v-.5Z"/><path d="m1104.73-930.99 12.02 2219.97h-.5l-12.02-2219.96h.5Z"/><path d="M146.34-371 2074.88 728.56l-.25.44L146.09-370.57l.25-.44Z"/><path d="M1660.5-785.15 560.92 1143.4l-.44-.25L1660.06-785.4l.44.25Z"/><path d="M550.51-779.4 1670.9 1137.14l-.43.26L550.08-779.15l.43-.25Z"/><path d="M2068.89-380.98 152.35 739.41l-.26-.43L2068.63-381.41l.26.43Z"/><path d="M321.54-601.8 1899.8 959.44l-.35.36L321.19-601.45l.35-.36Z"/><path d="M1891.3-609.95 330.04 968.3l-.36-.35L1890.94-610.3l.36.35Z"/><path d="m817.64-891.67 586.18 2141.21-.48.13L817.16-891.54l.48-.13Z"/><path d="M2181.16-113.85 39.95 472.33l-.13-.48 2141.21-586.18.13.48Z"/><path d="M1392.21-894.65 829.25 1252.78l-.49-.13 562.97-2147.43.48.13Z"/><path d="M2184.14 460.72 36.71-102.24l.13-.48 2147.43 562.96-.13.48Z"/><path d="m1102.94 1288.97 14.6-2219.95h.5l-14.6 2219.96-.5-.01Z"/><path d="m.51 171.45 2219.96 14.6-.01.5L.51 171.95v-.5Z"/><path d="M548.97 1136.49 1671.58-778.75l.43.26L549.4 1136.74l-.43-.25Z"/><path d="M153-382.52 2068.23 740.09l-.25.43L152.74-382.09l.26-.43Z"/><path d="M145.45 727.45 2075.28-369.89l.25.44L145.7 727.89l-.25-.44Z"/><path d="m562.04-786.04 1097.33 1929.83-.43.25L561.6-785.79l.44-.25Z"/><path d="M320.28 958.53 1900.35-600.89l.35.36L320.63 958.89l-.35-.36Z"/><path d="M330.96-611.2 1890.38 968.85l-.36.35L330.6-610.86l.36-.35Z"/><path d="m36.38 459 2148.09-560.48.13.49L36.5 459.48l-.12-.49Z"/><path d="m830.5-895.1 560.46 2148.08-.48.13-560.47-2148.1.49-.12Z"/><path d="m40.29-115.57 2140.53 588.66-.13.48L40.16-115.09l.13-.48Z"/><path d="M1405.06-891.2 816.4 1249.33l-.48-.13 588.66-2140.53.48.13Z"/><path d="m5.4 74.74 2210.23 208.02-.05.5L5.35 75.24l.05-.5Z"/><path d="m1214.75-926.1-208.02 2210.24-.5-.05 208.02-2210.23.5.05Z"/><path d="M205.58-463.84 2015.7 821.43l-.29.4L205.3-463.42l.28-.4Z"/><path d="M1753.33-725.9 468.06 1084.2l-.4-.29 1285.26-1810.1.41.28Z"/><path d="m648.23-830.17 924.97 2018.13-.46.21L647.78-829.96l.45-.2Z"/><path d="M2119.66-283.25 101.53 641.7l-.21-.46L2119.45-283.7l.21.45Z"/><path d="m402.8-676.14 1415.77 1709.96-.39.32L402.41-675.82l.38-.32Z"/><path d="M1965.63-528.7 255.67 887.08l-.32-.38L1965.3-529.08l.32.38Z"/><path d="m925.18-915.42 371.11 2188.76-.49.08L924.68-915.34l.5-.08Z"/><path d="M2204.91-6.31 16.15 364.8l-.08-.5L2204.83-6.8l.08.49Z"/><path d="M1497.22-861.45 724.23 1219.63l-.47-.18 772.99-2081.08.47.18Z"/><path d="M2150.94 565.73 69.86-207.26l.18-.47 2081.08 772.99-.18.47Z"/><path d="M4.08 268.22 2216.86 89.28l.04.5L4.12 268.72l-.04-.5Z"/><path d="m1021.27-927.4 178.94 2212.77-.5.04-178.94-2212.78.5-.04Z"/><path d="m107.7-296.94 2005.79 951.42-.21.46-2005.8-951.42.22-.46Z"/><path d="M1586.42-823.79 635 1182l-.45-.21 951.42-2005.8.45.22Z"/><path d="m480.02-734.57 1261.35 1826.85-.41.29L479.6-734.28l.42-.29Z"/><path d="M2024.06-451.47 197.21 809.88l-.29-.4L2023.77-451.89l.29.4Z"/><path d="m265.05-540.26 1691.2 1438.14-.32.38L264.73-539.88l.32-.38Z"/><path d="M1829.75-666.44 391.61 1024.76l-.38-.32 1438.14-1691.2.38.32Z"/><path d="m737.95-866.62 745.55 2091.07-.47.17L737.48-866.45l.47-.17Z"/><path d="M2156.11-193.54 65.04 552l-.17-.47L2155.94-194l.17.47Z"/><path d="M1310.67-912.8 910.8 1270.89l-.49-.09 399.87-2183.7.49.1Z"/><path d="M2202.29 379.18 18.59-20.7l.1-.49L2202.38 378.7l-.09.49Z"/><path d="m1083.57 1288.67 53.34-2219.36.5.02-53.34 2219.36-.5-.02Z"/><path d="m.82 152.08 2219.36 53.34-.02.5L.8 152.58l.02-.5Z"/><path d="M532.34 1126.55 1688.21-768.81l.43.26L532.77 1126.81l-.43-.26Z"/><path d="M162.94-399.15 2058.3 756.72l-.26.43L162.68-398.72l.26-.43Z"/><path d="M136.02 710.52 2084.71-352.96l.24.44L136.26 710.96l-.24-.44Z"/><path d="m578.96-795.47 1063.49 1948.69-.44.24L578.53-795.23l.43-.24Z"/><path d="m306.8 944.62 1607.04-1531.6.34.36L307.14 944.98l-.34-.36Z"/><path d="M344.87-624.7 1876.48 982.36l-.37.34L344.51-624.35l.36-.34Z"/><path d="M31.66 440.2 2189.2-82.69l.12.49L31.78 440.69l-.12-.49Z"/><path d="m849.29-899.83 522.89 2157.54-.49.12L848.8-899.71l.49-.12Z"/><path d="m45.6-134.2 2129.93 625.93-.15.47L45.45-133.72l.14-.48Z"/><path d="M1423.7-885.9 797.76 1244.05l-.48-.14 625.94-2129.94.48.14Z"/><path d="m7.38 55.47 2206.27 246.56-.06.5L7.33 55.97l.05-.5Z"/><path d="M1234.02-924.1 987.46 1282.16l-.5-.06 246.56-2206.26.5.05Z"/><path d="m216.94-479.53 1787.4 1316.66-.3.4L216.64-479.13l.3-.4Z"/><path d="M1769.02-714.55 452.36 1072.85l-.4-.3 1316.66-1787.4.4.3Z"/><path d="m665.92-838.08 889.6 2033.96-.46.2-889.6-2033.96.46-.2Z"/><path d="M2127.57-265.57 93.61 624.03l-.2-.46 2033.96-889.6.2.46Z"/><path d="m417.82-688.36 1385.72 1734.41-.39.31L417.43-688.05l.4-.31Z"/><path d="M1977.85-513.66 243.44 872.05l-.31-.39L1977.54-514.05l.31.39Z"/><path d="m944.3-918.49 332.87 2194.9-.5.08-332.86-2194.9.5-.08Z"/><path d="M2207.98 12.82 13.08 345.68l-.08-.5L2207.9 12.32l.08.5Z"/><path d="m1515.32-854.55-809.2 2067.28-.46-.18 809.19-2067.28.47.18Z"/><path d="M2144.03 583.83 76.76-225.36l.18-.47 2067.28 809.19-.19.47Z"/><path d="m2.7 248.9 2215.55-140.3.04.5L2.72 249.4l-.03-.5Z"/><path d="m1040.59-928.8 140.3 2215.56-.5.04-140.3-2215.57.5-.03Z"/><path d="m116.16-314.37 1988.88 986.29-.22.44L115.94-313.92l.22-.44Z"/><path d="M1603.85-815.33 617.57 1173.55l-.45-.22 986.29-1988.88.44.22Z"/><path d="m496.06-745.43 1229.28 1848.58-.42.28L495.64-745.15l.42-.28Z"/><path d="M2034.92-435.43 186.33 793.85l-.27-.42L2034.64-435.85l.28.42Z"/><path d="M277.73-554.9 1943.58 912.53l-.33.38L277.4-554.54l.33-.38Z"/><path d="M1844.39-653.76 376.96 1012.1l-.38-.33L1844.02-654.09l.37.33Z"/><path d="M756.25-872.96 1465.2 1230.8l-.48.16L755.78-872.8l.47-.16Z"/><path d="M2162.45-175.24 58.69 533.71l-.16-.47L2162.3-175.71l.16.47Z"/><path d="M1329.69-909.14 891.78 1267.24l-.5-.1L1329.2-909.24l.49.1Z"/><path d="M2198.63 398.2 22.25-39.7l.1-.5 2176.38 437.92-.1.5Z"/><path d="m1064.21 1288.03 92.06-2218.09.5.02-92.06 2218.1-.5-.03Z"/><path d="m1.45 132.72 2218.09 92.06-.02.5L1.43 133.22l.02-.5Z"/><path d="M515.9 1116.31 1704.65-758.58l.43.27L516.31 1116.58l-.42-.27Z"/><path d="M173.18-415.6 2048.07 773.17l-.27.43L172.9-415.18l.28-.42Z"/><path d="M126.9 693.44 2093.85-335.88l.23.44L127.13 693.88l-.23-.44Z"/><path d="m596.05-804.6 1029.32 1966.96-.44.23L595.61-804.36l.44-.23Z"/><path d="M293.56 930.48 1927.08-572.85l.34.37L293.9 930.85l-.34-.37Z"/><path d="M359-637.93 1862.35 995.59l-.37.34L358.64-637.59l.37-.34Z"/><path d="M27.27 421.33 2193.6-63.81l.11.48L27.37 421.82l-.1-.49Z"/><path d="m868.15-904.22 485.16 2166.33-.49.11L867.67-904.11l.48-.11Z"/><path d="m51.22-152.74 2118.69 663-.15.48-2118.69-663 .15-.48Z"/><path d="m1442.23-880.27-663 2118.69-.48-.15 663-2118.69.48.15Z"/><path d="m9.7 36.24 2201.63 285.03-.06.5L9.64 36.72l.07-.5Z"/><path d="M1253.25-921.78 968.22 1279.84l-.5-.06 285.04-2201.63.49.07Z"/><path d="M228.57-495.03 1992.72 852.63l-.31.4L228.26-494.63l.3-.4Z"/><path d="M1784.52-702.92 436.86 1061.23l-.4-.31L1784.12-703.23l.4.3Z"/><path d="M683.74-845.69 1537.7 1203.5l-.46.2L683.27-845.49l.47-.2Z"/><path d="M2135.18-247.75 86 606.22l-.2-.47 2049.18-853.97.2.47Z"/><path d="M433.07-700.32 1788.3 1058.01l-.4.31L432.67-700.01l.4-.3Z"/><path d="M1989.81-498.42 231.48 856.82l-.3-.4L1989.5-498.82l.31.4Z"/><path d="M963.48-921.22 1258 1279.16l-.5.06-294.5-2200.38.5-.06Z"/><path d="M2210.71 32 10.33 326.5l-.06-.5L2210.65 31.5l.06.5Z"/><path d="M1533.29-847.32 688.15 1205.5l-.46-.19 845.14-2052.83.46.19Z"/><path d="M2136.81 601.8 83.98-243.34l.19-.46L2137 601.34l-.19.46Z"/><path d="m1.64 229.55 2217.67-101.6.03.5L1.66 230.04l-.02-.5Z"/><path d="m1059.94-929.85 101.6 2217.68-.5.02-101.6-2217.68.5-.02Z"/><path d="M124.92-331.64 2096.3 689.2l-.23.44L124.69-331.2l.23-.44Z"/><path d="M1621.13-806.57 600.29 1164.8l-.44-.23L1620.69-806.8l.44.23Z"/><path d="m512.28-756.01 1196.83 1869.75-.42.27L511.86-755.74l.42-.27Z"/><path d="M2045.5-419.2 175.74 777.62l-.26-.42L2045.23-419.63l.27.42Z"/><path d="M290.67-569.33 1930.65 926.96l-.34.37L290.33-568.96l.34-.37Z"/><path d="M1858.82-640.82 362.53 999.16l-.37-.34L1858.45-641.16l.37.34Z"/><path d="m774.67-878.98 672.12 2115.81-.48.15-672.12-2115.8.48-.16Z"/><path d="M2168.47-156.82 52.66 515.3l-.15-.48L2168.32-157.3l.15.48Z"/><path d="M1348.65-905.15 872.82 1263.26l-.5-.11 475.84-2168.4.49.1Z"/><path d="M2194.64 417.16 26.24-58.67l.1-.49 2168.41 475.83-.11.49Z"/><path d="m1044.86 1287.06 130.76-2216.15.5.03-130.76 2216.15-.5-.03Z"/><path d="m2.43 113.37 2216.15 130.76-.03.5L2.4 113.87l.03-.5Z"/><path d="M499.62 1105.79 1720.94-748.07l.41.28-1221.3 1853.86-.43-.28Z"/><path d="M183.7-431.87 2037.56 789.45l-.28.41L183.42-431.43l.28-.43Z"/><path d="m118.07 676.2 1984.62-994.84.22.45L118.29 676.64l-.22-.45Z"/><path d="m613.3-813.42 994.83 1984.62-.45.22L612.85-813.2l.45-.22Z"/><path d="M280.57 916.1 1940.08-558.47l.33.37L280.9 916.5l-.33-.38Z"/><path d="m373.38-650.92 1474.59 1659.51-.37.33L373-650.59l.38-.33Z"/><path d="M23.2 402.4 2197.68-44.89l.1.49L23.3 402.88l-.1-.49Z"/><path d="m887.1-908.29 447.27 2174.48-.49.1L886.61-908.19l.49-.1Z"/><path d="M57.17-171.18 2163.96 528.7l-.15.48L57.01-170.7l.16-.48Z"/><path d="M1460.67-874.32 760.78 1232.47l-.47-.15 699.88-2106.8.48.16Z"/><path d="m12.37 17.05 2196.31 323.4-.07.5L12.29 17.55l.08-.5Z"/><path d="m1272.44-919.12-323.4 2196.31-.5-.07L1271.95-919.2l.49.08Z"/><path d="M240.46-510.32 1980.82 867.92l-.31.4L240.15-509.92l.31-.4Z"/><path d="M1799.81-691.03 421.57 1049.33l-.4-.31L1799.41-691.34l.4.31Z"/><path d="m701.68-852.98 818.08 2063.77-.47.19L701.22-852.79l.46-.19Z"/><path d="M2142.47-229.8 78.7 588.26l-.19-.47 2063.77-818.07.19.46Z"/><path d="M448.52-712 1772.86 1069.7l-.4.3L448.12-711.71l.4-.3Z"/><path d="M2001.5-482.97 219.78 841.37l-.3-.4L2001.2-483.37l.3.4Z"/><path d="m982.7-923.62 256.07 2205.18-.5.06L982.21-923.56l.5-.06Z"/><path d="M2213.11 51.22 7.93 307.28l-.06-.5L2213.05 50.72l.06.5Z"/><path d="M1551.14-839.79 670.3 1198l-.46-.2 880.84-2037.78.46.2Z"/><path d="M2129.28 619.65 91.5-261.2l.2-.46 2037.78 880.84-.2.46Z"/><path d="m.93 210.2 2219.11-62.9.01.5L.95 210.7l-.02-.5Z"/><path d="m1079.3-930.56 62.88 2219.11-.5.01-62.88-2219.1.5-.02Z"/><path d="m133.98-348.77 1953.25 1055.1-.24.43L133.75-348.32l.23-.44Z"/><path d="M1638.25-797.5 583.16 1155.73l-.44-.23L1637.81-797.74l.44.23Z"/><path d="M528.7-766.31 1692.7 1124.05l-.42.26L528.27-766.05l.42-.26Z"/><path d="M2055.8-402.8 165.44 761.22l-.26-.43L2055.54-403.22l.26.42Z"/><path d="M303.85-583.52 1917.47 941.16l-.34.36L303.51-583.16l.34-.36Z"/><path d="M1873.01-627.64 348.33 985.98l-.36-.34L1872.65-627.98l.36.34Z"/><path d="m793.18-884.68 635.1 2127.22-.48.14L792.7-884.54l.48-.14Z"/><path d="M2174.17-138.3 46.95 496.78l-.14-.48 2127.22-635.1.14.48Z"/><path d="m1367.53-900.83-513.6 2159.77-.48-.11 513.6-2159.77.48.11Z"/><path d="M2190.32 436.04 30.55-77.56l.11-.48 2159.77 513.6-.11.48Z"/><path d="m1025.53 1285.74 169.42-2213.52.5.03-169.42 2213.53-.5-.04Z"/><path d="m3.75 94.04 2213.52 169.42-.04.5L3.71 94.54l.04-.5Z"/><path d="M483.54 1094.99 1737.02-737.27l.42.28L483.95 1095.27l-.4-.28Z"/><path d="M194.5-447.95 2026.76 805.53l-.28.42L194.22-447.54l.28-.4Z"/><path d="m109.54 658.8 2001.68-960.05.22.45L109.76 659.25l-.22-.45Z"/><path d="m630.7-821.95 960.04 2001.68-.45.22L630.24-821.73l.45-.22Z"/><path d="m267.83 901.51 1684.99-1445.4.33.38-1685 1445.4-.32-.38Z"/><path d="m387.98-663.66 1445.4 1684.99-.38.33-1445.4-1685 .38-.32Z"/><path d="M19.47 383.38 2201.42-25.88l.09.5L19.56 383.87l-.1-.49Z"/><path d="m906.1-912.02 409.26 2181.95-.49.09L905.61-911.93l.5-.1Z"/><path d="M63.45-189.5 2157.7 547.03l-.17.47L63.28-189.04l.17-.47Z"/><path d="M1479-868.04 742.45 1226.2l-.47-.17 736.55-2094.25.47.17Z"/><path d="M15.36-2.1 2205.7 359.6l-.08.5L15.28-1.6l.08-.5Z"/><path d="m1291.58-916.13-361.7 2190.34-.48-.08 361.69-2190.34.49.08Z"/><path d="M252.63-525.4 1968.67 883l-.32.4L252.31-525l.32-.4Z"/><path d="M1814.88-678.86 406.48 1037.18l-.39-.32L1814.5-679.18l.38.32Z"/><path d="m719.76-859.96 781.93 2077.74-.47.17L719.29-859.78l.47-.18Z"/><path d="M2149.44-211.73 71.71 570.2l-.18-.47L2149.27-212.2l.17.47Z"/><path d="m464.17-723.42 1293.05 1804.55-.41.29L463.76-723.13l.4-.3Z"/><path d="M2012.91-467.32 208.35 825.73l-.29-.41L2012.62-467.73l.29.4Z"/><path d="m1001.97-925.68 217.53 2209.31-.49.05-217.54-2209.31.5-.05Z"/><path d="M2215.17 70.48 5.86 288.01l-.05-.5L2215.12 69.99l.05.5Z"/><path d="M1568.85-831.94 652.58 1190.15l-.45-.21L1568.4-832.15l.45.2Z"/><path d="M2121.43 637.36 99.34-278.9l.2-.45 2022.1 916.27-.21.45Z"/><path d="m.55 190.82 2219.87-24.15.01.5L.56 191.32v-.5Z"/><path d="m1098.66-930.94 24.15 2219.87-.5.01-24.15-2219.87h.5Z"/><path d="M143.34-365.73 2077.88 723.3l-.24.44L143.1-365.3l.24-.44Z"/><path d="M1655.22-788.15 566.2 1146.4l-.44-.24L1654.78-788.39l.44.24Z"/><path d="m545.28-776.32 1130.85 1910.39-.43.25L544.85-776.07l.43-.25Z"/><path d="M2065.81-386.21 155.42 744.64l-.25-.43L2065.56-386.64l.25.43Z"/><path d="m317.28-597.48 1586.76 1552.6-.34.36L316.93-597.12l.35-.36Z"/><path d="M1886.97-614.2 334.37 972.55l-.36-.35L1886.6-614.56l.36.35Z"/><path d="m811.8-890.06 597.87 2137.98-.49.14L811.31-889.92l.48-.14Z"/><path d="M2179.55-119.7 41.57 478.19l-.14-.49 2137.98-597.87.14.49Z"/><path d="M1386.34-896.18 835.12 1254.3l-.48-.12L1385.86-896.3l.48.12Z"/><path d="M2185.67 454.85 35.19-96.37l.12-.48L2185.8 454.37l-.12.48Z"/></g><g fill-rule="evenodd" clip-rule="evenodd" opacity=".7"><path fill="url(#paint1_linear_10001_12461)" d="M135.52 334.92c-14.24-8.43-30.8-11.04-46.79-8.14-31.67 4.07-54.63-30.5-38.36-58.12 15.7-27.9 57.25-24.99 69.46 4.36 28.77 74.4 135.12 74.4 164.18 0 11.92-29.35 53.76-32.25 69.45-4.36 15.99 27.61-6.97 62.2-38.35 58.12a69.34 69.34 0 0 0-46.8 8.14c-14.52 8.14-24.98 20.92-30.5 36.32-12.79 31.68-59 31.68-71.78 0a69.3 69.3 0 0 0-30.51-36.32Zm66.25-40.1c-31.67 0-50.27-36.9-30.8-62.48a68.11 68.11 0 0 0 16.27-44.46 69.27 69.27 0 0 0-16.27-44.46c-19.76-25.57-.87-62.77 30.8-62.48 31.68 0 50.28 36.9 30.8 62.48a68.11 68.11 0 0 0-16.27 44.46 69.27 69.27 0 0 0 16.28 44.46c19.76 25.57.87 62.77-30.8 62.48Z"/><path fill="url(#paint2_linear_10001_12461)" d="M493.5 141.02c14.24 8.43 30.8 11.04 46.79 8.14 31.67-4.07 54.63 30.5 38.36 58.12-15.7 27.9-57.25 24.99-69.45-4.36-28.77-74.4-135.13-74.4-164.19 0-11.91 29.35-53.76 32.25-69.45 4.36-15.98-27.61 6.97-62.2 38.36-58.12 15.98 2.9 32.54 0 46.78-8.14 14.53-8.14 25-20.92 30.51-36.33 12.8-31.67 59-31.67 71.78 0a69.3 69.3 0 0 0 30.51 36.33Zm-66.25 40.1c31.67 0 50.27 36.9 30.8 62.48a68.12 68.12 0 0 0-16.27 44.46 69.27 69.27 0 0 0 16.27 44.46c19.76 25.57.87 62.77-30.8 62.48-31.68 0-50.27-36.9-30.8-62.48a68.11 68.11 0 0 0 16.27-44.46 69.27 69.27 0 0 0-16.27-44.46c-19.76-25.57-.88-62.77 30.8-62.48Z"/><path fill="url(#paint3_linear_10001_12461)" d="M586.2 334.92c-14.25-8.43-30.81-11.04-46.8-8.14-31.67 4.07-54.63-30.5-38.35-58.12 15.69-27.9 57.24-24.99 69.45 4.36 28.77 74.4 135.13 74.4 164.18 0 11.92-29.35 53.76-32.25 69.46-4.36 15.98 27.61-6.98 62.2-38.36 58.12a69.34 69.34 0 0 0-46.79 8.14c-14.53 8.14-24.99 20.92-30.51 36.32-12.79 31.68-58.99 31.68-71.78 0a69.3 69.3 0 0 0-30.5-36.32Zm66.25-40.1c-31.68 0-50.28-36.9-30.8-62.48a68.11 68.11 0 0 0 16.27-44.46 69.26 69.26 0 0 0-16.28-44.46c-19.76-25.57-.87-62.77 30.8-62.48 31.68 0 50.28 36.9 30.8 62.48a68.11 68.11 0 0 0-16.26 44.46 69.27 69.27 0 0 0 16.27 44.46c19.76 25.57.87 62.77-30.8 62.48Z"/><path fill="url(#paint4_linear_10001_12461)" d="M944.18 141.02c14.24 8.43 30.8 11.04 46.78 8.14 31.68-4.07 54.63 30.5 38.36 58.12-15.69 27.9-57.25 24.99-69.45-4.36-28.77-74.4-135.13-74.4-164.19 0-11.91 29.35-53.76 32.25-69.45 4.36-15.98-27.61 6.98-62.2 38.36-58.12 15.98 2.9 32.55 0 46.78-8.14 14.53-8.14 25-20.92 30.52-36.33 12.78-31.67 58.99-31.67 71.77 0a69.3 69.3 0 0 0 30.52 36.33Zm-66.26 40.1c31.68 0 50.27 36.9 30.8 62.48a68.12 68.12 0 0 0-16.27 44.46 69.27 69.27 0 0 0 16.27 44.46c19.76 25.57.88 62.77-30.8 62.48-31.67 0-50.27-36.9-30.8-62.48a68.11 68.11 0 0 0 16.27-44.46 69.27 69.27 0 0 0-16.27-44.46c-19.76-25.57-.87-62.77 30.8-62.48Z"/></g><g fill-rule="evenodd" clip-rule="evenodd" opacity=".6"><path fill="url(#paint5_linear_10001_12461)" d="M1831.83 141.02c-14.24 8.43-30.8 11.04-46.78 8.14-31.68-4.07-54.63 30.5-38.36 58.12 15.69 27.9 57.25 24.99 69.45-4.36 28.77-74.4 135.13-74.4 164.19 0 11.91 29.35 53.76 32.25 69.45 4.36 15.98-27.61-6.98-62.2-38.36-58.12a69.36 69.36 0 0 1-46.79-8.14c-14.53-8.14-24.99-20.92-30.51-36.33-12.78-31.67-58.99-31.67-71.78 0a69.3 69.3 0 0 1-30.51 36.33Zm66.26 40.1c-31.68 0-50.28 36.9-30.8 62.48a68.12 68.12 0 0 1 16.27 44.46 69.27 69.27 0 0 1-16.27 44.46c-19.77 25.57-.88 62.77 30.8 62.48 31.67 0 50.27-36.9 30.8-62.48a68.12 68.12 0 0 1-16.27-44.46 69.27 69.27 0 0 1 16.27-44.46c19.76-25.57.87-62.77-30.8-62.48Z"/><path fill="url(#paint6_linear_10001_12461)" d="M1739.14 334.92c14.24-8.43 30.81-11.04 46.79-8.14 31.68 4.07 54.63-30.5 38.36-58.12-15.69-27.9-57.25-24.99-69.45 4.36-28.77 74.4-135.13 74.4-164.19 0-11.91-29.35-53.76-32.25-69.45-4.36-15.98 27.61 6.97 62.2 38.36 58.12 15.98-2.9 32.54 0 46.78 8.14 14.53 8.14 24.99 20.92 30.52 36.32 12.78 31.68 58.99 31.68 71.77 0a69.33 69.33 0 0 1 30.51-36.32Zm-66.25-40.1c31.67 0 50.27-36.9 30.8-62.48a68.12 68.12 0 0 1-16.27-44.46 69.27 69.27 0 0 1 16.27-44.46c19.76-25.57.87-62.77-30.8-62.48-31.67 0-50.27 36.9-30.8 62.48a68.11 68.11 0 0 1 16.27 44.46 69.27 69.27 0 0 1-16.27 44.46c-19.76 25.57-.87 62.77 30.8 62.48Z"/><path fill="url(#paint7_linear_10001_12461)" d="M1381.16 141.02c-14.24 8.43-30.8 11.04-46.79 8.14-31.67-4.07-54.63 30.5-38.35 58.12 15.69 27.9 57.24 24.99 69.45-4.36 28.77-74.4 135.12-74.4 164.18 0 11.92 29.35 53.76 32.25 69.46 4.36 15.98-27.61-6.98-62.2-38.36-58.12a69.35 69.35 0 0 1-46.79-8.14c-14.53-8.14-24.99-20.92-30.51-36.33-12.79-31.67-58.99-31.67-71.78 0a69.3 69.3 0 0 1-30.51 36.33Zm66.26 40.1c-31.68 0-50.28 36.9-30.81 62.48a68.13 68.13 0 0 1 16.28 44.46 69.28 69.28 0 0 1-16.28 44.46c-19.76 25.57-.87 62.77 30.81 62.48 31.67 0 50.27-36.9 30.8-62.48a68.12 68.12 0 0 1-16.27-44.46 69.27 69.27 0 0 1 16.27-44.46c19.76-25.57.87-62.77-30.8-62.48Z"/></g><g fill-rule="evenodd" clip-rule="evenodd" opacity=".6"><path fill="url(#paint8_linear_10001_12461)" d="M593.17 653.92c14.24-8.43 30.8-11.04 46.78-8.14 31.68 4.07 54.63-30.5 38.36-58.12-15.7-27.9-57.25-24.99-69.45 4.36-28.77 74.4-135.13 74.4-164.19 0-11.91-29.35-53.76-32.25-69.45-4.36-15.98 27.61 6.98 62.2 38.36 58.12 15.98-2.9 32.55 0 46.79 8.14 14.52 8.14 24.99 20.92 30.5 36.32 12.8 31.68 59 31.68 71.78 0a69.3 69.3 0 0 1 30.52-36.32Zm-66.26-40.1c31.68 0 50.27-36.9 30.8-62.48a68.1 68.1 0 0 1-16.27-44.46 69.26 69.26 0 0 1 16.27-44.46c19.76-25.57.88-62.77-30.8-62.48-31.67 0-50.27 36.9-30.8 62.48a68.1 68.1 0 0 1 16.27 44.46 69.26 69.26 0 0 1-16.27 44.46c-19.76 25.57-.87 62.77 30.8 62.48Z"/><path fill="url(#paint9_linear_10001_12461)" d="M818.5 460.02c14.24 8.43 30.8 11.04 46.79 8.14 31.67-4.07 54.63 30.5 38.36 58.11-15.7 27.9-57.25 25-69.45-4.35-28.77-74.4-135.13-74.4-164.19 0-11.91 29.35-53.76 32.25-69.45 4.36-15.98-27.61 6.97-62.2 38.36-58.12 15.98 2.9 32.54 0 46.78-8.14 14.53-8.14 25-20.92 30.51-36.32 12.8-31.68 59-31.68 71.78 0a69.3 69.3 0 0 0 30.51 36.32Zm-66.25 40.1c31.67 0 50.27 36.9 30.8 62.48a68.12 68.12 0 0 0-16.27 44.46 69.27 69.27 0 0 0 16.27 44.46c19.76 25.57.87 62.77-30.8 62.48-31.68 0-50.27-36.9-30.8-62.48a68.11 68.11 0 0 0 16.27-44.46 69.27 69.27 0 0 0-16.27-44.46c-19.77-25.57-.88-62.77 30.8-62.48Z"/></g><g fill-rule="evenodd" clip-rule="evenodd" opacity=".6"><path fill="url(#paint10_linear_10001_12461)" d="M1587.84 658.21c-14.24-8.43-30.81-11.04-46.79-8.13-31.67 4.06-54.63-30.52-38.36-58.12 15.69-27.9 57.25-25 69.45 4.36 28.77 74.39 135.13 74.39 164.19 0 11.91-29.36 53.76-32.26 69.45-4.36 15.98 27.6-6.97 62.18-38.36 58.12a69.33 69.33 0 0 0-46.78 8.13c-14.53 8.14-24.99 20.92-30.51 36.33-12.79 31.67-58.99 31.67-71.78 0a69.29 69.29 0 0 0-30.51-36.33Zm66.25-40.1c-31.67 0-50.27-36.9-30.8-62.48a68.12 68.12 0 0 0 16.27-44.46 69.27 69.27 0 0 0-16.27-44.46c-19.76-25.57-.87-62.77 30.8-62.48 31.68 0 50.27 36.9 30.8 62.48a68.12 68.12 0 0 0-16.27 44.46 69.27 69.27 0 0 0 16.27 44.46c19.77 25.57.88 62.77-30.8 62.48Z"/><path fill="url(#paint11_linear_10001_12461)" d="M1495.15 464.31c14.24 8.43 30.8 11.04 46.78 8.14 31.68-4.07 54.64 30.51 38.36 58.12-15.69 27.9-57.24 24.99-69.45-4.36-28.77-74.4-135.13-74.4-164.19 0-11.91 29.35-53.76 32.25-69.45 4.36-15.98-27.61 6.98-62.2 38.36-58.12 15.98 2.9 32.55 0 46.79-8.14 14.53-8.14 24.99-20.92 30.51-36.32 12.79-31.68 58.99-31.68 71.78 0a69.3 69.3 0 0 0 30.51 36.32Zm-66.26 40.1c31.68 0 50.28 36.9 30.81 62.48a68.07 68.07 0 0 0-16.28 44.46 69.22 69.22 0 0 0 16.28 44.46c19.76 25.57.87 62.77-30.81 62.48-31.67 0-50.27-36.9-30.8-62.48a68.11 68.11 0 0 0 16.27-44.46 69.27 69.27 0 0 0-16.27-44.46c-19.76-25.57-.87-62.77 30.8-62.48Z"/><path fill="url(#paint12_linear_10001_12461)" d="M1137.16 658.21c-14.24-8.43-30.8-11.04-46.78-8.13-31.68 4.06-54.63-30.52-38.36-58.12 15.69-27.9 57.25-25 69.45 4.36 28.77 74.39 135.13 74.39 164.19 0 11.91-29.36 53.76-32.26 69.45-4.36 15.98 27.6-6.98 62.18-38.36 58.12a69.36 69.36 0 0 0-46.79 8.13c-14.53 8.14-24.99 20.92-30.51 36.33-12.79 31.67-58.99 31.67-71.78 0a69.29 69.29 0 0 0-30.51-36.33Zm66.26-40.1c-31.68 0-50.28-36.9-30.81-62.48a68.08 68.08 0 0 0 16.28-44.46 69.23 69.23 0 0 0-16.28-44.46c-19.76-25.57-.87-62.77 30.81-62.48 31.67 0 50.27 36.9 30.8 62.48a68.12 68.12 0 0 0-16.27 44.46 69.27 69.27 0 0 0 16.27 44.46c19.76 25.57.87 62.77-30.8 62.48Z"/></g><defs><linearGradient id="paint1_linear_10001_12461" x1="33.06" x2="389.69" y1="228.51" y2="297.15" gradientUnits="userSpaceOnUse"><stop stop-color="#EBECEC" stop-opacity="0"/><stop offset="1" stop-color="#EBECEC"/></linearGradient><linearGradient id="paint2_linear_10001_12461" x1="427.18" x2="427.18" y1="80.94" y2="395" gradientUnits="userSpaceOnUse"><stop stop-color="#EBECEC"/><stop offset="1" stop-color="#EBECEC"/></linearGradient><linearGradient id="paint3_linear_10001_12461" x1="652.52" x2="652.52" y1="395" y2="80.94" gradientUnits="userSpaceOnUse"><stop stop-color="#EBECEC"/><stop offset="1" stop-color="#EBECEC"/></linearGradient><linearGradient id="paint4_linear_10001_12461" x1="1046.63" x2="690" y1="247.43" y2="178.79" gradientUnits="userSpaceOnUse"><stop stop-color="#EBECEC" stop-opacity="0"/><stop offset="1" stop-color="#EBECEC"/></linearGradient><linearGradient id="paint5_linear_10001_12461" x1="1898.16" x2="1898.16" y1="80.94" y2="395" gradientUnits="userSpaceOnUse"><stop stop-color="#EBECEC"/><stop offset="1" stop-color="#EBECEC"/></linearGradient><linearGradient id="paint6_linear_10001_12461" x1="1672.82" x2="1672.82" y1="395" y2="80.94" gradientUnits="userSpaceOnUse"><stop stop-color="#EBECEC"/><stop offset="1" stop-color="#EBECEC"/></linearGradient><linearGradient id="paint7_linear_10001_12461" x1="1278.7" x2="1635.33" y1="247.43" y2="178.79" gradientUnits="userSpaceOnUse"><stop stop-color="#EBECEC" stop-opacity="0"/><stop offset="1" stop-color="#EBECEC"/></linearGradient><linearGradient id="paint8_linear_10001_12461" x1="526.84" x2="526.84" y1="714" y2="399.94" gradientUnits="userSpaceOnUse"><stop stop-color="#EBECEC"/><stop offset="1" stop-color="#EBECEC"/></linearGradient><linearGradient id="paint9_linear_10001_12461" x1="920.96" x2="564.33" y1="566.43" y2="497.79" gradientUnits="userSpaceOnUse"><stop stop-color="#EBECEC" stop-opacity="0"/><stop offset="1" stop-color="#EBECEC"/></linearGradient><linearGradient id="paint10_linear_10001_12461" x1="1654.16" x2="1654.16" y1="718.29" y2="404.23" gradientUnits="userSpaceOnUse"><stop stop-color="#EBECEC"/><stop offset="1" stop-color="#EBECEC"/></linearGradient><linearGradient id="paint11_linear_10001_12461" x1="1428.82" x2="1428.82" y1="404.23" y2="718.29" gradientUnits="userSpaceOnUse"><stop stop-color="#EBECEC"/><stop offset="1" stop-color="#EBECEC"/></linearGradient><linearGradient id="paint12_linear_10001_12461" x1="1034.71" x2="1391.33" y1="551.8" y2="620.44" gradientUnits="userSpaceOnUse"><stop stop-color="#EBECEC" stop-opacity="0"/><stop offset="1" stop-color="#EBECEC"/></linearGradient><radialGradient id="paint0_radial_10001_12461" cx="0" cy="0" r="1" gradientTransform="translate(1061.31 -665.24) rotate(90.3745) scale(1880.72)" gradientUnits="userSpaceOnUse"><stop offset=".47" stop-color="#CECFCF" stop-opacity="0"/><stop offset="1" stop-color="#CECFCF"/></radialGradient></defs></svg>
