<svg xmlns="http://www.w3.org/2000/svg" fill="none" viewBox="0 0 1246 717"><mask id="mask0_10005_15647" width="1402" height="1403" x="-78" y="-531" maskUnits="userSpaceOnUse" style="mask-type:alpha"><circle cx="623" cy="170.78" r="701" fill="url(#paint0_radial_10005_15647)" fill-opacity=".6"/></mask><g fill="#CECFCF" fill-rule="evenodd" clip-rule="evenodd" mask="url(#mask0_10005_15647)"><path d="M622.75 871.78v-1402h.5v1402h-.5Z"/><path d="M-78 170.53h1402v.5H-78v-.5Z"/><path d="m272.28 777.74 701-1214.17.44.25L272.72 778l-.44-.25Z"/><path d="m16.04-179.94 1214.17 701-.25.44-1214.17-701 .25-.44Z"/><path d="m15.8 521.07 1214.16-701 .25.43-1214.17 701-.25-.43Z"/><path d="m272.72-436.43 701 1214.17-.44.25-701-1214.17.44-.25Z"/><path d="m127.14 666.29 991.37-991.37.35.36L127.5 666.64l-.36-.35Z"/><path d="m127.5-325.08 991.36 991.37-.35.35-991.37-991.36.36-.36Z"/><path d="M-54.18 351.97 1300.05-10.89l.13.48L-54.05 352.46l-.13-.49Z"/><path d="M441.8-506.4 804.68 847.83l-.48.13L441.33-506.27l.48-.13Z"/><path d="m-54.05-10.9 1354.23 362.87-.13.49L-54.18-10.41l.13-.48Z"/><path d="M804.67-506.27 441.81 847.96l-.48-.13L804.19-506.4l.48.13Z"/><path d="m-75.31 109.44 1396.66 122.19-.04.5-1396.66-122.2.04-.5Z"/><path d="M684.35-527.53 562.14 869.14l-.5-.05 122.2-1396.66.5.04Z"/><path d="m48.92-231.5 1148.45 804.15-.29.41L48.63-231.09l.29-.41Z"/><path d="M1025.28-403.3 221.13 745.15l-.41-.28L1024.87-403.6l.41.29Z"/><path d="M326.97-464.64 919.48 806l-.45.2L326.52-464.42l.45-.21Z"/><path d="M1258.43-125.25-12.22 467.26l-.2-.45L1258.21-125.7l.21.45Z"/><path d="m172.6-366.38 901.19 1074-.39.32-901.19-1074 .39-.31Z"/><path d="m1160.16-279.62-1074 901.19-.32-.39 1074-901.18.32.38Z"/><path d="m501.52-519.61 243.45 1380.7-.49.09-243.45-1380.7.49-.1Z"/><path d="M1313.39 49.3-67.31 292.76l-.08-.5L1313.3 48.81l.08.5Z"/><path d="M863-487.86 383.47 829.6l-.47-.17L862.52-488.03l.47.17Z"/><path d="M1281.64 410.77-35.81-68.73l.17-.48L1281.81 410.3l-.17.47Z"/><path d="m-75.35 231.63 1396.66-122.2.04.5-1396.66 122.2-.04-.5Z"/><path d="m562.15-527.57 122.2 1396.66-.5.05-122.2-1396.67.5-.04Z"/><path d="m-12.22-125.7 1270.65 592.51-.21.45-1270.65-592.5.21-.46Z"/><path d="M919.48-464.43 326.98 806.2l-.46-.21 592.5-1270.64.46.2Z"/><path d="m221.13-403.59 804.15 1148.45-.41.3L220.72-403.3l.4-.29Z"/><path d="M1197.37-231.09 48.92 573.06l-.29-.4L1197.08-231.5l.29.41Z"/><path d="m86.16-280 1074 901.18-.32.39-1074-901.2.32-.37Z"/><path d="M1073.79-366.05 172.59 707.94l-.38-.32 901.19-1074 .39.33Z"/><path d="M383.48-488.03 862.99 829.42l-.47.17L383.01-487.86l.47-.17Z"/><path d="M1281.81-68.74-35.64 410.77l-.17-.47L1281.64-69.2l.17.46Z"/><path d="M744.97-519.52 501.52 861.18l-.5-.1 243.46-1380.7.5.1Z"/><path d="M1313.31 292.76-67.39 49.3l.08-.5 1380.7 243.46-.08.5Z"/><path d="M610.52 871.67 634.98-530.1h.5L611.02 871.68h-.5Z"/><path d="m-77.89 158.3 1401.79 24.47-.01.5L-77.9 158.8l.01-.5Z"/><path d="M261.74 771.53 983.83-430.22l.43.26L262.17 771.78l-.43-.25Z"/><path d="M22.25-190.47 1224 531.6l-.25.43L22-190.05l.25-.42Z"/><path d="m9.77 510.42 1226.22-679.7.24.43L10.01 510.85l-.24-.44Z"/><path d="m283.37-442.45 679.7 1226.22-.44.24L282.93-442.2l.44-.25Z"/><path d="m118.57 657.56 1008.51-973.91.35.36L118.92 657.9l-.35-.35Z"/><path d="m136.22-333.65 973.91 1008.52-.35.34L135.86-333.3l.36-.35Z"/><path d="M-57.24 340.13 1303.12.95l.12.49L-57.12 340.6l-.12-.48Z"/><path d="M453.65-509.46 792.84 850.9l-.49.12L453.17-509.34l.48-.12Z"/><path d="m-50.78-22.68 1347.69 386.44-.13.48L-50.92-22.2l.14-.48Z"/><path d="M816.46-503 430.02 844.7l-.48-.14 386.44-1347.7.48.15Z"/><path d="M-74.13 97.26 1320.19 243.8l-.06.5L-74.19 97.75l.06-.5Z"/><path d="M696.52-526.35 549.97 867.97l-.5-.05L696.03-526.4l.5.05Z"/><path d="m56.03-241.46 1134.24 824.08-.3.4L55.73-241.05l.3-.4Z"/><path d="M1035.24-396.2 211.16 738.06l-.4-.3 824.08-1134.24.4.3Z"/><path d="M338.1-469.71 908.36 811.08l-.46.2-570.24-1280.8.46-.2Z"/><path d="M1263.5-114.11-17.3 456.13l-.2-.45L1263.3-114.57l.21.46Z"/><path d="M182.04-374.15 1064.35 715.4l-.39.32-882.3-1089.56.38-.31Z"/><path d="M1167.94-270.18 78.38 612.13l-.32-.39 1089.56-882.3.32.38Z"/><path d="M513.59-521.63 732.9 863.11l-.5.08L513.1-521.55l.5-.08Z"/><path d="M1315.41 61.37-69.33 280.69l-.08-.5L1315.33 60.88l.08.5Z"/><path d="M874.45-483.57 372.02 825.31l-.47-.18L873.98-483.75l.47.18Z"/><path d="M1277.35 422.23-31.53-80.2l.18-.47 1308.88 502.44-.18.46Z"/><path d="m-76.31 219.43 1398.58-97.8.04.5-1398.59 97.8-.03-.5Z"/><path d="m574.35-528.53 97.8 1398.59-.5.03-97.8-1398.58.5-.04Z"/><path d="m-6.95-136.74 1260.11 614.6-.22.44L-7.16-136.3l.21-.44Z"/><path d="m930.52-459.16-614.6 1260.1-.44-.21 614.6-1260.11.44.22Z"/><path d="m231.21-410.51 783.99 1162.3-.41.29-784-1162.31.42-.28Z"/><path d="M1204.3-221 41.98 562.98l-.27-.41 1162.31-783.99.28.41Z"/><path d="m94.11-289.3 1058.11 919.8-.33.37-1058.1-919.8.32-.37Z"/><path d="M1083.09-358.1 163.29 700l-.38-.33 919.8-1058.1.38.32Z"/><path d="M395.01-492.1 851.46 833.5l-.47.17L394.54-491.94l.47-.17Z"/><path d="M1285.89-57.2-39.73 399.24l-.16-.47L1285.73-57.68l.16.48Z"/><path d="M757-517.29 489.5 858.95l-.5-.1L756.52-517.38l.5.1Z"/><path d="M1311.07 304.79-65.17 37.27l.1-.49 1376.24 267.51-.1.5Z"/><path d="M598.29 871.35 647.22-529.8l.5.02-48.93 1401.14-.5-.01Z"/><path d="M-77.56 146.07 1323.58 195l-.02.5-1401.14-48.93.02-.5Z"/><path d="M251.31 765.13 994.26-423.83l.42.26L251.74 765.4l-.43-.27Z"/><path d="m28.65-200.9 1188.96 742.94-.26.43L28.39-200.48l.26-.42Z"/><path d="m3.94 499.66 1237.89-658.2.23.44L4.17 500.1l-.23-.44Z"/><path d="m294.12-448.28 658.2 1237.9-.44.23-658.2-1237.9.44-.23Z"/><path d="m110.15 648.68 1025.36-956.16.34.36L110.49 649.05l-.34-.37Z"/><path d="M145.1-342.07 1101.26 683.3l-.36.34L144.74-341.73l.36-.34Z"/><path d="M-60.09 328.23 1305.98 12.85l.11.48L-59.98 328.72l-.11-.5Z"/><path d="M465.55-512.3 780.93 853.75l-.48.11L465.07-512.2l.48-.1Z"/><path d="m-47.3-34.41 1340.74 409.9-.14.48L-47.44-33.93l.14-.48Z"/><path d="M828.2-499.51 418.28 841.23l-.48-.15L827.7-499.66l.48.15Z"/><path d="M-72.74 85.1 1318.8 255.96l-.06.5L-72.81 85.6l.07-.5Z"/><path d="M708.68-524.96 537.82 866.59l-.5-.06L708.18-525.02l.5.06Z"/><path d="M63.3-251.29 1183 592.46l-.3.4L63.01-250.9l.3-.4Z"/><path d="M1045.07-388.91 201.33 730.78l-.4-.3 843.74-1119.7.4.3Z"/><path d="m349.33-474.59 547.8 1290.55-.46.2L348.87-474.4l.46-.2Z"/><path d="M1268.37-102.89-22.18 444.91l-.2-.46 1290.56-547.8.19.46Z"/><path d="m191.62-381.77 863.16 1104.8-.4.3L191.22-381.46l.4-.3Z"/><path d="M1175.55-260.6 70.75 602.56l-.3-.4 1104.79-863.15.31.39Z"/><path d="M525.69-523.43 720.8 864.93l-.5.07L525.2-523.36l.5-.07Z"/><path d="M1317.21 73.47-71.14 268.59l-.07-.5L1317.14 72.98l.07.5Z"/><path d="M885.83-479.08 360.63 820.83l-.46-.19 525.2-1299.9.46.18Z"/><path d="M1272.86 433.61-27.05-91.59l.19-.46 1299.91 525.2-.19.46Z"/><path d="m-77.05 207.22 1400.08-73.38.02.5-1400.08 73.38-.02-.5Z"/><path d="m586.56-529.27 73.38 1400.08-.5.03-73.38-1400.08.5-.03Z"/><path d="m-1.48-147.69 1249.19 636.5-.23.44L-1.71-147.25l.23-.44Z"/><path d="M941.47-453.7 304.97 795.5l-.44-.24 636.5-1249.19.44.23Z"/><path d="M241.42-417.26 1005 758.55l-.42.28L241-417l.42-.27Z"/><path d="M1211.04-210.8 35.23 552.78l-.27-.42 1175.81-763.58.27.42Z"/><path d="m102.22-298.46 1041.89 938.12-.33.37L101.88-298.1l.34-.37Z"/><path d="M1092.25-350 154.12 691.9l-.37-.34 938.12-1041.89.38.33Z"/><path d="M406.62-495.99 839.86 837.4l-.48.15L406.14-495.83l.48-.16Z"/><path d="M1289.77-45.6-43.61 387.64l-.16-.47L1289.61-46.08l.16.48Z"/><path d="M768.99-514.85 477.49 856.52l-.48-.1L768.5-514.96l.48.1Z"/><path d="M1308.63 316.77-62.73 25.28l.1-.49 1371.36 291.5-.1.48Z"/><path d="m586.06 870.8 73.38-1400.07.5.03-73.38 1400.07-.5-.02Z"/><path d="m-77.03 133.84 1400.08 73.38-.02.5-1400.08-73.38.02-.5Z"/><path d="m241 758.55 763.58-1175.81.42.27L241.42 758.83l-.42-.28Z"/><path d="m35.23-211.22 1175.81 763.58-.27.42L34.96-210.8l.27-.42Z"/><path d="m-1.7 488.8 1249.18-636.49.23.45-1249.2 636.5-.22-.45Z"/><path d="m304.98-453.93 636.49 1249.2-.45.22L304.53-453.7l.45-.23Z"/><path d="m101.89 639.66 1041.89-938.12.33.37L102.22 640.03l-.33-.37Z"/><path d="m154.13-350.33 938.12 1041.89-.37.33L153.75-350l.38-.33Z"/><path d="M-62.73 316.28 1308.63 24.8l.1.5L-62.63 316.76l-.1-.49Z"/><path d="M477.5-514.95 769 856.4l-.5.1L477-514.84l.5-.1Z"/><path d="m-43.61-46.08 1333.38 433.25-.16.47L-43.77-45.6l.16-.48Z"/><path d="M839.86-495.83 406.62 837.55l-.48-.15L839.38-496l.48.16Z"/><path d="M-71.14 72.97 1317.2 268.1l-.07.49L-71.21 73.47l.07-.5Z"/><path d="M720.8-523.36 525.7 865l-.5-.08L720.31-523.42l.5.07Z"/><path d="m70.76-261 1104.79 863.16-.31.4L70.45-260.6l.3-.4Z"/><path d="M1054.78-381.46 191.62 723.34l-.4-.32 863.16-1104.79.4.31Z"/><path d="m360.63-479.27 525.2 1299.91-.46.2-525.2-1299.92.46-.19Z"/><path d="M1273.05-91.59-26.86 433.61l-.19-.46 1299.91-525.2.19.46Z"/><path d="m201.33-389.21 843.74 1119.68-.4.3L200.93-388.9l.4-.3Z"/><path d="M1182.99-250.9 63.31 592.86l-.3-.4 1119.68-843.74.3.4Z"/><path d="M537.82-525.02 708.68 866.53l-.5.06L537.32-524.96l.5-.06Z"/><path d="M1318.8 85.6-72.74 256.46l-.07-.5L1318.74 85.1l.06.5Z"/><path d="M897.13-474.4 349.33 816.16l-.46-.2 547.8-1290.54.46.2Z"/><path d="M1268.18 444.91-22.37-102.89l.2-.46 1290.54 547.8-.19.46Z"/><path d="m-77.58 195 1401.14-48.93.02.5L-77.56 195.5l-.02-.5Z"/><path d="m598.79-529.8 48.93 1401.15-.5.01-48.93-1401.14.5-.02Z"/><path d="m4.17-158.54 1237.89 658.2-.23.44L3.93-158.1l.24-.44Z"/><path d="m952.32-448.05-658.2 1237.9-.44-.24 658.2-1237.9.44.24Z"/><path d="M251.74-423.83 994.69 765.13l-.43.27L251.32-423.57l.42-.26Z"/><path d="M1217.61-200.48 28.65 542.47l-.26-.43L1217.35-200.9l.26.42Z"/><path d="m110.5-307.48 1025.35 956.16-.34.37L110.15-307.13l.34-.36Z"/><path d="M1101.26-341.73 145.1 683.63l-.36-.34L1100.9-342.07l.36.34Z"/><path d="m418.29-499.66 409.9 1340.74-.48.14L417.81-499.5l.48-.15Z"/><path d="M1293.44-33.93-47.3 375.97l-.14-.47L1293.3-34.4l.14.47Z"/><path d="M780.93-512.2 465.55 853.87l-.48-.11L780.45-512.31l.48.11Z"/><path d="M1305.98 328.72-60.09 13.33l.11-.48L1306.1 328.23l-.11.49Z"/><path d="m573.85 870.06 97.8-1398.59.5.04-97.8 1398.58-.5-.03Z"/><path d="m-76.28 121.63 1398.59 97.8-.04.5-1398.58-97.8.03-.5Z"/><path d="m230.8 751.8 783.99-1162.31.41.28-783.99 1162.3-.41-.27Z"/><path d="M41.98-221.42 1204.3 562.57l-.27.41L41.7-221l.28-.41Z"/><path d="m-7.16 477.86 1260.1-614.6.22.45L-6.94 478.3l-.22-.45Z"/><path d="m315.93-459.38 614.6 1260.1-.46.23-614.6-1260.11.46-.22Z"/><path d="M93.78 630.5 1151.9-289.3l.33.37-1058.1 919.8-.34-.38Z"/><path d="m163.3-358.43 919.79 1058.1-.38.33-919.8-1058.1.38-.33Z"/><path d="M-65.17 304.3 1311.07 36.77l.1.49L-65.07 304.78l-.1-.49Z"/><path d="M489.49-517.39 757 858.85l-.49.1L489-517.29l.49-.1Z"/><path d="M-39.73-57.68 1285.9 398.77l-.16.47L-39.89-57.2l.16-.48Z"/><path d="M851.46-491.94 395.01 833.66l-.47-.16L850.99-492.11l.47.17Z"/><path d="M-69.33 60.87 1315.4 280.2l-.08.5L-69.41 61.37l.08-.5Z"/><path d="M732.9-521.55 513.6 863.2l-.5-.08L732.41-521.63l.5.08Z"/><path d="m78.38-270.57 1089.56 882.31-.32.39L78.06-270.17l.32-.4Z"/><path d="M1064.35-373.84 182.05 715.72l-.4-.32 882.31-1089.55.39.31Z"/><path d="M372.02-483.75 874.45 825.13l-.47.18L371.55-483.57l.47-.18Z"/><path d="M1277.53-80.2-31.35 422.23l-.18-.47L1277.35-80.67l.18.47Z"/><path d="m211.16-396.49 824.08 1134.25-.4.29L210.76-396.19l.4-.3Z"/><path d="M1190.27-241.05 56.03 583.02l-.3-.4 1134.24-824.08.3.4Z"/><path d="M549.97-526.4 696.52 867.92l-.5.05L549.49-526.35l.5-.05Z"/><path d="M1320.19 97.76-74.13 244.3l-.06-.5L1320.13 97.26l.06.5Z"/><path d="M908.35-469.51 338.11 811.28l-.46-.2 570.24-1280.8.46.2Z"/><path d="M1263.29 456.13-17.5-114.1l.2-.46 1280.8 570.25-.21.45Z"/><path d="M-77.9 182.77 1323.9 158.3l.01.5-1401.79 24.47v-.5Z"/><path d="m611.02-530.12 24.46 1401.8h-.5L610.52-530.11h.5Z"/><path d="m10.01-169.29 1226.22 679.7-.24.44L9.77-168.85l.24-.44Z"/><path d="M963.07-442.2 283.37 784l-.44-.24 679.7-1226.22.44.25Z"/><path d="M262.17-430.22 984.26 771.53l-.43.25L261.74-429.96l.43-.26Z"/><path d="M1224-190.04 22.25 532.04l-.25-.43 1201.75-722.08.25.43Z"/><path d="m118.92-316.35 1008.51 973.9-.35.37L118.57-316l.35-.36Z"/><path d="M1110.14-333.3 136.22 675.2l-.35-.34 973.91-1008.52.36.35Z"/><path d="M430.02-503.13 816.46 844.56l-.48.14L429.54-503l.48-.13Z"/><path d="M1296.91-22.2-50.77 364.24l-.14-.48L1296.78-22.68l.13.48Z"/><path d="M792.83-509.33 453.66 851.02l-.49-.12L792.35-509.46l.48.13Z"/><path d="M1303.12 340.61-57.24 1.44l.12-.49 1360.36 339.18-.12.48Z"/><path d="m614.3 871.73 16.9-1401.9h.5l-16.9 1401.9h-.5Z"/><path d="m-77.95 162.1 1401.9 16.87v.5L-77.95 162.6v-.5Z"/><path d="M265 773.47 980.57-432.17l.43.26L265.43 773.73l-.43-.26Z"/><path d="m20.3-187.22 1205.65 715.57-.26.43L20.05-186.79l.26-.43Z"/><path d="M11.62 513.73 1234.14-172.6l.24.44L11.86 514.16l-.24-.43Z"/><path d="M280.05-440.6 966.38 781.92l-.43.25L279.62-440.37l.43-.24Z"/><path d="m121.21 660.28 1003.23-979.35.35.35L121.56 660.64l-.35-.36Z"/><path d="m133.5-331 979.36 1003.22-.36.35L133.14-330.66l.36-.35Z"/><path d="M-56.31 343.8 1302.19-2.72l.12.49-1358.5 346.53-.12-.48Z"/><path d="M449.98-508.53 796.5 849.97l-.49.12L449.5-508.4l.49-.12Z"/><path d="M-51.81-19.03 1297.95 360.1l-.14.49L-51.95-18.55l.14-.48Z"/><path d="M812.81-504.03 433.67 845.73l-.48-.13L812.33-504.17l.48.14Z"/><path d="m-74.52 101.03 1395.09 139-.05.5-1395.1-139 .06-.5Z"/><path d="m692.75-526.74-139 1395.1-.5-.06 139-1395.09.5.05Z"/><path d="M53.8-238.38 1192.5 579.54l-.29.4L53.51-237.97l.3-.4Z"/><path d="M1032.17-398.41 214.24 740.27l-.4-.3L1031.75-398.7l.41.3Z"/><path d="M334.64-468.16 911.81 809.52l-.45.2L334.19-467.95l.45-.2Z"/><path d="M1261.95-117.57-15.75 459.59l-.2-.45 1277.69-577.17.21.46Z"/><path d="m179.1-371.76 888.19 1084.77-.39.32L178.71-371.44l.39-.32Z"/><path d="M1165.54-273.12 80.77 615.08l-.31-.4L1165.22-273.5l.32.39Z"/><path d="M509.84-521.02 736.65 862.5l-.5.08-226.8-1383.53.49-.08Z"/><path d="M1314.81 57.62-68.73 284.43l-.08-.49L1314.72 57.13l.09.5Z"/><path d="M870.9-484.92 375.56 826.66l-.46-.18L870.43-485.1l.46.18Z"/><path d="M1278.7 418.69-32.88-76.65l.18-.47 1311.58 495.34-.18.47Z"/><path d="M-76.04 223.22 1322 117.85l.04.5L-76 223.7l-.04-.5Z"/><path d="M570.57-528.25 675.93 869.78l-.5.04L570.07-528.22l.5-.03Z"/><path d="m-8.6-133.33 1263.42 607.77-.22.45L-8.82-132.88l.22-.45Z"/><path d="M927.11-460.82 319.34 802.6l-.45-.22L926.66-461.03l.45.21Z"/><path d="m228.07-408.38 790.27 1158.05-.41.28L227.66-408.1l.41-.28Z"/><path d="M1202.17-224.15 44.12 566.13l-.29-.41 1158.05-790.27.29.41Z"/><path d="M91.63-286.44 1154.7 627.63l-.33.38L91.3-286.06l.33-.38Z"/><path d="M1080.22-360.59 166.16 702.48l-.38-.33L1079.84-360.9l.38.32Z"/><path d="M391.43-490.86 855.04 832.26l-.47.17L390.96-490.7l.47-.16Z"/><path d="M1284.65-60.79-38.48 402.83l-.17-.48L1284.48-61.26l.17.47Z"/><path d="M753.28-518 493.2 859.65l-.49-.09L752.8-518.1l.49.1Z"/><path d="M1311.79 301.06-65.88 41l.1-.5 1377.66 260.07-.09.49Z"/><path d="m602.08 871.47 41.34-1401.39.5.01-41.34 1401.4-.5-.02Z"/><path d="M-77.69 149.86 1323.7 191.2l-.01.5-1401.4-41.34.02-.5Z"/><path d="m254.54 767.13 736.5-1192.96.42.26L254.96 767.4l-.42-.26Z"/><path d="m26.65-197.68 1192.96 736.5-.26.43L26.39-197.25l.26-.43Z"/><path d="m5.73 503 1234.31-664.88.23.44L5.97 503.45l-.24-.44Z"/><path d="M290.78-446.5 955.66 787.83l-.44.24L290.34-446.25l.44-.24Z"/><path d="m112.74 651.45 1020.17-961.7.35.37-1020.17 961.7-.35-.37Z"/><path d="m142.33-339.47 961.7 1020.17-.36.34-961.7-1020.17.36-.34Z"/><path d="M-59.23 331.92 1305.11 9.15l.12.5L-59.11 332.4l-.12-.49Z"/><path d="M461.86-511.44 784.63 852.9l-.49.11L461.37-511.33l.49-.12Z"/><path d="m-48.4-30.78 1342.94 402.64-.14.48L-48.54-30.3l.14-.48Z"/><path d="M824.56-500.62 421.92 842.33l-.48-.14L824.08-500.76l.48.14Z"/><path d="M-73.2 88.87 1319.26 252.2l-.06.5L-73.26 89.36l.06-.5Z"/><path d="M704.91-525.42 541.58 867.04l-.5-.06L704.42-525.47l.5.05Z"/><path d="m61.03-248.25 1124.24 837.67-.3.4L60.73-247.85l.3-.4Z"/><path d="M1042.04-391.19 204.36 733.05l-.4-.3 837.68-1124.23.4.3Z"/><path d="M345.84-473.1 900.62 814.47l-.46.2L345.38-472.9l.46-.2Z"/><path d="M1266.88-106.38-20.68 448.4l-.2-.46 1287.56-554.78.2.46Z"/><path d="m188.63-379.43 869.13 1100.1-.39.32-869.13-1100.1.4-.31Z"/><path d="M1173.21-263.58 73.11 605.54l-.32-.4L1172.9-263.97l.31.4Z"/><path d="M521.93-522.9 724.56 864.4l-.5.07L521.45-522.82l.5-.07Z"/><path d="M1316.68 69.71-70.6 272.35l-.08-.5L1316.6 69.22l.08.5Z"/><path d="M882.31-480.5 364.15 822.25l-.46-.18L881.85-480.68l.46.19Z"/><path d="M1274.27 430.1-28.46-88.07l.19-.47 1302.73 518.16-.19.46Z"/><path d="m-76.84 211 1399.66-80.94.02.5L-76.82 211.5l-.03-.5Z"/><path d="M582.77-529.06 663.73 870.6l-.5.03-80.96-1399.66.5-.03Z"/><path d="m-3.2-144.3 1252.62 629.72-.22.45L-3.42-143.86l.22-.44Z"/><path d="M938.09-455.41 308.36 797.2l-.45-.22L937.64-455.64l.45.23Z"/><path d="m238.24-415.19 769.94 1171.67-.42.27L237.82-414.9l.42-.28Z"/><path d="M1208.97-213.98 37.3 555.96l-.27-.42L1208.7-214.39l.27.41Z"/><path d="m99.7-295.64 1046.94 932.47-.33.37L99.36-295.27l.33-.37Z"/><path d="M1089.42-352.53 156.95 694.42l-.37-.33 932.47-1046.95.37.33Z"/><path d="M403.01-494.8 843.46 836.2l-.47.16L402.54-494.65l.47-.16Z"/><path d="M1288.59-49.2-42.43 391.23l-.16-.47L1288.43-49.68l.16.47Z"/><path d="M765.28-515.63 481.2 857.3l-.49-.1L764.8-515.73l.49.1Z"/><path d="M1309.41 313.06-63.51 28.99l.1-.49 1372.92 284.07-.1.49Z"/><path d="m589.85 871 65.8-1400.46.5.03-65.8 1400.45-.5-.02Z"/><path d="m-77.22 137.63 1400.46 65.8-.02.5-1400.46-65.8.02-.5Z"/><path d="M244.18 760.61 1001.4-419.32l.42.27-757.2 1179.93-.43-.27Z"/><path d="m33.17-208.03 1179.93 757.2-.27.43L32.9-207.61l.27-.42Z"/><path d="m.02 492.18 1245.73-643.24.23.44L.25 492.63l-.23-.45Z"/><path d="M301.6-452.2 944.85 793.53l-.45.23L301.16-451.97l.44-.23Z"/><path d="m104.43 642.47 1036.8-943.75.34.37-1036.8 943.75-.34-.37Z"/><path d="m151.31-347.79 943.75 1036.8-.37.34-943.75-1036.8.37-.34Z"/><path d="M-61.94 320 1307.83 21.07l.11.5-1369.77 298.9-.1-.49Z"/><path d="M473.79-514.15 772.69 855.6l-.48.1-298.9-1369.76.48-.1Z"/><path d="m-44.78-42.47 1335.71 426.02-.15.48L-44.92-41.99l.14-.48Z"/><path d="M836.25-497 410.23 838.72l-.48-.15 426.02-1335.7.48.14Z"/><path d="m-71.66 76.73 1389.39 187.6-.07.5L-71.73 77.23l.07-.5Z"/><path d="m717.05-523.88-187.6 1389.4-.5-.08 187.6-1389.39.5.07Z"/><path d="m68.43-258 1109.45 857.17-.31.4L68.12-257.6l.31-.4Z"/><path d="M1051.78-383.79 194.62 725.66l-.4-.3L1051.39-384.1l.39.3Z"/><path d="M357.12-477.84 889.34 819.21l-.46.2L356.66-477.66l.46-.19Z"/><path d="M1271.62-95.1-25.43 437.13l-.19-.47L1271.43-95.56l.19.46Z"/><path d="m198.3-386.92 849.79 1115.1-.39.3-849.8-1115.1.4-.3Z"/><path d="M1180.7-253.91 65.6 595.88l-.3-.4 1115.1-849.8.3.4Z"/><path d="m534.05-524.55 178.4 1390.6-.5.07-178.4-1390.6.5-.07Z"/><path d="M1318.33 81.84-72.27 260.23l-.06-.5 1390.6-178.39.06.5Z"/><path d="M893.64-475.87 352.82 817.63l-.46-.2 540.82-1293.5.46.2Z"/><path d="M1269.65 441.42-23.85-99.39l.2-.46 1293.49 540.8-.19.47Z"/><path d="m-77.44 198.79 1400.86-56.51.02.5-1400.86 56.5-.02-.5Z"/><path d="M595-529.66 651.5 871.2l-.5.02-56.5-1400.86.5-.02Z"/><path d="M2.4-155.18 1243.83 496.3l-.23.44L2.17-154.75l.23-.43Z"/><path d="M948.97-449.82 297.47 791.62l-.44-.24 651.5-1241.43.44.23Z"/><path d="M248.53-421.81 997.9 763.1l-.43.27L248.1-421.55l.43-.26Z"/><path d="M1215.6-203.7 30.67 545.69l-.27-.42 1184.93-749.37.27.42Z"/><path d="m107.91-304.7 1030.52 950.6-.34.37-1030.52-950.6.34-.37Z"/><path d="M1098.48-344.3 147.88 686.2l-.36-.34 950.6-1030.52.36.34Z"/><path d="m414.66-498.54 417.16 1338.5-.48.15L414.18-498.4l.48-.15Z"/><path d="M1292.32-37.56-46.18 379.6l-.15-.48L1292.18-38.03l.14.47Z"/><path d="M777.24-513.04 469.25 854.71l-.49-.1L776.75-513.16l.49.11Z"/><path d="M1306.82 325.02-60.93 17.03l.1-.48 1367.76 307.98-.11.49Z"/><path d="m577.64 870.31 90.23-1399.1.5.04-90.24 1399.1-.5-.04Z"/><path d="m-76.53 125.42 1399.09 90.23-.03.5-1399.1-90.23.04-.5Z"/><path d="m233.95 753.91 777.69-1166.53.41.27L234.36 754.2l-.41-.28Z"/><path d="m39.87-218.27 1166.54 777.69-.28.41L39.59-217.85l.28-.42Z"/><path d="m-5.5 481.26 1256.77-621.4.22.44L-5.27 481.71l-.22-.45Z"/><path d="m312.52-457.71 621.4 1256.76-.44.23L312.08-457.5l.44-.22Z"/><path d="m96.28 633.35 1053.11-925.5.33.37L96.61 633.72l-.33-.37Z"/><path d="m160.44-355.94 925.5 1053.11-.37.33L160.06-355.6l.38-.34Z"/><path d="M-64.44 308.02 1310.34 33.06l.1.49L-64.34 308.5l-.1-.5Z"/><path d="M485.77-516.65 760.72 858.12l-.49.1L485.28-516.56l.49-.1Z"/><path d="M-40.95-54.09 1287.1 395.18l-.16.47L-41.11-53.6l.16-.48Z"/><path d="M847.87-493.17 398.6 834.9l-.47-.16L847.4-493.33l.47.16Z"/><path d="M-69.92 64.62 1316 276.45l-.08.5L-69.99 65.11l.07-.5Z"/><path d="M729.16-522.13 517.34 863.77l-.5-.07L728.66-522.2l.5.07Z"/><path d="m76-267.61 1094.31 876.4-.31.39L75.68-267.22l.32-.4Z"/><path d="M1061.39-376.22 184.99 718.1l-.38-.32L1061-376.53l.39.3Z"/><path d="m368.48-482.38 509.5 1306.14-.46.18L368.02-482.2l.46-.18Z"/><path d="M1276.16-83.74-29.98 425.76l-.18-.46L1275.98-84.2l.18.46Z"/><path d="m208.1-394.25 830.2 1129.77-.4.3L207.7-393.96l.4-.3Z"/><path d="M1188.03-244.12 58.27 586.08l-.3-.4 1129.76-830.2.3.4Z"/><path d="M546.2-526 700.3 867.5l-.5.06-154.1-1393.5.5-.06Z"/><path d="m1319.78 93.98-1393.5 154.1-.06-.5 1393.51-154.1.05.5Z"/><path d="M904.88-471.05 341.58 812.81l-.46-.2 563.3-1283.86.46.2Z"/><path d="M1264.83 452.66-19.03-110.64l.2-.46 1283.86 563.3-.2.46Z"/><path d="M-77.82 186.56 1323.8 154.5l.01.5-1401.63 32.06-.01-.5Z"/><path d="m607.22-530.04 32.06 1401.63-.5.01-32.06-1401.63.5-.01Z"/><path d="M8.18-165.97 1238.06 507.1l-.24.44L7.94-165.53l.24-.44Z"/><path d="M959.75-444.04 286.69 785.84l-.44-.24L959.31-444.28l.44.24Z"/><path d="M258.93-428.26 987.5 769.56l-.42.26L258.5-428l.43-.26Z"/><path d="M1222.04-193.3 24.22 535.29l-.26-.42 1197.82-728.58.26.43Z"/><path d="m116.29-313.62 1013.77 968.44-.35.36L115.94-313.26l.35-.36Z"/><path d="M1107.4-335.93 138.96 677.84l-.36-.35 968.44-1013.76.36.34Z"/><path d="M426.37-502.08 820.11 843.5l-.49.14L425.9-501.94l.48-.14Z"/><path d="M1295.86-25.84-49.72 367.89l-.14-.48L1295.72-26.32l.14.48Z"/><path d="M789.15-510.24 457.34 851.93l-.49-.12L788.66-510.36l.49.12Z"/><path d="M1304.03 336.93-58.14 5.13l.11-.5 1362.17 331.81-.11.49Z"/><path d="m565.43 869.41 114.64-1397.3.5.04-114.64 1397.3-.5-.04Z"/><path d="m-75.63 113.22 1397.3 114.63-.04.5-1397.3-114.63.04-.5Z"/><path d="m223.83 747.03 797.93-1152.78.41.28L224.24 747.32l-.4-.29Z"/><path d="m46.75-228.39 1152.78 797.93-.28.41L46.46-227.98l.29-.4Z"/><path d="M-10.82 470.25 1256.6-129.13l.22.45L-10.6 470.7l-.22-.45Z"/><path d="M323.54-463.03 922.9 804.38l-.45.22L323.08-462.82l.46-.21Z"/><path d="m88.29 624.09 1069.1-907 .32.39L88.61 624.47l-.32-.38Z"/><path d="m169.7-363.93 906.98 1069.1-.38.32L169.32-363.6l.38-.32Z"/><path d="M-66.73 296 1312.64 45.07l.09.5L-66.64 296.49l-.09-.5Z"/><path d="M497.78-518.94 748.71 860.42l-.5.09L497.3-518.86l.5-.08Z"/><path d="M-36.93-65.64 1283.1 406.73l-.17.47L-37.1-65.17l.17-.47Z"/><path d="M859.42-489.15 387.05 830.88l-.47-.17L858.95-489.32l.47.17Z"/><path d="m-67.96 52.55 1382 235.97-.08.5-1382-235.98.08-.5Z"/><path d="m741.24-520.17-235.98 1382-.5-.1L740.74-520.25l.5.09Z"/><path d="M83.73-277.1 1162.6 618.28l-.32.39L83.41-276.71l.32-.38Z"/><path d="M1070.87-368.49 175.51 710.37l-.38-.32 895.36-1078.86.38.32Z"/><path d="M379.92-486.72 866.55 828.1l-.47.18L379.45-486.55l.47-.17Z"/><path d="M1280.5-72.3-34.33 414.33l-.17-.46L1280.33-72.77l.17.47Z"/><path d="m218.03-401.4 810.35 1144.08-.41.29L217.62-401.12l.4-.28Z"/><path d="M1195.19-234.2 51.1 576.17l-.29-.4L1194.9-234.6l.29.4Z"/><path d="M558.37-527.23 688.12 868.75l-.5.05L557.88-527.2l.5-.04Z"/><path d="M1321.02 106.16-74.97 235.9l-.04-.5 1395.98-129.75.05.5Z"/><path d="M916.04-466.03 330.42 807.8l-.46-.2L915.59-466.25l.45.21Z"/><path d="M1259.81 463.82-14.02-121.8l.2-.46 1273.84 585.63-.21.45Z"/><path d="M-78 174.32 1324 166.74v.5l-1401.98 7.58v-.5Z"/><path d="m619.46-530.2 7.58 1401.97h-.5L618.96-530.2h.5Z"/><path d="M14.15-176.65 1232.1 517.77l-.25.44L13.9-176.21l.25-.44Z"/><path d="M970.43-438.07 276 779.88l-.44-.25L970-438.31l.44.24Z"/><path d="M269.44-434.52 977 775.83l-.43.26L269-434.27l.44-.25Z"/><path d="M1228.3-182.78 17.95 524.78l-.25-.43 1210.35-707.56.25.43Z"/><path d="m124.82-322.39 996.71 985.99-.35.35-996.71-985.98.35-.36Z"/><path d="M1116.17-327.4 130.19 669.31l-.36-.35 985.98-996.71.36.35Z"/><path d="M438.15-505.4 808.34 846.83l-.49.13L437.66-505.27l.49-.14Z"/><path d="M1299.19-14.07-53.06 356.12l-.13-.49L1299.06-14.55l.13.48Z"/><path d="M801-507.24 445.49 848.93l-.49-.13L800.52-507.37l.49.13Z"/><path d="M1301.02 348.79-55.15-6.74l.13-.49 1356.17 355.54-.13.48Z"/><path d="m618.14 871.77 9.22-1401.97h.5l-9.22 1401.97h-.5Z"/><path d="m-77.98 165.92 1401.97 9.22-.01.5-1401.97-9.22v-.5Z"/><path d="M268.3 775.42 977.27-434.1l.43.25L268.73 775.67l-.43-.25Z"/><path d="m18.36-183.92 1209.53 708.97-.25.43L18.11-183.49l.25-.43Z"/><path d="m13.5 517.07 1218.75-693 .25.43-1218.75 693-.25-.43Z"/><path d="m276.72-438.72 693 1218.75-.44.25-693-1218.75.44-.25Z"/><path d="m123.9 663.02 997.85-984.83.36.36-997.86 984.82-.36-.35Z"/><path d="m130.77-328.32 984.82 997.86-.36.35-984.82-997.86.36-.35Z"/><path d="M-55.36 347.52 1301.23-6.44l.13.49L-55.23 348l-.13-.48Z"/><path d="M446.27-507.57 800.22 849l-.49.13L445.79-507.45l.49-.12Z"/><path d="m-52.84-15.34 1351.81 371.76-.13.48L-52.97-14.86l.13-.48Z"/><path d="M809.12-505.06 437.36 846.76l-.48-.14L808.64-505.19l.48.13Z"/><path d="m-74.9 104.85 1395.84 131.37-.05.5L-74.94 105.34l.05-.5Z"/><path d="M688.93-527.11 557.56 868.72l-.5-.05L688.44-527.16l.5.05Z"/><path d="M51.58-235.26 1194.7 576.41l-.28.41L51.29-234.86l.29-.4Z"/><path d="M1029.05-400.64 217.36 742.5l-.4-.3 811.68-1143.13.41.29Z"/><path d="M331.15-466.58 915.3 807.93l-.46.21L330.7-466.37l.45-.2Z"/><path d="M1260.36-121.06-14.15 463.08l-.21-.45 1274.51-584.15.21.46Z"/><path d="m176.14-369.32 894.11 1079.9-.39.31-894.1-1079.9.38-.31Z"/><path d="M1163.11-276.08 83.21 618.02l-.32-.38 1079.9-894.1.32.38Z"/><path d="M506.06-520.4 740.43 861.88l-.5.08L505.58-520.31l.49-.09Z"/><path d="M1314.18 53.84-68.09 288.21l-.09-.49L1314.1 53.35l.09.5Z"/><path d="M867.32-486.26 379.15 828l-.47-.17L866.85-486.44l.47.18Z"/><path d="M1280.05 415.1-34.22-73.07l.17-.46 1314.27 488.16-.17.47Z"/><path d="M-75.74 227.04 1321.7 114.03l.04.5-1397.44 113-.04-.5Z"/><path d="m566.75-527.96 113 1397.44-.5.04-113-1397.44.5-.04Z"/><path d="m-10.25-129.87 1266.72 600.85-.22.45L-10.47-129.42l.22-.45Z"/><path d="M923.65-462.47 322.8 804.25l-.45-.22L923.2-462.69l.45.22Z"/><path d="M224.91-406.22 1021.5 747.5l-.41.28L224.5-405.93l.41-.29Z"/><path d="M1200-227.3 46.29 569.28l-.29-.41 1153.71-796.59.29.41Z"/><path d="M89.14-283.52 1157.19 624.7l-.33.38L88.82-283.14l.32-.38Z"/><path d="M1077.3-363.08 169.08 704.97l-.39-.33L1076.92-363.4l.38.32Z"/><path d="M387.81-489.59 858.66 831l-.48.16L387.34-489.42l.48-.17Z"/><path d="M1283.37-64.4-37.2 406.44l-.17-.47L1283.2-64.87l.17.47Z"/><path d="M749.51-518.7 496.98 860.35l-.49-.09L749.02-518.8l.49.1Z"/><path d="M1312.49 297.3-66.58 44.75l.09-.49L1312.58 296.8l-.09.5Z"/><path d="m605.9 871.57 33.7-1401.6.5.02-33.7 1401.6-.5-.02Z"/><path d="m-77.8 153.69 1401.6 33.68-.01.5-1401.6-33.68.02-.5Z"/><path d="M257.8 769.14 987.77-427.84l.43.26L258.23 769.4l-.43-.26Z"/><path d="m24.64-194.42 1196.98 729.97-.26.43L24.38-193.99l.26-.43Z"/><path d="m7.55 506.38 1230.66-671.63.24.44L7.79 506.82l-.24-.44Z"/><path d="M287.4-444.67 959.04 786l-.44.24L286.97-444.43l.44-.24Z"/><path d="m115.38 654.23 1014.9-967.26.34.36L115.72 654.6l-.34-.36Z"/><path d="m139.55-336.84 967.26 1014.9-.36.34L139.19-336.5l.36-.34Z"/><path d="M-58.34 335.65 1304.22 5.43l.12.48L-58.22 336.14l-.12-.49Z"/><path d="M458.13-510.55 788.35 852l-.48.12L457.64-510.44l.5-.11Z"/><path d="m-49.49-27.1 1345.12 395.29-.14.48L-49.63-26.63l.14-.48Z"/><path d="M820.89-501.7 425.59 843.4l-.48-.14 395.3-1345.12.48.14Z"/><path d="M-73.64 92.68 1319.7 248.39l-.05.5L-73.69 93.17l.05-.5Z"/><path d="M701.1-525.85 545.4 867.47l-.5-.05L700.6-525.91l.5.06Z"/><path d="m58.75-245.18 1128.8 831.52-.3.4L58.45-244.77l.3-.4Z"/><path d="M1038.96-393.47 207.44 735.33l-.4-.3 831.52-1128.8.4.3Z"/><path d="m342.32-471.57 561.81 1284.5-.45.2-561.82-1284.5.46-.2Z"/><path d="M1265.36-109.9-19.16 451.93l-.2-.46 1284.52-561.81.2.45Z"/><path d="m185.63-377.04 875.13 1095.33-.39.32L185.24-376.73l.4-.31Z"/><path d="M1170.82-266.58 75.49 608.54l-.31-.4L1170.5-266.97l.31.4Z"/><path d="M518.14-522.33 728.35 863.82l-.5.07-210.2-1386.15.49-.07Z"/><path d="M1316.11 65.92-70.04 276.13l-.07-.49L1316.04 65.43l.07.5Z"/><path d="M878.75-481.9 367.72 823.65l-.47-.18L878.28-482.08l.47.18Z"/><path d="M1275.68 426.53-29.87-84.5l.19-.46 1305.55 511.02-.19.47Z"/><path d="m-76.61 214.83 1399.19-88.6.03.5-1399.2 88.6-.02-.5Z"/><path d="m578.95-528.83 88.6 1399.2-.5.03-88.6-1399.2.5-.03Z"/><path d="M-4.91-140.88 1251.13 482l-.22.45L-5.13-140.43l.22-.44Z"/><path d="M934.66-457.13 311.79 798.91l-.45-.22L934.21-457.35l.45.22Z"/><path d="m235.04-413.08 776.33 1167.44-.41.28L234.63-412.8l.41-.28Z"/><path d="M1206.86-217.17 39.42 559.15l-.28-.41L1206.58-217.6l.28.42Z"/><path d="m97.15-292.77 1052.03 926.73-.33.38L96.82-292.4l.33-.37Z"/><path d="M1086.55-355.07 159.82 696.96l-.37-.33L1086.18-355.4l.37.33Z"/><path d="M399.38-493.6 847.1 835l-.48.16L398.9-493.44l.48-.15Z"/><path d="M1287.37-52.84-41.21 394.88l-.16-.47L1287.2-53.32l.16.48Z"/><path d="M761.52-516.4 484.97 858.07l-.5-.1L761.04-516.5l.5.1Z"/><path d="M1310.18 309.3-64.28 32.76l.1-.5 1374.46 276.57-.1.49Z"/><path d="m593.68 871.17 58.14-1400.8.5.02-58.14 1400.8-.5-.02Z"/><path d="m-77.39 141.46 1400.8 58.14-.02.5-1400.8-58.14.02-.5Z"/><path d="M247.41 762.67 998.16-421.38l.42.27L247.84 762.94l-.43-.27Z"/><path d="m31.1-204.8 1184.06 750.75-.27.42L30.84-204.38l.27-.42Z"/><path d="m1.79 495.58 1242.19-650.04.23.44L2.01 496.03l-.22-.45Z"/><path d="m298.2-450.43 650.04 1242.2-.44.23L297.76-450.2l.44-.23Z"/><path d="m107.02 645.3 1031.62-949.4.34.37-1031.62 949.4-.34-.37Z"/><path d="m148.48-345.2 949.4 1031.62-.36.34-949.4-1031.62.36-.34Z"/><path d="M-61.11 323.74 1307 17.34l.11.49L-61 324.23l-.11-.5Z"/><path d="M470.05-513.33 776.44 854.78l-.49.11-306.4-1368.1.5-.12Z"/><path d="m-45.93-38.81 1338.01 418.7-.15.49L-46.08-38.33l.15-.48Z"/><path d="M832.6-498.15 413.87 839.86l-.47-.14L832.1-498.3l.48.15Z"/><path d="m-72.17 80.53 1390.4 180-.06.5-1390.4-180 .06-.5Z"/><path d="m713.25-524.38-180 1390.4-.5-.07 180-1390.4.5.07Z"/><path d="M66.1-254.96 1180.2 596.13l-.3.4L65.79-254.58l.3-.4Z"/><path d="M1048.74-386.12 197.65 727.99l-.4-.3 851.1-1114.12.39.3Z"/><path d="m353.58-476.38 539.3 1294.13-.46.19-539.3-1294.12.46-.2Z"/><path d="M1270.16-98.64-23.96 440.66l-.2-.46L1269.96-99.1l.2.46Z"/><path d="m195.26-384.6 855.88 1110.45-.4.3L194.86-384.28l.4-.3Z"/><path d="M1178.37-256.96 67.93 598.92l-.3-.4 1110.44-855.87.3.4Z"/><path d="m530.25-524.05 186 1389.6-.5.07-186-1389.6.5-.07Z"/><path d="M1317.84 78.04-71.77 264.02l-.07-.5L1317.77 77.55l.07.5Z"/><path d="M890.1-477.34 356.36 819.1l-.46-.19L889.64-477.53l.46.2Z"/><path d="M1271.12 437.88-25.31-95.85l.19-.47L1271.3 437.42l-.19.46Z"/><path d="m-77.28 202.62 1400.53-64.17.03.5-1400.53 64.17-.03-.5Z"/><path d="m591.17-529.5 64.16 1400.54-.5.02-64.16-1400.53.5-.02Z"/><path d="m.62-151.79 1244.98 644.7-.23.44L.4-151.35l.22-.44Z"/><path d="M945.57-451.6 300.87 793.4l-.44-.23 644.7-1244.98.44.23Z"/><path d="m245.3-419.76 755.83 1180.81-.42.27-755.84-1180.8.42-.28Z"/><path d="M1213.54-206.93 32.73 548.91l-.27-.42 1180.81-755.84.27.42Z"/><path d="m105.32-301.88 1035.7 944.95-.34.37L104.98-301.5l.34-.37Z"/><path d="M1095.66-346.9 150.71 688.8l-.37-.34 944.95-1035.7.37.34Z"/><path d="M411-497.4 835.48 838.8l-.48.16-424.46-1336.2.48-.15Z"/><path d="M1291.18-41.21-45.02 383.25l-.16-.47L1291.02-41.7l.16.48Z"/><path d="M773.5-513.87 473 855.54l-.5-.1L773-513.98l.5.1Z"/><path d="M1307.66 321.28-61.76 20.78l.1-.5 1369.42 300.5-.1.5Z"/><path d="m581.46 870.55 82.58-1399.57.5.03-82.58 1399.57-.5-.03Z"/><path d="m-76.77 129.24 1399.57 82.58-.03.5L-76.8 129.74l.03-.5Z"/><path d="m237.14 756.03 771.3-1170.77.42.27-771.3 1170.78-.42-.28Z"/><path d="m37.75-215.08 1170.77 771.3-.27.42L37.48-214.66l.27-.42Z"/><path d="m-3.79 484.7 1253.35-628.28.23.45L-3.56 485.14l-.23-.45Z"/><path d="M309.09-456 937.36 797.35l-.45.22L308.64-455.78l.45-.22Z"/><path d="m98.82 636.22 1048.03-931.25.33.37L99.15 636.6l-.33-.37Z"/><path d="m157.56-353.4 931.25 1048.03-.37.34L157.19-353.07l.37-.33Z"/><path d="M-63.67 311.77 1309.57 29.3l.11.5L-63.57 312.25l-.1-.49Z"/><path d="M482.01-515.9 764.48 857.37l-.49.1L481.52-515.8l.49-.1Z"/><path d="m-42.17-50.45 1330.5 442-.16.47-1330.5-442 .16-.47Z"/><path d="m844.24-494.4-442 1330.51-.48-.15 442-1330.5.48.15Z"/><path d="m-70.49 68.41 1387.05 204.25-.07.5L-70.56 68.9l.07-.5Z"/><path d="M725.37-522.7 521.12 864.34l-.49-.07L724.88-522.78l.49.08Z"/><path d="m73.6-264.62 1099.1 870.4-.31.4-1099.1-870.4.32-.4Z"/><path d="M1058.4-378.6 188 720.47l-.4-.3 870.41-1099.1.39.31Z"/><path d="M364.91-480.98 881.55 822.36l-.46.18L364.45-480.79l.46-.19Z"/><path d="M1274.76-87.3-28.58 429.32l-.18-.46L1274.58-87.77l.18.46Z"/><path d="m205.02-391.97 836.36 1125.2-.4.3-836.36-1125.2.4-.3Z"/><path d="M1185.75-247.2 60.55 589.17l-.3-.4L1185.46-247.6l.29.4Z"/><path d="M542.4-525.57 704.1 867.07l-.5.06L541.9-525.5l.5-.06Z"/><path d="M1319.35 90.18-73.29 251.88l-.06-.5 1392.64-161.7.06.5Z"/><path d="M901.37-472.58 345.09 814.34l-.46-.2L900.91-472.78l.46.2Z"/><path d="M1266.36 449.15-20.56-107.13l.2-.46L1266.56 448.7l-.2.46Z"/><path d="m-77.73 190.39 1401.44-39.72.02.5L-77.71 190.9l-.02-.5Z"/><path d="m603.4-529.94 39.7 1401.43-.5.02-39.7-1401.44.5-.01Z"/><path d="m6.35-162.6 1233.54 666.32-.24.44L6.11-162.16l.24-.44Z"/><path d="M956.38-445.87 290.06 787.67l-.44-.24L955.94-446.1l.44.24Z"/><path d="M255.66-426.26 990.77 767.56l-.43.26L255.23-426l.43-.26Z"/><path d="M1220.04-196.56 26.22 538.55l-.26-.42L1219.78-197l.26.43Z"/><path d="M113.65-310.84 1132.7 652.04l-.35.37L113.3-310.49l.35-.36Z"/><path d="M1104.62-338.57 141.74 680.48l-.36-.35L1104.26-338.9l.36.34Z"/><path d="M422.7-501 823.78 842.42l-.48.15-401.08-1343.4.48-.15Z"/><path d="M1294.77-29.52-48.63 371.56l-.14-.48L1294.63-30l.14.48Z"/><path d="M785.42-511.14 461.07 852.82l-.5-.11L784.94-511.26l.5.12Z"/><path d="M1304.92 333.2-59.04 8.85l.12-.49 1363.96 324.36-.12.48Z"/><path d="m569.25 869.72 107-1397.91.5.04-107 1397.9-.5-.03Z"/><path d="m-75.94 117.04 1397.91 106.99-.03.5-1397.91-107 .03-.5Z"/><path d="M226.99 749.2 1018.6-407.92l.41.29L227.4 749.49l-.41-.28Z"/><path d="M44.58-225.23 1201.7 566.38l-.29.41L44.29-224.8l.29-.42Z"/><path d="m-9.17 473.7 1264.12-606.3.22.46L-8.95 474.16l-.22-.45Z"/><path d="m320.08-461.39 606.3 1264.13-.46.21-606.3-1264.12.46-.22Z"/><path d="M90.77 627 1154.9-285.82l.33.38L91.1 627.38l-.33-.38Z"/><path d="M166.78-361.44 1079.6 702.67l-.38.33L166.4-361.12l.38-.32Z"/><path d="M-66.03 299.77 1311.94 41.3l.09.49L-65.94 300.26l-.1-.5Z"/><path d="M494.02-518.25 752.48 859.72l-.5.1L493.53-518.17l.5-.09Z"/><path d="m-38.21-62.03 1322.59 465.15-.17.47L-38.38-61.56l.17-.47Z"/><path d="M855.81-490.43 390.66 832.16l-.47-.17L855.34-490.6l.47.17Z"/><path d="m-68.6 56.32 1383.27 228.43-.08.49L-68.67 56.82l.08-.5Z"/><path d="M737.46-520.81 509.04 862.46l-.5-.09L736.96-520.88l.5.08Z"/><path d="m81.3-274.14 1083.73 889.45-.32.4L80.97-273.76l.32-.39Z"/><path d="M1067.92-370.93 178.47 712.81l-.39-.32 889.45-1083.73.39.31Z"/><path d="M376.33-485.38 870.14 826.77l-.47.18L375.86-485.21l.47-.17Z"/><path d="M1279.17-75.9-32.99 417.93l-.18-.47L1279-76.36l.18.47Z"/><path d="m214.9-399.18 816.6 1139.63-.4.3L214.5-398.9l.4-.3Z"/><path d="M1192.96-237.31 53.33 579.29l-.3-.41 1139.64-816.6.29.4Z"/><path d="M554.56-526.87 691.94 868.38l-.5.05L554.06-526.82l.5-.05Z"/><path d="M1320.65 102.34-74.6 239.72l-.05-.5L1320.6 101.84l.05.5Z"/><path d="M912.55-467.62 333.9 809.39l-.45-.2L912.1-467.83l.45.2Z"/><path d="M1261.4 460.34-15.61-118.32l.2-.45 1277.02 578.65-.21.46Z"/><path d="m-77.96 178.16 1401.92-15.25v.5L-77.96 178.66v-.5Z"/><path d="m615.62-530.18 15.26 1401.92h-.5L615.12-530.17l.5-.01Z"/><path d="m12.26-173.31 1221.72 687.75-.24.43L12.02-172.88l.24-.43Z"/><path d="M967.1-439.96 279.33 781.77l-.43-.25L966.66-440.2l.43.24Z"/><path d="M266.13-432.58 980.3 773.89l-.43.25L265.7-432.33l.43-.25Z"/><path d="M1226.36-186.09 19.89 528.08l-.25-.43L1226.1-186.52l.25.43Z"/><path d="m122.13-319.66 1002.09 980.52-.35.36L121.78-319.3l.35-.36Z"/><path d="M1113.44-330.09 132.92 672.01l-.36-.36 980.52-1002.09.36.35Z"/><path d="m434.45-504.38 377.58 1350.2-.48.13-377.58-1350.2.48-.13Z"/><path d="M1298.17-17.76-52.03 359.8l-.14-.48 1350.2-377.58.14.49Z"/><path d="M797.3-508.2 449.19 849.9l-.49-.13 348.11-1358.1.49.13Z"/><path d="M1301.99 345.08-56.11-3.03l.12-.49 1358.1 348.12-.12.48Z"/></g><g fill-rule="evenodd" clip-rule="evenodd" opacity=".7"><path fill="url(#paint1_linear_10005_15647)" d="M183.5 76.06a50.8 50.8 0 0 0 35.09 6.1c23.76-3.05 40.97 22.89 28.77 43.6-11.77 20.91-42.94 18.73-52.1-3.28-21.57-55.8-101.34-55.8-123.13 0-8.94 22.02-40.32 24.2-52.09 3.27-11.99-20.7 5.23-46.64 28.77-43.59a52 52 0 0 0 35.09-6.1 50.26 50.26 0 0 0 22.88-27.24c9.6-23.76 44.25-23.76 53.84 0a51.98 51.98 0 0 0 22.88 27.24Zm-49.7 30.08c23.76 0 37.71 27.68 23.11 46.86a51.08 51.08 0 0 0-12.2 33.34c0 12.2 4.35 23.97 12.2 33.35 14.82 19.18.66 47.07-23.1 46.85-23.76 0-37.7-27.68-23.1-46.85a51.08 51.08 0 0 0 12.2-33.35c0-12.2-4.36-23.97-12.2-33.34-14.82-19.18-.66-47.08 23.1-46.86Z"/><path fill="url(#paint2_linear_10005_15647)" d="M253.02 221.49a50.79 50.79 0 0 0-35.1-6.1c-23.75 3.04-40.97-22.9-28.76-43.6 11.77-20.92 42.93-18.74 52.09 3.27 21.57 55.8 101.34 55.8 123.14 0 8.93-22 40.32-24.19 52.09-3.27 11.98 20.7-5.24 46.64-28.77 43.6a52 52 0 0 0-35.1 6.1 50.26 50.26 0 0 0-22.88 27.24c-9.59 23.75-44.24 23.75-53.83 0a51.98 51.98 0 0 0-22.88-27.24Zm49.69-30.08c-23.76 0-37.7-27.68-23.1-46.86a51.09 51.09 0 0 0 12.2-33.35c0-12.2-4.36-23.97-12.2-33.34-14.82-19.18-.66-47.08 23.1-46.86 23.75 0 37.7 27.68 23.1 46.86a51.08 51.08 0 0 0-12.2 33.34c0 12.21 4.35 23.98 12.2 33.35 14.82 19.18.65 47.08-23.1 46.86Z"/><path fill="url(#paint3_linear_10005_15647)" d="M521.5 76.06a50.79 50.79 0 0 0 35.1 6.1c23.75-3.05 40.97 22.89 28.76 43.6-11.77 20.91-42.93 18.73-52.09-3.28-21.57-55.8-101.34-55.8-123.13 0-8.94 22.02-40.32 24.2-52.1 3.27-11.98-20.7 5.24-46.64 28.77-43.59a52 52 0 0 0 35.1-6.1 50.26 50.26 0 0 0 22.88-27.24c9.59-23.76 44.24-23.76 53.83 0a51.98 51.98 0 0 0 22.88 27.24Zm-49.69 30.08c23.76 0 37.7 27.68 23.1 46.86a51.08 51.08 0 0 0-12.2 33.34c0 12.2 4.36 23.97 12.2 33.35 14.83 19.18.66 47.07-23.1 46.85-23.75 0-37.7-27.68-23.1-46.85a51.08 51.08 0 0 0 12.2-33.35c0-12.2-4.35-23.97-12.2-33.34-14.82-19.18-.65-47.08 23.1-46.86Z"/></g><g fill-rule="evenodd" clip-rule="evenodd" opacity=".6"><path fill="url(#paint4_linear_10005_15647)" d="M1067.5 76.06a50.79 50.79 0 0 1-35.09 6.1c-23.76-3.05-40.97 22.89-28.77 43.6 11.77 20.91 42.94 18.73 52.09-3.28 21.58-55.8 101.35-55.8 123.14 0 8.94 22.02 40.32 24.2 52.09 3.27 11.99-20.7-5.23-46.64-28.77-43.59a52 52 0 0 1-35.09-6.1 50.23 50.23 0 0 1-22.88-27.24c-9.59-23.76-44.25-23.76-53.84 0a51.96 51.96 0 0 1-22.88 27.24Zm49.69 30.08c-23.76 0-37.7 27.68-23.1 46.86a51.11 51.11 0 0 1 12.2 33.34c0 12.2-4.36 23.97-12.2 33.35-14.82 19.18-.66 47.07 23.1 46.85 23.76 0 37.71-27.68 23.1-46.85a51.1 51.1 0 0 1-12.2-33.35c0-12.2 4.36-23.97 12.2-33.34 14.82-19.18.66-47.08-23.1-46.86Z"/><path fill="url(#paint5_linear_10005_15647)" d="M997.98 221.49a50.78 50.78 0 0 1 35.09-6.1c23.76 3.04 40.98-22.9 28.77-43.6-11.77-20.92-42.93-18.74-52.09 3.27-21.57 55.8-101.34 55.8-123.14 0-8.93-22-40.32-24.19-52.09-3.27-11.98 20.7 5.24 46.64 28.77 43.6a52 52 0 0 1 35.1 6.1 50.26 50.26 0 0 1 22.88 27.24c9.59 23.75 44.24 23.75 53.83 0a51.98 51.98 0 0 1 22.88-27.24ZM948.3 191.4c23.76 0 37.7-27.68 23.1-46.86a51.09 51.09 0 0 1-12.2-33.35c0-12.2 4.36-23.97 12.2-33.34 14.83-19.18.66-47.08-23.1-46.86-23.75 0-37.7 27.68-23.1 46.86a51.08 51.08 0 0 1 12.2 33.34c0 12.21-4.35 23.98-12.2 33.35-14.82 19.18-.65 47.08 23.1 46.86Z"/><path fill="url(#paint6_linear_10005_15647)" d="M729.5 76.06a50.79 50.79 0 0 1-35.1 6.1c-23.75-3.05-40.97 22.89-28.76 43.6 11.77 20.91 42.93 18.73 52.09-3.28 21.57-55.8 101.34-55.8 123.13 0 8.94 22.02 40.32 24.2 52.1 3.27 11.98-20.7-5.24-46.64-28.78-43.59a52 52 0 0 1-35.08-6.1 50.26 50.26 0 0 1-22.89-27.24c-9.59-23.76-44.24-23.76-53.83 0a51.98 51.98 0 0 1-22.88 27.24Zm49.69 30.08c-23.76 0-37.7 27.68-23.1 46.86a51.08 51.08 0 0 1 12.2 33.34c0 12.2-4.36 23.97-12.2 33.35-14.83 19.18-.66 47.07 23.1 46.85 23.75 0 37.7-27.68 23.1-46.85a51.08 51.08 0 0 1-12.2-33.35c0-12.2 4.35-23.97 12.2-33.34 14.82-19.18.65-47.08-23.1-46.86Z"/></g><g fill-rule="evenodd" clip-rule="evenodd" opacity=".6"><path fill="url(#paint7_linear_10005_15647)" d="M308.5 498.06a50.79 50.79 0 0 0 35.09 6.1c23.76-3.05 40.97 22.89 28.77 43.6-11.77 20.91-42.94 18.74-52.1-3.28-21.57-55.8-101.33-55.8-123.13 0-8.94 22.01-40.32 24.2-52.09 3.27-11.99-20.7 5.23-46.64 28.77-43.59a52.01 52.01 0 0 0 35.09-6.1 50.26 50.26 0 0 0 22.88-27.24c9.6-23.76 44.25-23.76 53.84 0a51.98 51.98 0 0 0 22.88 27.24Zm-49.7 30.08c23.76 0 37.71 27.68 23.11 46.86a51.08 51.08 0 0 0-12.2 33.34c0 12.2 4.36 23.97 12.2 33.35 14.82 19.17.65 47.07-23.1 46.85-23.76 0-37.7-27.67-23.1-46.85a51.08 51.08 0 0 0 12.2-33.35c0-12.2-4.36-23.97-12.2-33.35-14.82-19.17-.66-47.07 23.1-46.85Z"/><path fill="url(#paint8_linear_10005_15647)" d="M477.5 643.49a50.79 50.79 0 0 1 35.1-6.1c23.75 3.04 40.97-22.9 28.76-43.6-11.77-20.92-42.93-18.74-52.09 3.27-21.57 55.8-101.34 55.8-123.14 0-8.93-22-40.32-24.19-52.09-3.27-11.98 20.7 5.23 46.64 28.77 43.6a52 52 0 0 1 35.1 6.1 50.25 50.25 0 0 1 22.88 27.24c9.59 23.75 44.24 23.75 53.83 0a51.98 51.98 0 0 1 22.88-27.25Zm-49.69-30.08c23.76 0 37.7-27.68 23.1-46.86a51.09 51.09 0 0 1-12.2-33.34c0-12.21 4.36-23.98 12.2-33.35 14.82-19.18.66-47.08-23.1-46.86-23.75 0-37.7 27.68-23.1 46.86a51.09 51.09 0 0 1 12.2 33.35c0 12.2-4.36 23.97-12.2 33.34-14.82 19.18-.65 47.08 23.1 46.86Z"/></g><g fill-rule="evenodd" clip-rule="evenodd" opacity=".6"><path fill="url(#paint9_linear_10005_15647)" d="M964.5 643.94a50.79 50.79 0 0 0-35.09-6.1c-23.75 3.05-40.97-22.89-28.77-43.6 11.77-20.91 42.94-18.74 52.1 3.28 21.57 55.8 101.34 55.8 123.13 0 8.94-22.01 40.32-24.2 52.09-3.27 11.99 20.7-5.23 46.64-28.77 43.59a52.02 52.02 0 0 0-35.09 6.1 50.27 50.27 0 0 0-22.88 27.24c-9.59 23.76-44.24 23.76-53.83 0a51.98 51.98 0 0 0-22.89-27.24Zm49.69-30.08c-23.75 0-37.7-27.68-23.1-46.86a51.09 51.09 0 0 0 12.21-33.34c0-12.2-4.36-23.97-12.2-33.35-14.83-19.18-.66-47.07 23.09-46.86 23.76 0 37.71 27.69 23.11 46.86a51.06 51.06 0 0 0-12.21 33.35c0 12.2 4.36 23.97 12.21 33.35 14.82 19.17.65 47.07-23.11 46.85Z"/><path fill="url(#paint10_linear_10005_15647)" d="M894.99 498.51a50.79 50.79 0 0 0 35.09 6.1c23.75-3.04 40.97 22.9 28.76 43.6-11.76 20.92-42.93 18.74-52.09-3.27-21.57-55.8-101.34-55.8-123.13 0-8.94 22-40.32 24.19-52.1 3.27-11.98-20.7 5.24-46.64 28.78-43.6a52 52 0 0 0 35.09-6.1 50.26 50.26 0 0 0 22.88-27.24c9.59-23.75 44.24-23.75 53.83 0A51.98 51.98 0 0 0 895 498.51Zm-49.7 30.08c23.76 0 37.71 27.68 23.1 46.86a51.09 51.09 0 0 0-12.2 33.34c0 12.21 4.36 23.98 12.2 33.35 14.83 19.18.66 47.08-23.1 46.86-23.75 0-37.7-27.68-23.1-46.86a51.09 51.09 0 0 0 12.2-33.35c0-12.2-4.35-23.97-12.2-33.34-14.82-19.18-.65-47.08 23.1-46.86Z"/><path fill="url(#paint11_linear_10005_15647)" d="M626.5 643.94a50.79 50.79 0 0 0-35.1-6.1c-23.75 3.05-40.97-22.89-28.76-43.6 11.77-20.91 42.93-18.74 52.09 3.28 21.57 55.8 101.34 55.8 123.14 0 8.93-22.01 40.32-24.2 52.09-3.27 11.98 20.7-5.24 46.64-28.77 43.59a52 52 0 0 0-35.1 6.1 50.26 50.26 0 0 0-22.88 27.24c-9.59 23.76-44.24 23.76-53.83 0a51.98 51.98 0 0 0-22.88-27.24Zm49.69-30.08c-23.76 0-37.7-27.68-23.1-46.86a51.09 51.09 0 0 0 12.2-33.34c0-12.2-4.36-23.97-12.2-33.35-14.83-19.18-.66-47.07 23.1-46.86 23.75 0 37.7 27.69 23.1 46.86a51.08 51.08 0 0 0-12.2 33.35c0 12.2 4.35 23.97 12.2 33.35 14.82 19.17.65 47.07-23.1 46.85Z"/></g><defs><linearGradient id="paint1_linear_10005_15647" x1="133.76" x2="133.76" y1="31" y2="266.55" gradientUnits="userSpaceOnUse"><stop stop-color="#EBECEC"/><stop offset="1" stop-color="#EBECEC"/></linearGradient><linearGradient id="paint2_linear_10005_15647" x1="302.76" x2="302.76" y1="266.55" y2="31" gradientUnits="userSpaceOnUse"><stop stop-color="#EBECEC"/><stop offset="1" stop-color="#EBECEC"/></linearGradient><linearGradient id="paint3_linear_10005_15647" x1="598.35" x2="330.88" y1="155.87" y2="104.39" gradientUnits="userSpaceOnUse"><stop stop-color="#EBECEC" stop-opacity="0"/><stop offset="1" stop-color="#EBECEC"/></linearGradient><linearGradient id="paint4_linear_10005_15647" x1="1117.24" x2="1117.24" y1="31" y2="266.55" gradientUnits="userSpaceOnUse"><stop stop-color="#EBECEC"/><stop offset="1" stop-color="#EBECEC"/></linearGradient><linearGradient id="paint5_linear_10005_15647" x1="948.24" x2="948.24" y1="266.55" y2="31" gradientUnits="userSpaceOnUse"><stop stop-color="#EBECEC"/><stop offset="1" stop-color="#EBECEC"/></linearGradient><linearGradient id="paint6_linear_10005_15647" x1="652.65" x2="920.12" y1="155.87" y2="104.39" gradientUnits="userSpaceOnUse"><stop stop-color="#EBECEC" stop-opacity="0"/><stop offset="1" stop-color="#EBECEC"/></linearGradient><linearGradient id="paint7_linear_10005_15647" x1="258.76" x2="258.76" y1="453" y2="688.54" gradientUnits="userSpaceOnUse"><stop stop-color="#EBECEC"/><stop offset="1" stop-color="#EBECEC"/></linearGradient><linearGradient id="paint8_linear_10005_15647" x1="554.34" x2="286.87" y1="563.67" y2="615.15" gradientUnits="userSpaceOnUse"><stop stop-color="#EBECEC" stop-opacity="0"/><stop offset="1" stop-color="#EBECEC"/></linearGradient><linearGradient id="paint9_linear_10005_15647" x1="1014.25" x2="1014.25" y1="689" y2="453.45" gradientUnits="userSpaceOnUse"><stop stop-color="#EBECEC"/><stop offset="1" stop-color="#EBECEC"/></linearGradient><linearGradient id="paint10_linear_10005_15647" x1="845.24" x2="845.24" y1="453.45" y2="689" gradientUnits="userSpaceOnUse"><stop stop-color="#EBECEC"/><stop offset="1" stop-color="#EBECEC"/></linearGradient><linearGradient id="paint11_linear_10005_15647" x1="549.65" x2="817.13" y1="564.13" y2="615.61" gradientUnits="userSpaceOnUse"><stop stop-color="#EBECEC" stop-opacity="0"/><stop offset="1" stop-color="#EBECEC"/></linearGradient><radialGradient id="paint0_radial_10005_15647" cx="0" cy="0" r="1" gradientTransform="translate(592.251 -362.382) rotate(90.3745) scale(1187.73)" gradientUnits="userSpaceOnUse"><stop offset=".47" stop-color="#CECFCF" stop-opacity="0"/><stop offset="1" stop-color="#CECFCF"/></radialGradient></defs></svg>
