<svg xmlns="http://www.w3.org/2000/svg" fill="none" viewBox="0 0 934 619"><mask id="mask0_7670_12189" width="1172" height="1172" x="-119" y="-466" maskUnits="userSpaceOnUse" style="mask-type:alpha"><circle cx="467" cy="120.26" r="585.7" fill="url(#paint0_radial_7670_12189)" fill-opacity=".6"/></mask><g fill="#CECFCF" fill-rule="evenodd" clip-rule="evenodd" mask="url(#mask0_7670_12189)"><path d="M466.79 705.96v-1171.4h.42v1171.4h-.42Z"/><path d="M-118.7 120.05h1171.4v.42H-118.7v-.42Z"/><path d="m173.97 627.38 585.7-1014.45.36.2L174.33 627.6l-.36-.2Z"/><path d="m-40.12-172.77 1014.45 585.7-.2.36-1014.46-585.7.2-.36Z"/><path d="m-40.33 412.93 1014.45-585.7.21.36L-40.12 413.3l-.21-.36Z"/><path d="m174.33-387.07 585.7 1014.45-.36.21-585.7-1014.45.36-.21Z"/><path d="M52.7 534.26 881-294.04l.3.3L53 534.56l-.3-.3Z"/><path d="m53-294.04 828.3 828.3-.3.3-828.3-828.3.3-.3Z"/><path d="M-98.8 271.65 1032.69-31.53l.11.4L-98.69 272.05l-.1-.4Z"/><path d="M315.61-445.53 618.8 685.95l-.4.1L315.2-445.42l.4-.11Z"/><path d="M-98.69-31.53 1032.8 271.65l-.11.4L-98.79-31.13l.1-.4Z"/><path d="M618.79-445.43 315.61 686.06l-.4-.1L618.39-445.53l.4.1Z"/><path d="m-116.45 69 1166.93 102.1-.03.42-1166.94-102.1.04-.41Z"/><path d="M518.25-463.19 416.16 703.75l-.42-.04 102.1-1166.93.41.03Z"/><path d="M-12.66-215.85 946.9 456.03l-.24.34L-12.89-215.5l.23-.34Z"/><path d="M803.11-359.4 131.23 600.16l-.34-.24 671.88-959.54.34.24Z"/><path d="M219.66-410.65 714.71 651l-.38.18L219.29-410.47l.38-.18Z"/><path d="M997.9-127.08-63.72 367.98l-.18-.38L997.73-127.46l.18.38Z"/><path d="M90.68-328.54 843.64 568.8l-.32.26L90.36-328.27l.32-.27Z"/><path d="M915.8-256.06 18.46 496.9l-.26-.32 897.33-752.96.27.32Z"/><path d="m365.5-456.57 203.41 1153.6-.41.07L365.09-456.5l.41-.07Z"/><path d="m1043.83 18.76-1153.6 203.41-.07-.41 1153.6-203.41.07.41Z"/><path d="M667.52-430.04 266.88 670.7l-.4-.15L667.12-430.18l.4.14Z"/><path d="M1017.3 320.78-83.45-79.86l.15-.4 1100.75 400.64-.15.4Z"/><path d="M-116.49 171.1 1050.45 69l.03.42-1166.93 102.1-.04-.42Z"/><path d="m416.16-463.23 102.1 1166.94-.42.04L415.74-463.2l.42-.04Z"/><path d="M-63.73-127.45 997.9 367.6l-.18.38L-63.9-127.08l.18-.38Z"/><path d="M714.71-410.47 219.66 651.17l-.38-.18L714.34-410.65l.37.18Z"/><path d="M131.23-359.63 803.1 599.92l-.34.24L130.89-359.4l.34-.24Z"/><path d="M946.9-215.51-12.67 456.37l-.23-.34 959.54-671.88.24.34Z"/><path d="M18.46-256.38 915.8 496.58l-.27.32L18.2-256.06l.26-.32Z"/><path d="M843.64-328.27 90.68 569.06l-.32-.26 752.96-897.34.32.27Z"/><path d="M266.88-430.19 667.5 670.57l-.39.15L266.48-430.04l.4-.14Z"/><path d="M1017.45-79.86-83.3 320.78l-.15-.4L1017.3-80.25l.15.39Z"/><path d="M568.91-456.5 365.5 697.1l-.41-.08 203.4-1153.6.42.08Z"/><path d="m1043.76 222.17-1153.6-203.4.08-.42 1153.59 203.41-.07.41Z"/><path d="M456.57 705.86 477-465.35h.42L456.99 705.88h-.42Z"/><path d="m-118.6 109.83 1171.21 20.44-.01.42-1171.21-20.44v-.42Z"/><path d="M165.16 622.2 768.48-381.9l.35.22L165.53 622.4l-.37-.22Z"/><path d="m-34.93-181.57 1004.08 603.3-.22.37L-35.15-181.22l.22-.35Z"/><path d="m-45.36 404.03 1024.52-567.9.2.36L-45.16 404.4l-.2-.36Z"/><path d="m183.23-392.1 567.9 1024.52-.36.2L182.87-391.9l.36-.2Z"/><path d="m45.54 526.97 842.63-813.72.29.3L45.83 527.27l-.29-.3Z"/><path d="m60.29-301.2 813.72 842.63-.3.29L59.99-300.91l.3-.29Z"/><path d="m-101.35 261.75 1136.6-283.38.1.4-1136.6 283.39-.1-.4Z"/><path d="m325.5-448.09 283.4 1136.6-.41.1L325.1-447.99l.4-.1Z"/><path d="M-95.95-41.38 1030.06 281.5l-.11.4L-96.07-40.98l.12-.4Z"/><path d="M628.64-442.69 305.76 683.33l-.4-.12L628.24-442.8l.4.11Z"/><path d="m-115.47 58.83 1164.98 122.45-.05.41L-115.51 59.25l.04-.42Z"/><path d="M528.43-462.2 405.98 702.77l-.41-.04L528-462.25l.42.05Z"/><path d="m-6.72-224.17 947.68 688.53-.25.33L-6.96-223.83l.24-.34Z"/><path d="M811.43-353.45 122.91 594.21l-.34-.24L811.09-353.7l.34.25Z"/><path d="M228.97-414.88 705.4 655.24l-.38.17L228.58-414.72l.38-.16Z"/><path d="M1002.14-117.77-67.98 358.68l-.17-.39 1070.12-476.44.17.38Z"/><path d="M98.57-335.04 835.75 575.3l-.32.26L98.25-334.78l.32-.26Z"/><path d="M922.3-248.17 11.96 489.01l-.26-.32L922.04-248.5l.26.32Z"/><path d="M375.58-458.26 558.83 698.71l-.41.07L375.17-458.2l.41-.07Z"/><path d="M1045.52 28.84-111.45 212.1l-.07-.41L1045.45 28.43l.07.41Z"/><path d="M677.09-426.46 257.29 667.13l-.38-.15L676.7-426.61l.39.15Z"/><path d="M1013.72 330.35-79.88-89.44l.16-.39 1093.59 419.8-.15.38Z"/><path d="m-117.28 160.9 1168.53-81.7.03.41-1168.54 81.71-.02-.41Z"/><path d="m426.35-464.02 81.71 1168.54-.41.02-81.72-1168.53.42-.03Z"/><path d="m-59.33-136.68 1052.84 513.5-.18.38L-59.51-136.3l.18-.38Z"/><path d="M723.94-406.07 210.44 646.77l-.38-.18 513.5-1052.84.38.18Z"/><path d="m139.66-365.42 655.03 971.13-.35.23-655.03-971.13.34-.23Z"/><path d="M952.68-207.08-18.45 447.95l-.23-.34 971.13-655.04.23.35Z"/><path d="m25.1-264.15 884.07 768.5-.28.32-884.06-768.5.28-.32Z"/><path d="M851.4-321.63 82.9 562.43l-.31-.28 768.5-884.06.32.28Z"/><path d="M276.51-433.6 657.88 673.99l-.4.14L276.13-433.46l.4-.13Z"/><path d="M1020.85-70.23-86.72 311.14l-.14-.4L1020.72-70.61l.13.4Z"/><path d="M578.96-454.63 355.45 695.24l-.41-.08L578.55-454.71l.41.08Z"/><path d="M1041.89 232.22-107.98 8.71l.08-.41L1041.97 231.8l-.08.41Z"/><path d="M446.35 705.6 487.23-465.1l.42.02L446.77 705.6l-.42-.02Z"/><path d="m-118.33 99.61 1170.68 40.88-.02.42-1170.68-40.88.02-.42Z"/><path d="m156.45 616.85 620.74-993.4.36.22-620.75 993.4-.35-.22Z"/><path d="m-29.59-190.29 993.4 620.74-.22.36-993.4-620.74.22-.36Z"/><path d="M-50.24 395.04 984.04-154.89l.2.37L-50.04 395.4l-.2-.37Z"/><path d="M192.22-396.98 742.15 637.3l-.37.2L191.85-396.78l.37-.2Z"/><path d="m38.5 519.55 856.7-798.89.3.31L38.8 519.86l-.3-.3Z"/><path d="m67.7-308.23 798.9 856.7-.31.28L67.4-307.95l.3-.28Z"/><path d="m-103.73 251.81 1141.37-263.5.09.4-1141.37 263.5-.1-.4Z"/><path d="M335.45-450.47 598.95 690.9l-.4.1-263.5-1141.38.4-.1Z"/><path d="m-93.04-51.18 1120.2 342.48-.12.4L-93.16-50.78l.12-.4Z"/><path d="M638.44-439.78 295.96 680.42l-.4-.12L638.04-439.9l.4.12Z"/><path d="m-114.3 48.67 1162.65 142.76-.05.42L-114.36 49.09l.05-.42Z"/><path d="M538.59-461.04 395.83 701.62l-.42-.05L538.17-461.1l.42.05Z"/><path d="m-.63-232.39 935.51 704.96-.25.34L-.88-232.05l.25-.34Z"/><path d="M819.65-347.37 114.68 588.14l-.33-.25 704.96-935.51.34.25Z"/><path d="m238.34-418.96 457.7 1078.27-.38.17L237.96-418.8l.38-.17Z"/><path d="M1006.22-108.4-72.06 349.3l-.16-.38 1078.27-457.7.17.38Z"/><path d="m106.57-341.4 721.18 923.07-.33.25-721.18-923.07.33-.25Z"/><path d="M928.66-240.16 5.6 481.01l-.25-.33L928.4-240.5l.25.33Z"/><path d="M385.7-459.76 548.71 700.23l-.42.06-163.02-1160 .41-.06Z"/><path d="M1047.02 38.95-112.97 201.98l-.06-.41 1160-163.03.05.41Z"/><path d="M686.6-422.7 247.79 663.38l-.4-.16 438.82-1086.1.39.16Z"/><path d="M1009.97 339.86-76.13-98.95l.16-.39 1086.1 438.81-.16.39Z"/><path d="m-117.9 150.7 1169.78-61.3.02.42-1169.78 61.3-.03-.41Z"/><path d="m436.56-464.64 61.3 1169.78-.42.02-61.3-1169.78.42-.02Z"/><path d="m-54.77-145.83 1043.72 531.8-.19.38-1043.71-531.8.18-.38Z"/><path d="M733.09-401.5 201.29 642.22l-.38-.2 531.8-1043.71.38.19Z"/><path d="m148.18-371.06 637.99 982.41-.35.23-637.99-982.41.35-.23Z"/><path d="M958.32-198.56-24.1 439.43l-.23-.35 982.41-637.99.23.35Z"/><path d="M31.88-271.8 902.4 512l-.28.31L31.6-271.49l.28-.31Z"/><path d="M859.06-314.86 75.25 555.66l-.31-.28 783.81-870.52.31.28Z"/><path d="M286.2-436.83 648.2 677.23l-.4.13L285.81-436.71l.4-.12Z"/><path d="M1024.09-60.53-89.97 301.45l-.13-.4L1023.96-60.93l.13.4Z"/><path d="M588.98-452.6 345.43 693.2l-.4-.09L588.56-452.67l.4.09Z"/><path d="M1039.85 242.24-105.95-1.31l.1-.4 1145.79 243.54-.09.4Z"/><path d="m436.14 705.14 61.3-1169.78.42.02-61.3 1169.79-.42-.03Z"/><path d="m-117.88 89.4 1169.78 61.3-.02.42-1169.79-61.3.03-.42Z"/><path d="m147.83 611.35 637.99-982.4.35.22-637.99 982.41-.35-.23Z"/><path d="m-24.1-198.9 982.42 637.98-.23.35-982.41-637.99.23-.35Z"/><path d="m-54.95 385.98 1043.71-531.8.2.37-1043.73 531.8-.18-.38Z"/><path d="m201.28-401.7 531.8 1043.72-.37.2L200.91-401.5l.37-.2Z"/><path d="M31.6 512.01 902.12-271.8l.28.3L31.88 512.33l-.28-.3Z"/><path d="m75.25-315.14 783.81 870.52-.3.28L74.93-314.86l.3-.28Z"/><path d="M-105.94 241.83 1039.85-1.72l.09.41-1145.8 243.55-.08-.41Z"/><path d="m345.43-452.68 243.55 1145.8-.41.08L345.02-452.6l.41-.08Z"/><path d="M-89.97-60.93 1024.1 301.05l-.13.4L-90.1-60.53l.13-.4Z"/><path d="M648.19-436.7 286.2 677.35l-.4-.12L647.79-436.83l.4.13Z"/><path d="m-112.97 38.54 1159.99 163.03-.05.41-1160-163.03.06-.41Z"/><path d="M548.72-459.7 385.69 700.28l-.41-.06 163.03-1160 .4.06Z"/><path d="M5.6-240.5 928.65 480.7l-.25.33L5.34-240.16l.25-.34Z"/><path d="M827.75-341.15 106.57 581.92l-.33-.25L827.42-341.4l.33.25Z"/><path d="m247.79-422.87 438.8 1086.1-.38.16L247.4-422.71l.39-.16Z"/><path d="m1010.13-98.95-1086.1 438.8-.16-.38 1086.1-438.8.16.38Z"/><path d="m114.69-347.62 704.96 935.51-.34.25-704.96-935.51.34-.25Z"/><path d="M934.88-232.05-.63 472.9l-.25-.34 935.51-704.96.25.34Z"/><path d="M395.83-461.1 538.58 701.58l-.41.05L395.4-461.04l.42-.06Z"/><path d="M1048.35 49.09-114.31 191.85l-.05-.42L1048.3 48.68l.05.41Z"/><path d="M696.04-418.8 238.34 659.49l-.38-.16 457.7-1078.28.38.17Z"/><path d="M1006.05 349.3-72.22-108.4l.16-.38 1078.28 457.7-.17.38Z"/><path d="M-118.35 140.5 1052.33 99.6l.02.42-1170.68 40.88-.02-.42Z"/><path d="M446.77-465.09 487.65 705.6l-.42.02-40.88-1170.68.42-.02Z"/><path d="M-50.04-154.9 984.24 395.05l-.2.37L-50.24-154.52l.2-.37Z"/><path d="M742.15-396.78 192.22 637.5l-.37-.2L741.78-396.98l.37.2Z"/><path d="m156.8-376.55 620.75 993.4-.36.22-620.74-993.4.36-.22Z"/><path d="M963.8-189.93-29.58 430.8l-.22-.36 993.4-620.74.22.36Z"/><path d="m38.79-279.34 856.7 798.9-.28.3L38.5-279.03l.28-.3Z"/><path d="M866.6-307.95 67.7 548.75l-.3-.28 798.89-856.7.3.28Z"/><path d="M295.96-439.9 638.44 680.3l-.4.13L295.56-439.78l.4-.12Z"/><path d="M1027.16-50.78-93.04 291.7l-.13-.4L1027.04-51.18l.12.4Z"/><path d="M598.96-450.38 335.45 691l-.4-.1 263.5-1141.36.4.1Z"/><path d="M1037.64 252.22-103.73-11.28l.1-.42 1141.36 263.51-.09.4Z"/><path d="m425.94 704.52 81.7-1168.54.42.03-81.7 1168.53-.43-.02Z"/><path d="m-117.26 79.2 1168.54 81.7-.03.42-1168.54-81.7.03-.42Z"/><path d="m139.3 605.7 655.04-971.12.35.23-655.04 971.13-.34-.23Z"/><path d="M-18.45-207.43 952.68 447.6l-.23.35-971.13-655.03.23-.35Z"/><path d="m-59.51 376.82 1052.84-513.5.18.38L-59.33 377.2l-.18-.38Z"/><path d="m210.43-406.25 513.5 1052.84-.37.18-513.5-1052.84.37-.18Z"/><path d="m24.83 504.35 884.06-768.5.28.32L25.1 504.67l-.28-.32Z"/><path d="m82.9-321.9 768.5 884.05-.3.28L82.58-321.63l.32-.28Z"/><path d="M-107.98 231.81 1041.9 8.3l.08.4L-107.9 232.23l-.08-.4Z"/><path d="M355.45-454.71 578.96 695.16l-.41.08L355.04-454.64l.4-.07Z"/><path d="m-86.72-70.62 1107.57 381.37-.13.4L-86.86-70.24l.14-.4Z"/><path d="M657.88-433.46 276.51 674.12l-.4-.14L657.5-433.6l.39.13Z"/><path d="m-111.45 28.43 1156.97 183.25-.07.41L-111.52 28.84l.07-.4Z"/><path d="M558.83-458.2 375.58 698.79l-.41-.07L558.4-458.26l.42.07Z"/><path d="M11.96-248.5 922.3 488.7l-.26.32L11.7-248.17l.26-.32Z"/><path d="M835.75-334.78 98.57 575.56l-.32-.26 737.18-910.34.32.26Z"/><path d="M257.3-426.6 677.09 666.97l-.4.15L256.92-426.46l.39-.15Z"/><path d="M1013.87-89.44-79.73 330.35l-.14-.39L1013.72-89.83l.15.4Z"/><path d="m122.9-353.7 688.53 947.68-.34.24-688.52-947.67.33-.25Z"/><path d="M940.96-223.83-6.72 464.69l-.24-.33 947.68-688.53.24.34Z"/><path d="M405.99-462.25 528.42 702.73l-.42.04L405.57-462.2l.42-.05Z"/><path d="M1049.51 59.25-115.47 181.69l-.04-.41L1049.46 58.83l.05.42Z"/><path d="M705.41-414.71 228.97 655.4l-.39-.17L705.03-414.88l.38.17Z"/><path d="M1001.97 358.68-68.15-117.77l.17-.39L1002.14 358.3l-.17.38Z"/><path d="m-118.61 130.27 1171.21-20.44.01.42-1171.21 20.44-.01-.42Z"/><path d="m456.99-465.35 20.44 1171.21-.42.01-20.44-1171.21.42-.01Z"/><path d="m-45.16-163.87 1024.52 567.9-.2.36L-45.36-163.5l.2-.36Z"/><path d="M751.13-391.9 183.23 632.62l-.36-.2L750.76-392.1l.36.2Z"/><path d="M165.52-381.89 768.83 622.2l-.35.22L165.16-381.67l.36-.22Z"/><path d="M969.15-181.22-34.93 422.1l-.22-.36L968.93-181.57l.22.35Z"/><path d="m45.83-286.75 842.63 813.72-.3.3L45.55-286.45l.29-.3Z"/><path d="M874-300.9 60.3 541.71l-.31-.29L873.71-301.2l.3.3Z"/><path d="M305.76-442.8 628.64 683.2l-.4.12L305.36-442.7l.4-.11Z"/><path d="M1030.06-40.98-95.95 281.9l-.11-.4L1029.94-41.38l.11.4Z"/><path d="M608.9-447.99 325.5 688.61l-.4-.1L608.5-448.1l.4.1Z"/><path d="M1035.25 262.16-101.35-21.23l.1-.4 1136.6 283.38-.1.4Z"/><path d="m459.74 705.91 14.1-1171.3h.42l-14.1 1171.3h-.42Z"/><path d="m-118.65 113 1171.31 14.1-.01.42-1171.3-14.1V113Z"/><path d="M167.88 623.82 765.75-383.51l.36.21L168.24 624.03l-.36-.21Z"/><path d="M-36.56-178.85 970.77 419.02l-.21.36L-36.77-178.5l.21-.36Z"/><path d="M-43.82 406.8 977.6-166.64l.2.36L-43.61 407.16l-.2-.36Z"/><path d="M180.46-390.56 753.9 630.88l-.36.2L180.1-390.35l.36-.2Z"/><path d="m47.75 529.24 838.21-818.26.3.3L48.03 529.54l-.3-.3Z"/><path d="m58.02-299 818.26 838.22-.3.3L57.72-298.7l.3-.3Z"/><path d="M-100.58 264.82 1034.47-24.7l.1.4-1135.04 289.54-.1-.4Z"/><path d="M322.44-447.31 611.96 687.72l-.4.1L322.02-447.2l.4-.1Z"/><path d="m-96.82-38.33 1127.75 316.78-.11.4L-96.93-37.93l.11-.4Z"/><path d="M625.59-443.56 308.81 684.2l-.4-.11L625.19-443.67l.4.11Z"/><path d="m-115.8 61.98 1165.63 116.14-.04.42L-115.83 62.4l.04-.42Z"/><path d="M525.28-462.53 409.14 703.1l-.42-.04L524.86-462.57l.42.04Z"/><path d="M-8.57-221.6 942.8 461.78l-.24.34L-8.82-221.26l.25-.34Z"/><path d="M808.86-355.31 125.48 596.08l-.34-.25 683.38-951.38.34.24Z"/><path d="M226.07-413.59 708.3 653.94l-.38.17L225.7-413.42l.38-.17Z"/><path d="M1000.85-120.67-66.68 361.57l-.17-.38 1067.53-482.24.17.38Z"/><path d="m96.11-333.04 742.1 906.34-.32.26-742.1-906.34.32-.26Z"/><path d="M920.3-250.63 13.96 491.47l-.26-.32 906.34-742.1.26.32Z"/><path d="M372.45-457.75 561.95 698.2l-.4.07L372.03-457.7l.41-.06Z"/><path d="m1045.01 25.71-1155.96 189.5-.07-.4L1044.95 25.3l.06.4Z"/><path d="M674.13-427.59 260.26 668.26l-.39-.15L673.74-427.74l.39.15Z"/><path d="M1014.85 327.39-81-86.48l.15-.39L1015 327l-.15.39Z"/><path d="m-117.06 164.07 1168.08-88.03.03.41-1168.08 88.04-.03-.42Z"/><path d="M423.19-463.8 511.22 704.3l-.41.03-88.04-1168.08.42-.04Z"/><path d="m-60.71-133.83 1055.6 507.8-.18.38-1055.6-507.8.18-.38Z"/><path d="m721.09-407.45-507.8 1055.6-.38-.18 507.8-1055.6.38.18Z"/><path d="m137.03-363.64 660.28 967.57-.34.23L136.69-363.4l.34-.23Z"/><path d="M950.9-209.7-16.67 450.56l-.23-.34 967.57-660.28.23.34Z"/><path d="m23.03-261.75 888.2 763.7-.26.32-888.21-763.7.27-.32Z"/><path d="M849.01-323.7 85.31 564.5l-.32-.27 763.7-888.2.32.26Z"/><path d="m273.52-432.56 387.36 1105.5-.4.14-387.36-1105.5.4-.13Z"/><path d="M1019.82-73.22-85.68 314.14l-.14-.4L1019.68-73.6l.14.39Z"/><path d="M575.85-455.23 358.56 695.83l-.41-.08L575.44-455.3l.4.08Z"/><path d="M1042.49 229.1-108.57 11.83l.08-.4L1042.57 228.7l-.08.4Z"/><path d="M449.52 705.7 484.06-465.2l.42.01-34.55 1170.89-.41-.01Z"/><path d="m-118.44 102.78 1170.89 34.54-.02.42-1170.88-34.54.01-.42Z"/><path d="M159.14 618.52 774.5-378.22l.36.22L159.5 618.74l-.36-.22Z"/><path d="m-31.26-187.6 996.74 615.36-.22.36-996.74-615.36.22-.36Z"/><path d="M-48.74 397.84 982.54-157.7l.2.37L-48.55 398.21l-.2-.37Z"/><path d="M189.42-395.48 744.95 635.8l-.37.2L189.05-395.3l.37-.2Z"/><path d="m40.67 521.87 852.37-803.52.29.3L40.96 522.18l-.29-.3Z"/><path d="M65.4-306.07 868.9 546.3l-.3.29L65.1-305.78l.3-.29Z"/><path d="M-103.01 254.9 1036.9-14.78l.1.4L-102.92 255.3l-.1-.4Z"/><path d="M332.36-449.75 602.04 690.18l-.4.1L331.95-449.66l.4-.1Z"/><path d="m-93.96-48.15 1122.04 336.42-.12.4L-94.08-47.75l.12-.4Z"/><path d="M635.4-440.7 299 681.34l-.4-.12L635-440.82l.4.12Z"/><path d="M-114.69 51.82 1048.74 188.3l-.05.41L-114.73 52.24l.05-.42Z"/><path d="M535.44-461.42 398.97 701.99l-.41-.05L535.02-461.47l.42.05Z"/><path d="m-2.53-229.85 939.31 699.89-.25.33L-2.78-229.52l.25-.33Z"/><path d="M817.11-349.27 117.22 590.04l-.33-.25 699.89-939.31.33.25Z"/><path d="M235.43-417.71 698.95 658.07l-.38.16L235.04-417.55l.39-.16Z"/><path d="M1004.97-111.31-70.81 352.22l-.16-.39L1004.8-111.69l.16.38Z"/><path d="m104.08-339.45 726.17 919.16-.33.26L103.75-339.2l.33-.26Z"/><path d="M926.7-242.66 7.56 483.51l-.26-.33 919.16-726.17.25.33Z"/><path d="m382.56-459.32 169.3 1159.1-.42.06-169.3-1159.1.42-.06Z"/><path d="m1046.58 35.82-1159.1 169.3-.06-.41 1159.1-169.3.06.4Z"/><path d="M683.66-423.89 250.73 664.56l-.39-.15L683.27-424.04l.39.15Z"/><path d="M1011.15 336.92-77.31-96.01l.16-.39L1011.3 336.53l-.15.39Z"/><path d="M-117.73 153.87 1051.7 86.23l.02.42-1169.44 67.64-.02-.42Z"/><path d="m433.39-464.47 67.63 1169.44-.41.02-67.64-1169.44.42-.02Z"/><path d="M-56.2-143 990.38 383.15l-.18.37L-56.4-142.62l.2-.38Z"/><path d="M730.26-402.94 204.1 643.65l-.37-.2L729.88-403.11l.38.18Z"/><path d="m145.53-369.33 643.29 978.95-.35.23-643.3-978.95.36-.23Z"/><path d="m956.59-201.21-978.95 643.3-.23-.36 978.95-643.29.23.35Z"/><path d="m29.77-269.44 874.74 779.1-.28.3L29.5-269.13l.28-.31Z"/><path d="M856.7-316.97 77.6 557.77l-.3-.28 779.09-874.74.31.28Z"/><path d="m283.2-435.85 368 1112.09-.4.13-368-1112.09.4-.13Z"/><path d="m1023.11-63.54-1112.09 368-.13-.4 1112.09-368 .13.4Z"/><path d="M585.88-453.25 348.52 693.85l-.4-.08 237.34-1147.1.4.08Z"/><path d="M1040.5 239.14-106.6 1.79l.1-.4 1147.09 237.34-.09.4Z"/><path d="m439.3 705.3 54.98-1170.1.42.02-54.98 1170.1-.42-.02Z"/><path d="m-118.04 92.56 1170.1 54.98-.02.42-1170.1-54.98.02-.42Z"/><path d="m150.5 613.07 632.65-985.85.35.23L150.84 613.3l-.35-.23Z"/><path d="m-25.81-196.25 985.85 632.67-.23.35L-26.04-195.9l.23-.36Z"/><path d="M-53.51 388.8 987.32-148.65l.19.38L-53.32 389.17l-.19-.37Z"/><path d="M198.46-400.25 735.91 640.58l-.38.19L198.1-400.06l.37-.19Z"/><path d="m33.73 514.36 866.26-788.51.28.3L34.01 514.68l-.28-.3Z"/><path d="M72.9-313.01 861.4 553.25l-.3.28L72.58-312.73l.3-.28Z"/><path d="M-105.28 244.93 1039.18-4.81l.09.4-1144.46 249.75-.09-.41Z"/><path d="M342.33-452.01 592.08 692.45l-.41.08L341.92-451.92l.41-.1Z"/><path d="m-90.94-57.91 1116 355.95-.12.4-1116-355.95.12-.4Z"/><path d="m645.17-437.68-355.94 1116-.4-.12 355.94-1116 .4.12Z"/><path d="m-113.4 41.68 1160.86 156.75-.06.41L-113.46 42.1l.06-.41Z"/><path d="M545.58-460.14 388.83 700.72l-.41-.06L545.17-460.2l.41.06Z"/><path d="M3.65-238 930.6 478.19l-.26.33L3.4-237.66l.26-.33Z"/><path d="M825.25-343.1 109.08 583.88l-.33-.26 716.17-926.96.33.26Z"/><path d="m244.85-421.67 444.68 1083.7-.38.16L244.46-421.5l.4-.16Z"/><path d="M1008.93-101.89-74.77 342.8l-.16-.4 1083.7-444.67.16.38Z"/><path d="m112.16-345.7 710.01 931.68-.33.25-710.01-931.69.33-.25Z"/><path d="M932.97-234.58 1.28 475.43l-.25-.33L932.72-234.9l.25.33Z"/><path d="M392.68-460.7 541.73 701.17l-.41.05L392.27-460.65l.41-.05Z"/><path d="M1047.96 45.94-113.91 195l-.05-.41L1047.9 45.53l.05.41Z"/><path d="M693.12-420.03 241.26 660.71l-.38-.16L692.74-420.2l.38.16Z"/><path d="M1007.28 346.38-73.45-105.47l.16-.4L1007.45 346l-.17.38Z"/><path d="m-118.23 143.66 1170.44-47.22.02.42-1170.44 47.22-.02-.42Z"/><path d="m443.6-464.97 47.22 1170.44-.42.02-47.22-1170.44.42-.02Z"/><path d="M-51.52-152.09 985.72 392.24l-.2.37L-51.72-151.72l.2-.37Z"/><path d="M739.35-398.26 195.02 638.98l-.37-.2L738.98-398.46l.37.2Z"/><path d="m154.12-374.86 626.11 990.02-.35.22-626.11-990.02.35-.22Z"/><path d="M962.12-192.62-27.9 433.5l-.22-.35L961.9-192.97l.22.35Z"/><path d="m36.63-277.01 861.02 794.24-.29.3-861-794.24.27-.3Z"/><path d="m864.27-310.1-794.24 861-.3-.27L863.97-310.4l.3.29Z"/><path d="M292.93-438.97 641.47 679.37l-.4.12L292.53-438.85l.4-.12Z"/><path d="M1026.23-53.8-92.11 294.72l-.12-.4L1026.1-54.2l.12.4Z"/><path d="M595.87-451.08 338.54 691.7l-.4-.1L595.45-451.16l.4.09Z"/><path d="M1038.34 249.13-104.44-8.2l.1-.4 1142.77 257.32-.09.4Z"/><path d="m429.1 704.73 75.38-1168.96.42.02-75.39 1168.97-.41-.03Z"/><path d="m-117.47 82.36 1168.96 75.39-.02.41L-117.5 82.78l.03-.42Z"/><path d="M141.94 607.48 791.71-367.2l.35.24L142.29 607.7l-.35-.24Z"/><path d="m-20.22-204.8 974.66 649.77-.23.35-974.66-649.77.23-.35Z"/><path d="m-58.12 379.67 1050.05-519.2.19.38-1050.05 519.2-.19-.38Z"/><path d="M207.59-404.86 726.79 645.2l-.38.19L207.2-404.67l.38-.19Z"/><path d="M26.92 506.74 906.8-266.53l.27.31L27.2 507.06l-.27-.32Z"/><path d="m80.52-319.82 773.27 879.89-.31.27L80.2-319.55l.32-.27Z"/><path d="M-107.36 234.92 1041.28 5.2l.08.41-1148.64 229.73-.08-.4Z"/><path d="M352.34-454.1 582.07 694.54l-.41.08L351.93-454.02l.4-.08Z"/><path d="m-87.74-67.62 1109.62 375.37-.14.4L-87.88-67.24l.14-.4Z"/><path d="M654.88-434.48 279.51 675.14l-.4-.14L654.5-434.62l.4.14Z"/><path d="M-111.94 31.56 1046 208.54l-.06.42L-112.01 31.98l.07-.42Z"/><path d="M555.7-458.68 378.7 699.26l-.4-.06L555.27-458.74l.42.06Z"/><path d="m9.97-246.03 914.32 732.25-.26.32L9.7-245.7l.26-.33Z"/><path d="M833.28-336.77 101.04 577.55l-.33-.26 732.25-914.32.32.26Z"/><path d="m254.34-425.47 425.7 1091.3-.38.16-425.7-1091.3.38-.16Z"/><path d="M1012.73-92.4-78.57 333.3l-.16-.38 1091.3-425.7.16.38Z"/><path d="M120.34-351.83 814 592.1l-.34.25-693.64-943.93.33-.25Z"/><path d="M939.1-226.4-4.86 467.26l-.24-.33 943.93-693.65.25.34Z"/><path d="m402.83-461.91 128.75 1164.3-.42.04-128.74-1164.3.41-.04Z"/><path d="m1049.17 56.1-1164.3 128.74-.04-.41L1049.12 55.68l.05.42Z"/><path d="M702.51-416 231.88 656.7l-.39-.17L702.13-416.16l.38.16Z"/><path d="M1003.26 355.78-69.43-114.87l.17-.39L1003.42 355.4l-.16.39Z"/><path d="m-118.55 133.44 1171.09-26.78.01.42-1171.09 26.78v-.42Z"/><path d="M453.82-465.29 480.6 705.8h-.42L453.4-465.27h.42Z"/><path d="M-46.7-161.1 980.9 401.25l-.2.37L-46.9-160.73l.2-.37Z"/><path d="M748.36-393.43 186 634.15l-.37-.2L748-393.63l.37.2Z"/><path d="m162.8-380.25 608.75 1000.8-.36.22-608.74-1000.8.36-.22Z"/><path d="M967.5-183.93-33.3 424.81l-.2-.36L967.3-184.29l.2.36Z"/><path d="m43.63-284.46 847.02 809.14-.28.3L43.34-284.15l.3-.3Z"/><path d="M871.72-303.1 62.58 543.9l-.3-.28L871.41-303.4l.3.28Z"/><path d="M302.71-441.92 631.68 682.33l-.4.12L302.31-441.81l.4-.11Z"/><path d="M1029.18-44.02-95.07 284.95l-.12-.4L1029.07-44.43l.11.4Z"/><path d="M605.82-448.75 328.59 689.37l-.4-.1L605.4-448.85l.4.1Z"/><path d="M1036.01 259.08-102.11-18.15l.1-.4 1138.12 277.22-.1.4Z"/><path d="M418.9 703.98 514.68-463.5l.42.03-95.78 1167.47-.42-.03Z"/><path d="m-116.72 72.16 1167.47 95.78-.03.42-1167.47-95.78.03-.42Z"/><path d="m133.49 601.73 666.68-963.17.34.23-666.68 963.17-.34-.23Z"/><path d="M-14.47-213.25 948.7 453.43l-.24.34L-14.7-212.9l.24-.34Z"/><path d="m-62.56 370.47 1058.94-500.8.18.38-1058.95 500.8-.17-.38Z"/><path d="M216.8-409.3 717.57 649.64l-.38.18L216.41-409.12l.38-.18Z"/><path d="m20.24 499 893.25-757.8.27.32-893.25 757.8-.27-.32Z"/><path d="m88.26-326.5 757.8 893.25-.32.27-757.8-893.25.32-.27Z"/><path d="M-109.28 224.88 1043.2 15.23l.08.41L-109.2 225.3l-.08-.41Z"/><path d="M362.38-456.02 572.03 696.46l-.41.08L361.97-455.94l.4-.08Z"/><path d="m-84.38-77.27 1102.9 394.67-.14.4L-84.52-76.88l.14-.4Z"/><path d="M664.53-431.12 269.86 671.78l-.4-.14 394.68-1102.9.4.14Z"/><path d="m-110.3 21.47 1154.67 197.17-.07.4L-110.38 21.89l.07-.4Z"/><path d="M565.79-457.05 368.62 697.64l-.4-.07L565.36-457.12l.42.06Z"/><path d="m16.43-253.94 901.4 748.08-.26.33-901.4-748.1.26-.31Z"/><path d="M841.2-330.3 93.11 571.1l-.32-.27 748.1-901.4.31.26Z"/><path d="M263.9-429.1 670.49 669.48l-.4.15L263.52-428.95l.39-.14Z"/><path d="M1016.35-82.84-82.21 323.76l-.15-.4 1098.57-406.6.14.4Z"/><path d="m128.64-357.81 677.06 955.9-.34.24-677.06-955.9.34-.24Z"/><path d="m945.07-218.1-955.9 677.06-.24-.34 955.9-677.06.24.34Z"/><path d="M413-462.94 521.41 703.42l-.42.04L412.6-462.9l.41-.04Z"/><path d="m1050.2 66.27-1166.36 108.4-.04-.41L1050.16 65.85l.04.42Z"/><path d="M711.84-411.8 222.54 652.5l-.38-.17 489.3-1064.31.38.18Z"/><path d="M999.06 365.1-65.24-124.2l.17-.38 1064.3 489.3-.17.38Z"/><path d="m-118.69 123.22 1171.38-6.34v.42l-1171.38 6.34v-.42Z"/><path d="m464.04-465.43 6.34 1171.38h-.42l-6.34-1171.38h.42Z"/><path d="m-41.7-170.02 1017.6 580.2-.2.36L-41.9-169.66l.2-.36Z"/><path d="m757.28-388.44-580.2 1017.6-.36-.2 580.2-1017.6.36.2Z"/><path d="M171.6-385.48 762.76 625.79l-.36.21L171.23-385.27l.36-.21Z"/><path d="M972.74-175.15-38.53 416.03l-.21-.36L972.53-175.51l.21.36Z"/><path d="m50.76-291.79 832.77 823.8-.3.3-832.76-823.8.3-.3Z"/><path d="M879.05-295.98 55.25 536.8l-.3-.3 823.8-832.76.3.3Z"/><path d="m312.55-444.7 309.3 1129.82-.4.1-309.3-1129.81.4-.12Z"/><path d="M1031.97-34.19-97.86 275.11l-.1-.4L1031.84-34.6l.12.4Z"/><path d="M615.73-446.24 318.68 686.86l-.4-.1 297.04-1133.1.4.1Z"/><path d="M1033.5 268.99-99.6-28.06l.1-.4 1133.1 297.04-.1.4Z"/><path d="m462.94 705.94 7.7-1171.36h.42l-7.7 1171.37h-.42Z"/><path d="m-118.68 116.2 1171.36 7.7v.42l-1171.37-7.7v-.42Z"/><path d="M170.64 625.45 763-385.14l.36.21L171 625.66l-.36-.21Z"/><path d="M-38.19-176.1 972.4 416.26l-.22.36L-38.4-175.74l.21-.36Z"/><path d="M-42.25 409.59 976.04-169.43l.2.37L-42.04 409.94l-.2-.36Z"/><path d="M177.67-388.99 756.7 629.3l-.37.2-579-1018.28.35-.2Z"/><path d="m49.99 531.53 833.73-822.84.29.3L50.28 531.83l-.3-.3Z"/><path d="m55.73-296.75 822.84 833.73-.3.3L55.43-296.47l.3-.29Z"/><path d="M-99.78 267.93 1033.67-27.81l.11.4L-99.67 268.34l-.1-.4Z"/><path d="M319.33-446.52 615.08 686.93l-.4.1L318.92-446.4l.4-.1Z"/><path d="m-97.68-35.25 1129.46 310.62-.11.4L-97.79-34.84l.11-.4Z"/><path d="M622.5-444.41 311.9 685.05l-.4-.11L622.1-444.53l.4.12Z"/><path d="m-116.1 65.17 1166.24 109.77-.04.41L-116.14 65.59l.04-.42Z"/><path d="M522.09-462.84 412.32 703.4l-.41-.04L521.67-462.88l.42.04Z"/><path d="m-10.44-219 955.12 678.18-.25.34-955.1-678.18.23-.34Z"/><path d="m806.26-357.17-678.18 955.1-.34-.23 678.18-955.12.34.25Z"/><path d="M223.16-412.26 711.22 652.6l-.38.17L222.78-412.08l.38-.17Z"/><path d="M999.52-123.58-65.35 364.48l-.18-.38L999.35-123.96l.17.38Z"/><path d="m93.64-331 747.04 902.26-.32.27L93.32-330.74l.32-.27Z"/><path d="M918.27-253.1 16 493.94l-.27-.32L918-253.42l.27.32Z"/><path d="M369.3-457.23 565.1 697.68l-.4.07-195.83-1154.9.41-.08Z"/><path d="M1044.49 22.56-110.42 218.38l-.07-.41L1044.42 22.14l.07.42Z"/><path d="M671.13-428.71 263.26 669.38l-.4-.15L670.75-428.86l.39.15Z"/><path d="M1015.97 324.4-82.12-83.49l.15-.39L1016.12 324l-.15.4Z"/><path d="m-116.8 167.26 1167.57-94.42.04.42-1167.59 94.42-.03-.42Z"/><path d="m420-463.55 94.42 1167.58-.42.04-94.42-1167.58.42-.04Z"/><path d="M-62.1-130.94 996.28 371.08l-.18.38L-62.27-130.56l.18-.38Z"/><path d="M718.2-408.83 216.18 649.53l-.38-.18L717.82-409l.38.18Z"/><path d="M134.39-361.83 799.95 602.1l-.34.24-665.56-963.94.34-.24Z"/><path d="M949.09-212.35-14.86 453.21l-.23-.34L948.85-212.7l.24.34Z"/><path d="m20.95-259.32 892.37 758.84-.27.32L20.68-259l.27-.32Z"/><path d="M846.58-325.79 87.74 566.58l-.32-.27 758.84-892.37.32.27Z"/><path d="M270.5-431.49 663.9 671.87l-.4.14L270.1-431.35l.4-.14Z"/><path d="M1018.75-76.24-84.61 317.16l-.14-.4 1103.36-393.4.14.4Z"/><path d="M572.7-455.82 361.71 696.42l-.41-.08L572.29-455.89l.41.07Z"/><path d="M1043.08 225.96-109.16 14.97l.08-.41 1152.23 210.99-.07.41Z"/><path d="m452.72 705.78 28.14-1171.05h.42L453.14 705.8h-.42Z"/><path d="m-118.52 105.98 1171.05 28.14-.01.42-1171.05-28.14v-.42Z"/><path d="m161.87 620.2 609.9-1000.1.36.22-609.9 1000.1-.36-.22Z"/><path d="m-32.94-184.87 1000.1 609.9-.23.36-1000.09-609.9.22-.36Z"/><path d="M-47.22 400.65 981.02-160.5l.2.37L-47.02 401.02l-.2-.37Z"/><path d="M186.6-393.96 747.77 634.28l-.37.2L186.24-393.76l.37-.2Z"/><path d="m42.87 524.19 847.97-808.16.28.3L43.16 524.5l-.29-.3Z"/><path d="M63.07-303.86 871.23 544.1l-.3.28L62.77-303.58l.3-.28Z"/><path d="m-102.27 258.01 1138.44-275.9.1.4-1138.44 275.9-.1-.4Z"/><path d="m329.25-449 275.9 1138.43-.4.1-275.9-1138.44.4-.1Z"/><path d="M-94.88-45.08 1029 285.2l-.12.4L-94.99-44.68l.11-.4Z"/><path d="M632.34-441.61 302.06 682.25l-.4-.11L631.94-441.73l.4.12Z"/><path d="m-115.05 55 1164.14 130.1-.04.42L-115.1 55.42l.05-.42Z"/><path d="M532.26-461.79 402.16 702.36l-.42-.05 130.1-1164.14.42.04Z"/><path d="m-4.44-227.28 943.13 694.74-.25.34L-4.69-226.94l.25-.34Z"/><path d="M814.54-351.18 119.8 591.95l-.34-.25L814.2-351.43l.34.25Z"/><path d="M232.49-416.44 701.89 656.8l-.38.17L232.1-416.27l.38-.17Z"/><path d="M1003.7-114.25-69.53 355.15l-.17-.38 1073.23-469.4.17.38Z"/><path d="m101.57-337.45 731.18 915.17-.32.26L101.25-337.2l.32-.26Z"/><path d="M924.71-245.17 9.54 486.01l-.26-.32L924.45-245.5l.26.32Z"/><path d="M379.39-458.85 555.02 699.3l-.41.07L378.97-458.78l.42-.07Z"/><path d="M1046.11 32.65-112.04 208.28l-.07-.4L1046.04 32.23l.07.41Z"/><path d="M680.68-425.07 253.7 665.74l-.4-.15L680.3-425.21l.39.14Z"/><path d="M1012.33 333.94-78.48-93.03l.15-.39 1090.81 426.97-.15.39Z"/><path d="m-117.54 157.07 1169.05-74.03.03.41-1169.05 74.03-.03-.41Z"/><path d="m430.2-464.28 74.02 1169.05-.42.03-74.02-1169.05.41-.03Z"/><path d="M-57.63-140.13 991.81 380.28l-.18.38L-57.81-139.76l.18-.37Z"/><path d="M727.4-404.37 206.97 645.07l-.38-.18L727.02-404.55l.37.18Z"/><path d="M142.85-367.56 791.5 607.85l-.35.23-648.63-975.41.34-.23Z"/><path d="M954.82-203.88-20.59 444.75l-.23-.35 975.41-648.63.23.35Z"/><path d="m27.64-267.05 879 774.3-.28.32-879-774.3.28-.31Z"/><path d="M854.3-319.1 80 559.9l-.3-.28 774.3-879 .3.28Z"/><path d="M280.16-434.83 654.24 675.22l-.4.14L279.76-434.7l.4-.13Z"/><path d="M1022.09-66.58-87.96 307.5l-.14-.4L1021.96-66.98l.13.4Z"/><path d="M582.74-453.89 351.67 694.5l-.4-.08L582.32-453.97l.4.08Z"/><path d="M1041.15 236-107.23 4.93l.08-.4 1148.38 231.06-.08.4Z"/><path d="m442.5 705.44 48.58-1170.38.42.02-48.58 1170.38-.42-.02Z"/><path d="m-118.19 95.76 1170.39 48.58-.02.42L-118.2 96.18l.02-.42Z"/><path d="m153.2 614.8 627.25-989.3.35.23-627.26 989.29-.35-.22Z"/><path d="m-27.54-193.55 989.3 627.26-.23.36L-27.76-193.2l.22-.36Z"/><path d="M-52.03 391.64 985.84-151.5l.2.37L-51.85 392.01l-.2-.37Z"/><path d="M195.62-398.77 738.75 639.1l-.38.2L195.25-398.59l.37-.2Z"/><path d="m35.89 516.73 861.93-793.24.29.3L36.17 517.04l-.28-.3Z"/><path d="M70.53-310.85 863.77 551.1l-.3.28L70.22-310.57l.3-.28Z"/><path d="m-104.59 248.06 1143.08-256 .09.4-1143.07 256-.1-.4Z"/><path d="m339.2-451.32 256 1143.07-.4.1-256-1143.08.4-.1Z"/><path d="m-91.9-54.86 1117.93 349.84-.13.4L-92.03-54.46l.13-.4Z"/><path d="M642.12-438.64 292.28 679.29l-.4-.13L641.72-438.77l.4.13Z"/><path d="m-113.82 44.85 1161.69 150.4-.05.42-1161.7-150.4.06-.42Z"/><path d="M542.4-460.56 392 701.14l-.4-.06L542-460.62l.4.06Z"/><path d="m1.7-235.45 930.86 711.1-.26.33L1.44-235.13l.25-.33Z"/><path d="m822.71-345.04-711.1 930.86-.33-.26 711.1-930.86.33.26Z"/><path d="M241.9-420.45 692.5 660.81l-.4.16L241.5-420.29l.4-.16Z"/><path d="M1007.71-104.85-73.55 345.75l-.16-.38 1081.26-450.6.16.38Z"/><path d="m109.61-343.76 715.1 927.79-.33.25-715.1-927.79.33-.25Z"/><path d="M931.02-237.12 3.23 477.98l-.25-.34 927.79-715.1.25.34Z"/><path d="M389.5-460.29 544.9 700.75l-.41.06-155.4-1161.04.42-.06Z"/><path d="m1047.55 42.77-1161.04 155.4-.06-.42L1047.5 42.35l.06.42Z"/><path d="M690.16-421.25 244.22 661.93l-.38-.15 445.94-1083.2.38.17Z"/><path d="M1008.51 343.43-74.68-102.52l.16-.38 1083.19 445.94-.16.38Z"/><path d="m-118.1 146.86 1170.17-53.62.02.42-1170.16 53.62-.02-.42Z"/><path d="m440.4-464.83 53.62 1170.16-.42.02L439.98-464.8l.42-.02Z"/><path d="M-53-149.25 987.2 389.4l-.2.37L-53.2-148.88l.2-.37Z"/><path d="M736.51-399.74 197.86 640.46l-.37-.2 538.65-1040.2.37.2Z"/><path d="m151.42-373.14 631.51 986.58-.35.23-631.51-986.59.35-.22Z"/><path d="M960.4-195.32-26.18 436.19l-.23-.35 986.59-631.51.23.35Z"/><path d="M34.47-274.65 899.8 514.87l-.28.3L34.19-274.35l.28-.3Z"/><path d="M861.91-312.27 72.4 553.07l-.3-.28L861.6-312.55l.31.28Z"/><path d="M289.87-438.01 644.52 678.4l-.4.13L289.48-437.88l.4-.13Z"/><path d="M1025.27-56.86-91.15 297.78l-.12-.4L1025.14-57.25l.13.4Z"/><path d="M592.74-451.78 341.67 692.4l-.41-.09L592.33-451.87l.4.1Z"/><path d="M1039.04 246-105.13-5.07l.09-.41 1144.17 251.07-.09.41Z"/><path d="m432.3 704.93 68.99-1169.36.41.02-69 1169.36-.4-.02Z"/><path d="m-117.67 85.55 1169.36 69-.02.42-1169.36-69 .02-.42Z"/><path d="m144.6 609.24 644.44-978.2.35.24-644.43 978.2-.35-.24Z"/><path d="m-21.98-202.13 978.2 644.43-.24.35-978.2-644.43.24-.35Z"/><path d="M-56.7 382.54 990.5-142.4l.19.37-1047.2 524.93-.18-.37Z"/><path d="m204.72-403.43 524.93 1047.2-.37.18-524.93-1047.2.37-.18Z"/><path d="m29.04 509.14 875.64-778.07.28.31L29.31 509.45l-.27-.3Z"/><path d="m78.12-317.7 778.07 875.65-.31.27L77.81-317.43l.3-.27Z"/><path d="m-106.73 238.06 1147.37-236 .09.4-1147.38 236-.08-.4Z"/><path d="m349.2-453.47 236 1147.37-.4.09L348.79-453.38l.41-.09Z"/><path d="m-88.76-64.59 1111.65 369.3-.13.4L-88.9-64.2l.14-.4Z"/><path d="M651.85-435.5 282.55 676.15l-.4-.13 369.3-1111.65.4.13Z"/><path d="m-112.42 34.73 1158.9 170.65-.06.41-1158.9-170.65.06-.41Z"/><path d="M552.53-459.16 381.88 699.74l-.41-.06 170.65-1158.9.41.06Z"/><path d="M7.97-243.52 926.28 483.7l-.26.33L7.72-243.19l.25-.33Z"/><path d="m830.78-338.76-727.23 918.3-.33-.25 727.23-918.31.33.26Z"/><path d="M251.36-424.3 683.02 664.66l-.38.16L250.97-424.14l.4-.16Z"/><path d="M1011.55-95.38-77.4 336.3l-.16-.4L1011.4-95.75l.15.38Z"/><path d="m117.77-349.93 698.8 940.13-.34.25-698.8-940.13.34-.25Z"/><path d="M937.19-228.97-2.94 469.83l-.25-.34 940.13-698.8.25.34Z"/><path d="M399.65-461.55 534.76 702.02l-.41.05L399.24-461.5l.41-.05Z"/><path d="M1048.81 52.91-114.77 188.02l-.04-.41L1048.76 52.5l.05.41Z"/><path d="M699.58-417.28 234.8 657.96l-.38-.16L699.2-417.44l.38.16Z"/><path d="M1004.54 352.84-70.7-111.94l.16-.38L1004.7 352.46l-.16.38Z"/><path d="m-118.47 136.64 1170.92-33.18.02.42-1170.93 33.18v-.42Z"/><path d="M450.62-465.2 483.8 705.71h-.42L450.2-465.18l.42-.02Z"/><path d="M-48.22-158.28 982.42 398.44l-.2.37L-48.42-157.92l.2-.37Z"/><path d="M745.54-394.96 188.82 635.68l-.37-.2L745.18-395.16l.36.2Z"/><path d="m160.08-378.58 614.2 997.46-.36.22-614.2-997.46.36-.22Z"/><path d="m965.84-186.66-997.46 614.2-.22-.36 997.46-614.2.22.36Z"/><path d="m41.43-282.14 851.43 804.5-.29.3-851.43-804.5.29-.3Z"/><path d="M869.4-305.31 64.9 546.12l-.3-.29L869.1-305.6l.3.29Z"/><path d="M299.64-441.02 634.75 681.42l-.4.12L299.25-440.9l.4-.12Z"/><path d="M1028.28-47.1-94.16 288.03l-.12-.4L1028.16-47.5l.12.4Z"/><path d="m602.7-449.5-271 1139.62-.4-.1 271-1139.61.4.1Z"/><path d="m1036.76 255.97-1139.62-271 .1-.41 1139.61 271-.09.4Z"/><path d="m422.1 704.23 89.39-1167.97.41.03-89.39 1167.97-.41-.03Z"/><path d="M-116.97 75.36 1051 164.75l-.03.42-1167.98-89.4.04-.41Z"/><path d="m136.12 603.54 661.4-966.8.35.24-661.4 966.8-.35-.24Z"/><path d="m-16.28-210.62 966.8 661.41-.24.34-966.8-661.4.24-.34Z"/><path d="m-61.19 373.36 1056.2-506.57.18.37-1056.2 506.57-.18-.37Z"/><path d="m213.9-407.93 506.57 1056.2-.37.18-506.58-1056.2.38-.18Z"/><path d="m22.32 501.44 889.1-762.67.26.31-889.1 762.68-.26-.32Z"/><path d="m85.82-324.42 762.67 889.1-.31.26L85.5-324.16l.32-.26Z"/><path d="M-108.7 228.03 1042.62 12.08l.08.41-1151.32 215.95-.08-.41Z"/><path d="M359.23-455.44 575.18 695.88l-.41.08L358.82-455.36l.41-.07Z"/><path d="m-85.45-74.26 1105.04 388.64-.14.4L-85.59-73.86l.14-.4Z"/><path d="M661.52-432.2 272.88 672.86l-.4-.14L661.12-432.33l.4.14Z"/><path d="M-110.84 24.63 1044.9 215.48l-.06.41L-110.91 25.04l.07-.41Z"/><path d="M562.63-457.58 371.78 698.16l-.41-.06L562.22-457.64l.41.06Z"/><path d="m14.4-251.48 905.47 743.15-.26.33L14.13-251.15l.26-.33Z"/><path d="M838.74-332.35 95.59 573.13l-.33-.26 743.15-905.48.33.26Z"/><path d="M260.9-427.98 673.49 668.35l-.4.15L260.52-427.83l.39-.15Z"/><path d="M1015.24-85.84-81.09 326.76l-.15-.4L1015.1-86.24l.15.4Z"/><path d="M126.03-355.95 808.3 596.23l-.34.24L125.69-355.7l.34-.24Z"/><path d="M943.21-220.71-8.97 461.57l-.24-.34 952.18-682.28.24.34Z"/><path d="M409.81-462.64 524.6 703.12l-.42.04L409.4-462.6l.42-.04Z"/><path d="M1049.9 63.08-115.86 177.86l-.04-.42L1049.86 62.66l.04.42Z"/><path d="M708.93-413.14 225.45 653.83l-.38-.17L708.55-413.31l.38.17Z"/><path d="M1000.39 362.19-66.57-121.3l.17-.38 1066.97 483.48-.18.38Z"/><path d="m-118.67 126.42 1171.33-12.74v.42l-1171.32 12.74v-.42Z"/><path d="m460.84-465.4 12.74 1171.32h-.42L460.42-465.4h.42Z"/><path d="M-43.28-167.24 977.48 407.4l-.2.37L-43.49-166.88l.2-.37Z"/><path d="M754.5-390.02 179.86 630.75l-.37-.2L754.13-390.23l.36.2Z"/><path d="m168.83-383.86 596.7 1008.03-.36.2-596.7-1008.01.36-.22Z"/><path d="M971.12-177.9-36.91 418.78l-.2-.36L970.9-178.27l.22.36Z"/><path d="m48.51-289.5 837.27 819.23-.3.3L48.22-289.21l.3-.3Z"/><path d="M876.77-298.22 57.53 539.04l-.3-.3 819.24-837.26.3.3Z"/><path d="M309.47-443.85 624.93 684.26l-.4.11L309.06-443.74l.4-.11Z"/><path d="M1031.11-37.27-97 278.2l-.11-.4L1031-37.69l.11.4Z"/><path d="M612.63-447.04 321.77 687.66l-.4-.1 290.85-1134.7.4.1Z"/><path d="M1034.3 265.89-100.4-24.96l.1-.4 1134.7 290.84-.1.4Z"/></g><g fill-rule="evenodd" clip-rule="evenodd" opacity=".7"><path fill="url(#paint1_linear_7670_12189)" d="M215.45 97.23a32.94 32.94 0 0 0 22.76 3.95c15.4-1.97 26.58 14.85 18.66 28.28-7.63 13.57-27.85 12.15-33.79-2.12-14-36.2-65.73-36.2-79.87 0-5.8 14.27-26.15 15.69-33.78 2.12-7.78-13.43 3.4-30.25 18.66-28.28 7.77 1.42 15.83 0 22.76-3.95a32.6 32.6 0 0 0 14.84-17.67c6.22-15.41 28.7-15.41 34.92 0a33.71 33.71 0 0 0 14.84 17.67Zm-32.23 19.5c15.4 0 24.46 17.96 14.98 30.4a33.14 33.14 0 0 0-7.91 21.63 33.7 33.7 0 0 0 7.91 21.62c9.62 12.44.43 30.54-14.98 30.4-15.4 0-24.46-17.96-14.98-30.4a33.13 33.13 0 0 0 7.91-21.62 33.7 33.7 0 0 0-7.91-21.63c-9.62-12.44-.43-30.54 14.98-30.4Z"/><path fill="url(#paint2_linear_7670_12189)" d="M260.54 191.55a32.94 32.94 0 0 0-22.76-3.96c-15.41 1.98-26.58-14.84-18.66-28.27 7.63-13.57 27.85-12.16 33.78 2.12 14 36.19 65.74 36.19 79.87 0 5.8-14.28 26.16-15.69 33.79-2.12 7.77 13.43-3.4 30.25-18.66 28.27a33.73 33.73 0 0 0-22.76 3.96 32.6 32.6 0 0 0-14.84 17.67c-6.22 15.4-28.7 15.4-34.92 0a33.71 33.71 0 0 0-14.84-17.67Zm32.23-19.5c-15.41 0-24.46-17.96-14.99-30.4a33.13 33.13 0 0 0 7.92-21.63 33.7 33.7 0 0 0-7.92-21.63c-9.6-12.44-.42-30.53 14.99-30.39 15.4 0 24.45 17.95 14.98 30.4a33.13 33.13 0 0 0-7.91 21.62 33.7 33.7 0 0 0 7.91 21.63c9.62 12.44.43 30.53-14.98 30.4Z"/><path fill="url(#paint3_linear_7670_12189)" d="M434.68 97.23a32.95 32.95 0 0 0 22.76 3.95c15.41-1.97 26.58 14.85 18.66 28.28-7.63 13.57-27.85 12.15-33.78-2.12-14-36.2-65.74-36.2-79.87 0-5.8 14.27-26.15 15.69-33.79 2.12-7.77-13.43 3.4-30.25 18.66-28.28 7.78 1.42 15.83 0 22.76-3.95a32.6 32.6 0 0 0 14.84-17.67c6.22-15.41 28.7-15.41 34.92 0a33.71 33.71 0 0 0 14.84 17.67Zm-32.23 19.5c15.41 0 24.46 17.96 14.99 30.4a33.14 33.14 0 0 0-7.92 21.63 33.7 33.7 0 0 0 7.92 21.62c9.61 12.44.42 30.54-14.99 30.4-15.4 0-24.45-17.96-14.98-30.4a33.13 33.13 0 0 0 7.91-21.62 33.7 33.7 0 0 0-7.91-21.63c-9.61-12.44-.43-30.54 14.98-30.4Z"/></g><g fill-rule="evenodd" clip-rule="evenodd" opacity=".6"><path fill="url(#paint4_linear_7670_12189)" d="M786.65 97.23a32.95 32.95 0 0 1-22.75 3.95c-15.41-1.97-26.58 14.85-18.66 28.28 7.63 13.57 27.84 12.15 33.78-2.12 14-36.2 65.74-36.2 79.87 0 5.8 14.27 26.15 15.69 33.79 2.12 7.77-13.43-3.4-30.25-18.66-28.28a33.73 33.73 0 0 1-22.76-3.95 32.6 32.6 0 0 1-14.85-17.67c-6.22-15.41-28.7-15.41-34.91 0a33.72 33.72 0 0 1-14.85 17.67Zm32.24 19.5c-15.41 0-24.46 17.96-14.99 30.4a33.14 33.14 0 0 1 7.92 21.63 33.7 33.7 0 0 1-7.92 21.62c-9.61 12.44-.42 30.54 14.99 30.4 15.4 0 24.45-17.96 14.98-30.4a33.13 33.13 0 0 1-7.92-21.62 33.7 33.7 0 0 1 7.92-21.63c9.61-12.44.42-30.54-14.99-30.4Z"/><path fill="url(#paint5_linear_7670_12189)" d="M741.57 191.55a32.94 32.94 0 0 1 22.75-3.96c15.41 1.98 26.58-14.84 18.66-28.27-7.63-13.57-27.84-12.16-33.78 2.12-14 36.19-65.73 36.19-79.87 0-5.8-14.28-26.15-15.69-33.79-2.12-7.77 13.43 3.4 30.25 18.67 28.27 7.77-1.41 15.83 0 22.75 3.96a32.6 32.6 0 0 1 14.85 17.67c6.22 15.4 28.7 15.4 34.91 0a33.71 33.71 0 0 1 14.85-17.67Zm-32.23-19.5c15.4 0 24.45-17.96 14.98-30.4a33.13 33.13 0 0 1-7.92-21.63 33.7 33.7 0 0 1 7.92-21.63c9.61-12.44.42-30.53-14.98-30.39-15.41 0-24.46 17.95-14.99 30.4a33.13 33.13 0 0 1 7.92 21.62 33.7 33.7 0 0 1-7.92 21.63c-9.61 12.44-.42 30.53 14.99 30.4Z"/><path fill="url(#paint6_linear_7670_12189)" d="M567.42 97.23a32.95 32.95 0 0 1-22.76 3.95c-15.4-1.97-26.57 14.85-18.66 28.28 7.64 13.57 27.85 12.15 33.79-2.12 14-36.2 65.73-36.2 79.87 0 5.8 14.27 26.15 15.69 33.78 2.12 7.78-13.43-3.39-30.25-18.66-28.28a33.74 33.74 0 0 1-22.76-3.95 32.6 32.6 0 0 1-14.84-17.67c-6.22-15.41-28.7-15.41-34.92 0a33.71 33.71 0 0 1-14.84 17.67Zm32.23 19.5c-15.4 0-24.45 17.96-14.98 30.4a33.14 33.14 0 0 1 7.91 21.63 33.7 33.7 0 0 1-7.91 21.62c-9.62 12.44-.43 30.54 14.98 30.4 15.41 0 24.46-17.96 14.99-30.4a33.13 33.13 0 0 1-7.92-21.62 33.7 33.7 0 0 1 7.92-21.63c9.6-12.44.42-30.54-14.99-30.4Z"/></g><g fill-rule="evenodd" clip-rule="evenodd" opacity=".6"><path fill="url(#paint7_linear_7670_12189)" d="M224.1 598.55a32.94 32.94 0 0 1 22.75-3.96c15.41 1.98 26.58-14.84 18.66-28.27-7.63-13.57-27.84-12.16-33.78 2.12-14 36.19-65.73 36.19-79.87 0-5.8-14.28-26.15-15.69-33.79-2.12-7.77 13.43 3.4 30.25 18.66 28.27 7.78-1.41 15.84 0 22.76 3.96a32.6 32.6 0 0 1 14.85 17.67c6.22 15.4 28.7 15.4 34.91 0a33.7 33.7 0 0 1 14.84-17.67Zm-32.23-19.5c15.4 0 24.45-17.96 14.98-30.4a33.13 33.13 0 0 1-7.92-21.63 33.7 33.7 0 0 1 7.92-21.63c9.61-12.44.42-30.53-14.98-30.39-15.41 0-24.46 17.95-14.99 30.4a33.13 33.13 0 0 1 7.92 21.62 33.7 33.7 0 0 1-7.92 21.63c-9.61 12.44-.42 30.53 14.99 30.4Z"/><path fill="url(#paint8_linear_7670_12189)" d="M333.71 504.23a32.95 32.95 0 0 0 22.76 3.95c15.41-1.97 26.58 14.85 18.66 28.28-7.63 13.57-27.85 12.15-33.78-2.12-14-36.2-65.74-36.2-79.87 0-5.8 14.27-26.16 15.69-33.79 2.12-7.77-13.43 3.4-30.25 18.66-28.28 7.78 1.42 15.83 0 22.76-3.95a32.6 32.6 0 0 0 14.84-17.67c6.22-15.41 28.7-15.41 34.92 0a33.72 33.72 0 0 0 14.84 17.67Zm-32.23 19.5c15.41 0 24.46 17.96 14.99 30.4a33.14 33.14 0 0 0-7.92 21.63 33.7 33.7 0 0 0 7.92 21.62c9.6 12.44.42 30.54-14.99 30.4-15.4 0-24.45-17.96-14.98-30.4a33.13 33.13 0 0 0 7.91-21.62 33.7 33.7 0 0 0-7.91-21.63c-9.62-12.44-.43-30.54 14.98-30.4Z"/></g><g fill-rule="evenodd" clip-rule="evenodd" opacity=".6"><path fill="url(#paint9_linear_7670_12189)" d="M707.96 598.77a32.95 32.95 0 0 0-22.76-3.95c-15.4 1.97-26.58-14.85-18.66-28.28 7.63-13.57 27.85-12.15 33.79 2.12 14 36.2 65.73 36.2 79.87 0 5.8-14.27 26.15-15.69 33.78-2.12 7.78 13.43-3.4 30.25-18.66 28.28a33.74 33.74 0 0 0-22.76 3.95 32.6 32.6 0 0 0-14.84 17.67c-6.22 15.41-28.7 15.41-34.92 0a33.71 33.71 0 0 0-14.84-17.67Zm32.23-19.5c-15.4 0-24.46-17.96-14.98-30.4a33.14 33.14 0 0 0 7.91-21.63 33.7 33.7 0 0 0-7.91-21.62c-9.62-12.44-.43-30.54 14.98-30.4 15.4 0 24.46 17.96 14.98 30.4a33.13 33.13 0 0 0-7.91 21.62 33.7 33.7 0 0 0 7.91 21.63c9.62 12.44.43 30.54-14.98 30.4Z"/><path fill="url(#paint10_linear_7670_12189)" d="M662.87 504.45a32.94 32.94 0 0 0 22.76 3.96c15.4-1.98 26.58 14.84 18.66 28.27-7.63 13.57-27.85 12.16-33.78-2.12-14-36.19-65.74-36.19-79.87 0-5.8 14.28-26.16 15.69-33.79 2.12-7.77-13.43 3.4-30.25 18.66-28.27 7.77 1.41 15.83 0 22.76-3.96a32.6 32.6 0 0 0 14.84-17.67c6.22-15.41 28.7-15.41 34.92 0a33.72 33.72 0 0 0 14.84 17.67Zm-32.23 19.5c15.41 0 24.46 17.96 14.99 30.4a33.13 33.13 0 0 0-7.92 21.63 33.7 33.7 0 0 0 7.91 21.63c9.62 12.44.43 30.53-14.98 30.39-15.4 0-24.46-17.95-14.98-30.4a33.13 33.13 0 0 0 7.91-21.62 33.7 33.7 0 0 0-7.91-21.63c-9.62-12.44-.43-30.53 14.98-30.4Z"/><path fill="url(#paint11_linear_7670_12189)" d="M488.73 598.77a32.95 32.95 0 0 0-22.76-3.95c-15.41 1.97-26.58-14.85-18.66-28.28 7.63-13.57 27.85-12.15 33.78 2.12 14 36.2 65.74 36.2 79.87 0 5.8-14.27 26.15-15.69 33.79-2.12 7.77 13.43-3.4 30.25-18.66 28.28a33.74 33.74 0 0 0-22.76 3.95 32.6 32.6 0 0 0-14.84 17.67c-6.22 15.41-28.7 15.41-34.92 0a33.72 33.72 0 0 0-14.84-17.67Zm32.23-19.5c-15.41 0-24.46-17.96-14.99-30.4a33.13 33.13 0 0 0 7.92-21.63c0-7.91-2.83-15.55-7.92-21.62-9.61-12.44-.42-30.54 14.99-30.4 15.4 0 24.45 17.96 14.98 30.4a33.13 33.13 0 0 0-7.92 21.62 33.7 33.7 0 0 0 7.92 21.63c9.61 12.44.42 30.54-14.98 30.4Z"/></g><defs><linearGradient id="paint1_linear_7670_12189" x1="183.19" x2="183.19" y1="68" y2="220.78" gradientUnits="userSpaceOnUse"><stop stop-color="#EBECEC"/><stop offset="1" stop-color="#EBECEC"/></linearGradient><linearGradient id="paint2_linear_7670_12189" x1="292.8" x2="292.8" y1="220.78" y2="68" gradientUnits="userSpaceOnUse"><stop stop-color="#EBECEC"/><stop offset="1" stop-color="#EBECEC"/></linearGradient><linearGradient id="paint3_linear_7670_12189" x1="484.52" x2="311.04" y1="148.99" y2="115.6" gradientUnits="userSpaceOnUse"><stop stop-color="#EBECEC" stop-opacity="0"/><stop offset="1" stop-color="#EBECEC"/></linearGradient><linearGradient id="paint4_linear_7670_12189" x1="818.92" x2="818.92" y1="68" y2="220.78" gradientUnits="userSpaceOnUse"><stop stop-color="#EBECEC"/><stop offset="1" stop-color="#EBECEC"/></linearGradient><linearGradient id="paint5_linear_7670_12189" x1="709.3" x2="709.3" y1="220.78" y2="68" gradientUnits="userSpaceOnUse"><stop stop-color="#EBECEC"/><stop offset="1" stop-color="#EBECEC"/></linearGradient><linearGradient id="paint6_linear_7670_12189" x1="517.58" x2="691.07" y1="148.99" y2="115.6" gradientUnits="userSpaceOnUse"><stop stop-color="#EBECEC" stop-opacity="0"/><stop offset="1" stop-color="#EBECEC"/></linearGradient><linearGradient id="paint7_linear_7670_12189" x1="191.83" x2="191.83" y1="627.78" y2="475" gradientUnits="userSpaceOnUse"><stop stop-color="#EBECEC"/><stop offset="1" stop-color="#EBECEC"/></linearGradient><linearGradient id="paint8_linear_7670_12189" x1="383.55" x2="210.07" y1="555.99" y2="522.6" gradientUnits="userSpaceOnUse"><stop stop-color="#EBECEC" stop-opacity="0"/><stop offset="1" stop-color="#EBECEC"/></linearGradient><linearGradient id="paint9_linear_7670_12189" x1="740.23" x2="740.23" y1="628" y2="475.22" gradientUnits="userSpaceOnUse"><stop stop-color="#EBECEC"/><stop offset="1" stop-color="#EBECEC"/></linearGradient><linearGradient id="paint10_linear_7670_12189" x1="630.61" x2="630.61" y1="475.22" y2="628" gradientUnits="userSpaceOnUse"><stop stop-color="#EBECEC"/><stop offset="1" stop-color="#EBECEC"/></linearGradient><linearGradient id="paint11_linear_7670_12189" x1="438.89" x2="612.37" y1="547.01" y2="580.4" gradientUnits="userSpaceOnUse"><stop stop-color="#EBECEC" stop-opacity="0"/><stop offset="1" stop-color="#EBECEC"/></linearGradient><radialGradient id="paint0_radial_7670_12189" cx="0" cy="0" r="1" gradientTransform="translate(441.309 -325.206) rotate(90.3745) scale(992.369)" gradientUnits="userSpaceOnUse"><stop offset=".47" stop-color="#CECFCF" stop-opacity="0"/><stop offset="1" stop-color="#CECFCF"/></radialGradient></defs></svg>
