<svg width="173" height="157" viewBox="0 0 173 157" fill="none" xmlns="http://www.w3.org/2000/svg">
<path d="M154.965 17.7021L154.965 103.839C154.965 116.16 154.965 122.321 152.568 127.027C150.458 131.166 147.093 134.532 142.953 136.641C138.247 139.039 132.087 139.039 119.765 139.039L26.8516 139.039" stroke="#CECFCF"/>
<circle cx="17.365" cy="17.365" r="16.865" transform="matrix(4.37114e-08 -1 -1 -4.37114e-08 35.5078 156.406)" fill="#E9ECEC" stroke="#CECFCF"/>
<path d="M171.83 6.73594C171.83 5.60758 171.83 4.79139 171.777 4.14946C171.725 3.51337 171.625 3.09256 171.449 2.74697C171.113 2.0884 170.578 1.55297 169.919 1.21741C169.573 1.04133 169.153 0.940744 168.517 0.888773C167.875 0.836326 167.058 0.835937 165.93 0.835937L144 0.835936C142.872 0.835936 142.056 0.836325 141.414 0.888772C140.778 0.940742 140.357 1.04133 140.011 1.21741C139.353 1.55297 138.817 2.0884 138.482 2.74697C138.305 3.09256 138.205 3.51337 138.153 4.14946C138.1 4.79138 138.1 5.60758 138.1 6.73594L138.1 28.6659C138.1 29.7943 138.1 30.6105 138.153 31.2524C138.205 31.8885 138.305 32.3093 138.482 32.6549C138.817 33.3135 139.353 33.8489 140.011 34.1845C140.357 34.3605 140.778 34.4611 141.414 34.5131C142.056 34.5655 142.872 34.5659 144 34.5659L165.93 34.5659C167.058 34.5659 167.875 34.5655 168.517 34.5131C169.153 34.4611 169.573 34.3605 169.919 34.1845C170.578 33.8489 171.113 33.3135 171.449 32.6549C171.625 32.3093 171.725 31.8885 171.777 31.2524C171.83 30.6105 171.83 29.7943 171.83 28.6659L171.83 6.73594Z" fill="#E9ECEC" stroke="#CECFCF"/>
</svg>
