<svg width="492" height="200" viewBox="0 0 492 200" fill="none" xmlns="http://www.w3.org/2000/svg">
<path d="M468.53 25.9609L321.801 25.9609C309.48 25.9609 303.319 25.9609 298.613 28.3588C294.473 30.468 291.108 33.8336 288.999 37.9731C286.601 42.6792 286.601 48.8398 286.601 61.1609L286.601 139.284C286.601 151.606 286.601 157.766 284.203 162.472C282.094 166.612 278.728 169.977 274.589 172.087C269.882 174.484 263.722 174.484 251.401 174.484L7.75195 174.484" stroke="#CECFCF"/>
<rect x="49.1191" y="174.57" width="33.7338" height="33.7338" rx="3.5" transform="rotate(135 49.1191 174.57)" fill="#E9ECEC" stroke="#CECFCF"/>
<rect x="490.777" y="25.375" width="33.7338" height="33.7338" rx="3.5" transform="rotate(135 490.777 25.375)" fill="#E9ECEC" stroke="#CECFCF"/>
</svg>
