<svg width="314" height="207" viewBox="0 0 314 207" fill="none" xmlns="http://www.w3.org/2000/svg">
<g clip-path="url(#clip0_8620_53847)">
<path d="M-57.0602 70.5469L107.148 70.5469C119.469 70.5469 125.63 70.5469 130.336 72.9447C134.475 75.0539 137.841 78.4195 139.95 82.5591C142.348 87.2651 142.348 93.4257 142.348 105.747L142.348 108.371C142.348 120.692 142.348 126.853 144.746 131.559C146.855 135.699 150.221 139.064 154.36 141.173C159.066 143.571 165.227 143.571 177.548 143.571L294.646 143.571" stroke="#CECFCF"/>
<path d="M-78.9363 206.542L31.6496 206.542C43.9707 206.542 50.1313 206.542 54.8374 204.144C58.9769 202.035 62.3425 198.67 64.4517 194.53C66.8496 189.824 66.8496 183.663 66.8496 171.342L66.8496 -26.7926C66.8496 -39.1138 66.8496 -45.2743 69.2474 -49.9804C71.3567 -54.12 74.7222 -57.4855 78.8618 -59.5947C83.5679 -61.9926 89.7284 -61.9926 102.05 -61.9926L139.87 -61.9926C152.191 -61.9926 158.352 -61.9926 163.058 -64.3905C167.198 -66.4997 170.563 -69.8652 172.672 -74.0048C175.07 -78.7109 175.07 -84.8714 175.07 -97.1926L175.07 -242.25" stroke="#CECFCF"/>
<circle cx="17.365" cy="17.365" r="16.865" transform="matrix(4.37114e-08 -1 -1 -4.37114e-08 312.561 161.484)" fill="#E9ECEC" stroke="#CECFCF"/>
<rect x="90.6738" y="70.5156" width="33.7338" height="33.7338" rx="3.5" transform="rotate(135 90.6738 70.5156)" fill="#E9ECEC" stroke="#CECFCF"/>
</g>
<defs>
<clipPath id="clip0_8620_53847">
<rect width="449" height="313" fill="white" transform="translate(313.02 -242) rotate(90)"/>
</clipPath>
</defs>
</svg>
