<svg width="387" height="326" viewBox="0 0 387 326" fill="none" xmlns="http://www.w3.org/2000/svg">
<mask id="mask0_8566_85896" style="mask-type:alpha" maskUnits="userSpaceOnUse" x="0" y="0" width="387" height="323">
<rect x="0.333008" y="0.398438" width="386.15" height="322.602" fill="url(#paint0_linear_8566_85896)"/>
</mask>
<g mask="url(#mask0_8566_85896)">
<path d="M38.335 -0.734375V297.266" stroke="#181E22"/>
<path d="M91.335 -0.734375V297.266" stroke="#181E22"/>
<path d="M144.335 -0.734375V297.266" stroke="#181E22"/>
<path d="M197.335 -0.734375V297.266" stroke="#181E22"/>
<path d="M250.335 -0.734375V297.266" stroke="#181E22"/>
<path d="M303.335 -0.734375V297.266" stroke="#181E22"/>
<path d="M356.335 -0.734375V297.266" stroke="#181E22"/>
<rect x="-3.55371" y="4.75" width="389.5" height="0.5" fill="#2E2E38" stroke="#181E22" stroke-width="0.5"/>
<rect x="-3.55371" y="33.75" width="389.5" height="0.5" fill="#2E2E38" stroke="#181E22" stroke-width="0.5"/>
<rect x="-3.55371" y="62.75" width="389.5" height="0.5" fill="#2E2E38" stroke="#181E22" stroke-width="0.5"/>
<rect x="-3.55371" y="91.75" width="389.5" height="0.5" fill="#2E2E38" stroke="#181E22" stroke-width="0.5"/>
<rect x="-3.55371" y="120.75" width="389.5" height="0.5" fill="#2E2E38" stroke="#181E22" stroke-width="0.5"/>
<rect x="-3.55371" y="149.75" width="389.5" height="0.5" fill="#2E2E38" stroke="#181E22" stroke-width="0.5"/>
<rect x="-3.55371" y="178.75" width="389.5" height="0.5" fill="#2E2E38" stroke="#181E22" stroke-width="0.5"/>
<rect x="-3.55371" y="207.75" width="389.5" height="0.5" fill="#2E2E38" stroke="#181E22" stroke-width="0.5"/>
<rect x="-3.55371" y="236.75" width="389.5" height="0.5" fill="#2E2E38" stroke="#181E22" stroke-width="0.5"/>
<rect x="-3.55371" y="265.75" width="389.5" height="0.5" fill="#2E2E38" stroke="#181E22" stroke-width="0.5"/>
<path d="M-13.7606 159.14C-14.0316 159.087 -14.2086 158.825 -14.1558 158.554C-14.1031 158.282 -13.8406 158.105 -13.5695 158.158L-13.7606 159.14ZM39.5127 169L39.6888 169.468L39.5562 169.518L39.4172 169.491L39.5127 169ZM91.335 149.5L91.1589 149.032L91.3878 148.946L91.5963 149.074L91.335 149.5ZM144.335 182L144.739 182.294L144.467 182.668L144.074 182.426L144.335 182ZM197.835 108.5L197.431 108.206L197.778 107.729L198.191 108.149L197.835 108.5ZM251.513 163V163.5H251.303L251.156 163.351L251.513 163ZM302.835 163L303.266 163.254L303.121 163.5H302.835V163ZM355.835 73L355.404 72.7463L355.527 72.5372L355.768 72.5045L355.835 73ZM-13.5695 158.158L39.6082 168.509L39.4172 169.491L-13.7606 159.14L-13.5695 158.158ZM39.3366 168.532L91.1589 149.032L91.511 149.968L39.6888 169.468L39.3366 168.532ZM91.5963 149.074L144.596 181.574L144.074 182.426L91.0736 149.926L91.5963 149.074ZM143.931 181.706L197.431 108.206L198.239 108.794L144.739 182.294L143.931 181.706ZM198.191 108.149L251.869 162.649L251.156 163.351L197.479 108.851L198.191 108.149ZM251.513 162.5H302.835V163.5H251.513V162.5ZM302.404 162.746L355.404 72.7463L356.266 73.2537L303.266 163.254L302.404 162.746ZM355.768 72.5045L396.268 67.0045L396.402 67.9955L355.902 73.4955L355.768 72.5045Z" fill="url(#paint1_linear_8566_85896)"/>
<circle cx="144.335" cy="182" r="2" fill="#3B3D3F"/>
<circle cx="197.335" cy="109" r="2" fill="#3B3D3F"/>
<circle cx="91.335" cy="150" r="2" fill="#3B3D3F"/>
<circle cx="38.335" cy="169" r="2" fill="#3B3D3F"/>
<circle cx="144.335" cy="266" r="2" fill="#3B3D3F"/>
<circle opacity="0.5" cx="250.335" cy="36" r="2" fill="#3B3D3F"/>
<circle opacity="0.5" cx="303.335" cy="267" r="2" fill="#3B3D3F"/>
<circle cx="250.335" cy="162" r="2" fill="#3B3D3F"/>
<circle cx="303.335" cy="162" r="2" fill="#3B3D3F"/>
<path d="M-7.76512 265.51C-8.03568 265.566 -8.21019 265.83 -8.15492 266.1C-8.09965 266.371 -7.83551 266.545 -7.56496 266.49L-7.76512 265.51ZM38.835 256.5L38.935 256.99L38.9734 256.982L39.01 256.969L38.835 256.5ZM145.835 149L146.09 148.57L145.666 148.319L145.408 148.739L145.835 149ZM197.335 179.5L197.08 179.93L197.435 180.14L197.709 179.832L197.335 179.5ZM249.335 121L249.191 120.521L249.055 120.562L248.961 120.668L249.335 121ZM304.335 104.5L304.479 104.979L304.538 104.961L304.591 104.93L304.335 104.5ZM356.335 73.5002L356.591 73.9297L356.623 73.9108L356.651 73.8874L356.335 73.5002ZM92.335 236.5L92.51 236.969L92.6716 236.908L92.7615 236.761L92.335 236.5ZM-7.56496 266.49L38.935 256.99L38.7349 256.01L-7.76512 265.51L-7.56496 266.49ZM145.58 149.43L197.08 179.93L197.59 179.07L146.09 148.57L145.58 149.43ZM197.709 179.832L249.709 121.332L248.961 120.668L196.961 179.168L197.709 179.832ZM249.479 121.479L304.479 104.979L304.191 104.021L249.191 120.521L249.479 121.479ZM304.591 104.93L356.591 73.9297L356.079 73.0707L304.079 104.071L304.591 104.93ZM39.01 256.969L92.51 236.969L92.1599 236.032L38.6599 256.032L39.01 256.969ZM92.7615 236.761L146.262 149.261L145.408 148.739L91.9084 236.239L92.7615 236.761ZM356.651 73.8874L392.151 44.8874L391.519 44.113L356.019 73.113L356.651 73.8874Z" fill="url(#paint2_linear_8566_85896)"/>
<circle cx="146.335" cy="149" r="2" fill="#3B3D3F"/>
<circle cx="197.335" cy="179" r="2" fill="#3B3D3F"/>
<circle cx="91.335" cy="237" r="2" fill="#3B3D3F"/>
<circle cx="39.335" cy="256" r="2" fill="#3B3D3F"/>
<circle cx="250.335" cy="121" r="2" fill="#3B3D3F"/>
<circle cx="303.335" cy="105" r="2" fill="#3B3D3F"/>
<circle cx="356.335" cy="73.0002" r="2" fill="#3B3D3F"/>
</g>
<g filter="url(#filter0_f_8566_85896)">
<ellipse cx="193.002" cy="165.976" rx="73.0833" ry="70.4365" fill="#0A0D0F"/>
</g>
<rect x="115.501" y="77.5" width="154.229" height="154.229" rx="77.1145" fill="#0A0D0F" stroke="url(#paint3_linear_8566_85896)"/>
<g filter="url(#filter1_i_8566_85896)">
<rect x="123.001" y="85" width="139" height="139" rx="69.5" fill="#060809"/>
</g>
<rect x="123.501" y="85.5" width="138" height="138" rx="69" stroke="url(#paint4_linear_8566_85896)"/>
<rect x="128.501" y="90.5" width="128" height="128" rx="64" fill="#0A0D0F" stroke="url(#paint5_linear_8566_85896)"/>
<g filter="url(#filter2_i_8566_85896)">
<rect x="133.001" y="95" width="119" height="119" rx="59.5" fill="#060809"/>
</g>
<rect x="133.501" y="95.5" width="118" height="118" rx="59" stroke="url(#paint6_linear_8566_85896)"/>
<rect x="138.501" y="100.5" width="107" height="108" rx="53.5" fill="#0A0D0F" stroke="url(#paint7_linear_8566_85896)"/>
<rect x="169.267" y="132.992" width="45.4667" height="43.0111" rx="6" fill="#FF5500"/>
<rect x="177.722" y="140.992" width="4" height="27.0111" rx="2" fill="#0A0D0F"/>
<circle cx="179.722" cy="149.252" r="3.45556" fill="#FF5500" stroke="#0A0D0F" stroke-width="2"/>
<rect x="189.999" y="140.992" width="4" height="27.0111" rx="2" fill="#0A0D0F"/>
<circle cx="191.999" cy="158.252" r="3.45556" fill="#FF5500" stroke="#0A0D0F" stroke-width="2"/>
<rect x="202.277" y="140.992" width="4" height="27.0111" rx="2" fill="#0A0D0F"/>
<circle cx="204.278" cy="154.498" r="3.45556" fill="#FF5500" stroke="#0A0D0F" stroke-width="2"/>
<rect x="288.628" y="232.663" width="47.128" height="47.128" rx="7.564" fill="url(#paint8_linear_8566_85896)"/>
<rect x="288.628" y="232.663" width="47.128" height="47.128" rx="7.564" stroke="url(#paint9_linear_8566_85896)" stroke-width="0.872003"/>
<path d="M316.813 255.125C316.813 256.077 316.531 257.007 316.002 257.799C315.474 258.59 314.722 259.207 313.843 259.571C312.963 259.935 311.996 260.031 311.062 259.845C310.129 259.659 309.271 259.201 308.598 258.528C307.925 257.855 307.467 256.997 307.281 256.064C307.095 255.13 307.191 254.163 307.555 253.283C307.919 252.404 308.536 251.652 309.327 251.124C310.119 250.595 311.049 250.312 312.001 250.312C313.277 250.314 314.5 250.821 315.402 251.724C316.305 252.626 316.812 253.849 316.813 255.125ZM323.376 256C323.376 258.25 322.709 260.449 321.459 262.32C320.209 264.19 318.433 265.648 316.354 266.509C314.275 267.37 311.988 267.595 309.782 267.156C307.575 266.718 305.548 265.634 303.958 264.043C302.367 262.453 301.283 260.426 300.845 258.219C300.406 256.013 300.631 253.725 301.492 251.647C302.353 249.568 303.811 247.792 305.681 246.542C307.552 245.292 309.751 244.625 312.001 244.625C315.017 244.628 317.908 245.828 320.041 247.96C322.173 250.093 323.373 252.984 323.376 256ZM321.626 256C321.625 254.704 321.362 253.423 320.854 252.231C320.346 251.039 319.602 249.962 318.668 249.064C317.734 248.167 316.629 247.466 315.418 247.006C314.207 246.545 312.916 246.333 311.621 246.383C306.47 246.582 302.362 250.872 302.376 256.027C302.381 258.374 303.246 260.637 304.808 262.389C305.445 261.466 306.253 260.675 307.188 260.058C307.268 260.005 307.363 259.98 307.459 259.986C307.554 259.993 307.645 260.03 307.717 260.093C308.906 261.121 310.426 261.687 311.998 261.687C313.57 261.687 315.09 261.121 316.279 260.093C316.351 260.03 316.441 259.993 316.537 259.986C316.632 259.98 316.727 260.005 316.807 260.058C317.744 260.674 318.553 261.466 319.19 262.389C320.76 260.631 321.627 258.357 321.626 256Z" fill="white"/>
<rect x="43.771" y="67.936" width="47.128" height="47.128" rx="7.564" fill="url(#paint10_linear_8566_85896)"/>
<rect x="43.771" y="67.936" width="47.128" height="47.128" rx="7.564" stroke="url(#paint11_linear_8566_85896)" stroke-width="0.872003"/>
<path d="M78.7158 100.023C78.7158 100.256 78.6236 100.478 78.4595 100.642C78.2954 100.806 78.0729 100.898 77.8408 100.898H56.8408C56.6088 100.898 56.3862 100.806 56.2221 100.642C56.058 100.478 55.9658 100.256 55.9658 100.023C55.9658 99.7914 56.058 99.5688 56.2221 99.4047C56.3862 99.2406 56.6088 99.1484 56.8408 99.1484H57.7158V92.1484C57.7158 91.9164 57.808 91.6938 57.9721 91.5297C58.1362 91.3656 58.3588 91.2734 58.5908 91.2734H61.2158C61.4479 91.2734 61.6704 91.3656 61.8345 91.5297C61.9986 91.6938 62.0908 91.9164 62.0908 92.1484V99.1484H63.8408V86.8984C63.8408 86.6664 63.933 86.4438 64.0971 86.2797C64.2612 86.1156 64.4838 86.0234 64.7158 86.0234H68.2158C68.4479 86.0234 68.6704 86.1156 68.8345 86.2797C68.9986 86.4438 69.0908 86.6664 69.0908 86.8984V99.1484H70.8408V81.6484C70.8408 81.4164 70.933 81.1938 71.0971 81.0297C71.2612 80.8656 71.4838 80.7734 71.7158 80.7734H76.0908C76.3229 80.7734 76.5454 80.8656 76.7095 81.0297C76.8736 81.1938 76.9658 81.4164 76.9658 81.6484V99.1484H77.8408C78.0729 99.1484 78.2954 99.2406 78.4595 99.4047C78.6236 99.5688 78.7158 99.7914 78.7158 100.023Z" fill="white"/>
<defs>
<filter id="filter0_f_8566_85896" x="113.919" y="89.5391" width="158.167" height="152.873" filterUnits="userSpaceOnUse" color-interpolation-filters="sRGB">
<feFlood flood-opacity="0" result="BackgroundImageFix"/>
<feBlend mode="normal" in="SourceGraphic" in2="BackgroundImageFix" result="shape"/>
<feGaussianBlur stdDeviation="3" result="effect1_foregroundBlur_8566_85896"/>
</filter>
<filter id="filter1_i_8566_85896" x="123.001" y="85" width="139" height="140" filterUnits="userSpaceOnUse" color-interpolation-filters="sRGB">
<feFlood flood-opacity="0" result="BackgroundImageFix"/>
<feBlend mode="normal" in="SourceGraphic" in2="BackgroundImageFix" result="shape"/>
<feColorMatrix in="SourceAlpha" type="matrix" values="0 0 0 0 0 0 0 0 0 0 0 0 0 0 0 0 0 0 127 0" result="hardAlpha"/>
<feOffset dy="1"/>
<feGaussianBlur stdDeviation="1"/>
<feComposite in2="hardAlpha" operator="arithmetic" k2="-1" k3="1"/>
<feColorMatrix type="matrix" values="0 0 0 0 0 0 0 0 0 0 0 0 0 0 0 0 0 0 1 0"/>
<feBlend mode="normal" in2="shape" result="effect1_innerShadow_8566_85896"/>
</filter>
<filter id="filter2_i_8566_85896" x="133.001" y="95" width="119" height="120" filterUnits="userSpaceOnUse" color-interpolation-filters="sRGB">
<feFlood flood-opacity="0" result="BackgroundImageFix"/>
<feBlend mode="normal" in="SourceGraphic" in2="BackgroundImageFix" result="shape"/>
<feColorMatrix in="SourceAlpha" type="matrix" values="0 0 0 0 0 0 0 0 0 0 0 0 0 0 0 0 0 0 127 0" result="hardAlpha"/>
<feOffset dy="1"/>
<feGaussianBlur stdDeviation="1"/>
<feComposite in2="hardAlpha" operator="arithmetic" k2="-1" k3="1"/>
<feColorMatrix type="matrix" values="0 0 0 0 0 0 0 0 0 0 0 0 0 0 0 0 0 0 1 0"/>
<feBlend mode="normal" in2="shape" result="effect1_innerShadow_8566_85896"/>
</filter>
<linearGradient id="paint0_linear_8566_85896" x1="193.408" y1="0.398437" x2="193.408" y2="323" gradientUnits="userSpaceOnUse">
<stop offset="0.481106" stop-color="#737373"/>
<stop offset="1" stop-color="#737373" stop-opacity="0"/>
</linearGradient>
<linearGradient id="paint1_linear_8566_85896" x1="382.802" y1="124.909" x2="-8.15158" y2="124.909" gradientUnits="userSpaceOnUse">
<stop stop-color="#3B3D3F" stop-opacity="0"/>
<stop offset="0.5" stop-color="#3B3D3F"/>
<stop offset="1" stop-color="#3B3D3F" stop-opacity="0"/>
</linearGradient>
<linearGradient id="paint2_linear_8566_85896" x1="387.835" y1="176" x2="-2.16503" y2="176" gradientUnits="userSpaceOnUse">
<stop stop-color="#3B3D3F" stop-opacity="0"/>
<stop offset="0.5" stop-color="#3B3D3F"/>
<stop offset="1" stop-color="#3B3D3F" stop-opacity="0"/>
</linearGradient>
<linearGradient id="paint3_linear_8566_85896" x1="192.615" y1="154.562" x2="192.615" y2="232.229" gradientUnits="userSpaceOnUse">
<stop stop-color="#3B3D3F" stop-opacity="0.5"/>
<stop offset="1" stop-color="#3B3D3F" stop-opacity="0.89"/>
</linearGradient>
<linearGradient id="paint4_linear_8566_85896" x1="192.48" y1="84.342" x2="192.535" y2="224" gradientUnits="userSpaceOnUse">
<stop stop-color="#1E1E1F" stop-opacity="0"/>
<stop offset="1" stop-color="#1E1E1F" stop-opacity="0.8"/>
</linearGradient>
<linearGradient id="paint5_linear_8566_85896" x1="192.501" y1="90" x2="192.501" y2="219" gradientUnits="userSpaceOnUse">
<stop stop-color="#3B3D3F" stop-opacity="0.5"/>
<stop offset="1" stop-color="#3B3D3F" stop-opacity="0.8"/>
</linearGradient>
<linearGradient id="paint6_linear_8566_85896" x1="192.483" y1="94.4366" x2="192.53" y2="214" gradientUnits="userSpaceOnUse">
<stop stop-color="#1E1E1F" stop-opacity="0"/>
<stop offset="1" stop-color="#1E1E1F" stop-opacity="0.8"/>
</linearGradient>
<linearGradient id="paint7_linear_8566_85896" x1="192.001" y1="100" x2="192.001" y2="209" gradientUnits="userSpaceOnUse">
<stop stop-color="#3B3D3F" stop-opacity="0.2"/>
<stop offset="1" stop-color="#3B3D3F" stop-opacity="0.4"/>
</linearGradient>
<linearGradient id="paint8_linear_8566_85896" x1="312.192" y1="232.227" x2="312.192" y2="280.227" gradientUnits="userSpaceOnUse">
<stop stop-color="#161C20"/>
<stop offset="1" stop-color="#0A0D0F"/>
</linearGradient>
<linearGradient id="paint9_linear_8566_85896" x1="312.192" y1="256.21" x2="312.192" y2="280.227" gradientUnits="userSpaceOnUse">
<stop stop-color="#3B3D3F" stop-opacity="0.5"/>
<stop offset="1" stop-color="#3B3D3F" stop-opacity="0.89"/>
</linearGradient>
<linearGradient id="paint10_linear_8566_85896" x1="67.335" y1="67.5" x2="67.335" y2="115.5" gradientUnits="userSpaceOnUse">
<stop stop-color="#161C20"/>
<stop offset="1" stop-color="#0A0D0F"/>
</linearGradient>
<linearGradient id="paint11_linear_8566_85896" x1="67.335" y1="91.4839" x2="67.335" y2="115.5" gradientUnits="userSpaceOnUse">
<stop stop-color="#3B3D3F" stop-opacity="0.5"/>
<stop offset="1" stop-color="#3B3D3F" stop-opacity="0.89"/>
</linearGradient>
</defs>
</svg>
