<svg width="387" height="326" viewBox="0 0 387 326" fill="none" xmlns="http://www.w3.org/2000/svg">
<mask id="mask0_8566_85838" style="mask-type:alpha" maskUnits="userSpaceOnUse" x="0" y="0" width="387" height="323">
<rect x="0.332031" y="0.398438" width="386.15" height="322.602" fill="url(#paint0_linear_8566_85838)"/>
</mask>
<g mask="url(#mask0_8566_85838)">
<path d="M13.3672 -10.875V335.141" stroke="#1A2024" stroke-width="0.630746"/>
<path d="M43.3672 -10.875V335.141" stroke="#1A2024" stroke-width="0.630746"/>
<path d="M73.3672 -10.875V335.141" stroke="#1A2024" stroke-width="0.630746"/>
<path d="M103.367 -10.875V335.141" stroke="#1A2024" stroke-width="0.630746"/>
<path d="M133.367 -10.875V335.141" stroke="#1A2024" stroke-width="0.630746"/>
<path d="M163.367 -10.875V335.141" stroke="#1A2024" stroke-width="0.630746"/>
<path d="M193.367 -10.875V335.141" stroke="#1A2024" stroke-width="0.630746"/>
<path d="M223.367 -10.875V335.141" stroke="#1A2024" stroke-width="0.630746"/>
<path d="M253.367 -10.875V335.141" stroke="#1A2024" stroke-width="0.630746"/>
<path d="M283.367 -10.875V335.141" stroke="#1A2024" stroke-width="0.630746"/>
<path d="M313.367 -10.875V335.141" stroke="#1A2024" stroke-width="0.630746"/>
<path d="M343.367 -10.875V335.141" stroke="#1A2024" stroke-width="0.630746"/>
<path d="M373.367 -10.875V335.141" stroke="#1A2024" stroke-width="0.630746"/>
</g>
<path d="M71.3633 67.7504V157.872M315.301 67.7504V157.872M315.301 247.993V157.872M71.3633 247.993V157.872M71.3633 157.872H193.332M315.301 157.872H193.332M193.332 157.872V33.9219" stroke="#25292C" stroke-linecap="round"/>
<rect x="72.3242" y="33.4922" width="242.016" height="242.016" rx="121.008" stroke="#3B3D3F" stroke-dasharray="1 4"/>
<circle cx="193.332" cy="32.9922" r="2" fill="#3B3D3F"/>
<circle cx="71.3633" cy="249.852" r="3.89062" fill="#3B3D3F"/>
<circle cx="315.301" cy="157.867" r="3.89062" fill="#3B3D3F"/>
<circle cx="71.3633" cy="66.8594" r="3.89062" fill="#3B3D3F"/>
<g filter="url(#filter0_f_8566_85838)">
<ellipse cx="193.999" cy="165.976" rx="73.0833" ry="70.4365" fill="#0A0D0F"/>
</g>
<rect x="116.5" y="77.5" width="154.229" height="154.229" rx="77.1145" fill="#0A0D0F" stroke="url(#paint1_linear_8566_85838)"/>
<g filter="url(#filter1_i_8566_85838)">
<rect x="124" y="85" width="139" height="139" rx="69.5" fill="#060809"/>
</g>
<rect x="124.5" y="85.5" width="138" height="138" rx="69" stroke="url(#paint2_linear_8566_85838)"/>
<rect x="129.5" y="90.5" width="128" height="128" rx="64" fill="#0A0D0F" stroke="url(#paint3_linear_8566_85838)"/>
<g filter="url(#filter2_i_8566_85838)">
<rect x="134" y="95" width="119" height="119" rx="59.5" fill="#060809"/>
</g>
<rect x="134.5" y="95.5" width="118" height="118" rx="59" stroke="url(#paint4_linear_8566_85838)"/>
<rect x="139.5" y="100.5" width="107" height="108" rx="53.5" fill="#0A0D0F" stroke="url(#paint5_linear_8566_85838)"/>
<path d="M213.558 149.31C214.647 146.041 214.272 142.461 212.53 139.488C209.911 134.928 204.646 132.582 199.504 133.686C197.217 131.109 193.93 129.643 190.485 129.664C185.229 129.652 180.565 133.036 178.948 138.037C175.572 138.729 172.657 140.842 170.952 143.838C168.313 148.386 168.915 154.119 172.44 158.019C171.351 161.287 171.726 164.868 173.467 167.841C176.086 172.401 181.351 174.747 186.493 173.643C188.779 176.22 192.067 177.685 195.513 177.663C200.772 177.676 205.437 174.289 207.054 169.284C210.43 168.592 213.345 166.479 215.05 163.483C217.686 158.935 217.083 153.207 213.559 149.307L213.558 149.31ZM195.516 174.526C193.411 174.529 191.373 173.793 189.757 172.444C189.831 172.405 189.958 172.335 190.041 172.284L199.599 166.764C200.088 166.486 200.388 165.966 200.385 165.403V151.929L204.424 154.261C204.468 154.282 204.496 154.324 204.502 154.372V165.531C204.496 170.493 200.478 174.516 195.516 174.526ZM176.19 166.272C175.135 164.451 174.756 162.316 175.117 160.245C175.188 160.287 175.312 160.363 175.401 160.414L184.959 165.934C185.443 166.218 186.043 166.218 186.529 165.934L198.198 159.196V163.861C198.201 163.909 198.178 163.956 198.141 163.986L188.479 169.564C184.176 172.042 178.68 170.569 176.191 166.272H176.19ZM173.674 145.408C174.724 143.584 176.382 142.189 178.356 141.465C178.356 141.547 178.351 141.693 178.351 141.795V152.836C178.348 153.397 178.648 153.918 179.136 154.195L190.804 160.932L186.765 163.264C186.724 163.291 186.673 163.296 186.628 163.276L176.965 157.693C172.671 155.206 171.198 149.712 173.673 145.41L173.674 145.408ZM206.863 153.132L195.195 146.394L199.234 144.063C199.275 144.036 199.326 144.031 199.371 144.051L209.034 149.629C213.336 152.115 214.81 157.618 212.325 161.92C211.273 163.741 209.617 165.136 207.645 165.862V154.491C207.649 153.93 207.351 153.411 206.865 153.132H206.863ZM210.883 147.081C210.813 147.037 210.688 146.962 210.6 146.911L201.042 141.391C200.557 141.108 199.957 141.108 199.471 141.391L187.803 148.129V143.464C187.8 143.416 187.822 143.37 187.86 143.34L197.521 137.766C201.825 135.283 207.327 136.761 209.808 141.066C210.856 142.884 211.236 145.012 210.88 147.081H210.883ZM185.607 155.395L181.566 153.063C181.522 153.042 181.494 153 181.488 152.952V141.793C181.491 136.825 185.521 132.799 190.489 132.802C192.591 132.802 194.625 133.54 196.24 134.884C196.167 134.923 196.041 134.994 195.957 135.045L186.399 140.565C185.91 140.842 185.61 141.361 185.613 141.924L185.607 155.392V155.395ZM187.801 150.664L192.999 147.663L198.196 150.663V156.664L192.999 159.664L187.801 156.664V150.664Z" fill="#FFCB5C"/>
<path d="M197.607 150.953V143.745C197.607 141.064 194.303 139.835 192.535 141.824L192.535 141.824L192.53 141.83L183.372 152.235C183.372 152.236 183.372 152.236 183.371 152.236C181.717 154.115 183.065 157.049 185.551 157.049H187.792V164.256C187.792 166.938 191.096 168.167 192.864 166.177L192.864 166.178L192.869 166.172L202.027 155.766C202.028 155.766 202.028 155.766 202.028 155.766C203.682 153.887 202.334 150.953 199.848 150.953H197.607Z" fill="#FFCB5C" stroke="#0A0D0F" stroke-width="3" stroke-miterlimit="10" stroke-linecap="round" stroke-linejoin="round"/>
<rect x="291.276" y="30.436" width="47.128" height="47.128" rx="7.564" fill="url(#paint6_linear_8566_85838)"/>
<rect x="291.276" y="30.436" width="47.128" height="47.128" rx="7.564" stroke="url(#paint7_linear_8566_85838)" stroke-width="0.872003"/>
<path d="M313.849 51.7968L314.022 48.8719C313.814 48.8959 313.606 48.9301 313.401 48.9744C312.266 49.2211 311.281 49.7568 310.51 50.4815L313.016 52.1817L313.021 52.1793C313.106 52.2386 313.211 52.2734 313.324 52.2734C313.6 52.2734 313.825 52.0645 313.837 51.8028L313.849 51.7968Z" fill="white"/>
<path d="M318.973 50.4827C318.034 49.6024 316.808 49.028 315.483 48.8719L315.656 51.7921L315.658 51.7932C315.663 51.8972 315.702 51.9969 315.77 52.078C315.942 52.2847 316.254 52.323 316.475 52.1686L316.484 52.1721L318.973 50.4827Z" fill="white"/>
<path d="M311.89 53.5327L309.602 51.5741C308.922 52.6328 308.601 53.9027 308.75 55.209L311.683 54.3989L311.686 54.3893C311.791 54.3618 311.884 54.303 311.952 54.2214C312.124 54.0146 312.094 53.7165 311.887 53.5446L311.89 53.5327Z" fill="white"/>
<path d="M320.637 53.3302C320.483 52.6916 320.226 52.1026 319.886 51.5752L317.61 53.5244L317.611 53.5303C317.529 53.5984 317.472 53.6899 317.448 53.7913C317.387 54.049 317.549 54.306 317.813 54.375L317.816 54.387L320.764 55.1995C320.826 54.5909 320.788 53.9611 320.637 53.3302Z" fill="white"/>
<path d="M315.22 53.684H314.282L313.699 54.3798L313.908 55.2495L314.752 55.6379L315.593 55.2507L315.803 54.381L315.22 53.684Z" fill="white"/>
<path d="M317.406 56.0776C317.367 56.0708 317.328 56.0673 317.288 56.0692C317.221 56.0724 317.155 56.0887 317.091 56.1181C316.842 56.2328 316.734 56.5149 316.842 56.7555L316.838 56.7603L318.016 59.4826C319.151 58.7905 320.001 57.7563 320.445 56.5625L317.411 56.0716L317.406 56.0776Z" fill="white"/>
<path d="M312.685 56.4636C312.631 56.2381 312.424 56.0843 312.192 56.0811C312.159 56.0807 312.125 56.0836 312.091 56.0895L312.086 56.0835L309.079 56.572C309.543 57.8011 310.411 58.8028 311.5 59.4719L312.665 56.7769L312.657 56.7662C312.698 56.6738 312.71 56.5692 312.685 56.4636Z" fill="white"/>
<path d="M314.973 57.3107C314.899 57.2758 314.816 57.2591 314.733 57.2619C314.643 57.265 314.556 57.2907 314.48 57.3362C314.404 57.3818 314.341 57.4457 314.299 57.5216H314.296L312.817 60.0807C313.841 60.4145 314.971 60.4891 316.105 60.2427C316.305 60.1994 316.503 60.1465 316.698 60.0843L315.215 57.5203H315.204C315.154 57.4317 315.075 57.3577 314.973 57.3107Z" fill="white"/>
<path fill-rule="evenodd" clip-rule="evenodd" d="M313.94 41.3313C314.163 41.2292 314.405 41.1705 314.653 41.1585C314.964 41.1435 315.275 41.2028 315.556 41.3313L325.291 45.78C325.543 45.8952 325.764 46.0627 325.939 46.2702C326.113 46.4777 326.236 46.7198 326.298 46.9786L328.703 56.9769C328.766 57.2357 328.766 57.5046 328.703 57.7635C328.641 58.0223 328.518 58.2645 328.344 58.4721L321.608 66.4903C321.434 66.6975 321.212 66.8648 320.961 66.9796C320.709 67.0945 320.433 67.1541 320.153 67.1539L309.348 67.1562C309.069 67.1563 308.793 67.0966 308.541 66.9815C308.289 66.8664 308.067 66.6989 307.893 66.4914L301.155 58.4745C301.118 58.4293 301.082 58.3824 301.049 58.3339C300.914 58.1356 300.822 57.9136 300.779 57.6809C300.735 57.4482 300.741 57.2096 300.797 56.9793L303.198 46.981C303.261 46.7222 303.383 46.4801 303.558 46.2726C303.732 46.0651 303.953 45.8975 304.205 45.7824L313.94 41.3313ZM314.169 45.1667C314.169 44.8245 314.43 44.5472 314.752 44.5471C315.074 44.5471 315.334 44.8245 315.334 45.1667C315.335 45.184 315.335 45.2036 315.335 45.2235C315.336 45.2592 315.337 45.2963 315.336 45.3251C315.331 45.4553 315.309 45.5653 315.288 45.6773C315.277 45.7351 315.265 45.7934 315.256 45.8553L315.252 45.8855C315.205 46.2612 315.165 46.5748 315.19 46.8668C315.21 46.9963 315.281 47.0582 315.349 47.1174C315.359 47.1267 315.37 47.1361 315.381 47.1456C315.382 47.186 315.389 47.3203 315.394 47.3946C317.247 47.5521 318.967 48.3628 320.231 49.6309L320.452 49.4795C320.461 49.4801 320.471 49.4808 320.482 49.4816C320.566 49.4878 320.706 49.4981 320.806 49.4426C321.06 49.2788 321.293 49.053 321.57 48.7828L321.592 48.7623C321.635 48.7178 321.675 48.674 321.715 48.6305C321.794 48.5437 321.872 48.4586 321.976 48.3727C322.002 48.3516 322.037 48.3254 322.069 48.3011C322.082 48.2916 322.094 48.2823 322.106 48.2738C322.385 48.0605 322.774 48.0832 322.975 48.3239C323.175 48.5646 323.111 48.9326 322.831 49.146C322.818 49.156 322.804 49.1673 322.79 49.1788C322.76 49.2023 322.728 49.2271 322.703 49.2448C322.595 49.3216 322.492 49.3738 322.387 49.4268C322.332 49.4549 322.276 49.4831 322.219 49.5153C321.871 49.7213 321.582 49.892 321.353 50.0979C321.259 50.1939 321.252 50.2854 321.246 50.3732C321.245 50.3868 321.244 50.4002 321.243 50.4136C321.227 50.4273 321.193 50.457 321.154 50.4898C321.113 50.525 321.067 50.564 321.036 50.5912C321.539 51.3065 321.915 52.1184 322.128 53.0061C322.339 53.8857 322.372 54.7647 322.25 55.6094L322.485 55.6749C322.49 55.6816 322.496 55.6894 322.502 55.6981C322.549 55.7635 322.629 55.8767 322.737 55.9167C323.034 56.0061 323.367 56.0396 323.769 56.0799L323.781 56.0812C323.847 56.0864 323.91 56.0887 323.972 56.0911C324.09 56.0955 324.207 56.0999 324.34 56.1241C324.371 56.1296 324.41 56.1389 324.448 56.1478C324.47 56.153 324.491 56.1581 324.51 56.1622C324.853 56.2415 325.074 56.5436 325.003 56.8413C324.932 57.1389 324.596 57.3199 324.251 57.2487C324.248 57.2482 324.245 57.2481 324.242 57.2475C324.238 57.2467 324.235 57.2449 324.231 57.244C324.213 57.2403 324.194 57.2366 324.175 57.2329C324.141 57.2264 324.107 57.2199 324.08 57.213C323.949 57.1794 323.842 57.135 323.733 57.0898C323.676 57.0662 323.619 57.0425 323.557 57.02L323.539 57.0138C323.162 56.8843 322.848 56.7764 322.541 56.7341C322.405 56.7238 322.327 56.7761 322.251 56.8261C322.239 56.8341 322.227 56.842 322.215 56.8496C322.173 56.8415 322.042 56.8193 321.966 56.8079C321.408 58.487 320.219 59.9408 318.607 60.8516C318.616 60.8721 318.627 60.9001 318.639 60.9295C318.663 60.9918 318.69 61.0603 318.705 61.0767C318.699 61.0897 318.694 61.1026 318.689 61.1156C318.654 61.1967 318.619 61.2808 318.66 61.4055C318.773 61.6862 318.956 61.9605 319.176 62.2908C319.213 62.3429 319.25 62.391 319.286 62.4386C319.356 62.5302 319.425 62.6203 319.489 62.7352C319.505 62.7642 319.524 62.8039 319.542 62.8403C319.55 62.8563 319.558 62.8717 319.565 62.8853C319.715 63.1919 319.605 63.545 319.317 63.6776C319.027 63.8112 318.667 63.6701 318.512 63.3618C318.505 63.3486 318.497 63.3341 318.49 63.3191C318.472 63.2846 318.452 63.2476 318.439 63.2189C318.385 63.0989 318.354 62.9904 318.322 62.8798C318.306 62.8235 318.29 62.7668 318.27 62.7078L318.264 62.6918C318.135 62.328 318.027 62.026 317.87 61.7701C317.793 61.6611 317.701 61.6346 317.613 61.6092C317.6 61.6053 317.586 61.6015 317.573 61.5974C317.563 61.5814 317.54 61.5405 317.514 61.4961C317.491 61.4559 317.466 61.4128 317.448 61.3829C317.122 61.501 316.788 61.5973 316.449 61.6713C314.937 61.9997 313.423 61.8665 312.071 61.3698L311.94 61.5985C311.841 61.6237 311.747 61.6493 311.688 61.7156C311.539 61.8858 311.453 62.1284 311.362 62.3862C311.323 62.4953 311.283 62.6071 311.237 62.7173C311.217 62.7773 311.201 62.835 311.185 62.8922C311.154 63.0018 311.124 63.1095 311.069 63.2284C311.057 63.2558 311.039 63.2905 311.021 63.3235C311.013 63.3398 311.004 63.3558 310.997 63.3702C310.997 63.3704 310.997 63.37 310.997 63.3702C310.997 63.3704 310.997 63.3712 310.997 63.3714C310.997 63.3717 310.997 63.3719 310.996 63.3722C310.996 63.3723 310.996 63.372 310.996 63.3722C310.841 63.6794 310.481 63.8204 310.192 63.6871C309.904 63.5546 309.794 63.2014 309.944 62.8948C309.952 62.8787 309.961 62.8598 309.971 62.8404C309.987 62.8067 310.004 62.7712 310.019 62.7447C310.082 62.6292 310.152 62.5383 310.222 62.4458C310.258 62.3985 310.295 62.3508 310.331 62.2991C310.552 61.9689 310.745 61.6726 310.858 61.392C310.887 61.2988 310.845 61.1711 310.807 61.0767L310.912 60.8337C309.362 59.9542 308.137 58.5527 307.552 56.8186L307.298 56.8603C307.291 56.8562 307.282 56.8515 307.273 56.8463C307.2 56.8056 307.079 56.7385 306.964 56.7471C306.657 56.7896 306.343 56.8975 305.965 57.0272L305.948 57.0331C305.887 57.0552 305.831 57.0784 305.775 57.1014C305.665 57.1466 305.557 57.191 305.425 57.2249C305.395 57.2326 305.356 57.2405 305.318 57.2481C305.303 57.2511 305.288 57.2541 305.274 57.2571C305.272 57.2575 305.27 57.2581 305.269 57.2588C305.267 57.2595 305.265 57.2602 305.263 57.2606C305.262 57.2609 305.26 57.2611 305.259 57.2612C305.257 57.2614 305.255 57.2616 305.254 57.2618C304.909 57.3331 304.573 57.1521 304.502 56.8544C304.431 56.5567 304.652 56.2547 304.995 56.1753C304.998 56.1747 305.001 56.1735 305.004 56.1729L305.009 56.1717C305.024 56.1683 305.04 56.1646 305.057 56.1607C305.094 56.152 305.134 56.1427 305.165 56.1371C305.297 56.1131 305.414 56.1087 305.533 56.1042C305.595 56.1019 305.658 56.0995 305.724 56.0942L305.737 56.0929C306.138 56.0526 306.472 56.0192 306.768 55.9298C306.852 55.8969 306.933 55.7953 306.995 55.7173C307.003 55.707 307.011 55.6972 307.018 55.688L307.262 55.6201C306.989 53.8081 307.452 52.0297 308.451 50.5899L308.264 50.4303C308.263 50.4227 308.262 50.414 308.26 50.4044C308.248 50.3264 308.227 50.1899 308.147 50.1086C307.918 49.9028 307.63 49.7321 307.281 49.5263C307.225 49.4943 307.169 49.4661 307.115 49.4383C307.01 49.385 306.907 49.3327 306.798 49.2556C306.773 49.2378 306.742 49.2133 306.712 49.1899C306.7 49.1805 306.688 49.1712 306.677 49.1627C306.676 49.1616 306.674 49.1607 306.673 49.1598C306.671 49.1588 306.67 49.1578 306.668 49.1567C306.389 48.9434 306.325 48.5754 306.525 48.3346C306.638 48.1992 306.811 48.1322 306.99 48.138C307.129 48.1426 307.273 48.1913 307.395 48.2846C307.406 48.2928 307.418 48.3018 307.431 48.311C307.464 48.3356 307.499 48.3622 307.525 48.3835C307.628 48.4686 307.705 48.5531 307.783 48.6393C307.823 48.6833 307.864 48.7278 307.908 48.7731L307.918 48.7828C308.201 49.0577 308.436 49.2861 308.694 49.4521C308.813 49.5184 308.908 49.504 308.999 49.4903C309.012 49.4882 309.026 49.4861 309.04 49.4843C309.11 49.5329 309.18 49.5805 309.25 49.6273C310.242 48.6204 311.545 47.8746 313.057 47.5459C313.404 47.4707 313.756 47.4189 314.111 47.391L314.124 47.1551C314.202 47.0832 314.289 46.9798 314.314 46.8668C314.339 46.5689 314.298 46.2486 314.25 45.8628L314.249 45.8553C314.24 45.7935 314.228 45.7353 314.217 45.6776C314.196 45.5655 314.174 45.4554 314.169 45.3251C314.168 45.2976 314.169 45.263 314.17 45.2291C314.17 45.213 314.17 45.1971 314.17 45.1821C314.17 45.1796 314.17 45.1772 314.17 45.1747C314.17 45.1721 314.169 45.1694 314.169 45.1667Z" fill="white"/>
<rect x="291.737" y="232.663" width="47.128" height="47.128" rx="7.564" fill="url(#paint8_linear_8566_85838)"/>
<rect x="291.737" y="232.663" width="47.128" height="47.128" rx="7.564" stroke="url(#paint9_linear_8566_85838)" stroke-width="0.872003"/>
<path d="M310.209 249.039C305.28 249.039 301.418 251.015 301.418 253.538V261.249C301.418 263.772 305.28 265.748 310.209 265.748C315.138 265.748 319 263.772 319 261.249V253.538C319 251.015 315.138 249.039 310.209 249.039ZM317.534 257.393C317.534 258.166 316.813 258.954 315.556 259.556C314.14 260.233 312.241 260.607 310.209 260.607C308.177 260.607 306.278 260.233 304.862 259.556C303.605 258.954 302.883 258.166 302.883 257.393V256.057C304.445 257.262 307.116 258.036 310.209 258.036C313.301 258.036 315.972 257.258 317.534 256.057V257.393ZM315.556 263.412C314.14 264.089 312.241 264.462 310.209 264.462C308.177 264.462 306.278 264.089 304.862 263.412C303.605 262.81 302.883 262.022 302.883 261.249V259.912C304.445 261.117 307.116 261.892 310.209 261.892C313.301 261.892 315.972 261.114 317.534 259.912V261.249C317.534 262.022 316.813 262.81 315.556 263.412Z" fill="white"/>
<path d="M301.42 265.106C301.42 267.628 305.281 269.604 310.211 269.604C315.14 269.604 319.001 267.628 319.001 265.106V261.25L317.536 263.769V265.106C317.536 265.879 316.815 266.667 315.558 267.268C314.142 267.945 312.243 268.319 310.211 268.319C308.179 268.319 306.28 267.945 304.864 267.268C303.607 266.667 302.885 265.879 302.885 265.106V263.769L301.42 261.25V265.106Z" fill="white"/>
<path fill-rule="evenodd" clip-rule="evenodd" d="M319.996 243.328C315.067 243.328 311.205 245.304 311.205 247.827V247.884C315.863 248.114 319.469 249.948 319.954 252.325C319.968 252.325 319.982 252.325 319.996 252.325C323.088 252.325 325.759 251.547 327.322 250.346V251.682C327.322 252.455 326.6 253.243 325.343 253.845C323.93 254.521 322.037 254.894 320.01 254.896V256.181C323.096 256.179 325.762 255.401 327.322 254.202V255.538C327.322 256.311 326.6 257.099 325.343 257.701C323.93 258.376 322.037 258.75 320.01 258.751V260.037C323.099 260.034 325.767 259.256 327.326 258.054L327.323 258.058V259.395C327.323 260.168 326.602 260.956 325.345 261.557C323.932 262.233 322.038 262.606 320.011 262.608V263.893C324.934 263.89 328.789 261.915 328.789 259.395V255.539L328.787 255.542L328.787 255.538V247.827C328.787 245.304 324.925 243.328 319.996 243.328Z" fill="white"/>
<rect x="45.7993" y="135.139" width="47.128" height="47.128" rx="7.564" fill="url(#paint10_linear_8566_85838)"/>
<rect x="45.7993" y="135.139" width="47.128" height="47.128" rx="7.564" stroke="url(#paint11_linear_8566_85838)" stroke-width="0.872003"/>
<path d="M77.4249 153.088C76.7631 153.088 76.27 152.48 76.27 151.819C76.27 148.187 73.3321 145.242 69.708 145.242C66.9416 145.242 64.575 146.958 63.6098 149.385C63.4421 149.807 63.0242 150.088 62.5703 150.088C59.2005 150.088 56.4688 152.826 56.4688 156.203C56.4688 158.688 57.9477 160.827 60.0716 161.783C60.7142 162.125 61.447 162.318 62.2249 162.318H77.6515C80.1948 162.318 82.2565 160.252 82.2565 157.703C82.2565 155.154 80.1948 153.088 77.6515 153.088H77.4249Z" fill="white"/>
<path d="M56.5734 167.133C56.5734 168.101 57.3582 168.886 58.3262 168.886C59.2942 168.886 60.0789 168.101 60.0789 167.133C60.0789 166.165 59.2942 165.381 58.3262 165.381C57.3582 165.381 56.5734 166.165 56.5734 167.133ZM65.3524 160.188V164.504H66.0097V160.188H65.3524ZM63.0519 166.805H58.3262V167.462H63.0519V166.805ZM65.3524 164.504C65.3524 165.775 64.3224 166.805 63.0519 166.805V167.462C64.6854 167.462 66.0097 166.138 66.0097 164.504H65.3524Z" fill="white"/>
<path d="M67.6066 172.162C67.6066 173.13 68.3914 173.915 69.3594 173.915C70.3274 173.915 71.1121 173.13 71.1121 172.162C71.1121 171.194 70.3274 170.41 69.3594 170.41C68.3914 170.41 67.6066 171.194 67.6066 172.162ZM69.0307 160.188V172.162H69.688V160.188H69.0307Z" fill="white"/>
<path d="M81.6961 167.133C81.6961 168.101 80.9114 168.886 79.9434 168.886C78.9753 168.886 78.1906 168.101 78.1906 167.133C78.1906 166.165 78.9753 165.381 79.9434 165.381C80.9114 165.381 81.6961 166.165 81.6961 167.133ZM72.9172 160.188V164.504H72.2599V160.188H72.9172ZM75.2176 166.805H79.9434V167.462H75.2176V166.805ZM72.9172 164.504C72.9172 165.775 73.9471 166.805 75.2176 166.805V167.462C73.5841 167.462 72.2599 166.138 72.2599 164.504H72.9172Z" fill="white"/>
<defs>
<filter id="filter0_f_8566_85838" x="114.916" y="89.5391" width="158.167" height="152.873" filterUnits="userSpaceOnUse" color-interpolation-filters="sRGB">
<feFlood flood-opacity="0" result="BackgroundImageFix"/>
<feBlend mode="normal" in="SourceGraphic" in2="BackgroundImageFix" result="shape"/>
<feGaussianBlur stdDeviation="3" result="effect1_foregroundBlur_8566_85838"/>
</filter>
<filter id="filter1_i_8566_85838" x="124" y="85" width="139" height="140" filterUnits="userSpaceOnUse" color-interpolation-filters="sRGB">
<feFlood flood-opacity="0" result="BackgroundImageFix"/>
<feBlend mode="normal" in="SourceGraphic" in2="BackgroundImageFix" result="shape"/>
<feColorMatrix in="SourceAlpha" type="matrix" values="0 0 0 0 0 0 0 0 0 0 0 0 0 0 0 0 0 0 127 0" result="hardAlpha"/>
<feOffset dy="1"/>
<feGaussianBlur stdDeviation="1"/>
<feComposite in2="hardAlpha" operator="arithmetic" k2="-1" k3="1"/>
<feColorMatrix type="matrix" values="0 0 0 0 0 0 0 0 0 0 0 0 0 0 0 0 0 0 1 0"/>
<feBlend mode="normal" in2="shape" result="effect1_innerShadow_8566_85838"/>
</filter>
<filter id="filter2_i_8566_85838" x="134" y="95" width="119" height="120" filterUnits="userSpaceOnUse" color-interpolation-filters="sRGB">
<feFlood flood-opacity="0" result="BackgroundImageFix"/>
<feBlend mode="normal" in="SourceGraphic" in2="BackgroundImageFix" result="shape"/>
<feColorMatrix in="SourceAlpha" type="matrix" values="0 0 0 0 0 0 0 0 0 0 0 0 0 0 0 0 0 0 127 0" result="hardAlpha"/>
<feOffset dy="1"/>
<feGaussianBlur stdDeviation="1"/>
<feComposite in2="hardAlpha" operator="arithmetic" k2="-1" k3="1"/>
<feColorMatrix type="matrix" values="0 0 0 0 0 0 0 0 0 0 0 0 0 0 0 0 0 0 1 0"/>
<feBlend mode="normal" in2="shape" result="effect1_innerShadow_8566_85838"/>
</filter>
<linearGradient id="paint0_linear_8566_85838" x1="193.407" y1="0.398437" x2="193.407" y2="323" gradientUnits="userSpaceOnUse">
<stop offset="0.481106" stop-color="#737373"/>
<stop offset="1" stop-color="#737373" stop-opacity="0"/>
</linearGradient>
<linearGradient id="paint1_linear_8566_85838" x1="193.614" y1="154.562" x2="193.614" y2="232.229" gradientUnits="userSpaceOnUse">
<stop stop-color="#3B3D3F" stop-opacity="0.5"/>
<stop offset="1" stop-color="#3B3D3F" stop-opacity="0.89"/>
</linearGradient>
<linearGradient id="paint2_linear_8566_85838" x1="193.479" y1="84.342" x2="193.534" y2="224" gradientUnits="userSpaceOnUse">
<stop stop-color="#1E1E1F" stop-opacity="0"/>
<stop offset="1" stop-color="#1E1E1F" stop-opacity="0.8"/>
</linearGradient>
<linearGradient id="paint3_linear_8566_85838" x1="193.5" y1="90" x2="193.5" y2="219" gradientUnits="userSpaceOnUse">
<stop stop-color="#3B3D3F" stop-opacity="0.5"/>
<stop offset="1" stop-color="#3B3D3F" stop-opacity="0.8"/>
</linearGradient>
<linearGradient id="paint4_linear_8566_85838" x1="193.482" y1="94.4366" x2="193.529" y2="214" gradientUnits="userSpaceOnUse">
<stop stop-color="#1E1E1F" stop-opacity="0"/>
<stop offset="1" stop-color="#1E1E1F" stop-opacity="0.8"/>
</linearGradient>
<linearGradient id="paint5_linear_8566_85838" x1="193" y1="100" x2="193" y2="209" gradientUnits="userSpaceOnUse">
<stop stop-color="#3B3D3F" stop-opacity="0.2"/>
<stop offset="1" stop-color="#3B3D3F" stop-opacity="0.4"/>
</linearGradient>
<linearGradient id="paint6_linear_8566_85838" x1="314.84" y1="30" x2="314.84" y2="78" gradientUnits="userSpaceOnUse">
<stop stop-color="#161C20"/>
<stop offset="1" stop-color="#0A0D0F"/>
</linearGradient>
<linearGradient id="paint7_linear_8566_85838" x1="314.84" y1="53.9839" x2="314.84" y2="78" gradientUnits="userSpaceOnUse">
<stop stop-color="#3B3D3F" stop-opacity="0.5"/>
<stop offset="1" stop-color="#3B3D3F" stop-opacity="0.89"/>
</linearGradient>
<linearGradient id="paint8_linear_8566_85838" x1="315.301" y1="232.227" x2="315.301" y2="280.227" gradientUnits="userSpaceOnUse">
<stop stop-color="#161C20"/>
<stop offset="1" stop-color="#0A0D0F"/>
</linearGradient>
<linearGradient id="paint9_linear_8566_85838" x1="315.301" y1="256.21" x2="315.301" y2="280.227" gradientUnits="userSpaceOnUse">
<stop stop-color="#3B3D3F" stop-opacity="0.5"/>
<stop offset="1" stop-color="#3B3D3F" stop-opacity="0.89"/>
</linearGradient>
<linearGradient id="paint10_linear_8566_85838" x1="69.3633" y1="134.703" x2="69.3633" y2="182.703" gradientUnits="userSpaceOnUse">
<stop stop-color="#161C20"/>
<stop offset="1" stop-color="#0A0D0F"/>
</linearGradient>
<linearGradient id="paint11_linear_8566_85838" x1="69.3633" y1="158.687" x2="69.3633" y2="182.703" gradientUnits="userSpaceOnUse">
<stop stop-color="#3B3D3F" stop-opacity="0.5"/>
<stop offset="1" stop-color="#3B3D3F" stop-opacity="0.89"/>
</linearGradient>
</defs>
</svg>
