<svg width="387" height="326" viewBox="0 0 387 326" fill="none" xmlns="http://www.w3.org/2000/svg">
<mask id="mask0_8566_85972" style="mask-type:alpha" maskUnits="userSpaceOnUse" x="0" y="0" width="387" height="323">
<rect x="0.331055" y="0.398438" width="386.15" height="322.602" fill="url(#paint0_linear_8566_85972)"/>
</mask>
<g mask="url(#mask0_8566_85972)">
<path d="M-13.8213 -26.5156L38.1459 25.4483" stroke="#181E22" stroke-width="0.630746"/>
<path d="M38.1459 -26.5156L-13.8213 25.4483" stroke="#181E22" stroke-width="0.630746"/>
<path d="M38.1455 -26.5156L90.1126 25.4483" stroke="#181E22" stroke-width="0.630746"/>
<path d="M90.1126 -26.5156L38.1455 25.4483" stroke="#181E22" stroke-width="0.630746"/>
<path d="M90.1123 -26.5156L142.079 25.4483" stroke="#181E22" stroke-width="0.630746"/>
<path d="M142.079 -26.5156L90.1123 25.4483" stroke="#181E22" stroke-width="0.630746"/>
<path d="M142.081 -26.5156L194.048 25.4483" stroke="#181E22" stroke-width="0.630746"/>
<path d="M194.048 -26.5156L142.081 25.4483" stroke="#181E22" stroke-width="0.630746"/>
<path d="M194.048 -26.5156L246.015 25.4483" stroke="#181E22" stroke-width="0.630746"/>
<path d="M246.015 -26.5156L194.048 25.4483" stroke="#181E22" stroke-width="0.630746"/>
<path d="M246.015 -26.5156L297.982 25.4483" stroke="#181E22" stroke-width="0.630746"/>
<path d="M297.982 -26.5156L246.015 25.4483" stroke="#181E22" stroke-width="0.630746"/>
<path d="M297.981 -26.5156L349.949 25.4483" stroke="#181E22" stroke-width="0.630746"/>
<path d="M349.949 -26.5156L297.981 25.4483" stroke="#181E22" stroke-width="0.630746"/>
<path d="M349.948 -26.5156L401.915 25.4483" stroke="#181E22" stroke-width="0.630746"/>
<path d="M401.915 -26.5156L349.948 25.4483" stroke="#181E22" stroke-width="0.630746"/>
<path d="M-13.8213 25.4453L38.1459 77.4092" stroke="#181E22" stroke-width="0.630746"/>
<path d="M38.1459 25.4453L-13.8213 77.4092" stroke="#181E22" stroke-width="0.630746"/>
<path d="M38.1455 25.4453L90.1126 77.4092" stroke="#181E22" stroke-width="0.630746"/>
<path d="M90.1126 25.4453L38.1455 77.4092" stroke="#181E22" stroke-width="0.630746"/>
<path d="M90.1123 25.4453L142.079 77.4092" stroke="#181E22" stroke-width="0.630746"/>
<path d="M142.079 25.4453L90.1123 77.4092" stroke="#181E22" stroke-width="0.630746"/>
<path d="M142.081 25.4453L194.048 77.4092" stroke="#181E22" stroke-width="0.630746"/>
<path d="M194.048 25.4453L142.081 77.4092" stroke="#181E22" stroke-width="0.630746"/>
<path d="M194.048 25.4453L246.015 77.4092" stroke="#181E22" stroke-width="0.630746"/>
<path d="M246.015 25.4453L194.048 77.4092" stroke="#181E22" stroke-width="0.630746"/>
<path d="M246.015 25.4453L297.982 77.4092" stroke="#181E22" stroke-width="0.630746"/>
<path d="M297.982 25.4453L246.015 77.4092" stroke="#181E22" stroke-width="0.630746"/>
<path d="M297.981 25.4453L349.949 77.4092" stroke="#181E22" stroke-width="0.630746"/>
<path d="M349.949 25.4453L297.981 77.4092" stroke="#181E22" stroke-width="0.630746"/>
<path d="M349.948 25.4453L401.915 77.4092" stroke="#181E22" stroke-width="0.630746"/>
<path d="M401.915 25.4453L349.948 77.4092" stroke="#181E22" stroke-width="0.630746"/>
<path d="M-13.8213 77.4141L38.1459 129.378" stroke="#181E22" stroke-width="0.630746"/>
<path d="M38.1459 77.4141L-13.8213 129.378" stroke="#181E22" stroke-width="0.630746"/>
<path d="M38.1455 77.4141L90.1126 129.378" stroke="#181E22" stroke-width="0.630746"/>
<path d="M90.1126 77.4141L38.1455 129.378" stroke="#181E22" stroke-width="0.630746"/>
<path d="M90.1123 77.4141L142.079 129.378" stroke="#181E22" stroke-width="0.630746"/>
<path d="M142.079 77.4141L90.1123 129.378" stroke="#181E22" stroke-width="0.630746"/>
<path d="M142.081 77.4141L194.048 129.378" stroke="#181E22" stroke-width="0.630746"/>
<path d="M194.048 77.4141L142.081 129.378" stroke="#181E22" stroke-width="0.630746"/>
<path d="M194.048 77.4141L246.015 129.378" stroke="#181E22" stroke-width="0.630746"/>
<path d="M246.015 77.4141L194.048 129.378" stroke="#181E22" stroke-width="0.630746"/>
<path d="M246.015 77.4141L297.982 129.378" stroke="#181E22" stroke-width="0.630746"/>
<path d="M297.982 77.4141L246.015 129.378" stroke="#181E22" stroke-width="0.630746"/>
<path d="M297.981 77.4141L349.949 129.378" stroke="#181E22" stroke-width="0.630746"/>
<path d="M349.949 77.4141L297.981 129.378" stroke="#181E22" stroke-width="0.630746"/>
<path d="M349.948 77.4141L401.915 129.378" stroke="#181E22" stroke-width="0.630746"/>
<path d="M401.915 77.4141L349.948 129.378" stroke="#181E22" stroke-width="0.630746"/>
<path d="M-13.8213 129.375L38.1459 181.339" stroke="#181E22" stroke-width="0.630746"/>
<path d="M38.1459 129.375L-13.8213 181.339" stroke="#181E22" stroke-width="0.630746"/>
<path d="M38.1455 129.375L90.1126 181.339" stroke="#181E22" stroke-width="0.630746"/>
<path d="M90.1126 129.375L38.1455 181.339" stroke="#181E22" stroke-width="0.630746"/>
<path d="M90.1123 129.375L142.079 181.339" stroke="#181E22" stroke-width="0.630746"/>
<path d="M142.079 129.375L90.1123 181.339" stroke="#181E22" stroke-width="0.630746"/>
<path d="M142.081 129.375L194.048 181.339" stroke="#181E22" stroke-width="0.630746"/>
<path d="M194.048 129.375L142.081 181.339" stroke="#181E22" stroke-width="0.630746"/>
<path d="M194.048 129.375L246.015 181.339" stroke="#181E22" stroke-width="0.630746"/>
<path d="M246.015 129.375L194.048 181.339" stroke="#181E22" stroke-width="0.630746"/>
<path d="M246.015 129.375L297.982 181.339" stroke="#181E22" stroke-width="0.630746"/>
<path d="M297.982 129.375L246.015 181.339" stroke="#181E22" stroke-width="0.630746"/>
<path d="M297.981 129.375L349.949 181.339" stroke="#181E22" stroke-width="0.630746"/>
<path d="M349.949 129.375L297.981 181.339" stroke="#181E22" stroke-width="0.630746"/>
<path d="M349.948 129.375L401.915 181.339" stroke="#181E22" stroke-width="0.630746"/>
<path d="M401.915 129.375L349.948 181.339" stroke="#181E22" stroke-width="0.630746"/>
<path d="M-13.8213 181.344L38.1459 233.308" stroke="#181E22" stroke-width="0.630746"/>
<path d="M38.1459 181.344L-13.8213 233.308" stroke="#181E22" stroke-width="0.630746"/>
<path d="M38.1455 181.344L90.1126 233.308" stroke="#181E22" stroke-width="0.630746"/>
<path d="M90.1126 181.344L38.1455 233.308" stroke="#181E22" stroke-width="0.630746"/>
<path d="M90.1123 181.344L142.079 233.308" stroke="#181E22" stroke-width="0.630746"/>
<path d="M142.079 181.344L90.1123 233.308" stroke="#181E22" stroke-width="0.630746"/>
<path d="M142.081 181.344L194.048 233.308" stroke="#181E22" stroke-width="0.630746"/>
<path d="M194.048 181.344L142.081 233.308" stroke="#181E22" stroke-width="0.630746"/>
<path d="M194.048 181.344L246.015 233.308" stroke="#181E22" stroke-width="0.630746"/>
<path d="M246.015 181.344L194.048 233.308" stroke="#181E22" stroke-width="0.630746"/>
<path d="M246.015 181.344L297.982 233.308" stroke="#181E22" stroke-width="0.630746"/>
<path d="M297.982 181.344L246.015 233.308" stroke="#181E22" stroke-width="0.630746"/>
<path d="M297.981 181.344L349.949 233.308" stroke="#181E22" stroke-width="0.630746"/>
<path d="M349.949 181.344L297.981 233.308" stroke="#181E22" stroke-width="0.630746"/>
<path d="M349.948 181.344L401.915 233.308" stroke="#181E22" stroke-width="0.630746"/>
<path d="M401.915 181.344L349.948 233.308" stroke="#181E22" stroke-width="0.630746"/>
<path d="M-13.8213 233.297L38.1459 285.261" stroke="#181E22" stroke-width="0.630746"/>
<path d="M38.1459 233.297L-13.8213 285.261" stroke="#181E22" stroke-width="0.630746"/>
<path d="M38.1455 233.297L90.1126 285.261" stroke="#181E22" stroke-width="0.630746"/>
<path d="M90.1126 233.297L38.1455 285.261" stroke="#181E22" stroke-width="0.630746"/>
<path d="M90.1123 233.297L142.079 285.261" stroke="#181E22" stroke-width="0.630746"/>
<path d="M142.079 233.297L90.1123 285.261" stroke="#181E22" stroke-width="0.630746"/>
<path d="M142.081 233.297L194.048 285.261" stroke="#181E22" stroke-width="0.630746"/>
<path d="M194.048 233.297L142.081 285.261" stroke="#181E22" stroke-width="0.630746"/>
<path d="M194.048 233.297L246.015 285.261" stroke="#181E22" stroke-width="0.630746"/>
<path d="M246.015 233.297L194.048 285.261" stroke="#181E22" stroke-width="0.630746"/>
<path d="M246.015 233.297L297.982 285.261" stroke="#181E22" stroke-width="0.630746"/>
<path d="M297.982 233.297L246.015 285.261" stroke="#181E22" stroke-width="0.630746"/>
<path d="M297.981 233.297L349.949 285.261" stroke="#181E22" stroke-width="0.630746"/>
<path d="M349.949 233.297L297.981 285.261" stroke="#181E22" stroke-width="0.630746"/>
<path d="M349.948 233.297L401.915 285.261" stroke="#181E22" stroke-width="0.630746"/>
<path d="M401.915 233.297L349.948 285.261" stroke="#181E22" stroke-width="0.630746"/>
<path d="M-13.8213 285.266L38.1459 337.23" stroke="#181E22" stroke-width="0.630746"/>
<path d="M38.1459 285.266L-13.8213 337.23" stroke="#181E22" stroke-width="0.630746"/>
<path d="M38.1455 285.266L90.1126 337.23" stroke="#181E22" stroke-width="0.630746"/>
<path d="M90.1126 285.266L38.1455 337.23" stroke="#181E22" stroke-width="0.630746"/>
<path d="M90.1123 285.266L142.079 337.23" stroke="#181E22" stroke-width="0.630746"/>
<path d="M142.079 285.266L90.1123 337.23" stroke="#181E22" stroke-width="0.630746"/>
<path d="M142.081 285.266L194.048 337.23" stroke="#181E22" stroke-width="0.630746"/>
<path d="M194.048 285.266L142.081 337.23" stroke="#181E22" stroke-width="0.630746"/>
<path d="M194.048 285.266L246.015 337.23" stroke="#181E22" stroke-width="0.630746"/>
<path d="M246.015 285.266L194.048 337.23" stroke="#181E22" stroke-width="0.630746"/>
<path d="M246.015 285.266L297.982 337.23" stroke="#181E22" stroke-width="0.630746"/>
<path d="M297.982 285.266L246.015 337.23" stroke="#181E22" stroke-width="0.630746"/>
<path d="M297.981 285.266L349.949 337.23" stroke="#181E22" stroke-width="0.630746"/>
<path d="M349.949 285.266L297.981 337.23" stroke="#181E22" stroke-width="0.630746"/>
<path d="M349.948 285.266L401.915 337.23" stroke="#181E22" stroke-width="0.630746"/>
<path d="M401.915 285.266L349.948 337.23" stroke="#181E22" stroke-width="0.630746"/>
</g>
<path d="M193.665 26.6641L322.968 155.967M193.665 26.6641V285.271M193.665 26.6641L129.013 91.3157L64.3618 155.967M322.968 155.967L193.665 285.271M322.968 155.967H64.3618M193.665 285.271L64.3618 155.967" stroke="#25292C" stroke-linecap="round"/>
<g filter="url(#filter0_f_8566_85972)">
<ellipse cx="194.051" cy="165.233" rx="73.0833" ry="70.4365" fill="#0A0D0F"/>
</g>
<rect x="116.552" y="76.7578" width="154.229" height="154.229" rx="77.1145" fill="#0A0D0F" stroke="url(#paint1_linear_8566_85972)"/>
<g filter="url(#filter1_i_8566_85972)">
<rect x="124.167" y="84.375" width="139" height="139" rx="69.5" fill="#060809"/>
</g>
<rect x="124.667" y="84.875" width="138" height="138" rx="69" stroke="url(#paint2_linear_8566_85972)"/>
<rect x="129.667" y="89.875" width="128" height="128" rx="64" fill="#0A0D0F" stroke="url(#paint3_linear_8566_85972)"/>
<g filter="url(#filter2_i_8566_85972)">
<rect x="134.167" y="94.375" width="119" height="119" rx="59.5" fill="#060809"/>
</g>
<rect x="134.667" y="94.875" width="118" height="118" rx="59" stroke="url(#paint4_linear_8566_85972)"/>
<rect x="140.167" y="99.875" width="107" height="108" rx="53.5" fill="#0A0D0F" stroke="url(#paint5_linear_8566_85972)"/>
<g clip-path="url(#clip0_8566_85972)">
<mask id="mask1_8566_85972" style="mask-type:luminance" maskUnits="userSpaceOnUse" x="166" y="134" width="55" height="60">
<path d="M166.429 134.227H220.594V193.254H166.429V134.227Z" fill="white"/>
</mask>
<g mask="url(#mask1_8566_85972)">
<path d="M185.12 152.963L182.271 151.189L182.33 153.899L185.18 155.673L185.12 152.963ZM189.226 162.449L189.166 159.798L186.675 158.244C186.635 158.224 186.595 158.184 186.575 158.164L186.635 160.834L189.226 162.449ZM180.318 166.016L173.801 161.97L173.642 155.195L176.83 153.82L176.77 151.109L171.669 153.301C171.27 153.481 171.031 153.84 171.051 154.258L171.25 162.389C171.25 162.807 171.509 163.226 171.908 163.465L179.72 168.307C180.078 168.527 180.517 168.586 180.896 168.487C180.935 168.467 180.975 168.467 181.015 168.447L185.818 166.374L183.207 164.76L180.318 166.016Z" fill="#6DC28B"/>
</g>
<mask id="mask2_8566_85972" style="mask-type:luminance" maskUnits="userSpaceOnUse" x="166" y="134" width="55" height="60">
<path d="M166.429 134.227H220.594V193.254H166.429V134.227Z" fill="white"/>
</mask>
<g mask="url(#mask2_8566_85972)">
<path d="M201.383 151.025C201.363 150.547 201.084 150.048 200.605 149.769L191.119 143.891L190.821 144.01L190.88 146.86L198.393 151.523L198.573 159.136L201.442 160.909L201.602 160.85L201.383 151.025ZM190.023 164.397L181.195 158.936L180.976 149.769L185.001 148.036L184.922 144.867L178.684 147.557C178.226 147.757 177.947 148.175 177.967 148.673L178.226 159.435C178.226 159.933 178.525 160.411 179.003 160.69L189.346 167.107C189.764 167.366 190.282 167.446 190.721 167.306C190.761 167.286 190.801 167.266 190.84 167.266L196.939 164.636L193.909 162.763L190.023 164.397Z" fill="#6DC28B"/>
</g>
<mask id="mask3_8566_85972" style="mask-type:luminance" maskUnits="userSpaceOnUse" x="166" y="134" width="55" height="60">
<path d="M166.429 134.227H220.594V193.254H166.429V134.227Z" fill="white"/>
</mask>
<g mask="url(#mask3_8566_85972)">
<path d="M214.834 143.494L201.581 135.284C201.083 134.985 200.505 134.905 200.007 135.065C199.967 135.085 199.907 135.105 199.868 135.125L186.934 140.705C186.416 140.924 186.097 141.402 186.117 141.98L186.436 155.77C186.456 156.328 186.795 156.886 187.333 157.205L200.585 165.416C201.063 165.714 201.661 165.794 202.159 165.635C202.199 165.615 202.259 165.595 202.299 165.575L215.232 159.995C215.75 159.776 216.069 159.278 216.049 158.72L215.73 144.929C215.711 144.371 215.372 143.833 214.834 143.494ZM201.362 162.327L189.844 155.192L189.565 143.215L200.804 138.373L212.323 145.507L212.602 157.484L201.362 162.327Z" fill="#6DC28B"/>
</g>
</g>
<path d="M190.136 117.322C189.995 117.462 189.916 117.653 189.916 117.852C189.916 118.051 189.995 118.242 190.136 118.383C190.277 118.524 190.468 118.603 190.667 118.603C190.866 118.603 191.056 118.524 191.197 118.383L192.917 116.662L192.917 124.852C192.917 125.051 192.996 125.242 193.136 125.382C193.277 125.523 193.468 125.602 193.667 125.602C193.865 125.602 194.056 125.523 194.197 125.382C194.338 125.242 194.417 125.051 194.417 124.852L194.417 116.662L196.136 118.383C196.277 118.524 196.468 118.603 196.667 118.603C196.866 118.603 197.056 118.524 197.197 118.383C197.338 118.242 197.417 118.051 197.417 117.852C197.417 117.653 197.338 117.462 197.197 117.322L194.197 114.322C194.128 114.252 194.045 114.196 193.954 114.159C193.863 114.121 193.765 114.102 193.667 114.102C193.568 114.102 193.47 114.121 193.379 114.159C193.288 114.196 193.206 114.252 193.136 114.322L190.136 117.322Z" fill="#6DC28B"/>
<path d="M197.198 190.038C197.339 189.897 197.418 189.706 197.418 189.507C197.418 189.308 197.339 189.117 197.198 188.977C197.057 188.836 196.866 188.757 196.667 188.757C196.468 188.757 196.278 188.836 196.137 188.977L194.417 190.697L194.417 182.507C194.417 182.308 194.338 182.118 194.198 181.977C194.057 181.836 193.866 181.757 193.667 181.757C193.468 181.757 193.278 181.836 193.137 181.977C192.996 182.118 192.917 182.308 192.917 182.507L192.917 190.697L191.198 188.977C191.057 188.836 190.866 188.757 190.667 188.757C190.468 188.757 190.278 188.836 190.137 188.977C189.996 189.117 189.917 189.308 189.917 189.507C189.917 189.706 189.996 189.897 190.137 190.038L193.137 193.038C193.206 193.108 193.289 193.163 193.38 193.201C193.471 193.238 193.569 193.258 193.667 193.258C193.766 193.258 193.864 193.238 193.955 193.201C194.046 193.163 194.128 193.108 194.198 193.038L197.198 190.038Z" fill="#6DC28B"/>
<path d="M229.738 150.344C229.597 150.203 229.406 150.124 229.207 150.124C229.008 150.124 228.818 150.203 228.677 150.344C228.536 150.485 228.457 150.676 228.457 150.875C228.457 151.074 228.536 151.264 228.677 151.405L230.397 153.125L222.207 153.125C222.009 153.125 221.818 153.204 221.677 153.344C221.536 153.485 221.457 153.676 221.457 153.875C221.457 154.073 221.536 154.264 221.677 154.405C221.818 154.546 222.009 154.625 222.207 154.625L230.397 154.625L228.677 156.344C228.536 156.485 228.457 156.676 228.457 156.875C228.457 157.074 228.536 157.264 228.677 157.405C228.818 157.546 229.008 157.625 229.207 157.625C229.406 157.625 229.597 157.546 229.738 157.405L232.738 154.405C232.808 154.336 232.863 154.253 232.901 154.162C232.939 154.071 232.958 153.973 232.958 153.875C232.958 153.776 232.939 153.678 232.901 153.587C232.863 153.496 232.808 153.414 232.738 153.344L229.738 150.344Z" fill="#6DC28B"/>
<path d="M157.594 157.406C157.735 157.547 157.926 157.626 158.125 157.626C158.324 157.626 158.515 157.547 158.655 157.406C158.796 157.265 158.875 157.074 158.875 156.875C158.875 156.676 158.796 156.486 158.655 156.345L156.935 154.625L165.125 154.625C165.324 154.625 165.514 154.546 165.655 154.406C165.796 154.265 165.875 154.074 165.875 153.875C165.875 153.677 165.796 153.486 165.655 153.345C165.514 153.204 165.324 153.125 165.125 153.125L156.935 153.125L158.655 151.406C158.796 151.265 158.875 151.074 158.875 150.875C158.875 150.676 158.796 150.486 158.655 150.345C158.515 150.204 158.324 150.125 158.125 150.125C157.926 150.125 157.735 150.204 157.594 150.345L154.594 153.345C154.524 153.414 154.469 153.497 154.431 153.588C154.393 153.679 154.374 153.777 154.374 153.875C154.374 153.974 154.393 154.072 154.431 154.163C154.469 154.254 154.524 154.336 154.594 154.406L157.594 157.406Z" fill="#6DC28B"/>
<rect x="298.417" y="132.405" width="47.128" height="47.128" rx="7.564" fill="url(#paint6_linear_8566_85972)"/>
<rect x="298.417" y="132.405" width="47.128" height="47.128" rx="7.564" stroke="url(#paint7_linear_8566_85972)" stroke-width="0.872003"/>
<path d="M318.078 157.212H314.578V159.837C314.578 160.01 314.527 160.179 314.431 160.323C314.334 160.467 314.198 160.579 314.038 160.646C313.878 160.712 313.702 160.729 313.532 160.695C313.362 160.662 313.206 160.578 313.084 160.456L309.584 156.956C309.502 156.874 309.438 156.778 309.394 156.672C309.35 156.565 309.327 156.452 309.327 156.337C309.327 156.222 309.35 156.108 309.394 156.002C309.438 155.895 309.502 155.799 309.584 155.718L313.084 152.218C313.206 152.095 313.362 152.012 313.532 151.978C313.702 151.944 313.878 151.961 314.038 152.028C314.198 152.094 314.334 152.206 314.431 152.35C314.527 152.494 314.578 152.663 314.578 152.837V155.462H318.078C318.31 155.462 318.532 155.554 318.697 155.718C318.861 155.882 318.953 156.105 318.953 156.337C318.953 156.569 318.861 156.791 318.697 156.955C318.532 157.119 318.31 157.212 318.078 157.212ZM318.078 149.337H320.703V152.837C320.703 153.069 320.795 153.291 320.959 153.455C321.123 153.619 321.346 153.712 321.578 153.712C321.81 153.712 322.032 153.619 322.197 153.455C322.361 153.291 322.453 153.069 322.453 152.837V149.337H325.078C325.251 149.337 325.42 149.286 325.564 149.189C325.708 149.093 325.821 148.957 325.887 148.797C325.953 148.637 325.97 148.461 325.937 148.291C325.903 148.121 325.819 147.965 325.697 147.843L322.197 144.343C322.116 144.261 322.019 144.197 321.913 144.153C321.807 144.109 321.693 144.086 321.578 144.086C321.463 144.086 321.349 144.109 321.243 144.153C321.137 144.197 321.04 144.261 320.959 144.343L317.459 147.843C317.336 147.965 317.253 148.121 317.219 148.291C317.185 148.461 317.203 148.637 317.269 148.797C317.335 148.957 317.447 149.093 317.591 149.189C317.735 149.286 317.905 149.337 318.078 149.337ZM333.572 155.718L330.072 152.218C329.95 152.095 329.794 152.012 329.624 151.978C329.454 151.944 329.278 151.961 329.118 152.028C328.958 152.094 328.821 152.206 328.725 152.35C328.629 152.494 328.578 152.663 328.578 152.837V155.462H325.078C324.846 155.462 324.623 155.554 324.459 155.718C324.295 155.882 324.203 156.105 324.203 156.337C324.203 156.569 324.295 156.791 324.459 156.955C324.623 157.119 324.846 157.212 325.078 157.212H328.578V159.837C328.578 160.01 328.629 160.179 328.725 160.323C328.821 160.467 328.958 160.579 329.118 160.646C329.278 160.712 329.454 160.729 329.624 160.695C329.794 160.662 329.95 160.578 330.072 160.456L333.572 156.956C333.653 156.874 333.718 156.778 333.762 156.672C333.806 156.565 333.829 156.452 333.829 156.337C333.829 156.222 333.806 156.108 333.762 156.002C333.718 155.895 333.653 155.799 333.572 155.718ZM325.078 163.337H322.453V159.837C322.453 159.605 322.361 159.382 322.197 159.218C322.032 159.054 321.81 158.962 321.578 158.962C321.346 158.962 321.123 159.054 320.959 159.218C320.795 159.382 320.703 159.605 320.703 159.837V163.337H318.078C317.905 163.336 317.735 163.388 317.591 163.484C317.447 163.58 317.335 163.717 317.269 163.877C317.203 164.037 317.185 164.213 317.219 164.383C317.253 164.552 317.336 164.708 317.459 164.831L320.959 168.331C321.04 168.412 321.137 168.477 321.243 168.521C321.349 168.565 321.463 168.587 321.578 168.587C321.693 168.587 321.807 168.565 321.913 168.521C322.019 168.477 322.116 168.412 322.197 168.331L325.697 164.831C325.819 164.708 325.903 164.552 325.937 164.383C325.97 164.213 325.953 164.037 325.887 163.877C325.821 163.717 325.708 163.58 325.564 163.484C325.42 163.388 325.251 163.336 325.078 163.337Z" fill="white"/>
<rect x="170.101" y="251.124" width="47.128" height="47.128" rx="7.564" fill="url(#paint8_linear_8566_85972)"/>
<rect x="170.101" y="251.124" width="47.128" height="47.128" rx="7.564" stroke="url(#paint9_linear_8566_85972)" stroke-width="0.872003"/>
<path fill-rule="evenodd" clip-rule="evenodd" d="M189.328 264.16C189.377 264.288 189.393 264.444 189.424 264.757C189.483 265.348 189.513 265.644 189.61 265.821C189.835 266.235 190.319 266.436 190.771 266.302C190.965 266.245 191.195 266.056 191.657 265.679L191.657 265.679C191.902 265.478 192.025 265.377 192.151 265.322C192.438 265.197 192.768 265.213 193.041 265.367C193.161 265.434 193.273 265.546 193.497 265.77L194.305 266.578C194.531 266.803 194.643 266.916 194.711 267.037C194.863 267.309 194.88 267.637 194.755 267.924C194.7 268.051 194.599 268.174 194.397 268.421L194.397 268.421C194.016 268.886 193.826 269.119 193.769 269.315C193.638 269.765 193.837 270.245 194.248 270.471C194.426 270.569 194.725 270.599 195.322 270.659C195.638 270.69 195.796 270.706 195.925 270.757C196.216 270.871 196.437 271.115 196.522 271.416C196.559 271.549 196.559 271.708 196.559 272.025V273.171C196.559 273.486 196.559 273.644 196.522 273.776C196.438 274.078 196.216 274.324 195.923 274.438C195.795 274.488 195.638 274.504 195.324 274.535C194.732 274.594 194.436 274.624 194.259 274.72C193.845 274.946 193.644 275.43 193.778 275.882C193.835 276.076 194.023 276.306 194.399 276.766L194.399 276.766C194.598 277.009 194.698 277.131 194.753 277.256C194.88 277.544 194.863 277.875 194.708 278.149C194.641 278.268 194.53 278.379 194.308 278.602L193.496 279.414L193.496 279.414C193.272 279.637 193.161 279.749 193.041 279.816C192.768 279.97 192.437 279.986 192.15 279.86C192.024 279.805 191.902 279.705 191.658 279.505L191.658 279.505L191.658 279.505C191.196 279.128 190.965 278.939 190.77 278.882C190.319 278.749 189.837 278.949 189.611 279.362C189.514 279.54 189.484 279.837 189.425 280.432C189.393 280.748 189.377 280.906 189.327 281.035C189.212 281.326 188.968 281.547 188.667 281.632C188.534 281.67 188.375 281.67 188.058 281.67H186.915C186.597 281.67 186.438 281.67 186.305 281.632C186.004 281.547 185.76 281.327 185.646 281.036C185.595 280.907 185.58 280.748 185.548 280.431C185.488 279.835 185.458 279.537 185.361 279.359C185.136 278.947 184.653 278.747 184.202 278.879C184.008 278.936 183.776 279.125 183.314 279.503C183.07 279.703 182.948 279.803 182.822 279.858C182.534 279.984 182.204 279.968 181.931 279.814C181.811 279.746 181.699 279.635 181.476 279.412L181.476 279.412L180.664 278.599C180.442 278.377 180.331 278.266 180.264 278.147C180.109 277.873 180.092 277.542 180.219 277.253C180.274 277.128 180.373 277.007 180.572 276.764C180.947 276.305 181.135 276.076 181.192 275.883C181.326 275.43 181.126 274.945 180.711 274.72C180.534 274.624 180.238 274.594 179.647 274.535H179.647C179.334 274.504 179.177 274.488 179.05 274.438C178.757 274.324 178.534 274.078 178.45 273.775C178.413 273.643 178.413 273.486 178.413 273.172V272.025C178.413 271.708 178.413 271.549 178.45 271.417C178.535 271.115 178.756 270.871 179.048 270.756C179.176 270.706 179.334 270.69 179.649 270.659C180.245 270.599 180.543 270.569 180.722 270.471C181.133 270.246 181.332 269.765 181.201 269.315C181.144 269.119 180.954 268.887 180.574 268.423L180.574 268.423C180.373 268.176 180.272 268.053 180.217 267.927C180.092 267.64 180.109 267.311 180.261 267.039C180.329 266.918 180.441 266.806 180.666 266.581L180.666 266.581L181.475 265.772L181.475 265.772C181.699 265.548 181.811 265.436 181.931 265.369C182.204 265.215 182.533 265.199 182.821 265.324C182.947 265.38 183.07 265.48 183.315 265.681C183.777 266.059 184.008 266.248 184.202 266.305C184.654 266.438 185.137 266.238 185.362 265.824C185.459 265.647 185.489 265.35 185.548 264.758C185.58 264.444 185.595 264.287 185.645 264.16C185.759 263.867 186.005 263.645 186.307 263.56C186.44 263.523 186.597 263.523 186.912 263.523H188.061C188.376 263.523 188.533 263.523 188.665 263.56C188.968 263.645 189.213 263.867 189.328 264.16ZM187.485 276.227C189.49 276.227 191.115 274.602 191.115 272.598C191.115 270.594 189.49 268.969 187.485 268.969C185.481 268.969 183.856 270.594 183.856 272.598C183.856 274.602 185.481 276.227 187.485 276.227Z" fill="white"/>
<path fill-rule="evenodd" clip-rule="evenodd" d="M200.771 273.767L200.771 273.767C200.937 274.129 201.019 274.31 201.119 274.402C201.35 274.613 201.698 274.635 201.954 274.455C202.064 274.377 202.169 274.207 202.38 273.869C202.491 273.689 202.547 273.599 202.615 273.537C202.769 273.396 202.98 273.336 203.186 273.374C203.276 273.39 203.371 273.437 203.56 273.53L204.244 273.865L204.244 273.865C204.435 273.959 204.531 274.006 204.599 274.068C204.754 274.207 204.835 274.41 204.818 274.617C204.811 274.709 204.774 274.809 204.699 275.009C204.559 275.385 204.489 275.573 204.496 275.709C204.51 276.021 204.739 276.281 205.047 276.335C205.181 276.358 205.375 276.313 205.765 276.222L205.765 276.222C205.97 276.174 206.073 276.15 206.165 276.154C206.374 276.163 206.566 276.27 206.684 276.441C206.736 276.517 206.771 276.617 206.839 276.817L207.086 277.541C207.154 277.739 207.188 277.838 207.193 277.929C207.205 278.139 207.118 278.342 206.957 278.477C206.888 278.536 206.792 278.579 206.602 278.667L206.602 278.667C206.242 278.831 206.062 278.913 205.971 279.012C205.758 279.244 205.736 279.593 205.917 279.849C205.995 279.959 206.163 280.064 206.499 280.272L206.499 280.272C206.677 280.383 206.766 280.438 206.828 280.505C206.97 280.66 207.031 280.872 206.992 281.079C206.975 281.168 206.929 281.262 206.837 281.45L206.5 282.137C206.407 282.326 206.361 282.421 206.299 282.489C206.16 282.645 205.956 282.727 205.747 282.709C205.656 282.702 205.557 282.665 205.359 282.591L205.359 282.591C204.986 282.452 204.799 282.383 204.664 282.389C204.351 282.403 204.09 282.632 204.037 282.941C204.014 283.074 204.059 283.268 204.15 283.656C204.197 283.862 204.221 283.964 204.217 284.056C204.208 284.265 204.102 284.457 203.929 284.576C203.854 284.628 203.754 284.662 203.555 284.73L202.832 284.977C202.632 285.045 202.532 285.079 202.441 285.084C202.232 285.096 202.03 285.009 201.895 284.849C201.836 284.779 201.792 284.683 201.704 284.491C201.538 284.13 201.456 283.949 201.356 283.857C201.125 283.645 200.777 283.623 200.521 283.804C200.411 283.882 200.306 284.051 200.096 284.388C199.985 284.567 199.93 284.656 199.862 284.718C199.708 284.86 199.496 284.92 199.29 284.882C199.2 284.866 199.106 284.819 198.917 284.727L198.229 284.389C198.041 284.297 197.948 284.251 197.88 284.191C197.723 284.051 197.641 283.845 197.659 283.635C197.666 283.545 197.703 283.447 197.776 283.252C197.913 282.882 197.982 282.697 197.977 282.563C197.964 282.248 197.733 281.985 197.422 281.933C197.29 281.91 197.097 281.955 196.711 282.045C196.506 282.093 196.404 282.117 196.313 282.113C196.103 282.104 195.91 281.997 195.792 281.825C195.74 281.749 195.706 281.65 195.638 281.451L195.391 280.729C195.323 280.528 195.288 280.428 195.283 280.336C195.272 280.128 195.359 279.926 195.518 279.791C195.588 279.732 195.684 279.688 195.877 279.599L195.877 279.599C196.241 279.433 196.424 279.35 196.515 279.249C196.725 279.018 196.747 278.673 196.568 278.417C196.49 278.306 196.32 278.2 195.979 277.988C195.799 277.876 195.709 277.82 195.647 277.752C195.506 277.598 195.446 277.388 195.483 277.183C195.5 277.092 195.547 276.997 195.64 276.806L195.976 276.122L195.976 276.122C196.069 275.933 196.115 275.838 196.176 275.77C196.316 275.614 196.52 275.532 196.729 275.55C196.82 275.557 196.919 275.594 197.116 275.668L197.116 275.668C197.489 275.806 197.676 275.876 197.811 275.87C198.124 275.856 198.385 275.626 198.439 275.317C198.462 275.184 198.416 274.99 198.326 274.603C198.278 274.397 198.254 274.295 198.258 274.203C198.267 273.994 198.374 273.802 198.546 273.683C198.622 273.631 198.721 273.597 198.921 273.529L199.644 273.282C199.843 273.214 199.943 273.18 200.034 273.175C200.243 273.163 200.445 273.25 200.581 273.41C200.64 273.48 200.684 273.576 200.771 273.767ZM202.021 281.414C203.285 280.982 203.96 279.607 203.528 278.342C203.096 277.078 201.721 276.403 200.456 276.835C199.192 277.267 198.517 278.642 198.949 279.907C199.381 281.171 200.756 281.846 202.021 281.414Z" fill="white"/>
<path fill-rule="evenodd" clip-rule="evenodd" d="M199.051 263.89C199.364 263.783 199.707 263.93 199.845 264.231C200.058 264.698 200.707 264.738 200.977 264.301C201.152 264.02 201.512 263.916 201.81 264.062L202.29 264.298C202.589 264.445 202.728 264.796 202.612 265.108C202.432 265.592 202.861 266.084 203.364 265.966C203.687 265.891 204.015 266.073 204.123 266.387L204.297 266.898C204.404 267.21 204.256 267.552 203.956 267.689C203.49 267.902 203.449 268.548 203.884 268.818C204.164 268.992 204.266 269.35 204.121 269.646L203.882 270.133C203.736 270.43 203.389 270.568 203.079 270.453C202.597 270.273 202.11 270.704 202.227 271.204C202.302 271.527 202.121 271.855 201.808 271.962L201.299 272.135C200.985 272.243 200.64 272.094 200.502 271.792C200.288 271.324 199.639 271.281 199.367 271.718C199.193 272 198.833 272.103 198.536 271.957L198.049 271.718C197.753 271.573 197.616 271.228 197.73 270.919C197.909 270.44 197.479 269.956 196.981 270.072C196.66 270.147 196.332 269.967 196.225 269.654L196.051 269.145C195.944 268.83 196.092 268.485 196.394 268.347C196.864 268.132 196.905 267.481 196.466 267.208C196.183 267.032 196.079 266.671 196.226 266.372L196.462 265.891C196.608 265.594 196.956 265.455 197.267 265.571C197.749 265.75 198.238 265.321 198.121 264.821C198.046 264.498 198.227 264.171 198.54 264.064L199.051 263.89ZM200.726 269.63C201.617 269.326 202.093 268.356 201.789 267.464C201.484 266.573 200.514 266.097 199.623 266.402C198.731 266.706 198.255 267.676 198.56 268.567C198.864 269.459 199.834 269.935 200.726 269.63Z" fill="white"/>
<rect x="41.7866" y="132.405" width="47.128" height="47.128" rx="7.564" fill="url(#paint10_linear_8566_85972)"/>
<rect x="41.7866" y="132.405" width="47.128" height="47.128" rx="7.564" stroke="url(#paint11_linear_8566_85972)" stroke-width="0.872003"/>
<path d="M70.4289 166.859C70.4289 167.091 70.3367 167.314 70.1726 167.478C70.0085 167.642 69.7859 167.734 69.5539 167.734H60.8039C60.5718 167.734 60.3492 167.642 60.1851 167.478C60.021 167.314 59.9289 167.091 59.9289 166.859C59.9289 166.627 60.021 166.405 60.1851 166.241C60.3492 166.077 60.5718 165.984 60.8039 165.984H69.5539C69.7859 165.984 70.0085 166.077 70.1726 166.241C70.3367 166.405 70.4289 166.627 70.4289 166.859ZM74.8039 152.859C74.8076 154.318 74.4781 155.758 73.8404 157.07C73.2028 158.382 72.2738 159.531 71.1245 160.429C70.9096 160.594 70.7352 160.806 70.6146 161.048C70.494 161.291 70.4305 161.557 70.4289 161.828V162.484C70.4289 162.948 70.2445 163.394 69.9163 163.722C69.5881 164.05 69.143 164.234 68.6789 164.234H61.6789C61.2147 164.234 60.7696 164.05 60.4414 163.722C60.1132 163.394 59.9289 162.948 59.9289 162.484V161.828C59.9287 161.561 59.8672 161.297 59.749 161.057C59.6309 160.817 59.4593 160.607 59.2474 160.443C58.101 159.551 57.1727 158.409 56.5327 157.104C55.8928 155.799 55.5581 154.366 55.5539 152.913C55.5254 147.7 59.7385 143.359 64.947 143.234C66.2303 143.203 67.5069 143.43 68.7016 143.899C69.8962 144.369 70.9848 145.073 71.9033 145.97C72.8217 146.867 73.5515 147.939 74.0497 149.122C74.5478 150.305 74.8042 151.576 74.8039 152.859ZM69.2979 153.115C69.2167 153.034 69.1202 152.969 69.0139 152.925C68.9077 152.881 68.7938 152.859 68.6789 152.859C68.5639 152.859 68.45 152.881 68.3438 152.925C68.2376 152.969 68.1411 153.034 68.0598 153.115L65.1789 155.997L62.2979 153.115C62.1337 152.951 61.911 152.859 61.6789 152.859C61.4467 152.859 61.224 152.951 61.0598 153.115C60.8956 153.279 60.8034 153.502 60.8034 153.734C60.8034 153.967 60.8956 154.189 61.0598 154.353L64.3039 157.596V161.609C64.3039 161.841 64.396 162.064 64.5601 162.228C64.7242 162.392 64.9468 162.484 65.1789 162.484C65.4109 162.484 65.6335 162.392 65.7976 162.228C65.9617 162.064 66.0539 161.841 66.0539 161.609V157.596L69.2979 154.353C69.3793 154.272 69.4438 154.176 69.4878 154.069C69.5319 153.963 69.5545 153.849 69.5545 153.734C69.5545 153.619 69.5319 153.506 69.4878 153.399C69.4438 153.293 69.3793 153.197 69.2979 153.115Z" fill="white"/>
<ellipse cx="194.047" cy="27.3403" rx="3.60617" ry="3.60595" fill="#3B3D3F"/>
<defs>
<filter id="filter0_f_8566_85972" x="114.968" y="88.7969" width="158.167" height="152.873" filterUnits="userSpaceOnUse" color-interpolation-filters="sRGB">
<feFlood flood-opacity="0" result="BackgroundImageFix"/>
<feBlend mode="normal" in="SourceGraphic" in2="BackgroundImageFix" result="shape"/>
<feGaussianBlur stdDeviation="3" result="effect1_foregroundBlur_8566_85972"/>
</filter>
<filter id="filter1_i_8566_85972" x="124.167" y="84.375" width="139" height="140" filterUnits="userSpaceOnUse" color-interpolation-filters="sRGB">
<feFlood flood-opacity="0" result="BackgroundImageFix"/>
<feBlend mode="normal" in="SourceGraphic" in2="BackgroundImageFix" result="shape"/>
<feColorMatrix in="SourceAlpha" type="matrix" values="0 0 0 0 0 0 0 0 0 0 0 0 0 0 0 0 0 0 127 0" result="hardAlpha"/>
<feOffset dy="1"/>
<feGaussianBlur stdDeviation="1"/>
<feComposite in2="hardAlpha" operator="arithmetic" k2="-1" k3="1"/>
<feColorMatrix type="matrix" values="0 0 0 0 0 0 0 0 0 0 0 0 0 0 0 0 0 0 1 0"/>
<feBlend mode="normal" in2="shape" result="effect1_innerShadow_8566_85972"/>
</filter>
<filter id="filter2_i_8566_85972" x="134.167" y="94.375" width="119" height="120" filterUnits="userSpaceOnUse" color-interpolation-filters="sRGB">
<feFlood flood-opacity="0" result="BackgroundImageFix"/>
<feBlend mode="normal" in="SourceGraphic" in2="BackgroundImageFix" result="shape"/>
<feColorMatrix in="SourceAlpha" type="matrix" values="0 0 0 0 0 0 0 0 0 0 0 0 0 0 0 0 0 0 127 0" result="hardAlpha"/>
<feOffset dy="1"/>
<feGaussianBlur stdDeviation="1"/>
<feComposite in2="hardAlpha" operator="arithmetic" k2="-1" k3="1"/>
<feColorMatrix type="matrix" values="0 0 0 0 0 0 0 0 0 0 0 0 0 0 0 0 0 0 1 0"/>
<feBlend mode="normal" in2="shape" result="effect1_innerShadow_8566_85972"/>
</filter>
<linearGradient id="paint0_linear_8566_85972" x1="193.406" y1="0.398437" x2="193.406" y2="323" gradientUnits="userSpaceOnUse">
<stop offset="0.553761" stop-color="#737373"/>
<stop offset="1" stop-color="#737373" stop-opacity="0"/>
</linearGradient>
<linearGradient id="paint1_linear_8566_85972" x1="193.666" y1="153.82" x2="193.666" y2="231.487" gradientUnits="userSpaceOnUse">
<stop stop-color="#3B3D3F" stop-opacity="0.5"/>
<stop offset="1" stop-color="#3B3D3F" stop-opacity="0.89"/>
</linearGradient>
<linearGradient id="paint2_linear_8566_85972" x1="193.646" y1="83.717" x2="193.701" y2="223.375" gradientUnits="userSpaceOnUse">
<stop stop-color="#1E1E1F" stop-opacity="0"/>
<stop offset="1" stop-color="#1E1E1F" stop-opacity="0.8"/>
</linearGradient>
<linearGradient id="paint3_linear_8566_85972" x1="193.667" y1="89.375" x2="193.667" y2="218.375" gradientUnits="userSpaceOnUse">
<stop stop-color="#3B3D3F" stop-opacity="0.5"/>
<stop offset="1" stop-color="#3B3D3F" stop-opacity="0.8"/>
</linearGradient>
<linearGradient id="paint4_linear_8566_85972" x1="193.649" y1="93.8116" x2="193.696" y2="213.375" gradientUnits="userSpaceOnUse">
<stop stop-color="#1E1E1F" stop-opacity="0"/>
<stop offset="1" stop-color="#1E1E1F" stop-opacity="0.8"/>
</linearGradient>
<linearGradient id="paint5_linear_8566_85972" x1="193.667" y1="99.375" x2="193.667" y2="208.375" gradientUnits="userSpaceOnUse">
<stop stop-color="#3B3D3F" stop-opacity="0.2"/>
<stop offset="1" stop-color="#3B3D3F" stop-opacity="0.4"/>
</linearGradient>
<linearGradient id="paint6_linear_8566_85972" x1="321.981" y1="131.969" x2="321.981" y2="179.969" gradientUnits="userSpaceOnUse">
<stop stop-color="#161C20"/>
<stop offset="1" stop-color="#0A0D0F"/>
</linearGradient>
<linearGradient id="paint7_linear_8566_85972" x1="321.981" y1="155.953" x2="321.981" y2="179.969" gradientUnits="userSpaceOnUse">
<stop stop-color="#3B3D3F" stop-opacity="0.5"/>
<stop offset="1" stop-color="#3B3D3F" stop-opacity="0.89"/>
</linearGradient>
<linearGradient id="paint8_linear_8566_85972" x1="193.665" y1="250.688" x2="193.665" y2="298.688" gradientUnits="userSpaceOnUse">
<stop stop-color="#161C20"/>
<stop offset="1" stop-color="#0A0D0F"/>
</linearGradient>
<linearGradient id="paint9_linear_8566_85972" x1="193.665" y1="274.671" x2="193.665" y2="298.687" gradientUnits="userSpaceOnUse">
<stop stop-color="#3B3D3F" stop-opacity="0.5"/>
<stop offset="1" stop-color="#3B3D3F" stop-opacity="0.89"/>
</linearGradient>
<linearGradient id="paint10_linear_8566_85972" x1="65.3506" y1="131.969" x2="65.3506" y2="179.969" gradientUnits="userSpaceOnUse">
<stop stop-color="#161C20"/>
<stop offset="1" stop-color="#0A0D0F"/>
</linearGradient>
<linearGradient id="paint11_linear_8566_85972" x1="65.3506" y1="155.953" x2="65.3506" y2="179.969" gradientUnits="userSpaceOnUse">
<stop stop-color="#3B3D3F" stop-opacity="0.5"/>
<stop offset="1" stop-color="#3B3D3F" stop-opacity="0.89"/>
</linearGradient>
<clipPath id="clip0_8566_85972">
<rect width="45" height="45" fill="white" transform="translate(171.052 129.258)"/>
</clipPath>
</defs>
</svg>
