<svg width="84" height="84" viewBox="0 0 84 84" fill="none" xmlns="http://www.w3.org/2000/svg">
<rect x="1.02095" y="0.860789" width="81.9581" height="81.9581" rx="40.9791" fill="#FEFEFE" stroke="#EBECEC" stroke-width="0.541891"/>
<g filter="url(#filter0_ii_8566_91651)">
<path d="M4.37109 41.8399C4.37109 21.058 21.2182 4.21094 42.0001 4.21094C62.782 4.21094 79.6291 21.058 79.6291 41.8399C79.6291 62.6218 62.782 79.4689 42.0001 79.4689C21.2182 79.4689 4.37109 62.6218 4.37109 41.8399Z" fill="#FF5500"/>
</g>
<g filter="url(#filter1_d_8566_91651)">
<path d="M8.15137 41.8392C8.15137 23.1449 23.3061 7.99023 42.0003 7.99023C60.6945 7.99023 75.8492 23.1449 75.8492 41.8392C75.8492 60.5334 60.6945 75.6881 42.0003 75.6881C23.3061 75.6881 8.15137 60.5334 8.15137 41.8392Z" fill="url(#paint0_linear_8566_91651)"/>
</g>
<g filter="url(#filter2_i_8566_91651)">
<path d="M45.8039 48.5296C45.8039 47.2108 46.6739 46.0959 47.871 45.7271V13.5348C45.9768 13.1404 44.0146 12.9373 42.0033 12.9373C39.9913 12.9373 38.0281 13.1446 36.1349 13.5348V45.4508C37.3143 45.8651 38.1613 46.9849 38.1613 48.3062C38.1613 49.9793 36.8053 51.3352 35.1323 51.3352C33.4592 51.3352 32.1032 49.9793 32.1032 48.3062C32.1032 47.0099 32.9181 45.9078 34.0622 45.4755V14.0435C29.2722 15.4095 24.9918 17.9786 21.5654 21.405C19.4511 23.519 17.6628 25.9591 16.2828 28.647L24.1086 33.1655V50.6006C25.1321 51.0589 25.8465 52.083 25.8465 53.2773C25.8465 54.897 24.5335 56.2103 22.9134 56.2103C21.2939 56.2103 19.9806 54.897 19.9806 53.2773C19.9806 51.963 20.8449 50.8506 22.0359 50.478V34.3546L15.4021 30.5238L14.4081 29.9506L13.5952 29.4821C15.1566 25.8991 17.3752 22.6682 20.0991 19.9424C25.704 14.3375 33.4473 10.8714 42.0014 10.8714V10.8672C50.5531 10.8672 58.2958 14.3337 63.9011 19.9383C66.5989 22.6361 68.7999 25.8246 70.3568 29.3656L69.3506 29.9487L68.5547 30.4093L61.7241 34.3546V50.54C62.8262 50.962 63.6096 52.0272 63.6096 53.2769C63.6096 54.8964 62.2964 56.2097 60.6766 56.2097C59.0568 56.2097 57.7435 54.8964 57.7435 53.2769C57.7435 52.0176 58.5391 50.9463 59.6541 50.531V33.1652L67.667 28.5382C66.293 25.8949 64.5266 23.4927 62.4379 21.4046C59.0147 17.9783 54.7308 15.4091 49.9411 14.0432V45.8565C50.9591 46.3173 51.6687 47.3386 51.6687 48.5286C51.6687 50.1484 50.3558 51.4617 48.7356 51.4617C47.1162 51.4617 45.8039 50.1494 45.8039 48.5296Z" fill="#FF5500"/>
<path d="M36.1326 70.1453V70.9759V72.2577C29.9327 71.0686 24.3904 68.0309 20.0991 63.7419C14.4945 58.1369 11.0283 50.3936 11.0283 41.8399C11.0283 38.1863 11.6619 34.6781 12.8246 31.4189L14.6533 32.4732C13.6472 35.4102 13.1022 38.5628 13.1022 41.8399C13.1022 49.8227 16.337 57.0464 21.5658 62.2774C24.9921 65.7031 29.2751 68.2719 34.0626 69.6388L34.0606 69.634V60.0244L28.6576 58.5776V43.2921C27.5404 42.8785 26.7425 41.8062 26.7425 40.5446C26.7425 38.9251 28.0558 37.6115 29.6753 37.6115C31.2951 37.6115 32.6081 38.9248 32.6081 40.5446C32.6081 41.7927 31.8266 42.8563 30.7277 43.2793V56.9918L36.1333 58.4402V70.1453H36.1326Z" fill="#FF5500"/>
<path d="M43.0357 46.5381V70.7246V71.7789V72.7969C42.6911 72.8087 42.347 72.8126 42.001 72.8126C41.6528 72.8126 41.3091 72.8062 40.9647 72.7969V71.7789V70.7246V46.5555C39.7898 46.1386 38.9463 45.0211 38.9463 43.7026C38.9463 42.0296 40.3023 40.6736 41.9757 40.6736C43.6484 40.6736 45.0047 42.0296 45.0047 43.7026C45.0044 45.0028 44.1854 46.1081 43.0357 46.5381Z" fill="#FF5500"/>
<path d="M63.9004 63.7396C59.6098 68.029 54.0671 71.066 47.8691 72.2551V70.9739V70.1453V70.1433V58.4402L53.2728 56.9918V43.3242C52.1094 42.9349 51.2704 41.8386 51.2704 40.5446C51.2704 38.9251 52.5837 37.6115 54.2035 37.6115C55.8233 37.6115 57.1363 38.9248 57.1363 40.5446C57.1363 41.759 56.3975 42.8011 55.3457 43.2466V58.5776L49.9398 60.0244V69.6337C54.7299 68.2697 59.0109 65.6986 62.4366 62.2748C67.6676 57.0441 70.9021 49.8182 70.9021 41.8396C70.9021 38.5162 70.3385 35.3254 69.3092 32.3542L71.1341 31.2999C72.3251 34.5892 72.9728 38.1378 72.9728 41.8396C72.9721 50.3901 69.5057 58.135 63.9004 63.7396Z" fill="#FF5500"/>
</g>
<defs>
<filter id="filter0_ii_8566_91651" x="4.37109" y="4.21094" width="75.2578" height="79.4963" filterUnits="userSpaceOnUse" color-interpolation-filters="sRGB">
<feFlood flood-opacity="0" result="BackgroundImageFix"/>
<feBlend mode="normal" in="SourceGraphic" in2="BackgroundImageFix" result="shape"/>
<feColorMatrix in="SourceAlpha" type="matrix" values="0 0 0 0 0 0 0 0 0 0 0 0 0 0 0 0 0 0 127 0" result="hardAlpha"/>
<feOffset/>
<feGaussianBlur stdDeviation="2.34814"/>
<feComposite in2="hardAlpha" operator="arithmetic" k2="-1" k3="1"/>
<feColorMatrix type="matrix" values="0 0 0 0 0 0 0 0 0 0 0 0 0 0 0 0 0 0 0.2 0"/>
<feBlend mode="normal" in2="shape" result="effect1_innerShadow_8566_91651"/>
<feColorMatrix in="SourceAlpha" type="matrix" values="0 0 0 0 0 0 0 0 0 0 0 0 0 0 0 0 0 0 127 0" result="hardAlpha"/>
<feOffset dy="4.23837"/>
<feGaussianBlur stdDeviation="4.23837"/>
<feComposite in2="hardAlpha" operator="arithmetic" k2="-1" k3="1"/>
<feColorMatrix type="matrix" values="0 0 0 0 0.70599 0 0 0 0 0.23533 0 0 0 0 0 0 0 0 0.5 0"/>
<feBlend mode="normal" in2="effect1_innerShadow_8566_91651" result="effect2_innerShadow_8566_91651"/>
</filter>
<filter id="filter1_d_8566_91651" x="5.9838" y="6.36456" width="72.0334" height="72.033" filterUnits="userSpaceOnUse" color-interpolation-filters="sRGB">
<feFlood flood-opacity="0" result="BackgroundImageFix"/>
<feColorMatrix in="SourceAlpha" type="matrix" values="0 0 0 0 0 0 0 0 0 0 0 0 0 0 0 0 0 0 127 0" result="hardAlpha"/>
<feOffset dy="0.541891"/>
<feGaussianBlur stdDeviation="1.08378"/>
<feComposite in2="hardAlpha" operator="out"/>
<feColorMatrix type="matrix" values="0 0 0 0 0 0 0 0 0 0 0 0 0 0 0 0 0 0 0.15 0"/>
<feBlend mode="normal" in2="BackgroundImageFix" result="effect1_dropShadow_8566_91651"/>
<feBlend mode="normal" in="SourceGraphic" in2="effect1_dropShadow_8566_91651" result="shape"/>
</filter>
<filter id="filter2_i_8566_91651" x="11.0283" y="10.8672" width="61.9443" height="63.9016" filterUnits="userSpaceOnUse" color-interpolation-filters="sRGB">
<feFlood flood-opacity="0" result="BackgroundImageFix"/>
<feBlend mode="normal" in="SourceGraphic" in2="BackgroundImageFix" result="shape"/>
<feColorMatrix in="SourceAlpha" type="matrix" values="0 0 0 0 0 0 0 0 0 0 0 0 0 0 0 0 0 0 127 0" result="hardAlpha"/>
<feOffset dy="1.95621"/>
<feGaussianBlur stdDeviation="1.95621"/>
<feComposite in2="hardAlpha" operator="arithmetic" k2="-1" k3="1"/>
<feColorMatrix type="matrix" values="0 0 0 0 0.70599 0 0 0 0 0.23533 0 0 0 0 0 0 0 0 0.5 0"/>
<feBlend mode="normal" in2="shape" result="effect1_innerShadow_8566_91651"/>
</filter>
<linearGradient id="paint0_linear_8566_91651" x1="42.0003" y1="7.99023" x2="42.0003" y2="75.6881" gradientUnits="userSpaceOnUse">
<stop stop-color="white"/>
<stop offset="1" stop-color="#F5F6F7"/>
</linearGradient>
</defs>
</svg>
