<svg width="110" height="111" viewBox="0 0 110 111" fill="none" xmlns="http://www.w3.org/2000/svg">
<rect x="0.361261" y="0.861261" width="109.277" height="109.277" rx="54.6387" fill="#FEFEFE" stroke="#EBECEC" stroke-width="0.722522"/>
<path d="M4.82812 55.5001C4.82812 27.7909 27.2909 5.32812 55.0001 5.32812V5.32812C82.7093 5.32812 105.172 27.7909 105.172 55.5001V55.5001C105.172 83.2093 82.7093 105.672 55.0001 105.672V105.672C27.2909 105.672 4.82812 83.2093 4.82812 55.5001V55.5001Z" fill="url(#paint0_linear_9047_110032)"/>
<g filter="url(#filter0_f_9047_110032)">
<path d="M10 56.5C10 31.6472 30.1472 11.5 55 11.5V11.5C79.8528 11.5 100 31.6472 100 56.5V56.5C100 81.3528 79.8528 101.5 55 101.5V101.5C30.1472 101.5 10 81.3528 10 56.5V56.5Z" fill="#D94A01"/>
</g>
<path d="M9.86841 55.501C9.86841 30.5754 30.0746 10.3691 55.0003 10.3691V10.3691C79.926 10.3691 100.132 30.5754 100.132 55.501V55.501C100.132 80.4267 79.926 100.633 55.0003 100.633V100.633C30.0746 100.633 9.86841 80.4267 9.86841 55.501V55.501Z" fill="url(#paint1_linear_9047_110032)"/>
<path d="M60.0715 64.4196C60.0715 62.6613 61.2316 61.1747 62.8277 60.683V17.76C60.3021 17.2341 57.6858 16.9632 55.004 16.9632C52.3214 16.9632 49.7038 17.2397 47.1795 17.76V60.3146C48.7521 60.8671 49.8814 62.3601 49.8814 64.1218C49.8814 66.3526 48.0734 68.1605 45.8427 68.1605C43.6119 68.1605 41.804 66.3526 41.804 64.1218C41.804 62.3934 42.8905 60.924 44.416 60.3476V18.4383C38.0293 20.2595 32.3221 23.685 27.7536 28.2535C24.9345 31.0722 22.5501 34.3257 20.71 37.9095L31.1444 43.9342V67.181C32.5091 67.7921 33.4616 69.1576 33.4616 70.7499C33.4616 72.9096 31.711 74.6607 29.5509 74.6607C27.3916 74.6607 25.6405 72.9096 25.6405 70.7499C25.6405 68.9975 26.7929 67.5144 28.3809 67.0176V45.5197L19.5358 40.412L18.2105 39.6477L17.1266 39.023C19.2084 34.2457 22.1667 29.9378 25.7984 26.3034C33.2716 18.8302 43.5961 14.2087 55.0015 14.2087V14.2031C66.4039 14.2031 76.7274 18.8251 84.2011 26.2979C87.7982 29.895 90.7329 34.1464 92.8087 38.8676L91.4672 39.6452L90.4059 40.2592L81.2985 45.5197V67.1001C82.768 67.6629 83.8125 69.0831 83.8125 70.7495C83.8125 72.9087 82.0615 74.6598 79.9018 74.6598C77.742 74.6598 75.991 72.9087 75.991 70.7495C75.991 69.0703 77.0518 67.6419 78.5384 67.0882V43.9338L89.2223 37.7645C87.3904 34.2401 85.0351 31.0371 82.2502 28.2531C77.686 23.6846 71.9741 20.2591 65.5878 18.4378V60.8555C66.9452 61.47 67.8913 62.8316 67.8913 64.4184C67.8913 66.5781 66.1407 68.3291 63.9805 68.3291C61.8212 68.3291 60.0715 66.5794 60.0715 64.4196Z" fill="url(#paint2_linear_9047_110032)"/>
<path d="M47.1765 93.2406V94.348V96.0571C38.9099 94.4717 31.5202 90.4214 25.7984 84.7027C18.3256 77.2295 13.7041 66.905 13.7041 55.5001C13.7041 50.6286 14.5488 45.951 16.0992 41.6055L18.5375 43.0112C17.1959 46.9271 16.4693 51.1306 16.4693 55.5001C16.4693 66.1437 20.7823 75.7754 27.754 82.7501C32.3225 87.3177 38.0331 90.7428 44.4164 92.5653L44.4139 92.5589V79.7461L37.2098 77.817V57.4364C35.7202 56.8848 34.6564 55.4551 34.6564 53.773C34.6564 51.6137 36.4075 49.8622 38.5667 49.8622C40.7265 49.8622 42.4771 51.6133 42.4771 53.773C42.4771 55.4372 41.4351 56.8553 39.9699 57.4193V75.7026L47.1774 77.6338V93.2406H47.1765Z" fill="url(#paint3_linear_9047_110032)"/>
<path d="M56.3807 61.7644V94.013V95.4187V96.776C55.9211 96.7919 55.4623 96.797 55.0011 96.797C54.5368 96.797 54.0785 96.7884 53.6193 96.776V95.4187V94.013V61.7875C52.0527 61.2316 50.9281 59.7416 50.9281 57.9837C50.9281 55.753 52.7361 53.945 54.9672 53.945C57.1976 53.945 59.006 55.753 59.006 57.9837C59.0055 59.7172 57.9135 61.191 56.3807 61.7644Z" fill="url(#paint4_linear_9047_110032)"/>
<path d="M84.2002 84.6997C78.4794 90.4188 71.0892 94.4683 62.8251 96.0537V94.3454V93.2406V93.238V77.6338L70.0301 75.7026V57.4792C68.4788 56.9601 67.3603 55.4984 67.3603 53.773C67.3603 51.6137 69.1113 49.8622 71.271 49.8622C73.4307 49.8622 75.1814 51.6133 75.1814 53.773C75.1814 55.3922 74.1963 56.7817 72.794 57.3756V77.817L65.5861 79.7461V92.5584C71.9728 90.7398 77.6809 87.3117 82.2485 82.7466C89.2232 75.7724 93.5358 66.1378 93.5358 55.4996C93.5358 51.0685 92.7843 46.8141 91.412 42.8524L93.8451 41.4467C95.4332 45.8325 96.2967 50.564 96.2967 55.4996C96.2958 66.9003 91.6739 77.2269 84.2002 84.6997Z" fill="url(#paint5_linear_9047_110032)"/>
<defs>
<filter id="filter0_f_9047_110032" x="4" y="5.5" width="102" height="102" filterUnits="userSpaceOnUse" color-interpolation-filters="sRGB">
<feFlood flood-opacity="0" result="BackgroundImageFix"/>
<feBlend mode="normal" in="SourceGraphic" in2="BackgroundImageFix" result="shape"/>
<feGaussianBlur stdDeviation="3" result="effect1_foregroundBlur_9047_110032"/>
</filter>
<linearGradient id="paint0_linear_9047_110032" x1="8.5" y1="-15" x2="75" y2="117" gradientUnits="userSpaceOnUse">
<stop stop-color="#D64902"/>
<stop offset="1" stop-color="#FF5500"/>
</linearGradient>
<linearGradient id="paint1_linear_9047_110032" x1="55.0003" y1="10.3691" x2="55.0003" y2="100.633" gradientUnits="userSpaceOnUse">
<stop stop-color="white"/>
<stop offset="1" stop-color="#F5F6F7"/>
</linearGradient>
<linearGradient id="paint2_linear_9047_110032" x1="16.7264" y1="-2.52911" x2="71.4636" y2="106.12" gradientUnits="userSpaceOnUse">
<stop stop-color="#D64902"/>
<stop offset="1" stop-color="#FF5500"/>
</linearGradient>
<linearGradient id="paint3_linear_9047_110032" x1="16.7264" y1="-2.52911" x2="71.4636" y2="106.12" gradientUnits="userSpaceOnUse">
<stop stop-color="#D64902"/>
<stop offset="1" stop-color="#FF5500"/>
</linearGradient>
<linearGradient id="paint4_linear_9047_110032" x1="16.7264" y1="-2.52911" x2="71.4636" y2="106.12" gradientUnits="userSpaceOnUse">
<stop stop-color="#D64902"/>
<stop offset="1" stop-color="#FF5500"/>
</linearGradient>
<linearGradient id="paint5_linear_9047_110032" x1="16.7264" y1="-2.52911" x2="71.4636" y2="106.12" gradientUnits="userSpaceOnUse">
<stop stop-color="#D64902"/>
<stop offset="1" stop-color="#FF5500"/>
</linearGradient>
</defs>
</svg>
