<svg width="83" height="83" viewBox="0 0 83 83" fill="none" xmlns="http://www.w3.org/2000/svg">
<path d="M37.6447 2.85942C39.1385 1.99699 39.8156 1.61104 40.527 1.45983C41.1685 1.32348 41.8315 1.32348 42.473 1.45983C43.1844 1.61104 43.8615 1.99699 45.3553 2.85942L72.9972 18.8185C74.491 19.6809 75.1637 20.0743 75.6504 20.6148C76.0892 21.1022 76.4207 21.6764 76.6234 22.3001C76.8481 22.9918 76.8525 23.7712 76.8525 25.496V57.4141C76.8525 59.139 76.8481 59.9184 76.6234 60.61C76.4207 61.2338 76.0892 61.808 75.6504 62.2954C75.1637 62.8358 74.4909 63.2292 72.9972 64.0917L45.3553 80.0507C43.8615 80.9132 43.1844 81.2991 42.473 81.4503C41.8315 81.5867 41.1685 81.5867 40.527 81.4503C39.8156 81.2991 39.1385 80.9132 37.6447 80.0507L10.0028 64.0917C8.50905 63.2292 7.83625 62.8358 7.34961 62.2954C6.91076 61.808 6.57926 61.2338 6.3766 60.61C6.15185 59.9184 6.14754 59.139 6.14754 57.4141V25.496C6.14754 23.7712 6.15185 22.9918 6.3766 22.3001C6.57926 21.6764 6.91076 21.1022 7.34961 20.6148C7.83625 20.0743 8.50905 19.6809 10.0028 18.8185L37.6447 2.85942Z" fill="#FEFEFE" stroke="#EBECEC" stroke-width="0.742184"/>
<g filter="url(#filter0_i_8269_81712)">
<path d="M40.1532 5.05475C40.6439 4.77145 40.8892 4.6298 41.1501 4.57436C41.3809 4.5253 41.6194 4.5253 41.8502 4.57436C42.111 4.6298 42.3564 4.77145 42.8471 5.05476L72.3485 22.0874C72.8392 22.3707 73.0845 22.5124 73.263 22.7105C73.4209 22.8859 73.5401 23.0924 73.613 23.3168C73.6954 23.5705 73.6954 23.8538 73.6954 24.4204V58.4857C73.6954 59.0523 73.6954 59.3356 73.613 59.5892C73.5401 59.8136 73.4209 60.0202 73.263 60.1955C73.0845 60.3937 72.8392 60.5353 72.3485 60.8186L42.8471 77.8513C42.3564 78.1346 42.111 78.2763 41.8502 78.3317C41.6194 78.3808 41.3809 78.3808 41.1501 78.3317C40.8892 78.2763 40.6439 78.1346 40.1532 77.8513L10.6518 60.8186C10.1611 60.5353 9.91574 60.3937 9.73731 60.1955C9.57943 60.0202 9.46016 59.8136 9.38725 59.5892C9.30485 59.3356 9.30485 59.0523 9.30485 58.4857V24.4204C9.30485 23.8538 9.30485 23.5705 9.38725 23.3168C9.46016 23.0924 9.57943 22.8859 9.73731 22.7105C9.91574 22.5124 10.1611 22.3707 10.6518 22.0874L40.1532 5.05475Z" fill="url(#paint0_linear_8269_81712)"/>
</g>
<g filter="url(#filter1_d_8269_81712)">
<path d="M39.4529 9.06119C40.1984 8.63075 40.5712 8.41553 40.9675 8.33129C41.3182 8.25675 41.6806 8.25675 42.0313 8.33129C42.4276 8.41553 42.8004 8.63075 43.5459 9.06119L68.5302 23.4859C69.2758 23.9163 69.6485 24.1315 69.9196 24.4326C70.1595 24.6991 70.3407 25.0129 70.4515 25.3539C70.5767 25.7392 70.5767 26.1696 70.5767 27.0305V55.8799C70.5767 56.7408 70.5767 57.1712 70.4515 57.5566C70.3407 57.8975 70.1595 58.2114 69.9196 58.4778C69.6485 58.7789 69.2758 58.9941 68.5302 59.4246L43.5459 73.8492C42.8004 74.2797 42.4276 74.4949 42.0313 74.5792C41.6806 74.6537 41.3182 74.6537 40.9675 74.5792C40.5712 74.4949 40.1984 74.2797 39.4529 73.8492L14.4686 59.4246C13.7231 58.9941 13.3503 58.7789 13.0792 58.4778C12.8393 58.2114 12.6581 57.8975 12.5473 57.5566C12.4221 57.1712 12.4221 56.7408 12.4221 55.8799V27.0305C12.4221 26.1696 12.4221 25.7392 12.5473 25.3539C12.6581 25.0129 12.8393 24.6991 13.0792 24.4326C13.3503 24.1315 13.7231 23.9163 14.4686 23.4859L39.4529 9.06119Z" fill="url(#paint1_linear_8269_81712)"/>
</g>
<g filter="url(#filter2_i_8269_81712)">
<path fill-rule="evenodd" clip-rule="evenodd" d="M35.376 19.7274L41.3286 16.2907L50.4879 21.5788V28.5495L55.1429 31.2652V19.4724C55.1429 19.1128 54.9511 18.7805 54.6397 18.6007L41.8319 11.2061C41.5205 11.0263 41.1368 11.0263 40.8254 11.2061L30.7453 17.0259L35.376 19.7274ZM28.7941 18.737L38.9442 24.5972L34.3134 27.2988L28.2908 23.8216L19.1315 29.1097V36.1557L14.4766 38.8714V27.0033C14.4766 26.6437 14.6684 26.3114 14.9798 26.1316L27.7876 18.737C28.099 18.5573 28.4827 18.5573 28.7941 18.737ZM25.3309 35.0698L14.9798 41.046C14.6684 41.2258 14.4766 41.5581 14.4766 41.9177V56.7068C14.4766 57.0664 14.6684 57.3987 14.9798 57.5785L25.3309 63.5546V58.1795L19.1315 54.6004V44.0241L25.3309 40.4449V35.0698ZM27.5144 64.2574V52.479L32.1693 55.1947V62.1509L41.3286 67.4391L47.2746 64.0062L51.9053 66.7077L41.8319 72.5236C41.5205 72.7034 41.1368 72.7034 40.8254 72.5236L28.0176 65.129C27.7062 64.9492 27.5144 64.617 27.5144 64.2574ZM43.6903 59.1605L53.8192 65.0084C54.1306 65.1882 54.5143 65.1882 54.8257 65.0084L67.6335 57.6138C67.9449 57.4341 68.1367 57.1018 68.1367 56.7422V44.8994L63.4818 47.6151V54.6358L54.3225 59.9239L48.3211 56.459L43.6903 59.1605ZM67.6517 42.6326L57.3266 48.5938V43.2187L63.4999 39.6545V29.0783L57.3265 25.5141V20.139L67.6517 26.1002C67.9631 26.28 68.1549 26.6122 68.1549 26.9718V41.761C68.1549 42.1206 67.9631 42.4528 67.6517 42.6326ZM41.837 56.8595C41.5236 57.0423 41.1361 57.0423 40.8227 56.8595L28.7359 49.8081C28.4267 49.6277 28.2366 49.2967 28.2366 48.9388V34.8178C28.2366 34.4598 28.4267 34.1288 28.7359 33.9484L40.8227 26.8971C41.1361 26.7142 41.5236 26.7142 41.837 26.8971L53.9239 33.9484C54.2331 34.1288 54.4232 34.4598 54.4232 34.8178V48.9388C54.4232 49.2967 54.2331 49.6277 53.9239 49.8081L41.837 56.8595ZM51.4037 47.7826L42.8396 52.7789V42.7454L51.4037 37.7491V47.7826ZM49.9291 35.1137L41.3299 40.1304L32.7306 35.1137L41.3299 30.0969L49.9291 35.1137ZM31.256 47.7826V37.7491L39.8202 42.7454V52.7789L31.256 47.7826Z" fill="#FF5500"/>
</g>
<defs>
<filter id="filter0_i_8269_81712" x="9.30469" y="4.5376" width="64.3906" height="73.8308" filterUnits="userSpaceOnUse" color-interpolation-filters="sRGB">
<feFlood flood-opacity="0" result="BackgroundImageFix"/>
<feBlend mode="normal" in="SourceGraphic" in2="BackgroundImageFix" result="shape"/>
<feColorMatrix in="SourceAlpha" type="matrix" values="0 0 0 0 0 0 0 0 0 0 0 0 0 0 0 0 0 0 127 0" result="hardAlpha"/>
<feOffset/>
<feGaussianBlur stdDeviation="1.48437"/>
<feComposite in2="hardAlpha" operator="arithmetic" k2="-1" k3="1"/>
<feColorMatrix type="matrix" values="0 0 0 0 0 0 0 0 0 0 0 0 0 0 0 0 0 0 0.2 0"/>
<feBlend mode="normal" in2="shape" result="effect1_innerShadow_8269_81712"/>
</filter>
<filter id="filter1_d_8269_81712" x="9.86374" y="6.35679" width="63.2716" height="71.4759" filterUnits="userSpaceOnUse" color-interpolation-filters="sRGB">
<feFlood flood-opacity="0" result="BackgroundImageFix"/>
<feColorMatrix in="SourceAlpha" type="matrix" values="0 0 0 0 0 0 0 0 0 0 0 0 0 0 0 0 0 0 127 0" result="hardAlpha"/>
<feOffset dy="0.639535"/>
<feGaussianBlur stdDeviation="1.27907"/>
<feComposite in2="hardAlpha" operator="out"/>
<feColorMatrix type="matrix" values="0 0 0 0 0 0 0 0 0 0 0 0 0 0 0 0 0 0 0.15 0"/>
<feBlend mode="normal" in2="BackgroundImageFix" result="effect1_dropShadow_8269_81712"/>
<feBlend mode="normal" in="SourceGraphic" in2="effect1_dropShadow_8269_81712" result="shape"/>
</filter>
<filter id="filter2_i_8269_81712" x="14.4766" y="11.0713" width="53.6787" height="63.5058" filterUnits="userSpaceOnUse" color-interpolation-filters="sRGB">
<feFlood flood-opacity="0" result="BackgroundImageFix"/>
<feBlend mode="normal" in="SourceGraphic" in2="BackgroundImageFix" result="shape"/>
<feColorMatrix in="SourceAlpha" type="matrix" values="0 0 0 0 0 0 0 0 0 0 0 0 0 0 0 0 0 0 127 0" result="hardAlpha"/>
<feOffset dy="1.9186"/>
<feGaussianBlur stdDeviation="1.9186"/>
<feComposite in2="hardAlpha" operator="arithmetic" k2="-1" k3="1"/>
<feColorMatrix type="matrix" values="0 0 0 0 0.70599 0 0 0 0 0.23533 0 0 0 0 0 0 0 0 0.5 0"/>
<feBlend mode="normal" in2="shape" result="effect1_innerShadow_8269_81712"/>
</filter>
<linearGradient id="paint0_linear_8269_81712" x1="4.32422" y1="41.453" x2="78.6761" y2="41.453" gradientUnits="userSpaceOnUse">
<stop stop-color="#E5E8EF" stop-opacity="0"/>
<stop offset="1" stop-color="#F5F5F5"/>
</linearGradient>
<linearGradient id="paint1_linear_8269_81712" x1="41.4994" y1="7.87964" x2="41.4994" y2="75.0308" gradientUnits="userSpaceOnUse">
<stop stop-color="white"/>
<stop offset="1" stop-color="#F5F6F7"/>
</linearGradient>
</defs>
</svg>
