<svg width="110" height="110" viewBox="0 0 110 110" fill="none" xmlns="http://www.w3.org/2000/svg">
<path d="M49.8596 3.53912C51.8513 2.38922 52.7541 1.87462 53.7026 1.67301C54.558 1.4912 55.442 1.4912 56.2974 1.67301C57.2459 1.87462 58.1487 2.38922 60.1404 3.53912L96.9962 24.8179C98.9879 25.9678 99.885 26.4923 100.534 27.213C101.119 27.8628 101.561 28.6284 101.831 29.46C102.131 30.3823 102.137 31.4214 102.137 33.7212V76.2788C102.137 78.5786 102.131 79.6177 101.831 80.54C101.561 81.3716 101.119 82.1372 100.534 82.787C99.885 83.5077 98.9879 84.0322 96.9962 85.1821L60.1404 106.461C58.1487 107.611 57.2459 108.125 56.2974 108.327C55.442 108.509 54.558 108.509 53.7027 108.327C52.7541 108.125 51.8513 107.611 49.8596 106.461L13.0038 85.1821C11.0121 84.0322 10.115 83.5077 9.46614 82.787C8.88102 82.1372 8.43902 81.3716 8.1688 80.54C7.86914 79.6177 7.86339 78.5786 7.86339 76.2788V33.7212C7.86339 31.4214 7.86914 30.3823 8.16879 29.46C8.43902 28.6284 8.88102 27.8628 9.46614 27.213C10.115 26.4923 11.0121 25.9678 13.0038 24.8179L49.8596 3.53912Z" fill="#FEFEFE" stroke="#EBECEC" stroke-width="0.989579"/>
<g filter="url(#filter0_i_8233_47437)">
<path d="M53.2046 6.46632C53.8589 6.08858 54.186 5.89971 54.5338 5.82579C54.8415 5.76038 55.1595 5.76038 55.4673 5.82579C55.815 5.89971 56.1422 6.08858 56.7964 6.46632L96.1317 29.1765C96.7859 29.5543 97.1131 29.7431 97.351 30.0074C97.5615 30.2411 97.7205 30.5166 97.8177 30.8158C97.9276 31.1539 97.9276 31.5317 97.9276 32.2871V77.7075C97.9276 78.463 97.9276 78.8408 97.8177 79.1789C97.7205 79.4781 97.5615 79.7535 97.351 79.9873C97.1131 80.2516 96.7859 80.4404 96.1317 80.8182L56.7964 103.528C56.1422 103.906 55.815 104.095 55.4673 104.169C55.1595 104.234 54.8415 104.234 54.5338 104.169C54.186 104.095 53.8589 103.906 53.2046 103.528L13.8694 80.8182C13.2151 80.4404 12.888 80.2516 12.6501 79.9873C12.4396 79.7535 12.2805 79.4781 12.1833 79.1789C12.0735 78.8408 12.0735 78.463 12.0735 77.7076V32.2871C12.0735 31.5317 12.0735 31.1539 12.1833 30.8158C12.2805 30.5166 12.4396 30.2411 12.6501 30.0074C12.888 29.7431 13.2151 29.5543 13.8694 29.1765L53.2046 6.46632Z" fill="url(#paint0_linear_8233_47437)"/>
</g>
<g filter="url(#filter1_d_8233_47437)">
<path d="M52.2712 11.8079C53.2653 11.234 53.7623 10.9471 54.2907 10.8347C54.7583 10.7354 55.2415 10.7354 55.709 10.8347C56.2374 10.9471 56.7345 11.234 57.7285 11.8079L91.0409 31.0409C92.035 31.6148 92.532 31.9017 92.8935 32.3032C93.2134 32.6584 93.455 33.0769 93.6027 33.5315C93.7696 34.0453 93.7696 34.6192 93.7696 35.7671V74.2329C93.7696 75.3807 93.7696 75.9547 93.6027 76.4685C93.455 76.9231 93.2134 77.3415 92.8935 77.6968C92.532 78.0982 92.035 78.3852 91.0409 78.9591L57.7285 98.192C56.7345 98.7659 56.2374 99.0529 55.709 99.1652C55.2415 99.2646 54.7583 99.2646 54.2907 99.1652C53.7623 99.0529 53.2653 98.7659 52.2712 98.192L18.9588 78.9591C17.9647 78.3852 17.4677 78.0982 17.1062 77.6968C16.7864 77.3415 16.5448 76.9231 16.3971 76.4685C16.2301 75.9547 16.2301 75.3807 16.2301 74.2329V35.7671C16.2301 34.6192 16.2301 34.0453 16.3971 33.5315C16.5448 33.0769 16.7864 32.6584 17.1062 32.3032C17.4677 31.9017 17.9647 31.6148 18.9588 31.0409L52.2712 11.8079Z" fill="url(#paint1_linear_8233_47437)"/>
</g>
<g filter="url(#filter2_i_8233_47437)">
<path fill-rule="evenodd" clip-rule="evenodd" d="M46.8362 26.0299L54.773 21.4476L66.9854 28.4984V37.7927L73.192 41.4136V25.6898C73.192 25.2104 72.9362 24.7674 72.521 24.5276L55.444 14.6682C55.0288 14.4285 54.5172 14.4285 54.102 14.6682L40.6618 22.4279L46.8362 26.0299ZM38.0602 24.7094L51.5937 32.523L45.4194 36.125L37.3892 31.4888L25.1768 38.5396V47.9343L18.9702 51.5553V35.731C18.9702 35.2516 19.226 34.8086 19.6412 34.5689L36.7183 24.7094C37.1335 24.4697 37.645 24.4697 38.0602 24.7094ZM33.4426 46.4865L19.6412 54.4547C19.226 54.6944 18.9702 55.1375 18.9702 55.6169V75.3358C18.9702 75.8152 19.226 76.2583 19.6412 76.498L33.4426 84.4662V77.2994L25.1768 72.5272V58.4255L33.4426 53.6533V46.4865ZM36.354 85.4032V69.6987L42.5606 73.3197V82.5946L54.773 89.6454L62.7009 85.0683L68.8752 88.6703L55.444 96.4248C55.0288 96.6646 54.5172 96.6646 54.102 96.4248L37.0249 86.5654C36.6097 86.3257 36.354 85.8827 36.354 85.4032ZM57.9219 78.6074L71.4271 86.4046C71.8423 86.6443 72.3539 86.6443 72.7691 86.4046L89.8461 76.5452C90.2613 76.3054 90.5171 75.8624 90.5171 75.383V59.5926L84.3105 63.2135V72.5744L72.0981 79.6252L64.0962 75.0053L57.9219 78.6074ZM89.8704 56.5702L76.1036 64.5184V57.3516L84.3347 52.5994V38.4977L76.1035 33.7454V26.5786L89.8704 34.5269C90.2856 34.7666 90.5414 35.2097 90.5414 35.6891V55.408C90.5414 55.8874 90.2856 56.3304 89.8704 56.5702ZM55.4508 75.5392C55.033 75.783 54.5162 75.783 54.0984 75.5392L37.9826 66.1374C37.5704 65.8969 37.3169 65.4555 37.3169 64.9783V46.1503C37.3169 45.673 37.5704 45.2317 37.9826 44.9912L54.0984 35.5894C54.5162 35.3456 55.033 35.3456 55.4508 35.5894L71.5666 44.9912C71.9788 45.2317 72.2323 45.673 72.2323 46.1503V64.9783C72.2323 65.4555 71.9788 65.8969 71.5666 66.1374L55.4508 75.5392ZM68.2064 63.4368L56.7876 70.0984V56.7204L68.2064 50.0587V63.4368ZM66.2403 46.5448L54.7746 53.2338L43.3089 46.5448L54.7746 39.8558L66.2403 46.5448ZM41.3428 63.4368V50.0587L52.7616 56.7204V70.0984L41.3428 63.4368Z" fill="#FF5500"/>
</g>
<defs>
<filter id="filter0_i_8233_47437" x="12.0732" y="5.77673" width="85.8545" height="98.4413" filterUnits="userSpaceOnUse" color-interpolation-filters="sRGB">
<feFlood flood-opacity="0" result="BackgroundImageFix"/>
<feBlend mode="normal" in="SourceGraphic" in2="BackgroundImageFix" result="shape"/>
<feColorMatrix in="SourceAlpha" type="matrix" values="0 0 0 0 0 0 0 0 0 0 0 0 0 0 0 0 0 0 127 0" result="hardAlpha"/>
<feOffset/>
<feGaussianBlur stdDeviation="1.97916"/>
<feComposite in2="hardAlpha" operator="arithmetic" k2="-1" k3="1"/>
<feColorMatrix type="matrix" values="0 0 0 0 0 0 0 0 0 0 0 0 0 0 0 0 0 0 0.2 0"/>
<feBlend mode="normal" in2="shape" result="effect1_innerShadow_8233_47437"/>
</filter>
<filter id="filter1_d_8233_47437" x="12.8191" y="8.20211" width="84.3613" height="95.3012" filterUnits="userSpaceOnUse" color-interpolation-filters="sRGB">
<feFlood flood-opacity="0" result="BackgroundImageFix"/>
<feColorMatrix in="SourceAlpha" type="matrix" values="0 0 0 0 0 0 0 0 0 0 0 0 0 0 0 0 0 0 127 0" result="hardAlpha"/>
<feOffset dy="0.852713"/>
<feGaussianBlur stdDeviation="1.70543"/>
<feComposite in2="hardAlpha" operator="out"/>
<feColorMatrix type="matrix" values="0 0 0 0 0 0 0 0 0 0 0 0 0 0 0 0 0 0 0.15 0"/>
<feBlend mode="normal" in2="BackgroundImageFix" result="effect1_dropShadow_8233_47437"/>
<feBlend mode="normal" in="SourceGraphic" in2="effect1_dropShadow_8233_47437" result="shape"/>
</filter>
<filter id="filter2_i_8233_47437" x="18.9702" y="14.4884" width="71.5713" height="84.6744" filterUnits="userSpaceOnUse" color-interpolation-filters="sRGB">
<feFlood flood-opacity="0" result="BackgroundImageFix"/>
<feBlend mode="normal" in="SourceGraphic" in2="BackgroundImageFix" result="shape"/>
<feColorMatrix in="SourceAlpha" type="matrix" values="0 0 0 0 0 0 0 0 0 0 0 0 0 0 0 0 0 0 127 0" result="hardAlpha"/>
<feOffset dy="2.55814"/>
<feGaussianBlur stdDeviation="2.55814"/>
<feComposite in2="hardAlpha" operator="arithmetic" k2="-1" k3="1"/>
<feColorMatrix type="matrix" values="0 0 0 0 0.70599 0 0 0 0 0.23533 0 0 0 0 0 0 0 0 0.5 0"/>
<feBlend mode="normal" in2="shape" result="effect1_innerShadow_8233_47437"/>
</filter>
<linearGradient id="paint0_linear_8233_47437" x1="5.43262" y1="54.9973" x2="104.568" y2="54.9973" gradientUnits="userSpaceOnUse">
<stop stop-color="#E5E8EF" stop-opacity="0"/>
<stop offset="1" stop-color="#F5F5F5"/>
</linearGradient>
<linearGradient id="paint1_linear_8233_47437" x1="54.9999" y1="10.2325" x2="54.9999" y2="99.7674" gradientUnits="userSpaceOnUse">
<stop stop-color="white"/>
<stop offset="1" stop-color="#F5F6F7"/>
</linearGradient>
</defs>
</svg>
