<svg width="224" height="131" viewBox="0 0 224 131" fill="none" xmlns="http://www.w3.org/2000/svg">
<path fill-rule="evenodd" clip-rule="evenodd" d="M38.2263 105.326C32.3334 101.839 25.4785 100.757 18.8642 101.959C5.75593 103.643 -3.74433 89.3321 2.99007 77.9071C9.48415 66.3623 26.6812 67.565 31.7322 79.7113C43.6379 110.498 87.653 110.498 99.6789 79.7113C104.61 67.565 121.927 66.3623 128.421 77.9071C135.035 89.3321 125.535 103.643 112.547 101.959C105.932 100.757 99.0776 101.959 93.1848 105.326C87.172 108.694 82.8427 113.985 80.5574 120.359C75.266 133.467 56.145 133.467 50.8533 120.359C48.5684 114.105 44.1189 108.694 38.2263 105.326ZM65.6453 88.7305C52.537 88.7305 44.8402 73.4575 52.8978 62.8747C57.2272 57.8237 59.6322 51.3299 59.6322 44.475C59.6322 37.7406 57.2272 31.2465 52.8978 26.0753C44.72 15.4925 52.537 0.0989868 65.6453 0.219512C78.7536 0.219513 86.4504 15.4925 78.3928 26.0753C74.0634 31.126 71.6584 37.6201 71.6584 44.475C71.6584 51.2094 74.0634 57.7035 78.3928 62.8747C86.5705 73.4575 78.7536 88.8507 65.6453 88.7305Z" fill="url(#paint0_linear_1_5)"/>
<path fill-rule="evenodd" clip-rule="evenodd" d="M186.375 25.0823C192.268 28.5698 199.123 29.6521 205.737 28.4495C218.846 26.7659 228.346 41.0766 221.611 52.5016C215.117 64.0464 197.92 62.8437 192.869 50.6974C180.964 19.9111 136.949 19.9111 124.923 50.6974C119.992 62.8437 102.675 64.0464 96.1806 52.5016C89.5663 41.0766 99.0668 26.7659 112.055 28.4495C118.669 29.6521 125.524 28.4495 131.417 25.0823C137.43 21.7149 141.759 16.4235 144.044 10.0497C149.336 -3.05857 168.457 -3.05857 173.748 10.0497C176.033 16.3033 180.483 21.7149 186.375 25.0823ZM158.956 41.6782C172.065 41.6782 179.761 56.9512 171.704 67.5339C167.374 72.585 164.969 79.0787 164.969 85.9337C164.969 92.6681 167.374 99.1621 171.704 104.333C179.882 114.916 172.065 130.31 158.956 130.189C145.848 130.189 138.151 114.916 146.209 104.333C150.538 99.2827 152.943 92.7886 152.943 85.9337C152.943 79.1993 150.538 72.7052 146.209 67.5339C138.031 56.9512 145.848 41.558 158.956 41.6782Z" fill="url(#paint1_linear_1_5)"/>
<defs>
<linearGradient id="paint0_linear_1_5" x1="65.674" y1="130.19" x2="65.674" y2="0.218805" gradientUnits="userSpaceOnUse">
<stop stop-color="#EBECEC"/>
<stop offset="1" stop-color="#EBECEC"/>
</linearGradient>
<linearGradient id="paint1_linear_1_5" x1="228.776" y1="69.1205" x2="81.1885" y2="40.7145" gradientUnits="userSpaceOnUse">
<stop stop-color="#F5F5F5"/>
<stop offset="1" stop-color="#EBECEC"/>
</linearGradient>
</defs>
</svg>
