<svg width="398" height="232" viewBox="0 0 398 232" fill="none" xmlns="http://www.w3.org/2000/svg">
<path fill-rule="evenodd" clip-rule="evenodd" d="M164.732 44.5933C175.209 50.7933 187.395 52.7175 199.154 50.5795C222.458 47.5864 239.347 73.0278 227.375 93.3389C215.83 113.863 185.257 111.725 176.277 90.1314C155.112 35.4001 76.8626 35.4001 55.4833 90.1314C46.7177 111.725 15.9312 113.863 4.38628 93.3389C-7.37245 73.0278 9.51735 47.5864 32.6072 50.5795C44.366 52.7175 56.5523 50.5796 67.0285 44.5933C77.7178 38.607 85.4144 29.2 89.477 17.8689C98.884 -5.43481 132.877 -5.43481 142.284 17.8689C146.346 28.9862 154.257 38.607 164.732 44.5933ZM115.988 74.0972C139.291 74.0972 152.974 101.249 138.65 120.063C130.953 129.043 126.677 140.587 126.677 152.774C126.677 164.746 130.953 176.291 138.65 185.484C153.188 204.298 139.291 231.664 115.988 231.45C92.6839 231.45 79.0007 204.298 93.3254 185.484C101.022 176.505 105.298 164.96 105.298 152.774C105.298 140.801 101.022 129.256 93.3254 120.063C78.7871 101.249 92.6839 73.8835 115.988 74.0972Z" fill="url(#paint0_linear_9033_27729)"/>
<path fill-rule="evenodd" clip-rule="evenodd" d="M232.925 187.249C222.449 181.049 210.262 179.125 198.503 181.263C175.2 184.256 158.31 158.815 170.283 138.503C181.828 117.979 212.4 120.117 221.38 141.711C242.545 196.442 320.795 196.442 342.174 141.711C350.94 120.117 381.726 117.979 393.271 138.503C405.03 158.815 388.14 184.256 365.05 181.263C353.291 179.125 341.105 181.263 330.629 187.249C319.939 193.235 312.243 202.642 308.18 213.973C298.773 237.277 264.78 237.277 255.373 213.973C251.311 202.856 243.401 193.235 232.925 187.249ZM281.67 157.745C258.366 157.745 244.683 130.593 259.007 111.779C266.704 102.8 270.98 91.2552 270.98 79.0687C270.98 67.0964 266.704 55.5514 259.007 46.3581C244.469 27.5443 258.366 0.177989 281.67 0.392251C304.973 0.392249 318.656 27.5443 304.332 46.3581C296.635 55.3371 292.36 66.8822 292.36 79.0687C292.36 91.041 296.635 102.586 304.332 111.779C318.87 130.593 304.973 157.959 281.67 157.745Z" fill="url(#paint1_linear_9033_27729)"/>
<defs>
<linearGradient id="paint0_linear_9033_27729" x1="240.111" y1="122.883" x2="-22.2663" y2="72.384" gradientUnits="userSpaceOnUse">
<stop stop-color="#EBECEC"/>
<stop offset="1" stop-color="#EBECEC" stop-opacity="0"/>
</linearGradient>
<linearGradient id="paint1_linear_9033_27729" x1="281.721" y1="231.451" x2="281.721" y2="0.390985" gradientUnits="userSpaceOnUse">
<stop stop-color="#EBECEC"/>
<stop offset="1" stop-color="#EBECEC"/>
</linearGradient>
</defs>
</svg>
