<svg width="152" height="35" viewBox="0 0 152 35" fill="none" xmlns="http://www.w3.org/2000/svg">
<path fillRule="evenodd" clipRule="evenodd" d="M42.0647 11.5923H46.8171V16.5052H52.6934V20.5512H46.8171V27.3909C46.8171 28.5147 46.9776 29.1569 47.3951 29.6386C47.7804 30.1202 48.6153 30.5377 49.8035 30.5377C50.4777 30.5377 51.12 30.4734 51.7621 30.345L52.5008 34.391C51.5374 34.6158 50.542 34.7442 49.5465 34.7442C46.6887 34.7442 44.6015 33.7808 43.3813 32.1754C42.4822 30.9551 42.0647 29.3817 42.0647 26.8449V11.5923ZM78.7031 11.5923H73.9508V26.8449C73.9508 29.3817 74.3682 30.9551 75.2673 32.1754C76.4875 33.7808 78.5747 34.7442 81.4326 34.7442C82.428 34.7442 83.4235 34.6158 84.4188 34.391L83.6803 30.345C83.0381 30.4734 82.3959 30.5377 81.7537 30.5377C80.5655 30.5377 79.7307 30.1202 79.3454 29.6386C78.9279 29.1569 78.7674 28.5147 78.7674 27.3909V20.5512H84.6436V16.5052H78.7674V11.5923H78.7031ZM62.9367 16.152C57.6706 16.152 54.2989 20.487 54.2989 25.4321C54.2989 31.0194 58.3127 34.68 63.611 34.68C64.9918 34.712 66.3405 34.4231 67.5928 33.8772C68.845 33.3313 69.969 32.5286 70.9002 31.501L68.2029 28.8037C67.6249 29.4138 66.9505 29.9275 66.1798 30.2808C65.4092 30.634 64.5744 30.8267 63.7395 30.8588C62.5513 30.8908 61.3953 30.4734 60.4963 29.7028C59.5972 28.9321 59.0513 27.8082 58.9228 26.6202H71.2534C71.3176 26.1706 71.3497 25.721 71.3497 25.2715C71.3497 20.2943 67.8497 16.152 62.9367 16.152ZM59.1155 23.1522C59.276 22.2852 59.7577 21.4824 60.4641 20.9044C61.1705 20.3264 62.0376 20.0374 62.9367 20.0374C63.8037 20.0374 64.6385 20.3585 65.2808 20.9365C65.923 21.5145 66.3405 22.3173 66.4368 23.1522H59.1155ZM92.3502 18.3356V16.5374H87.7583V34.3267H92.5107V23.1201C92.9603 22.3816 93.6025 21.7393 94.3411 21.2897C95.1117 20.8402 95.9465 20.5833 96.8136 20.5512C97.3916 20.5512 97.9691 20.5833 98.5476 20.7439L99.093 16.3126C98.5797 16.2163 98.0342 16.1841 97.5199 16.1841C95.3685 16.152 93.4099 17.0191 92.3502 18.3356ZM108.277 16.152C110.172 16.1199 112.002 16.7621 113.479 17.9503V16.5052H118.071V34.2947H113.479V32.8496C112.099 34.0377 110.364 34.68 108.534 34.6479C107.249 34.6479 105.997 34.391 104.841 33.8772C103.685 33.3634 102.658 32.5927 101.823 31.6615C100.346 29.9275 99.5432 27.7119 99.5432 25.4321C99.5432 20.198 103.428 16.152 108.277 16.152ZM111.424 29.7349C112.163 29.3495 112.805 28.7715 113.287 28.0973H113.351V22.7989C112.837 22.0925 112.195 21.5466 111.424 21.1613C110.653 20.776 109.819 20.5833 108.952 20.5833C106.158 20.5833 104.36 22.8953 104.36 25.4642C104.328 26.1063 104.424 26.7486 104.648 27.3266C104.873 27.9046 105.195 28.4505 105.644 28.9C106.061 29.3495 106.607 29.7028 107.185 29.9597C107.763 30.1844 108.373 30.3129 109.016 30.3129C109.851 30.3129 110.685 30.1202 111.424 29.7349ZM125.907 11.5923H121.153V26.8449C121.153 29.3817 121.571 30.9551 122.471 32.1754C123.691 33.7808 125.777 34.7442 128.636 34.7442C129.631 34.7442 130.627 34.6158 131.589 34.391L130.851 30.345C130.209 30.4734 129.567 30.5377 128.892 30.5377C127.704 30.5377 126.869 30.1202 126.484 29.6386C126.067 29.1569 125.907 28.5147 125.907 27.3909V20.5512H131.783V16.5052H125.907V11.5923ZM141.03 16.152C145.943 16.152 149.444 20.2944 149.444 25.2394C149.444 25.6606 149.387 26.082 149.327 26.5297L149.314 26.6202H137.016C137.145 27.8082 137.69 28.9321 138.589 29.7028C139.489 30.4734 140.645 30.8908 141.833 30.8588C142.668 30.8267 143.502 30.634 144.273 30.2808C145.044 29.9275 145.718 29.4138 146.296 28.8037L148.993 31.501C148.062 32.5286 146.938 33.3313 145.686 33.8772C144.434 34.4231 143.085 34.712 141.704 34.68C136.406 34.68 132.392 31.0194 132.392 25.4321C132.392 20.487 135.764 16.152 141.03 16.152ZM138.557 20.9044C137.851 21.4824 137.369 22.2852 137.209 23.1522H144.53C144.434 22.3173 144.016 21.5145 143.374 20.9365C142.732 20.3585 141.897 20.0374 141.03 20.0374C140.131 20.0374 139.264 20.3264 138.557 20.9044Z" fill="#0A0D0F"/>
<path fillRule="evenodd" clipRule="evenodd" d="M24.7248 6.64868C26.2983 7.57989 28.1286 7.86889 29.8947 7.54777C33.3948 7.09823 35.9314 10.9194 34.1333 13.97C32.3993 17.0526 27.8075 16.7314 26.4588 13.4882C23.2798 5.26791 11.5272 5.26791 8.3162 13.4882C6.99966 16.7314 2.3757 17.0526 0.641721 13.97C-1.12437 10.9194 1.41238 7.09823 4.88034 7.54777C6.64644 7.86889 8.47676 7.54778 10.0502 6.64868C11.6557 5.74957 12.8117 4.3367 13.4219 2.63482C14.8347 -0.865254 19.9403 -0.865254 21.3532 2.63482C21.9633 4.30458 23.1514 5.74957 24.7248 6.64868ZM17.4036 11.08C20.9037 11.08 22.9588 15.1581 20.8073 17.9838C19.6513 19.3325 19.0091 21.0664 19.0091 22.8967C19.0091 24.6949 19.6513 26.4289 20.8073 27.8097C22.9909 30.6354 20.9037 34.7457 17.4036 34.7135C13.9035 34.7135 11.8484 30.6354 13.9999 27.8097C15.1559 26.4611 15.798 24.7271 15.798 22.8967C15.798 21.0986 15.1559 19.3646 13.9999 17.9838C11.8163 15.1581 13.9035 11.0479 17.4036 11.08Z" fill="#FF5500"/>
</svg>
