<svg xmlns="http://www.w3.org/2000/svg" version="1.1" xmlns:xlink="http://www.w3.org/1999/xlink" xmlns:svgjs="http://svgjs.dev/svgjs" width="32" height="32"><svg width="32" height="32" viewBox="0 0 32 32" fill="none" xmlns="http://www.w3.org/2000/svg">
<path fill-rule="evenodd" clip-rule="evenodd" d="M21.8629 7.31102C23.1217 8.05596 24.5859 8.28716 25.9988 8.03027C28.7988 7.67065 30.8281 10.7275 29.3896 13.1679C28.0024 15.6339 24.329 15.377 23.2501 12.7825C20.707 6.20643 11.3052 6.20643 8.73637 12.7825C7.68316 15.377 3.98408 15.6339 2.59692 13.1679C1.18408 10.7275 3.21343 7.67065 5.98774 8.03027C7.40059 8.28716 8.86481 8.03028 10.1236 7.31102C11.4079 6.59174 12.3327 5.46147 12.8208 4.1C13.9511 1.3 18.0354 1.3 19.1658 4.1C19.6538 5.43578 20.6043 6.59174 21.8629 7.31102ZM16.0061 10.856C18.8061 10.856 20.4502 14.1184 18.729 16.3789C17.8043 17.4578 17.2905 18.8449 17.2905 20.3092C17.2905 21.7477 17.8043 23.1348 18.729 24.2394C20.4759 26.5 18.8061 29.7881 16.0061 29.7624C13.2061 29.7624 11.5621 26.5 13.2832 24.2394C14.208 23.1606 14.7217 21.7734 14.7217 20.3092C14.7217 18.8707 14.208 17.4835 13.2832 16.3789C11.5364 14.1184 13.2061 10.8303 16.0061 10.856Z" fill="#FF5500"></path>
</svg><style>@media (prefers-color-scheme: light) { :root { filter: none; } }
@media (prefers-color-scheme: dark) { :root { filter: none; } }
</style></svg>