<svg width="109" height="116" viewBox="0 0 109 116" fill="none" xmlns="http://www.w3.org/2000/svg">
<g filter="url(#filter0_f_8269_60507)">
<rect x="30.5" y="46.5" width="48" height="39" rx="9" fill="#FF5500" fill-opacity="0.35"/>
</g>
<g filter="url(#filter1_f_8269_60507)">
<rect x="18.5" y="18" width="72" height="69" rx="18" fill="white"/>
</g>
<rect x="13.1602" y="0.661219" width="82.6776" height="82.6776" rx="23.3388" fill="#FEFEFE"/>
<rect x="13.1602" y="0.661219" width="82.6776" height="82.6776" rx="23.3388" stroke="#EBECEC" stroke-width="1.32244"/>
<g filter="url(#filter2_i_8269_60507)">
<rect x="16.999" y="4.5" width="75" height="75" rx="21" fill="#F3F3F5"/>
<rect x="17.3296" y="4.83061" width="74.3388" height="74.3388" rx="20.6694" stroke="url(#paint0_linear_8269_60507)" stroke-width="0.661219"/>
</g>
<rect x="22.1602" y="9.66122" width="64.6776" height="64.6776" rx="17.3388" fill="#FEFEFE"/>
<rect x="22.1602" y="9.66122" width="64.6776" height="64.6776" rx="17.3388" stroke="#EBECEC" stroke-width="1.32244"/>
<path d="M40.3887 45.7433L40.9043 45.1986L40.3445 44.6686L39.8301 45.2429L40.3887 45.7433ZM36.3193 49.1624C36.0429 49.4709 36.069 49.945 36.3775 50.2214C36.6861 50.4978 37.1602 50.4717 37.4366 50.1632L36.3193 49.1624ZM44.0132 50.2074C44.314 50.4922 44.7887 50.4792 45.0735 50.1784C45.3583 49.8776 45.3453 49.4029 45.0445 49.1181L44.0132 50.2074ZM56.0827 59.498C56.497 59.498 56.8327 59.1622 56.8327 58.748C56.8327 58.3338 56.497 57.998 56.0827 57.998V59.498ZM39.8301 45.2429L36.3193 49.1624L37.4366 50.1632L40.9474 46.2437L39.8301 45.2429ZM39.8731 46.2879L44.0132 50.2074L45.0445 49.1181L40.9043 45.1986L39.8731 46.2879ZM39.6387 45.7433V52.748H41.1387V45.7433H39.6387ZM46.3887 59.498H56.0827V57.998H46.3887V59.498ZM39.6387 52.748C39.6387 56.4759 42.6608 59.498 46.3887 59.498V57.998C43.4892 57.998 41.1387 55.6475 41.1387 52.748H39.6387Z" fill="#FF5500"/>
<path d="M67.3925 41.8333L70.9033 37.9138M67.3925 41.8333L63.2524 37.9138M67.3925 41.8333V38.4285C67.3925 35.0682 67.3925 33.3881 66.7386 32.1046C66.1633 30.9756 65.2454 30.0577 64.1165 29.4825C62.833 28.8285 61.1528 28.8285 57.7925 28.8285H51.6985" stroke="#FF5500" stroke-width="1.5" stroke-linecap="round"/>
<rect width="18.9663" height="18.9663" transform="translate(31.999 25.25)" fill="white"/>
<path d="M48.5959 27.6112H34.3711V33.5382H48.5959V27.6112Z" stroke="#FF5500" stroke-width="1.5" stroke-linecap="round" stroke-linejoin="round"/>
<path d="M48.5959 35.9081H34.3711V41.8351H48.5959V35.9081Z" stroke="#FF5500" stroke-width="1.5" stroke-linecap="round" stroke-linejoin="round"/>
<path d="M45.9053 31.5868C46.4576 31.5868 46.9053 31.1391 46.9053 30.5868C46.9053 30.0345 46.4576 29.5868 45.9053 29.5868C45.353 29.5868 44.9053 30.0345 44.9053 30.5868C44.9053 31.1391 45.353 31.5868 45.9053 31.5868Z" fill="#FF5500"/>
<path d="M45.9053 39.8837C46.4576 39.8837 46.9053 39.436 46.9053 38.8837C46.9053 38.3314 46.4576 37.8837 45.9053 37.8837C45.353 37.8837 44.9053 38.3314 44.9053 38.8837C44.9053 39.436 45.353 39.8837 45.9053 39.8837Z" fill="#FF5500"/>
<rect width="18.9663" height="18.9663" transform="translate(55.999 42.7473)" fill="white"/>
<path d="M72.5959 45.1085H58.3711V51.0355H72.5959V45.1085Z" stroke="#FF5500" stroke-width="1.5" stroke-linecap="round" stroke-linejoin="round"/>
<path d="M72.5959 53.4054H58.3711V59.3324H72.5959V53.4054Z" stroke="#FF5500" stroke-width="1.5" stroke-linecap="round" stroke-linejoin="round"/>
<path d="M69.9043 49.0851C70.4566 49.0851 70.9043 48.6374 70.9043 48.0851C70.9043 47.5328 70.4566 47.0851 69.9043 47.0851C69.352 47.0851 68.9043 47.5328 68.9043 48.0851C68.9043 48.6374 69.352 49.0851 69.9043 49.0851Z" fill="#FF5500"/>
<path d="M69.9043 57.382C70.4566 57.382 70.9043 56.9342 70.9043 56.382C70.9043 55.8297 70.4566 55.382 69.9043 55.382C69.352 55.382 68.9043 55.8297 68.9043 56.382C68.9043 56.9342 69.352 57.382 69.9043 57.382Z" fill="#FF5500"/>
<defs>
<filter id="filter0_f_8269_60507" x="0.5" y="16.5" width="108" height="99" filterUnits="userSpaceOnUse" color-interpolation-filters="sRGB">
<feFlood flood-opacity="0" result="BackgroundImageFix"/>
<feBlend mode="normal" in="SourceGraphic" in2="BackgroundImageFix" result="shape"/>
<feGaussianBlur stdDeviation="15" result="effect1_foregroundBlur_8269_60507"/>
</filter>
<filter id="filter1_f_8269_60507" x="9.5" y="9" width="90" height="87" filterUnits="userSpaceOnUse" color-interpolation-filters="sRGB">
<feFlood flood-opacity="0" result="BackgroundImageFix"/>
<feBlend mode="normal" in="SourceGraphic" in2="BackgroundImageFix" result="shape"/>
<feGaussianBlur stdDeviation="4.5" result="effect1_foregroundBlur_8269_60507"/>
</filter>
<filter id="filter2_i_8269_60507" x="16.999" y="4.5" width="75" height="76.3224" filterUnits="userSpaceOnUse" color-interpolation-filters="sRGB">
<feFlood flood-opacity="0" result="BackgroundImageFix"/>
<feBlend mode="normal" in="SourceGraphic" in2="BackgroundImageFix" result="shape"/>
<feColorMatrix in="SourceAlpha" type="matrix" values="0 0 0 0 0 0 0 0 0 0 0 0 0 0 0 0 0 0 127 0" result="hardAlpha"/>
<feOffset dy="1.32244"/>
<feGaussianBlur stdDeviation="1.98366"/>
<feComposite in2="hardAlpha" operator="arithmetic" k2="-1" k3="1"/>
<feColorMatrix type="matrix" values="0 0 0 0 0 0 0 0 0 0 0 0 0 0 0 0 0 0 0.15 0"/>
<feBlend mode="normal" in2="shape" result="effect1_innerShadow_8269_60507"/>
</filter>
<linearGradient id="paint0_linear_8269_60507" x1="54.499" y1="4.5" x2="54.499" y2="79.5" gradientUnits="userSpaceOnUse">
<stop stop-color="white" stop-opacity="0"/>
<stop offset="1" stop-color="white"/>
</linearGradient>
</defs>
</svg>
