<svg width="460" height="250" viewBox="0 0 460 250" fill="none" xmlns="http://www.w3.org/2000/svg">
<path opacity="0.3" fill-rule="evenodd" clip-rule="evenodd" d="M-10.3506 187.241C-25.24 178.44 -42.56 175.708 -59.2718 178.743C-92.392 182.992 -116.396 146.877 -99.3804 118.044C-82.9721 88.9096 -39.5212 91.9448 -26.7589 122.598C3.32245 200.291 114.533 200.291 144.919 122.598C157.377 91.9448 201.132 88.9096 217.54 118.044C234.252 146.877 210.247 182.992 177.431 178.743C160.719 175.708 143.399 178.743 128.51 187.241C113.318 195.739 102.379 209.092 96.6053 225.177C83.2358 258.258 34.9237 258.258 21.5533 225.177C15.7802 209.396 4.53777 195.739 -10.3506 187.241ZM58.9275 145.359C25.8074 145.359 6.36032 106.815 26.7191 80.1084C37.6579 67.3613 43.7345 50.9735 43.7345 33.6742C43.7345 16.6791 37.6579 0.290404 26.7191 -12.7599C6.05673 -39.4669 25.8074 -78.3146 58.9275 -78.0104C92.0477 -78.0104 111.495 -39.4669 91.1359 -12.7599C80.1971 -0.0137454 74.1205 16.3749 74.1205 33.6742C74.1205 50.6694 80.1971 67.0581 91.1359 80.1084C111.798 106.815 92.0476 145.662 58.9275 145.359Z" fill="#EBECEC"/>
<path opacity="0.3" fill-rule="evenodd" clip-rule="evenodd" d="M365.639 -15.2652C380.483 -6.46406 397.75 -3.73261 414.411 -6.76757C447.43 -11.0164 471.361 25.0987 454.397 53.9312C438.039 83.066 394.721 80.0308 381.997 49.378C352.008 -28.3154 241.136 -28.3154 210.843 49.378C198.423 80.0308 154.802 83.066 138.444 53.9312C121.783 25.0987 145.714 -11.0164 178.43 -6.76757C195.091 -3.73261 212.358 -6.76748 227.202 -15.2652C242.347 -23.7631 253.253 -37.1167 259.009 -53.2018C272.338 -86.2824 320.503 -86.2824 333.833 -53.2018C339.588 -37.4202 350.796 -23.7631 365.639 -15.2652ZM296.572 26.6167C329.591 26.6167 348.979 65.1602 328.682 91.8672C317.777 104.614 311.719 121.002 311.719 138.301C311.719 155.296 317.777 171.685 328.682 184.735C349.282 211.443 329.591 250.29 296.572 249.986C263.553 249.986 244.165 211.443 264.462 184.735C275.368 171.989 281.426 155.601 281.426 138.301C281.426 121.306 275.368 104.918 264.462 91.8672C243.863 65.1602 263.553 26.3135 296.572 26.6167Z" fill="url(#paint0_linear_8233_44869)"/>
<defs>
<linearGradient id="paint0_linear_8233_44869" x1="168.374" y1="85.9878" x2="460" y2="85.9878" gradientUnits="userSpaceOnUse">
<stop stop-color="#EBECEC"/>
<stop offset="1" stop-color="#EBECEC" stop-opacity="0.1"/>
</linearGradient>
</defs>
</svg>
