<svg width="24" height="24" viewBox="0 0 24 24" fill="none" xmlns="http://www.w3.org/2000/svg">
<path d="M5.46899 9.53055L2.46899 6.53055C2.39926 6.4609 2.34394 6.37818 2.30619 6.28713C2.26845 6.19609 2.24902 6.09849 2.24902 5.99993C2.24902 5.90137 2.26845 5.80377 2.30619 5.71272C2.34394 5.62167 2.39926 5.53896 2.46899 5.4693L5.46899 2.4693C5.60972 2.32857 5.80059 2.24951 5.99961 2.24951C6.19864 2.24951 6.38951 2.32857 6.53024 2.4693C6.67097 2.61003 6.75003 2.80091 6.75003 2.99993C6.75003 3.19895 6.67097 3.38982 6.53024 3.53055L4.05993 5.99993L6.53024 8.4693C6.67097 8.61003 6.75003 8.80091 6.75003 8.99993C6.75003 9.19895 6.67097 9.38982 6.53024 9.53055C6.38951 9.67128 6.19864 9.75035 5.99961 9.75035C5.80059 9.75035 5.60972 9.67128 5.46899 9.53055ZM9.21899 9.53055C9.28864 9.60029 9.37136 9.65561 9.46241 9.69335C9.55346 9.73109 9.65105 9.75052 9.74961 9.75052C9.84818 9.75052 9.94577 9.73109 10.0368 9.69335C10.1279 9.65561 10.2106 9.60029 10.2802 9.53055L13.2802 6.53055C13.35 6.4609 13.4053 6.37818 13.443 6.28713C13.4808 6.19609 13.5002 6.09849 13.5002 5.99993C13.5002 5.90137 13.4808 5.80377 13.443 5.71272C13.4053 5.62167 13.35 5.53896 13.2802 5.4693L10.2802 2.4693C10.1395 2.32857 9.94864 2.24951 9.74961 2.24951C9.55059 2.24951 9.35972 2.32857 9.21899 2.4693C9.07826 2.61003 8.9992 2.80091 8.9992 2.99993C8.9992 3.19895 9.07826 3.38982 9.21899 3.53055L11.6893 5.99993L9.21899 8.4693C9.14926 8.53896 9.09394 8.62167 9.05619 8.71272C9.01845 8.80377 8.99902 8.90137 8.99902 8.99993C8.99902 9.09849 9.01845 9.19609 9.05619 9.28713C9.09394 9.37818 9.14926 9.4609 9.21899 9.53055ZM18.7496 3.74993H16.4996C16.3007 3.74993 16.1099 3.82895 15.9693 3.9696C15.8286 4.11025 15.7496 4.30102 15.7496 4.49993C15.7496 4.69884 15.8286 4.88961 15.9693 5.03026C16.1099 5.17091 16.3007 5.24993 16.4996 5.24993H18.7496V18.7499H5.24961V12.7499C5.24961 12.551 5.1706 12.3603 5.02994 12.2196C4.88929 12.0789 4.69853 11.9999 4.49961 11.9999C4.3007 11.9999 4.10994 12.0789 3.96928 12.2196C3.82863 12.3603 3.74961 12.551 3.74961 12.7499V18.7499C3.74961 19.1478 3.90765 19.5293 4.18895 19.8106C4.47026 20.0919 4.85179 20.2499 5.24961 20.2499H18.7496C19.1474 20.2499 19.529 20.0919 19.8103 19.8106C20.0916 19.5293 20.2496 19.1478 20.2496 18.7499V5.24993C20.2496 4.8521 20.0916 4.47057 19.8103 4.18927C19.529 3.90796 19.1474 3.74993 18.7496 3.74993Z" fill="#FF5500"/>
</svg>
