<svg width="24" height="24" viewBox="0 0 24 24" fill="none" xmlns="http://www.w3.org/2000/svg">
<path d="M8.25 9.75H3.75C3.55109 9.75 3.36032 9.67098 3.21967 9.53033C3.07902 9.38968 3 9.19891 3 9V4.5C3 4.30109 3.07902 4.11032 3.21967 3.96967C3.36032 3.82902 3.55109 3.75 3.75 3.75C3.94891 3.75 4.13968 3.82902 4.28033 3.96967C4.42098 4.11032 4.5 4.30109 4.5 4.5V6.73594C5.95031 5.1 8.49469 3 12 3C16.0144 3 18.4294 5.36906 18.5306 5.46938C18.6716 5.60986 18.751 5.80059 18.7514 5.99961C18.7517 6.19863 18.673 6.38965 18.5325 6.53062C18.392 6.6716 18.2013 6.751 18.0023 6.75135C17.8032 6.75171 17.6122 6.67298 17.4713 6.5325C17.4459 6.50719 15.3675 4.5 12 4.5C8.71875 4.5 6.35344 6.81094 5.1975 8.25H8.25C8.44891 8.25 8.63968 8.32902 8.78033 8.46967C8.92098 8.61032 9 8.80109 9 9C9 9.19891 8.92098 9.38968 8.78033 9.53033C8.63968 9.67098 8.44891 9.75 8.25 9.75ZM20.25 14.25H15.75C15.5511 14.25 15.3603 14.329 15.2197 14.4697C15.079 14.6103 15 14.8011 15 15C15 15.1989 15.079 15.3897 15.2197 15.5303C15.3603 15.671 15.5511 15.75 15.75 15.75H18.8025C17.6466 17.1891 15.2812 19.5 12 19.5C8.6325 19.5 6.55406 17.4928 6.52875 17.4675C6.38777 17.327 6.19676 17.2483 5.99774 17.2486C5.79871 17.249 5.60798 17.3284 5.4675 17.4694C5.32702 17.6104 5.24829 17.8014 5.24865 18.0004C5.249 18.1994 5.3284 18.3901 5.46938 18.5306C5.57063 18.6309 7.98563 21 12 21C15.5053 21 18.0497 18.9 19.5 17.2641V19.5C19.5 19.6989 19.579 19.8897 19.7197 20.0303C19.8603 20.171 20.0511 20.25 20.25 20.25C20.4489 20.25 20.6397 20.171 20.7803 20.0303C20.921 19.8897 21 19.6989 21 19.5V15C21 14.8011 20.921 14.6103 20.7803 14.4697C20.6397 14.329 20.4489 14.25 20.25 14.25Z" fill="#FF5500"/>
</svg>
