<svg width="24" height="24" viewBox="0 0 24 24" fill="none" xmlns="http://www.w3.org/2000/svg">
<path d="M12.0146 5.05859V8.42676" stroke="#FF5500" stroke-width="1.5"/>
<path d="M12 15.4062V18.7744" stroke="#FF5500" stroke-width="1.5"/>
<path d="M9.00391 14.0664L6.08699 15.7505" stroke="#FF5500" stroke-width="1.5"/>
<path d="M17.6172 9.20117L14.7003 10.8853" stroke="#FF5500" stroke-width="1.5"/>
<path d="M17.6172 14.9082L14.7003 13.2241" stroke="#FF5500" stroke-width="1.5"/>
<path d="M17.6172 14.9082L14.7003 13.2241" stroke="#FF5500" stroke-width="1.5"/>
<path d="M17.6172 14.9082L14.7003 13.2241" stroke="#FF5500" stroke-width="1.5"/>
<path d="M9.24121 10.345L6.3243 8.66089" stroke="#FF5500" stroke-width="1.5"/>
<path d="M12 8.25C11.2583 8.25 10.5333 8.46993 9.91661 8.88199C9.29993 9.29404 8.81928 9.87971 8.53545 10.5649C8.25162 11.2502 8.17736 12.0042 8.32206 12.7316C8.46675 13.459 8.8239 14.1272 9.34835 14.6517C9.8728 15.1761 10.541 15.5333 11.2684 15.6779C11.9958 15.8226 12.7498 15.7484 13.4351 15.4645C14.1203 15.1807 14.706 14.7001 15.118 14.0834C15.5301 13.4667 15.75 12.7417 15.75 12C15.75 11.0054 15.3549 10.0516 14.6517 9.34835C13.9484 8.64509 12.9946 8.25 12 8.25ZM12 14.25C11.555 14.25 11.12 14.118 10.75 13.8708C10.38 13.6236 10.0916 13.2722 9.92127 12.861C9.75098 12.4499 9.70642 11.9975 9.79323 11.561C9.88005 11.1246 10.0943 10.7237 10.409 10.409C10.7237 10.0943 11.1246 9.88005 11.561 9.79323C11.9975 9.70642 12.4499 9.75097 12.861 9.92127C13.2722 10.0916 13.6236 10.38 13.8708 10.75C14.118 11.12 14.25 11.555 14.25 12C14.25 12.5967 14.0129 13.169 13.591 13.591C13.169 14.0129 12.5967 14.25 12 14.25Z" fill="#FF5500"/>
<path d="M12 5.22559C11.6044 5.22559 11.2178 5.10829 10.8889 4.88852C10.56 4.66876 10.3036 4.35641 10.1522 3.99095C10.0009 3.6255 9.96126 3.22337 10.0384 2.83541C10.1156 2.44744 10.3061 2.09108 10.5858 1.81137C10.8655 1.53167 11.2219 1.34119 11.6098 1.26402C11.9978 1.18685 12.3999 1.22645 12.7654 1.37783C13.1308 1.5292 13.4432 1.78555 13.6629 2.11445C13.8827 2.44334 14 2.83002 14 3.22559C14 3.75602 13.7893 4.26473 13.4142 4.6398C13.0391 5.01487 12.5304 5.22559 12 5.22559Z" stroke="#FF5500" stroke-width="1.5"/>
<path d="M12 22.7744C11.6044 22.7744 11.2178 22.6571 10.8889 22.4374C10.56 22.2176 10.3036 21.9052 10.1522 21.5398C10.0009 21.1743 9.96126 20.7722 10.0384 20.3842C10.1156 19.9963 10.3061 19.6399 10.5858 19.3602C10.8655 19.0805 11.2219 18.89 11.6098 18.8128C11.9978 18.7357 12.3999 18.7753 12.7654 18.9267C13.1308 19.078 13.4432 19.3344 13.6629 19.6633C13.8827 19.9922 14 20.3789 14 20.7744C14 21.3048 13.7893 21.8136 13.4142 22.1886C13.0391 22.5637 12.5304 22.7744 12 22.7744Z" stroke="#FF5500" stroke-width="1.5"/>
<path d="M17.867 8.61279C17.6692 8.27022 17.5774 7.8767 17.6033 7.48198C17.6292 7.08727 17.7715 6.70909 18.0123 6.39527C18.2531 6.08145 18.5816 5.84608 18.9561 5.71893C19.3307 5.59178 19.7346 5.57856 20.1166 5.68094C20.4987 5.78332 20.8419 5.9967 21.1027 6.2941C21.3635 6.5915 21.5303 6.95956 21.5819 7.35174C21.6335 7.74392 21.5677 8.1426 21.3927 8.49737C21.2178 8.85214 20.9416 9.14706 20.599 9.34484C20.1396 9.61006 19.5937 9.68193 19.0814 9.54464C18.569 9.40735 18.1322 9.07216 17.867 8.61279Z" stroke="#FF5500" stroke-width="1.5"/>
<path d="M2.66871 17.3873C2.47093 17.0448 2.37917 16.6512 2.40504 16.2565C2.43092 15.8618 2.57325 15.4836 2.81405 15.1698C3.05486 14.856 3.38331 14.6206 3.75788 14.4935C4.13245 14.3663 4.53632 14.3531 4.9184 14.4555C5.30048 14.5579 5.64363 14.7712 5.90444 15.0686C6.16525 15.366 6.33202 15.7341 6.38365 16.1263C6.43528 16.5185 6.36946 16.9171 6.19451 17.2719C6.01955 17.6267 5.74333 17.9216 5.40076 18.1194C4.94139 18.3846 4.39548 18.4565 3.88312 18.3192C3.37076 18.1819 2.93393 17.8467 2.66871 17.3873Z" stroke="#FF5500" stroke-width="1.5"/>
<path d="M6.13305 8.61268C5.93527 8.95524 5.64034 9.23147 5.28557 9.40642C4.9308 9.58137 4.53212 9.6472 4.13994 9.59557C3.74777 9.54393 3.37971 9.37717 3.08231 9.11635C2.78491 8.85554 2.57152 8.5124 2.46915 8.13031C2.36677 7.74823 2.37999 7.34437 2.50714 6.9698C2.63429 6.59523 2.86965 6.26677 3.18347 6.02597C3.4973 5.78517 3.87547 5.64283 4.27019 5.61696C4.66491 5.59109 5.05843 5.68284 5.401 5.88063C5.86037 6.14584 6.19556 6.58268 6.33285 7.09504C6.47013 7.6074 6.39826 8.15331 6.13305 8.61268Z" stroke="#FF5500" stroke-width="1.5"/>
<path d="M21.3313 17.3871C21.1335 17.7297 20.8386 18.0059 20.4838 18.1808C20.129 18.3558 19.7304 18.4216 19.3382 18.37C18.946 18.3183 18.5779 18.1516 18.2805 17.8908C17.9831 17.63 17.7698 17.2868 17.6674 16.9047C17.565 16.5226 17.5782 16.1188 17.7054 15.7442C17.8325 15.3696 18.0679 15.0412 18.3817 14.8004C18.6955 14.5596 19.0737 14.4172 19.4684 14.3914C19.8631 14.3655 20.2567 14.4573 20.5992 14.655C21.0586 14.9203 21.3938 15.3571 21.5311 15.8695C21.6684 16.3818 21.5965 16.9277 21.3313 17.3871Z" stroke="#FF5500" stroke-width="1.5"/>
</svg>
