<svg width="24" height="24" viewBox="0 0 24 24" fill="none" xmlns="http://www.w3.org/2000/svg">
<path d="M19.5 3.75H4.5C3.90326 3.75 3.33097 3.98705 2.90901 4.40901C2.48705 4.83097 2.25 5.40326 2.25 6V16.5C2.25 17.0967 2.48705 17.669 2.90901 18.091C3.33097 18.5129 3.90326 18.75 4.5 18.75H19.5C20.0967 18.75 20.669 18.5129 21.091 18.091C21.5129 17.669 21.75 17.0967 21.75 16.5V6C21.75 5.40326 21.5129 4.83097 21.091 4.40901C20.669 3.98705 20.0967 3.75 19.5 3.75ZM20.25 16.5C20.25 16.6989 20.171 16.8897 20.0303 17.0303C19.8897 17.171 19.6989 17.25 19.5 17.25H4.5C4.30109 17.25 4.11032 17.171 3.96967 17.0303C3.82902 16.8897 3.75 16.6989 3.75 16.5V6C3.75 5.80109 3.82902 5.61032 3.96967 5.46967C4.11032 5.32902 4.30109 5.25 4.5 5.25H19.5C19.6989 5.25 19.8897 5.32902 20.0303 5.46967C20.171 5.61032 20.25 5.80109 20.25 6V16.5ZM15.75 21C15.75 21.1989 15.671 21.3897 15.5303 21.5303C15.3897 21.671 15.1989 21.75 15 21.75H9C8.80109 21.75 8.61032 21.671 8.46967 21.5303C8.32902 21.3897 8.25 21.1989 8.25 21C8.25 20.8011 8.32902 20.6103 8.46967 20.4697C8.61032 20.329 8.80109 20.25 9 20.25H15C15.1989 20.25 15.3897 20.329 15.5303 20.4697C15.671 20.6103 15.75 20.8011 15.75 21Z" fill="#FF5500"/>
<path d="M14.6722 11.8425L14.2353 11.5903C14.2865 11.319 14.2865 11.0404 14.2353 10.7691L14.6722 10.5169C14.8445 10.4174 14.9702 10.2536 15.0217 10.0614C15.0732 9.86926 15.0463 9.6645 14.9469 9.49219C14.8474 9.31988 14.6836 9.19414 14.4914 9.14262C14.2992 9.09111 14.0945 9.11804 13.9222 9.2175L13.4844 9.47063C13.2748 9.29087 13.0339 9.15134 12.7737 9.05906V8.55469C12.7737 8.35578 12.6947 8.16501 12.5541 8.02436C12.4134 7.88371 12.2226 7.80469 12.0237 7.80469C11.8248 7.80469 11.6341 7.88371 11.4934 8.02436C11.3527 8.16501 11.2737 8.35578 11.2737 8.55469V9.05906C11.0135 9.15134 10.7726 9.29087 10.5631 9.47063L10.1253 9.2175C10.04 9.16825 9.94579 9.1363 9.84812 9.12345C9.75045 9.1106 9.65121 9.11712 9.55606 9.14262C9.46091 9.16813 9.37171 9.21213 9.29357 9.27211C9.21542 9.33209 9.14985 9.40687 9.10061 9.49219C9.05136 9.57751 9.0194 9.67169 9.00655 9.76936C8.99371 9.86703 9.00022 9.96627 9.02573 10.0614C9.05124 10.1566 9.09523 10.2458 9.15521 10.3239C9.21519 10.4021 9.28997 10.4676 9.37529 10.5169L9.81217 10.7691C9.76092 11.0404 9.76092 11.319 9.81217 11.5903L9.37529 11.8425C9.23223 11.925 9.1204 12.0524 9.05716 12.205C8.99392 12.3576 8.98281 12.5268 9.02555 12.6863C9.06829 12.8458 9.16249 12.9868 9.29354 13.0873C9.42458 13.1878 9.58514 13.2423 9.75029 13.2422C9.88198 13.2426 10.0114 13.208 10.1253 13.1419L10.5631 12.8888C10.7726 13.0685 11.0135 13.208 11.2737 13.3003V13.8047C11.2737 14.0036 11.3527 14.1944 11.4934 14.335C11.6341 14.4757 11.8248 14.5547 12.0237 14.5547C12.2226 14.5547 12.4134 14.4757 12.5541 14.335C12.6947 14.1944 12.7737 14.0036 12.7737 13.8047V13.3003C13.0339 13.208 13.2748 13.0685 13.4844 12.8888L13.9222 13.1419C14.0361 13.208 14.1655 13.2426 14.2972 13.2422C14.4623 13.2423 14.6229 13.1878 14.7539 13.0873C14.885 12.9868 14.9792 12.8458 15.0219 12.6863C15.0647 12.5268 15.0535 12.3576 14.9903 12.205C14.9271 12.0524 14.8152 11.925 14.6722 11.8425ZM11.2737 11.1797C11.2737 11.0314 11.3177 10.8863 11.4001 10.763C11.4825 10.6397 11.5997 10.5435 11.7367 10.4868C11.8738 10.43 12.0246 10.4152 12.17 10.4441C12.3155 10.473 12.4492 10.5445 12.5541 10.6494C12.659 10.7542 12.7304 10.8879 12.7593 11.0334C12.7883 11.1789 12.7734 11.3297 12.7166 11.4667C12.6599 11.6037 12.5637 11.7209 12.4404 11.8033C12.3171 11.8857 12.1721 11.9297 12.0237 11.9297C11.8248 11.9297 11.6341 11.8507 11.4934 11.71C11.3527 11.5694 11.2737 11.3786 11.2737 11.1797Z" fill="#FF5500"/>
</svg>
