<svg width="24" height="24" viewBox="0 0 24 24" fill="none" xmlns="http://www.w3.org/2000/svg">
<path d="M3 6.75L9 6.75C9.09852 6.74992 9.19609 6.76926 9.28714 6.8069C9.37818 6.84454 9.46092 6.89975 9.53062 6.96937L14.5603 12L19.1897 12L17.4694 10.2806C17.3286 10.1399 17.2496 9.94902 17.2496 9.75C17.2496 9.55098 17.3286 9.3601 17.4694 9.21937C17.6101 9.07864 17.801 8.99958 18 8.99958C18.199 8.99958 18.3899 9.07864 18.5306 9.21937L21.5306 12.2194C21.6004 12.289 21.6557 12.3717 21.6934 12.4628C21.7312 12.5538 21.7506 12.6514 21.7506 12.75C21.7506 12.8486 21.7312 12.9462 21.6934 13.0372C21.6557 13.1283 21.6004 13.211 21.5306 13.2806L18.5306 16.2806C18.3899 16.4214 18.199 16.5004 18 16.5004C17.801 16.5004 17.6101 16.4214 17.4694 16.2806C17.3286 16.1399 17.2496 15.949 17.2496 15.75C17.2496 15.551 17.3286 15.3601 17.4694 15.2194L19.1897 13.5L14.5603 13.5L9.53063 18.5306C9.46092 18.6003 9.37818 18.6555 9.28714 18.6931C9.19609 18.7307 9.09852 18.7501 9 18.75L3 18.75C2.80109 18.75 2.61032 18.671 2.46967 18.5303C2.32902 18.3897 2.25 18.1989 2.25 18C2.25 17.8011 2.32902 17.6103 2.46967 17.4697C2.61032 17.329 2.80109 17.25 3 17.25L8.68969 17.25L13.1897 12.75L8.68969 8.25L3 8.25C2.80109 8.25 2.61032 8.17098 2.46967 8.03033C2.32902 7.88968 2.25 7.69891 2.25 7.5C2.25 7.30109 2.32902 7.11032 2.46967 6.96967C2.61032 6.82902 2.80109 6.75 3 6.75Z" fill="#FF5500"/>
</svg>
