<svg width="24" height="24" viewBox="0 0 24 24" fill="none" xmlns="http://www.w3.org/2000/svg">
<path d="M18.5306 1.71993L21.5306 4.71993C21.6004 4.78959 21.6557 4.87231 21.6934 4.96336C21.7312 5.0544 21.7506 5.152 21.7506 5.25056C21.7506 5.34912 21.7312 5.44672 21.6934 5.53776C21.6557 5.62881 21.6004 5.71153 21.5306 5.78118L18.5306 8.78118C18.3899 8.92191 18.199 9.00098 18 9.00098C17.801 9.00098 17.6101 8.92191 17.4694 8.78118C17.3286 8.64045 17.2496 8.44958 17.2496 8.25056C17.2496 8.05153 17.3286 7.86066 17.4694 7.71993L19.1897 6.00056L13.8103 6.00056L8.56031 11.2506L13.8103 16.5006L19.1897 16.5006L17.4694 14.7812C17.3286 14.6405 17.2496 14.4496 17.2496 14.2506C17.2496 14.0515 17.3286 13.8607 17.4694 13.7199C17.6101 13.5792 17.801 13.5001 18 13.5001C18.199 13.5001 18.3899 13.5792 18.5306 13.7199L21.5306 16.7199C21.6004 16.7896 21.6557 16.8723 21.6934 16.9634C21.7312 17.0544 21.7506 17.152 21.7506 17.2506C21.7506 17.3491 21.7312 17.4467 21.6934 17.5378C21.6557 17.6288 21.6004 17.7115 21.5306 17.7812L18.5306 20.7812C18.4609 20.8509 18.3782 20.9061 18.2872 20.9439C18.1961 20.9816 18.0985 21.001 18 21.001C17.9015 21.001 17.8039 20.9816 17.7128 20.9439C17.6218 20.9061 17.5391 20.8509 17.4694 20.7812C17.3286 20.6405 17.2496 20.4496 17.2496 20.2506C17.2496 20.152 17.269 20.0544 17.3067 19.9634C17.3444 19.8723 17.3997 19.7896 17.4694 19.7199L19.1897 18.0006L13.5 18.0006C13.4015 18.0006 13.3039 17.9813 13.2129 17.9437C13.1218 17.906 13.0391 17.8508 12.9694 17.7812L7.18969 12.0006L3 12.0006C2.80109 12.0006 2.61032 11.9215 2.46967 11.7809C2.32902 11.6402 2.25 11.4495 2.25 11.2506C2.25 11.0516 2.32902 10.8609 2.46967 10.7202C2.61032 10.5796 2.80109 10.5006 3 10.5006L7.18969 10.5006L12.9694 4.71993C13.0391 4.65031 13.1218 4.5951 13.2129 4.55746C13.3039 4.51981 13.4015 4.50048 13.5 4.50056L19.1897 4.50056L17.4694 2.78118C17.3286 2.64045 17.2496 2.44958 17.2496 2.25056C17.2496 2.05154 17.3286 1.86066 17.4694 1.71993C17.6101 1.5792 17.801 1.50014 18 1.50014C18.199 1.50014 18.3899 1.5792 18.5306 1.71993Z" fill="#FF5500"/>
</svg>
