<svg width="282" height="146" viewBox="0 0 282 146" fill="none" xmlns="http://www.w3.org/2000/svg">
<mask id="mask0_8269_78816" style="mask-type:alpha" maskUnits="userSpaceOnUse" x="145" y="2" width="127" height="142">
<path d="M215.98 4.51459C211.529 1.94515 206.046 1.94515 201.596 4.51459L152.917 32.6194C148.466 35.1888 145.725 39.9374 145.725 45.0763V101.286C145.725 106.425 148.466 111.173 152.917 113.743L201.596 141.848C206.046 144.417 211.529 144.417 215.98 141.848L264.659 113.743C269.109 111.173 271.851 106.425 271.851 101.286V45.0763C271.851 39.9374 269.109 35.1888 264.659 32.6194L215.98 4.51459Z" fill="#EEEFF1"/>
</mask>
<g mask="url(#mask0_8269_78816)">
<path d="M263.409 -88.4736L368.429 93.4263" stroke="#D8D9D9" stroke-width="0.714067"/>
<path d="M258.462 -85.6173L363.482 96.2826" stroke="#D8D9D9" stroke-width="0.714067"/>
<path d="M253.515 -82.7611L358.535 99.1388" stroke="#D8D9D9" stroke-width="0.714067"/>
<path d="M248.567 -79.9048L353.587 101.995" stroke="#D8D9D9" stroke-width="0.714067"/>
<path d="M243.621 -77.0486L348.641 104.851" stroke="#D8D9D9" stroke-width="0.714067"/>
<path d="M238.673 -74.1923L343.693 107.708" stroke="#D8D9D9" stroke-width="0.714067"/>
<path d="M233.726 -71.3361L338.746 110.564" stroke="#D8D9D9" stroke-width="0.714067"/>
<path d="M228.779 -68.4797L333.799 113.42" stroke="#D8D9D9" stroke-width="0.714067"/>
<path d="M223.832 -65.6235L328.852 116.276" stroke="#D8D9D9" stroke-width="0.714067"/>
<path d="M218.884 -62.7672L323.904 119.133" stroke="#D8D9D9" stroke-width="0.714067"/>
<path d="M213.937 -59.911L318.957 121.989" stroke="#D8D9D9" stroke-width="0.714067"/>
<path d="M208.99 -57.0547L314.01 124.845" stroke="#D8D9D9" stroke-width="0.714067"/>
<path d="M204.043 -54.1984L309.063 127.702" stroke="#D8D9D9" stroke-width="0.714067"/>
<path d="M199.096 -51.3422L304.116 130.558" stroke="#D8D9D9" stroke-width="0.714067"/>
<path d="M194.148 -48.4858L299.168 133.414" stroke="#D8D9D9" stroke-width="0.714067"/>
<path d="M189.201 -45.6296L294.221 136.27" stroke="#D8D9D9" stroke-width="0.714067"/>
<path d="M184.254 -42.7733L289.274 139.127" stroke="#D8D9D9" stroke-width="0.714067"/>
<path d="M179.307 -39.917L284.327 141.983" stroke="#D8D9D9" stroke-width="0.714067"/>
<path d="M174.359 -37.0608L279.379 144.839" stroke="#D8D9D9" stroke-width="0.714067"/>
<path d="M169.413 -34.2046L274.433 147.695" stroke="#D8D9D9" stroke-width="0.714067"/>
<path d="M164.465 -31.3484L269.485 150.552" stroke="#D8D9D9" stroke-width="0.714067"/>
<path d="M159.518 -28.4919L264.538 153.408" stroke="#D8D9D9" stroke-width="0.714067"/>
<path d="M154.571 -25.6357L259.591 156.264" stroke="#D8D9D9" stroke-width="0.714067"/>
<path d="M149.624 -22.7795L254.643 159.12" stroke="#D8D9D9" stroke-width="0.714067"/>
<path d="M144.676 -19.9233L249.696 161.977" stroke="#D8D9D9" stroke-width="0.714067"/>
<path d="M139.729 -17.0669L244.749 164.833" stroke="#D8D9D9" stroke-width="0.714067"/>
<path d="M134.782 -14.2107L239.802 167.689" stroke="#D8D9D9" stroke-width="0.714067"/>
<path d="M129.835 -11.3545L234.855 170.545" stroke="#D8D9D9" stroke-width="0.714067"/>
<path d="M124.888 -8.49805L229.908 173.402" stroke="#D8D9D9" stroke-width="0.714067"/>
<path d="M119.94 -5.64185L224.96 176.258" stroke="#D8D9D9" stroke-width="0.714067"/>
<path d="M114.993 -2.78564L220.013 179.114" stroke="#D8D9D9" stroke-width="0.714067"/>
<path d="M110.046 0.0705566L215.066 181.97" stroke="#D8D9D9" stroke-width="0.714067"/>
<path d="M105.099 2.927L210.119 184.827" stroke="#D8D9D9" stroke-width="0.714067"/>
<path d="M100.151 5.7832L205.171 187.683" stroke="#D8D9D9" stroke-width="0.714067"/>
<path d="M95.2046 8.6394L200.225 190.539" stroke="#D8D9D9" stroke-width="0.714067"/>
<path d="M90.2573 11.4958L195.277 193.396" stroke="#D8D9D9" stroke-width="0.714067"/>
<path d="M85.3101 14.3521L190.33 196.252" stroke="#D8D9D9" stroke-width="0.714067"/>
<path d="M80.3628 17.2083L185.383 199.108" stroke="#D8D9D9" stroke-width="0.714067"/>
<path d="M75.4155 20.0645L180.435 201.964" stroke="#D8D9D9" stroke-width="0.714067"/>
<path d="M70.4683 22.9209L175.488 204.821" stroke="#D8D9D9" stroke-width="0.714067"/>
<path d="M65.521 25.7771L170.541 207.677" stroke="#D8D9D9" stroke-width="0.714067"/>
<path d="M60.5737 28.6333L165.594 210.533" stroke="#D8D9D9" stroke-width="0.714067"/>
<path d="M55.627 31.4897L160.647 213.39" stroke="#D8D9D9" stroke-width="0.714067"/>
<path d="M50.6797 34.3459L155.7 216.246" stroke="#D8D9D9" stroke-width="0.714067"/>
<path d="M45.7324 37.2021L150.752 219.102" stroke="#D8D9D9" stroke-width="0.714067"/>
<path d="M40.7852 40.0583L145.805 221.958" stroke="#D8D9D9" stroke-width="0.714067"/>
</g>
<path d="M80.3019 4.51459C75.8515 1.94515 70.3684 1.94515 65.918 4.51459L17.239 32.6194C12.7886 35.1888 10.0471 39.9374 10.0471 45.0763V101.286C10.0471 106.425 12.7886 111.173 17.239 113.743L65.918 141.848C70.3684 144.417 75.8515 144.417 80.3019 141.848L128.981 113.743C133.431 111.173 136.173 106.425 136.173 101.286V45.0763C136.173 39.9374 133.431 35.1888 128.981 32.6194L80.3019 4.51459Z" fill="#EBECEC"/>
</svg>
