<svg width="282" height="379" viewBox="0 0 282 379" fill="none" xmlns="http://www.w3.org/2000/svg">
<path d="M141.657 115.104L78.5939 151.514V224.333L141.657 260.742L204.72 224.333V151.514L141.657 115.104Z" fill="url(#paint0_linear_8269_78746)"/>
<mask id="mask0_8269_78746" style="mask-type:alpha" maskUnits="userSpaceOnUse" x="10" y="235" width="127" height="142">
<path d="M65.9129 237.515C70.3633 234.945 75.8465 234.945 80.2969 237.515L128.976 265.619C133.426 268.189 136.168 272.937 136.168 278.076V334.286C136.168 339.425 133.426 344.173 128.976 346.743L80.2969 374.848C75.8465 377.417 70.3633 377.417 65.9129 374.848L17.234 346.743C12.7836 344.173 10.042 339.425 10.042 334.286V278.076C10.042 272.937 12.7836 268.189 17.234 265.619L65.9129 237.515Z" fill="#EEEFF1"/>
</mask>
<g mask="url(#mask0_8269_78746)">
<path d="M18.4834 144.526L-86.5366 326.426" stroke="#D8D9D9" stroke-width="0.714067"/>
<path d="M23.4307 147.383L-81.5893 329.283" stroke="#D8D9D9" stroke-width="0.714067"/>
<path d="M28.3779 150.239L-76.642 332.139" stroke="#D8D9D9" stroke-width="0.714067"/>
<path d="M33.3252 153.095L-71.6948 334.995" stroke="#D8D9D9" stroke-width="0.714067"/>
<path d="M38.272 155.951L-66.748 337.851" stroke="#D8D9D9" stroke-width="0.714067"/>
<path d="M43.2192 158.808L-61.8007 340.708" stroke="#D8D9D9" stroke-width="0.714067"/>
<path d="M48.1665 161.664L-56.8535 343.564" stroke="#D8D9D9" stroke-width="0.714067"/>
<path d="M53.1138 164.52L-51.9062 346.42" stroke="#D8D9D9" stroke-width="0.714067"/>
<path d="M58.061 167.376L-46.9589 349.276" stroke="#D8D9D9" stroke-width="0.714067"/>
<path d="M63.0083 170.233L-42.0117 352.133" stroke="#D8D9D9" stroke-width="0.714067"/>
<path d="M67.9556 173.089L-37.0644 354.989" stroke="#D8D9D9" stroke-width="0.714067"/>
<path d="M72.9028 175.945L-32.1171 357.845" stroke="#D8D9D9" stroke-width="0.714067"/>
<path d="M77.8496 178.802L-27.1704 360.702" stroke="#D8D9D9" stroke-width="0.714067"/>
<path d="M82.7969 181.658L-22.2231 363.558" stroke="#D8D9D9" stroke-width="0.714067"/>
<path d="M87.7441 184.514L-17.2758 366.414" stroke="#D8D9D9" stroke-width="0.714067"/>
<path d="M92.6914 187.37L-12.3286 369.27" stroke="#D8D9D9" stroke-width="0.714067"/>
<path d="M97.6387 190.227L-7.38129 372.127" stroke="#D8D9D9" stroke-width="0.714067"/>
<path d="M102.586 193.083L-2.43403 374.983" stroke="#D8D9D9" stroke-width="0.714067"/>
<path d="M107.533 195.939L2.51324 377.839" stroke="#D8D9D9" stroke-width="0.714067"/>
<path d="M112.48 198.795L7.46002 380.695" stroke="#D8D9D9" stroke-width="0.714067"/>
<path d="M117.427 201.652L12.4073 383.552" stroke="#D8D9D9" stroke-width="0.714067"/>
<path d="M122.375 204.508L17.3545 386.408" stroke="#D8D9D9" stroke-width="0.714067"/>
<path d="M127.322 207.364L22.3018 389.264" stroke="#D8D9D9" stroke-width="0.714067"/>
<path d="M132.269 210.22L27.2491 392.12" stroke="#D8D9D9" stroke-width="0.714067"/>
<path d="M137.216 213.077L32.1963 394.977" stroke="#D8D9D9" stroke-width="0.714067"/>
<path d="M142.164 215.933L37.1436 397.833" stroke="#D8D9D9" stroke-width="0.714067"/>
<path d="M147.11 218.789L42.0904 400.689" stroke="#D8D9D9" stroke-width="0.714067"/>
<path d="M152.058 221.646L47.0377 403.545" stroke="#D8D9D9" stroke-width="0.714067"/>
<path d="M157.005 224.502L51.9849 406.402" stroke="#D8D9D9" stroke-width="0.714067"/>
<path d="M161.952 227.358L56.9322 409.258" stroke="#D8D9D9" stroke-width="0.714067"/>
<path d="M166.899 230.214L61.8795 412.114" stroke="#D8D9D9" stroke-width="0.714067"/>
<path d="M171.847 233.071L66.8267 414.97" stroke="#D8D9D9" stroke-width="0.714067"/>
<path d="M176.794 235.927L71.774 417.827" stroke="#D8D9D9" stroke-width="0.714067"/>
<path d="M181.741 238.783L76.7212 420.683" stroke="#D8D9D9" stroke-width="0.714067"/>
<path d="M186.688 241.639L81.668 423.539" stroke="#D8D9D9" stroke-width="0.714067"/>
<path d="M191.635 244.496L86.6153 426.396" stroke="#D8D9D9" stroke-width="0.714067"/>
<path d="M196.583 247.352L91.5626 429.252" stroke="#D8D9D9" stroke-width="0.714067"/>
<path d="M201.53 250.208L96.5098 432.108" stroke="#D8D9D9" stroke-width="0.714067"/>
<path d="M206.477 253.064L101.457 434.964" stroke="#D8D9D9" stroke-width="0.714067"/>
<path d="M211.424 255.921L106.404 437.821" stroke="#D8D9D9" stroke-width="0.714067"/>
<path d="M216.372 258.777L111.352 440.677" stroke="#D8D9D9" stroke-width="0.714067"/>
<path d="M221.319 261.633L116.299 443.533" stroke="#D8D9D9" stroke-width="0.714067"/>
<path d="M226.266 264.49L121.246 446.39" stroke="#D8D9D9" stroke-width="0.714067"/>
<path d="M231.213 267.346L126.193 449.246" stroke="#D8D9D9" stroke-width="0.714067"/>
<path d="M236.16 270.202L131.14 452.102" stroke="#D8D9D9" stroke-width="0.714067"/>
<path d="M241.107 273.058L136.087 454.958" stroke="#D8D9D9" stroke-width="0.714067"/>
</g>
<path d="M201.591 234.351C206.041 231.781 211.524 231.781 215.975 234.351L264.654 262.455C269.104 265.025 271.846 269.773 271.846 274.912V331.122C271.846 336.261 269.104 341.009 264.654 343.579L215.975 371.683C211.524 374.253 206.041 374.253 201.591 371.683L152.912 343.579C148.461 341.009 145.72 336.261 145.72 331.122V274.912C145.72 269.773 148.461 265.025 152.912 262.455L201.591 234.351Z" fill="#EBECEC"/>
<path d="M208.911 0.729492L145.848 37.1389V109.958L208.911 146.367L271.974 109.958V37.1389L208.911 0.729492Z" fill="url(#paint1_linear_8269_78746)"/>
<defs>
<linearGradient id="paint0_linear_8269_78746" x1="72.3693" y1="130.706" x2="194.744" y2="263.839" gradientUnits="userSpaceOnUse">
<stop stop-color="#F5F5F5"/>
<stop offset="1" stop-color="#EBECEC"/>
</linearGradient>
<linearGradient id="paint1_linear_8269_78746" x1="124.558" y1="77.9742" x2="289.81" y2="56.156" gradientUnits="userSpaceOnUse">
<stop stop-color="#F5F5F5"/>
<stop offset="1" stop-color="#EBECEC"/>
</linearGradient>
</defs>
</svg>
