<svg width="350" height="264" viewBox="0 0 350 264" fill="none" xmlns="http://www.w3.org/2000/svg">
<path d="M147.406 4.29584C142.956 1.7264 137.473 1.7264 133.022 4.29584L84.3435 32.4006C79.8931 34.9701 77.1516 39.7186 77.1516 44.8575V101.067C77.1516 106.206 79.8931 110.955 84.3435 113.524L133.022 141.629C137.473 144.198 142.956 144.198 147.406 141.629L196.085 113.524C200.536 110.955 203.277 106.206 203.277 101.067V44.8575C203.277 39.7186 200.536 34.9701 196.085 32.4006L147.406 4.29584Z" fill="#EBECEC"/>
<path d="M201.898 122.39C206.349 119.82 211.832 119.82 216.282 122.39L264.961 150.494C269.412 153.064 272.153 157.812 272.153 162.951V219.161C272.153 224.3 269.412 229.048 264.961 231.618L216.282 259.723C211.832 262.292 206.349 262.292 201.898 259.723L153.219 231.618C148.769 229.048 146.027 224.3 146.027 219.161V162.951C146.027 157.812 148.769 153.064 153.219 150.494L201.898 122.39Z" fill="url(#paint0_linear_8269_78884)"/>
<path d="M269.625 4.29584C274.075 1.7264 279.558 1.7264 284.009 4.29584L332.688 32.4006C337.138 34.9701 339.88 39.7186 339.88 44.8575V101.067C339.88 106.206 337.138 110.955 332.688 113.524L284.009 141.629C279.558 144.198 274.075 144.198 269.625 141.629L220.946 113.524C216.495 110.955 213.754 106.206 213.754 101.067V44.8575C213.754 39.7186 216.495 34.9701 220.946 32.4006L269.625 4.29584Z" fill="url(#paint1_linear_8269_78884)"/>
<path d="M80.2814 119.39C75.831 116.82 70.3479 116.82 65.8975 119.39L17.2185 147.494C12.7681 150.064 10.0266 154.812 10.0266 159.951V216.161C10.0266 221.3 12.7681 226.048 17.2185 228.618L65.8975 256.723C70.3479 259.292 75.831 259.292 80.2814 256.723L128.96 228.618C133.411 226.048 136.152 221.3 136.152 216.161V159.951C136.152 154.812 133.411 150.064 128.96 147.494L80.2814 119.39Z" fill="#EBECEC"/>
<defs>
<linearGradient id="paint0_linear_8269_78884" x1="287.451" y1="195.444" x2="121.891" y2="163.541" gradientUnits="userSpaceOnUse">
<stop stop-color="#F5F5F5"/>
<stop offset="1" stop-color="#EBECEC"/>
</linearGradient>
<linearGradient id="paint1_linear_8269_78884" x1="355.178" y1="77.3506" x2="189.617" y2="45.4473" gradientUnits="userSpaceOnUse">
<stop stop-color="#F5F5F5"/>
<stop offset="1" stop-color="#EBECEC"/>
</linearGradient>
</defs>
</svg>
