<svg width="109" height="116" viewBox="0 0 109 116" fill="none" xmlns="http://www.w3.org/2000/svg">
<g filter="url(#filter0_f_8269_72482)">
<rect x="30.5" y="46.5" width="48" height="39" rx="9" fill="#FF5500" fill-opacity="0.35"/>
</g>
<g filter="url(#filter1_f_8269_72482)">
<rect x="18.5" y="18" width="72" height="69" rx="18" fill="white"/>
</g>
<rect x="13.1602" y="0.661219" width="82.6776" height="82.6776" rx="23.3388" fill="#FEFEFE"/>
<rect x="13.1602" y="0.661219" width="82.6776" height="82.6776" rx="23.3388" stroke="#EBECEC" stroke-width="1.32244"/>
<g filter="url(#filter2_i_8269_72482)">
<rect x="16.999" y="4.5" width="75" height="75" rx="21" fill="#F3F3F5"/>
<rect x="17.3296" y="4.83061" width="74.3388" height="74.3388" rx="20.6694" stroke="url(#paint0_linear_8269_72482)" stroke-width="0.661219"/>
</g>
<rect x="22.1602" y="9.66122" width="64.6776" height="64.6776" rx="17.3388" fill="#FEFEFE"/>
<rect x="22.1602" y="9.66122" width="64.6776" height="64.6776" rx="17.3388" stroke="#EBECEC" stroke-width="1.32244"/>
<g clip-path="url(#clip0_8269_72482)">
<path d="M34.964 39.6787C34.8518 40.529 34.7939 41.3964 34.7939 42.2773C34.7939 53.144 43.6031 61.9531 54.4697 61.9531C58.4436 61.9531 62.1423 60.775 65.2357 58.7491M34.964 39.6787C35.7297 33.876 39.024 28.8705 43.7037 25.8056M34.964 39.6787C41.2737 38.3211 54.1341 37.9057 64.44 44.0775M72.2013 50.8159C73.4472 48.2333 74.1455 45.3369 74.1455 42.2773C74.1455 37.6456 72.5451 33.3877 69.8671 30.0264M72.2013 50.8159C70.6403 54.0516 68.2196 56.7948 65.2357 58.7491M72.2013 50.8159C69.9368 47.9883 67.2858 45.7817 64.44 44.0775M69.8671 30.0264C68.5598 28.3855 66.9958 26.9583 65.2357 25.8056M69.8671 30.0264C69.3911 33.5652 67.8064 38.9083 64.44 44.0775M65.2357 25.8056C62.1423 23.7796 58.4436 22.6016 54.4697 22.6016C50.4958 22.6016 46.7971 23.7796 43.7037 25.8056M65.2357 25.8056C42.9613 33.1207 41.3853 50.6722 43.3817 58.5336C53.7613 56.2631 60.39 50.2962 64.44 44.0775M43.7037 25.8056C52.366 28.0464 69.1734 37.8953 65.2357 58.7491" stroke="#FF5500" stroke-width="1.5"/>
<circle cx="43.3193" cy="25.9062" r="2.25" fill="white" stroke="#FF5500" stroke-width="1.5"/>
<circle cx="34.7939" cy="39.8516" r="2.25" fill="white" stroke="#FF5500" stroke-width="1.5"/>
<circle cx="47.0029" cy="39.2812" r="2.25" fill="white" stroke="#FF5500" stroke-width="1.5"/>
<circle cx="54.4697" cy="31.4375" r="2.25" fill="white" stroke="#FF5500" stroke-width="1.5"/>
<circle cx="64.9678" cy="25.9062" r="2.25" fill="white" stroke="#FF5500" stroke-width="1.5"/>
<circle cx="70.0439" cy="31.0312" r="2.25" fill="white" stroke="#FF5500" stroke-width="1.5"/>
<circle cx="64.4443" cy="44.2812" r="2.25" fill="white" stroke="#FF5500" stroke-width="1.5"/>
<circle cx="64.9678" cy="59" r="2.25" fill="white" stroke="#FF5500" stroke-width="1.5"/>
<circle cx="42.7959" cy="58.625" r="2.25" fill="white" stroke="#FF5500" stroke-width="1.5"/>
</g>
<defs>
<filter id="filter0_f_8269_72482" x="0.5" y="16.5" width="108" height="99" filterUnits="userSpaceOnUse" color-interpolation-filters="sRGB">
<feFlood flood-opacity="0" result="BackgroundImageFix"/>
<feBlend mode="normal" in="SourceGraphic" in2="BackgroundImageFix" result="shape"/>
<feGaussianBlur stdDeviation="15" result="effect1_foregroundBlur_8269_72482"/>
</filter>
<filter id="filter1_f_8269_72482" x="9.5" y="9" width="90" height="87" filterUnits="userSpaceOnUse" color-interpolation-filters="sRGB">
<feFlood flood-opacity="0" result="BackgroundImageFix"/>
<feBlend mode="normal" in="SourceGraphic" in2="BackgroundImageFix" result="shape"/>
<feGaussianBlur stdDeviation="4.5" result="effect1_foregroundBlur_8269_72482"/>
</filter>
<filter id="filter2_i_8269_72482" x="16.999" y="4.5" width="75" height="76.3224" filterUnits="userSpaceOnUse" color-interpolation-filters="sRGB">
<feFlood flood-opacity="0" result="BackgroundImageFix"/>
<feBlend mode="normal" in="SourceGraphic" in2="BackgroundImageFix" result="shape"/>
<feColorMatrix in="SourceAlpha" type="matrix" values="0 0 0 0 0 0 0 0 0 0 0 0 0 0 0 0 0 0 127 0" result="hardAlpha"/>
<feOffset dy="1.32244"/>
<feGaussianBlur stdDeviation="1.98366"/>
<feComposite in2="hardAlpha" operator="arithmetic" k2="-1" k3="1"/>
<feColorMatrix type="matrix" values="0 0 0 0 0 0 0 0 0 0 0 0 0 0 0 0 0 0 0.15 0"/>
<feBlend mode="normal" in2="shape" result="effect1_innerShadow_8269_72482"/>
</filter>
<linearGradient id="paint0_linear_8269_72482" x1="54.499" y1="4.5" x2="54.499" y2="79.5" gradientUnits="userSpaceOnUse">
<stop stopColor="white" stopOpacity="0"/>
<stop offset="1" stopColor="white"/>
</linearGradient>
<clipPath id="clip0_8269_72482">
<rect width="44" height="43" fill="white" transform="translate(31.499 21)"/>
</clipPath>
</defs>
</svg>
