<svg width="109" height="116" viewBox="0 0 109 116" fill="none" xmlns="http://www.w3.org/2000/svg">
<g filter="url(#filter0_f_8269_60512)">
<rect x="30.5" y="46.5" width="48" height="39" rx="9" fill="#FF5500" fill-opacity="0.35"/>
</g>
<g filter="url(#filter1_f_8269_60512)">
<rect x="18.5" y="18" width="72" height="69" rx="18" fill="white"/>
</g>
<rect x="13.1602" y="0.661219" width="82.6776" height="82.6776" rx="23.3388" fill="#FEFEFE"/>
<rect x="13.1602" y="0.661219" width="82.6776" height="82.6776" rx="23.3388" stroke="#EBECEC" stroke-width="1.32244"/>
<g filter="url(#filter2_i_8269_60512)">
<rect x="16.999" y="4.5" width="75" height="75" rx="21" fill="#F3F3F5"/>
<rect x="17.3296" y="4.83061" width="74.3388" height="74.3388" rx="20.6694" stroke="url(#paint0_linear_8269_60512)" stroke-width="0.661219"/>
</g>
<rect x="22.1602" y="9.66122" width="64.6776" height="64.6776" rx="17.3388" fill="#FEFEFE"/>
<rect x="22.1602" y="9.66122" width="64.6776" height="64.6776" rx="17.3388" stroke="#EBECEC" stroke-width="1.32244"/>
<path d="M67.6621 43.96C67.9549 44.2529 68.4298 44.2529 68.7227 43.96L73.4957 39.187C73.7886 38.8942 73.7886 38.4193 73.4957 38.1264C73.2028 37.8335 72.7279 37.8335 72.435 38.1264L68.1924 42.369L63.9497 38.1264C63.6568 37.8335 63.182 37.8335 62.8891 38.1264C62.5962 38.4193 62.5962 38.8942 62.8891 39.187L67.6621 43.96ZM54.6689 30.4219H53.9189V31.1719H54.6689V30.4219ZM68.9424 43.4297V36.4219H67.4424V43.4297H68.9424ZM62.1924 29.6719H54.6689V31.1719H62.1924V29.6719ZM55.4189 30.4219V20.0677H53.9189V30.4219H55.4189ZM68.9424 36.4219C68.9424 32.694 65.9203 29.6719 62.1924 29.6719V31.1719C65.0919 31.1719 67.4424 33.5224 67.4424 36.4219H68.9424Z" fill="#FF5500"/>
<path d="M41.6758 43.96C41.3829 44.2529 40.9081 44.2529 40.6152 43.96L35.8422 39.187C35.5493 38.8942 35.5493 38.4193 35.8422 38.1264C36.1351 37.8335 36.61 37.8335 36.9029 38.1264L41.1455 42.369L45.3881 38.1264C45.681 37.8335 46.1559 37.8335 46.4488 38.1264C46.7417 38.4193 46.7417 38.8942 46.4488 39.187L41.6758 43.96ZM54.6689 30.4219H55.4189V31.1719H54.6689V30.4219ZM53.9189 20.0677C53.9189 19.6535 54.2547 19.3177 54.6689 19.3177C55.0832 19.3177 55.4189 19.6535 55.4189 20.0677H53.9189ZM40.3955 43.4297V36.4219H41.8955V43.4297H40.3955ZM47.1455 29.6719H54.6689V31.1719H47.1455V29.6719ZM53.9189 30.4219V20.0677H55.4189V30.4219H53.9189ZM40.3955 36.4219C40.3955 32.694 43.4176 29.6719 47.1455 29.6719V31.1719C44.246 31.1719 41.8955 33.5224 41.8955 36.4219H40.3955Z" fill="#FF5500"/>
<circle cx="54.499" cy="30.4249" r="2.25" fill="white" stroke="#FF5500" stroke-width="1.5"/>
<rect width="18.9663" height="18.9663" transform="translate(58.667 44.2188)" fill="white"/>
<path d="M75.2638 46.58H61.0391V52.5069H75.2638V46.58Z" stroke="#FF5500" stroke-width="1.5" stroke-linecap="round" stroke-linejoin="round"/>
<path d="M75.2638 54.8768H61.0391V60.8038H75.2638V54.8768Z" stroke="#FF5500" stroke-width="1.5" stroke-linecap="round" stroke-linejoin="round"/>
<path d="M72.5732 50.5555C73.1255 50.5555 73.5732 50.1078 73.5732 49.5555C73.5732 49.0033 73.1255 48.5555 72.5732 48.5555C72.021 48.5555 71.5732 49.0033 71.5732 49.5555C71.5732 50.1078 72.021 50.5555 72.5732 50.5555Z" fill="#FF5500"/>
<path d="M72.5732 58.8524C73.1255 58.8524 73.5732 58.4047 73.5732 57.8524C73.5732 57.3001 73.1255 56.8524 72.5732 56.8524C72.021 56.8524 71.5732 57.3001 71.5732 57.8524C71.5732 58.4047 72.021 58.8524 72.5732 58.8524Z" fill="#FF5500"/>
<rect width="18.9663" height="18.9663" transform="translate(32.3604 44.2188)" fill="white"/>
<path d="M48.9572 46.58H34.7324V52.5069H48.9572V46.58Z" stroke="#FF5500" stroke-width="1.5" stroke-linecap="round" stroke-linejoin="round"/>
<path d="M48.9572 54.8768H34.7324V60.8038H48.9572V54.8768Z" stroke="#FF5500" stroke-width="1.5" stroke-linecap="round" stroke-linejoin="round"/>
<path d="M46.2666 50.5555C46.8189 50.5555 47.2666 50.1078 47.2666 49.5555C47.2666 49.0033 46.8189 48.5555 46.2666 48.5555C45.7143 48.5555 45.2666 49.0033 45.2666 49.5555C45.2666 50.1078 45.7143 50.5555 46.2666 50.5555Z" fill="#FF5500"/>
<path d="M46.2666 58.8524C46.8189 58.8524 47.2666 58.4047 47.2666 57.8524C47.2666 57.3001 46.8189 56.8524 46.2666 56.8524C45.7143 56.8524 45.2666 57.3001 45.2666 57.8524C45.2666 58.4047 45.7143 58.8524 46.2666 58.8524Z" fill="#FF5500"/>
<defs>
<filter id="filter0_f_8269_60512" x="0.5" y="16.5" width="108" height="99" filterUnits="userSpaceOnUse" color-interpolation-filters="sRGB">
<feFlood flood-opacity="0" result="BackgroundImageFix"/>
<feBlend mode="normal" in="SourceGraphic" in2="BackgroundImageFix" result="shape"/>
<feGaussianBlur stdDeviation="15" result="effect1_foregroundBlur_8269_60512"/>
</filter>
<filter id="filter1_f_8269_60512" x="9.5" y="9" width="90" height="87" filterUnits="userSpaceOnUse" color-interpolation-filters="sRGB">
<feFlood flood-opacity="0" result="BackgroundImageFix"/>
<feBlend mode="normal" in="SourceGraphic" in2="BackgroundImageFix" result="shape"/>
<feGaussianBlur stdDeviation="4.5" result="effect1_foregroundBlur_8269_60512"/>
</filter>
<filter id="filter2_i_8269_60512" x="16.999" y="4.5" width="75" height="76.3224" filterUnits="userSpaceOnUse" color-interpolation-filters="sRGB">
<feFlood flood-opacity="0" result="BackgroundImageFix"/>
<feBlend mode="normal" in="SourceGraphic" in2="BackgroundImageFix" result="shape"/>
<feColorMatrix in="SourceAlpha" type="matrix" values="0 0 0 0 0 0 0 0 0 0 0 0 0 0 0 0 0 0 127 0" result="hardAlpha"/>
<feOffset dy="1.32244"/>
<feGaussianBlur stdDeviation="1.98366"/>
<feComposite in2="hardAlpha" operator="arithmetic" k2="-1" k3="1"/>
<feColorMatrix type="matrix" values="0 0 0 0 0 0 0 0 0 0 0 0 0 0 0 0 0 0 0.15 0"/>
<feBlend mode="normal" in2="shape" result="effect1_innerShadow_8269_60512"/>
</filter>
<linearGradient id="paint0_linear_8269_60512" x1="54.499" y1="4.5" x2="54.499" y2="79.5" gradientUnits="userSpaceOnUse">
<stop stopColor="white" stopOpacity="0"/>
<stop offset="1" stopColor="white"/>
</linearGradient>
</defs>
</svg>
