<svg width="336" height="260" viewBox="0 0 336 260" fill="none" xmlns="http://www.w3.org/2000/svg">
<path opacity="0.3" fill-rule="evenodd" clip-rule="evenodd" d="M232.639 197.241C247.483 188.44 264.75 185.708 281.411 188.743C314.43 192.992 338.361 156.877 321.397 128.044C305.039 98.9096 261.721 101.945 248.997 132.598C219.008 210.291 108.136 210.291 77.8434 132.598C65.4233 101.945 21.8017 98.9096 5.44355 128.044C-11.2175 156.877 12.7138 192.992 45.43 188.743C62.0911 185.708 79.358 188.743 94.2018 197.241C109.347 205.739 120.253 219.092 126.009 235.177C139.338 268.258 187.503 268.258 200.833 235.177C206.588 219.396 217.796 205.739 232.639 197.241ZM163.572 155.359C196.591 155.359 215.979 116.815 195.682 90.1084C184.777 77.3613 178.719 60.9735 178.719 43.6742C178.719 26.6791 184.777 10.2904 195.682 -2.75989C216.282 -29.4669 196.591 -68.3146 163.572 -68.0104C130.553 -68.0104 111.165 -29.4669 131.462 -2.75989C142.368 9.98624 148.426 26.3749 148.426 43.6742C148.426 60.6694 142.368 77.0581 131.462 90.1084C110.863 116.815 130.553 155.662 163.572 155.359Z" fill="url(#paint0_linear_8233_44872)"/>
<path opacity="0.3" fill-rule="evenodd" clip-rule="evenodd" d="M331.649 -5.26522C316.76 3.53596 299.44 6.2674 282.728 3.23245C249.608 -1.01638 225.604 35.0987 242.62 63.9312C259.028 93.066 302.479 90.0308 315.241 59.378C345.322 -18.3154 456.533 -18.3154 486.919 59.378C499.377 90.0308 543.132 93.066 559.54 63.9312C576.252 35.0987 552.247 -1.01641 519.431 3.23243C502.719 6.26739 485.399 3.23252 470.51 -5.26524C455.318 -13.7631 444.379 -27.1167 438.605 -43.2018C425.236 -76.2823 376.924 -76.2823 363.553 -43.2018C357.78 -27.4202 346.538 -13.7631 331.649 -5.26522ZM400.927 36.6167C367.807 36.6167 348.36 75.1602 368.719 101.867C379.658 114.614 385.735 131.002 385.735 148.301C385.735 165.296 379.658 181.685 368.719 194.735C348.057 221.443 367.807 260.29 400.928 259.986C434.048 259.986 453.495 221.443 433.136 194.735C422.197 181.989 416.12 165.601 416.12 148.301C416.12 131.306 422.197 114.918 433.136 101.867C453.798 75.1602 434.048 36.3135 400.927 36.6167Z" fill="#EBECEC"/>
<defs>
<linearGradient id="paint0_linear_8233_44872" x1="308.813" y1="95.9878" x2="18.1871" y2="95.9878" gradientUnits="userSpaceOnUse">
<stop stop-color="#EBECEC"/>
<stop offset="1" stop-color="#EBECEC" stop-opacity="0.1"/>
</linearGradient>
</defs>
</svg>
