<svg width="24" height="24" viewBox="0 0 24 24" fill="none" xmlns="http://www.w3.org/2000/svg">
<path d="M22.3715 3.1275C22.0929 2.84885 21.7622 2.62781 21.3981 2.47701C21.0341 2.3262 20.6439 2.24858 20.2499 2.24858C19.8559 2.24858 19.4657 2.3262 19.1017 2.47701C18.7377 2.62781 18.4069 2.84885 18.1284 3.1275C17.8497 3.40609 17.6287 3.73684 17.4779 4.10086C17.3271 4.46488 17.2494 4.85504 17.2494 5.24907C17.2494 5.64309 17.3271 6.03325 17.4779 6.39727C17.6287 6.7613 17.8497 7.09204 18.1284 7.37063C18.1555 7.39782 18.1846 7.42407 18.2127 7.45032L15.7162 12.0872C14.955 11.9016 14.1515 12.0192 13.4755 12.4153L11.5837 10.5234C11.9559 9.89436 12.0856 9.15103 11.9485 8.43306C11.8114 7.71509 11.4168 7.07188 10.839 6.62424C10.2612 6.17659 9.53979 5.9553 8.81034 6.00194C8.08088 6.04857 7.39355 6.35992 6.87742 6.8775C6.59878 7.15609 6.37774 7.48684 6.22693 7.85086C6.07612 8.21488 5.9985 8.60504 5.9985 8.99907C5.9985 9.39309 6.07612 9.78325 6.22693 10.1473C6.37774 10.5113 6.59878 10.842 6.87742 11.1206C6.90461 11.1478 6.93274 11.1741 6.96086 11.2003L4.4643 15.8381C3.96317 15.7148 3.4387 15.7228 2.94158 15.8614C2.44445 16 1.9915 16.2645 1.62649 16.6294C1.207 17.049 0.921342 17.5835 0.805642 18.1654C0.689942 18.7474 0.749392 19.3505 0.976475 19.8987C1.20356 20.4468 1.58808 20.9153 2.08141 21.2449C2.57474 21.5745 3.15473 21.7505 3.74805 21.7505C4.34136 21.7505 4.92135 21.5745 5.41469 21.2449C5.90802 20.9153 6.29254 20.4468 6.51962 19.8987C6.7467 19.3505 6.80615 18.7474 6.69045 18.1654C6.57475 17.5835 6.2891 17.049 5.86961 16.6294C5.84242 16.6022 5.81336 16.5759 5.78524 16.5497L8.2818 11.9128C8.51654 11.9703 8.75731 11.9996 8.99899 12C9.5346 12.0007 10.0606 11.8579 10.5224 11.5866L12.4143 13.4784C12.1295 13.9618 11.9859 14.5154 11.9999 15.0763C12.0139 15.6371 12.1849 16.1829 12.4935 16.6514C12.8021 17.12 13.2359 17.4926 13.7456 17.727C14.2554 17.9614 14.8206 18.0482 15.3772 17.9775C15.9338 17.9067 16.4594 17.6813 16.8943 17.3269C17.3292 16.9724 17.656 16.5031 17.8376 15.9722C18.0191 15.4414 18.0482 14.8702 17.9214 14.3237C17.7947 13.7771 17.5172 13.2771 17.1205 12.8803C17.0934 12.8531 17.0652 12.8269 17.0371 12.8006L19.5337 8.16375C19.7678 8.22084 20.008 8.2498 20.249 8.25C20.8422 8.24991 21.4221 8.07395 21.9153 7.74436C22.4086 7.41477 22.793 6.94634 23.0201 6.3983C23.2471 5.85025 23.3066 5.24719 23.191 4.66534C23.0754 4.0835 22.7899 3.54899 22.3705 3.12938L22.3715 3.1275ZM4.80836 19.8122C4.5269 20.0935 4.14521 20.2515 3.74725 20.2514C3.34929 20.2514 2.96767 20.0932 2.68633 19.8117C2.40499 19.5303 2.24699 19.1486 2.24708 18.7506C2.24716 18.3527 2.40534 17.971 2.6868 17.6897C2.82616 17.5504 2.9916 17.4399 3.17367 17.3645C3.35573 17.2892 3.55086 17.2504 3.74791 17.2504C3.94496 17.2505 4.14007 17.2893 4.3221 17.3648C4.50414 17.4402 4.66953 17.5508 4.80883 17.6902C4.94813 17.8295 5.05862 17.995 5.13399 18.177C5.20936 18.3591 5.24813 18.5542 5.24808 18.7513C5.24804 18.9483 5.20918 19.1434 5.13374 19.3255C5.05829 19.5075 4.94773 19.6729 4.80836 19.8122ZM7.93774 10.0622C7.79841 9.9229 7.68789 9.75752 7.61249 9.57551C7.53709 9.3935 7.49827 9.19842 7.49827 9.00141C7.49827 8.8044 7.53709 8.60932 7.61249 8.4273C7.68789 8.24529 7.79841 8.07992 7.93774 7.94063C8.14753 7.73088 8.4148 7.58806 8.70577 7.53021C8.99673 7.47236 9.29831 7.50208 9.57238 7.61562C9.84645 7.72916 10.0807 7.92142 10.2455 8.16809C10.4103 8.41476 10.4983 8.70475 10.4983 9.00141C10.4983 9.29807 10.4103 9.58806 10.2455 9.83473C10.0807 10.0814 9.84645 10.2737 9.57238 10.3872C9.29831 10.5007 8.99673 10.5305 8.70577 10.4726C8.4148 10.4148 8.14753 10.2719 7.93774 10.0622ZM16.0602 16.0622C15.7789 16.3435 15.3973 16.5016 14.9995 16.5016C14.6016 16.5016 14.22 16.3435 13.9387 16.0622C13.6573 15.7809 13.4993 15.3993 13.4993 15.0014C13.4993 14.6035 13.6573 14.222 13.9387 13.9406C14.22 13.6593 14.6016 13.5012 14.9995 13.5012C15.3973 13.5012 15.7789 13.6593 16.0602 13.9406C16.3416 14.222 16.4996 14.6035 16.4996 15.0014C16.4996 15.3993 16.3416 15.7809 16.0602 16.0622ZM21.3102 6.31219C21.0285 6.5934 20.6466 6.75119 20.2486 6.75084C19.8506 6.75049 19.4689 6.59202 19.1877 6.31032C18.9065 6.02861 18.7487 5.64672 18.7491 5.24868C18.7494 4.85063 18.9079 4.46903 19.1896 4.18782C19.329 4.04851 19.4944 3.93802 19.6765 3.86265C19.8585 3.78729 20.0537 3.74852 20.2507 3.74856C20.4478 3.74861 20.6429 3.78746 20.8249 3.86291C21.0069 3.93836 21.1723 4.04892 21.3116 4.18828C21.4509 4.32765 21.5614 4.49309 21.6368 4.67515C21.7122 4.85722 21.7509 5.05235 21.7509 5.2494C21.7509 5.44645 21.712 5.64156 21.6365 5.82359C21.5611 6.00562 21.4505 6.17101 21.3112 6.31032L21.3102 6.31219Z" fill="#FF5500"/>
</svg>
