<svg width="28" height="27" viewBox="0 0 28 27" fill="none" xmlns="http://www.w3.org/2000/svg">
<ellipse cx="13.945" cy="10.0153" rx="4.28484" ry="1.74181" stroke="#FF5500" stroke-width="1.5"/>
<path d="M9.66016 13.4922C9.66016 13.4922 9.66016 14.8526 9.66016 15.8146C9.66016 16.7766 11.5785 17.5564 13.945 17.5564C16.3115 17.5564 18.2298 16.7766 18.2298 15.8146C18.2298 15.3344 18.2298 13.4922 18.2298 13.4922" stroke="#FF5500" stroke-width="1.5" stroke-linecap="square"/>
<path d="M9.66016 10.0078C9.66016 10.0078 9.66016 11.9489 9.66016 12.9108C9.66016 13.8728 11.5785 14.6526 13.945 14.6526C16.3115 14.6526 18.2298 13.8728 18.2298 12.9108C18.2298 12.4307 18.2298 10.0078 18.2298 10.0078" stroke="#FF5500" stroke-width="1.5"/>
<path d="M13.2461 5.78906C13.2461 6.20328 13.5819 6.53906 13.9961 6.53906C14.4103 6.53906 14.7461 6.20328 14.7461 5.78906L13.2461 5.78906ZM13.2461 2.58594L13.2461 5.78906L14.7461 5.78906L14.7461 2.58594L13.2461 2.58594Z" fill="#FF5500"/>
<path d="M13.25 21.2969C13.25 20.8827 13.5858 20.5469 14 20.5469C14.4142 20.5469 14.75 20.8827 14.75 21.2969L13.25 21.2969ZM13.25 24.5L13.25 21.2969L14.75 21.2969L14.75 24.5L13.25 24.5Z" fill="#FF5500"/>
<path d="M12.5819 3.64108C12.3022 3.36137 12.1117 3.00501 12.0345 2.61705C11.9574 2.22908 11.997 1.82695 12.1483 1.4615C12.2997 1.09605 12.5561 0.783689 12.885 0.563926C13.2139 0.344164 13.6005 0.226866 13.9961 0.226866C14.3917 0.226866 14.7783 0.344164 15.1072 0.563926C15.4361 0.783689 15.6925 1.09605 15.8439 1.4615C15.9952 1.82695 16.0348 2.22908 15.9577 2.61705C15.8805 3.00501 15.69 3.36137 15.4103 3.64108C15.0352 4.01615 14.5265 4.22687 13.9961 4.22687C13.4657 4.22687 12.957 4.01615 12.5819 3.64108Z" fill="#FF5500"/>
<path d="M12.5819 3.64108C12.3022 3.36137 12.1117 3.00501 12.0345 2.61705C11.9574 2.22908 11.997 1.82695 12.1483 1.4615C12.2997 1.09605 12.5561 0.783689 12.885 0.563926C13.2139 0.344164 13.6005 0.226866 13.9961 0.226866C14.3917 0.226866 14.7783 0.344164 15.1072 0.563926C15.4361 0.783689 15.6925 1.09605 15.8439 1.4615C15.9952 1.82695 16.0348 2.22908 15.9577 2.61705C15.8805 3.00501 15.69 3.36137 15.4103 3.64108C15.0352 4.01615 14.5265 4.22687 13.9961 4.22687C13.4657 4.22687 12.957 4.01615 12.5819 3.64108Z" fill="#FF5500"/>
<path d="M13.9961 2.58594L13.9961 5.78906" stroke="#FF5500" stroke-width="1.5" stroke-linecap="round"/>
<path d="M14 22.7812C13.6044 22.7812 13.2178 22.8985 12.8889 23.1183C12.56 23.3381 12.3036 23.6504 12.1522 24.0159C12.0009 24.3813 11.9613 24.7835 12.0384 25.1714C12.1156 25.5594 12.3061 25.9158 12.5858 26.1955C12.8655 26.4752 13.2219 26.6656 13.6098 26.7428C13.9978 26.82 14.3999 26.7804 14.7654 26.629C15.1308 26.4776 15.4432 26.2213 15.6629 25.8924C15.8827 25.5635 16 25.1768 16 24.7812C16 24.2508 15.7893 23.7421 15.4142 23.367C15.0391 22.992 14.5304 22.7812 14 22.7812Z" fill="#FF5500"/>
<path d="M14 22.7812C13.6044 22.7812 13.2178 22.8985 12.8889 23.1183C12.56 23.3381 12.3036 23.6504 12.1522 24.0159C12.0009 24.3813 11.9613 24.7835 12.0384 25.1714C12.1156 25.5594 12.3061 25.9158 12.5858 26.1955C12.8655 26.4752 13.2219 26.6656 13.6098 26.7428C13.9978 26.82 14.3999 26.7804 14.7654 26.629C15.1308 26.4776 15.4432 26.2213 15.6629 25.8924C15.8827 25.5635 16 25.1768 16 24.7812C16 24.2508 15.7893 23.7421 15.4142 23.367C15.0391 22.992 14.5304 22.7812 14 22.7812Z" fill="#FF5500"/>
<path d="M14 24.4922L14 21.2891" stroke="#FF5500" stroke-width="1.5" stroke-linecap="round"/>
<path d="M23.2441 13.5391C23.2441 13.1435 23.3614 12.7568 23.5812 12.4279C23.801 12.099 24.1133 11.8427 24.4788 11.6913C24.8442 11.5399 25.2464 11.5003 25.6343 11.5775C26.0223 11.6547 26.3786 11.8451 26.6584 12.1248C26.9381 12.4046 27.1285 12.7609 27.2057 13.1489C27.2829 13.5368 27.2433 13.939 27.0919 14.3044C26.9405 14.6699 26.6842 14.9822 26.3553 15.202C26.0264 15.4218 25.6397 15.5391 25.2441 15.5391C24.7137 15.5391 24.205 15.3283 23.8299 14.9533C23.4549 14.5782 23.2441 14.0695 23.2441 13.5391Z" fill="#FF5500"/>
<path d="M23.2441 13.5391C23.2441 13.1435 23.3614 12.7568 23.5812 12.4279C23.801 12.099 24.1133 11.8427 24.4788 11.6913C24.8442 11.5399 25.2464 11.5003 25.6343 11.5775C26.0223 11.6547 26.3786 11.8451 26.6584 12.1248C26.9381 12.4046 27.1285 12.7609 27.2057 13.1489C27.2829 13.5368 27.2433 13.939 27.0919 14.3044C26.9405 14.6699 26.6842 14.9822 26.3553 15.202C26.0264 15.4218 25.6397 15.5391 25.2441 15.5391C24.7137 15.5391 24.205 15.3283 23.8299 14.9533C23.4549 14.5782 23.2441 14.0695 23.2441 13.5391Z" fill="#FF5500"/>
<path d="M24.9551 13.5391L21.752 13.5391" stroke="#FF5500" stroke-width="1.5" stroke-linecap="round"/>
<path d="M4.75195 13.5469C4.75195 13.1513 4.63465 12.7646 4.41489 12.4357C4.19513 12.1068 3.88277 11.8505 3.51732 11.6991C3.15187 11.5477 2.74973 11.5081 2.36177 11.5853C1.97381 11.6625 1.61745 11.853 1.33774 12.1327C1.05804 12.4124 0.867554 12.7687 0.790383 13.1567C0.713213 13.5447 0.75282 13.9468 0.904195 14.3122C1.05557 14.6777 1.31191 14.9901 1.64081 15.2098C1.96971 15.4296 2.35639 15.5469 2.75195 15.5469C3.28239 15.5469 3.79109 15.3362 4.16617 14.9611C4.54124 14.586 4.75195 14.0773 4.75195 13.5469Z" fill="#FF5500"/>
<path d="M4.75195 13.5469C4.75195 13.1513 4.63465 12.7646 4.41489 12.4357C4.19513 12.1068 3.88277 11.8505 3.51732 11.6991C3.15187 11.5477 2.74973 11.5081 2.36177 11.5853C1.97381 11.6625 1.61745 11.853 1.33774 12.1327C1.05804 12.4124 0.867554 12.7687 0.790383 13.1567C0.713213 13.5447 0.75282 13.9468 0.904195 14.3122C1.05557 14.6777 1.31191 14.9901 1.64081 15.2098C1.96971 15.4296 2.35639 15.5469 2.75195 15.5469C3.28239 15.5469 3.79109 15.3362 4.16617 14.9611C4.54124 14.586 4.75195 14.0773 4.75195 13.5469Z" fill="#FF5500"/>
<path d="M3.04102 13.5469L6.24414 13.5469" stroke="#FF5500" stroke-width="1.5" stroke-linecap="round"/>
<path d="M20.5331 7.00045C20.2533 6.72075 20.0629 6.36438 19.9857 5.97642C19.9085 5.58846 19.9481 5.18633 20.0995 4.82087C20.2509 4.45542 20.5072 4.14306 20.8361 3.9233C21.165 3.70354 21.5517 3.58624 21.9473 3.58624C22.3428 3.58624 22.7295 3.70354 23.0584 3.9233C23.3873 4.14306 23.6436 4.45542 23.795 4.82087C23.9464 5.18633 23.986 5.58846 23.9088 5.97642C23.8317 6.36438 23.6412 6.72075 23.3615 7.00045C22.9864 7.37553 22.4777 7.58624 21.9473 7.58624C21.4168 7.58624 20.9081 7.37553 20.5331 7.00045Z" fill="#FF5500"/>
<path d="M20.5331 7.00045C20.2533 6.72075 20.0629 6.36438 19.9857 5.97642C19.9085 5.58846 19.9481 5.18633 20.0995 4.82087C20.2509 4.45542 20.5072 4.14306 20.8361 3.9233C21.165 3.70354 21.5517 3.58624 21.9473 3.58624C22.3428 3.58624 22.7295 3.70354 23.0584 3.9233C23.3873 4.14306 23.6436 4.45542 23.795 4.82087C23.9464 5.18633 23.986 5.58846 23.9088 5.97642C23.8317 6.36438 23.6412 6.72075 23.3615 7.00045C22.9864 7.37553 22.4777 7.58624 21.9473 7.58624C21.4168 7.58624 20.9081 7.37553 20.5331 7.00045Z" fill="#FF5500"/>
<path d="M21.7441 5.78906L19.4792 8.05401" stroke="#FF5500" stroke-width="1.5" stroke-linecap="round"/>
<path d="M7.46334 20.078C7.18364 19.7983 6.82727 19.6078 6.43931 19.5306C6.05135 19.4534 5.64922 19.4931 5.28376 19.6444C4.91831 19.7958 4.60595 20.0521 4.38619 20.381C4.16643 20.7099 4.04913 21.0966 4.04913 21.4922C4.04913 21.8878 4.16643 22.2744 4.38619 22.6033C4.60595 22.9322 4.91831 23.1886 5.28376 23.3399C5.64922 23.4913 6.05135 23.5309 6.43931 23.4538C6.82727 23.3766 7.18364 23.1861 7.46334 22.9064C7.83842 22.5313 8.04913 22.0226 8.04913 21.4922C8.04913 20.9618 7.83842 20.453 7.46334 20.078Z" fill="#FF5500"/>
<path d="M7.46334 20.078C7.18364 19.7983 6.82727 19.6078 6.43931 19.5306C6.05135 19.4534 5.64922 19.4931 5.28376 19.6444C4.91831 19.7958 4.60595 20.0521 4.38619 20.381C4.16643 20.7099 4.04913 21.0966 4.04913 21.4922C4.04913 21.8878 4.16643 22.2744 4.38619 22.6033C4.60595 22.9322 4.91831 23.1886 5.28376 23.3399C5.64922 23.4913 6.05135 23.5309 6.43931 23.4538C6.82727 23.3766 7.18364 23.1861 7.46334 22.9064C7.83842 22.5313 8.04913 22.0226 8.04913 21.4922C8.04913 20.9618 7.83842 20.453 7.46334 20.078Z" fill="#FF5500"/>
<path d="M6.25391 21.2891L8.51886 19.0241" stroke="#FF5500" stroke-width="1.5" stroke-linecap="round"/>
<path d="M7.45553 7.00796C7.17583 7.28767 6.81946 7.47815 6.4315 7.55532C6.04354 7.63249 5.6414 7.59288 5.27595 7.44151C4.9105 7.29013 4.59814 7.03379 4.37838 6.70489C4.15862 6.37599 4.04132 5.98931 4.04132 5.59375C4.04132 5.19819 4.15862 4.81151 4.37838 4.48261C4.59814 4.15371 4.9105 3.89737 5.27595 3.74599C5.6414 3.59462 6.04354 3.55501 6.4315 3.63218C6.81946 3.70935 7.17583 3.89983 7.45553 4.17954C7.8306 4.55461 8.04132 5.06332 8.04132 5.59375C8.04132 6.12418 7.8306 6.63289 7.45553 7.00796Z" fill="#FF5500"/>
<path d="M7.45553 7.00796C7.17583 7.28767 6.81946 7.47815 6.4315 7.55532C6.04354 7.63249 5.6414 7.59288 5.27595 7.44151C4.9105 7.29013 4.59814 7.03379 4.37838 6.70489C4.15862 6.37599 4.04132 5.98931 4.04132 5.59375C4.04132 5.19819 4.15862 4.81151 4.37838 4.48261C4.59814 4.15371 4.9105 3.89737 5.27595 3.74599C5.6414 3.59462 6.04354 3.55501 6.4315 3.63218C6.81946 3.70935 7.17583 3.89983 7.45553 4.17954C7.8306 4.55461 8.04132 5.06332 8.04132 5.59375C8.04132 6.12418 7.8306 6.63289 7.45553 7.00796Z" fill="#FF5500"/>
<path d="M6.24609 5.79688L8.51105 8.06183" stroke="#FF5500" stroke-width="1.5" stroke-linecap="round"/>
<path d="M20.5409 20.0777C20.2612 20.3574 20.0707 20.7137 19.9935 21.1017C19.9163 21.4897 19.9559 21.8918 20.1073 22.2573C20.2587 22.6227 20.515 22.9351 20.8439 23.1548C21.1728 23.3746 21.5595 23.4919 21.9551 23.4919C22.3506 23.4919 22.7373 23.3746 23.0662 23.1548C23.3951 22.9351 23.6515 22.6227 23.8028 22.2573C23.9542 21.8918 23.9938 21.4897 23.9166 21.1017C23.8395 20.7137 23.649 20.3574 23.3693 20.0777C22.9942 19.7026 22.4855 19.4919 21.9551 19.4919C21.4246 19.4919 20.9159 19.7026 20.5409 20.0777Z" fill="#FF5500"/>
<path d="M20.5409 20.0777C20.2612 20.3574 20.0707 20.7137 19.9935 21.1017C19.9163 21.4897 19.9559 21.8918 20.1073 22.2573C20.2587 22.6227 20.515 22.9351 20.8439 23.1548C21.1728 23.3746 21.5595 23.4919 21.9551 23.4919C22.3506 23.4919 22.7373 23.3746 23.0662 23.1548C23.3951 22.9351 23.6515 22.6227 23.8028 22.2573C23.9542 21.8918 23.9938 21.4897 23.9166 21.1017C23.8395 20.7137 23.649 20.3574 23.3693 20.0777C22.9942 19.7026 22.4855 19.4919 21.9551 19.4919C21.4246 19.4919 20.9159 19.7026 20.5409 20.0777Z" fill="#FF5500"/>
<path d="M21.752 21.2891L19.487 19.0241" stroke="#FF5500" stroke-width="1.5" stroke-linecap="round"/>
</svg>
