<svg width="24" height="25" viewBox="0 0 24 25" fill="none" xmlns="http://www.w3.org/2000/svg">
<path d="M21 19.25H20.25V4.25C20.25 4.05109 20.171 3.86032 20.0303 3.71967C19.8897 3.57902 19.6989 3.5 19.5 3.5H14.25C14.0511 3.5 13.8603 3.57902 13.7197 3.71967C13.579 3.86032 13.5 4.05109 13.5 4.25V8H9C8.80109 8 8.61032 8.07902 8.46967 8.21967C8.32902 8.36032 8.25 8.55109 8.25 8.75V12.5H4.5C4.30109 12.5 4.11032 12.579 3.96967 12.7197C3.82902 12.8603 3.75 13.0511 3.75 13.25V19.25H3C2.80109 19.25 2.61032 19.329 2.46967 19.4697C2.32902 19.6103 2.25 19.8011 2.25 20C2.25 20.1989 2.32902 20.3897 2.46967 20.5303C2.61032 20.671 2.80109 20.75 3 20.75H21C21.1989 20.75 21.3897 20.671 21.5303 20.5303C21.671 20.3897 21.75 20.1989 21.75 20C21.75 19.8011 21.671 19.6103 21.5303 19.4697C21.3897 19.329 21.1989 19.25 21 19.25ZM15 5H18.75V19.25H15V5ZM9.75 9.5H13.5V19.25H9.75V9.5ZM5.25 14H8.25V19.25H5.25V14Z" fill="#FF5500"/>
</svg>
