<svg width="536" height="410" viewBox="0 0 536 410" fill="none" xmlns="http://www.w3.org/2000/svg">
<g clip-path="url(#clip0_9047_109738)">
<rect width="536" height="410" rx="16" fill="url(#paint0_linear_9047_109738)"/>
<mask id="mask0_9047_109738" style="mask-type:alpha" maskUnits="userSpaceOnUse" x="-6" y="-3" width="553" height="430">
<path opacity="0.8" d="M546.871 426.91L475.22 426.91L-0.999515 426.91L-5.90432 -2.4859L546.871 -2.48589L546.871 426.91Z" fill="url(#paint1_radial_9047_109738)"/>
</mask>
<g mask="url(#mask0_9047_109738)">
<g opacity="0.6">
<path d="M-26 406.213L566 406.213" stroke="#6C6E6F" stroke-width="0.5"/>
<path d="M-26 390.213L566 390.213" stroke="#6C6E6F" stroke-width="0.5"/>
<path d="M-26 374.213L566 374.213" stroke="#6C6E6F" stroke-width="0.5"/>
<path d="M-26 358.213L566 358.213" stroke="#6C6E6F" stroke-width="0.5"/>
<path d="M-26 342.213L566 342.213" stroke="#6C6E6F" stroke-width="0.5"/>
<path d="M-26 326.213L566 326.213" stroke="#6C6E6F" stroke-width="0.5"/>
<path d="M-26 310.213L566 310.213" stroke="#6C6E6F" stroke-width="0.5"/>
<path d="M-26 294.213L566 294.213" stroke="#6C6E6F" stroke-width="0.5"/>
<path d="M-26 278.213L566 278.213" stroke="#6C6E6F" stroke-width="0.5"/>
<path d="M-26 262.213L566 262.213" stroke="#6C6E6F" stroke-width="0.5"/>
<path d="M-26 246.213L566 246.213" stroke="#6C6E6F" stroke-width="0.5"/>
<path d="M-26 230.213L566 230.213" stroke="#6C6E6F" stroke-width="0.5"/>
<path d="M-26 214.213L566 214.213" stroke="#6C6E6F" stroke-width="0.5"/>
<path d="M-26 198.213L566 198.213" stroke="#6C6E6F" stroke-width="0.5"/>
<path d="M-26 182.213L566 182.213" stroke="#6C6E6F" stroke-width="0.5"/>
<path d="M-26 166.213L566 166.213" stroke="#6C6E6F" stroke-width="0.5"/>
<path d="M-26 150.213L566 150.213" stroke="#6C6E6F" stroke-width="0.5"/>
<path d="M-26 134.213L566 134.213" stroke="#6C6E6F" stroke-width="0.5"/>
<path d="M-26 118.213L566 118.213" stroke="#6C6E6F" stroke-width="0.5"/>
<path d="M-26 102.213L566 102.213" stroke="#6C6E6F" stroke-width="0.5"/>
<path d="M-26 86.2129L566 86.2129" stroke="#6C6E6F" stroke-width="0.5"/>
<path d="M-26 70.2129L566 70.2129" stroke="#6C6E6F" stroke-width="0.5"/>
<path d="M-26 54.2129L566 54.2129" stroke="#6C6E6F" stroke-width="0.5"/>
<path d="M-26 38.2129L566 38.2129" stroke="#6C6E6F" stroke-width="0.5"/>
<path d="M-26 22.2129L566 22.2129" stroke="#6C6E6F" stroke-width="0.5"/>
<path d="M-26 6.21289L566 6.21286" stroke="#6C6E6F" stroke-width="0.5"/>
</g>
</g>
<g clip-path="url(#clip1_9047_109738)">
<rect x="48" y="48" width="440" height="314" rx="14.7867" fill="white"/>
<path d="M80 84C86.6274 84 92 78.6274 92 72C92 65.3726 86.6274 60 80 60C73.3726 60 68 65.3726 68 72C68 78.6274 73.3726 84 80 84Z" fill="#FFCB5C"/>
<path d="M85.7061 76.3892C85.7061 76.5056 85.6599 76.6173 85.5776 76.6996C85.4953 76.7819 85.3836 76.8281 85.2672 76.8281H74.7331C74.6167 76.8281 74.5051 76.7819 74.4227 76.6996C74.3404 76.6173 74.2942 76.5056 74.2942 76.3892V67.6108C74.2942 67.4944 74.3404 67.3827 74.4227 67.3004C74.5051 67.2181 74.6167 67.1719 74.7331 67.1719C74.8495 67.1719 74.9612 67.2181 75.0435 67.3004C75.1258 67.3827 75.172 67.4944 75.172 67.6108V73.5741L77.9339 70.8116C77.9747 70.7708 78.0231 70.7384 78.0764 70.7164C78.1297 70.6943 78.1868 70.6829 78.2445 70.6829C78.3022 70.6829 78.3593 70.6943 78.4126 70.7164C78.4658 70.7384 78.5142 70.7708 78.555 70.8116L80.0002 72.2573L82.891 69.3665H81.7558C81.6394 69.3665 81.5278 69.3202 81.4455 69.2379C81.3632 69.1556 81.3169 69.044 81.3169 68.9276C81.3169 68.8111 81.3632 68.6995 81.4455 68.6172C81.5278 68.5349 81.6394 68.4886 81.7558 68.4886H83.9504C84.0668 68.4886 84.1785 68.5349 84.2608 68.6172C84.3431 68.6995 84.3894 68.8111 84.3894 68.9276V71.1222C84.3894 71.2386 84.3431 71.3502 84.2608 71.4325C84.1785 71.5148 84.0668 71.5611 83.9504 71.5611C83.834 71.5611 83.7224 71.5148 83.6401 71.4325C83.5578 71.3502 83.5115 71.2386 83.5115 71.1222V69.987L80.3107 73.1884C80.2699 73.2292 80.2215 73.2616 80.1682 73.2836C80.115 73.3057 80.0578 73.3171 80.0002 73.3171C79.9425 73.3171 79.8854 73.3057 79.8321 73.2836C79.7788 73.2616 79.7304 73.2292 79.6896 73.1884L78.2445 71.7427L75.172 74.8151V75.9503H85.2672C85.3836 75.9503 85.4953 75.9965 85.5776 76.0788C85.6599 76.1612 85.7061 76.2728 85.7061 76.3892Z" fill="#0A0D0F"/>
<path d="M105.691 67.926V73.542C105.691 74.1573 105.851 74.6297 106.172 74.959C106.493 75.2797 106.943 75.44 107.524 75.44C108.113 75.44 108.568 75.2797 108.889 74.959C109.21 74.6297 109.37 74.1573 109.37 73.542V67.926H111.203V73.529C111.203 74.3003 111.034 74.9547 110.696 75.492C110.367 76.0207 109.92 76.4193 109.357 76.688C108.802 76.9567 108.183 77.091 107.498 77.091C106.822 77.091 106.207 76.9567 105.652 76.688C105.106 76.4193 104.673 76.0207 104.352 75.492C104.031 74.9547 103.871 74.3003 103.871 73.529V67.926H105.691ZM115.717 77.117C115.128 77.117 114.599 77.013 114.131 76.805C113.663 76.5883 113.291 76.298 113.013 75.934C112.745 75.57 112.597 75.167 112.571 74.725H114.404C114.439 75.0023 114.573 75.232 114.807 75.414C115.05 75.596 115.349 75.687 115.704 75.687C116.051 75.687 116.32 75.6177 116.51 75.479C116.71 75.3403 116.809 75.1627 116.809 74.946C116.809 74.712 116.688 74.5387 116.445 74.426C116.211 74.3047 115.834 74.1747 115.314 74.036C114.777 73.906 114.335 73.7717 113.988 73.633C113.65 73.4943 113.356 73.282 113.104 72.996C112.862 72.71 112.74 72.3243 112.74 71.839C112.74 71.4403 112.853 71.0763 113.078 70.747C113.312 70.4177 113.642 70.1577 114.066 69.967C114.5 69.7763 115.007 69.681 115.587 69.681C116.445 69.681 117.13 69.8977 117.641 70.331C118.153 70.7557 118.434 71.332 118.486 72.06H116.744C116.718 71.774 116.597 71.5487 116.38 71.384C116.172 71.2107 115.891 71.124 115.535 71.124C115.206 71.124 114.95 71.1847 114.768 71.306C114.595 71.4273 114.508 71.5963 114.508 71.813C114.508 72.0557 114.63 72.242 114.872 72.372C115.115 72.4933 115.492 72.619 116.003 72.749C116.523 72.879 116.952 73.0133 117.29 73.152C117.628 73.2907 117.919 73.5073 118.161 73.802C118.413 74.088 118.543 74.4693 118.551 74.946C118.551 75.362 118.434 75.7347 118.2 76.064C117.975 76.3933 117.646 76.6533 117.212 76.844C116.788 77.026 116.289 77.117 115.717 77.117ZM119.577 73.373C119.577 72.645 119.72 71.9993 120.006 71.436C120.301 70.8727 120.695 70.4393 121.189 70.136C121.692 69.8327 122.251 69.681 122.866 69.681C123.404 69.681 123.872 69.7893 124.27 70.006C124.678 70.2227 125.003 70.4957 125.245 70.825V69.798H127.078V77H125.245V75.947C125.011 76.285 124.686 76.5667 124.27 76.792C123.863 77.0087 123.391 77.117 122.853 77.117C122.247 77.117 121.692 76.961 121.189 76.649C120.695 76.337 120.301 75.8993 120.006 75.336C119.72 74.764 119.577 74.1097 119.577 73.373ZM125.245 73.399C125.245 72.957 125.159 72.58 124.985 72.268C124.812 71.9473 124.578 71.7047 124.283 71.54C123.989 71.3667 123.672 71.28 123.334 71.28C122.996 71.28 122.684 71.3623 122.398 71.527C122.112 71.6917 121.878 71.9343 121.696 72.255C121.523 72.567 121.436 72.9397 121.436 73.373C121.436 73.8063 121.523 74.1877 121.696 74.517C121.878 74.8377 122.112 75.0847 122.398 75.258C122.693 75.4313 123.005 75.518 123.334 75.518C123.672 75.518 123.989 75.4357 124.283 75.271C124.578 75.0977 124.812 74.855 124.985 74.543C125.159 74.2223 125.245 73.841 125.245 73.399ZM131.677 69.681C132.214 69.681 132.687 69.7893 133.094 70.006C133.501 70.214 133.822 70.487 134.056 70.825V69.798H135.889V77.052C135.889 77.7193 135.755 78.313 135.486 78.833C135.217 79.3617 134.814 79.7777 134.277 80.081C133.74 80.393 133.09 80.549 132.327 80.549C131.304 80.549 130.464 80.3107 129.805 79.834C129.155 79.3573 128.787 78.7073 128.7 77.884H130.507C130.602 78.2133 130.806 78.4733 131.118 78.664C131.439 78.8633 131.824 78.963 132.275 78.963C132.804 78.963 133.233 78.8027 133.562 78.482C133.891 78.17 134.056 77.6933 134.056 77.052V75.934C133.822 76.272 133.497 76.5537 133.081 76.779C132.674 77.0043 132.206 77.117 131.677 77.117C131.07 77.117 130.516 76.961 130.013 76.649C129.51 76.337 129.112 75.8993 128.817 75.336C128.531 74.764 128.388 74.1097 128.388 73.373C128.388 72.645 128.531 71.9993 128.817 71.436C129.112 70.8727 129.506 70.4393 130 70.136C130.503 69.8327 131.062 69.681 131.677 69.681ZM134.056 73.399C134.056 72.957 133.969 72.58 133.796 72.268C133.623 71.9473 133.389 71.7047 133.094 71.54C132.799 71.3667 132.483 71.28 132.145 71.28C131.807 71.28 131.495 71.3623 131.209 71.527C130.923 71.6917 130.689 71.9343 130.507 72.255C130.334 72.567 130.247 72.9397 130.247 73.373C130.247 73.8063 130.334 74.1877 130.507 74.517C130.689 74.8377 130.923 75.0847 131.209 75.258C131.504 75.4313 131.816 75.518 132.145 75.518C132.483 75.518 132.799 75.4357 133.094 75.271C133.389 75.0977 133.623 74.855 133.796 74.543C133.969 74.2223 134.056 73.841 134.056 73.399ZM144.362 73.243C144.362 73.503 144.344 73.737 144.31 73.945H139.045C139.088 74.465 139.27 74.8723 139.591 75.167C139.911 75.4617 140.306 75.609 140.774 75.609C141.45 75.609 141.931 75.3187 142.217 74.738H144.18C143.972 75.4313 143.573 76.0033 142.984 76.454C142.394 76.896 141.671 77.117 140.813 77.117C140.119 77.117 139.495 76.9653 138.941 76.662C138.395 76.35 137.966 75.9123 137.654 75.349C137.35 74.7857 137.199 74.1357 137.199 73.399C137.199 72.6537 137.35 71.9993 137.654 71.436C137.957 70.8727 138.382 70.4393 138.928 70.136C139.474 69.8327 140.102 69.681 140.813 69.681C141.497 69.681 142.108 69.8283 142.646 70.123C143.192 70.4177 143.612 70.838 143.907 71.384C144.21 71.9213 144.362 72.541 144.362 73.243ZM142.477 72.723C142.468 72.255 142.299 71.8823 141.97 71.605C141.64 71.319 141.237 71.176 140.761 71.176C140.31 71.176 139.929 71.3147 139.617 71.592C139.313 71.8607 139.127 72.2377 139.058 72.723H142.477ZM154.963 67.926V69.395H152.545V77H150.725V69.395H148.307V67.926H154.963ZM158.111 70.916C158.345 70.5347 158.648 70.2357 159.021 70.019C159.402 69.8023 159.835 69.694 160.321 69.694V71.605H159.84C159.268 71.605 158.834 71.7393 158.54 72.008C158.254 72.2767 158.111 72.7447 158.111 73.412V77H156.291V69.798H158.111V70.916ZM168.241 73.243C168.241 73.503 168.224 73.737 168.189 73.945H162.924C162.968 74.465 163.15 74.8723 163.47 75.167C163.791 75.4617 164.185 75.609 164.653 75.609C165.329 75.609 165.81 75.3187 166.096 74.738H168.059C167.851 75.4313 167.453 76.0033 166.863 76.454C166.274 76.896 165.55 77.117 164.692 77.117C163.999 77.117 163.375 76.9653 162.82 76.662C162.274 76.35 161.845 75.9123 161.533 75.349C161.23 74.7857 161.078 74.1357 161.078 73.399C161.078 72.6537 161.23 71.9993 161.533 71.436C161.837 70.8727 162.261 70.4393 162.807 70.136C163.353 69.8327 163.982 69.681 164.692 69.681C165.377 69.681 165.988 69.8283 166.525 70.123C167.071 70.4177 167.492 70.838 167.786 71.384C168.09 71.9213 168.241 72.541 168.241 73.243ZM166.356 72.723C166.348 72.255 166.179 71.8823 165.849 71.605C165.52 71.319 165.117 71.176 164.64 71.176C164.19 71.176 163.808 71.3147 163.496 71.592C163.193 71.8607 163.007 72.2377 162.937 72.723H166.356ZM173.561 69.694C174.419 69.694 175.112 69.967 175.641 70.513C176.17 71.0503 176.434 71.8043 176.434 72.775V77H174.614V73.022C174.614 72.45 174.471 72.0123 174.185 71.709C173.899 71.397 173.509 71.241 173.015 71.241C172.512 71.241 172.114 71.397 171.819 71.709C171.533 72.0123 171.39 72.45 171.39 73.022V77H169.57V69.798H171.39V70.695C171.633 70.383 171.94 70.1403 172.313 69.967C172.694 69.785 173.11 69.694 173.561 69.694ZM177.697 73.373C177.697 72.645 177.84 71.9993 178.126 71.436C178.42 70.8727 178.819 70.4393 179.322 70.136C179.824 69.8327 180.383 69.681 180.999 69.681C181.467 69.681 181.913 69.785 182.338 69.993C182.762 70.1923 183.1 70.461 183.352 70.799V67.38H185.198V77H183.352V75.934C183.126 76.2893 182.81 76.5753 182.403 76.792C181.995 77.0087 181.523 77.117 180.986 77.117C180.379 77.117 179.824 76.961 179.322 76.649C178.819 76.337 178.42 75.8993 178.126 75.336C177.84 74.764 177.697 74.1097 177.697 73.373ZM183.365 73.399C183.365 72.957 183.278 72.58 183.105 72.268C182.931 71.9473 182.697 71.7047 182.403 71.54C182.108 71.3667 181.792 71.28 181.454 71.28C181.116 71.28 180.804 71.3623 180.518 71.527C180.232 71.6917 179.998 71.9343 179.816 72.255C179.642 72.567 179.556 72.9397 179.556 73.373C179.556 73.8063 179.642 74.1877 179.816 74.517C179.998 74.8377 180.232 75.0847 180.518 75.258C180.812 75.4313 181.124 75.518 181.454 75.518C181.792 75.518 182.108 75.4357 182.403 75.271C182.697 75.0977 182.931 74.855 183.105 74.543C183.278 74.2223 183.365 73.841 183.365 73.399ZM191.893 70.851C192.127 70.5043 192.447 70.2227 192.855 70.006C193.271 69.7893 193.743 69.681 194.272 69.681C194.887 69.681 195.442 69.8327 195.936 70.136C196.438 70.4393 196.833 70.8727 197.119 71.436C197.413 71.9907 197.561 72.6363 197.561 73.373C197.561 74.1097 197.413 74.764 197.119 75.336C196.833 75.8993 196.438 76.337 195.936 76.649C195.442 76.961 194.887 77.117 194.272 77.117C193.734 77.117 193.262 77.013 192.855 76.805C192.456 76.5883 192.135 76.311 191.893 75.973V77H190.073V67.38H191.893V70.851ZM195.702 73.373C195.702 72.9397 195.611 72.567 195.429 72.255C195.255 71.9343 195.021 71.6917 194.727 71.527C194.441 71.3623 194.129 71.28 193.791 71.28C193.461 71.28 193.149 71.3667 192.855 71.54C192.569 71.7047 192.335 71.9473 192.153 72.268C191.979 72.5887 191.893 72.9657 191.893 73.399C191.893 73.8323 191.979 74.2093 192.153 74.53C192.335 74.8507 192.569 75.0977 192.855 75.271C193.149 75.4357 193.461 75.518 193.791 75.518C194.129 75.518 194.441 75.4313 194.727 75.258C195.021 75.0847 195.255 74.8377 195.429 74.517C195.611 74.1963 195.702 73.815 195.702 73.373ZM205.773 69.798L201.314 80.406H199.377L200.937 76.818L198.051 69.798H200.092L201.951 74.829L203.836 69.798H205.773ZM214.064 77.091C213.215 77.091 212.435 76.8917 211.724 76.493C211.013 76.0943 210.45 75.544 210.034 74.842C209.618 74.1313 209.41 73.3297 209.41 72.437C209.41 71.553 209.618 70.76 210.034 70.058C210.45 69.3473 211.013 68.7927 211.724 68.394C212.435 67.9953 213.215 67.796 214.064 67.796C214.922 67.796 215.702 67.9953 216.404 68.394C217.115 68.7927 217.674 69.3473 218.081 70.058C218.497 70.76 218.705 71.553 218.705 72.437C218.705 73.3297 218.497 74.1313 218.081 74.842C217.674 75.544 217.115 76.0943 216.404 76.493C215.693 76.8917 214.913 77.091 214.064 77.091ZM214.064 75.466C214.61 75.466 215.091 75.3447 215.507 75.102C215.923 74.8507 216.248 74.4953 216.482 74.036C216.716 73.5767 216.833 73.0437 216.833 72.437C216.833 71.8303 216.716 71.3017 216.482 70.851C216.248 70.3917 215.923 70.0407 215.507 69.798C215.091 69.5553 214.61 69.434 214.064 69.434C213.518 69.434 213.033 69.5553 212.608 69.798C212.192 70.0407 211.867 70.3917 211.633 70.851C211.399 71.3017 211.282 71.8303 211.282 72.437C211.282 73.0437 211.399 73.5767 211.633 74.036C211.867 74.4953 212.192 74.8507 212.608 75.102C213.033 75.3447 213.518 75.466 214.064 75.466ZM230.043 69.798L227.937 77H225.974L224.661 71.969L223.348 77H221.372L219.253 69.798H221.099L222.373 75.284L223.751 69.798H225.675L227.027 75.271L228.301 69.798H230.043ZM235.019 69.694C235.877 69.694 236.57 69.967 237.099 70.513C237.628 71.0503 237.892 71.8043 237.892 72.775V77H236.072V73.022C236.072 72.45 235.929 72.0123 235.643 71.709C235.357 71.397 234.967 71.241 234.473 71.241C233.97 71.241 233.572 71.397 233.277 71.709C232.991 72.0123 232.848 72.45 232.848 73.022V77H231.028V69.798H232.848V70.695C233.091 70.383 233.398 70.1403 233.771 69.967C234.152 69.785 234.568 69.694 235.019 69.694ZM246.318 73.243C246.318 73.503 246.3 73.737 246.266 73.945H241.001C241.044 74.465 241.226 74.8723 241.547 75.167C241.867 75.4617 242.262 75.609 242.73 75.609C243.406 75.609 243.887 75.3187 244.173 74.738H246.136C245.928 75.4313 245.529 76.0033 244.94 76.454C244.35 76.896 243.627 77.117 242.769 77.117C242.075 77.117 241.451 76.9653 240.897 76.662C240.351 76.35 239.922 75.9123 239.61 75.349C239.306 74.7857 239.155 74.1357 239.155 73.399C239.155 72.6537 239.306 71.9993 239.61 71.436C239.913 70.8727 240.338 70.4393 240.884 70.136C241.43 69.8327 242.058 69.681 242.769 69.681C243.453 69.681 244.064 69.8283 244.602 70.123C245.148 70.4177 245.568 70.838 245.863 71.384C246.166 71.9213 246.318 72.541 246.318 73.243ZM244.433 72.723C244.424 72.255 244.255 71.8823 243.926 71.605C243.596 71.319 243.193 71.176 242.717 71.176C242.266 71.176 241.885 71.3147 241.573 71.592C241.269 71.8607 241.083 72.2377 241.014 72.723H244.433ZM249.466 70.916C249.7 70.5347 250.003 70.2357 250.376 70.019C250.757 69.8023 251.191 69.694 251.676 69.694V71.605H251.195C250.623 71.605 250.19 71.7393 249.895 72.008C249.609 72.2767 249.466 72.7447 249.466 73.412V77L247.646 77V69.798H249.466V70.916Z" fill="#0A0D0F"/>
<rect x="373.373" y="60" width="24" height="24" rx="12" fill="#EBECEC"/>
<rect x="405.373" y="63" width="62.627" height="8" rx="4" fill="#F5F5F5"/>
<rect x="405.373" y="73" width="40.0137" height="8" rx="4" fill="#F5F5F5"/>
<path d="M68.444 121.812C68.444 120.996 68.632 120.264 69.008 119.616C69.392 118.968 69.908 118.464 70.556 118.104C71.212 117.736 71.928 117.552 72.704 117.552C73.592 117.552 74.38 117.772 75.068 118.212C75.764 118.644 76.268 119.26 76.58 120.06H74.936C74.72 119.62 74.42 119.292 74.036 119.076C73.652 118.86 73.208 118.752 72.704 118.752C72.152 118.752 71.66 118.876 71.228 119.124C70.796 119.372 70.456 119.728 70.208 120.192C69.968 120.656 69.848 121.196 69.848 121.812C69.848 122.428 69.968 122.968 70.208 123.432C70.456 123.896 70.796 124.256 71.228 124.512C71.66 124.76 72.152 124.884 72.704 124.884C73.208 124.884 73.652 124.776 74.036 124.56C74.42 124.344 74.72 124.016 74.936 123.576H76.58C76.268 124.376 75.764 124.992 75.068 125.424C74.38 125.856 73.592 126.072 72.704 126.072C71.92 126.072 71.204 125.892 70.556 125.532C69.908 125.164 69.392 124.656 69.008 124.008C68.632 123.36 68.444 122.628 68.444 121.812ZM84.2413 122.532C84.2413 122.78 84.2253 123.004 84.1933 123.204H79.1413C79.1813 123.732 79.3773 124.156 79.7293 124.476C80.0813 124.796 80.5133 124.956 81.0253 124.956C81.7613 124.956 82.2813 124.648 82.5853 124.032H84.0612C83.8613 124.64 83.4973 125.14 82.9693 125.532C82.4493 125.916 81.8013 126.108 81.0253 126.108C80.3933 126.108 79.8253 125.968 79.3213 125.688C78.8253 125.4 78.4333 125 78.1453 124.488C77.8653 123.968 77.7253 123.368 77.7253 122.688C77.7253 122.008 77.8613 121.412 78.1333 120.9C78.4133 120.38 78.8013 119.98 79.2973 119.7C79.8013 119.42 80.3773 119.28 81.0253 119.28C81.6493 119.28 82.2053 119.416 82.6933 119.688C83.1813 119.96 83.5613 120.344 83.8333 120.84C84.1053 121.328 84.2413 121.892 84.2413 122.532ZM82.8133 122.1C82.8053 121.596 82.6253 121.192 82.2733 120.888C81.9213 120.584 81.4853 120.432 80.9653 120.432C80.4933 120.432 80.0893 120.584 79.7533 120.888C79.4173 121.184 79.2173 121.588 79.1533 122.1H82.8133ZM88.9235 119.28C89.4435 119.28 89.9075 119.388 90.3155 119.604C90.7315 119.82 91.0555 120.14 91.2875 120.564C91.5195 120.988 91.6355 121.5 91.6355 122.1V126H90.2795V122.304C90.2795 121.712 90.1315 121.26 89.8355 120.948C89.5395 120.628 89.1355 120.468 88.6235 120.468C88.1115 120.468 87.7035 120.628 87.3995 120.948C87.1035 121.26 86.9555 121.712 86.9555 122.304V126H85.5875V119.388H86.9555V120.144C87.1795 119.872 87.4635 119.66 87.8075 119.508C88.1595 119.356 88.5315 119.28 88.9235 119.28ZM94.9765 120.504V124.164C94.9765 124.412 95.0325 124.592 95.1445 124.704C95.2645 124.808 95.4645 124.86 95.7445 124.86H96.5845V126H95.5045C94.8885 126 94.4165 125.856 94.0885 125.568C93.7605 125.28 93.5965 124.812 93.5965 124.164V120.504H92.8165V119.388H93.5965V117.744H94.9765V119.388H96.5845V120.504H94.9765ZM99.2133 120.348C99.4133 120.012 99.6773 119.752 100.005 119.568C100.341 119.376 100.737 119.28 101.193 119.28V120.696H100.845C100.309 120.696 99.9013 120.832 99.6213 121.104C99.3493 121.376 99.2133 121.848 99.2133 122.52V126H97.8453V119.388H99.2133V120.348ZM101.995 122.664C101.995 122 102.131 121.412 102.403 120.9C102.683 120.388 103.059 119.992 103.531 119.712C104.011 119.424 104.539 119.28 105.115 119.28C105.635 119.28 106.087 119.384 106.471 119.592C106.863 119.792 107.175 120.044 107.407 120.348V119.388H108.787V126H107.407V125.016C107.175 125.328 106.859 125.588 106.459 125.796C106.059 126.004 105.603 126.108 105.091 126.108C104.523 126.108 104.003 125.964 103.531 125.676C103.059 125.38 102.683 124.972 102.403 124.452C102.131 123.924 101.995 123.328 101.995 122.664ZM107.407 122.688C107.407 122.232 107.311 121.836 107.119 121.5C106.935 121.164 106.691 120.908 106.387 120.732C106.083 120.556 105.755 120.468 105.403 120.468C105.051 120.468 104.723 120.556 104.419 120.732C104.115 120.9 103.867 121.152 103.675 121.488C103.491 121.816 103.399 122.208 103.399 122.664C103.399 123.12 103.491 123.52 103.675 123.864C103.867 124.208 104.115 124.472 104.419 124.656C104.731 124.832 105.059 124.92 105.403 124.92C105.755 124.92 106.083 124.832 106.387 124.656C106.691 124.48 106.935 124.224 107.119 123.888C107.311 123.544 107.407 123.144 107.407 122.688ZM111.952 117.12V126H110.584V117.12H111.952ZM118.824 121.08V122.232H113.892V121.08H118.824ZM122.135 117.66V126H120.767V117.66H122.135ZM129.319 117.66V118.776H127.099V126H125.731V118.776H123.499V117.66H129.319ZM135.781 121.08V122.232H130.849V121.08H135.781ZM146.508 117.66V126H145.14V120.288L142.596 126H141.648L139.092 120.288V126H137.724V117.66H139.2L142.128 124.2L145.044 117.66H146.508ZM149.674 124.896H152.494V126H148.306V117.66H149.674V124.896ZM155.006 117.66V126H153.638V117.66H155.006ZM160.138 119.28C160.658 119.28 161.122 119.388 161.53 119.604C161.946 119.82 162.27 120.14 162.502 120.564C162.734 120.988 162.85 121.5 162.85 122.1V126H161.494V122.304C161.494 121.712 161.346 121.26 161.05 120.948C160.754 120.628 160.35 120.468 159.838 120.468C159.326 120.468 158.918 120.628 158.614 120.948C158.318 121.26 158.17 121.712 158.17 122.304V126H156.802V119.388H158.17V120.144C158.394 119.872 158.678 119.66 159.022 119.508C159.374 119.356 159.746 119.28 160.138 119.28ZM167.367 120.504H166.143V126H164.763V120.504H163.983V119.388H164.763V118.92C164.763 118.16 164.963 117.608 165.363 117.264C165.771 116.912 166.407 116.736 167.271 116.736V117.876C166.855 117.876 166.563 117.956 166.395 118.116C166.227 118.268 166.143 118.536 166.143 118.92V119.388H167.367V120.504ZM169.948 120.348C170.148 120.012 170.412 119.752 170.74 119.568C171.076 119.376 171.472 119.28 171.928 119.28V120.696H171.58C171.044 120.696 170.636 120.832 170.356 121.104C170.084 121.376 169.948 121.848 169.948 122.52V126H168.58V119.388H169.948V120.348ZM172.729 122.664C172.729 122 172.865 121.412 173.137 120.9C173.417 120.388 173.793 119.992 174.265 119.712C174.745 119.424 175.273 119.28 175.849 119.28C176.369 119.28 176.821 119.384 177.205 119.592C177.597 119.792 177.909 120.044 178.141 120.348V119.388H179.521V126H178.141V125.016C177.909 125.328 177.593 125.588 177.193 125.796C176.793 126.004 176.337 126.108 175.825 126.108C175.257 126.108 174.737 125.964 174.265 125.676C173.793 125.38 173.417 124.972 173.137 124.452C172.865 123.924 172.729 123.328 172.729 122.664ZM178.141 122.688C178.141 122.232 178.045 121.836 177.853 121.5C177.669 121.164 177.425 120.908 177.121 120.732C176.817 120.556 176.489 120.468 176.137 120.468C175.785 120.468 175.457 120.556 175.153 120.732C174.849 120.9 174.601 121.152 174.409 121.488C174.225 121.816 174.133 122.208 174.133 122.664C174.133 123.12 174.225 123.52 174.409 123.864C174.601 124.208 174.849 124.472 175.153 124.656C175.465 124.832 175.793 124.92 176.137 124.92C176.489 124.92 176.817 124.832 177.121 124.656C177.425 124.48 177.669 124.224 177.853 123.888C178.045 123.544 178.141 123.144 178.141 122.688Z" fill="#0A0D0F"/>
<g filter="url(#filter0_dddd_9047_109738)">
<rect x="300.5" y="106.5" width="59" height="31" rx="15.5" stroke="#9D9E9F"/>
<path d="M337.5 123.875V128.25C337.5 128.582 337.368 128.899 337.134 129.134C336.899 129.368 336.582 129.5 336.25 129.5H323.75C323.418 129.5 323.101 129.368 322.866 129.134C322.632 128.899 322.5 128.582 322.5 128.25V123.875C322.5 123.709 322.566 123.55 322.683 123.433C322.8 123.316 322.959 123.25 323.125 123.25C323.291 123.25 323.45 123.316 323.567 123.433C323.684 123.55 323.75 123.709 323.75 123.875V128.25H336.25V123.875C336.25 123.709 336.316 123.55 336.433 123.433C336.55 123.316 336.709 123.25 336.875 123.25C337.041 123.25 337.2 123.316 337.317 123.433C337.434 123.55 337.5 123.709 337.5 123.875ZM329.558 124.317C329.616 124.375 329.685 124.421 329.761 124.453C329.837 124.484 329.918 124.5 330 124.5C330.082 124.5 330.163 124.484 330.239 124.453C330.315 124.421 330.384 124.375 330.442 124.317L333.567 121.192C333.625 121.134 333.671 121.065 333.703 120.989C333.734 120.913 333.75 120.832 333.75 120.75C333.75 120.668 333.734 120.587 333.703 120.511C333.671 120.435 333.625 120.366 333.567 120.308C333.509 120.25 333.44 120.204 333.364 120.172C333.288 120.141 333.207 120.125 333.125 120.125C333.043 120.125 332.962 120.141 332.886 120.172C332.81 120.204 332.741 120.25 332.683 120.308L330.625 122.366V115.125C330.625 114.959 330.559 114.8 330.442 114.683C330.325 114.566 330.166 114.5 330 114.5C329.834 114.5 329.675 114.566 329.558 114.683C329.441 114.8 329.375 114.959 329.375 115.125V122.366L327.317 120.308C327.2 120.191 327.041 120.125 326.875 120.125C326.709 120.125 326.55 120.191 326.433 120.308C326.316 120.425 326.25 120.584 326.25 120.75C326.25 120.916 326.316 121.075 326.433 121.192L329.558 124.317Z" fill="#343330"/>
</g>
<rect x="372" y="106" width="96" height="32" rx="16" fill="#1C76FD"/>
<path d="M399.21 124.512H395.136L394.436 126.5H392.77L396.256 116.756H398.104L401.59 126.5H399.91L399.21 124.512ZM398.762 123.21L397.18 118.688L395.584 123.21H398.762ZM406.998 118.66C407.604 118.66 408.146 118.786 408.622 119.038C409.107 119.29 409.485 119.663 409.756 120.158C410.026 120.653 410.162 121.25 410.162 121.95V126.5H408.58V122.188C408.58 121.497 408.407 120.97 408.062 120.606C407.716 120.233 407.245 120.046 406.648 120.046C406.05 120.046 405.574 120.233 405.22 120.606C404.874 120.97 404.702 121.497 404.702 122.188V126.5H403.106V118.786H404.702V119.668C404.963 119.351 405.294 119.103 405.696 118.926C406.106 118.749 406.54 118.66 406.998 118.66ZM411.665 122.608C411.665 121.833 411.824 121.147 412.141 120.55C412.468 119.953 412.907 119.491 413.457 119.164C414.017 118.828 414.633 118.66 415.305 118.66C415.912 118.66 416.439 118.781 416.887 119.024C417.345 119.257 417.709 119.551 417.979 119.906V118.786H419.589V126.5H417.979V125.352C417.709 125.716 417.34 126.019 416.873 126.262C416.407 126.505 415.875 126.626 415.277 126.626C414.615 126.626 414.008 126.458 413.457 126.122C412.907 125.777 412.468 125.301 412.141 124.694C411.824 124.078 411.665 123.383 411.665 122.608ZM417.979 122.636C417.979 122.104 417.867 121.642 417.643 121.25C417.429 120.858 417.144 120.559 416.789 120.354C416.435 120.149 416.052 120.046 415.641 120.046C415.231 120.046 414.848 120.149 414.493 120.354C414.139 120.55 413.849 120.844 413.625 121.236C413.411 121.619 413.303 122.076 413.303 122.608C413.303 123.14 413.411 123.607 413.625 124.008C413.849 124.409 414.139 124.717 414.493 124.932C414.857 125.137 415.24 125.24 415.641 125.24C416.052 125.24 416.435 125.137 416.789 124.932C417.144 124.727 417.429 124.428 417.643 124.036C417.867 123.635 417.979 123.168 417.979 122.636ZM423.282 116.14V126.5H421.686V116.14H423.282ZM432.321 118.786L427.589 130.126H425.937L427.505 126.374L424.467 118.786H426.245L428.415 124.666L430.669 118.786H432.321ZM434.94 125.198H438.44V126.5H433.092V125.198L436.606 120.088H433.092V118.786H438.44V120.088L434.94 125.198ZM447.185 122.454C447.185 122.743 447.167 123.005 447.129 123.238H441.235C441.282 123.854 441.511 124.349 441.921 124.722C442.332 125.095 442.836 125.282 443.433 125.282C444.292 125.282 444.899 124.923 445.253 124.204H446.975C446.742 124.913 446.317 125.497 445.701 125.954C445.095 126.402 444.339 126.626 443.433 126.626C442.696 126.626 442.033 126.463 441.445 126.136C440.867 125.8 440.409 125.333 440.073 124.736C439.747 124.129 439.583 123.429 439.583 122.636C439.583 121.843 439.742 121.147 440.059 120.55C440.386 119.943 440.839 119.477 441.417 119.15C442.005 118.823 442.677 118.66 443.433 118.66C444.161 118.66 444.81 118.819 445.379 119.136C445.949 119.453 446.392 119.901 446.709 120.48C447.027 121.049 447.185 121.707 447.185 122.454ZM445.519 121.95C445.51 121.362 445.3 120.891 444.889 120.536C444.479 120.181 443.97 120.004 443.363 120.004C442.813 120.004 442.341 120.181 441.949 120.536C441.557 120.881 441.324 121.353 441.249 121.95H445.519Z" fill="white"/>
<rect x="68" y="148" width="400" height="194" rx="4" fill="#EBECEC"/>
<path d="M68 154.4C68 152.16 68 151.04 68.436 150.184C68.8195 149.431 69.4314 148.819 70.184 148.436C71.0397 148 72.1598 148 74.4 148H180V172H68V154.4Z" fill="#F5F5F5"/>
<path d="M86.732 158.144C86.732 158.568 86.632 158.968 86.432 159.344C86.232 159.72 85.912 160.028 85.472 160.268C85.032 160.5 84.468 160.616 83.78 160.616H82.268V164H80.9V155.66H83.78C84.42 155.66 84.96 155.772 85.4 155.996C85.848 156.212 86.18 156.508 86.396 156.884C86.62 157.26 86.732 157.68 86.732 158.144ZM83.78 159.5C84.3 159.5 84.688 159.384 84.944 159.152C85.2 158.912 85.328 158.576 85.328 158.144C85.328 157.232 84.812 156.776 83.78 156.776H82.268V159.5H83.78ZM89.4047 158.348C89.6047 158.012 89.8687 157.752 90.1967 157.568C90.5327 157.376 90.9287 157.28 91.3847 157.28V158.696H91.0367C90.5007 158.696 90.0927 158.832 89.8127 159.104C89.5407 159.376 89.4047 159.848 89.4047 160.52V164H88.0367V157.388H89.4047V158.348ZM95.5102 164.108C94.8862 164.108 94.3222 163.968 93.8182 163.688C93.3142 163.4 92.9182 163 92.6302 162.488C92.3422 161.968 92.1982 161.368 92.1982 160.688C92.1982 160.016 92.3462 159.42 92.6422 158.9C92.9382 158.38 93.3422 157.98 93.8542 157.7C94.3662 157.42 94.9382 157.28 95.5702 157.28C96.2022 157.28 96.7742 157.42 97.2862 157.7C97.7982 157.98 98.2022 158.38 98.4982 158.9C98.7942 159.42 98.9422 160.016 98.9422 160.688C98.9422 161.36 98.7902 161.956 98.4862 162.476C98.1822 162.996 97.7662 163.4 97.2382 163.688C96.7182 163.968 96.1422 164.108 95.5102 164.108ZM95.5102 162.92C95.8622 162.92 96.1902 162.836 96.4942 162.668C96.8062 162.5 97.0582 162.248 97.2502 161.912C97.4422 161.576 97.5382 161.168 97.5382 160.688C97.5382 160.208 97.4462 159.804 97.2622 159.476C97.0782 159.14 96.8342 158.888 96.5302 158.72C96.2262 158.552 95.8982 158.468 95.5462 158.468C95.1942 158.468 94.8662 158.552 94.5622 158.72C94.2662 158.888 94.0302 159.14 93.8542 159.476C93.6782 159.804 93.5902 160.208 93.5902 160.688C93.5902 161.4 93.7702 161.952 94.1302 162.344C94.4982 162.728 94.9582 162.92 95.5102 162.92ZM102.851 162.776L104.723 157.388H106.175L103.655 164H102.023L99.5145 157.388H100.979L102.851 162.776ZM107.905 156.512C107.657 156.512 107.449 156.428 107.281 156.26C107.113 156.092 107.029 155.884 107.029 155.636C107.029 155.388 107.113 155.18 107.281 155.012C107.449 154.844 107.657 154.76 107.905 154.76C108.145 154.76 108.349 154.844 108.517 155.012C108.685 155.18 108.769 155.388 108.769 155.636C108.769 155.884 108.685 156.092 108.517 156.26C108.349 156.428 108.145 156.512 107.905 156.512ZM108.577 157.388V164H107.209V157.388H108.577ZM109.917 160.664C109.917 160 110.053 159.412 110.325 158.9C110.605 158.388 110.981 157.992 111.453 157.712C111.933 157.424 112.465 157.28 113.049 157.28C113.481 157.28 113.905 157.376 114.321 157.568C114.745 157.752 115.081 158 115.329 158.312V155.12H116.709V164H115.329V163.004C115.105 163.324 114.793 163.588 114.393 163.796C114.001 164.004 113.549 164.108 113.037 164.108C112.461 164.108 111.933 163.964 111.453 163.676C110.981 163.38 110.605 162.972 110.325 162.452C110.053 161.924 109.917 161.328 109.917 160.664ZM115.329 160.688C115.329 160.232 115.233 159.836 115.041 159.5C114.857 159.164 114.613 158.908 114.309 158.732C114.005 158.556 113.677 158.468 113.325 158.468C112.973 158.468 112.645 158.556 112.341 158.732C112.037 158.9 111.789 159.152 111.597 159.488C111.413 159.816 111.321 160.208 111.321 160.664C111.321 161.12 111.413 161.52 111.597 161.864C111.789 162.208 112.037 162.472 112.341 162.656C112.653 162.832 112.981 162.92 113.325 162.92C113.677 162.92 114.005 162.832 114.309 162.656C114.613 162.48 114.857 162.224 115.041 161.888C115.233 161.544 115.329 161.144 115.329 160.688ZM124.565 160.532C124.565 160.78 124.549 161.004 124.517 161.204H119.465C119.505 161.732 119.701 162.156 120.053 162.476C120.405 162.796 120.837 162.956 121.349 162.956C122.085 162.956 122.605 162.648 122.909 162.032H124.385C124.185 162.64 123.821 163.14 123.293 163.532C122.773 163.916 122.125 164.108 121.349 164.108C120.717 164.108 120.149 163.968 119.645 163.688C119.149 163.4 118.757 163 118.469 162.488C118.189 161.968 118.049 161.368 118.049 160.688C118.049 160.008 118.185 159.412 118.457 158.9C118.737 158.38 119.125 157.98 119.621 157.7C120.125 157.42 120.701 157.28 121.349 157.28C121.973 157.28 122.529 157.416 123.017 157.688C123.505 157.96 123.885 158.344 124.157 158.84C124.429 159.328 124.565 159.892 124.565 160.532ZM123.137 160.1C123.129 159.596 122.949 159.192 122.597 158.888C122.245 158.584 121.809 158.432 121.289 158.432C120.817 158.432 120.413 158.584 120.077 158.888C119.741 159.184 119.541 159.588 119.477 160.1H123.137ZM127.28 158.348C127.48 158.012 127.744 157.752 128.072 157.568C128.408 157.376 128.804 157.28 129.26 157.28V158.696H128.912C128.376 158.696 127.968 158.832 127.688 159.104C127.416 159.376 127.28 159.848 127.28 160.52V164H125.912V157.388H127.28V158.348ZM132.917 164.108C132.397 164.108 131.929 164.016 131.513 163.832C131.105 163.64 130.781 163.384 130.541 163.064C130.301 162.736 130.173 162.372 130.157 161.972H131.573C131.597 162.252 131.729 162.488 131.969 162.68C132.217 162.864 132.525 162.956 132.893 162.956C133.277 162.956 133.573 162.884 133.781 162.74C133.997 162.588 134.105 162.396 134.105 162.164C134.105 161.916 133.985 161.732 133.745 161.612C133.513 161.492 133.141 161.36 132.629 161.216C132.133 161.08 131.729 160.948 131.417 160.82C131.105 160.692 130.833 160.496 130.601 160.232C130.377 159.968 130.265 159.62 130.265 159.188C130.265 158.836 130.369 158.516 130.577 158.228C130.785 157.932 131.081 157.7 131.465 157.532C131.857 157.364 132.305 157.28 132.809 157.28C133.561 157.28 134.165 157.472 134.621 157.856C135.085 158.232 135.333 158.748 135.365 159.404H133.997C133.973 159.108 133.853 158.872 133.637 158.696C133.421 158.52 133.129 158.432 132.761 158.432C132.401 158.432 132.125 158.5 131.933 158.636C131.741 158.772 131.645 158.952 131.645 159.176C131.645 159.352 131.709 159.5 131.837 159.62C131.965 159.74 132.121 159.836 132.305 159.908C132.489 159.972 132.761 160.056 133.121 160.16C133.601 160.288 133.993 160.42 134.297 160.556C134.609 160.684 134.877 160.876 135.101 161.132C135.325 161.388 135.441 161.728 135.449 162.152C135.449 162.528 135.345 162.864 135.137 163.16C134.929 163.456 134.633 163.688 134.249 163.856C133.873 164.024 133.429 164.108 132.917 164.108Z" fill="#242424"/>
<rect width="143" height="24" transform="translate(181 148)" fill="#F5F5F5"/>
<path d="M198.232 164L196.312 160.664H195.268V164H193.9V155.66H196.78C197.42 155.66 197.96 155.772 198.4 155.996C198.848 156.22 199.18 156.52 199.396 156.896C199.62 157.272 199.732 157.692 199.732 158.156C199.732 158.7 199.572 159.196 199.252 159.644C198.94 160.084 198.456 160.384 197.8 160.544L199.864 164H198.232ZM195.268 159.572H196.78C197.292 159.572 197.676 159.444 197.932 159.188C198.196 158.932 198.328 158.588 198.328 158.156C198.328 157.724 198.2 157.388 197.944 157.148C197.688 156.9 197.3 156.776 196.78 156.776H195.268V159.572ZM207.542 160.532C207.542 160.78 207.526 161.004 207.494 161.204H202.442C202.482 161.732 202.678 162.156 203.03 162.476C203.382 162.796 203.814 162.956 204.326 162.956C205.062 162.956 205.582 162.648 205.886 162.032H207.362C207.162 162.64 206.798 163.14 206.27 163.532C205.75 163.916 205.102 164.108 204.326 164.108C203.694 164.108 203.126 163.968 202.622 163.688C202.126 163.4 201.734 163 201.446 162.488C201.166 161.968 201.026 161.368 201.026 160.688C201.026 160.008 201.162 159.412 201.434 158.9C201.714 158.38 202.102 157.98 202.598 157.7C203.102 157.42 203.678 157.28 204.326 157.28C204.95 157.28 205.506 157.416 205.994 157.688C206.482 157.96 206.862 158.344 207.134 158.84C207.406 159.328 207.542 159.892 207.542 160.532ZM206.114 160.1C206.106 159.596 205.926 159.192 205.574 158.888C205.222 158.584 204.786 158.432 204.266 158.432C203.794 158.432 203.39 158.584 203.054 158.888C202.718 159.184 202.518 159.588 202.454 160.1H206.114ZM211.288 164.108C210.768 164.108 210.3 164.016 209.884 163.832C209.476 163.64 209.152 163.384 208.912 163.064C208.672 162.736 208.544 162.372 208.528 161.972H209.944C209.968 162.252 210.1 162.488 210.34 162.68C210.588 162.864 210.896 162.956 211.264 162.956C211.648 162.956 211.944 162.884 212.152 162.74C212.368 162.588 212.476 162.396 212.476 162.164C212.476 161.916 212.356 161.732 212.116 161.612C211.884 161.492 211.512 161.36 211 161.216C210.504 161.08 210.1 160.948 209.788 160.82C209.476 160.692 209.204 160.496 208.972 160.232C208.748 159.968 208.636 159.62 208.636 159.188C208.636 158.836 208.74 158.516 208.948 158.228C209.156 157.932 209.452 157.7 209.836 157.532C210.228 157.364 210.676 157.28 211.18 157.28C211.932 157.28 212.536 157.472 212.992 157.856C213.456 158.232 213.704 158.748 213.736 159.404H212.368C212.344 159.108 212.224 158.872 212.008 158.696C211.792 158.52 211.5 158.432 211.132 158.432C210.772 158.432 210.496 158.5 210.304 158.636C210.112 158.772 210.016 158.952 210.016 159.176C210.016 159.352 210.08 159.5 210.208 159.62C210.336 159.74 210.492 159.836 210.676 159.908C210.86 159.972 211.132 160.056 211.492 160.16C211.972 160.288 212.364 160.42 212.668 160.556C212.98 160.684 213.248 160.876 213.472 161.132C213.696 161.388 213.812 161.728 213.82 162.152C213.82 162.528 213.716 162.864 213.508 163.16C213.3 163.456 213.004 163.688 212.62 163.856C212.244 164.024 211.8 164.108 211.288 164.108ZM218.166 164.108C217.542 164.108 216.978 163.968 216.474 163.688C215.97 163.4 215.574 163 215.286 162.488C214.998 161.968 214.854 161.368 214.854 160.688C214.854 160.016 215.002 159.42 215.298 158.9C215.594 158.38 215.998 157.98 216.51 157.7C217.022 157.42 217.594 157.28 218.226 157.28C218.858 157.28 219.43 157.42 219.942 157.7C220.454 157.98 220.858 158.38 221.154 158.9C221.45 159.42 221.598 160.016 221.598 160.688C221.598 161.36 221.446 161.956 221.142 162.476C220.838 162.996 220.422 163.4 219.894 163.688C219.374 163.968 218.798 164.108 218.166 164.108ZM218.166 162.92C218.518 162.92 218.846 162.836 219.15 162.668C219.462 162.5 219.714 162.248 219.906 161.912C220.098 161.576 220.194 161.168 220.194 160.688C220.194 160.208 220.102 159.804 219.918 159.476C219.734 159.14 219.49 158.888 219.186 158.72C218.882 158.552 218.554 158.468 218.202 158.468C217.85 158.468 217.522 158.552 217.218 158.72C216.922 158.888 216.686 159.14 216.51 159.476C216.334 159.804 216.246 160.208 216.246 160.688C216.246 161.4 216.426 161.952 216.786 162.344C217.154 162.728 217.614 162.92 218.166 162.92ZM228.939 157.388V164H227.571V163.22C227.355 163.492 227.071 163.708 226.719 163.868C226.375 164.02 226.007 164.096 225.615 164.096C225.095 164.096 224.627 163.988 224.211 163.772C223.803 163.556 223.479 163.236 223.239 162.812C223.007 162.388 222.891 161.876 222.891 161.276V157.388H224.247V161.072C224.247 161.664 224.395 162.12 224.691 162.44C224.987 162.752 225.391 162.908 225.903 162.908C226.415 162.908 226.819 162.752 227.115 162.44C227.419 162.12 227.571 161.664 227.571 161.072V157.388H228.939ZM232.112 158.348C232.312 158.012 232.576 157.752 232.904 157.568C233.24 157.376 233.636 157.28 234.092 157.28V158.696H233.744C233.208 158.696 232.8 158.832 232.52 159.104C232.248 159.376 232.112 159.848 232.112 160.52V164H230.744V157.388H232.112V158.348ZM234.893 160.688C234.893 160.008 235.029 159.412 235.301 158.9C235.581 158.38 235.965 157.98 236.453 157.7C236.941 157.42 237.501 157.28 238.133 157.28C238.933 157.28 239.593 157.472 240.113 157.856C240.641 158.232 240.997 158.772 241.181 159.476H239.705C239.585 159.148 239.393 158.892 239.129 158.708C238.865 158.524 238.533 158.432 238.133 158.432C237.573 158.432 237.125 158.632 236.789 159.032C236.461 159.424 236.297 159.976 236.297 160.688C236.297 161.4 236.461 161.956 236.789 162.356C237.125 162.756 237.573 162.956 238.133 162.956C238.925 162.956 239.449 162.608 239.705 161.912H241.181C240.989 162.584 240.629 163.12 240.101 163.52C239.573 163.912 238.917 164.108 238.133 164.108C237.501 164.108 236.941 163.968 236.453 163.688C235.965 163.4 235.581 163 235.301 162.488C235.029 161.968 234.893 161.368 234.893 160.688ZM248.605 160.532C248.605 160.78 248.589 161.004 248.557 161.204H243.505C243.545 161.732 243.741 162.156 244.093 162.476C244.445 162.796 244.877 162.956 245.389 162.956C246.125 162.956 246.645 162.648 246.949 162.032H248.425C248.225 162.64 247.861 163.14 247.333 163.532C246.813 163.916 246.165 164.108 245.389 164.108C244.757 164.108 244.189 163.968 243.685 163.688C243.189 163.4 242.797 163 242.509 162.488C242.229 161.968 242.089 161.368 242.089 160.688C242.089 160.008 242.225 159.412 242.497 158.9C242.777 158.38 243.165 157.98 243.661 157.7C244.165 157.42 244.741 157.28 245.389 157.28C246.013 157.28 246.569 157.416 247.057 157.688C247.545 157.96 247.925 158.344 248.197 158.84C248.469 159.328 248.605 159.892 248.605 160.532ZM247.177 160.1C247.169 159.596 246.989 159.192 246.637 158.888C246.285 158.584 245.849 158.432 245.329 158.432C244.857 158.432 244.453 158.584 244.117 158.888C243.781 159.184 243.581 159.588 243.517 160.1H247.177ZM252.351 164.108C251.831 164.108 251.363 164.016 250.947 163.832C250.539 163.64 250.215 163.384 249.975 163.064C249.735 162.736 249.607 162.372 249.591 161.972H251.007C251.031 162.252 251.163 162.488 251.403 162.68C251.651 162.864 251.959 162.956 252.327 162.956C252.711 162.956 253.007 162.884 253.215 162.74C253.431 162.588 253.539 162.396 253.539 162.164C253.539 161.916 253.419 161.732 253.179 161.612C252.947 161.492 252.575 161.36 252.063 161.216C251.567 161.08 251.163 160.948 250.851 160.82C250.539 160.692 250.267 160.496 250.035 160.232C249.811 159.968 249.699 159.62 249.699 159.188C249.699 158.836 249.803 158.516 250.011 158.228C250.219 157.932 250.515 157.7 250.899 157.532C251.291 157.364 251.739 157.28 252.243 157.28C252.995 157.28 253.599 157.472 254.055 157.856C254.519 158.232 254.767 158.748 254.799 159.404H253.431C253.407 159.108 253.287 158.872 253.071 158.696C252.855 158.52 252.563 158.432 252.195 158.432C251.835 158.432 251.559 158.5 251.367 158.636C251.175 158.772 251.079 158.952 251.079 159.176C251.079 159.352 251.143 159.5 251.271 159.62C251.399 159.74 251.555 159.836 251.739 159.908C251.923 159.972 252.195 160.056 252.555 160.16C253.035 160.288 253.427 160.42 253.731 160.556C254.043 160.684 254.311 160.876 254.535 161.132C254.759 161.388 254.875 161.728 254.883 162.152C254.883 162.528 254.779 162.864 254.571 163.16C254.363 163.456 254.067 163.688 253.683 163.856C253.307 164.024 252.863 164.108 252.351 164.108Z" fill="#242424"/>
<path d="M325 148H461.6C463.84 148 464.96 148 465.816 148.436C466.569 148.819 467.181 149.431 467.564 150.184C468 151.04 468 152.16 468 154.4V172H325V148Z" fill="#F5F5F5"/>
<path d="M337.444 159.812C337.444 158.996 337.632 158.264 338.008 157.616C338.392 156.968 338.908 156.464 339.556 156.104C340.212 155.736 340.928 155.552 341.704 155.552C342.592 155.552 343.38 155.772 344.068 156.212C344.764 156.644 345.268 157.26 345.58 158.06H343.936C343.72 157.62 343.42 157.292 343.036 157.076C342.652 156.86 342.208 156.752 341.704 156.752C341.152 156.752 340.66 156.876 340.228 157.124C339.796 157.372 339.456 157.728 339.208 158.192C338.968 158.656 338.848 159.196 338.848 159.812C338.848 160.428 338.968 160.968 339.208 161.432C339.456 161.896 339.796 162.256 340.228 162.512C340.66 162.76 341.152 162.884 341.704 162.884C342.208 162.884 342.652 162.776 343.036 162.56C343.42 162.344 343.72 162.016 343.936 161.576H345.58C345.268 162.376 344.764 162.992 344.068 163.424C343.38 163.856 342.592 164.072 341.704 164.072C340.92 164.072 340.204 163.892 339.556 163.532C338.908 163.164 338.392 162.656 338.008 162.008C337.632 161.36 337.444 160.628 337.444 159.812ZM350.049 164.108C349.425 164.108 348.861 163.968 348.357 163.688C347.853 163.4 347.457 163 347.169 162.488C346.881 161.968 346.737 161.368 346.737 160.688C346.737 160.016 346.885 159.42 347.181 158.9C347.477 158.38 347.881 157.98 348.393 157.7C348.905 157.42 349.477 157.28 350.109 157.28C350.741 157.28 351.313 157.42 351.825 157.7C352.337 157.98 352.741 158.38 353.037 158.9C353.333 159.42 353.481 160.016 353.481 160.688C353.481 161.36 353.329 161.956 353.025 162.476C352.721 162.996 352.305 163.4 351.777 163.688C351.257 163.968 350.681 164.108 350.049 164.108ZM350.049 162.92C350.401 162.92 350.729 162.836 351.033 162.668C351.345 162.5 351.597 162.248 351.789 161.912C351.981 161.576 352.077 161.168 352.077 160.688C352.077 160.208 351.985 159.804 351.801 159.476C351.617 159.14 351.373 158.888 351.069 158.72C350.765 158.552 350.437 158.468 350.085 158.468C349.733 158.468 349.405 158.552 349.101 158.72C348.805 158.888 348.569 159.14 348.393 159.476C348.217 159.804 348.129 160.208 348.129 160.688C348.129 161.4 348.309 161.952 348.669 162.344C349.037 162.728 349.497 162.92 350.049 162.92ZM358.17 157.28C358.69 157.28 359.154 157.388 359.562 157.604C359.978 157.82 360.302 158.14 360.534 158.564C360.766 158.988 360.882 159.5 360.882 160.1V164H359.526V160.304C359.526 159.712 359.378 159.26 359.082 158.948C358.786 158.628 358.382 158.468 357.87 158.468C357.358 158.468 356.95 158.628 356.646 158.948C356.35 159.26 356.202 159.712 356.202 160.304V164H354.834V157.388H356.202V158.144C356.426 157.872 356.71 157.66 357.054 157.508C357.406 157.356 357.778 157.28 358.17 157.28ZM365.027 164.108C364.507 164.108 364.039 164.016 363.623 163.832C363.215 163.64 362.891 163.384 362.651 163.064C362.411 162.736 362.283 162.372 362.267 161.972H363.683C363.707 162.252 363.839 162.488 364.079 162.68C364.327 162.864 364.635 162.956 365.003 162.956C365.387 162.956 365.683 162.884 365.891 162.74C366.107 162.588 366.215 162.396 366.215 162.164C366.215 161.916 366.095 161.732 365.855 161.612C365.623 161.492 365.251 161.36 364.739 161.216C364.243 161.08 363.839 160.948 363.527 160.82C363.215 160.692 362.943 160.496 362.711 160.232C362.487 159.968 362.375 159.62 362.375 159.188C362.375 158.836 362.479 158.516 362.687 158.228C362.895 157.932 363.191 157.7 363.575 157.532C363.967 157.364 364.415 157.28 364.919 157.28C365.671 157.28 366.275 157.472 366.731 157.856C367.195 158.232 367.443 158.748 367.475 159.404H366.107C366.083 159.108 365.963 158.872 365.747 158.696C365.531 158.52 365.239 158.432 364.871 158.432C364.511 158.432 364.235 158.5 364.043 158.636C363.851 158.772 363.755 158.952 363.755 159.176C363.755 159.352 363.819 159.5 363.947 159.62C364.075 159.74 364.231 159.836 364.415 159.908C364.599 159.972 364.871 160.056 365.231 160.16C365.711 160.288 366.103 160.42 366.407 160.556C366.719 160.684 366.987 160.876 367.211 161.132C367.435 161.388 367.551 161.728 367.559 162.152C367.559 162.528 367.455 162.864 367.247 163.16C367.039 163.456 366.743 163.688 366.359 163.856C365.983 164.024 365.539 164.108 365.027 164.108ZM375.025 157.388V164H373.657V163.22C373.441 163.492 373.157 163.708 372.805 163.868C372.461 164.02 372.093 164.096 371.701 164.096C371.181 164.096 370.713 163.988 370.297 163.772C369.889 163.556 369.565 163.236 369.325 162.812C369.093 162.388 368.977 161.876 368.977 161.276V157.388H370.333V161.072C370.333 161.664 370.481 162.12 370.777 162.44C371.073 162.752 371.477 162.908 371.989 162.908C372.501 162.908 372.905 162.752 373.201 162.44C373.505 162.12 373.657 161.664 373.657 161.072V157.388H375.025ZM384.834 157.28C385.354 157.28 385.818 157.388 386.226 157.604C386.642 157.82 386.966 158.14 387.198 158.564C387.438 158.988 387.558 159.5 387.558 160.1V164H386.202V160.304C386.202 159.712 386.054 159.26 385.758 158.948C385.462 158.628 385.058 158.468 384.546 158.468C384.034 158.468 383.626 158.628 383.322 158.948C383.026 159.26 382.878 159.712 382.878 160.304V164H381.522V160.304C381.522 159.712 381.374 159.26 381.078 158.948C380.782 158.628 380.378 158.468 379.866 158.468C379.354 158.468 378.946 158.628 378.642 158.948C378.346 159.26 378.198 159.712 378.198 160.304V164H376.83V157.388H378.198V158.144C378.422 157.872 378.706 157.66 379.05 157.508C379.394 157.356 379.762 157.28 380.154 157.28C380.682 157.28 381.154 157.392 381.57 157.616C381.986 157.84 382.306 158.164 382.53 158.588C382.73 158.188 383.042 157.872 383.466 157.64C383.89 157.4 384.346 157.28 384.834 157.28ZM395.358 160.532C395.358 160.78 395.342 161.004 395.31 161.204H390.258C390.298 161.732 390.494 162.156 390.846 162.476C391.198 162.796 391.63 162.956 392.142 162.956C392.878 162.956 393.398 162.648 393.702 162.032H395.178C394.978 162.64 394.614 163.14 394.086 163.532C393.566 163.916 392.918 164.108 392.142 164.108C391.51 164.108 390.942 163.968 390.438 163.688C389.942 163.4 389.55 163 389.262 162.488C388.982 161.968 388.842 161.368 388.842 160.688C388.842 160.008 388.978 159.412 389.25 158.9C389.53 158.38 389.918 157.98 390.414 157.7C390.918 157.42 391.494 157.28 392.142 157.28C392.766 157.28 393.322 157.416 393.81 157.688C394.298 157.96 394.678 158.344 394.95 158.84C395.222 159.328 395.358 159.892 395.358 160.532ZM393.93 160.1C393.922 159.596 393.742 159.192 393.39 158.888C393.038 158.584 392.602 158.432 392.082 158.432C391.61 158.432 391.206 158.584 390.87 158.888C390.534 159.184 390.334 159.588 390.27 160.1H393.93ZM398.073 158.348C398.273 158.012 398.537 157.752 398.865 157.568C399.201 157.376 399.597 157.28 400.053 157.28V158.696H399.705C399.169 158.696 398.761 158.832 398.481 159.104C398.209 159.376 398.073 159.848 398.073 160.52V164H396.705V157.388H398.073V158.348Z" fill="#242424"/>
<rect width="112" height="84" transform="translate(68 173)" fill="#F5F5F5"/>
<path d="M85.928 204.296H82.436L81.836 206H80.408L83.396 197.648H84.98L87.968 206H86.528L85.928 204.296ZM85.544 203.18L84.188 199.304L82.82 203.18H85.544ZM97.2712 199.28C97.7912 199.28 98.2552 199.388 98.6632 199.604C99.0792 199.82 99.4032 200.14 99.6352 200.564C99.8752 200.988 99.9952 201.5 99.9952 202.1V206H98.6392V202.304C98.6392 201.712 98.4912 201.26 98.1952 200.948C97.8992 200.628 97.4952 200.468 96.9832 200.468C96.4712 200.468 96.0632 200.628 95.7592 200.948C95.4632 201.26 95.3152 201.712 95.3152 202.304V206H93.9592V202.304C93.9592 201.712 93.8112 201.26 93.5152 200.948C93.2192 200.628 92.8152 200.468 92.3032 200.468C91.7912 200.468 91.3832 200.628 91.0792 200.948C90.7832 201.26 90.6352 201.712 90.6352 202.304V206H89.2672V199.388H90.6352V200.144C90.8592 199.872 91.1432 199.66 91.4872 199.508C91.8312 199.356 92.1992 199.28 92.5912 199.28C93.1192 199.28 93.5912 199.392 94.0072 199.616C94.4232 199.84 94.7432 200.164 94.9672 200.588C95.1672 200.188 95.4792 199.872 95.9032 199.64C96.3272 199.4 96.7832 199.28 97.2712 199.28ZM101.28 202.664C101.28 202 101.416 201.412 101.688 200.9C101.968 200.388 102.344 199.992 102.816 199.712C103.296 199.424 103.824 199.28 104.4 199.28C104.92 199.28 105.372 199.384 105.756 199.592C106.148 199.792 106.46 200.044 106.692 200.348V199.388H108.072V206H106.692V205.016C106.46 205.328 106.144 205.588 105.744 205.796C105.344 206.004 104.888 206.108 104.376 206.108C103.808 206.108 103.288 205.964 102.816 205.676C102.344 205.38 101.968 204.972 101.688 204.452C101.416 203.924 101.28 203.328 101.28 202.664ZM106.692 202.688C106.692 202.232 106.596 201.836 106.404 201.5C106.22 201.164 105.976 200.908 105.672 200.732C105.368 200.556 105.04 200.468 104.688 200.468C104.336 200.468 104.008 200.556 103.704 200.732C103.4 200.9 103.152 201.152 102.96 201.488C102.776 201.816 102.684 202.208 102.684 202.664C102.684 203.12 102.776 203.52 102.96 203.864C103.152 204.208 103.4 204.472 103.704 204.656C104.016 204.832 104.344 204.92 104.688 204.92C105.04 204.92 105.368 204.832 105.672 204.656C105.976 204.48 106.22 204.224 106.404 203.888C106.596 203.544 106.692 203.144 106.692 202.688ZM111.081 204.884H114.081V206H109.497V204.884L112.509 200.504H109.497V199.388H114.081V200.504L111.081 204.884ZM118.385 206.108C117.761 206.108 117.197 205.968 116.693 205.688C116.189 205.4 115.793 205 115.505 204.488C115.217 203.968 115.073 203.368 115.073 202.688C115.073 202.016 115.221 201.42 115.517 200.9C115.813 200.38 116.217 199.98 116.729 199.7C117.241 199.42 117.813 199.28 118.445 199.28C119.077 199.28 119.649 199.42 120.161 199.7C120.673 199.98 121.077 200.38 121.373 200.9C121.669 201.42 121.817 202.016 121.817 202.688C121.817 203.36 121.665 203.956 121.361 204.476C121.057 204.996 120.641 205.4 120.113 205.688C119.593 205.968 119.017 206.108 118.385 206.108ZM118.385 204.92C118.737 204.92 119.065 204.836 119.369 204.668C119.681 204.5 119.933 204.248 120.125 203.912C120.317 203.576 120.413 203.168 120.413 202.688C120.413 202.208 120.321 201.804 120.137 201.476C119.953 201.14 119.709 200.888 119.405 200.72C119.101 200.552 118.773 200.468 118.421 200.468C118.069 200.468 117.741 200.552 117.437 200.72C117.141 200.888 116.905 201.14 116.729 201.476C116.553 201.804 116.465 202.208 116.465 202.688C116.465 203.4 116.645 203.952 117.005 204.344C117.373 204.728 117.833 204.92 118.385 204.92ZM126.506 199.28C127.026 199.28 127.49 199.388 127.898 199.604C128.314 199.82 128.638 200.14 128.87 200.564C129.102 200.988 129.218 201.5 129.218 202.1V206H127.862V202.304C127.862 201.712 127.714 201.26 127.418 200.948C127.122 200.628 126.718 200.468 126.206 200.468C125.694 200.468 125.286 200.628 124.982 200.948C124.686 201.26 124.538 201.712 124.538 202.304V206H123.17V199.388H124.538V200.144C124.762 199.872 125.046 199.66 125.39 199.508C125.742 199.356 126.114 199.28 126.506 199.28Z" fill="#6C6E6F"/>
<g clip-path="url(#clip2_9047_109738)">
<rect width="143" height="84" transform="translate(181 173)" fill="#F5F5F5"/>
<rect x="193" y="193" width="144" height="9" rx="4.5" fill="#EBECEC"/>
<rect x="193" y="212" width="144" height="9" rx="4.5" fill="#EBECEC"/>
<rect x="193" y="231" width="117.226" height="9" rx="4.5" fill="#EBECEC"/>
</g>
<g clip-path="url(#clip3_9047_109738)">
<rect width="143" height="84" transform="translate(325 173)" fill="#F5F5F5"/>
<rect x="337" y="193" width="144" height="9" rx="4.5" fill="#EBECEC"/>
<rect x="337" y="212" width="144" height="9" rx="4.5" fill="#EBECEC"/>
<rect x="337" y="231" width="117.226" height="9" rx="4.5" fill="#EBECEC"/>
</g>
<path d="M68 258H180V342H74.4C72.1598 342 71.0397 342 70.184 341.564C69.4314 341.181 68.8195 340.569 68.436 339.816C68 338.96 68 337.84 68 335.6V258Z" fill="#F5F5F5"/>
<path d="M85.928 289.296H82.436L81.836 291H80.408L83.396 282.648H84.98L87.968 291H86.528L85.928 289.296ZM85.544 288.18L84.188 284.304L82.82 288.18H85.544ZM90.4792 289.884H93.4792V291H88.8952V289.884L91.9072 285.504H88.8952V284.388H93.4792V285.504L90.4792 289.884ZM100.904 284.388V291H99.5356V290.22C99.3196 290.492 99.0356 290.708 98.6836 290.868C98.3396 291.02 97.9716 291.096 97.5796 291.096C97.0596 291.096 96.5916 290.988 96.1756 290.772C95.7676 290.556 95.4436 290.236 95.2036 289.812C94.9716 289.388 94.8556 288.876 94.8556 288.276V284.388H96.2116V288.072C96.2116 288.664 96.3596 289.12 96.6556 289.44C96.9516 289.752 97.3556 289.908 97.8676 289.908C98.3796 289.908 98.7836 289.752 99.0796 289.44C99.3836 289.12 99.5356 288.664 99.5356 288.072V284.388H100.904ZM104.077 285.348C104.277 285.012 104.541 284.752 104.869 284.568C105.205 284.376 105.601 284.28 106.057 284.28V285.696H105.709C105.173 285.696 104.765 285.832 104.485 286.104C104.213 286.376 104.077 286.848 104.077 287.52V291H102.709V284.388H104.077V285.348ZM113.374 287.532C113.374 287.78 113.358 288.004 113.326 288.204H108.274C108.314 288.732 108.51 289.156 108.862 289.476C109.214 289.796 109.646 289.956 110.158 289.956C110.894 289.956 111.414 289.648 111.718 289.032H113.194C112.994 289.64 112.63 290.14 112.102 290.532C111.582 290.916 110.934 291.108 110.158 291.108C109.526 291.108 108.958 290.968 108.454 290.688C107.958 290.4 107.566 290 107.278 289.488C106.998 288.968 106.858 288.368 106.858 287.688C106.858 287.008 106.994 286.412 107.266 285.9C107.546 285.38 107.934 284.98 108.43 284.7C108.934 284.42 109.51 284.28 110.158 284.28C110.782 284.28 111.338 284.416 111.826 284.688C112.314 284.96 112.694 285.344 112.966 285.84C113.238 286.328 113.374 286.892 113.374 287.532ZM111.946 287.1C111.938 286.596 111.758 286.192 111.406 285.888C111.054 285.584 110.618 285.432 110.098 285.432C109.626 285.432 109.222 285.584 108.886 285.888C108.55 286.184 108.35 286.588 108.286 287.1H111.946Z" fill="#6C6E6F"/>
<g clip-path="url(#clip4_9047_109738)">
<rect width="143" height="84" transform="translate(181 258)" fill="#F5F5F5"/>
<rect x="193" y="278" width="144" height="9" rx="4.5" fill="#EBECEC"/>
<rect x="193" y="297" width="144" height="9" rx="4.5" fill="#EBECEC"/>
<rect x="193" y="316" width="117.226" height="9" rx="4.5" fill="#EBECEC"/>
</g>
<g clip-path="url(#clip5_9047_109738)">
<path d="M325 258H468V335.6C468 337.84 468 338.96 467.564 339.816C467.181 340.569 466.569 341.181 465.816 341.564C464.96 342 463.84 342 461.6 342H325V258Z" fill="#F5F5F5"/>
<rect x="337" y="278" width="144" height="9" rx="4.5" fill="#EBECEC"/>
<rect x="337" y="297" width="144" height="9" rx="4.5" fill="#EBECEC"/>
<rect x="337" y="316" width="117.226" height="9" rx="4.5" fill="#EBECEC"/>
</g>
<path d="M48 94H691.662" stroke="#EBECEC"/>
</g>
<rect x="48.3759" y="48.3759" width="439.248" height="313.248" rx="14.4109" stroke="#EBECEC" stroke-width="0.75171"/>
<g filter="url(#filter1_f_9047_109738)">
<path d="M204 386V180.359C204 172.627 210.268 166.359 218 166.359H563.52C571.252 166.359 577.52 172.627 577.52 180.359V386C577.52 393.732 571.252 400 563.52 400H218C210.268 400 204 393.732 204 386Z" fill="#595B5D" fill-opacity="0.4"/>
</g>
<rect x="227.268" y="183.606" width="351.248" height="200.248" rx="14.4109" fill="#FEFEFE"/>
<rect x="227.268" y="183.606" width="351.248" height="200.248" rx="14.4109" stroke="#EBECEC" stroke-width="0.75171"/>
<path d="M263.893 228.23L263.893 345.23" stroke="#E2E2E2"/>
<path d="M263.893 229.23H558.893" stroke="#E2E2E2" stroke-linejoin="round" stroke-dasharray="1 3"/>
<path d="M263.893 258.23H558.893" stroke="#E2E2E2" stroke-linejoin="round" stroke-dasharray="1 3"/>
<path d="M263.893 287.23H558.893" stroke="#E2E2E2" stroke-linejoin="round" stroke-dasharray="1 3"/>
<path d="M263.893 316.23H558.893" stroke="#E2E2E2" stroke-linejoin="round" stroke-dasharray="1 3"/>
<path d="M263.893 345.23H558.893" stroke="#E2E2E2" stroke-linejoin="round"/>
<path opacity="0.8" d="M250.226 202.196V203.665H247.808V211.27H245.988V203.665H243.57V202.196H250.226ZM253.374 205.186C253.608 204.804 253.912 204.505 254.284 204.289C254.666 204.072 255.099 203.964 255.584 203.964V205.875H255.103C254.531 205.875 254.098 206.009 253.803 206.278C253.517 206.546 253.374 207.014 253.374 207.682V211.27H251.554V204.068H253.374V205.186ZM263.505 207.513C263.505 207.773 263.488 208.007 263.453 208.215H258.188C258.231 208.735 258.413 209.142 258.734 209.437C259.055 209.731 259.449 209.879 259.917 209.879C260.593 209.879 261.074 209.588 261.36 209.008H263.323C263.115 209.701 262.716 210.273 262.127 210.724C261.538 211.166 260.814 211.387 259.956 211.387C259.263 211.387 258.639 211.235 258.084 210.932C257.538 210.62 257.109 210.182 256.797 209.619C256.494 209.055 256.342 208.405 256.342 207.669C256.342 206.923 256.494 206.269 256.797 205.706C257.1 205.142 257.525 204.709 258.071 204.406C258.617 204.102 259.245 203.951 259.956 203.951C260.641 203.951 261.252 204.098 261.789 204.393C262.335 204.687 262.755 205.108 263.05 205.654C263.353 206.191 263.505 206.811 263.505 207.513ZM261.62 206.993C261.611 206.525 261.442 206.152 261.113 205.875C260.784 205.589 260.381 205.446 259.904 205.446C259.453 205.446 259.072 205.584 258.76 205.862C258.457 206.13 258.27 206.507 258.201 206.993H261.62ZM268.825 203.964C269.683 203.964 270.376 204.237 270.905 204.783C271.433 205.32 271.698 206.074 271.698 207.045V211.27H269.878V207.292C269.878 206.72 269.735 206.282 269.449 205.979C269.163 205.667 268.773 205.511 268.279 205.511C267.776 205.511 267.377 205.667 267.083 205.979C266.797 206.282 266.654 206.72 266.654 207.292V211.27H264.834V204.068H266.654V204.965C266.896 204.653 267.204 204.41 267.577 204.237C267.958 204.055 268.374 203.964 268.825 203.964ZM272.96 207.643C272.96 206.915 273.103 206.269 273.389 205.706C273.684 205.142 274.083 204.709 274.585 204.406C275.088 204.102 275.647 203.951 276.262 203.951C276.73 203.951 277.177 204.055 277.601 204.263C278.026 204.462 278.364 204.731 278.615 205.069V201.65H280.461V211.27H278.615V210.204C278.39 210.559 278.074 210.845 277.666 211.062C277.259 211.278 276.787 211.387 276.249 211.387C275.643 211.387 275.088 211.231 274.585 210.919C274.083 210.607 273.684 210.169 273.389 209.606C273.103 209.034 272.96 208.379 272.96 207.643ZM278.628 207.669C278.628 207.227 278.542 206.85 278.368 206.538C278.195 206.217 277.961 205.974 277.666 205.81C277.372 205.636 277.055 205.55 276.717 205.55C276.379 205.55 276.067 205.632 275.781 205.797C275.495 205.961 275.261 206.204 275.079 206.525C274.906 206.837 274.819 207.209 274.819 207.643C274.819 208.076 274.906 208.457 275.079 208.787C275.261 209.107 275.495 209.354 275.781 209.528C276.076 209.701 276.388 209.788 276.717 209.788C277.055 209.788 277.372 209.705 277.666 209.541C277.961 209.367 278.195 209.125 278.368 208.813C278.542 208.492 278.628 208.111 278.628 207.669ZM291.654 204.926C291.446 204.544 291.16 204.254 290.796 204.055C290.432 203.855 290.008 203.756 289.522 203.756C288.985 203.756 288.508 203.877 288.092 204.12C287.676 204.362 287.351 204.709 287.117 205.16C286.883 205.61 286.766 206.13 286.766 206.72C286.766 207.326 286.883 207.855 287.117 208.306C287.36 208.756 287.694 209.103 288.118 209.346C288.543 209.588 289.037 209.71 289.6 209.71C290.294 209.71 290.861 209.528 291.303 209.164C291.745 208.791 292.036 208.275 292.174 207.617H289.054V206.226H293.968V207.812C293.847 208.444 293.587 209.029 293.188 209.567C292.79 210.104 292.274 210.537 291.641 210.867C291.017 211.187 290.315 211.348 289.535 211.348C288.66 211.348 287.867 211.153 287.156 210.763C286.454 210.364 285.9 209.814 285.492 209.112C285.094 208.41 284.894 207.612 284.894 206.72C284.894 205.827 285.094 205.03 285.492 204.328C285.9 203.617 286.454 203.067 287.156 202.677C287.867 202.278 288.656 202.079 289.522 202.079C290.545 202.079 291.433 202.33 292.187 202.833C292.941 203.327 293.461 204.024 293.747 204.926H291.654ZM297.135 205.186C297.369 204.804 297.672 204.505 298.045 204.289C298.426 204.072 298.86 203.964 299.345 203.964V205.875H298.864C298.292 205.875 297.859 206.009 297.564 206.278C297.278 206.546 297.135 207.014 297.135 207.682V211.27H295.315V204.068H297.135V205.186ZM300.103 207.643C300.103 206.915 300.246 206.269 300.532 205.706C300.826 205.142 301.221 204.709 301.715 204.406C302.217 204.102 302.776 203.951 303.392 203.951C303.929 203.951 304.397 204.059 304.796 204.276C305.203 204.492 305.528 204.765 305.771 205.095V204.068H307.604V211.27H305.771V210.217C305.537 210.555 305.212 210.836 304.796 211.062C304.388 211.278 303.916 211.387 303.379 211.387C302.772 211.387 302.217 211.231 301.715 210.919C301.221 210.607 300.826 210.169 300.532 209.606C300.246 209.034 300.103 208.379 300.103 207.643ZM305.771 207.669C305.771 207.227 305.684 206.85 305.511 206.538C305.337 206.217 305.103 205.974 304.809 205.81C304.514 205.636 304.198 205.55 303.86 205.55C303.522 205.55 303.21 205.632 302.924 205.797C302.638 205.961 302.404 206.204 302.222 206.525C302.048 206.837 301.962 207.209 301.962 207.643C301.962 208.076 302.048 208.457 302.222 208.787C302.404 209.107 302.638 209.354 302.924 209.528C303.218 209.701 303.53 209.788 303.86 209.788C304.198 209.788 304.514 209.705 304.809 209.541C305.103 209.367 305.337 209.125 305.511 208.813C305.684 208.492 305.771 208.111 305.771 207.669ZM311.201 205.108C311.435 204.778 311.756 204.505 312.163 204.289C312.579 204.063 313.052 203.951 313.58 203.951C314.196 203.951 314.75 204.102 315.244 204.406C315.747 204.709 316.141 205.142 316.427 205.706C316.722 206.26 316.869 206.906 316.869 207.643C316.869 208.379 316.722 209.034 316.427 209.606C316.141 210.169 315.747 210.607 315.244 210.919C314.75 211.231 314.196 211.387 313.58 211.387C313.052 211.387 312.584 211.278 312.176 211.062C311.778 210.845 311.453 210.572 311.201 210.243V214.702H309.381V204.068H311.201V205.108ZM315.01 207.643C315.01 207.209 314.919 206.837 314.737 206.525C314.564 206.204 314.33 205.961 314.035 205.797C313.749 205.632 313.437 205.55 313.099 205.55C312.77 205.55 312.458 205.636 312.163 205.81C311.877 205.974 311.643 206.217 311.461 206.538C311.288 206.858 311.201 207.235 311.201 207.669C311.201 208.102 311.288 208.479 311.461 208.8C311.643 209.12 311.877 209.367 312.163 209.541C312.458 209.705 312.77 209.788 313.099 209.788C313.437 209.788 313.749 209.701 314.035 209.528C314.33 209.354 314.564 209.107 314.737 208.787C314.919 208.466 315.01 208.085 315.01 207.643ZM322.248 203.964C322.794 203.964 323.279 204.085 323.704 204.328C324.129 204.562 324.458 204.913 324.692 205.381C324.935 205.84 325.056 206.395 325.056 207.045V211.27H323.236V207.292C323.236 206.72 323.093 206.282 322.807 205.979C322.521 205.667 322.131 205.511 321.637 205.511C321.134 205.511 320.736 205.667 320.441 205.979C320.155 206.282 320.012 206.72 320.012 207.292V211.27H318.192V201.65H320.012V204.965C320.246 204.653 320.558 204.41 320.948 204.237C321.338 204.055 321.771 203.964 322.248 203.964Z" fill="#0A0D0F"/>
<path d="M264.075 363.379V357.909L262.775 358.324V357.728L264.328 357.06H264.842V363.379H264.075ZM268.505 363.487C267.982 363.487 267.53 363.352 267.151 363.081C266.778 362.804 266.489 362.422 266.285 361.935C266.08 361.441 265.978 360.87 265.978 360.22C265.978 359.57 266.08 359.001 266.285 358.514C266.489 358.02 266.778 357.638 267.151 357.367C267.53 357.09 267.982 356.952 268.505 356.952C269.029 356.952 269.477 357.09 269.85 357.367C270.223 357.638 270.509 358.02 270.708 358.514C270.912 359.001 271.015 359.57 271.015 360.22C271.015 360.87 270.912 361.441 270.708 361.935C270.509 362.422 270.223 362.804 269.85 363.081C269.477 363.352 269.029 363.487 268.505 363.487ZM268.505 362.819C268.836 362.819 269.131 362.717 269.39 362.512C269.649 362.302 269.853 362.004 270.004 361.619C270.16 361.228 270.238 360.761 270.238 360.22C270.238 359.672 270.16 359.206 270.004 358.82C269.853 358.435 269.649 358.14 269.39 357.936C269.131 357.731 268.836 357.629 268.505 357.629C268.168 357.629 267.867 357.731 267.603 357.936C267.338 358.14 267.13 358.435 266.98 358.82C266.829 359.206 266.754 359.672 266.754 360.22C266.754 360.761 266.829 361.228 266.98 361.619C267.13 362.004 267.338 362.302 267.603 362.512C267.867 362.717 268.168 362.819 268.505 362.819Z" fill="#9D9E9F"/>
<path d="M312.279 363.379V357.909L310.979 358.324V357.728L312.532 357.06H313.046V363.379H312.279ZM316.52 363.487C316.099 363.487 315.732 363.412 315.419 363.262C315.112 363.111 314.868 362.91 314.687 362.657C314.513 362.398 314.405 362.103 314.363 361.772H315.103C315.169 362.085 315.322 362.341 315.563 362.539C315.81 362.738 316.132 362.837 316.529 362.837C316.824 362.837 317.074 362.771 317.278 362.639C317.489 362.5 317.651 362.314 317.766 362.079C317.88 361.838 317.937 361.571 317.937 361.276C317.937 360.981 317.88 360.722 317.766 360.499C317.657 360.271 317.501 360.093 317.296 359.967C317.092 359.834 316.851 359.768 316.574 359.768C316.243 359.768 315.96 359.834 315.726 359.967C315.497 360.099 315.319 360.262 315.193 360.454H314.444L314.922 357.06H318.316V357.719H315.509L315.184 359.696C315.334 359.528 315.533 359.392 315.78 359.29C316.032 359.182 316.324 359.127 316.655 359.127C316.962 359.127 317.239 359.182 317.486 359.29C317.732 359.398 317.943 359.552 318.118 359.75C318.298 359.943 318.434 360.168 318.524 360.427C318.62 360.686 318.668 360.966 318.668 361.267C318.668 361.568 318.617 361.853 318.515 362.124C318.418 362.389 318.277 362.624 318.09 362.828C317.91 363.033 317.687 363.195 317.423 363.316C317.158 363.43 316.857 363.487 316.52 363.487Z" fill="#9D9E9F"/>
<path d="M357.925 363.379V362.846C358.37 362.509 358.791 362.169 359.188 361.826C359.586 361.483 359.938 361.143 360.245 360.806C360.551 360.463 360.792 360.129 360.967 359.804C361.141 359.479 361.228 359.166 361.228 358.866C361.228 358.643 361.186 358.438 361.102 358.252C361.024 358.059 360.895 357.903 360.714 357.782C360.539 357.662 360.302 357.602 360.001 357.602C359.712 357.602 359.471 357.665 359.279 357.791C359.086 357.912 358.942 358.074 358.845 358.279C358.749 358.477 358.701 358.697 358.701 358.938H357.97C357.976 358.523 358.066 358.168 358.241 357.873C358.415 357.572 358.656 357.343 358.963 357.187C359.27 357.03 359.619 356.952 360.01 356.952C360.395 356.952 360.735 357.024 361.03 357.169C361.325 357.307 361.556 357.518 361.725 357.8C361.899 358.077 361.987 358.423 361.987 358.839C361.987 359.133 361.924 359.428 361.797 359.723C361.677 360.018 361.511 360.307 361.301 360.59C361.09 360.866 360.855 361.134 360.597 361.393C360.344 361.652 360.082 361.896 359.811 362.124C359.541 362.353 359.285 362.56 359.044 362.747H362.203V363.379H357.925ZM365.535 363.487C365.012 363.487 364.56 363.352 364.181 363.081C363.808 362.804 363.519 362.422 363.315 361.935C363.11 361.441 363.008 360.87 363.008 360.22C363.008 359.57 363.11 359.001 363.315 358.514C363.519 358.02 363.808 357.638 364.181 357.367C364.56 357.09 365.012 356.952 365.535 356.952C366.059 356.952 366.507 357.09 366.88 357.367C367.253 357.638 367.539 358.02 367.738 358.514C367.942 359.001 368.045 359.57 368.045 360.22C368.045 360.87 367.942 361.441 367.738 361.935C367.539 362.422 367.253 362.804 366.88 363.081C366.507 363.352 366.059 363.487 365.535 363.487ZM365.535 362.819C365.866 362.819 366.161 362.717 366.42 362.512C366.678 362.302 366.883 362.004 367.034 361.619C367.19 361.228 367.268 360.761 367.268 360.22C367.268 359.672 367.19 359.206 367.034 358.82C366.883 358.435 366.678 358.14 366.42 357.936C366.161 357.731 365.866 357.629 365.535 357.629C365.198 357.629 364.897 357.731 364.632 357.936C364.368 358.14 364.16 358.435 364.01 358.82C363.859 359.206 363.784 359.672 363.784 360.22C363.784 360.761 363.859 361.228 364.01 361.619C364.16 362.004 364.368 362.302 364.632 362.512C364.897 362.717 365.198 362.819 365.535 362.819Z" fill="#9D9E9F"/>
<path d="M406.085 363.379V362.846C406.53 362.509 406.952 362.169 407.349 361.826C407.746 361.483 408.098 361.143 408.405 360.806C408.712 360.463 408.952 360.129 409.127 359.804C409.301 359.479 409.389 359.166 409.389 358.866C409.389 358.643 409.347 358.438 409.262 358.252C409.184 358.059 409.055 357.903 408.874 357.782C408.7 357.662 408.462 357.602 408.161 357.602C407.872 357.602 407.632 357.665 407.439 357.791C407.246 357.912 407.102 358.074 407.006 358.279C406.909 358.477 406.861 358.697 406.861 358.938H406.13C406.136 358.523 406.226 358.168 406.401 357.873C406.575 357.572 406.816 357.343 407.123 357.187C407.43 357.03 407.779 356.952 408.17 356.952C408.555 356.952 408.895 357.024 409.19 357.169C409.485 357.307 409.717 357.518 409.885 357.8C410.06 358.077 410.147 358.423 410.147 358.839C410.147 359.133 410.084 359.428 409.957 359.723C409.837 360.018 409.672 360.307 409.461 360.59C409.25 360.866 409.016 361.134 408.757 361.393C408.504 361.652 408.242 361.896 407.972 362.124C407.701 362.353 407.445 362.56 407.204 362.747H410.364V363.379H406.085ZM413.594 363.487C413.173 363.487 412.806 363.412 412.493 363.262C412.186 363.111 411.942 362.91 411.761 362.657C411.587 362.398 411.479 362.103 411.437 361.772H412.177C412.243 362.085 412.396 362.341 412.637 362.539C412.884 362.738 413.206 362.837 413.603 362.837C413.898 362.837 414.148 362.771 414.352 362.639C414.563 362.5 414.725 362.314 414.84 362.079C414.954 361.838 415.011 361.571 415.011 361.276C415.011 360.981 414.954 360.722 414.84 360.499C414.731 360.271 414.575 360.093 414.37 359.967C414.166 359.834 413.925 359.768 413.648 359.768C413.317 359.768 413.034 359.834 412.8 359.967C412.571 360.099 412.393 360.262 412.267 360.454H411.518L411.996 357.06H415.39V357.719H412.583L412.258 359.696C412.408 359.528 412.607 359.392 412.854 359.29C413.106 359.182 413.398 359.127 413.729 359.127C414.036 359.127 414.313 359.182 414.56 359.29C414.806 359.398 415.017 359.552 415.192 359.75C415.372 359.943 415.508 360.168 415.598 360.427C415.694 360.686 415.742 360.966 415.742 361.267C415.742 361.568 415.691 361.853 415.589 362.124C415.492 362.389 415.351 362.624 415.165 362.828C414.984 363.033 414.761 363.195 414.497 363.316C414.232 363.43 413.931 363.487 413.594 363.487Z" fill="#9D9E9F"/>
<path d="M455.894 363.487C455.491 363.487 455.124 363.415 454.793 363.271C454.468 363.12 454.209 362.897 454.017 362.603C453.824 362.308 453.722 361.941 453.71 361.501H454.477C454.483 361.742 454.54 361.965 454.648 362.169C454.763 362.368 454.925 362.527 455.136 362.648C455.346 362.768 455.599 362.828 455.894 362.828C456.189 362.828 456.436 362.771 456.634 362.657C456.833 362.542 456.983 362.392 457.086 362.205C457.188 362.013 457.239 361.799 457.239 361.565C457.239 361.282 457.167 361.053 457.022 360.879C456.884 360.698 456.694 360.566 456.454 360.481C456.219 360.391 455.96 360.346 455.677 360.346H455.208V359.705H455.677C456.105 359.705 456.439 359.609 456.679 359.416C456.926 359.218 457.05 358.944 457.05 358.595C457.05 358.312 456.953 358.077 456.761 357.891C456.568 357.704 456.279 357.611 455.894 357.611C455.515 357.611 455.217 357.713 455 357.918C454.784 358.122 454.66 358.384 454.63 358.703H453.863C453.881 358.36 453.974 358.056 454.143 357.791C454.317 357.527 454.552 357.322 454.847 357.178C455.148 357.027 455.497 356.952 455.894 356.952C456.315 356.952 456.667 357.024 456.95 357.169C457.239 357.313 457.456 357.506 457.6 357.746C457.745 357.987 457.817 358.255 457.817 358.55C457.817 358.766 457.775 358.974 457.69 359.173C457.612 359.371 457.492 359.543 457.329 359.687C457.167 359.831 456.959 359.934 456.707 359.994C456.953 360.042 457.173 360.135 457.365 360.274C457.564 360.412 457.72 360.59 457.835 360.806C457.949 361.023 458.006 361.276 458.006 361.565C458.006 361.908 457.925 362.227 457.763 362.521C457.606 362.81 457.371 363.045 457.059 363.225C456.746 363.4 456.357 363.487 455.894 363.487ZM461.578 363.487C461.054 363.487 460.603 363.352 460.224 363.081C459.851 362.804 459.562 362.422 459.357 361.935C459.153 361.441 459.05 360.87 459.05 360.22C459.05 359.57 459.153 359.001 459.357 358.514C459.562 358.02 459.851 357.638 460.224 357.367C460.603 357.09 461.054 356.952 461.578 356.952C462.101 356.952 462.55 357.09 462.923 357.367C463.296 357.638 463.582 358.02 463.78 358.514C463.985 359.001 464.087 359.57 464.087 360.22C464.087 360.87 463.985 361.441 463.78 361.935C463.582 362.422 463.296 362.804 462.923 363.081C462.55 363.352 462.101 363.487 461.578 363.487ZM461.578 362.819C461.909 362.819 462.204 362.717 462.462 362.512C462.721 362.302 462.926 362.004 463.076 361.619C463.233 361.228 463.311 360.761 463.311 360.22C463.311 359.672 463.233 359.206 463.076 358.82C462.926 358.435 462.721 358.14 462.462 357.936C462.204 357.731 461.909 357.629 461.578 357.629C461.241 357.629 460.94 357.731 460.675 357.936C460.41 358.14 460.203 358.435 460.052 358.82C459.902 359.206 459.827 359.672 459.827 360.22C459.827 360.761 459.902 361.228 460.052 361.619C460.203 362.004 460.41 362.302 460.675 362.512C460.94 362.717 461.241 362.819 461.578 362.819Z" fill="#9D9E9F"/>
<path d="M504.123 363.487C503.599 363.487 503.148 363.352 502.769 363.081C502.396 362.804 502.107 362.422 501.902 361.935C501.698 361.441 501.595 360.87 501.595 360.22C501.595 359.57 501.698 359.001 501.902 358.514C502.107 358.02 502.396 357.638 502.769 357.367C503.148 357.09 503.599 356.952 504.123 356.952C504.646 356.952 505.095 357.09 505.468 357.367C505.841 357.638 506.127 358.02 506.325 358.514C506.53 359.001 506.632 359.57 506.632 360.22C506.632 360.87 506.53 361.441 506.325 361.935C506.127 362.422 505.841 362.804 505.468 363.081C505.095 363.352 504.646 363.487 504.123 363.487ZM504.123 362.819C504.454 362.819 504.749 362.717 505.007 362.512C505.266 362.302 505.471 362.004 505.621 361.619C505.778 361.228 505.856 360.761 505.856 360.22C505.856 359.672 505.778 359.206 505.621 358.82C505.471 358.435 505.266 358.14 505.007 357.936C504.749 357.731 504.454 357.629 504.123 357.629C503.786 357.629 503.485 357.731 503.22 357.936C502.955 358.14 502.748 358.435 502.597 358.82C502.447 359.206 502.372 359.672 502.372 360.22C502.372 360.761 502.447 361.228 502.597 361.619C502.748 362.004 502.955 362.302 503.22 362.512C503.485 362.717 503.786 362.819 504.123 362.819ZM509.857 363.487C509.436 363.487 509.069 363.412 508.756 363.262C508.449 363.111 508.205 362.91 508.025 362.657C507.85 362.398 507.742 362.103 507.7 361.772H508.44C508.506 362.085 508.659 362.341 508.9 362.539C509.147 362.738 509.469 362.837 509.866 362.837C510.161 362.837 510.411 362.771 510.615 362.639C510.826 362.5 510.988 362.314 511.103 362.079C511.217 361.838 511.274 361.571 511.274 361.276C511.274 360.981 511.217 360.722 511.103 360.499C510.994 360.271 510.838 360.093 510.633 359.967C510.429 359.834 510.188 359.768 509.911 359.768C509.58 359.768 509.297 359.834 509.063 359.967C508.834 360.099 508.656 360.262 508.53 360.454H507.781L508.259 357.06H511.653V357.719H508.846L508.521 359.696C508.671 359.528 508.87 359.392 509.117 359.29C509.37 359.182 509.661 359.127 509.992 359.127C510.299 359.127 510.576 359.182 510.823 359.29C511.07 359.398 511.28 359.552 511.455 359.75C511.635 359.943 511.771 360.168 511.861 360.427C511.957 360.686 512.005 360.966 512.005 361.267C512.005 361.568 511.954 361.853 511.852 362.124C511.756 362.389 511.614 362.624 511.428 362.828C511.247 363.033 511.024 363.195 510.76 363.316C510.495 363.43 510.194 363.487 509.857 363.487Z" fill="#9D9E9F"/>
<g clip-path="url(#clip6_9047_109738)">
<path d="M243.069 235.23V229.76L241.769 230.176V229.58L243.322 228.912H243.836V235.23H243.069ZM247.499 235.339C246.975 235.339 246.524 235.203 246.145 234.933C245.772 234.656 245.483 234.274 245.278 233.786C245.074 233.293 244.972 232.721 244.972 232.071C244.972 231.421 245.074 230.853 245.278 230.365C245.483 229.872 245.772 229.49 246.145 229.219C246.524 228.942 246.975 228.804 247.499 228.804C248.023 228.804 248.471 228.942 248.844 229.219C249.217 229.49 249.503 229.872 249.702 230.365C249.906 230.853 250.008 231.421 250.008 232.071C250.008 232.721 249.906 233.293 249.702 233.786C249.503 234.274 249.217 234.656 248.844 234.933C248.471 235.203 248.023 235.339 247.499 235.339ZM247.499 234.671C247.83 234.671 248.125 234.569 248.384 234.364C248.642 234.153 248.847 233.855 248.997 233.47C249.154 233.079 249.232 232.613 249.232 232.071C249.232 231.524 249.154 231.057 248.997 230.672C248.847 230.287 248.642 229.992 248.384 229.787C248.125 229.583 247.83 229.481 247.499 229.481C247.162 229.481 246.861 229.583 246.596 229.787C246.332 229.992 246.124 230.287 245.974 230.672C245.823 231.057 245.748 231.524 245.748 232.071C245.748 232.613 245.823 233.079 245.974 233.47C246.124 233.855 246.332 234.153 246.596 234.364C246.861 234.569 247.162 234.671 247.499 234.671ZM253.423 235.339C252.899 235.339 252.448 235.203 252.069 234.933C251.696 234.656 251.407 234.274 251.202 233.786C250.998 233.293 250.895 232.721 250.895 232.071C250.895 231.421 250.998 230.853 251.202 230.365C251.407 229.872 251.696 229.49 252.069 229.219C252.448 228.942 252.899 228.804 253.423 228.804C253.946 228.804 254.395 228.942 254.768 229.219C255.141 229.49 255.427 229.872 255.625 230.365C255.83 230.853 255.932 231.421 255.932 232.071C255.932 232.721 255.83 233.293 255.625 233.786C255.427 234.274 255.141 234.656 254.768 234.933C254.395 235.203 253.946 235.339 253.423 235.339ZM253.423 234.671C253.754 234.671 254.049 234.569 254.307 234.364C254.566 234.153 254.771 233.855 254.921 233.47C255.078 233.079 255.156 232.613 255.156 232.071C255.156 231.524 255.078 231.057 254.921 230.672C254.771 230.287 254.566 229.992 254.307 229.787C254.049 229.583 253.754 229.481 253.423 229.481C253.086 229.481 252.785 229.583 252.52 229.787C252.255 229.992 252.048 230.287 251.897 230.672C251.747 231.057 251.672 231.524 251.672 232.071C251.672 232.613 251.747 233.079 251.897 233.47C252.048 233.855 252.255 234.153 252.52 234.364C252.785 234.569 253.086 234.671 253.423 234.671Z" fill="#9D9E9F"/>
<path d="M245.285 263.73L247.605 258.062H244.139V257.412H248.381V257.981L246.088 263.73H245.285ZM251.25 263.839C250.829 263.839 250.461 263.764 250.149 263.613C249.842 263.463 249.598 263.261 249.417 263.008C249.243 262.75 249.135 262.455 249.092 262.124H249.833C249.899 262.437 250.052 262.692 250.293 262.891C250.54 263.09 250.862 263.189 251.259 263.189C251.554 263.189 251.803 263.123 252.008 262.99C252.219 262.852 252.381 262.665 252.495 262.431C252.61 262.19 252.667 261.922 252.667 261.627C252.667 261.332 252.61 261.074 252.495 260.851C252.387 260.622 252.231 260.445 252.026 260.318C251.821 260.186 251.581 260.12 251.304 260.12C250.973 260.12 250.69 260.186 250.455 260.318C250.227 260.451 250.049 260.613 249.923 260.806H249.174L249.652 257.412H253.046V258.071H250.239L249.914 260.048C250.064 259.879 250.263 259.744 250.51 259.641C250.762 259.533 251.054 259.479 251.385 259.479C251.692 259.479 251.969 259.533 252.216 259.641C252.462 259.75 252.673 259.903 252.847 260.102C253.028 260.294 253.163 260.52 253.254 260.779C253.35 261.038 253.398 261.317 253.398 261.618C253.398 261.919 253.347 262.205 253.245 262.476C253.148 262.741 253.007 262.975 252.82 263.18C252.64 263.384 252.417 263.547 252.152 263.667C251.888 263.782 251.587 263.839 251.25 263.839Z" fill="#9D9E9F"/>
<path d="M245.992 292.339C245.57 292.339 245.203 292.264 244.89 292.113C244.583 291.963 244.34 291.761 244.159 291.508C243.985 291.25 243.876 290.955 243.834 290.624H244.574C244.641 290.937 244.794 291.192 245.035 291.391C245.282 291.59 245.603 291.689 246.001 291.689C246.296 291.689 246.545 291.623 246.75 291.49C246.96 291.352 247.123 291.165 247.237 290.931C247.352 290.69 247.409 290.422 247.409 290.127C247.409 289.832 247.352 289.574 247.237 289.351C247.129 289.122 246.972 288.945 246.768 288.818C246.563 288.686 246.323 288.62 246.046 288.62C245.715 288.62 245.432 288.686 245.197 288.818C244.969 288.951 244.791 289.113 244.665 289.306H243.915L244.394 285.912H247.788V286.571H244.981L244.656 288.548C244.806 288.379 245.005 288.244 245.251 288.141C245.504 288.033 245.796 287.979 246.127 287.979C246.434 287.979 246.711 288.033 246.957 288.141C247.204 288.25 247.415 288.403 247.589 288.602C247.77 288.794 247.905 289.02 247.996 289.279C248.092 289.538 248.14 289.817 248.14 290.118C248.14 290.419 248.089 290.705 247.986 290.976C247.89 291.241 247.749 291.475 247.562 291.68C247.382 291.884 247.159 292.047 246.894 292.167C246.629 292.282 246.329 292.339 245.992 292.339ZM251.655 292.339C251.132 292.339 250.68 292.203 250.301 291.933C249.928 291.656 249.639 291.274 249.435 290.786C249.23 290.293 249.128 289.721 249.128 289.071C249.128 288.421 249.23 287.853 249.435 287.365C249.639 286.872 249.928 286.49 250.301 286.219C250.68 285.942 251.132 285.804 251.655 285.804C252.179 285.804 252.627 285.942 253 286.219C253.373 286.49 253.659 286.872 253.858 287.365C254.062 287.853 254.165 288.421 254.165 289.071C254.165 289.721 254.062 290.293 253.858 290.786C253.659 291.274 253.373 291.656 253 291.933C252.627 292.203 252.179 292.339 251.655 292.339ZM251.655 291.671C251.986 291.671 252.281 291.569 252.54 291.364C252.799 291.153 253.003 290.855 253.154 290.47C253.31 290.079 253.388 289.613 253.388 289.071C253.388 288.524 253.31 288.057 253.154 287.672C253.003 287.287 252.799 286.992 252.54 286.787C252.281 286.583 251.986 286.481 251.655 286.481C251.318 286.481 251.017 286.583 250.753 286.787C250.488 286.992 250.28 287.287 250.13 287.672C249.979 288.057 249.904 288.524 249.904 289.071C249.904 289.613 249.979 290.079 250.13 290.47C250.28 290.855 250.488 291.153 250.753 291.364C251.017 291.569 251.318 291.671 251.655 291.671Z" fill="#9D9E9F"/>
<path d="M244.102 320.73V320.198C244.548 319.861 244.969 319.521 245.366 319.178C245.763 318.835 246.115 318.495 246.422 318.158C246.729 317.815 246.97 317.481 247.144 317.156C247.319 316.831 247.406 316.518 247.406 316.217C247.406 315.995 247.364 315.79 247.28 315.603C247.201 315.411 247.072 315.254 246.891 315.134C246.717 315.014 246.479 314.953 246.178 314.953C245.89 314.953 245.649 315.017 245.456 315.143C245.264 315.263 245.119 315.426 245.023 315.63C244.927 315.829 244.879 316.049 244.879 316.289H244.147C244.153 315.874 244.244 315.519 244.418 315.224C244.593 314.923 244.833 314.695 245.14 314.538C245.447 314.382 245.796 314.304 246.187 314.304C246.573 314.304 246.913 314.376 247.207 314.52C247.502 314.659 247.734 314.869 247.902 315.152C248.077 315.429 248.164 315.775 248.164 316.19C248.164 316.485 248.101 316.78 247.975 317.075C247.854 317.37 247.689 317.658 247.478 317.941C247.268 318.218 247.033 318.486 246.774 318.745C246.521 319.003 246.26 319.247 245.989 319.476C245.718 319.704 245.462 319.912 245.222 320.099H248.381V320.73H244.102ZM251.611 320.839C251.19 320.839 250.823 320.764 250.51 320.613C250.203 320.463 249.959 320.261 249.779 320.008C249.604 319.75 249.496 319.455 249.454 319.124H250.194C250.26 319.437 250.414 319.692 250.654 319.891C250.901 320.09 251.223 320.189 251.62 320.189C251.915 320.189 252.165 320.123 252.369 319.99C252.58 319.852 252.743 319.665 252.857 319.431C252.971 319.19 253.028 318.922 253.028 318.627C253.028 318.332 252.971 318.074 252.857 317.851C252.749 317.622 252.592 317.445 252.387 317.318C252.183 317.186 251.942 317.12 251.665 317.12C251.334 317.12 251.052 317.186 250.817 317.318C250.588 317.451 250.411 317.613 250.284 317.806H249.535L250.013 314.412H253.407V315.071H250.6L250.275 317.048C250.426 316.879 250.624 316.744 250.871 316.641C251.124 316.533 251.416 316.479 251.747 316.479C252.054 316.479 252.33 316.533 252.577 316.641C252.824 316.75 253.034 316.903 253.209 317.102C253.389 317.294 253.525 317.52 253.615 317.779C253.711 318.038 253.76 318.317 253.76 318.618C253.76 318.919 253.708 319.205 253.606 319.476C253.51 319.741 253.368 319.975 253.182 320.18C253.001 320.384 252.779 320.547 252.514 320.667C252.249 320.782 251.948 320.839 251.611 320.839Z" fill="#9D9E9F"/>
<path d="M248.918 349.339C248.395 349.339 247.943 349.203 247.564 348.933C247.191 348.656 246.902 348.274 246.698 347.786C246.493 347.293 246.391 346.721 246.391 346.071C246.391 345.421 246.493 344.853 246.698 344.365C246.902 343.872 247.191 343.49 247.564 343.219C247.943 342.942 248.395 342.804 248.918 342.804C249.442 342.804 249.89 342.942 250.263 343.219C250.636 343.49 250.922 343.872 251.121 344.365C251.325 344.853 251.428 345.421 251.428 346.071C251.428 346.721 251.325 347.293 251.121 347.786C250.922 348.274 250.636 348.656 250.263 348.933C249.89 349.203 249.442 349.339 248.918 349.339ZM248.918 348.671C249.249 348.671 249.544 348.569 249.803 348.364C250.062 348.153 250.266 347.855 250.417 347.47C250.573 347.079 250.651 346.613 250.651 346.071C250.651 345.524 250.573 345.057 250.417 344.672C250.266 344.287 250.062 343.992 249.803 343.787C249.544 343.583 249.249 343.481 248.918 343.481C248.581 343.481 248.28 343.583 248.016 343.787C247.751 343.992 247.543 344.287 247.393 344.672C247.242 345.057 247.167 345.524 247.167 346.071C247.167 346.613 247.242 347.079 247.393 347.47C247.543 347.855 247.751 348.153 248.016 348.364C248.28 348.569 248.581 348.671 248.918 348.671Z" fill="#9D9E9F"/>
</g>
<g filter="url(#filter2_f_9047_109738)">
<path d="M261.893 272.059L267.491 260.611L273.089 244.684L278.22 281.516L283.352 326.313L288.95 322.331L293.615 269.571L299.213 259.118L304.811 278.53L309.476 266.584L315.541 259.118L319.74 285.498L325.338 269.571L330.469 283.01L335.601 336.765L341.199 235.725L346.33 311.381L351.462 300.928L357.06 287.987L362.192 250.159L367.323 266.584L372.455 326.313L377.586 344.231L382.718 329.797L387.85 263.1L393.448 304.91L398.113 278.032L404.177 270.069L408.842 296.449L414.441 294.955L419.572 235.725L424.704 266.584L430.768 252.15L435.433 300.928L441.031 285.001L446.163 244.186L450.828 326.313L456.426 285.001L462.024 252.15L466.223 331.29L471.821 256.132L477.886 237.218L481.618 329.797L487.682 310.883L493.28 336.765L497.945 278.032L503.543 297.942L507.742 328.802L513.807 324.82L519.871 310.883L524.07 245.679L529.201 265.589L534.799 259.118L540.864 307.399L545.063 334.774L550.194 310.883L556.259 256.132" stroke="#818587" stroke-opacity="0.5" stroke-width="1.38626" stroke-linecap="round" stroke-linejoin="round"/>
</g>
<path d="M263.893 268.059L269.491 256.611L275.089 240.684L280.22 277.516L285.352 322.313L290.95 318.331L295.615 265.571L301.213 255.118L306.811 274.53L311.476 262.584L317.541 255.118L321.74 281.498L327.338 265.571L332.469 279.01L337.601 332.765L343.199 231.725L348.33 307.381L353.462 296.928L359.06 283.987L364.192 246.159L369.323 262.584L374.455 322.313L379.586 340.231L384.718 325.797L389.85 259.1L395.448 300.91L400.113 274.032L406.177 266.069L410.842 292.449L416.441 290.955L421.572 231.725L426.704 262.584L432.768 248.15L437.433 296.928L443.031 281.001L448.163 240.186L452.828 322.313L458.426 281.001L464.024 248.15L468.223 327.29L473.821 252.132L479.886 233.218L483.618 325.797L489.682 306.883L495.28 332.765L499.945 274.032L505.543 293.942L509.742 324.802L515.807 320.82L521.871 306.883L526.07 241.679L531.201 261.589L536.799 255.118L542.864 303.399L547.063 330.774L552.194 306.883L558.259 252.132" stroke="#FF5500" stroke-width="1.38626" stroke-linecap="round" stroke-linejoin="round"/>
<circle cx="263.893" cy="267.23" r="1.53791" fill="white" stroke="#FF5500" stroke-width="0.924172"/>
<circle cx="268.893" cy="257.23" r="1.53791" fill="white" stroke="#FF5500" stroke-width="0.924172"/>
<circle cx="280.658" cy="281.23" r="1.53791" fill="white" stroke="#FF5500" stroke-width="0.924172"/>
<circle cx="275.017" cy="240.855" r="1.53791" fill="white" stroke="#FF5500" stroke-width="0.924172"/>
<circle cx="285.226" cy="321.463" r="1.53791" fill="white" stroke="#FF5500" stroke-width="0.924172"/>
<circle cx="296.158" cy="265.373" r="1.53791" fill="white" stroke="#FF5500" stroke-width="0.924172"/>
<circle cx="306.801" cy="273.668" r="1.53791" fill="white" stroke="#FF5500" stroke-width="0.924172"/>
<circle cx="301.52" cy="254.73" r="1.53791" fill="white" stroke="#FF5500" stroke-width="0.924172"/>
<circle cx="317.408" cy="255.4" r="1.53791" fill="white" stroke="#FF5500" stroke-width="0.924172"/>
<circle cx="311.857" cy="262.23" r="1.53791" fill="white" stroke="#FF5500" stroke-width="0.924172"/>
<circle cx="322.094" cy="281.23" r="1.53791" fill="white" stroke="#FF5500" stroke-width="0.924172"/>
<circle cx="291.276" cy="318.379" r="1.53791" fill="white" stroke="#FF5500" stroke-width="0.924172"/>
<circle cx="343.265" cy="231.23" r="1.53791" fill="white" stroke="#FF5500" stroke-width="0.924172"/>
<circle cx="327.566" cy="265.568" r="1.53791" fill="white" stroke="#FF5500" stroke-width="0.924172"/>
<circle cx="332.195" cy="278.73" r="1.53791" fill="white" stroke="#FF5500" stroke-width="0.924172"/>
<circle cx="359.085" cy="283.73" r="1.53791" fill="white" stroke="#FF5500" stroke-width="0.924172"/>
<circle cx="337.642" cy="332.459" r="1.53791" fill="white" stroke="#FF5500" stroke-width="0.924172"/>
<circle cx="348.27" cy="307.203" r="1.53791" fill="white" stroke="#FF5500" stroke-width="0.924172"/>
<circle cx="363.977" cy="246.582" r="1.53791" fill="white" stroke="#FF5500" stroke-width="0.924172"/>
<circle cx="374.399" cy="321.711" r="1.53791" fill="white" stroke="#FF5500" stroke-width="0.924172"/>
<circle cx="369.507" cy="262.945" r="1.53791" fill="white" stroke="#FF5500" stroke-width="0.924172"/>
<circle cx="389.833" cy="258.945" r="1.53791" fill="white" stroke="#FF5500" stroke-width="0.924172"/>
<circle cx="385.05" cy="325.711" r="1.53791" fill="white" stroke="#FF5500" stroke-width="0.924172"/>
<circle cx="405.972" cy="266.945" r="1.53791" fill="white" stroke="#FF5500" stroke-width="0.924172"/>
<circle cx="400.893" cy="273.73" r="1.53791" fill="white" stroke="#FF5500" stroke-width="0.924172"/>
<circle cx="395.567" cy="299.836" r="1.53791" fill="white" stroke="#FF5500" stroke-width="0.924172"/>
<circle cx="411.001" cy="291.988" r="1.53791" fill="white" stroke="#FF5500" stroke-width="0.924172"/>
<circle cx="421.681" cy="231.336" r="1.53791" fill="white" stroke="#FF5500" stroke-width="0.924172"/>
<circle cx="416.676" cy="290.854" r="1.53791" fill="white" stroke="#FF5500" stroke-width="0.924172"/>
<circle cx="426.893" cy="262.572" r="1.53791" fill="white" stroke="#FF5500" stroke-width="0.924172"/>
<circle cx="432.981" cy="247.586" r="1.53791" fill="white" stroke="#FF5500" stroke-width="0.924172"/>
<circle cx="464.07" cy="247.586" r="1.53791" fill="white" stroke="#FF5500" stroke-width="0.924172"/>
<circle cx="468.275" cy="326.82" r="1.53791" fill="white" stroke="#FF5500" stroke-width="0.924172"/>
<circle cx="483.799" cy="324.82" r="1.53791" fill="white" stroke="#FF5500" stroke-width="0.924172"/>
<circle cx="473.991" cy="252.428" r="1.53791" fill="white" stroke="#FF5500" stroke-width="0.924172"/>
<circle cx="479.951" cy="232.887" r="1.53791" fill="white" stroke="#FF5500" stroke-width="0.924172"/>
<circle cx="489.682" cy="307.832" r="1.53791" fill="white" stroke="#FF5500" stroke-width="0.924172"/>
<circle cx="495.156" cy="332.41" r="1.53791" fill="white" stroke="#FF5500" stroke-width="0.924172"/>
<circle cx="500.156" cy="274.605" r="1.53791" fill="white" stroke="#FF5500" stroke-width="0.924172"/>
<circle cx="505.713" cy="293.969" r="1.53791" fill="white" stroke="#FF5500" stroke-width="0.924172"/>
<circle cx="510.156" cy="324.82" r="1.53791" fill="white" stroke="#FF5500" stroke-width="0.924172"/>
<circle cx="536.766" cy="255.527" r="1.53791" fill="white" stroke="#FF5500" stroke-width="0.924172"/>
<circle cx="531.557" cy="260.682" r="1.53791" fill="white" stroke="#FF5500" stroke-width="0.924172"/>
<circle cx="526" cy="242.18" r="1.53791" fill="white" stroke="#FF5500" stroke-width="0.924172"/>
<circle cx="516.128" cy="320.291" r="1.53791" fill="white" stroke="#FF5500" stroke-width="0.924172"/>
<circle cx="522.132" cy="305.832" r="1.53791" fill="white" stroke="#FF5500" stroke-width="0.924172"/>
<circle cx="448.085" cy="240.086" r="1.53791" fill="white" stroke="#FF5500" stroke-width="0.924172"/>
<circle cx="443.244" cy="280.73" r="1.53791" fill="white" stroke="#FF5500" stroke-width="0.924172"/>
<circle cx="452.926" cy="321.535" r="1.53791" fill="white" stroke="#FF5500" stroke-width="0.924172"/>
<circle cx="437.689" cy="296.818" r="1.53791" fill="white" stroke="#FF5500" stroke-width="0.924172"/>
<circle cx="379.373" cy="339.445" r="1.53791" fill="white" stroke="#FF5500" stroke-width="0.924172"/>
</g>
<rect x="0.5" y="0.5" width="535" height="409" rx="15.5" stroke="url(#paint2_linear_9047_109738)" stroke-opacity="0.47"/>
<defs>
<filter id="filter0_dddd_9047_109738" x="265" y="99" width="130" height="161" filterUnits="userSpaceOnUse" color-interpolation-filters="sRGB">
<feFlood flood-opacity="0" result="BackgroundImageFix"/>
<feColorMatrix in="SourceAlpha" type="matrix" values="0 0 0 0 0 0 0 0 0 0 0 0 0 0 0 0 0 0 127 0" result="hardAlpha"/>
<feOffset dy="5"/>
<feGaussianBlur stdDeviation="6"/>
<feColorMatrix type="matrix" values="0 0 0 0 0.615686 0 0 0 0 0.584314 0 0 0 0 0.584314 0 0 0 0.2 0"/>
<feBlend mode="normal" in2="BackgroundImageFix" result="effect1_dropShadow_9047_109738"/>
<feColorMatrix in="SourceAlpha" type="matrix" values="0 0 0 0 0 0 0 0 0 0 0 0 0 0 0 0 0 0 127 0" result="hardAlpha"/>
<feOffset dy="22"/>
<feGaussianBlur stdDeviation="11"/>
<feColorMatrix type="matrix" values="0 0 0 0 0.615686 0 0 0 0 0.584314 0 0 0 0 0.584314 0 0 0 0.18 0"/>
<feBlend mode="normal" in2="effect1_dropShadow_9047_109738" result="effect2_dropShadow_9047_109738"/>
<feColorMatrix in="SourceAlpha" type="matrix" values="0 0 0 0 0 0 0 0 0 0 0 0 0 0 0 0 0 0 127 0" result="hardAlpha"/>
<feOffset dy="49"/>
<feGaussianBlur stdDeviation="14.5"/>
<feColorMatrix type="matrix" values="0 0 0 0 0.615686 0 0 0 0 0.584314 0 0 0 0 0.584314 0 0 0 0.1 0"/>
<feBlend mode="normal" in2="effect2_dropShadow_9047_109738" result="effect3_dropShadow_9047_109738"/>
<feColorMatrix in="SourceAlpha" type="matrix" values="0 0 0 0 0 0 0 0 0 0 0 0 0 0 0 0 0 0 127 0" result="hardAlpha"/>
<feOffset dy="87"/>
<feGaussianBlur stdDeviation="17.5"/>
<feColorMatrix type="matrix" values="0 0 0 0 0.615686 0 0 0 0 0.584314 0 0 0 0 0.584314 0 0 0 0.03 0"/>
<feBlend mode="normal" in2="effect3_dropShadow_9047_109738" result="effect4_dropShadow_9047_109738"/>
<feBlend mode="normal" in="SourceGraphic" in2="effect4_dropShadow_9047_109738" result="shape"/>
</filter>
<filter id="filter1_f_9047_109738" x="124" y="86.3594" width="533.52" height="393.641" filterUnits="userSpaceOnUse" color-interpolation-filters="sRGB">
<feFlood flood-opacity="0" result="BackgroundImageFix"/>
<feBlend mode="normal" in="SourceGraphic" in2="BackgroundImageFix" result="shape"/>
<feGaussianBlur stdDeviation="40" result="effect1_foregroundBlur_9047_109738"/>
</filter>
<filter id="filter2_f_9047_109738" x="257.199" y="231.031" width="303.753" height="117.893" filterUnits="userSpaceOnUse" color-interpolation-filters="sRGB">
<feFlood flood-opacity="0" result="BackgroundImageFix"/>
<feBlend mode="normal" in="SourceGraphic" in2="BackgroundImageFix" result="shape"/>
<feGaussianBlur stdDeviation="2" result="effect1_foregroundBlur_9047_109738"/>
</filter>
<linearGradient id="paint0_linear_9047_109738" x1="268" y1="0" x2="268" y2="410" gradientUnits="userSpaceOnUse">
<stop stop-color="#161C20"/>
<stop offset="1" stop-color="#0A0D0F"/>
</linearGradient>
<radialGradient id="paint1_radial_9047_109738" cx="0" cy="0" r="1" gradientUnits="userSpaceOnUse" gradientTransform="translate(245.443 341.879) rotate(-90) scale(344.369 507.425)">
<stop stop-color="white"/>
<stop offset="1" stop-color="#F5F6F7" stop-opacity="0.1"/>
</radialGradient>
<linearGradient id="paint2_linear_9047_109738" x1="268" y1="0" x2="268" y2="410" gradientUnits="userSpaceOnUse">
<stop stop-color="#3B3D3F" stop-opacity="0.4"/>
<stop offset="1" stop-color="#3B3D3F"/>
</linearGradient>
<clipPath id="clip0_9047_109738">
<rect width="536" height="410" rx="16" fill="white"/>
</clipPath>
<clipPath id="clip1_9047_109738">
<rect x="48" y="48" width="440" height="314" rx="14.7867" fill="white"/>
</clipPath>
<clipPath id="clip2_9047_109738">
<rect width="143" height="84" fill="white" transform="translate(181 173)"/>
</clipPath>
<clipPath id="clip3_9047_109738">
<rect width="143" height="84" fill="white" transform="translate(325 173)"/>
</clipPath>
<clipPath id="clip4_9047_109738">
<rect width="143" height="84" fill="white" transform="translate(181 258)"/>
</clipPath>
<clipPath id="clip5_9047_109738">
<path d="M325 258H468V335.6C468 337.84 468 338.96 467.564 339.816C467.181 340.569 466.569 341.181 465.816 341.564C464.96 342 463.84 342 461.6 342H325V258Z" fill="white"/>
</clipPath>
<clipPath id="clip6_9047_109738">
<rect width="26" height="126" fill="white" transform="translate(232.893 226.23)"/>
</clipPath>
</defs>
</svg>
