<svg width="387" height="326" viewBox="0 0 387 326" fill="none" xmlns="http://www.w3.org/2000/svg">
<mask id="mask0_993_8465" style="mask-type:alpha" maskUnits="userSpaceOnUse" x="0" y="0" width="387" height="323">
<rect x="0.332031" y="0.398438" width="386.15" height="322.602" fill="url(#paint0_linear_993_8465)"/>
</mask>
<g mask="url(#mask0_993_8465)">
<path d="M13.3672 -10.875V335.141" stroke="#1A2024" stroke-width="0.630746"/>
<path d="M43.3672 -10.875V335.141" stroke="#1A2024" stroke-width="0.630746"/>
<path d="M73.3672 -10.875V335.141" stroke="#1A2024" stroke-width="0.630746"/>
<path d="M103.367 -10.875V335.141" stroke="#1A2024" stroke-width="0.630746"/>
<path d="M133.367 -10.875V335.141" stroke="#1A2024" stroke-width="0.630746"/>
<path d="M163.367 -10.875V335.141" stroke="#1A2024" stroke-width="0.630746"/>
<path d="M193.367 -10.875V335.141" stroke="#1A2024" stroke-width="0.630746"/>
<path d="M223.367 -10.875V335.141" stroke="#1A2024" stroke-width="0.630746"/>
<path d="M253.367 -10.875V335.141" stroke="#1A2024" stroke-width="0.630746"/>
<path d="M283.367 -10.875V335.141" stroke="#1A2024" stroke-width="0.630746"/>
<path d="M313.367 -10.875V335.141" stroke="#1A2024" stroke-width="0.630746"/>
<path d="M343.367 -10.875V335.141" stroke="#1A2024" stroke-width="0.630746"/>
<path d="M373.367 -10.875V335.141" stroke="#1A2024" stroke-width="0.630746"/>
</g>
<path d="M71.3633 67.7504V157.872M315.301 67.7504V157.872M315.301 247.993V157.872M71.3633 247.993V157.872M71.3633 157.872H193.332M315.301 157.872H193.332M193.332 157.872V33.9219" stroke="#25292C" stroke-linecap="round"/>
<rect x="72.3242" y="33.4922" width="242.016" height="242.016" rx="121.008" stroke="#3B3D3F" stroke-dasharray="1 4"/>
<circle cx="193.332" cy="32.9922" r="2" fill="#3B3D3F"/>
<circle cx="71.3633" cy="157.809" r="3.89062" fill="#3B3D3F"/>
<circle cx="315.301" cy="157.867" r="3.89062" fill="#3B3D3F"/>
<g filter="url(#filter0_f_993_8465)">
<ellipse cx="193.999" cy="165.976" rx="73.0833" ry="70.4365" fill="#0A0D0F"/>
</g>
<rect x="116.5" y="77.5" width="154.229" height="154.229" rx="77.1145" fill="#0A0D0F" stroke="url(#paint1_linear_993_8465)"/>
<g filter="url(#filter1_i_993_8465)">
<rect x="124" y="85" width="139" height="139" rx="69.5" fill="#060809"/>
</g>
<rect x="124.5" y="85.5" width="138" height="138" rx="69" stroke="url(#paint2_linear_993_8465)"/>
<rect x="129.5" y="90.5" width="128" height="128" rx="64" fill="#0A0D0F" stroke="url(#paint3_linear_993_8465)"/>
<g filter="url(#filter2_i_993_8465)">
<rect x="134" y="95" width="119" height="119" rx="59.5" fill="#060809"/>
</g>
<rect x="134.5" y="95.5" width="118" height="118" rx="59" stroke="url(#paint4_linear_993_8465)"/>
<rect x="139.5" y="100.5" width="107" height="108" rx="53.5" fill="#0A0D0F" stroke="url(#paint5_linear_993_8465)"/>
<path fill-rule="evenodd" clip-rule="evenodd" d="M213.872 153.558C213.872 165.432 204.246 175.058 192.372 175.058C180.498 175.058 170.872 165.432 170.872 153.558C170.872 141.683 180.498 132.058 192.372 132.058C204.246 132.058 213.872 141.683 213.872 153.558ZM189.039 155.107H185.298C184.094 155.107 183.449 153.688 184.245 152.785L193.404 142.379C194.264 141.411 195.855 142.013 195.855 143.303V152.011H199.596C200.8 152.011 201.445 153.43 200.649 154.333L191.49 164.739C190.63 165.706 189.039 165.104 189.039 163.814V155.107Z" fill="#FFCB5C"/>
<rect x="291.737" y="232.663" width="47.128" height="47.128" rx="7.564" fill="url(#paint6_linear_993_8465)"/>
<rect x="291.737" y="232.663" width="47.128" height="47.128" rx="7.564" stroke="url(#paint7_linear_993_8465)" stroke-width="0.872003"/>
<path d="M327.186 253.46C327.802 251.553 327.59 249.465 326.604 247.731C325.122 245.071 322.142 243.702 319.231 244.346C317.936 242.843 316.076 241.988 314.126 242C311.15 241.993 308.511 243.967 307.595 246.884C305.684 247.288 304.035 248.521 303.069 250.268C301.576 252.921 301.916 256.265 303.911 258.54C303.295 260.447 303.507 262.536 304.493 264.27C305.975 266.93 308.956 268.298 311.866 267.654C313.16 269.158 315.021 270.012 316.972 269.999C319.948 270.007 322.589 268.031 323.504 265.112C325.415 264.708 327.065 263.475 328.031 261.728C329.522 259.075 329.181 255.733 327.187 253.458L327.186 253.46ZM316.973 268.17C315.782 268.171 314.628 267.742 313.714 266.955C313.755 266.932 313.828 266.891 313.874 266.862L319.284 263.642C319.561 263.48 319.731 263.176 319.729 262.848V254.988L322.016 256.348C322.04 256.361 322.057 256.385 322.06 256.413V262.922C322.057 265.817 319.782 268.164 316.973 268.17ZM306.034 263.355C305.437 262.292 305.222 261.047 305.427 259.839C305.467 259.863 305.537 259.908 305.587 259.938L310.998 263.158C311.272 263.323 311.612 263.323 311.887 263.158L318.491 259.227V261.948C318.493 261.976 318.48 262.004 318.459 262.021L312.99 265.275C310.554 266.721 307.444 265.861 306.035 263.355H306.034ZM304.61 251.184C305.205 250.12 306.143 249.306 307.26 248.884C307.26 248.932 307.258 249.017 307.258 249.076V255.517C307.256 255.844 307.426 256.148 307.702 256.31L314.306 260.24L312.02 261.6C311.997 261.616 311.968 261.619 311.943 261.607L306.473 258.35C304.042 256.9 303.208 253.695 304.609 251.185L304.61 251.184ZM323.396 255.69L316.792 251.759L319.078 250.399C319.101 250.384 319.13 250.381 319.155 250.392L324.625 253.646C327.06 255.096 327.895 258.307 326.488 260.816C325.893 261.878 324.955 262.692 323.839 263.116V256.482C323.841 256.155 323.672 255.852 323.397 255.69H323.396ZM325.672 252.16C325.632 252.134 325.562 252.091 325.511 252.061L320.101 248.841C319.827 248.676 319.487 248.676 319.212 248.841L312.607 252.771V250.05C312.606 250.022 312.619 249.995 312.64 249.978L318.109 246.726C320.544 245.278 323.659 246.14 325.063 248.651C325.657 249.712 325.871 250.953 325.67 252.16H325.672ZM311.364 257.01L309.077 255.649C309.052 255.637 309.036 255.613 309.033 255.585V249.075C309.035 246.177 311.316 243.829 314.128 243.831C315.318 243.831 316.469 244.261 317.383 245.045C317.342 245.068 317.27 245.109 317.223 245.139L311.813 248.359C311.536 248.521 311.366 248.823 311.368 249.152L311.364 257.008V257.01ZM312.607 254.25L315.549 252.499L318.491 254.249V257.75L315.549 259.5L312.607 257.75V254.25Z" fill="white"/>
<path d="M45.3673 278.307L45.3548 278.301L45.3418 278.295C39.3983 275.618 35.2602 269.633 35.2602 262.679C35.2602 253.228 42.9049 245.568 52.3331 245.568C53.8125 245.568 55.1732 244.655 55.7211 243.277C58.4273 236.471 65.0619 231.663 72.8153 231.663C82.9733 231.663 91.2096 239.916 91.2096 250.098C91.2096 252.183 92.7684 254.176 94.9597 254.176H95.6099C102.666 254.176 108.388 259.909 108.388 266.983C108.388 274.057 102.666 279.791 95.6099 279.791H51.3421C49.1828 279.791 47.1499 279.254 45.3673 278.307Z" fill="url(#paint8_linear_993_8465)" stroke="url(#paint9_linear_993_8465)" stroke-width="0.872003"/>
<g clip-path="url(#clip0_993_8465)">
<path d="M64.1547 259.577C64.1547 259.986 64.1979 260.318 64.2735 260.562C64.3599 260.805 64.4679 261.071 64.619 261.359C64.673 261.447 64.6946 261.536 64.6946 261.613C64.6946 261.724 64.6298 261.835 64.4895 261.945L63.8092 262.41C63.712 262.477 63.6148 262.51 63.5284 262.51C63.4205 262.51 63.3125 262.455 63.2045 262.355C63.0533 262.189 62.9237 262.012 62.8158 261.835C62.7078 261.647 62.5998 261.436 62.481 261.182C61.6388 262.2 60.5805 262.709 59.3064 262.709C58.3993 262.709 57.6758 262.443 57.1467 261.912C56.6176 261.381 56.3477 260.673 56.3477 259.787C56.3477 258.846 56.6716 258.083 57.3303 257.507C57.989 256.932 58.8636 256.644 59.9758 256.644C60.343 256.644 60.7209 256.677 61.1204 256.732C61.52 256.788 61.9303 256.876 62.3622 256.976V256.168C62.3622 255.327 62.1895 254.74 61.8547 254.397C61.5092 254.054 60.9261 253.888 60.0946 253.888C59.7167 253.888 59.3279 253.932 58.9284 254.032C58.5289 254.132 58.1402 254.253 57.7622 254.408C57.5894 254.486 57.4599 254.53 57.3843 254.552C57.3087 254.574 57.2547 254.585 57.2115 254.585C57.0603 254.585 56.9847 254.475 56.9847 254.242V253.7C56.9847 253.523 57.0063 253.39 57.0603 253.313C57.1143 253.235 57.2115 253.158 57.3627 253.08C57.7406 252.881 58.1941 252.715 58.7233 252.582C59.2524 252.438 59.8139 252.372 60.4078 252.372C61.6927 252.372 62.6322 252.671 63.2369 253.268C63.8308 253.866 64.1331 254.773 64.1331 255.991V259.577H64.1547ZM59.7707 261.259C60.127 261.259 60.4941 261.193 60.8829 261.06C61.2716 260.927 61.6172 260.684 61.9087 260.352C62.0815 260.141 62.2111 259.909 62.2758 259.643C62.3406 259.378 62.3838 259.057 62.3838 258.68V258.216C62.0707 258.138 61.7359 258.072 61.3904 258.027C61.0449 257.983 60.7101 257.961 60.3754 257.961C59.6519 257.961 59.1228 258.105 58.7664 258.404C58.4101 258.703 58.2373 259.123 58.2373 259.677C58.2373 260.197 58.3669 260.584 58.6369 260.85C58.896 261.126 59.274 261.259 59.7707 261.259ZM68.4416 262.455C68.2472 262.455 68.1177 262.421 68.0313 262.344C67.9449 262.277 67.8693 262.123 67.8045 261.912L65.2669 253.357C65.2021 253.135 65.1698 252.992 65.1698 252.914C65.1698 252.737 65.2561 252.637 65.4289 252.637H66.4871C66.6923 252.637 66.8327 252.671 66.9083 252.748C66.9946 252.814 67.0594 252.969 67.1242 253.18L68.9383 260.507L70.6228 253.18C70.6768 252.958 70.7416 252.814 70.828 252.748C70.9144 252.682 71.0655 252.637 71.2599 252.637H72.1238C72.3289 252.637 72.4693 252.671 72.5557 252.748C72.6421 252.814 72.7177 252.969 72.7609 253.18L74.467 260.595L76.335 253.18C76.3998 252.958 76.4754 252.814 76.551 252.748C76.6374 252.682 76.7778 252.637 76.9721 252.637H77.9764C78.1491 252.637 78.2463 252.726 78.2463 252.914C78.2463 252.969 78.2355 253.025 78.2247 253.091C78.2139 253.158 78.1923 253.246 78.1491 253.368L75.5468 261.923C75.482 262.145 75.4064 262.289 75.32 262.355C75.2336 262.421 75.0933 262.466 74.9097 262.466H73.9811C73.7759 262.466 73.6355 262.432 73.5491 262.355C73.4627 262.277 73.3872 262.134 73.344 261.912L71.6702 254.773L70.0073 261.901C69.9533 262.123 69.8885 262.266 69.8022 262.344C69.7158 262.421 69.5646 262.455 69.3702 262.455H68.4416ZM82.3172 262.753C81.7557 262.753 81.1942 262.687 80.6543 262.554C80.1144 262.421 79.6933 262.277 79.4125 262.111C79.2398 262.012 79.121 261.901 79.0778 261.802C79.0346 261.702 79.013 261.591 79.013 261.492V260.927C79.013 260.695 79.0994 260.584 79.2614 260.584C79.3261 260.584 79.3909 260.595 79.4557 260.617C79.5205 260.639 79.6177 260.684 79.7257 260.728C80.0928 260.894 80.4923 261.027 80.9135 261.115C81.3454 261.204 81.7665 261.248 82.1985 261.248C82.8787 261.248 83.4078 261.126 83.775 260.883C84.1421 260.639 84.3365 260.285 84.3365 259.831C84.3365 259.522 84.2393 259.267 84.0449 259.057C83.8506 258.846 83.4834 258.658 82.9543 258.481L81.3886 257.983C80.6003 257.729 80.0172 257.352 79.6609 256.854C79.3045 256.367 79.121 255.825 79.121 255.249C79.121 254.785 79.2182 254.375 79.4125 254.021C79.6069 253.667 79.866 253.357 80.19 253.113C80.5139 252.859 80.8811 252.671 81.313 252.538C81.7449 252.405 82.1985 252.35 82.6736 252.35C82.9111 252.35 83.1595 252.361 83.397 252.394C83.6454 252.427 83.8722 252.471 84.0989 252.516C84.3149 252.571 84.5201 252.626 84.7144 252.693C84.9088 252.759 85.06 252.826 85.1679 252.892C85.3191 252.98 85.4271 253.069 85.4919 253.169C85.5567 253.257 85.5891 253.379 85.5891 253.534V254.054C85.5891 254.286 85.5027 254.408 85.3407 254.408C85.2543 254.408 85.114 254.364 84.9304 254.275C84.3149 253.988 83.6238 253.844 82.8571 253.844C82.2416 253.844 81.7557 253.943 81.421 254.154C81.0862 254.364 80.9135 254.685 80.9135 255.139C80.9135 255.449 81.0215 255.714 81.2374 255.925C81.4534 256.135 81.8529 256.345 82.4252 256.533L83.9585 257.031C84.736 257.286 85.2975 257.64 85.6323 258.094C85.967 258.548 86.129 259.068 86.129 259.643C86.129 260.119 86.0318 260.551 85.8482 260.927C85.6539 261.303 85.3947 261.636 85.06 261.901C84.7252 262.178 84.3257 262.377 83.8614 262.521C83.3755 262.676 82.8679 262.753 82.3172 262.753Z" fill="white"/>
<path fill-rule="evenodd" clip-rule="evenodd" d="M84.3582 268.156C80.8056 270.846 75.6441 272.274 71.2061 272.274C64.9863 272.274 59.3821 269.916 55.1492 265.998C54.8145 265.688 55.1168 265.268 55.5163 265.511C60.0948 268.234 65.7422 269.883 71.584 269.883C75.5253 269.883 79.8554 269.042 83.8399 267.315C84.4338 267.039 84.9413 267.714 84.3582 268.156Z" fill="white"/>
<path fill-rule="evenodd" clip-rule="evenodd" d="M85.837 266.423C85.3835 265.826 82.8351 266.136 81.6797 266.28C81.3342 266.324 81.2802 266.014 81.5933 265.781C83.6234 264.321 86.96 264.741 87.3487 265.228C87.7375 265.726 87.2408 269.146 85.3403 270.784C85.0487 271.039 84.768 270.906 84.8976 270.574C85.3295 269.478 86.2905 267.01 85.837 266.423Z" fill="white"/>
</g>
<path d="M45.3673 75.0808L45.3548 75.0741L45.3418 75.0683C39.3983 72.3911 35.2602 66.406 35.2602 59.4527C35.2602 50.0015 42.9049 42.3414 52.3331 42.3414C53.8125 42.3414 55.1732 41.428 55.7211 40.0501C58.4273 33.2441 65.0619 28.436 72.8153 28.436C82.9733 28.436 91.2096 36.689 91.2096 46.8716C91.2096 48.9565 92.7684 50.9495 94.9597 50.9495H95.6099C102.666 50.9495 108.388 56.6826 108.388 63.7568C108.388 70.8309 102.666 76.564 95.6099 76.564H51.3421C49.1828 76.564 47.1499 76.0276 45.3673 75.0808Z" fill="url(#paint10_linear_993_8465)" stroke="url(#paint11_linear_993_8465)" stroke-width="0.872003"/>
<path d="M76.4984 48.751H73.2635L79.1528 64.5962L82.3877 64.5965L76.4984 48.751ZM67.15 48.751L61.2607 64.5965H64.5619L65.7503 61.2691L71.93 61.2688L73.1315 64.5965H76.4326L70.5303 48.751H67.15ZM66.8329 58.3243L68.8402 52.7521L70.8604 58.3243H66.8329Z" fill="white"/>
<path d="M288.543 75.0808L288.531 75.0741L288.518 75.0683C282.574 72.3911 278.436 66.406 278.436 59.4527C278.436 50.0015 286.081 42.3414 295.509 42.3414C296.988 42.3414 298.349 41.428 298.897 40.0501C301.603 33.2441 308.238 28.436 315.991 28.436C326.149 28.436 334.385 36.689 334.385 46.8716C334.385 48.9565 335.944 50.9495 338.135 50.9495H338.786C345.842 50.9495 351.564 56.6826 351.564 63.7568C351.564 70.8309 345.842 76.564 338.786 76.564H294.518C292.359 76.564 290.326 76.0276 288.543 75.0808Z" fill="url(#paint12_linear_993_8465)" stroke="url(#paint13_linear_993_8465)" stroke-width="0.872003"/>
<path d="M311.946 47.3635H317.371L311.74 64.0483C311.682 64.2197 311.572 64.3687 311.425 64.4742C311.278 64.5798 311.101 64.6366 310.92 64.6366H306.699C306.562 64.6366 306.426 64.604 306.304 64.5414C306.182 64.4789 306.077 64.3881 305.997 64.2768C305.917 64.1654 305.865 64.0366 305.844 63.901C305.824 63.7654 305.836 63.6269 305.88 63.497L311.127 47.9518C311.185 47.7803 311.295 47.6313 311.442 47.5257C311.589 47.4201 311.765 47.3635 311.946 47.3635Z" fill="#EBECEC"/>
<path d="M319.828 58.5566H311.226C311.146 58.5566 311.068 58.5806 311.002 58.6255C310.936 58.6705 310.885 58.7343 310.855 58.8087C310.826 58.8831 310.82 58.9646 310.837 59.0426C310.855 59.1206 310.896 59.1915 310.954 59.246L316.482 64.4052C316.643 64.5553 316.855 64.6388 317.075 64.6387H321.946L319.828 58.5566Z" fill="#EBECEC"/>
<path d="M311.946 47.3633C311.763 47.3626 311.585 47.4204 311.437 47.5283C311.289 47.6362 311.18 47.7886 311.125 47.9631L305.887 63.4827C305.84 63.613 305.825 63.7528 305.844 63.89C305.862 64.0273 305.914 64.158 305.994 64.2712C306.074 64.3844 306.18 64.4767 306.303 64.5402C306.426 64.6038 306.562 64.6368 306.701 64.6364H311.031C311.193 64.6076 311.343 64.5365 311.468 64.4303C311.593 64.3242 311.687 64.1868 311.742 64.0322L312.786 60.9537L316.518 64.4339C316.674 64.5632 316.87 64.6348 317.073 64.6364H321.926L319.797 58.5543L313.593 58.5558L317.39 47.3633H311.946Z" fill="url(#paint14_linear_993_8465)"/>
<path d="M318.874 47.9508C318.816 47.7795 318.706 47.6307 318.559 47.5253C318.412 47.4199 318.236 47.3633 318.055 47.3633H312.01C312.19 47.3633 312.367 47.42 312.513 47.5254C312.66 47.6308 312.77 47.7796 312.828 47.9508L318.075 63.4966C318.119 63.6265 318.131 63.7651 318.111 63.9007C318.09 64.0363 318.038 64.1652 317.958 64.2766C317.878 64.388 317.773 64.4787 317.651 64.5413C317.529 64.6039 317.394 64.6366 317.256 64.6366H323.302C323.439 64.6366 323.575 64.6039 323.697 64.5413C323.818 64.4786 323.924 64.3879 324.004 64.2765C324.084 64.1651 324.136 64.0362 324.156 63.9006C324.177 63.765 324.164 63.6265 324.12 63.4966L318.874 47.9508Z" fill="white"/>
<defs>
<filter id="filter0_f_993_8465" x="114.916" y="89.5391" width="158.167" height="152.873" filterUnits="userSpaceOnUse" color-interpolation-filters="sRGB">
<feFlood flood-opacity="0" result="BackgroundImageFix"/>
<feBlend mode="normal" in="SourceGraphic" in2="BackgroundImageFix" result="shape"/>
<feGaussianBlur stdDeviation="3" result="effect1_foregroundBlur_993_8465"/>
</filter>
<filter id="filter1_i_993_8465" x="124" y="85" width="139" height="140" filterUnits="userSpaceOnUse" color-interpolation-filters="sRGB">
<feFlood flood-opacity="0" result="BackgroundImageFix"/>
<feBlend mode="normal" in="SourceGraphic" in2="BackgroundImageFix" result="shape"/>
<feColorMatrix in="SourceAlpha" type="matrix" values="0 0 0 0 0 0 0 0 0 0 0 0 0 0 0 0 0 0 127 0" result="hardAlpha"/>
<feOffset dy="1"/>
<feGaussianBlur stdDeviation="1"/>
<feComposite in2="hardAlpha" operator="arithmetic" k2="-1" k3="1"/>
<feColorMatrix type="matrix" values="0 0 0 0 0 0 0 0 0 0 0 0 0 0 0 0 0 0 1 0"/>
<feBlend mode="normal" in2="shape" result="effect1_innerShadow_993_8465"/>
</filter>
<filter id="filter2_i_993_8465" x="134" y="95" width="119" height="120" filterUnits="userSpaceOnUse" color-interpolation-filters="sRGB">
<feFlood flood-opacity="0" result="BackgroundImageFix"/>
<feBlend mode="normal" in="SourceGraphic" in2="BackgroundImageFix" result="shape"/>
<feColorMatrix in="SourceAlpha" type="matrix" values="0 0 0 0 0 0 0 0 0 0 0 0 0 0 0 0 0 0 127 0" result="hardAlpha"/>
<feOffset dy="1"/>
<feGaussianBlur stdDeviation="1"/>
<feComposite in2="hardAlpha" operator="arithmetic" k2="-1" k3="1"/>
<feColorMatrix type="matrix" values="0 0 0 0 0 0 0 0 0 0 0 0 0 0 0 0 0 0 1 0"/>
<feBlend mode="normal" in2="shape" result="effect1_innerShadow_993_8465"/>
</filter>
<linearGradient id="paint0_linear_993_8465" x1="193.407" y1="0.398437" x2="193.407" y2="323" gradientUnits="userSpaceOnUse">
<stop offset="0.481106" stop-color="#737373"/>
<stop offset="1" stop-color="#737373" stop-opacity="0"/>
</linearGradient>
<linearGradient id="paint1_linear_993_8465" x1="193.614" y1="154.562" x2="193.614" y2="232.229" gradientUnits="userSpaceOnUse">
<stop stop-color="#3B3D3F" stop-opacity="0.5"/>
<stop offset="1" stop-color="#3B3D3F" stop-opacity="0.89"/>
</linearGradient>
<linearGradient id="paint2_linear_993_8465" x1="193.479" y1="84.342" x2="193.534" y2="224" gradientUnits="userSpaceOnUse">
<stop stop-color="#1E1E1F" stop-opacity="0"/>
<stop offset="1" stop-color="#1E1E1F" stop-opacity="0.8"/>
</linearGradient>
<linearGradient id="paint3_linear_993_8465" x1="193.5" y1="90" x2="193.5" y2="219" gradientUnits="userSpaceOnUse">
<stop stop-color="#3B3D3F" stop-opacity="0.5"/>
<stop offset="1" stop-color="#3B3D3F" stop-opacity="0.8"/>
</linearGradient>
<linearGradient id="paint4_linear_993_8465" x1="193.482" y1="94.4366" x2="193.529" y2="214" gradientUnits="userSpaceOnUse">
<stop stop-color="#1E1E1F" stop-opacity="0"/>
<stop offset="1" stop-color="#1E1E1F" stop-opacity="0.8"/>
</linearGradient>
<linearGradient id="paint5_linear_993_8465" x1="193" y1="100" x2="193" y2="209" gradientUnits="userSpaceOnUse">
<stop stop-color="#3B3D3F" stop-opacity="0.2"/>
<stop offset="1" stop-color="#3B3D3F" stop-opacity="0.4"/>
</linearGradient>
<linearGradient id="paint6_linear_993_8465" x1="315.301" y1="232.227" x2="315.301" y2="280.227" gradientUnits="userSpaceOnUse">
<stop stop-color="#161C20"/>
<stop offset="1" stop-color="#0A0D0F"/>
</linearGradient>
<linearGradient id="paint7_linear_993_8465" x1="315.301" y1="256.21" x2="315.301" y2="280.227" gradientUnits="userSpaceOnUse">
<stop stop-color="#3B3D3F" stop-opacity="0.5"/>
<stop offset="1" stop-color="#3B3D3F" stop-opacity="0.89"/>
</linearGradient>
<linearGradient id="paint8_linear_993_8465" x1="71.8242" y1="231.227" x2="71.8242" y2="280.227" gradientUnits="userSpaceOnUse">
<stop stop-color="#161C20"/>
<stop offset="1" stop-color="#0A0D0F"/>
</linearGradient>
<linearGradient id="paint9_linear_993_8465" x1="71.8242" y1="255.71" x2="71.8242" y2="280.227" gradientUnits="userSpaceOnUse">
<stop stop-color="#3B3D3F" stop-opacity="0.5"/>
<stop offset="1" stop-color="#3B3D3F" stop-opacity="0.89"/>
</linearGradient>
<linearGradient id="paint10_linear_993_8465" x1="71.8242" y1="28" x2="71.8242" y2="77" gradientUnits="userSpaceOnUse">
<stop stop-color="#161C20"/>
<stop offset="1" stop-color="#0A0D0F"/>
</linearGradient>
<linearGradient id="paint11_linear_993_8465" x1="71.8242" y1="52.4836" x2="71.8242" y2="77" gradientUnits="userSpaceOnUse">
<stop stop-color="#3B3D3F" stop-opacity="0.5"/>
<stop offset="1" stop-color="#3B3D3F" stop-opacity="0.89"/>
</linearGradient>
<linearGradient id="paint12_linear_993_8465" x1="315" y1="28" x2="315" y2="77" gradientUnits="userSpaceOnUse">
<stop stop-color="#161C20"/>
<stop offset="1" stop-color="#0A0D0F"/>
</linearGradient>
<linearGradient id="paint13_linear_993_8465" x1="315" y1="52.4836" x2="315" y2="77" gradientUnits="userSpaceOnUse">
<stop stop-color="#3B3D3F" stop-opacity="0.5"/>
<stop offset="1" stop-color="#3B3D3F" stop-opacity="0.89"/>
</linearGradient>
<linearGradient id="paint14_linear_993_8465" x1="315.683" y1="56.3993" x2="314.38" y2="56.84" gradientUnits="userSpaceOnUse">
<stop stop-opacity="0.3"/>
<stop offset="0.071" stop-opacity="0.2"/>
<stop offset="0.321" stop-opacity="0.1"/>
<stop offset="0.623" stop-opacity="0.05"/>
<stop offset="1" stop-opacity="0"/>
</linearGradient>
<clipPath id="clip0_993_8465">
<rect width="32.8264" height="20.1435" fill="white" transform="translate(54.8242 252.227)"/>
</clipPath>
</defs>
</svg>
