<svg width="387" height="326" viewBox="0 0 387 326" fill="none" xmlns="http://www.w3.org/2000/svg">
<mask id="mask0_8566_82277" style="mask-type:alpha" maskUnits="userSpaceOnUse" x="0" y="0" width="387" height="323">
<rect x="0.332031" y="0.398438" width="386.15" height="322.602" fill="url(#paint0_linear_8566_82277)"/>
</mask>
<g mask="url(#mask0_8566_82277)">
<path d="M38.334 -0.734375V297.266" stroke="#181E22"/>
<path d="M91.334 -0.734375V297.266" stroke="#181E22"/>
<path d="M144.334 -0.734375V297.266" stroke="#181E22"/>
<path d="M197.334 -0.734375V297.266" stroke="#181E22"/>
<path d="M250.334 -0.734375V297.266" stroke="#181E22"/>
<path d="M303.334 -0.734375V297.266" stroke="#181E22"/>
<path d="M356.334 -0.734375V297.266" stroke="#181E22"/>
<rect x="-3.55469" y="4.75" width="389.5" height="0.5" fill="#2E2E38" stroke="#181E22" stroke-width="0.5"/>
<rect x="-3.55469" y="33.75" width="389.5" height="0.5" fill="#2E2E38" stroke="#181E22" stroke-width="0.5"/>
<rect x="-3.55469" y="62.75" width="389.5" height="0.5" fill="#2E2E38" stroke="#181E22" stroke-width="0.5"/>
<rect x="-3.55469" y="91.75" width="389.5" height="0.5" fill="#2E2E38" stroke="#181E22" stroke-width="0.5"/>
<rect x="-3.55469" y="120.75" width="389.5" height="0.5" fill="#2E2E38" stroke="#181E22" stroke-width="0.5"/>
<rect x="-3.55469" y="149.75" width="389.5" height="0.5" fill="#2E2E38" stroke="#181E22" stroke-width="0.5"/>
<rect x="-3.55469" y="178.75" width="389.5" height="0.5" fill="#2E2E38" stroke="#181E22" stroke-width="0.5"/>
<rect x="-3.55469" y="207.75" width="389.5" height="0.5" fill="#2E2E38" stroke="#181E22" stroke-width="0.5"/>
<rect x="-3.55469" y="236.75" width="389.5" height="0.5" fill="#2E2E38" stroke="#181E22" stroke-width="0.5"/>
<rect x="-3.55469" y="265.75" width="389.5" height="0.5" fill="#2E2E38" stroke="#181E22" stroke-width="0.5"/>
<path d="M-13.7615 159.14C-14.0326 159.087 -14.2096 158.825 -14.1568 158.554C-14.104 158.282 -13.8415 158.105 -13.5705 158.158L-13.7615 159.14ZM39.5117 169L39.6878 169.468L39.5552 169.518L39.4162 169.491L39.5117 169ZM91.334 149.5L91.1579 149.032L91.3868 148.946L91.5954 149.074L91.334 149.5ZM144.334 182L144.738 182.294L144.466 182.668L144.073 182.426L144.334 182ZM197.834 108.5L197.43 108.206L197.777 107.729L198.19 108.149L197.834 108.5ZM251.512 163V163.5H251.302L251.155 163.351L251.512 163ZM302.834 163L303.265 163.254L303.12 163.5H302.834V163ZM355.834 73L355.403 72.7463L355.526 72.5372L355.767 72.5045L355.834 73ZM-13.5705 158.158L39.6073 168.509L39.4162 169.491L-13.7615 159.14L-13.5705 158.158ZM39.3356 168.532L91.1579 149.032L91.5101 149.968L39.6878 169.468L39.3356 168.532ZM91.5954 149.074L144.595 181.574L144.073 182.426L91.0726 149.926L91.5954 149.074ZM143.93 181.706L197.43 108.206L198.238 108.794L144.738 182.294L143.93 181.706ZM198.19 108.149L251.868 162.649L251.155 163.351L197.478 108.851L198.19 108.149ZM251.512 162.5H302.834V163.5H251.512V162.5ZM302.403 162.746L355.403 72.7463L356.265 73.2537L303.265 163.254L302.403 162.746ZM355.767 72.5045L396.267 67.0045L396.401 67.9955L355.901 73.4955L355.767 72.5045Z" fill="url(#paint1_linear_8566_82277)"/>
<circle cx="144.334" cy="182" r="2" fill="#3B3D3F"/>
<circle cx="197.334" cy="109" r="2" fill="#3B3D3F"/>
<circle cx="91.334" cy="150" r="2" fill="#3B3D3F"/>
<circle cx="38.334" cy="169" r="2" fill="#3B3D3F"/>
<circle cx="144.334" cy="266" r="2" fill="#3B3D3F"/>
<circle opacity="0.5" cx="250.334" cy="36" r="2" fill="#3B3D3F"/>
<circle opacity="0.5" cx="303.334" cy="267" r="2" fill="#3B3D3F"/>
<circle cx="250.334" cy="162" r="2" fill="#3B3D3F"/>
<circle cx="303.334" cy="162" r="2" fill="#3B3D3F"/>
<path d="M-7.7661 265.51C-8.03665 265.566 -8.21117 265.83 -8.1559 266.1C-8.10062 266.371 -7.83649 266.545 -7.56593 266.49L-7.7661 265.51ZM38.834 256.5L38.9341 256.99L38.9724 256.982L39.0091 256.969L38.834 256.5ZM145.834 149L146.089 148.57L145.665 148.319L145.407 148.739L145.834 149ZM197.334 179.5L197.079 179.93L197.434 180.14L197.708 179.832L197.334 179.5ZM249.334 121L249.19 120.521L249.054 120.562L248.96 120.668L249.334 121ZM304.334 104.5L304.478 104.979L304.537 104.961L304.59 104.93L304.334 104.5ZM356.334 73.5002L356.59 73.9297L356.622 73.9108L356.65 73.8874L356.334 73.5002ZM92.334 236.5L92.5091 236.969L92.6706 236.908L92.7606 236.761L92.334 236.5ZM-7.56593 266.49L38.9341 256.99L38.7339 256.01L-7.7661 265.51L-7.56593 266.49ZM145.579 149.43L197.079 179.93L197.589 179.07L146.089 148.57L145.579 149.43ZM197.708 179.832L249.708 121.332L248.96 120.668L196.96 179.168L197.708 179.832ZM249.478 121.479L304.478 104.979L304.19 104.021L249.19 120.521L249.478 121.479ZM304.59 104.93L356.59 73.9297L356.078 73.0707L304.078 104.071L304.59 104.93ZM39.0091 256.969L92.5091 236.969L92.1589 236.032L38.6589 256.032L39.0091 256.969ZM92.7606 236.761L146.261 149.261L145.407 148.739L91.9074 236.239L92.7606 236.761ZM356.65 73.8874L392.15 44.8874L391.518 44.113L356.018 73.113L356.65 73.8874Z" fill="url(#paint2_linear_8566_82277)"/>
<circle cx="146.334" cy="149" r="2" fill="#3B3D3F"/>
<circle cx="197.334" cy="179" r="2" fill="#3B3D3F"/>
<circle cx="91.334" cy="237" r="2" fill="#3B3D3F"/>
<circle cx="39.334" cy="256" r="2" fill="#3B3D3F"/>
<circle cx="250.334" cy="121" r="2" fill="#3B3D3F"/>
<circle cx="303.334" cy="105" r="2" fill="#3B3D3F"/>
<circle cx="356.334" cy="73.0002" r="2" fill="#3B3D3F"/>
</g>
<g filter="url(#filter0_f_8566_82277)">
<ellipse cx="193" cy="165.976" rx="73.0833" ry="70.4365" fill="#0A0D0F"/>
</g>
<rect x="115.5" y="77.5" width="154.229" height="154.229" rx="77.1145" fill="#0A0D0F" stroke="url(#paint3_linear_8566_82277)"/>
<g filter="url(#filter1_i_8566_82277)">
<rect x="123" y="85" width="139" height="139" rx="69.5" fill="#060809"/>
</g>
<rect x="123.5" y="85.5" width="138" height="138" rx="69" stroke="url(#paint4_linear_8566_82277)"/>
<rect x="128.5" y="90.5" width="128" height="128" rx="64" fill="#0A0D0F" stroke="url(#paint5_linear_8566_82277)"/>
<g filter="url(#filter2_i_8566_82277)">
<rect x="133" y="95" width="119" height="119" rx="59.5" fill="#060809"/>
</g>
<rect x="133.5" y="95.5" width="118" height="118" rx="59" stroke="url(#paint6_linear_8566_82277)"/>
<rect x="138.5" y="100.5" width="107" height="108" rx="53.5" fill="#0A0D0F" stroke="url(#paint7_linear_8566_82277)"/>
<rect x="169.267" y="132.992" width="45.4667" height="43.0111" rx="6" fill="#FF5500"/>
<rect x="177.722" y="140.992" width="4" height="27.0111" rx="2" fill="#0A0D0F"/>
<circle cx="179.722" cy="149.252" r="3.45556" fill="#FF5500" stroke="#0A0D0F" stroke-width="2"/>
<rect x="189.999" y="140.992" width="4" height="27.0111" rx="2" fill="#0A0D0F"/>
<circle cx="191.999" cy="158.252" r="3.45556" fill="#FF5500" stroke="#0A0D0F" stroke-width="2"/>
<rect x="202.277" y="140.992" width="4" height="27.0111" rx="2" fill="#0A0D0F"/>
<circle cx="204.278" cy="154.498" r="3.45556" fill="#FF5500" stroke="#0A0D0F" stroke-width="2"/>
<rect x="288.628" y="232.663" width="47.128" height="47.128" rx="7.564" fill="url(#paint8_linear_8566_82277)"/>
<rect x="288.628" y="232.663" width="47.128" height="47.128" rx="7.564" stroke="url(#paint9_linear_8566_82277)" stroke-width="0.872003"/>
<path d="M316.813 255.125C316.813 256.077 316.53 257.007 316.001 257.799C315.473 258.59 314.721 259.207 313.842 259.571C312.962 259.935 311.995 260.031 311.061 259.845C310.128 259.659 309.27 259.201 308.597 258.528C307.924 257.855 307.466 256.997 307.28 256.064C307.094 255.13 307.19 254.163 307.554 253.283C307.918 252.404 308.535 251.652 309.326 251.124C310.118 250.595 311.048 250.312 312 250.312C313.276 250.314 314.499 250.821 315.401 251.724C316.304 252.626 316.811 253.849 316.813 255.125ZM323.375 256C323.375 258.25 322.708 260.449 321.458 262.32C320.208 264.19 318.432 265.648 316.353 266.509C314.275 267.37 311.987 267.595 309.781 267.156C307.574 266.718 305.547 265.634 303.957 264.043C302.366 262.453 301.282 260.426 300.844 258.219C300.405 256.013 300.63 253.725 301.491 251.647C302.352 249.568 303.81 247.792 305.68 246.542C307.551 245.292 309.75 244.625 312 244.625C315.016 244.628 317.907 245.828 320.04 247.96C322.172 250.093 323.372 252.984 323.375 256ZM321.625 256C321.624 254.704 321.361 253.423 320.853 252.231C320.345 251.039 319.601 249.962 318.667 249.064C317.733 248.167 316.628 247.466 315.417 247.006C314.206 246.545 312.915 246.333 311.62 246.383C306.469 246.582 302.361 250.872 302.375 256.027C302.38 258.374 303.245 260.637 304.808 262.389C305.444 261.466 306.252 260.675 307.188 260.058C307.267 260.005 307.362 259.98 307.458 259.986C307.553 259.993 307.644 260.03 307.716 260.093C308.905 261.121 310.425 261.687 311.997 261.687C313.569 261.687 315.089 261.121 316.278 260.093C316.35 260.03 316.441 259.993 316.536 259.986C316.631 259.98 316.726 260.005 316.806 260.058C317.743 260.674 318.552 261.466 319.189 262.389C320.759 260.631 321.626 258.357 321.625 256Z" fill="white"/>
<rect x="43.77" y="67.936" width="47.128" height="47.128" rx="7.564" fill="url(#paint10_linear_8566_82277)"/>
<rect x="43.77" y="67.936" width="47.128" height="47.128" rx="7.564" stroke="url(#paint11_linear_8566_82277)" stroke-width="0.872003"/>
<path d="M78.7148 100.023C78.7148 100.256 78.6227 100.478 78.4586 100.642C78.2945 100.806 78.0719 100.898 77.8398 100.898H56.8398C56.6078 100.898 56.3852 100.806 56.2211 100.642C56.057 100.478 55.9648 100.256 55.9648 100.023C55.9648 99.7914 56.057 99.5688 56.2211 99.4047C56.3852 99.2406 56.6078 99.1484 56.8398 99.1484H57.7148V92.1484C57.7148 91.9164 57.807 91.6938 57.9711 91.5297C58.1352 91.3656 58.3578 91.2734 58.5898 91.2734H61.2148C61.4469 91.2734 61.6695 91.3656 61.8336 91.5297C61.9977 91.6938 62.0898 91.9164 62.0898 92.1484V99.1484H63.8398V86.8984C63.8398 86.6664 63.932 86.4438 64.0961 86.2797C64.2602 86.1156 64.4828 86.0234 64.7148 86.0234H68.2148C68.4469 86.0234 68.6695 86.1156 68.8336 86.2797C68.9977 86.4438 69.0898 86.6664 69.0898 86.8984V99.1484H70.8398V81.6484C70.8398 81.4164 70.932 81.1938 71.0961 81.0297C71.2602 80.8656 71.4828 80.7734 71.7148 80.7734H76.0898C76.3219 80.7734 76.5445 80.8656 76.7086 81.0297C76.8727 81.1938 76.9648 81.4164 76.9648 81.6484V99.1484H77.8398C78.0719 99.1484 78.2945 99.2406 78.4586 99.4047C78.6227 99.5688 78.7148 99.7914 78.7148 100.023Z" fill="white"/>
<defs>
<filter id="filter0_f_8566_82277" x="113.917" y="89.5391" width="158.167" height="152.873" filterUnits="userSpaceOnUse" color-interpolation-filters="sRGB">
<feFlood flood-opacity="0" result="BackgroundImageFix"/>
<feBlend mode="normal" in="SourceGraphic" in2="BackgroundImageFix" result="shape"/>
<feGaussianBlur stdDeviation="3" result="effect1_foregroundBlur_8566_82277"/>
</filter>
<filter id="filter1_i_8566_82277" x="123" y="85" width="139" height="140" filterUnits="userSpaceOnUse" color-interpolation-filters="sRGB">
<feFlood flood-opacity="0" result="BackgroundImageFix"/>
<feBlend mode="normal" in="SourceGraphic" in2="BackgroundImageFix" result="shape"/>
<feColorMatrix in="SourceAlpha" type="matrix" values="0 0 0 0 0 0 0 0 0 0 0 0 0 0 0 0 0 0 127 0" result="hardAlpha"/>
<feOffset dy="1"/>
<feGaussianBlur stdDeviation="1"/>
<feComposite in2="hardAlpha" operator="arithmetic" k2="-1" k3="1"/>
<feColorMatrix type="matrix" values="0 0 0 0 0 0 0 0 0 0 0 0 0 0 0 0 0 0 1 0"/>
<feBlend mode="normal" in2="shape" result="effect1_innerShadow_8566_82277"/>
</filter>
<filter id="filter2_i_8566_82277" x="133" y="95" width="119" height="120" filterUnits="userSpaceOnUse" color-interpolation-filters="sRGB">
<feFlood flood-opacity="0" result="BackgroundImageFix"/>
<feBlend mode="normal" in="SourceGraphic" in2="BackgroundImageFix" result="shape"/>
<feColorMatrix in="SourceAlpha" type="matrix" values="0 0 0 0 0 0 0 0 0 0 0 0 0 0 0 0 0 0 127 0" result="hardAlpha"/>
<feOffset dy="1"/>
<feGaussianBlur stdDeviation="1"/>
<feComposite in2="hardAlpha" operator="arithmetic" k2="-1" k3="1"/>
<feColorMatrix type="matrix" values="0 0 0 0 0 0 0 0 0 0 0 0 0 0 0 0 0 0 1 0"/>
<feBlend mode="normal" in2="shape" result="effect1_innerShadow_8566_82277"/>
</filter>
<linearGradient id="paint0_linear_8566_82277" x1="193.407" y1="0.398437" x2="193.407" y2="323" gradientUnits="userSpaceOnUse">
<stop offset="0.481106" stop-color="#737373"/>
<stop offset="1" stop-color="#737373" stop-opacity="0"/>
</linearGradient>
<linearGradient id="paint1_linear_8566_82277" x1="382.801" y1="124.909" x2="-8.15256" y2="124.909" gradientUnits="userSpaceOnUse">
<stop stop-color="#3B3D3F" stop-opacity="0"/>
<stop offset="0.5" stop-color="#3B3D3F"/>
<stop offset="1" stop-color="#3B3D3F" stop-opacity="0"/>
</linearGradient>
<linearGradient id="paint2_linear_8566_82277" x1="387.834" y1="176" x2="-2.16601" y2="176" gradientUnits="userSpaceOnUse">
<stop stop-color="#3B3D3F" stop-opacity="0"/>
<stop offset="0.5" stop-color="#3B3D3F"/>
<stop offset="1" stop-color="#3B3D3F" stop-opacity="0"/>
</linearGradient>
<linearGradient id="paint3_linear_8566_82277" x1="192.614" y1="154.562" x2="192.614" y2="232.229" gradientUnits="userSpaceOnUse">
<stop stop-color="#3B3D3F" stop-opacity="0.5"/>
<stop offset="1" stop-color="#3B3D3F" stop-opacity="0.89"/>
</linearGradient>
<linearGradient id="paint4_linear_8566_82277" x1="192.479" y1="84.342" x2="192.534" y2="224" gradientUnits="userSpaceOnUse">
<stop stop-color="#1E1E1F" stop-opacity="0"/>
<stop offset="1" stop-color="#1E1E1F" stop-opacity="0.8"/>
</linearGradient>
<linearGradient id="paint5_linear_8566_82277" x1="192.5" y1="90" x2="192.5" y2="219" gradientUnits="userSpaceOnUse">
<stop stop-color="#3B3D3F" stop-opacity="0.5"/>
<stop offset="1" stop-color="#3B3D3F" stop-opacity="0.8"/>
</linearGradient>
<linearGradient id="paint6_linear_8566_82277" x1="192.482" y1="94.4366" x2="192.529" y2="214" gradientUnits="userSpaceOnUse">
<stop stop-color="#1E1E1F" stop-opacity="0"/>
<stop offset="1" stop-color="#1E1E1F" stop-opacity="0.8"/>
</linearGradient>
<linearGradient id="paint7_linear_8566_82277" x1="192" y1="100" x2="192" y2="209" gradientUnits="userSpaceOnUse">
<stop stop-color="#3B3D3F" stop-opacity="0.2"/>
<stop offset="1" stop-color="#3B3D3F" stop-opacity="0.4"/>
</linearGradient>
<linearGradient id="paint8_linear_8566_82277" x1="312.192" y1="232.227" x2="312.192" y2="280.227" gradientUnits="userSpaceOnUse">
<stop stop-color="#161C20"/>
<stop offset="1" stop-color="#0A0D0F"/>
</linearGradient>
<linearGradient id="paint9_linear_8566_82277" x1="312.192" y1="256.21" x2="312.192" y2="280.227" gradientUnits="userSpaceOnUse">
<stop stop-color="#3B3D3F" stop-opacity="0.5"/>
<stop offset="1" stop-color="#3B3D3F" stop-opacity="0.89"/>
</linearGradient>
<linearGradient id="paint10_linear_8566_82277" x1="67.334" y1="67.5" x2="67.334" y2="115.5" gradientUnits="userSpaceOnUse">
<stop stop-color="#161C20"/>
<stop offset="1" stop-color="#0A0D0F"/>
</linearGradient>
<linearGradient id="paint11_linear_8566_82277" x1="67.334" y1="91.4839" x2="67.334" y2="115.5" gradientUnits="userSpaceOnUse">
<stop stop-color="#3B3D3F" stop-opacity="0.5"/>
<stop offset="1" stop-color="#3B3D3F" stop-opacity="0.89"/>
</linearGradient>
</defs>
</svg>
