<svg width="387" height="326" viewBox="0 0 387 326" fill="none" xmlns="http://www.w3.org/2000/svg">
<mask id="mask0_8566_82353" style="mask-type:alpha" maskUnits="userSpaceOnUse" x="0" y="0" width="387" height="323">
<rect x="0.332031" y="0.398438" width="386.15" height="322.602" fill="url(#paint0_linear_8566_82353)"/>
</mask>
<g mask="url(#mask0_8566_82353)">
<path d="M-13.8203 -26.5156L38.1468 25.4483" stroke="#181E22" stroke-width="0.630746"/>
<path d="M38.1468 -26.5156L-13.8203 25.4483" stroke="#181E22" stroke-width="0.630746"/>
<path d="M38.1465 -26.5156L90.1136 25.4483" stroke="#181E22" stroke-width="0.630746"/>
<path d="M90.1136 -26.5156L38.1465 25.4483" stroke="#181E22" stroke-width="0.630746"/>
<path d="M90.1143 -26.5156L142.081 25.4483" stroke="#181E22" stroke-width="0.630746"/>
<path d="M142.081 -26.5156L90.1143 25.4483" stroke="#181E22" stroke-width="0.630746"/>
<path d="M142.081 -26.5156L194.048 25.4483" stroke="#181E22" stroke-width="0.630746"/>
<path d="M194.048 -26.5156L142.081 25.4483" stroke="#181E22" stroke-width="0.630746"/>
<path d="M194.049 -26.5156L246.016 25.4483" stroke="#181E22" stroke-width="0.630746"/>
<path d="M246.016 -26.5156L194.049 25.4483" stroke="#181E22" stroke-width="0.630746"/>
<path d="M246.016 -26.5156L297.983 25.4483" stroke="#181E22" stroke-width="0.630746"/>
<path d="M297.983 -26.5156L246.016 25.4483" stroke="#181E22" stroke-width="0.630746"/>
<path d="M297.982 -26.5156L349.95 25.4483" stroke="#181E22" stroke-width="0.630746"/>
<path d="M349.95 -26.5156L297.982 25.4483" stroke="#181E22" stroke-width="0.630746"/>
<path d="M349.949 -26.5156L401.916 25.4483" stroke="#181E22" stroke-width="0.630746"/>
<path d="M401.916 -26.5156L349.949 25.4483" stroke="#181E22" stroke-width="0.630746"/>
<path d="M-13.8203 25.4453L38.1468 77.4092" stroke="#181E22" stroke-width="0.630746"/>
<path d="M38.1468 25.4453L-13.8203 77.4092" stroke="#181E22" stroke-width="0.630746"/>
<path d="M38.1465 25.4453L90.1136 77.4092" stroke="#181E22" stroke-width="0.630746"/>
<path d="M90.1136 25.4453L38.1465 77.4092" stroke="#181E22" stroke-width="0.630746"/>
<path d="M90.1143 25.4453L142.081 77.4092" stroke="#181E22" stroke-width="0.630746"/>
<path d="M142.081 25.4453L90.1143 77.4092" stroke="#181E22" stroke-width="0.630746"/>
<path d="M142.081 25.4453L194.048 77.4092" stroke="#181E22" stroke-width="0.630746"/>
<path d="M194.048 25.4453L142.081 77.4092" stroke="#181E22" stroke-width="0.630746"/>
<path d="M194.049 25.4453L246.016 77.4092" stroke="#181E22" stroke-width="0.630746"/>
<path d="M246.016 25.4453L194.049 77.4092" stroke="#181E22" stroke-width="0.630746"/>
<path d="M246.016 25.4453L297.983 77.4092" stroke="#181E22" stroke-width="0.630746"/>
<path d="M297.983 25.4453L246.016 77.4092" stroke="#181E22" stroke-width="0.630746"/>
<path d="M297.982 25.4453L349.95 77.4092" stroke="#181E22" stroke-width="0.630746"/>
<path d="M349.95 25.4453L297.982 77.4092" stroke="#181E22" stroke-width="0.630746"/>
<path d="M349.949 25.4453L401.916 77.4092" stroke="#181E22" stroke-width="0.630746"/>
<path d="M401.916 25.4453L349.949 77.4092" stroke="#181E22" stroke-width="0.630746"/>
<path d="M-13.8203 77.4141L38.1468 129.378" stroke="#181E22" stroke-width="0.630746"/>
<path d="M38.1468 77.4141L-13.8203 129.378" stroke="#181E22" stroke-width="0.630746"/>
<path d="M38.1465 77.4141L90.1136 129.378" stroke="#181E22" stroke-width="0.630746"/>
<path d="M90.1136 77.4141L38.1465 129.378" stroke="#181E22" stroke-width="0.630746"/>
<path d="M90.1143 77.4141L142.081 129.378" stroke="#181E22" stroke-width="0.630746"/>
<path d="M142.081 77.4141L90.1143 129.378" stroke="#181E22" stroke-width="0.630746"/>
<path d="M142.081 77.4141L194.048 129.378" stroke="#181E22" stroke-width="0.630746"/>
<path d="M194.048 77.4141L142.081 129.378" stroke="#181E22" stroke-width="0.630746"/>
<path d="M194.049 77.4141L246.016 129.378" stroke="#181E22" stroke-width="0.630746"/>
<path d="M246.016 77.4141L194.049 129.378" stroke="#181E22" stroke-width="0.630746"/>
<path d="M246.016 77.4141L297.983 129.378" stroke="#181E22" stroke-width="0.630746"/>
<path d="M297.983 77.4141L246.016 129.378" stroke="#181E22" stroke-width="0.630746"/>
<path d="M297.982 77.4141L349.95 129.378" stroke="#181E22" stroke-width="0.630746"/>
<path d="M349.95 77.4141L297.982 129.378" stroke="#181E22" stroke-width="0.630746"/>
<path d="M349.949 77.4141L401.916 129.378" stroke="#181E22" stroke-width="0.630746"/>
<path d="M401.916 77.4141L349.949 129.378" stroke="#181E22" stroke-width="0.630746"/>
<path d="M-13.8203 129.375L38.1468 181.339" stroke="#181E22" stroke-width="0.630746"/>
<path d="M38.1468 129.375L-13.8203 181.339" stroke="#181E22" stroke-width="0.630746"/>
<path d="M38.1465 129.375L90.1136 181.339" stroke="#181E22" stroke-width="0.630746"/>
<path d="M90.1136 129.375L38.1465 181.339" stroke="#181E22" stroke-width="0.630746"/>
<path d="M90.1143 129.375L142.081 181.339" stroke="#181E22" stroke-width="0.630746"/>
<path d="M142.081 129.375L90.1143 181.339" stroke="#181E22" stroke-width="0.630746"/>
<path d="M142.081 129.375L194.048 181.339" stroke="#181E22" stroke-width="0.630746"/>
<path d="M194.048 129.375L142.081 181.339" stroke="#181E22" stroke-width="0.630746"/>
<path d="M194.049 129.375L246.016 181.339" stroke="#181E22" stroke-width="0.630746"/>
<path d="M246.016 129.375L194.049 181.339" stroke="#181E22" stroke-width="0.630746"/>
<path d="M246.016 129.375L297.983 181.339" stroke="#181E22" stroke-width="0.630746"/>
<path d="M297.983 129.375L246.016 181.339" stroke="#181E22" stroke-width="0.630746"/>
<path d="M297.982 129.375L349.95 181.339" stroke="#181E22" stroke-width="0.630746"/>
<path d="M349.95 129.375L297.982 181.339" stroke="#181E22" stroke-width="0.630746"/>
<path d="M349.949 129.375L401.916 181.339" stroke="#181E22" stroke-width="0.630746"/>
<path d="M401.916 129.375L349.949 181.339" stroke="#181E22" stroke-width="0.630746"/>
<path d="M-13.8203 181.344L38.1468 233.308" stroke="#181E22" stroke-width="0.630746"/>
<path d="M38.1468 181.344L-13.8203 233.308" stroke="#181E22" stroke-width="0.630746"/>
<path d="M38.1465 181.344L90.1136 233.308" stroke="#181E22" stroke-width="0.630746"/>
<path d="M90.1136 181.344L38.1465 233.308" stroke="#181E22" stroke-width="0.630746"/>
<path d="M90.1143 181.344L142.081 233.308" stroke="#181E22" stroke-width="0.630746"/>
<path d="M142.081 181.344L90.1143 233.308" stroke="#181E22" stroke-width="0.630746"/>
<path d="M142.081 181.344L194.048 233.308" stroke="#181E22" stroke-width="0.630746"/>
<path d="M194.048 181.344L142.081 233.308" stroke="#181E22" stroke-width="0.630746"/>
<path d="M194.049 181.344L246.016 233.308" stroke="#181E22" stroke-width="0.630746"/>
<path d="M246.016 181.344L194.049 233.308" stroke="#181E22" stroke-width="0.630746"/>
<path d="M246.016 181.344L297.983 233.308" stroke="#181E22" stroke-width="0.630746"/>
<path d="M297.983 181.344L246.016 233.308" stroke="#181E22" stroke-width="0.630746"/>
<path d="M297.982 181.344L349.95 233.308" stroke="#181E22" stroke-width="0.630746"/>
<path d="M349.95 181.344L297.982 233.308" stroke="#181E22" stroke-width="0.630746"/>
<path d="M349.949 181.344L401.916 233.308" stroke="#181E22" stroke-width="0.630746"/>
<path d="M401.916 181.344L349.949 233.308" stroke="#181E22" stroke-width="0.630746"/>
<path d="M-13.8203 233.297L38.1468 285.261" stroke="#181E22" stroke-width="0.630746"/>
<path d="M38.1468 233.297L-13.8203 285.261" stroke="#181E22" stroke-width="0.630746"/>
<path d="M38.1465 233.297L90.1136 285.261" stroke="#181E22" stroke-width="0.630746"/>
<path d="M90.1136 233.297L38.1465 285.261" stroke="#181E22" stroke-width="0.630746"/>
<path d="M90.1143 233.297L142.081 285.261" stroke="#181E22" stroke-width="0.630746"/>
<path d="M142.081 233.297L90.1143 285.261" stroke="#181E22" stroke-width="0.630746"/>
<path d="M142.081 233.297L194.048 285.261" stroke="#181E22" stroke-width="0.630746"/>
<path d="M194.048 233.297L142.081 285.261" stroke="#181E22" stroke-width="0.630746"/>
<path d="M194.049 233.297L246.016 285.261" stroke="#181E22" stroke-width="0.630746"/>
<path d="M246.016 233.297L194.049 285.261" stroke="#181E22" stroke-width="0.630746"/>
<path d="M246.016 233.297L297.983 285.261" stroke="#181E22" stroke-width="0.630746"/>
<path d="M297.983 233.297L246.016 285.261" stroke="#181E22" stroke-width="0.630746"/>
<path d="M297.982 233.297L349.95 285.261" stroke="#181E22" stroke-width="0.630746"/>
<path d="M349.95 233.297L297.982 285.261" stroke="#181E22" stroke-width="0.630746"/>
<path d="M349.949 233.297L401.916 285.261" stroke="#181E22" stroke-width="0.630746"/>
<path d="M401.916 233.297L349.949 285.261" stroke="#181E22" stroke-width="0.630746"/>
<path d="M-13.8203 285.266L38.1468 337.23" stroke="#181E22" stroke-width="0.630746"/>
<path d="M38.1468 285.266L-13.8203 337.23" stroke="#181E22" stroke-width="0.630746"/>
<path d="M38.1465 285.266L90.1136 337.23" stroke="#181E22" stroke-width="0.630746"/>
<path d="M90.1136 285.266L38.1465 337.23" stroke="#181E22" stroke-width="0.630746"/>
<path d="M90.1143 285.266L142.081 337.23" stroke="#181E22" stroke-width="0.630746"/>
<path d="M142.081 285.266L90.1143 337.23" stroke="#181E22" stroke-width="0.630746"/>
<path d="M142.081 285.266L194.048 337.23" stroke="#181E22" stroke-width="0.630746"/>
<path d="M194.048 285.266L142.081 337.23" stroke="#181E22" stroke-width="0.630746"/>
<path d="M194.049 285.266L246.016 337.23" stroke="#181E22" stroke-width="0.630746"/>
<path d="M246.016 285.266L194.049 337.23" stroke="#181E22" stroke-width="0.630746"/>
<path d="M246.016 285.266L297.983 337.23" stroke="#181E22" stroke-width="0.630746"/>
<path d="M297.983 285.266L246.016 337.23" stroke="#181E22" stroke-width="0.630746"/>
<path d="M297.982 285.266L349.95 337.23" stroke="#181E22" stroke-width="0.630746"/>
<path d="M349.95 285.266L297.982 337.23" stroke="#181E22" stroke-width="0.630746"/>
<path d="M349.949 285.266L401.916 337.23" stroke="#181E22" stroke-width="0.630746"/>
<path d="M401.916 285.266L349.949 337.23" stroke="#181E22" stroke-width="0.630746"/>
</g>
<path d="M193.666 26.6641L322.969 155.967M193.666 26.6641V285.271M193.666 26.6641L129.014 91.3157L64.3628 155.967M322.969 155.967L193.666 285.271M322.969 155.967H64.3628M193.666 285.271L64.3628 155.967" stroke="#25292C" stroke-linecap="round"/>
<g filter="url(#filter0_f_8566_82353)">
<ellipse cx="194.053" cy="165.233" rx="73.0833" ry="70.4365" fill="#0A0D0F"/>
</g>
<rect x="116.553" y="76.7578" width="154.229" height="154.229" rx="77.1145" fill="#0A0D0F" stroke="url(#paint1_linear_8566_82353)"/>
<g filter="url(#filter1_i_8566_82353)">
<rect x="124.167" y="84.375" width="139" height="139" rx="69.5" fill="#060809"/>
</g>
<rect x="124.667" y="84.875" width="138" height="138" rx="69" stroke="url(#paint2_linear_8566_82353)"/>
<rect x="129.667" y="89.875" width="128" height="128" rx="64" fill="#0A0D0F" stroke="url(#paint3_linear_8566_82353)"/>
<g filter="url(#filter2_i_8566_82353)">
<rect x="134.167" y="94.375" width="119" height="119" rx="59.5" fill="#060809"/>
</g>
<rect x="134.667" y="94.875" width="118" height="118" rx="59" stroke="url(#paint4_linear_8566_82353)"/>
<rect x="140.167" y="99.875" width="107" height="108" rx="53.5" fill="#0A0D0F" stroke="url(#paint5_linear_8566_82353)"/>
<g clip-path="url(#clip0_8566_82353)">
<mask id="mask1_8566_82353" style="mask-type:luminance" maskUnits="userSpaceOnUse" x="166" y="134" width="55" height="60">
<path d="M166.431 134.227H220.596V193.254H166.431V134.227Z" fill="white"/>
</mask>
<g mask="url(#mask1_8566_82353)">
<path d="M185.123 152.963L182.273 151.189L182.333 153.899L185.183 155.673L185.123 152.963ZM189.228 162.449L189.169 159.798L186.678 158.244C186.638 158.224 186.598 158.184 186.578 158.164L186.638 160.834L189.228 162.449ZM180.321 166.016L173.804 161.97L173.645 155.195L176.833 153.82L176.773 151.109L171.672 153.301C171.273 153.481 171.034 153.84 171.054 154.258L171.253 162.389C171.253 162.807 171.512 163.226 171.911 163.465L179.723 168.307C180.081 168.527 180.52 168.586 180.898 168.487C180.938 168.467 180.978 168.467 181.018 168.447L185.821 166.374L183.21 164.76L180.321 166.016Z" fill="#6DC28B"/>
</g>
<mask id="mask2_8566_82353" style="mask-type:luminance" maskUnits="userSpaceOnUse" x="166" y="134" width="55" height="60">
<path d="M166.431 134.227H220.596V193.254H166.431V134.227Z" fill="white"/>
</mask>
<g mask="url(#mask2_8566_82353)">
<path d="M201.384 151.025C201.365 150.547 201.086 150.048 200.607 149.769L191.121 143.891L190.822 144.01L190.882 146.86L198.395 151.523L198.575 159.136L201.444 160.909L201.604 160.85L201.384 151.025ZM190.025 164.397L181.197 158.936L180.978 149.769L185.003 148.036L184.924 144.867L178.686 147.557C178.228 147.757 177.949 148.175 177.969 148.673L178.228 159.435C178.228 159.933 178.527 160.411 179.005 160.69L189.348 167.107C189.766 167.366 190.284 167.446 190.723 167.306C190.763 167.286 190.803 167.266 190.842 167.266L196.94 164.636L193.911 162.763L190.025 164.397Z" fill="#6DC28B"/>
</g>
<mask id="mask3_8566_82353" style="mask-type:luminance" maskUnits="userSpaceOnUse" x="166" y="134" width="55" height="60">
<path d="M166.431 134.227H220.596V193.254H166.431V134.227Z" fill="white"/>
</mask>
<g mask="url(#mask3_8566_82353)">
<path d="M214.837 143.494L201.584 135.284C201.086 134.985 200.508 134.905 200.01 135.065C199.97 135.085 199.91 135.105 199.871 135.125L186.937 140.705C186.419 140.924 186.1 141.402 186.12 141.98L186.439 155.77C186.459 156.328 186.798 156.886 187.336 157.205L200.588 165.416C201.066 165.714 201.664 165.794 202.162 165.635C202.202 165.615 202.262 165.595 202.302 165.575L215.235 159.995C215.753 159.776 216.072 159.278 216.052 158.72L215.733 144.929C215.713 144.371 215.375 143.833 214.837 143.494ZM201.365 162.327L189.847 155.192L189.568 143.215L200.807 138.373L212.326 145.507L212.605 157.484L201.365 162.327Z" fill="#6DC28B"/>
</g>
</g>
<path d="M190.136 117.322C189.995 117.462 189.916 117.653 189.916 117.852C189.916 118.051 189.995 118.242 190.136 118.383C190.277 118.524 190.468 118.603 190.667 118.603C190.866 118.603 191.056 118.524 191.197 118.383L192.917 116.662L192.917 124.852C192.917 125.051 192.996 125.242 193.136 125.382C193.277 125.523 193.468 125.602 193.667 125.602C193.865 125.602 194.056 125.523 194.197 125.382C194.338 125.242 194.417 125.051 194.417 124.852L194.417 116.662L196.136 118.383C196.277 118.524 196.468 118.603 196.667 118.603C196.866 118.603 197.056 118.524 197.197 118.383C197.338 118.242 197.417 118.051 197.417 117.852C197.417 117.653 197.338 117.462 197.197 117.322L194.197 114.322C194.128 114.252 194.045 114.196 193.954 114.159C193.863 114.121 193.765 114.102 193.667 114.102C193.568 114.102 193.47 114.121 193.379 114.159C193.288 114.196 193.206 114.252 193.136 114.322L190.136 117.322Z" fill="#6DC28B"/>
<path d="M197.198 190.038C197.339 189.897 197.418 189.706 197.418 189.507C197.418 189.308 197.339 189.117 197.198 188.977C197.057 188.836 196.866 188.757 196.667 188.757C196.468 188.757 196.278 188.836 196.137 188.977L194.417 190.697L194.417 182.507C194.417 182.308 194.338 182.118 194.198 181.977C194.057 181.836 193.866 181.757 193.667 181.757C193.468 181.757 193.278 181.836 193.137 181.977C192.996 182.118 192.917 182.308 192.917 182.507L192.917 190.697L191.198 188.977C191.057 188.836 190.866 188.757 190.667 188.757C190.468 188.757 190.278 188.836 190.137 188.977C189.996 189.117 189.917 189.308 189.917 189.507C189.917 189.706 189.996 189.897 190.137 190.038L193.137 193.038C193.206 193.108 193.289 193.163 193.38 193.201C193.471 193.238 193.569 193.258 193.667 193.258C193.766 193.258 193.864 193.238 193.955 193.201C194.046 193.163 194.128 193.108 194.198 193.038L197.198 190.038Z" fill="#6DC28B"/>
<path d="M229.739 150.344C229.598 150.203 229.407 150.124 229.208 150.124C229.009 150.124 228.818 150.203 228.678 150.344C228.537 150.485 228.458 150.676 228.458 150.875C228.458 151.074 228.537 151.264 228.678 151.405L230.398 153.125L222.208 153.125C222.009 153.125 221.819 153.204 221.678 153.344C221.537 153.485 221.458 153.676 221.458 153.875C221.458 154.073 221.537 154.264 221.678 154.405C221.819 154.546 222.009 154.625 222.208 154.625L230.398 154.625L228.678 156.344C228.537 156.485 228.458 156.676 228.458 156.875C228.458 157.074 228.537 157.264 228.678 157.405C228.819 157.546 229.009 157.625 229.208 157.625C229.407 157.625 229.598 157.546 229.739 157.405L232.739 154.405C232.809 154.336 232.864 154.253 232.902 154.162C232.94 154.071 232.959 153.973 232.959 153.875C232.959 153.776 232.94 153.678 232.902 153.587C232.864 153.496 232.809 153.414 232.739 153.344L229.739 150.344Z" fill="#6DC28B"/>
<path d="M157.594 157.406C157.735 157.547 157.926 157.626 158.125 157.626C158.324 157.626 158.515 157.547 158.655 157.406C158.796 157.265 158.875 157.074 158.875 156.875C158.875 156.676 158.796 156.486 158.655 156.345L156.935 154.625L165.125 154.625C165.324 154.625 165.514 154.546 165.655 154.406C165.796 154.265 165.875 154.074 165.875 153.875C165.875 153.677 165.796 153.486 165.655 153.345C165.514 153.204 165.324 153.125 165.125 153.125L156.935 153.125L158.655 151.406C158.796 151.265 158.875 151.074 158.875 150.875C158.875 150.676 158.796 150.486 158.655 150.345C158.515 150.204 158.324 150.125 158.125 150.125C157.926 150.125 157.735 150.204 157.594 150.345L154.594 153.345C154.524 153.414 154.469 153.497 154.431 153.588C154.393 153.679 154.374 153.777 154.374 153.875C154.374 153.974 154.393 154.072 154.431 154.163C154.469 154.254 154.524 154.336 154.594 154.406L157.594 157.406Z" fill="#6DC28B"/>
<rect x="298.418" y="132.405" width="47.128" height="47.128" rx="7.564" fill="url(#paint6_linear_8566_82353)"/>
<rect x="298.418" y="132.405" width="47.128" height="47.128" rx="7.564" stroke="url(#paint7_linear_8566_82353)" stroke-width="0.872003"/>
<path d="M318.078 157.212H314.578V159.837C314.578 160.01 314.527 160.179 314.431 160.323C314.334 160.467 314.198 160.579 314.038 160.646C313.878 160.712 313.702 160.729 313.532 160.695C313.362 160.662 313.206 160.578 313.084 160.456L309.584 156.956C309.502 156.874 309.438 156.778 309.394 156.672C309.35 156.565 309.327 156.452 309.327 156.337C309.327 156.222 309.35 156.108 309.394 156.002C309.438 155.895 309.502 155.799 309.584 155.718L313.084 152.218C313.206 152.095 313.362 152.012 313.532 151.978C313.702 151.944 313.878 151.961 314.038 152.028C314.198 152.094 314.334 152.206 314.431 152.35C314.527 152.494 314.578 152.663 314.578 152.837V155.462H318.078C318.31 155.462 318.532 155.554 318.697 155.718C318.861 155.882 318.953 156.105 318.953 156.337C318.953 156.569 318.861 156.791 318.697 156.955C318.532 157.119 318.31 157.212 318.078 157.212ZM318.078 149.337H320.703V152.837C320.703 153.069 320.795 153.291 320.959 153.455C321.123 153.619 321.346 153.712 321.578 153.712C321.81 153.712 322.032 153.619 322.197 153.455C322.361 153.291 322.453 153.069 322.453 152.837V149.337H325.078C325.251 149.337 325.42 149.286 325.564 149.189C325.708 149.093 325.821 148.957 325.887 148.797C325.953 148.637 325.97 148.461 325.937 148.291C325.903 148.121 325.819 147.965 325.697 147.843L322.197 144.343C322.116 144.261 322.019 144.197 321.913 144.153C321.807 144.109 321.693 144.086 321.578 144.086C321.463 144.086 321.349 144.109 321.243 144.153C321.137 144.197 321.04 144.261 320.959 144.343L317.459 147.843C317.336 147.965 317.253 148.121 317.219 148.291C317.185 148.461 317.203 148.637 317.269 148.797C317.335 148.957 317.447 149.093 317.591 149.189C317.735 149.286 317.905 149.337 318.078 149.337ZM333.572 155.718L330.072 152.218C329.95 152.095 329.794 152.012 329.624 151.978C329.454 151.944 329.278 151.961 329.118 152.028C328.958 152.094 328.821 152.206 328.725 152.35C328.629 152.494 328.578 152.663 328.578 152.837V155.462H325.078C324.846 155.462 324.623 155.554 324.459 155.718C324.295 155.882 324.203 156.105 324.203 156.337C324.203 156.569 324.295 156.791 324.459 156.955C324.623 157.119 324.846 157.212 325.078 157.212H328.578V159.837C328.578 160.01 328.629 160.179 328.725 160.323C328.821 160.467 328.958 160.579 329.118 160.646C329.278 160.712 329.454 160.729 329.624 160.695C329.794 160.662 329.95 160.578 330.072 160.456L333.572 156.956C333.653 156.874 333.718 156.778 333.762 156.672C333.806 156.565 333.829 156.452 333.829 156.337C333.829 156.222 333.806 156.108 333.762 156.002C333.718 155.895 333.653 155.799 333.572 155.718ZM325.078 163.337H322.453V159.837C322.453 159.605 322.361 159.382 322.197 159.218C322.032 159.054 321.81 158.962 321.578 158.962C321.346 158.962 321.123 159.054 320.959 159.218C320.795 159.382 320.703 159.605 320.703 159.837V163.337H318.078C317.905 163.336 317.735 163.388 317.591 163.484C317.447 163.58 317.335 163.717 317.269 163.877C317.203 164.037 317.185 164.213 317.219 164.383C317.253 164.552 317.336 164.708 317.459 164.831L320.959 168.331C321.04 168.412 321.137 168.477 321.243 168.521C321.349 168.565 321.463 168.587 321.578 168.587C321.693 168.587 321.807 168.565 321.913 168.521C322.019 168.477 322.116 168.412 322.197 168.331L325.697 164.831C325.819 164.708 325.903 164.552 325.937 164.383C325.97 164.213 325.953 164.037 325.887 163.877C325.821 163.717 325.708 163.58 325.564 163.484C325.42 163.388 325.251 163.336 325.078 163.337Z" fill="white"/>
<rect x="170.102" y="251.124" width="47.128" height="47.128" rx="7.564" fill="url(#paint8_linear_8566_82353)"/>
<rect x="170.102" y="251.124" width="47.128" height="47.128" rx="7.564" stroke="url(#paint9_linear_8566_82353)" stroke-width="0.872003"/>
<path fill-rule="evenodd" clip-rule="evenodd" d="M189.329 264.16C189.378 264.288 189.394 264.444 189.425 264.757C189.484 265.348 189.514 265.644 189.61 265.821C189.836 266.235 190.32 266.436 190.772 266.302C190.966 266.245 191.196 266.056 191.658 265.679L191.658 265.679C191.903 265.478 192.026 265.377 192.152 265.322C192.439 265.197 192.769 265.213 193.042 265.367C193.162 265.434 193.274 265.546 193.498 265.77L194.306 266.578C194.532 266.803 194.644 266.916 194.712 267.037C194.864 267.309 194.881 267.637 194.756 267.924C194.701 268.051 194.6 268.174 194.398 268.421L194.398 268.421C194.017 268.886 193.827 269.119 193.77 269.315C193.639 269.765 193.838 270.245 194.249 270.471C194.427 270.569 194.726 270.599 195.323 270.659C195.639 270.69 195.797 270.706 195.926 270.757C196.217 270.871 196.438 271.115 196.523 271.416C196.56 271.549 196.56 271.708 196.56 272.025V273.171C196.56 273.486 196.56 273.644 196.523 273.776C196.439 274.078 196.217 274.324 195.924 274.438C195.796 274.488 195.639 274.504 195.325 274.535C194.733 274.594 194.437 274.624 194.26 274.72C193.846 274.946 193.645 275.43 193.779 275.882C193.836 276.076 194.024 276.306 194.4 276.766L194.4 276.766C194.599 277.009 194.699 277.131 194.754 277.256C194.88 277.544 194.864 277.875 194.709 278.149C194.642 278.268 194.531 278.379 194.309 278.602L193.497 279.414L193.497 279.414C193.273 279.637 193.162 279.749 193.042 279.816C192.768 279.97 192.438 279.986 192.151 279.86C192.025 279.805 191.903 279.705 191.659 279.505L191.659 279.505L191.659 279.505C191.197 279.128 190.966 278.939 190.771 278.882C190.32 278.749 189.838 278.949 189.612 279.362C189.515 279.54 189.485 279.837 189.426 280.432C189.394 280.748 189.378 280.906 189.328 281.035C189.213 281.326 188.969 281.547 188.668 281.632C188.535 281.67 188.376 281.67 188.059 281.67H186.916C186.598 281.67 186.439 281.67 186.306 281.632C186.005 281.547 185.761 281.327 185.647 281.036C185.596 280.907 185.581 280.748 185.549 280.431C185.489 279.835 185.459 279.537 185.362 279.359C185.137 278.947 184.654 278.747 184.203 278.879C184.008 278.936 183.777 279.125 183.315 279.503C183.071 279.703 182.949 279.803 182.823 279.858C182.535 279.984 182.205 279.968 181.932 279.814C181.812 279.746 181.7 279.635 181.477 279.412L181.477 279.412L180.664 278.599C180.443 278.377 180.332 278.266 180.265 278.147C180.11 277.873 180.093 277.542 180.22 277.253C180.275 277.128 180.374 277.007 180.573 276.764C180.948 276.305 181.136 276.076 181.193 275.883C181.327 275.43 181.127 274.945 180.712 274.72C180.535 274.624 180.239 274.594 179.648 274.535H179.648C179.335 274.504 179.178 274.488 179.051 274.438C178.758 274.324 178.535 274.078 178.451 273.775C178.414 273.643 178.414 273.486 178.414 273.172V272.025C178.414 271.708 178.414 271.549 178.451 271.417C178.536 271.115 178.757 270.871 179.049 270.756C179.177 270.706 179.335 270.69 179.65 270.659C180.246 270.599 180.544 270.569 180.723 270.471C181.134 270.246 181.333 269.765 181.202 269.315C181.145 269.119 180.955 268.887 180.575 268.423L180.575 268.423C180.374 268.176 180.273 268.053 180.218 267.927C180.093 267.64 180.11 267.311 180.262 267.039C180.33 266.918 180.442 266.806 180.667 266.581L180.667 266.581L181.476 265.772L181.476 265.772C181.7 265.548 181.812 265.436 181.932 265.369C182.205 265.215 182.534 265.199 182.822 265.324C182.948 265.38 183.071 265.48 183.316 265.681C183.778 266.059 184.009 266.248 184.203 266.305C184.655 266.438 185.138 266.238 185.363 265.824C185.46 265.647 185.49 265.35 185.549 264.758C185.581 264.444 185.596 264.287 185.646 264.16C185.76 263.867 186.006 263.645 186.308 263.56C186.441 263.523 186.598 263.523 186.913 263.523H188.062C188.377 263.523 188.534 263.523 188.666 263.56C188.969 263.645 189.214 263.867 189.329 264.16ZM187.486 276.227C189.491 276.227 191.116 274.602 191.116 272.598C191.116 270.594 189.491 268.969 187.486 268.969C185.482 268.969 183.857 270.594 183.857 272.598C183.857 274.602 185.482 276.227 187.486 276.227Z" fill="white"/>
<path fill-rule="evenodd" clip-rule="evenodd" d="M200.772 273.767L200.772 273.767C200.937 274.128 201.02 274.309 201.12 274.4C201.351 274.612 201.698 274.634 201.954 274.454C202.065 274.376 202.17 274.206 202.38 273.868L202.38 273.868C202.491 273.689 202.547 273.599 202.615 273.537C202.769 273.396 202.98 273.336 203.186 273.374C203.276 273.39 203.371 273.437 203.56 273.53L204.244 273.865L204.244 273.865C204.435 273.959 204.531 274.006 204.599 274.068C204.754 274.207 204.835 274.41 204.818 274.617C204.811 274.709 204.774 274.809 204.699 275.009C204.559 275.385 204.489 275.573 204.495 275.709C204.51 276.021 204.739 276.281 205.047 276.335C205.181 276.358 205.375 276.313 205.764 276.222L205.764 276.222C205.97 276.174 206.073 276.15 206.165 276.154C206.374 276.163 206.566 276.27 206.684 276.441C206.736 276.517 206.77 276.617 206.839 276.817L207.086 277.541C207.154 277.739 207.188 277.838 207.193 277.929C207.205 278.139 207.118 278.342 206.957 278.477C206.887 278.536 206.792 278.579 206.602 278.667L206.602 278.667C206.242 278.831 206.062 278.913 205.971 279.012C205.758 279.244 205.735 279.593 205.917 279.849C205.995 279.959 206.163 280.064 206.499 280.272L206.499 280.272C206.677 280.383 206.766 280.438 206.827 280.505C206.97 280.66 207.031 280.872 206.992 281.079C206.975 281.168 206.929 281.262 206.837 281.45L206.5 282.138C206.407 282.326 206.36 282.421 206.299 282.489C206.16 282.645 205.955 282.727 205.747 282.709C205.656 282.702 205.557 282.665 205.36 282.592L205.36 282.591C204.987 282.453 204.8 282.383 204.665 282.389C204.352 282.403 204.091 282.633 204.038 282.942C204.015 283.075 204.06 283.269 204.15 283.656C204.198 283.862 204.222 283.964 204.218 284.056C204.209 284.265 204.102 284.457 203.93 284.576C203.855 284.628 203.755 284.662 203.556 284.73L202.833 284.977C202.633 285.045 202.533 285.079 202.441 285.084C202.233 285.096 202.031 285.009 201.896 284.85C201.836 284.779 201.793 284.683 201.705 284.491C201.539 284.129 201.456 283.947 201.356 283.856C201.125 283.645 200.778 283.622 200.522 283.803C200.411 283.881 200.306 284.05 200.096 284.388L200.096 284.388C199.985 284.567 199.929 284.656 199.862 284.718C199.708 284.86 199.496 284.92 199.29 284.882C199.2 284.866 199.106 284.819 198.917 284.727L198.228 284.389C198.041 284.297 197.947 284.251 197.88 284.191C197.722 284.051 197.641 283.845 197.659 283.635C197.666 283.545 197.703 283.447 197.776 283.252L197.776 283.252L197.776 283.252C197.913 282.882 197.982 282.697 197.977 282.563C197.964 282.248 197.732 281.985 197.422 281.933C197.289 281.91 197.097 281.955 196.711 282.045C196.506 282.093 196.404 282.117 196.312 282.113C196.103 282.104 195.91 281.997 195.792 281.825C195.74 281.749 195.706 281.65 195.638 281.451L195.391 280.729C195.323 280.528 195.288 280.428 195.283 280.336C195.272 280.128 195.359 279.926 195.518 279.791C195.588 279.732 195.684 279.688 195.877 279.599L195.877 279.599C196.241 279.433 196.423 279.35 196.515 279.249C196.725 279.018 196.747 278.673 196.568 278.417C196.49 278.306 196.32 278.2 195.979 277.988C195.799 277.876 195.709 277.82 195.647 277.752C195.506 277.598 195.446 277.388 195.483 277.183C195.5 277.092 195.547 276.997 195.64 276.806L195.976 276.122C196.069 275.933 196.115 275.838 196.177 275.769C196.316 275.614 196.52 275.532 196.729 275.55C196.82 275.557 196.919 275.594 197.117 275.668C197.49 275.807 197.677 275.876 197.812 275.87C198.125 275.856 198.386 275.627 198.439 275.318C198.463 275.185 198.417 274.991 198.327 274.603L198.327 274.603C198.279 274.397 198.255 274.295 198.259 274.203C198.268 273.994 198.375 273.802 198.547 273.683C198.622 273.631 198.722 273.597 198.922 273.529L199.645 273.282C199.844 273.214 199.944 273.18 200.035 273.175C200.244 273.163 200.446 273.25 200.582 273.41C200.641 273.48 200.684 273.576 200.772 273.767ZM202.02 281.414C203.285 280.982 203.96 279.607 203.528 278.342C203.096 277.078 201.721 276.403 200.456 276.835C199.192 277.267 198.517 278.642 198.949 279.907C199.381 281.171 200.756 281.846 202.02 281.414Z" fill="white"/>
<path fill-rule="evenodd" clip-rule="evenodd" d="M199.051 263.89C199.364 263.783 199.707 263.93 199.845 264.231C200.058 264.698 200.707 264.738 200.978 264.302C201.153 264.02 201.513 263.916 201.811 264.062L202.291 264.298C202.59 264.445 202.729 264.796 202.613 265.108C202.433 265.591 202.862 266.084 203.364 265.966C203.687 265.891 204.015 266.072 204.122 266.387L204.297 266.898C204.404 267.21 204.256 267.552 203.956 267.689C203.491 267.902 203.449 268.548 203.884 268.818C204.164 268.992 204.267 269.35 204.122 269.646L203.883 270.132C203.737 270.43 203.39 270.568 203.079 270.453C202.598 270.273 202.11 270.703 202.227 271.204C202.302 271.527 202.121 271.855 201.807 271.962L201.299 272.136C200.985 272.243 200.64 272.094 200.502 271.792C200.289 271.325 199.639 271.282 199.368 271.719C199.194 272 198.834 272.103 198.537 271.957L198.05 271.718C197.754 271.573 197.617 271.228 197.731 270.919C197.91 270.44 197.48 269.956 196.982 270.072C196.66 270.147 196.332 269.967 196.225 269.654L196.051 269.145C195.944 268.83 196.092 268.485 196.395 268.347C196.865 268.132 196.906 267.48 196.467 267.208C196.184 267.032 196.08 266.671 196.227 266.372L196.463 265.891C196.609 265.593 196.957 265.455 197.268 265.571C197.749 265.75 198.238 265.321 198.121 264.821C198.046 264.498 198.227 264.171 198.54 264.064L199.051 263.89ZM200.726 269.63C201.617 269.326 202.093 268.356 201.789 267.464C201.484 266.573 200.514 266.097 199.623 266.402C198.731 266.706 198.255 267.676 198.56 268.567C198.864 269.459 199.834 269.935 200.726 269.63Z" fill="white"/>
<rect x="41.7876" y="132.405" width="47.128" height="47.128" rx="7.564" fill="url(#paint10_linear_8566_82353)"/>
<rect x="41.7876" y="132.405" width="47.128" height="47.128" rx="7.564" stroke="url(#paint11_linear_8566_82353)" stroke-width="0.872003"/>
<path d="M70.4298 166.859C70.4298 167.091 70.3376 167.314 70.1735 167.478C70.0095 167.642 69.7869 167.734 69.5548 167.734H60.8048C60.5728 167.734 60.3502 167.642 60.1861 167.478C60.022 167.314 59.9298 167.091 59.9298 166.859C59.9298 166.627 60.022 166.405 60.1861 166.241C60.3502 166.077 60.5728 165.984 60.8048 165.984H69.5548C69.7869 165.984 70.0095 166.077 70.1735 166.241C70.3376 166.405 70.4298 166.627 70.4298 166.859ZM74.8048 152.859C74.8086 154.318 74.4791 155.758 73.8414 157.07C73.2037 158.382 72.2748 159.531 71.1255 160.429C70.9105 160.594 70.7361 160.806 70.6156 161.048C70.495 161.291 70.4315 161.557 70.4298 161.828V162.484C70.4298 162.948 70.2455 163.394 69.9173 163.722C69.5891 164.05 69.144 164.234 68.6798 164.234H61.6798C61.2157 164.234 60.7706 164.05 60.4424 163.722C60.1142 163.394 59.9298 162.948 59.9298 162.484V161.828C59.9297 161.561 59.8681 161.297 59.75 161.057C59.6319 160.817 59.4603 160.607 59.2484 160.443C58.102 159.551 57.1736 158.409 56.5337 157.104C55.8938 155.799 55.5591 154.366 55.5548 152.913C55.5264 147.7 59.7395 143.359 64.948 143.234C66.2313 143.203 67.5079 143.43 68.7025 143.899C69.8972 144.369 70.9858 145.073 71.9043 145.97C72.8227 146.867 73.5525 147.939 74.0506 149.122C74.5488 150.305 74.8052 151.576 74.8048 152.859ZM69.2989 153.115C69.2176 153.034 69.1211 152.969 69.0149 152.925C68.9087 152.881 68.7948 152.859 68.6798 152.859C68.5648 152.859 68.451 152.881 68.3448 152.925C68.2385 152.969 68.142 153.034 68.0608 153.115L65.1798 155.997L62.2989 153.115C62.1347 152.951 61.912 152.859 61.6798 152.859C61.4476 152.859 61.225 152.951 61.0608 153.115C60.8966 153.279 60.8043 153.502 60.8043 153.734C60.8043 153.967 60.8966 154.189 61.0608 154.353L64.3048 157.596V161.609C64.3048 161.841 64.397 162.064 64.5611 162.228C64.7252 162.392 64.9478 162.484 65.1798 162.484C65.4119 162.484 65.6345 162.392 65.7985 162.228C65.9626 162.064 66.0548 161.841 66.0548 161.609V157.596L69.2989 154.353C69.3802 154.272 69.4448 154.176 69.4888 154.069C69.5329 153.963 69.5555 153.849 69.5555 153.734C69.5555 153.619 69.5329 153.506 69.4888 153.399C69.4448 153.293 69.3802 153.197 69.2989 153.115Z" fill="white"/>
<ellipse cx="194.048" cy="27.3403" rx="3.60617" ry="3.60595" fill="#3B3D3F"/>
<defs>
<filter id="filter0_f_8566_82353" x="114.97" y="88.7969" width="158.167" height="152.873" filterUnits="userSpaceOnUse" color-interpolation-filters="sRGB">
<feFlood flood-opacity="0" result="BackgroundImageFix"/>
<feBlend mode="normal" in="SourceGraphic" in2="BackgroundImageFix" result="shape"/>
<feGaussianBlur stdDeviation="3" result="effect1_foregroundBlur_8566_82353"/>
</filter>
<filter id="filter1_i_8566_82353" x="124.167" y="84.375" width="139" height="140" filterUnits="userSpaceOnUse" color-interpolation-filters="sRGB">
<feFlood flood-opacity="0" result="BackgroundImageFix"/>
<feBlend mode="normal" in="SourceGraphic" in2="BackgroundImageFix" result="shape"/>
<feColorMatrix in="SourceAlpha" type="matrix" values="0 0 0 0 0 0 0 0 0 0 0 0 0 0 0 0 0 0 127 0" result="hardAlpha"/>
<feOffset dy="1"/>
<feGaussianBlur stdDeviation="1"/>
<feComposite in2="hardAlpha" operator="arithmetic" k2="-1" k3="1"/>
<feColorMatrix type="matrix" values="0 0 0 0 0 0 0 0 0 0 0 0 0 0 0 0 0 0 1 0"/>
<feBlend mode="normal" in2="shape" result="effect1_innerShadow_8566_82353"/>
</filter>
<filter id="filter2_i_8566_82353" x="134.167" y="94.375" width="119" height="120" filterUnits="userSpaceOnUse" color-interpolation-filters="sRGB">
<feFlood flood-opacity="0" result="BackgroundImageFix"/>
<feBlend mode="normal" in="SourceGraphic" in2="BackgroundImageFix" result="shape"/>
<feColorMatrix in="SourceAlpha" type="matrix" values="0 0 0 0 0 0 0 0 0 0 0 0 0 0 0 0 0 0 127 0" result="hardAlpha"/>
<feOffset dy="1"/>
<feGaussianBlur stdDeviation="1"/>
<feComposite in2="hardAlpha" operator="arithmetic" k2="-1" k3="1"/>
<feColorMatrix type="matrix" values="0 0 0 0 0 0 0 0 0 0 0 0 0 0 0 0 0 0 1 0"/>
<feBlend mode="normal" in2="shape" result="effect1_innerShadow_8566_82353"/>
</filter>
<linearGradient id="paint0_linear_8566_82353" x1="193.407" y1="0.398437" x2="193.407" y2="323" gradientUnits="userSpaceOnUse">
<stop offset="0.553761" stop-color="#737373"/>
<stop offset="1" stop-color="#737373" stop-opacity="0"/>
</linearGradient>
<linearGradient id="paint1_linear_8566_82353" x1="193.667" y1="153.82" x2="193.667" y2="231.487" gradientUnits="userSpaceOnUse">
<stop stop-color="#3B3D3F" stop-opacity="0.5"/>
<stop offset="1" stop-color="#3B3D3F" stop-opacity="0.89"/>
</linearGradient>
<linearGradient id="paint2_linear_8566_82353" x1="193.646" y1="83.717" x2="193.701" y2="223.375" gradientUnits="userSpaceOnUse">
<stop stop-color="#1E1E1F" stop-opacity="0"/>
<stop offset="1" stop-color="#1E1E1F" stop-opacity="0.8"/>
</linearGradient>
<linearGradient id="paint3_linear_8566_82353" x1="193.667" y1="89.375" x2="193.667" y2="218.375" gradientUnits="userSpaceOnUse">
<stop stop-color="#3B3D3F" stop-opacity="0.5"/>
<stop offset="1" stop-color="#3B3D3F" stop-opacity="0.8"/>
</linearGradient>
<linearGradient id="paint4_linear_8566_82353" x1="193.649" y1="93.8116" x2="193.696" y2="213.375" gradientUnits="userSpaceOnUse">
<stop stop-color="#1E1E1F" stop-opacity="0"/>
<stop offset="1" stop-color="#1E1E1F" stop-opacity="0.8"/>
</linearGradient>
<linearGradient id="paint5_linear_8566_82353" x1="193.667" y1="99.375" x2="193.667" y2="208.375" gradientUnits="userSpaceOnUse">
<stop stop-color="#3B3D3F" stop-opacity="0.2"/>
<stop offset="1" stop-color="#3B3D3F" stop-opacity="0.4"/>
</linearGradient>
<linearGradient id="paint6_linear_8566_82353" x1="321.982" y1="131.969" x2="321.982" y2="179.969" gradientUnits="userSpaceOnUse">
<stop stop-color="#161C20"/>
<stop offset="1" stop-color="#0A0D0F"/>
</linearGradient>
<linearGradient id="paint7_linear_8566_82353" x1="321.982" y1="155.953" x2="321.982" y2="179.969" gradientUnits="userSpaceOnUse">
<stop stop-color="#3B3D3F" stop-opacity="0.5"/>
<stop offset="1" stop-color="#3B3D3F" stop-opacity="0.89"/>
</linearGradient>
<linearGradient id="paint8_linear_8566_82353" x1="193.666" y1="250.688" x2="193.666" y2="298.688" gradientUnits="userSpaceOnUse">
<stop stop-color="#161C20"/>
<stop offset="1" stop-color="#0A0D0F"/>
</linearGradient>
<linearGradient id="paint9_linear_8566_82353" x1="193.666" y1="274.671" x2="193.666" y2="298.687" gradientUnits="userSpaceOnUse">
<stop stop-color="#3B3D3F" stop-opacity="0.5"/>
<stop offset="1" stop-color="#3B3D3F" stop-opacity="0.89"/>
</linearGradient>
<linearGradient id="paint10_linear_8566_82353" x1="65.3516" y1="131.969" x2="65.3516" y2="179.969" gradientUnits="userSpaceOnUse">
<stop stop-color="#161C20"/>
<stop offset="1" stop-color="#0A0D0F"/>
</linearGradient>
<linearGradient id="paint11_linear_8566_82353" x1="65.3516" y1="155.953" x2="65.3516" y2="179.969" gradientUnits="userSpaceOnUse">
<stop stop-color="#3B3D3F" stop-opacity="0.5"/>
<stop offset="1" stop-color="#3B3D3F" stop-opacity="0.89"/>
</linearGradient>
<clipPath id="clip0_8566_82353">
<rect width="45" height="45" fill="white" transform="translate(171.053 129.258)"/>
</clipPath>
</defs>
</svg>
