<svg width="118" height="43" viewBox="0 0 118 43" fill="none" xmlns="http://www.w3.org/2000/svg">
<path d="M58.36 3.58545L48.919 19.4725C47.9363 21.0869 47.4215 22.7482 47.2461 24.3626H43.5609C43.7949 22.3504 44.6021 20.4435 46.2048 17.6826L52.8264 6.58035C54.1484 4.39267 55.4703 3.58545 57.8335 3.58545H58.3482H58.36ZM57.6112 20.268C56.921 20.8997 55.599 21.8824 54.4408 21.9409C53.6336 21.8824 53.6336 21.1922 54.1484 20.151C56.1606 16.2904 58.2313 14.2782 60.8284 14.2782H61.2847L57.5995 20.268H57.6112ZM61.1209 12.1607C56.3477 12.1607 53.3528 14.9801 50.7557 21.0869C50.124 22.6429 49.7145 24.5381 51.9607 24.4796C53.2242 24.4796 55.3533 23.7893 56.7923 22.7482C56.6753 23.2629 56.6168 23.9531 56.6753 24.3626H60.0095C60.1265 23.0406 60.6412 21.4262 61.7409 19.414L65.9993 12.3947C64.3849 12.2192 62.7821 12.1607 61.1092 12.1607H61.1209ZM92.2632 20.268C91.573 20.8997 90.251 21.8824 89.0928 21.9409C88.2856 21.8824 88.2856 21.1922 88.8003 20.151C90.8125 16.2904 92.8832 14.2782 95.4804 14.2782H95.9366L92.2515 20.268H92.2632ZM95.7143 12.1607C90.9412 12.1607 87.9463 14.9801 85.3492 21.0869C84.7174 22.6429 84.308 24.5381 86.5542 24.4796C87.8176 24.4796 89.9468 23.7893 91.3858 22.7482C91.2688 23.2629 91.2103 23.9531 91.2688 24.3626H94.603C94.72 23.0406 95.2347 21.4262 96.3344 19.414L100.593 12.3947C98.9783 12.2192 97.3756 12.1607 95.7027 12.1607H95.7143Z" fill="#D2E4FF"/>
<path d="M84.7759 27.697H83.6879C82.249 27.697 80.9855 26.7143 80.6345 25.3339L78.9616 19.0048L75.8497 24.2459H72.2816L82.2958 7.32936C83.5592 5.14168 84.9397 4.33446 87.3029 4.33446H87.6538L80.9738 15.5536L85.9809 12.1025H90.0053L81.6055 17.9753L84.7759 27.697ZM51.7384 2.60303C48.3457 2.60303 46.6143 3.52724 43.2801 5.8787L32.1194 13.9977H24.9246C22.854 13.9977 21.181 14.0562 19.859 15.3197L18.0223 17.0511C18.0223 17.0511 23.4272 16.8171 28.4343 16.6533L17.7299 24.3629H22.386L33.3244 16.4194C35.4536 16.3609 36.9511 16.3024 36.9511 16.3024C39.478 16.2439 40.917 13.9977 40.917 13.9977H36.7171L45.5848 7.55164L39.0217 18.2561C37.5828 20.7362 36.9511 22.456 36.7171 24.3512H40.5192C40.6947 22.7367 41.2094 21.134 42.1921 19.4611L51.1651 4.49824C51.7969 3.45704 52.3116 2.60303 52.3116 2.60303H51.7384ZM69.6376 15.5536C69.5791 15.9046 69.6961 16.0684 70.3863 16.4779L71.4275 17.1681C72.5155 17.9168 72.9835 19.0048 72.8665 19.929C72.5155 22.456 70.6203 24.4799 66.7129 24.4799C64.9815 24.4799 64.2328 24.4214 62.1621 24.0821L63.6595 21.4967C65.0985 21.7306 65.9057 21.8944 66.9352 21.8476C68.4326 21.8476 69.0059 21.1574 69.0644 20.6426C69.1229 20.2917 68.9474 19.9524 68.2572 19.4377L67.4499 18.8644C66.128 17.9402 65.777 17.1915 65.9525 16.045C66.3035 13.7988 68.8304 12.1259 72.3986 12.1259C73.4865 12.1259 74.7617 12.1844 76.0837 12.3599L74.7032 14.7815C73.8375 14.723 72.3985 14.6645 71.369 14.6645C70.3863 14.723 69.6961 15.0623 69.6376 15.5887V15.5536ZM98.5338 22.1167C99.1655 22.1167 99.7387 22.6314 99.7387 23.3217C99.7387 23.9534 99.224 24.5267 98.5338 24.5267C97.902 24.5267 97.3873 24.0119 97.3873 23.3217C97.3873 22.6899 97.902 22.1167 98.5338 22.1167ZM98.5338 24.2459C99.0485 24.2459 99.458 23.8481 99.458 23.2632C99.458 22.7484 99.0602 22.2805 98.5338 22.2805C98.0073 22.2805 97.6096 22.6782 97.6096 23.2632C97.6096 23.8481 98.0073 24.2459 98.5338 24.2459ZM98.4168 23.9534H98.1828V22.6899H98.639C98.873 22.6899 99.0953 22.8654 99.0953 23.0877C99.0953 23.2632 98.9783 23.4387 98.8028 23.4855L99.0953 24.0002H98.8028L98.5104 23.544H98.3934V23.9417L98.4168 23.9534ZM98.5922 23.2632C98.7677 23.2632 98.8262 23.2047 98.8262 23.0877C98.8262 22.9707 98.7677 22.9122 98.5922 22.9122H98.4168V23.31H98.5922V23.2515V23.2632ZM28.1418 36.7285H25.4979L24.9831 38.226H23.6612L26.1413 31.7214H27.6388L30.1189 38.226H28.7385L28.1652 36.7285H28.1418ZM25.9541 35.5821H27.7441L26.8199 33.1019L25.9541 35.5821ZM34.5879 38.226V31.7214H35.8514V38.226H34.5879ZM43.2801 35.7575H42.6484V38.2845H41.3849V31.7214H43.9119C45.1753 31.7214 45.9826 32.5872 45.9826 33.7336C45.9826 34.6579 45.4678 35.3481 44.6021 35.5704L45.9826 38.2143H44.5436L43.2801 35.7341V35.7575ZM43.6896 34.6579C44.3213 34.6579 44.7308 34.3069 44.7308 33.7336C44.7308 33.1604 44.333 32.8094 43.6896 32.8094H42.6484V34.5994H43.6896V34.6579ZM51.1067 38.226V31.7214H52.3701V37.021H55.248V38.226H51.1067ZM60.2084 38.226V31.7214H61.4718V38.226H60.2084ZM71.1936 38.226L68.2572 33.6167V38.226H66.9937V31.7214H68.5496L71.2521 36.0383V31.7214H72.5155V38.226H71.1936ZM78.0491 38.226V31.7214H82.132V32.9264H79.3126V34.4239H81.8395V35.5704H79.3126V37.0678H82.132V38.2728H78.0491V38.2143V38.226ZM90.5902 33.6284C90.5318 33.2774 90.2393 32.7041 89.3853 32.7041C88.7535 32.7041 88.3441 33.1019 88.3441 33.5114C88.3441 33.8623 88.578 34.1431 89.0343 34.2601L89.9585 34.4356C91.1635 34.6695 91.7952 35.4183 91.7952 36.3308C91.7952 37.3135 90.9295 38.343 89.4321 38.343C87.7006 38.343 86.9519 37.255 86.8466 36.3308L87.9931 36.0383C88.0516 36.6701 88.5079 37.2433 89.4321 37.2433C90.1223 37.2433 90.4733 36.8923 90.4733 36.4361C90.4733 36.0383 90.1808 35.7458 89.666 35.6873L88.7418 35.5119C87.7006 35.2779 87.0104 34.6462 87.0104 33.6751C87.0104 32.5287 88.0516 31.6629 89.2566 31.6629C90.8125 31.6629 91.4443 32.6457 91.6197 33.3359L90.5785 33.6284H90.5902Z" fill="#D2E4FF"/>
</svg>
