<svg width="168" height="56" viewBox="0 0 168 56" fill="none" xmlns="http://www.w3.org/2000/svg">
<g clip-path="url(#clip0_9033_22761)">
<mask id="mask0_9033_22761" style="mask-type:luminance" maskUnits="userSpaceOnUse" x="1" y="14" width="167" height="28">
<path d="M167.784 14.1895H1.36694V41.2488H167.784V14.1895Z" fill="white"/>
</mask>
<g mask="url(#mask0_9033_22761)">
<path d="M29.6582 19.2152L32.0546 18.7493L30.0577 18.3166L31.1227 17.0518L29.2589 17.5178L29.5917 15.6872L28.3269 16.5526L27.7278 14.1895L27.1953 16.8854L25.6643 15.6872L26.1635 17.3181L24.6991 17.0518L25.9638 18.3831L23.8669 18.8158L25.9971 19.2818L25.1317 20.247L26.4631 20.1472L25.864 21.9445L27.3284 20.4467L27.7611 22.8431L28.2271 20.4467L29.3587 21.6449L29.2255 20.1472L30.8564 20.713L29.6582 19.2152ZM28.8262 18.5828C28.8262 19.1486 28.3935 19.5813 27.8277 19.5813C27.2618 19.5813 26.8291 19.1486 26.8291 18.5828C26.8291 18.017 27.2618 17.5843 27.8277 17.5843C28.3935 17.5843 28.8262 18.017 28.8262 18.5828Z" fill="#D2E4FF"/>
<path d="M166.085 23.9418H166.451C166.684 23.9418 166.751 24.075 166.751 24.1748C166.751 24.3079 166.684 24.4078 166.451 24.4078H166.085V23.9418ZM166.418 24.6408C166.518 24.6408 166.585 24.6408 166.651 24.7074C166.718 24.7739 166.718 24.9071 166.751 25.0734C166.751 25.1733 166.784 25.2732 166.818 25.373H167.051C166.984 25.2066 166.984 25.0402 166.951 24.9071C166.917 24.7406 166.884 24.6408 166.718 24.5742C166.917 24.5409 167.017 24.3745 167.017 24.1748C167.017 23.842 166.751 23.7754 166.485 23.7754H165.919V25.373H166.152V24.6408H166.418Z" fill="#D2E4FF"/>
<path d="M167.55 24.5404C167.55 25.1728 167.018 25.7053 166.385 25.7053C165.753 25.7053 165.22 25.1728 165.22 24.5404C165.22 23.908 165.753 23.3755 166.385 23.3755C167.018 23.4088 167.55 23.908 167.55 24.5404ZM166.385 23.1758C165.62 23.1758 164.987 23.8082 164.987 24.5737C164.987 25.3392 165.62 25.9716 166.385 25.9716C167.151 25.9716 167.783 25.3392 167.783 24.5737C167.783 23.7749 167.151 23.1758 166.385 23.1758Z" fill="#D2E4FF"/>
<path d="M15.6122 18.1504L13.6485 24.9735C13.4488 25.7057 13.3157 26.5045 13.2158 27.27H13.0494L10.653 18.1504H4.16274L1.36694 35.491H7.45779L8.19003 28.0688C8.25656 27.3699 8.28989 26.6709 8.35641 25.972H8.55613C8.58939 26.7042 8.75584 27.4032 8.95555 28.1354L11.2188 35.491H14.9132L17.4095 27.7027C17.6092 27.1369 17.709 26.5378 17.8089 25.972H17.9087L18.7741 35.491H24.865L22.0026 18.1504H15.6122Z" fill="#D2E4FF"/>
<path d="M30.8559 27.5364V23.2761H24.8982V35.4911H30.8227V31.4305C31.6214 34.2596 34.0844 35.7573 37.3461 35.7573C38.378 35.7573 39.4097 35.4911 40.3417 35.1915L40.6079 30.1658C39.909 30.665 39.2433 31.0977 38.3114 31.0977C37.3461 31.0977 36.5474 30.3321 36.5474 29.3337C36.5474 28.2353 37.3129 27.5031 38.4112 27.5031C39.2766 27.5031 39.9755 28.0023 40.6079 28.5016V23.609C39.4097 23.2095 38.1117 22.9766 36.8802 22.9766C33.918 22.9766 31.5882 24.8737 30.8559 27.5364Z" fill="#D2E4FF"/>
<path d="M158.564 23.0432L156.467 27.836L155.868 29.6999H155.702L155.668 27.836L155.07 23.0432H148.979H148.679H143.254L143.154 24.8073H142.987C142.389 23.5092 141.29 22.777 139.726 22.777C136.764 22.777 134.567 25.3398 133.735 28.0025C133.435 24.8406 130.806 23.01 127.245 23.01C124.582 23.01 122.053 24.2082 120.554 26.2717L121.02 23.3428L119.023 23.4426L119.656 19.3488H113.665L113 23.4426L111.768 23.3761V23.3095H105.943L105.91 24.774H105.777C105.078 23.5758 103.946 23.0432 102.481 23.0432C99.5861 23.0432 97.4557 25.3731 96.5574 27.9692L97.323 23.1431C95.3259 23.1098 94.194 23.4426 92.8958 25.0403H92.7632L93.1625 23.4094H87.2378L85.2077 23.5092L85.84 19.4154H79.8493L79.1834 23.5092L77.7525 23.4094L77.1533 27.1371C76.554 25.9056 75.2895 25.2066 73.625 24.8406L72.2608 24.5077C71.7949 24.4079 71.0293 24.308 71.1289 23.6424C71.2286 22.9434 72.0938 22.7104 72.6264 22.7104C73.9913 22.7104 75.1232 23.2763 76.0881 24.0085L78.4845 19.5818C76.9533 18.55 75.1892 18.0508 73.2257 18.0508C69.4645 18.0508 65.3376 20.3473 64.6719 24.4745C64.2392 27.2037 66.0698 28.6349 68.4659 29.0676L69.6974 29.3005C70.2637 29.4004 71.0623 29.5002 70.9626 30.2658C70.8293 31.0313 69.7978 31.2975 69.1985 31.2975C67.734 31.2975 66.5025 30.5986 65.504 29.6999C65.504 29.6999 65.3709 29.5668 65.1711 29.3671C65.0713 25.2067 61.743 23.01 57.7823 23.01C55.1529 23.01 52.8231 23.9752 51.4917 25.839V23.01C49.4948 22.9767 48.3964 23.3095 47.3646 24.9072H47.2315L47.3646 23.2763H41.4402V35.4912H47.3646V30.7983C47.3646 29.2673 48.1634 28.3686 49.6944 28.3686C49.994 28.3686 50.2269 28.4352 50.4599 28.5017C50.4267 28.8346 50.3934 29.1674 50.3934 29.5335C50.3934 33.5941 53.988 35.7575 57.8156 35.7575C59.5796 35.7575 61.3103 35.2915 62.6416 34.3596C64.439 35.3248 66.8354 35.9239 68.9985 35.9239C72.7598 35.9239 76.8536 33.8604 77.5196 29.7332C77.6192 29.0676 77.6192 28.5017 77.5196 28.0025L78.5511 27.9359L77.2529 35.5245H83.2443L84.4421 27.9359L86.4392 28.0691L85.2407 35.591H91.1654L91.898 30.8981C92.1309 29.3671 93.0628 28.4684 94.5933 28.4684C95.2923 28.4684 95.6922 28.7347 96.1912 29.0676C96.1582 29.2007 96.1245 29.3338 96.1245 29.4669C95.6586 32.4291 96.9567 35.7907 100.285 35.7907C101.95 35.7907 103.048 35.0586 104.312 33.8936H104.446L104.013 35.4912H109.838L111.035 27.9692L112.3 27.8694L111.102 35.4912H117.093L118.291 27.9026L119.59 27.9692C119.39 28.4684 119.256 29.001 119.157 29.5668C118.491 33.7938 121.686 35.7575 125.547 35.7575C128.343 35.7575 131.871 34.3928 133.103 31.464H127.311C127.111 32.0298 126.579 32.4624 125.947 32.4624C124.715 32.4624 124.715 31.3641 124.881 30.3656H133.336C133.336 33.0282 134.767 35.5245 137.663 35.5245C139.06 35.5245 140.758 34.8255 141.556 33.4942H141.723L141.423 34.7257C141.057 36.2568 139.892 37.4216 138.295 37.4216C136.83 37.4216 135.232 36.8891 134.234 35.9239L132.27 40.051L132.836 40.2507C134.467 40.8831 136.031 41.2159 137.928 41.2159C142.189 41.2159 146.416 39.2855 147.148 34.526L148.879 23.6756L152.141 34.0267L148.013 40.284H154.27L164.822 23.01L158.564 23.0432ZM58.0153 31.1644C57.0833 31.1644 56.3511 30.4654 56.3511 29.5002C56.3511 28.5017 57.0168 27.7029 58.0153 27.7029C59.0138 27.7029 59.6794 28.5017 59.6794 29.5002C59.6794 30.4654 58.9472 31.1644 58.0153 31.1644ZM105.177 29.3005C105.045 30.2324 104.412 31.1311 103.314 31.1311C102.248 31.1311 101.916 30.299 102.049 29.3338C102.182 28.4352 102.914 27.6696 103.846 27.6696C104.778 27.6696 105.311 28.3353 105.177 29.3005ZM128.143 27.836V27.9026H128.077H125.281H125.181V27.8028C125.314 26.9041 125.847 26.305 126.546 26.1719C126.645 26.1386 126.745 26.1386 126.845 26.1386C127.245 26.1386 127.577 26.305 127.81 26.5713C128.11 26.9041 128.243 27.3368 128.143 27.836ZM142.455 29.1674C142.322 30.0993 141.69 30.8648 140.691 30.8648C139.659 30.8648 139.126 30.1326 139.293 29.1341C139.46 28.1689 140.225 27.3701 141.19 27.3701C142.189 27.4033 142.588 28.2687 142.455 29.1674Z" fill="#D2E4FF"/>
</g>
</g>
<defs>
<clipPath id="clip0_9033_22761">
<rect width="166.976" height="55.4386" fill="white" transform="translate(0.902588)"/>
</clipPath>
</defs>
</svg>
