<svg width="114" height="51" viewBox="0 0 114 51" fill="none" xmlns="http://www.w3.org/2000/svg">
<path d="M53.975 14.7407C48.0712 14.7407 43.2915 19.4978 43.2915 25.3788C43.2915 31.2598 48.0712 36.0168 53.975 36.0168C59.8787 36.0168 64.6584 31.2598 64.6584 25.3788C64.6584 19.4978 59.8787 14.7407 53.975 14.7407ZM53.975 31.9637C50.3192 31.9637 47.356 29.0118 47.356 25.3788C47.356 21.7457 50.3192 18.7939 53.975 18.7939C57.6307 18.7939 60.594 21.7457 60.594 25.3788C60.594 29.0118 57.6307 31.9637 53.975 31.9637Z" fill="#D2E4FF"/>
<path d="M78.1232 27.6604C80.9047 26.8998 82.9483 24.368 82.9597 21.3707V21.2685C82.9256 17.6468 79.9851 14.729 76.352 14.729H67.7122V18.5551L70.9706 23.8344H67.7235V36.0051H71.788V27.8875H73.491L78.4865 36.0051H83.2662L78.1118 27.6604H78.1232ZM76.3747 23.8571H75.773L72.6281 18.7935H76.3747C77.7825 18.7935 78.9179 19.9288 78.9179 21.3253C78.9179 22.7217 77.7825 23.8571 76.3747 23.8571Z" fill="#D2E4FF"/>
<path d="M90.2033 36.0168H85.6279L90.998 25.3901L85.6279 14.7407H90.2033L93.2687 20.8602L96.4136 14.7407H100.887L90.2033 36.0168Z" fill="#D2E4FF"/>
<path d="M24.2631 14.7407C18.3593 14.7407 13.5796 19.4978 13.5796 25.3788C13.5796 31.2598 18.3593 36.0168 24.2631 36.0168C30.1668 36.0168 34.9465 31.2598 34.9465 25.3788C34.9465 19.4978 30.1668 14.7407 24.2631 14.7407Z" fill="#D2E4FF"/>
<path d="M24.2631 3.08057L34.9465 8.3485V12.9125L24.2631 7.6446L13.5796 12.9125V8.3485L24.2631 3.08057Z" fill="#D2E4FF"/>
<path d="M24.2631 47.6645L13.5796 42.3966V37.8325L24.2631 43.1005L34.9465 37.8325V42.3966L24.2631 47.6645Z" fill="#D2E4FF"/>
</svg>
