<svg width="118" height="35" viewBox="0 0 118 35" fill="none" xmlns="http://www.w3.org/2000/svg">
<path d="M45.0148 3.21484H10.3193V32.2486H45.0148V3.21484Z" fill="#0A0D0F"/>
<path d="M59.9176 16.5836H61.2979C62.2571 16.5836 63.2163 16.7941 63.2163 17.9405C63.2163 18.9816 62.2103 19.3208 61.2511 19.3208H59.8942V16.5836H59.9176ZM55.0747 22.1166H62.8654C65.6611 22.1166 68.375 21.7657 68.375 18.3967C68.375 17.0632 67.2286 15.601 65.3687 15.3436V15.3202C67.1468 14.864 68.1294 13.8814 68.1294 12.0449C68.1294 9.49475 65.8483 8.74609 63.5322 8.74609H55.0747V22.1166ZM59.9176 11.2494H61.3213C62.2571 11.2494 63.0993 11.5418 63.0993 12.5479C63.0993 13.5539 62.1167 13.8229 61.216 13.8229H59.941L59.9176 11.2494Z" fill="#D2E4FF"/>
<path d="M76.189 18.0241C76.189 18.878 75.686 19.8021 74.7034 19.8021C73.9547 19.8021 73.557 19.5331 73.557 18.8429C73.557 17.8018 74.7034 17.6965 75.7094 17.6965H76.189V18.0124V18.0241ZM70.2816 15.2634C71.2408 14.7838 72.4574 14.4095 73.6272 14.4095C74.797 14.4095 76.1539 14.5732 76.1773 15.8483C75.7211 15.7898 74.949 15.7196 74.2939 15.7196C71.8959 15.7196 69.1353 16.3279 69.1353 19.4161C69.1353 21.5217 70.9484 22.3405 72.8083 22.3405C74.1653 22.3405 75.4169 21.8141 76.0837 20.6678H76.1071V22.1066H80.599V16.0121C80.599 12.3741 77.2535 11.8594 74.4811 11.8594C72.5978 11.8594 71.7438 12.0231 70.305 12.4443L70.2816 15.2634Z" fill="#D2E4FF"/>
<path d="M81.9794 12.1285H86.5532V13.8597H86.5766C87.1615 12.456 88.46 11.8945 89.852 11.8945C92.4255 11.8945 93.3613 13.2515 93.3613 15.1699V22.1066H88.5185V16.3397C88.5185 15.7548 88.5185 14.9827 87.6645 14.9827C86.8106 14.9827 86.7872 15.7782 86.7872 16.3397V22.1066H81.9443L81.9677 12.1402L81.9794 12.1285Z" fill="#D2E4FF"/>
<path d="M99.8536 16.0826H99.877L102.649 12.1288H108.124L104.743 16.5388L108.253 22.1186H102.614L99.877 17.2524H99.8536V22.1186H95.0107V7.70703H99.8536V16.0826Z" fill="#D2E4FF"/>
<path d="M9.875 32.6456H45.3776V2.81641H9.875V32.6456ZM33.1652 26.1885H24.8949V12.1746H29.0476V23.7202H33.0365C35.7972 23.7202 36.9435 21.9071 36.9435 17.2865C36.9435 12.6659 35.61 11.2739 32.8259 11.2739H23.7368V26.1885H19.6192V11.2739H13.6066V8.80564H34.1361C39.0842 8.80564 41.4472 11.2037 41.4472 17.2631C41.4472 25.2409 37.9378 26.2002 33.1769 26.2002" fill="#D2E4FF"/>
</svg>
