<svg width="117" height="43" viewBox="0 0 117 43" fill="none" xmlns="http://www.w3.org/2000/svg">
<path d="M4.16455 3.23584H41.1329V40.2042H4.16455V3.23584ZM37.2957 36.367V7.07306H8.00177V36.3553H37.2957V36.3787V36.367ZM11.3359 12.7821V23.9545C11.3359 29.0552 14.1437 32.0852 18.8817 32.0852C23.6197 32.0852 26.5795 29.0669 26.5795 23.9545V12.7821H22.7423V23.9545C22.7423 26.8324 21.4905 28.4585 18.9753 28.4585C16.3079 28.4585 15.1381 26.7622 15.1381 23.9545V12.7821H11.3359ZM31.5281 15.0634C32.8735 15.0634 33.903 14.1041 33.903 12.7587C33.903 11.3431 32.9437 10.3838 31.5281 10.3838C30.1126 10.3838 29.1533 11.3431 29.1533 12.7587C29.1767 14.1041 30.2062 15.0634 31.5281 15.0634ZM29.6095 16.8299V31.8629H33.4468V16.8299H29.6095ZM52.5276 25.721C56.669 25.721 59.4065 23.276 59.4065 19.2165C59.4065 15.157 56.7391 12.7938 52.5276 12.7938H45.286V31.9448H49.1232V25.8029H52.5276V25.7093V25.721ZM52.0947 22.6793H49.0764V15.8706H52.0947C54.3175 15.8706 55.4991 17.1224 55.4991 19.2048C55.4991 21.4275 54.3058 22.6793 52.0947 22.6793ZM60.67 24.3873C60.67 28.8914 63.5479 32.0852 67.6191 32.0852C70.0641 32.0852 71.6201 31.1961 72.5092 29.7805V31.9214H76.3464V16.8416H72.5092V19.2165C71.5499 17.6605 69.9939 16.7012 67.6191 16.7012C63.4777 16.7012 60.67 19.9652 60.67 24.399V24.3873ZM72.4975 24.3873C72.4975 26.9728 70.8713 28.6808 68.4965 28.6808C65.911 28.6808 64.5891 26.8324 64.5891 24.3873C64.5891 21.72 66.0748 20.0237 68.4965 20.0237C70.9181 20.0237 72.4975 21.8019 72.4975 24.3873ZM85.9512 28.5989C84.4654 28.5989 84.1027 27.9321 84.1027 26.6101V20.0939H87.4369V16.8299H84.1027V12.6885H80.2655V16.8299H78.4873V20.0939H80.2655V26.6101C80.2655 30.1549 81.8215 31.8629 85.5183 31.8629H87.5071V28.5989H85.9512ZM93.4267 18.9942V11.893H89.5895V31.9331H93.4267V23.9428C93.4267 21.3573 94.7721 19.8014 97.0534 19.8014C99.3346 19.8014 100.458 21.2872 100.458 23.5684V31.8629H104.295V23.2058C104.295 19.2984 101.487 16.7012 97.9425 16.7012C95.7314 16.6778 94.3158 17.4967 93.4384 18.9825L93.4267 18.9942ZM104.002 11.8228V12.4194H105.254V16.2567H105.991V12.4194H107.173V11.8228H104.002ZM111.993 11.8228L110.437 15.3675L108.951 11.8228H108.062V16.2567H108.729V12.8523L110.215 16.2567H110.741L112.157 12.8523V16.2567H112.823V11.8228H111.993Z" fill="#D2E4FF"/>
</svg>
