<svg width="229" height="313" viewBox="0 0 229 313" fill="none" xmlns="http://www.w3.org/2000/svg">
<g opacity="0.1">
<path d="M-138.254 4.34845H362.066" stroke="#3B3D3F" stroke-width="0.59" stroke-linecap="square" stroke-linejoin="round"/>
<path d="M-138.254 13.7885H362.066" stroke="#3B3D3F" stroke-width="0.59" stroke-linecap="square" stroke-linejoin="round"/>
<path d="M-138.254 23.2285H362.066" stroke="#3B3D3F" stroke-width="0.59" stroke-linecap="square" stroke-linejoin="round"/>
<path d="M-138.254 32.6685H362.066" stroke="#3B3D3F" stroke-width="0.59" stroke-linecap="square" stroke-linejoin="round"/>
<path d="M-138.254 42.1084H362.066" stroke="#3B3D3F" stroke-width="0.59" stroke-linecap="square" stroke-linejoin="round"/>
<path d="M-138.254 51.5484H362.066" stroke="#3B3D3F" stroke-width="0.59" stroke-linecap="square" stroke-linejoin="round"/>
<path d="M-138.254 60.9884H362.066" stroke="#3B3D3F" stroke-width="0.59" stroke-linecap="square" stroke-linejoin="round"/>
<path d="M-138.254 70.4284H362.066" stroke="#3B3D3F" stroke-width="0.59" stroke-linecap="square" stroke-linejoin="round"/>
<path d="M-138.254 79.8684H362.066" stroke="#3B3D3F" stroke-width="0.59" stroke-linecap="square" stroke-linejoin="round"/>
<path d="M-138.254 89.3084H362.066" stroke="#3B3D3F" stroke-width="0.59" stroke-linecap="square" stroke-linejoin="round"/>
<path d="M-138.254 98.7484H362.066" stroke="#3B3D3F" stroke-width="0.59" stroke-linecap="square" stroke-linejoin="round"/>
<path d="M-138.254 108.188H362.066" stroke="#3B3D3F" stroke-width="0.59" stroke-linecap="square" stroke-linejoin="round"/>
<path d="M-138.254 117.628H362.066" stroke="#3B3D3F" stroke-width="0.59" stroke-linecap="square" stroke-linejoin="round"/>
<path d="M-138.254 127.068H362.066" stroke="#3B3D3F" stroke-width="0.59" stroke-linecap="square" stroke-linejoin="round"/>
<path d="M-138.254 136.508H362.066" stroke="#3B3D3F" stroke-width="0.59" stroke-linecap="square" stroke-linejoin="round"/>
<path d="M-138.254 145.948H362.066" stroke="#3B3D3F" stroke-width="0.59" stroke-linecap="square" stroke-linejoin="round"/>
<path d="M-138.254 155.388H362.066" stroke="#3B3D3F" stroke-width="0.59" stroke-linecap="square" stroke-linejoin="round"/>
<path d="M-138.254 164.828H362.066" stroke="#3B3D3F" stroke-width="0.59" stroke-linecap="square" stroke-linejoin="round"/>
<path d="M3.34668 -5.09155L3.34669 176.038" stroke="#3B3D3F" stroke-width="0.59" stroke-linecap="square" stroke-linejoin="round"/>
<path d="M12.7861 -5.09155L12.7861 176.038" stroke="#3B3D3F" stroke-width="0.59" stroke-linecap="square" stroke-linejoin="round"/>
<path d="M22.2266 -5.09155L22.2266 176.038" stroke="#3B3D3F" stroke-width="0.59" stroke-linecap="square" stroke-linejoin="round"/>
<path d="M31.666 -5.09155L31.666 176.038" stroke="#3B3D3F" stroke-width="0.59" stroke-linecap="square" stroke-linejoin="round"/>
<path d="M41.1064 -5.09155L41.1065 176.038" stroke="#3B3D3F" stroke-linecap="square" stroke-linejoin="round"/>
<path d="M50.5459 -5.09155L50.5459 176.038" stroke="#3B3D3F" stroke-width="0.59" stroke-linecap="square" stroke-linejoin="round"/>
<path d="M59.9863 -5.09155L59.9863 176.038" stroke="#3B3D3F" stroke-width="0.59" stroke-linecap="square" stroke-linejoin="round"/>
<path d="M69.4268 -5.09155L69.4268 176.038" stroke="#3B3D3F" stroke-width="0.59" stroke-linecap="square" stroke-linejoin="round"/>
<path d="M78.8662 -5.09155L78.8662 176.038" stroke="#3B3D3F" stroke-width="0.59" stroke-linecap="square" stroke-linejoin="round"/>
<path d="M88.3066 -5.09155L88.3066 176.038" stroke="#3B3D3F" stroke-width="0.59" stroke-linecap="square" stroke-linejoin="round"/>
<path d="M97.7461 -5.09155L97.7461 176.038" stroke="#3B3D3F" stroke-width="0.59" stroke-linecap="square" stroke-linejoin="round"/>
<path d="M107.187 -5.09155L107.187 176.038" stroke="#3B3D3F" stroke-width="0.59" stroke-linecap="square" stroke-linejoin="round"/>
<path d="M116.626 -5.09155L116.626 176.038" stroke="#3B3D3F" stroke-width="0.59" stroke-linecap="square" stroke-linejoin="round"/>
<path d="M126.066 -5.09155L126.066 176.038" stroke="#3B3D3F" stroke-width="0.59" stroke-linecap="square" stroke-linejoin="round"/>
<path d="M135.506 -5.09155L135.506 176.038" stroke="#3B3D3F" stroke-width="0.59" stroke-linecap="square" stroke-linejoin="round"/>
<path d="M144.946 -5.09155L144.946 176.038" stroke="#3B3D3F" stroke-width="0.59" stroke-linecap="square" stroke-linejoin="round"/>
<path d="M154.387 -5.09155L154.387 176.038" stroke="#3B3D3F" stroke-width="0.59" stroke-linecap="square" stroke-linejoin="round"/>
<path d="M163.826 -5.09155L163.826 176.038" stroke="#3B3D3F" stroke-width="0.59" stroke-linecap="square" stroke-linejoin="round"/>
<path d="M173.267 -5.09155L173.267 176.038" stroke="#3B3D3F" stroke-width="0.59" stroke-linecap="square" stroke-linejoin="round"/>
<path d="M182.706 -5.09155L182.706 176.038" stroke="#3B3D3F" stroke-width="0.59" stroke-linecap="square" stroke-linejoin="round"/>
<path d="M192.146 -5.09155L192.146 176.038" stroke="#3B3D3F" stroke-width="0.59" stroke-linecap="square" stroke-linejoin="round"/>
<path d="M201.586 -5.09155L201.586 176.038" stroke="#3B3D3F" stroke-width="0.59" stroke-linecap="square" stroke-linejoin="round"/>
<path d="M211.026 -5.09155L211.026 176.038" stroke="#3B3D3F" stroke-width="0.59" stroke-linecap="square" stroke-linejoin="round"/>
<path d="M220.467 -5.09155L220.467 176.038" stroke="#3B3D3F" stroke-width="0.59" stroke-linecap="square" stroke-linejoin="round"/>
</g>
<path d="M154.78 89.29L225.58 89.29" stroke="#3B3D3F" stroke-dasharray="0.59 2.36"/>
<path d="M-11.0098 89.29H69.2302" stroke="#3B3D3F" stroke-dasharray="0.59 2.36"/>
<path d="M17.3105 91.65V112.89C17.3105 115.497 19.4238 117.61 22.0305 117.61H40.9105" stroke="#3B3D3F" stroke-dasharray="0.59 2.36"/>
<path d="M212.011 91.06V112.89C212.011 115.497 209.898 117.61 207.291 117.61H183.691" stroke="#3B3D3F" stroke-dasharray="0.59 2.36"/>
<path d="M74.5405 89.29H45.6305C43.0237 89.29 40.9105 91.4032 40.9105 94.01V157.73C40.9105 160.337 43.0237 162.45 45.6305 162.45H98.7305" stroke="#3B3D3F" stroke-dasharray="0.59 2.36"/>
<path d="M113.908 7.23853L113.908 41.3894" stroke="url(#paint0_linear_8269_61908)" stroke-dasharray="0.59 2.36"/>
<path d="M149.552 89.29H178.576C181.183 89.29 183.296 91.4032 183.296 94.01V157.73C183.296 160.337 181.183 162.45 178.576 162.45H125.28" stroke="#3B3D3F" stroke-dasharray="0.59 2.36"/>
<path d="M113.906 136.49L113.906 167.17" stroke="#3B3D3F" stroke-opacity="0.46" stroke-linecap="round"/>
<path d="M149.666 89.3084H178.576C181.183 89.3084 183.296 91.4216 183.296 94.0284V115.268" stroke="#25292C" stroke-linecap="round"/>
<path d="M74.7363 89.3084H45.6304C43.0236 89.3084 40.9104 91.4216 40.9104 94.0284V115.268" stroke="#25292C" stroke-linecap="round"/>
<path d="M142.586 89.3084H178.576C181.183 89.3084 183.296 87.1952 183.296 84.5884V45.6484" stroke="#25292C" stroke-linecap="round"/>
<rect x="38.808" y="114.917" width="4.70333" height="4.70333" rx="2.35167" fill="url(#paint1_linear_8269_61908)" stroke="url(#paint2_linear_8269_61908)" stroke-width="0.514482"/>
<rect x="180.997" y="115.507" width="4.70333" height="4.70333" rx="2.35167" fill="url(#paint3_linear_8269_61908)" stroke="url(#paint4_linear_8269_61908)" stroke-width="0.514482"/>
<rect x="15.1547" y="86.6618" width="4.70333" height="4.70333" rx="2.35167" fill="url(#paint5_linear_8269_61908)" stroke="url(#paint6_linear_8269_61908)" stroke-width="0.514482"/>
<rect x="208.674" y="86.9568" width="4.70333" height="4.70333" rx="2.35167" fill="url(#paint7_linear_8269_61908)" stroke="url(#paint8_linear_8269_61908)" stroke-width="0.514482"/>
<path d="M81.2266 89.29H45.8266C43.2198 89.29 41.1066 87.1768 41.1066 84.57V46.9437" stroke="#25292C" stroke-linecap="round"/>
<rect x="-16.667" y="211.383" width="400" height="102.617" fill="url(#paint9_linear_8269_61908)"/>
<g filter="url(#filter0_f_8269_61908)">
<path d="M110.708 43.7802C112.616 42.6786 114.967 42.6786 116.875 43.7801L152.096 64.1155C154.004 65.2171 155.18 67.2528 155.18 69.4559V110.127C155.18 112.33 154.004 114.366 152.096 115.467L116.875 135.802C114.967 136.904 112.616 136.904 110.708 135.802L75.4861 115.467C73.5782 114.366 72.4028 112.33 72.4028 110.127V69.4559C72.4028 67.2528 73.5782 65.2171 75.4861 64.1155L110.708 43.7802Z" fill="#0A0D0F"/>
</g>
<path d="M109.609 45.1613C111.425 44.1133 112.274 43.6269 113.17 43.4363C113.973 43.2657 114.803 43.2657 115.606 43.4363C116.503 43.6269 117.352 44.1133 119.168 45.1613L150.689 63.3604C152.505 64.4085 153.351 64.9011 153.964 65.582C154.513 66.1921 154.928 66.9109 155.182 67.6917C155.465 68.5631 155.469 69.5421 155.469 71.6381V108.036C155.469 110.133 155.465 111.112 155.182 111.983C154.928 112.764 154.513 113.483 153.964 114.093C153.351 114.774 152.505 115.266 150.689 116.314L119.168 134.513C117.352 135.561 116.503 136.048 115.606 136.238C114.803 136.409 113.973 136.409 113.17 136.238C112.274 136.048 111.425 135.561 109.609 134.513L78.0875 116.314C76.2722 115.266 75.4262 114.774 74.8131 114.093C74.2637 113.483 73.8488 112.764 73.5951 111.983C73.3119 111.112 73.3083 110.133 73.3083 108.036V71.6381C73.3083 69.5421 73.3119 68.5631 73.5951 67.6917C73.8488 66.9109 74.2637 66.1921 74.8131 65.582C75.4262 64.9011 76.2722 64.4085 78.0875 63.3604L109.609 45.1613Z" fill="#0A0D0F" stroke="url(#paint10_linear_8269_61908)" stroke-width="0.616662"/>
<g filter="url(#filter1_i_8269_61908)">
<path d="M113.127 47.3788C113.486 47.1713 113.666 47.0675 113.857 47.0269C114.026 46.991 114.201 46.991 114.37 47.0269C114.561 47.0675 114.741 47.1713 115.1 47.3788L150.24 67.6667C150.6 67.8742 150.779 67.978 150.91 68.1231C151.026 68.2516 151.113 68.4029 151.167 68.5673C151.227 68.7531 151.227 68.9606 151.227 69.3756V109.951C151.227 110.366 151.227 110.574 151.167 110.76C151.113 110.924 151.026 111.075 150.91 111.204C150.779 111.349 150.6 111.453 150.24 111.66L115.1 131.948C114.741 132.156 114.561 132.26 114.37 132.3C114.201 132.336 114.026 132.336 113.857 132.3C113.666 132.26 113.486 132.156 113.127 131.948L77.9867 111.66C77.6272 111.453 77.4475 111.349 77.3168 111.204C77.2011 111.075 77.1138 110.924 77.0604 110.76C77 110.574 77 110.366 77 109.951V69.3756C77 68.9606 77 68.7531 77.0604 68.5673C77.1138 68.4029 77.2011 68.2516 77.3168 68.1231C77.4475 67.978 77.6272 67.8742 77.9867 67.6667L113.127 47.3788Z" fill="#060809"/>
</g>
<path d="M113.281 47.6458C113.658 47.4279 113.789 47.3565 113.921 47.3285C114.048 47.3015 114.179 47.3015 114.306 47.3285C114.438 47.3565 114.568 47.4279 114.946 47.6458L150.086 67.9337C150.464 68.1516 150.591 68.2292 150.681 68.3295C150.768 68.4258 150.833 68.5393 150.873 68.6626C150.915 68.7909 150.919 68.9398 150.919 69.3756V109.951C150.919 110.387 150.915 110.536 150.873 110.664C150.833 110.788 150.768 110.901 150.681 110.998C150.591 111.098 150.464 111.175 150.086 111.393L114.946 131.681C114.568 131.899 114.438 131.97 114.306 131.999C114.179 132.025 114.048 132.025 113.921 131.999C113.789 131.97 113.658 131.899 113.281 131.681L78.1408 111.393C77.7634 111.175 77.6362 111.098 77.5459 110.998L77.3168 111.204L77.5459 110.998C77.4592 110.901 77.3937 110.788 77.3536 110.664C77.3119 110.536 77.3083 110.387 77.3083 109.951V69.3756C77.3083 68.9398 77.3119 68.7909 77.3536 68.6626C77.3937 68.5393 77.4592 68.4258 77.5459 68.3295C77.6362 68.2292 77.7634 68.1516 78.1408 67.9337L113.281 47.6458Z" stroke="url(#paint11_linear_8269_61908)" stroke-width="0.616662"/>
<path d="M112.611 50.6459C112.988 50.428 113.119 50.3566 113.251 50.3285C113.378 50.3016 113.509 50.3016 113.636 50.3285C113.767 50.3566 113.898 50.428 114.276 50.6459L146.746 69.3925C147.123 69.6104 147.25 69.688 147.341 69.7883C147.427 69.8846 147.493 69.9981 147.533 70.1214C147.575 70.2497 147.578 70.3986 147.578 70.8344V108.328C147.578 108.764 147.575 108.912 147.533 109.041C147.493 109.164 147.427 109.278 147.341 109.374C147.25 109.474 147.123 109.552 146.746 109.77L114.276 128.516C113.898 128.734 113.768 128.806 113.636 128.834C113.509 128.861 113.378 128.861 113.251 128.834C113.119 128.806 112.988 128.734 112.611 128.516L80.1408 109.77C79.7634 109.552 79.6362 109.474 79.5459 109.374C79.4592 109.278 79.3937 109.164 79.3536 109.041C79.3119 108.912 79.3083 108.764 79.3083 108.328V70.8344C79.3083 70.3986 79.3119 70.2497 79.3536 70.1214C79.3937 69.9981 79.4592 69.8846 79.5459 69.7883C79.6362 69.688 79.7634 69.6104 80.1408 69.3925L112.611 50.6459Z" fill="#0A0D0F" stroke="url(#paint12_linear_8269_61908)" stroke-width="0.616662"/>
<g filter="url(#filter2_i_8269_61908)">
<path d="M112.876 53.5921C113.241 53.3767 113.424 53.2689 113.618 53.2268C113.79 53.1895 113.968 53.1895 114.141 53.2268C114.335 53.2689 114.518 53.3767 114.883 53.5921L143.982 70.7692C144.335 70.9779 144.512 71.0823 144.641 71.227C144.754 71.355 144.84 71.5053 144.893 71.6683C144.952 71.8525 144.952 72.0578 144.952 72.4685V106.899C144.952 107.31 144.952 107.515 144.893 107.699C144.84 107.862 144.754 108.013 144.641 108.141C144.512 108.285 144.335 108.39 143.982 108.598L114.883 125.775C114.518 125.991 114.335 126.099 114.141 126.141C113.968 126.178 113.79 126.178 113.618 126.141C113.424 126.099 113.241 125.991 112.876 125.775L83.7771 108.598C83.4235 108.39 83.2467 108.285 83.1182 108.141C83.0045 108.013 82.9186 107.862 82.8662 107.699C82.8069 107.515 82.8069 107.31 82.8069 106.899V72.4685C82.8069 72.0578 82.8069 71.8525 82.8662 71.6683C82.9186 71.5053 83.0045 71.355 83.1182 71.227C83.2467 71.0823 83.4235 70.9779 83.7771 70.7692L112.876 53.5921Z" fill="#060809"/>
</g>
<path d="M113.033 53.8576C113.416 53.6314 113.549 53.5572 113.684 53.5281C113.813 53.5002 113.946 53.5002 114.075 53.5281C114.21 53.5572 114.342 53.6314 114.726 53.8576L143.825 71.0347C144.196 71.2539 144.321 71.3318 144.41 71.4317C144.496 71.5278 144.56 71.6405 144.599 71.7627C144.64 71.89 144.644 72.0373 144.644 72.4685V106.899C144.644 107.33 144.64 107.478 144.599 107.605C144.56 107.727 144.496 107.84 144.41 107.936L144.641 108.141L144.41 107.936C144.321 108.036 144.196 108.114 143.825 108.333L114.726 125.51C114.342 125.736 114.21 125.81 114.075 125.839C113.946 125.867 113.813 125.867 113.684 125.839C113.549 125.81 113.416 125.736 113.033 125.51L83.9339 108.333C83.5625 108.114 83.4375 108.036 83.3487 107.936C83.2634 107.84 83.199 107.727 83.1597 107.605L82.8662 107.699L83.1597 107.605C83.1188 107.478 83.1153 107.33 83.1153 106.899V72.4685C83.1153 72.0373 83.1188 71.89 83.1597 71.7627C83.199 71.6405 83.2634 71.5278 83.3487 71.4317L83.1182 71.227L83.3487 71.4317C83.4375 71.3318 83.5625 71.2539 83.9339 71.0347L113.033 53.8576Z" stroke="url(#paint13_linear_8269_61908)" stroke-width="0.616662"/>
<path d="M85.3536 73.0309L85.0604 72.9356L85.3536 73.0309C85.3937 72.9076 85.4592 72.7941 85.5459 72.6978L85.3174 72.492L85.5459 72.6977C85.6362 72.5975 85.7634 72.5199 86.1408 72.302L113.259 56.6459C113.637 56.4279 113.767 56.3566 113.899 56.3285C114.026 56.3016 114.157 56.3016 114.284 56.3285C114.416 56.3566 114.547 56.4279 114.924 56.6459L142.042 72.302C142.42 72.5199 142.547 72.5975 142.637 72.6977C142.724 72.7941 142.79 72.9076 142.83 73.0309C142.871 73.1592 142.875 73.3081 142.875 73.7439V105.056C142.875 105.492 142.871 105.641 142.83 105.769C142.79 105.892 142.724 106.006 142.637 106.102C142.547 106.203 142.42 106.28 142.042 106.498L114.924 122.154C114.547 122.372 114.416 122.443 114.284 122.472C114.157 122.498 114.026 122.498 113.899 122.472C113.767 122.443 113.637 122.372 113.259 122.154L86.1408 106.498C85.7634 106.28 85.6362 106.203 85.5459 106.102C85.4592 106.006 85.3937 105.892 85.3536 105.769C85.3119 105.641 85.3083 105.492 85.3083 105.056V73.7439C85.3083 73.3081 85.3119 73.1592 85.3536 73.0309Z" fill="#0A0D0F" stroke="url(#paint14_linear_8269_61908)" stroke-width="0.616662"/>
<path fill-rule="evenodd" clip-rule="evenodd" d="M103.741 77.6819C103.181 77.6819 102.727 78.136 102.727 78.6961V83.1275C102.727 83.6876 103.181 84.1417 103.741 84.1417H124.443C125.003 84.1417 125.457 83.6876 125.457 83.1275V78.6961C125.457 78.136 125.003 77.6819 124.443 77.6819H103.741ZM123.133 80.9125C123.133 81.6395 122.543 82.2288 121.816 82.2288C121.089 82.2288 120.5 81.6395 120.5 80.9125C120.5 80.1855 121.089 79.5961 121.816 79.5961C122.543 79.5961 123.133 80.1855 123.133 80.9125ZM104.504 80.9115C104.504 80.6314 104.731 80.4044 105.011 80.4044H110.956C111.236 80.4044 111.463 80.6314 111.463 80.9115C111.463 81.1916 111.236 81.4186 110.956 81.4186H105.011C104.731 81.4186 104.504 81.1916 104.504 80.9115Z" fill="#1C76FD"/>
<path fill-rule="evenodd" clip-rule="evenodd" d="M103.741 86.1702C103.181 86.1702 102.727 86.6243 102.727 87.1844V91.6157C102.727 92.1759 103.181 92.63 103.741 92.63H124.443C125.003 92.63 125.457 92.1759 125.457 91.6157V87.1844C125.457 86.6243 125.003 86.1702 124.443 86.1702H103.741ZM123.133 89.4006C123.133 90.1275 122.543 90.7169 121.816 90.7169C121.089 90.7169 120.5 90.1275 120.5 89.4006C120.5 88.6736 121.089 88.0842 121.816 88.0842C122.543 88.0842 123.133 88.6736 123.133 89.4006ZM104.504 89.3996C104.504 89.1195 104.731 88.8924 105.011 88.8924H110.956C111.236 88.8924 111.463 89.1195 111.463 89.3996C111.463 89.6796 111.236 89.9067 110.956 89.9067H105.011C104.731 89.9067 104.504 89.6796 104.504 89.3996Z" fill="#1C76FD"/>
<path fill-rule="evenodd" clip-rule="evenodd" d="M103.741 94.6584C103.181 94.6584 102.727 95.1125 102.727 95.6727V100.104C102.727 100.664 103.181 101.118 103.741 101.118H124.443C125.003 101.118 125.457 100.664 125.457 100.104V95.6727C125.457 95.1125 125.003 94.6584 124.443 94.6584H103.741ZM123.133 97.8893C123.133 98.6163 122.543 99.2056 121.816 99.2056C121.089 99.2056 120.5 98.6163 120.5 97.8893C120.5 97.1623 121.089 96.5729 121.816 96.5729C122.543 96.5729 123.133 97.1623 123.133 97.8893ZM104.504 97.8883C104.504 97.6082 104.731 97.3812 105.011 97.3812H110.956C111.236 97.3812 111.463 97.6082 111.463 97.8883C111.463 98.1684 111.236 98.3954 110.956 98.3954H105.011C104.731 98.3954 104.504 98.1684 104.504 97.8883Z" fill="#1C76FD"/>
<rect x="100.041" y="148.585" width="27.73" height="27.73" rx="6.785" fill="url(#paint15_linear_8269_61908)"/>
<rect x="100.041" y="148.585" width="27.73" height="27.73" rx="6.785" stroke="url(#paint16_linear_8269_61908)" stroke-width="0.59"/>
<path d="M119.806 155.37H108.006C107.029 155.37 106.236 156.162 106.236 157.14V165.4C106.236 166.378 107.029 167.17 108.006 167.17H119.806C120.784 167.17 121.576 166.378 121.576 165.4V157.14C121.576 156.162 120.784 155.37 119.806 155.37Z" fill="white"/>
<path d="M116.704 159.036L113.906 160.656L111.108 159.036C111.074 159.017 111.046 158.989 111.027 158.955C111.007 158.922 110.997 158.883 110.997 158.844C110.997 158.805 111.007 158.767 111.027 158.733C111.046 158.7 111.074 158.672 111.108 158.652L113.561 157.233C113.666 157.172 113.785 157.14 113.906 157.14C114.027 157.14 114.146 157.172 114.251 157.233L116.704 158.652C116.738 158.672 116.766 158.7 116.786 158.733C116.805 158.767 116.815 158.805 116.815 158.844C116.815 158.883 116.805 158.922 116.786 158.955C116.766 158.989 116.738 159.017 116.704 159.036ZM110.366 160.015V162.762C110.366 162.888 110.399 163.012 110.461 163.121C110.523 163.23 110.613 163.321 110.721 163.385L113.132 164.78C113.165 164.8 113.204 164.81 113.242 164.81C113.281 164.81 113.319 164.8 113.353 164.78C113.387 164.761 113.415 164.733 113.434 164.699C113.453 164.666 113.464 164.627 113.464 164.589V161.424L110.698 159.824C110.664 159.804 110.626 159.794 110.588 159.794C110.549 159.794 110.511 159.804 110.477 159.824C110.443 159.843 110.415 159.871 110.396 159.905C110.377 159.938 110.366 159.976 110.366 160.015ZM117.446 162.762V160.015C117.446 159.976 117.436 159.938 117.416 159.905C117.397 159.871 117.369 159.843 117.335 159.824C117.302 159.804 117.264 159.794 117.225 159.794C117.186 159.794 117.148 159.804 117.114 159.824L114.349 161.424V164.589C114.349 164.627 114.359 164.666 114.378 164.699C114.398 164.733 114.426 164.761 114.459 164.78C114.493 164.8 114.531 164.81 114.57 164.81C114.609 164.81 114.647 164.8 114.681 164.78L117.091 163.385C117.199 163.321 117.289 163.23 117.351 163.121C117.414 163.012 117.446 162.888 117.446 162.762Z" fill="#0A0D0F"/>
<path d="M116.266 168.35H111.546C111.39 168.35 111.24 168.412 111.129 168.523C111.018 168.633 110.956 168.783 110.956 168.94C110.956 169.096 111.018 169.247 111.129 169.357C111.24 169.468 111.39 169.53 111.546 169.53H116.266C116.423 169.53 116.573 169.468 116.683 169.357C116.794 169.247 116.856 169.096 116.856 168.94C116.856 168.783 116.794 168.633 116.683 168.523C116.573 168.412 116.423 168.35 116.266 168.35Z" fill="white"/>
<path d="M167.089 52.1676L167.081 52.1637L167.074 52.1602C163.567 50.5807 161.125 47.0495 161.125 42.947C161.125 37.3708 165.636 32.8514 171.198 32.8514C172.071 32.8514 172.874 32.3124 173.197 31.4995C174.794 27.4839 178.708 24.6472 183.283 24.6472C189.276 24.6472 194.136 29.5165 194.136 35.5242C194.136 36.7543 195.055 37.9302 196.348 37.9302H196.732C200.895 37.9302 204.271 41.3127 204.271 45.4864C204.271 49.6602 200.895 53.0427 196.732 53.0427H170.614C169.34 53.0427 168.14 52.7262 167.089 52.1676Z" fill="url(#paint17_linear_8269_61908)" stroke="url(#paint18_linear_8269_61908)" stroke-width="0.514482"/>
<g clip-path="url(#clip0_8269_61908)">
<path d="M185.106 38.297H185.111L185.16 38.2498L186.409 37.0487L186.453 37.0069L186.46 36.947L186.521 36.4371L186.532 36.3468L186.463 36.2879C185.726 35.6622 184.835 35.2279 183.876 35.0257C182.917 34.8234 181.919 34.8595 180.979 35.1309C180.038 35.4022 179.184 35.8998 178.497 36.5775C177.811 37.2551 177.315 38.0905 177.057 39.0049L176.964 39.3332L177.282 39.2081C177.387 39.1665 177.504 39.1597 177.615 39.189L177.649 39.1981L177.684 39.1925L180.183 38.7964L180.259 38.7843L180.299 38.7195L180.299 38.7194L180.299 38.7194L180.299 38.7194L180.299 38.7194L180.299 38.7193L180.3 38.7183L180.303 38.7133C180.306 38.7088 180.311 38.7021 180.316 38.694C180.328 38.6775 180.343 38.6565 180.359 38.6367C180.365 38.6293 180.371 38.6227 180.376 38.6171L180.408 38.6233L180.472 38.556C180.977 38.022 181.678 37.6929 182.429 37.638C183.181 37.583 183.925 37.8065 184.51 38.2613L184.605 38.1391V38.297H184.614H185.043H185.106Z" fill="white" stroke="#0A0D0F" stroke-width="0.338196"/>
<path d="M186.486 36.2935L186.369 36.1941L186.259 36.3002L184.506 37.9859L184.365 38.1207L184.518 38.2408C184.864 38.5122 185.14 38.855 185.327 39.2431C185.514 39.6311 185.606 40.0545 185.598 40.4814L185.598 40.4814V40.4847V40.7839V40.953H185.767C185.95 40.953 186.132 40.9878 186.301 41.0552C186.471 41.1226 186.624 41.2213 186.753 41.3452C186.882 41.4692 186.984 41.6159 187.053 41.777C187.122 41.938 187.158 42.1103 187.158 42.2842C187.158 42.4581 187.122 42.6304 187.053 42.7914C186.984 42.9525 186.882 43.0992 186.753 43.2232C186.624 43.3471 186.471 43.4458 186.301 43.5132C186.132 43.5806 185.95 43.6154 185.767 43.6154H182.646H182.577L182.528 43.6634L182.217 43.9668L182.166 44.0166V44.0879V45.8874V45.9594L182.218 46.0093L182.529 46.3085L182.578 46.3557H182.646H185.766C186.672 46.3624 187.557 46.0886 188.289 45.5739C189.023 45.0591 189.565 44.3301 189.835 43.4942C190.105 42.6581 190.088 41.7604 189.787 40.9344C189.493 40.128 188.943 39.4326 188.217 38.9451C187.915 37.92 187.314 36.9999 186.486 36.2935Z" fill="white" stroke="#0A0D0F" stroke-width="0.338196"/>
<path d="M182.642 46.3367H182.811V46.1676V43.7655V43.5964H182.642L179.521 43.5964C179.521 43.5964 179.521 43.5964 179.521 43.5964C179.322 43.5963 179.126 43.5551 178.945 43.4758L178.888 43.4508L178.829 43.4686L178.39 43.5992L178.351 43.6108L178.322 43.639L177.064 44.84L177.029 44.8732L177.017 44.9198L176.908 45.3412L176.879 45.4528L176.972 45.5206C177.707 46.0541 178.602 46.3405 179.522 46.3367H182.642Z" fill="white" stroke="#0A0D0F" stroke-width="0.338196"/>
<path d="M179.52 38.2109L179.52 38.2109C178.64 38.2159 177.784 38.4849 177.07 38.981C176.357 39.4772 175.821 40.1761 175.539 40.981C175.257 41.786 175.244 42.6558 175.501 43.4686C175.758 44.2812 176.272 44.9953 176.97 45.5116L177.085 45.5965L177.188 45.4976L178.998 43.7571L179.181 43.5812L178.948 43.4801C178.742 43.3908 178.563 43.2551 178.425 43.0853C178.287 42.9155 178.194 42.7166 178.154 42.5058C178.114 42.295 178.128 42.078 178.194 41.8733C178.261 41.6685 178.378 41.4817 178.537 41.329C178.696 41.1763 178.891 41.0624 179.107 40.9977C179.323 40.933 179.552 40.9196 179.774 40.9586C179.996 40.9976 180.205 41.0879 180.382 41.2211C180.56 41.3543 180.7 41.5264 180.792 41.7222L180.892 41.9356L181.062 41.7721L182.872 40.0316L182.983 39.9249L182.887 39.8045C182.491 39.3063 181.981 38.9036 181.397 38.6273C180.813 38.3511 180.17 38.2086 179.52 38.2109Z" fill="white" stroke="#0A0D0F" stroke-width="0.338196"/>
</g>
<rect x="27.2563" y="25.2372" width="27.8055" height="27.8055" rx="4.46276" fill="url(#paint19_linear_8269_61908)"/>
<rect x="27.2563" y="25.2372" width="27.8055" height="27.8055" rx="4.46276" stroke="url(#paint20_linear_8269_61908)" stroke-width="0.514482"/>
<path d="M40.5743 37.8424L40.6764 36.1167C40.5532 36.1309 40.4308 36.151 40.3098 36.1772C39.64 36.3227 39.0587 36.6388 38.6043 37.0664L40.0829 38.0694L40.0858 38.0681C40.1359 38.1031 40.1975 38.1236 40.2643 38.1236C40.4273 38.1236 40.5601 38.0003 40.5669 37.8459L40.5743 37.8424Z" fill="white"/>
<path d="M43.5975 37.0671C43.0433 36.5477 42.32 36.2088 41.5379 36.1167L41.64 37.8396L41.6415 37.8403C41.6443 37.9016 41.6674 37.9605 41.7076 38.0083C41.8093 38.1302 41.993 38.1529 42.1234 38.0617L42.1285 38.0638L43.5975 37.0671Z" fill="white"/>
<path d="M39.4181 38.8666L38.0681 37.711C37.6674 38.3356 37.4776 39.0848 37.5657 39.8556L39.2962 39.3776L39.2977 39.372C39.3597 39.3557 39.4148 39.321 39.4549 39.2729C39.5565 39.1509 39.5385 38.975 39.4167 38.8736L39.4181 38.8666Z" fill="white"/>
<path d="M44.5788 38.7471C44.4884 38.3703 44.3365 38.0228 44.1359 37.7116L42.7932 38.8617L42.794 38.8652C42.7456 38.9053 42.7118 38.9593 42.6977 39.0191C42.6615 39.1712 42.7572 39.3228 42.913 39.3635L42.9144 39.3706L44.6538 39.85C44.6906 39.4909 44.6682 39.1193 44.5788 38.7471Z" fill="white"/>
<path d="M41.383 38.9558H40.8299L40.4854 39.3663L40.6088 39.8795L41.1068 40.1086L41.6033 39.8802L41.7267 39.3671L41.383 38.9558Z" fill="white"/>
<path d="M42.6728 40.368C42.6499 40.364 42.6265 40.362 42.603 40.3631C42.5638 40.365 42.5245 40.3746 42.4869 40.3919C42.3401 40.4596 42.2762 40.6261 42.34 40.768L42.3378 40.7708L43.0327 42.377C43.7025 41.9687 44.2037 41.3585 44.4657 40.6541L42.6757 40.3645L42.6728 40.368Z" fill="white"/>
<path d="M39.8875 40.5958C39.8557 40.4627 39.7332 40.372 39.5966 40.3701C39.5771 40.3699 39.557 40.3716 39.5371 40.3751L39.5342 40.3715L37.7596 40.6597C38.0335 41.3849 38.5454 41.9759 39.1882 42.3707L39.8757 40.7806L39.8706 40.7743C39.8951 40.7198 39.9024 40.6581 39.8875 40.5958Z" fill="white"/>
<path d="M41.2375 41.0956C41.1934 41.075 41.1448 41.0651 41.0957 41.0668C41.0428 41.0686 40.9912 41.0838 40.9462 41.1107C40.9013 41.1375 40.8644 41.1752 40.8394 41.22H40.838L39.9654 42.7299C40.5692 42.9268 41.2362 42.9709 41.9052 42.8255C42.0233 42.7999 42.14 42.7687 42.2548 42.732L41.38 41.2193H41.3734C41.3442 41.167 41.2977 41.1233 41.2375 41.0956Z" fill="white"/>
<path fill-rule="evenodd" clip-rule="evenodd" d="M40.6276 31.6677C40.7593 31.6075 40.9024 31.5728 41.0484 31.5658C41.2321 31.5569 41.4152 31.5919 41.581 31.6677L47.3249 34.2925C47.4735 34.3604 47.6042 34.4593 47.707 34.5817C47.8099 34.7041 47.8824 34.847 47.9191 34.9996L49.3382 40.8986C49.3749 41.0513 49.3749 41.21 49.3381 41.3627C49.3014 41.5154 49.2289 41.6583 49.1259 41.7808L45.1522 46.5115C45.0492 46.6338 44.9185 46.7325 44.7699 46.8003C44.6213 46.868 44.4584 46.9032 44.2935 46.9031L37.9187 46.9045C37.7537 46.9045 37.5908 46.8692 37.4422 46.8013C37.2935 46.7334 37.1629 46.6346 37.06 46.5122L33.0848 41.7822C33.0626 41.7555 33.0418 41.7279 33.0224 41.6993C32.9425 41.5823 32.8881 41.4513 32.8625 41.314C32.8369 41.1767 32.8406 41.0359 32.8733 40.9L34.2902 35.001C34.3269 34.8484 34.3994 34.7055 34.5023 34.5831C34.6051 34.4607 34.7357 34.3618 34.8844 34.2939L40.6276 31.6677ZM40.763 33.9306C40.763 33.7287 40.917 33.5651 41.1068 33.5651C41.2966 33.5651 41.4505 33.7287 41.4506 33.9306C41.4506 33.9409 41.4508 33.9524 41.4511 33.9642C41.4515 33.9852 41.4519 34.0071 41.4513 34.0241C41.4483 34.1009 41.4357 34.1658 41.423 34.2319C41.4164 34.266 41.4097 34.3004 41.4043 34.3369L41.402 34.3547C41.3741 34.5764 41.3508 34.7614 41.3653 34.9337C41.3771 35.0101 41.4189 35.0466 41.4589 35.0815C41.4653 35.087 41.4716 35.0925 41.4777 35.0982C41.4788 35.122 41.4828 35.2012 41.4858 35.2451C42.5788 35.338 43.5938 35.8163 44.3394 36.5645L44.4701 36.4752C44.4753 36.4755 44.4813 36.4759 44.4879 36.4764C44.537 36.48 44.6199 36.4862 44.6787 36.4534C44.8288 36.3568 44.9658 36.2236 45.1298 36.0641L45.1422 36.052C45.1681 36.0258 45.1917 35.9999 45.2151 35.9743C45.2618 35.9231 45.3077 35.8728 45.3692 35.8222C45.3843 35.8097 45.405 35.7942 45.4242 35.7799C45.4317 35.7743 45.4389 35.7688 45.4456 35.7638C45.6105 35.6379 45.8399 35.6513 45.9583 35.7934C46.0766 35.9354 46.0387 36.1525 45.8738 36.2784C45.8661 36.2843 45.8577 36.2909 45.849 36.2978C45.8314 36.3116 45.813 36.3262 45.7981 36.3367C45.7341 36.382 45.6733 36.4128 45.6116 36.4441C45.579 36.4606 45.5462 36.4773 45.5124 36.4963C45.3068 36.6178 45.1364 36.7186 45.0012 36.84C44.9459 36.8966 44.9421 36.9507 44.9384 37.0024C44.9378 37.0105 44.9373 37.0184 44.9365 37.0263C44.9273 37.0344 44.9069 37.0519 44.8842 37.0713C44.8599 37.092 44.833 37.115 44.8146 37.131C45.1109 37.5531 45.3331 38.0321 45.4588 38.5559C45.5833 39.0748 45.6027 39.5934 45.5308 40.0918L45.6696 40.1304C45.6725 40.1344 45.6758 40.139 45.6794 40.1442C45.7069 40.1827 45.7543 40.2495 45.818 40.2731C45.993 40.3259 46.1897 40.3456 46.4267 40.3694L46.4342 40.3702C46.473 40.3732 46.5099 40.3746 46.5466 40.376C46.6166 40.3786 46.6855 40.3812 46.764 40.3955C46.782 40.3987 46.8052 40.4042 46.8273 40.4095C46.8403 40.4126 46.853 40.4156 46.8639 40.418C47.0665 40.4647 47.1966 40.643 47.1548 40.8186C47.1129 40.9942 46.915 41.101 46.7111 41.059C46.7097 41.0587 46.7075 41.0586 46.706 41.0583C46.7037 41.0578 46.7017 41.0567 46.6994 41.0562C46.689 41.054 46.6778 41.0519 46.6664 41.0497C46.6465 41.0459 46.6263 41.042 46.6105 41.0379C46.5332 41.0181 46.4699 40.9919 46.4055 40.9652C46.372 40.9513 46.3382 40.9373 46.302 40.9241L46.2913 40.9204C46.0687 40.844 45.8833 40.7804 45.7027 40.7554C45.6223 40.7493 45.5758 40.7801 45.5314 40.8097C45.5243 40.8144 45.5173 40.8191 45.5102 40.8235C45.4851 40.8187 45.4078 40.8056 45.3633 40.7989C45.0339 41.7896 44.3325 42.6473 43.3816 43.1847C43.3868 43.1968 43.3933 43.2133 43.4 43.2307C43.4143 43.2674 43.43 43.3078 43.4389 43.3175C43.4359 43.3252 43.4327 43.3328 43.4294 43.3405C43.4093 43.3883 43.3884 43.4379 43.4124 43.5115C43.4792 43.6771 43.5871 43.839 43.7173 44.0338C43.7388 44.0646 43.7605 44.0929 43.782 44.121C43.8235 44.1751 43.8642 44.2282 43.9016 44.296C43.9111 44.3131 43.9226 44.3366 43.9332 44.358C43.9379 44.3675 43.9424 44.3766 43.9464 44.3846C44.0348 44.5655 43.9699 44.7738 43.8003 44.852C43.6292 44.9309 43.4166 44.8476 43.325 44.6657C43.3211 44.658 43.3166 44.6494 43.312 44.6405C43.3015 44.6202 43.2902 44.5984 43.2824 44.5814C43.2501 44.5106 43.2318 44.4466 43.2131 44.3813C43.2037 44.3482 43.1941 44.3147 43.1825 44.2798L43.1792 44.2704C43.1026 44.0558 43.0391 43.8776 42.9468 43.7266C42.9013 43.6623 42.8469 43.6467 42.7949 43.6317C42.7869 43.6294 42.779 43.6271 42.7712 43.6247C42.7655 43.6153 42.7516 43.5911 42.7365 43.565C42.7228 43.5412 42.7081 43.5158 42.6977 43.4982C42.5055 43.5678 42.3084 43.6247 42.1079 43.6683C41.216 43.8621 40.3231 43.7835 39.5254 43.4904L39.4475 43.6254C39.3896 43.6403 39.3337 43.6553 39.2994 43.6945C39.2114 43.7949 39.1606 43.938 39.1066 44.0901C39.0837 44.1545 39.0603 44.2205 39.0333 44.2855C39.0215 44.3209 39.0119 44.3549 39.0023 44.3887C38.9841 44.4533 38.9661 44.5169 38.9341 44.587C38.9267 44.6032 38.916 44.6236 38.9058 44.6431C38.9007 44.6528 38.8958 44.6622 38.8915 44.6707C38.8914 44.6708 38.8915 44.6706 38.8915 44.6707C38.8915 44.6708 38.8915 44.6713 38.8915 44.6714C38.8914 44.6715 38.8912 44.6717 38.891 44.6718C38.8909 44.6719 38.891 44.6717 38.891 44.6718C38.7992 44.8531 38.587 44.9363 38.4163 44.8577C38.2465 44.7795 38.1817 44.5711 38.2701 44.3902C38.2749 44.3807 38.2803 44.3696 38.2858 44.3581C38.2954 44.3382 38.3055 44.3173 38.3142 44.3016C38.3518 44.2335 38.3927 44.1799 38.4344 44.1253C38.4557 44.0974 38.4772 44.0692 38.4985 44.0387C38.6287 43.8439 38.743 43.6691 38.8097 43.5036C38.8264 43.4485 38.8016 43.3732 38.7791 43.3175L38.8416 43.1741C37.9265 42.6553 37.2039 41.8283 36.8591 40.8053L36.7093 40.8299C36.7047 40.8274 36.6997 40.8246 36.6942 40.8216C36.6509 40.7976 36.5797 40.758 36.5117 40.7631C36.3309 40.7881 36.1454 40.8518 35.9225 40.9283L35.9123 40.9318C35.8767 40.9448 35.8434 40.9585 35.8104 40.9721C35.7455 40.9988 35.6818 41.025 35.6038 41.045C35.5861 41.0495 35.563 41.0542 35.5409 41.0586C35.5319 41.0604 35.5231 41.0622 35.5149 41.0639C35.5138 41.0642 35.5128 41.0646 35.5118 41.065C35.5106 41.0654 35.5095 41.0658 35.5083 41.066C35.5076 41.0662 35.5066 41.0663 35.5057 41.0664C35.5048 41.0665 35.5039 41.0666 35.5032 41.0667C35.2993 41.1088 35.1014 41.002 35.0595 40.8264C35.0176 40.6507 35.1478 40.4725 35.3504 40.4257C35.3519 40.4254 35.354 40.4246 35.3555 40.4243L35.3585 40.4236C35.3673 40.4216 35.3768 40.4194 35.3865 40.4171C35.4087 40.4119 35.432 40.4065 35.4503 40.4032C35.5287 40.389 35.5975 40.3864 35.6674 40.3837C35.7042 40.3824 35.7412 40.381 35.7801 40.3779L35.7881 40.3771C36.0248 40.3533 36.2214 40.3336 36.3963 40.2809C36.4459 40.2614 36.4936 40.2015 36.5302 40.1554C36.535 40.1494 36.5396 40.1436 36.544 40.1382L36.688 40.0981C36.5266 39.029 36.7996 37.9798 37.3894 37.1303L37.2792 37.0361C37.2785 37.0317 37.2777 37.0265 37.2768 37.0209C37.2697 36.9748 37.2572 36.8943 37.2102 36.8463C37.0751 36.7249 36.9047 36.6242 36.6992 36.5028C36.6657 36.4839 36.633 36.4673 36.6008 36.4509C36.5391 36.4194 36.4783 36.3885 36.414 36.343C36.3991 36.3326 36.3808 36.3181 36.3632 36.3043C36.3562 36.2987 36.3492 36.2933 36.3427 36.2882C36.3419 36.2876 36.3411 36.2871 36.3403 36.2866C36.3394 36.286 36.3385 36.2854 36.3376 36.2847C36.1726 36.1589 36.1348 35.9417 36.2531 35.7997C36.3197 35.7198 36.4214 35.6802 36.5271 35.6837C36.6093 35.6864 36.6944 35.7151 36.7665 35.7702C36.773 35.775 36.78 35.7803 36.7873 35.7858C36.8067 35.8002 36.8277 35.816 36.8429 35.8285C36.904 35.8788 36.9493 35.9286 36.9954 35.9794C37.019 36.0054 37.0429 36.0317 37.0692 36.0584L37.075 36.0641C37.2419 36.2263 37.3806 36.3611 37.5326 36.459C37.6027 36.4981 37.6587 36.4896 37.7123 36.4815C37.7205 36.4803 37.7287 36.4791 37.7368 36.478C37.7778 36.5066 37.8192 36.5348 37.861 36.5624C38.446 35.9683 39.2145 35.5283 40.1071 35.3343C40.3117 35.29 40.5194 35.2594 40.7285 35.243L40.7366 35.1038C40.7824 35.0614 40.8337 35.0004 40.8482 34.9337C40.8631 34.7579 40.8393 34.5689 40.8106 34.3413L40.8101 34.3369C40.8046 34.3004 40.798 34.2661 40.7914 34.2321C40.7786 34.1659 40.766 34.1009 40.763 34.0241C40.7624 34.0079 40.7628 33.9874 40.7633 33.9674C40.7635 33.9579 40.7637 33.9485 40.7637 33.9397C40.7637 33.9383 40.7636 33.9368 40.7634 33.9354C40.7632 33.9338 40.763 33.9322 40.763 33.9306Z" fill="white"/>
<defs>
<filter id="filter0_f_8269_61908" x="68.7024" y="39.254" width="90.1773" height="101.075" filterUnits="userSpaceOnUse" color-interpolation-filters="sRGB">
<feFlood flood-opacity="0" result="BackgroundImageFix"/>
<feBlend mode="normal" in="SourceGraphic" in2="BackgroundImageFix" result="shape"/>
<feGaussianBlur stdDeviation="1.84999" result="effect1_foregroundBlur_8269_61908"/>
</filter>
<filter id="filter1_i_8269_61908" x="77" y="46.9999" width="74.2266" height="85.9438" filterUnits="userSpaceOnUse" color-interpolation-filters="sRGB">
<feFlood flood-opacity="0" result="BackgroundImageFix"/>
<feBlend mode="normal" in="SourceGraphic" in2="BackgroundImageFix" result="shape"/>
<feColorMatrix in="SourceAlpha" type="matrix" values="0 0 0 0 0 0 0 0 0 0 0 0 0 0 0 0 0 0 127 0" result="hardAlpha"/>
<feOffset dy="0.616662"/>
<feGaussianBlur stdDeviation="0.616662"/>
<feComposite in2="hardAlpha" operator="arithmetic" k2="-1" k3="1"/>
<feColorMatrix type="matrix" values="0 0 0 0 0 0 0 0 0 0 0 0 0 0 0 0 0 0 1 0"/>
<feBlend mode="normal" in2="shape" result="effect1_innerShadow_8269_61908"/>
</filter>
<filter id="filter2_i_8269_61908" x="82.8066" y="53.1989" width="62.1455" height="73.5864" filterUnits="userSpaceOnUse" color-interpolation-filters="sRGB">
<feFlood flood-opacity="0" result="BackgroundImageFix"/>
<feBlend mode="normal" in="SourceGraphic" in2="BackgroundImageFix" result="shape"/>
<feColorMatrix in="SourceAlpha" type="matrix" values="0 0 0 0 0 0 0 0 0 0 0 0 0 0 0 0 0 0 127 0" result="hardAlpha"/>
<feOffset dy="0.616662"/>
<feGaussianBlur stdDeviation="0.616662"/>
<feComposite in2="hardAlpha" operator="arithmetic" k2="-1" k3="1"/>
<feColorMatrix type="matrix" values="0 0 0 0 0 0 0 0 0 0 0 0 0 0 0 0 0 0 1 0"/>
<feBlend mode="normal" in2="shape" result="effect1_innerShadow_8269_61908"/>
</filter>
<linearGradient id="paint0_linear_8269_61908" x1="113.408" y1="7.23853" x2="113.408" y2="41.3894" gradientUnits="userSpaceOnUse">
<stop stop-color="#3B3D3F" stop-opacity="0"/>
<stop offset="1" stop-color="#3B3D3F"/>
</linearGradient>
<linearGradient id="paint1_linear_8269_61908" x1="41.1597" y1="114.66" x2="41.1597" y2="119.878" gradientUnits="userSpaceOnUse">
<stop stop-color="#161C20"/>
<stop offset="1" stop-color="#0A0D0F"/>
</linearGradient>
<linearGradient id="paint2_linear_8269_61908" x1="41.1597" y1="117.267" x2="41.1597" y2="119.878" gradientUnits="userSpaceOnUse">
<stop stop-color="#3B3D3F" stop-opacity="0.5"/>
<stop offset="1" stop-color="#3B3D3F" stop-opacity="0.89"/>
</linearGradient>
<linearGradient id="paint3_linear_8269_61908" x1="183.349" y1="115.25" x2="183.349" y2="120.468" gradientUnits="userSpaceOnUse">
<stop stop-color="#161C20"/>
<stop offset="1" stop-color="#0A0D0F"/>
</linearGradient>
<linearGradient id="paint4_linear_8269_61908" x1="183.349" y1="117.857" x2="183.349" y2="120.468" gradientUnits="userSpaceOnUse">
<stop stop-color="#3B3D3F" stop-opacity="0.5"/>
<stop offset="1" stop-color="#3B3D3F" stop-opacity="0.89"/>
</linearGradient>
<linearGradient id="paint5_linear_8269_61908" x1="17.5064" y1="86.4045" x2="17.5064" y2="91.6224" gradientUnits="userSpaceOnUse">
<stop stop-color="#161C20"/>
<stop offset="1" stop-color="#0A0D0F"/>
</linearGradient>
<linearGradient id="paint6_linear_8269_61908" x1="17.5064" y1="89.0117" x2="17.5064" y2="91.6224" gradientUnits="userSpaceOnUse">
<stop stop-color="#3B3D3F" stop-opacity="0.5"/>
<stop offset="1" stop-color="#3B3D3F" stop-opacity="0.89"/>
</linearGradient>
<linearGradient id="paint7_linear_8269_61908" x1="211.026" y1="86.6995" x2="211.026" y2="91.9173" gradientUnits="userSpaceOnUse">
<stop stop-color="#161C20"/>
<stop offset="1" stop-color="#0A0D0F"/>
</linearGradient>
<linearGradient id="paint8_linear_8269_61908" x1="211.026" y1="89.3067" x2="211.026" y2="91.9173" gradientUnits="userSpaceOnUse">
<stop stop-color="#3B3D3F" stop-opacity="0.5"/>
<stop offset="1" stop-color="#3B3D3F" stop-opacity="0.89"/>
</linearGradient>
<linearGradient id="paint9_linear_8269_61908" x1="183.333" y1="211.383" x2="183.333" y2="314" gradientUnits="userSpaceOnUse">
<stop stop-color="#161C20" stop-opacity="0"/>
<stop offset="1" stop-color="#0E1114"/>
</linearGradient>
<linearGradient id="paint10_linear_8269_61908" x1="114.388" y1="89.8053" x2="114.388" y2="137.629" gradientUnits="userSpaceOnUse">
<stop stop-color="#3B3D3F" stop-opacity="0.5"/>
<stop offset="1" stop-color="#3B3D3F" stop-opacity="0.89"/>
</linearGradient>
<linearGradient id="paint11_linear_8269_61908" x1="114.1" y1="46.4034" x2="114.134" y2="132.518" gradientUnits="userSpaceOnUse">
<stop stop-color="#1E1E1F" stop-opacity="0"/>
<stop offset="1" stop-color="#1E1E1F" stop-opacity="0.8"/>
</linearGradient>
<linearGradient id="paint12_linear_8269_61908" x1="113.443" y1="49.8092" x2="113.443" y2="129.353" gradientUnits="userSpaceOnUse">
<stop stop-color="#3B3D3F" stop-opacity="0.5"/>
<stop offset="1" stop-color="#3B3D3F" stop-opacity="0.8"/>
</linearGradient>
<linearGradient id="paint13_linear_8269_61908" x1="113.869" y1="52.6527" x2="113.898" y2="126.368" gradientUnits="userSpaceOnUse">
<stop stop-color="#1E1E1F" stop-opacity="0"/>
<stop offset="1" stop-color="#1E1E1F" stop-opacity="0.8"/>
</linearGradient>
<linearGradient id="paint14_linear_8269_61908" x1="114.092" y1="55.8092" x2="114.092" y2="122.991" gradientUnits="userSpaceOnUse">
<stop stop-color="#3B3D3F" stop-opacity="0.2"/>
<stop offset="1" stop-color="#3B3D3F" stop-opacity="0.4"/>
</linearGradient>
<linearGradient id="paint15_linear_8269_61908" x1="113.906" y1="148.29" x2="113.906" y2="176.61" gradientUnits="userSpaceOnUse">
<stop stop-color="#161C20"/>
<stop offset="1" stop-color="#0A0D0F"/>
</linearGradient>
<linearGradient id="paint16_linear_8269_61908" x1="113.906" y1="162.44" x2="113.906" y2="176.61" gradientUnits="userSpaceOnUse">
<stop stop-color="#3B3D3F" stop-opacity="0.5"/>
<stop offset="1" stop-color="#3B3D3F" stop-opacity="0.89"/>
</linearGradient>
<linearGradient id="paint17_linear_8269_61908" x1="182.698" y1="24.39" x2="182.698" y2="53.3" gradientUnits="userSpaceOnUse">
<stop stop-color="#161C20"/>
<stop offset="1" stop-color="#0A0D0F"/>
</linearGradient>
<linearGradient id="paint18_linear_8269_61908" x1="182.698" y1="38.8353" x2="182.698" y2="53.3" gradientUnits="userSpaceOnUse">
<stop stop-color="#3B3D3F" stop-opacity="0.5"/>
<stop offset="1" stop-color="#3B3D3F" stop-opacity="0.89"/>
</linearGradient>
<linearGradient id="paint19_linear_8269_61908" x1="41.159" y1="24.98" x2="41.159" y2="53.3" gradientUnits="userSpaceOnUse">
<stop stop-color="#161C20"/>
<stop offset="1" stop-color="#0A0D0F"/>
</linearGradient>
<linearGradient id="paint20_linear_8269_61908" x1="41.159" y1="39.1305" x2="41.159" y2="53.3" gradientUnits="userSpaceOnUse">
<stop stop-color="#3B3D3F" stop-opacity="0.5"/>
<stop offset="1" stop-color="#3B3D3F" stop-opacity="0.89"/>
</linearGradient>
<clipPath id="clip0_8269_61908">
<rect width="15.34" height="11.8" fill="white" transform="translate(175.028 35.0099)"/>
</clipPath>
</defs>
</svg>
