<svg width="387" height="326" viewBox="0 0 387 326" fill="none" xmlns="http://www.w3.org/2000/svg">
<g opacity="0.1">
<path d="M-230.667 11.0312H617.333" stroke="#3B3D3F" stroke-linecap="square" stroke-linejoin="round"/>
<path d="M-230.667 27.0312H617.333" stroke="#3B3D3F" stroke-linecap="square" stroke-linejoin="round"/>
<path d="M-230.667 43.0312H617.333" stroke="#3B3D3F" stroke-linecap="square" stroke-linejoin="round"/>
<path d="M-230.667 59.0312H617.333" stroke="#3B3D3F" stroke-linecap="square" stroke-linejoin="round"/>
<path d="M-230.667 75.0312H617.333" stroke="#3B3D3F" stroke-linecap="square" stroke-linejoin="round"/>
<path d="M-230.667 91.0312H617.333" stroke="#3B3D3F" stroke-linecap="square" stroke-linejoin="round"/>
<path d="M-230.667 107.031H617.333" stroke="#3B3D3F" stroke-linecap="square" stroke-linejoin="round"/>
<path d="M-230.667 123.031H617.333" stroke="#3B3D3F" stroke-linecap="square" stroke-linejoin="round"/>
<path d="M-230.667 139.031H617.333" stroke="#3B3D3F" stroke-linecap="square" stroke-linejoin="round"/>
<path d="M-230.667 155.031H617.333" stroke="#3B3D3F" stroke-linecap="square" stroke-linejoin="round"/>
<path d="M-230.667 171.031H617.333" stroke="#3B3D3F" stroke-linecap="square" stroke-linejoin="round"/>
<path d="M-230.667 187.031H617.333" stroke="#3B3D3F" stroke-linecap="square" stroke-linejoin="round"/>
<path d="M-230.667 203.031H617.333" stroke="#3B3D3F" stroke-linecap="square" stroke-linejoin="round"/>
<path d="M-230.667 219.031H617.333" stroke="#3B3D3F" stroke-linecap="square" stroke-linejoin="round"/>
<path d="M-230.667 235.031H617.333" stroke="#3B3D3F" stroke-linecap="square" stroke-linejoin="round"/>
<path d="M-230.667 251.031H617.333" stroke="#3B3D3F" stroke-linecap="square" stroke-linejoin="round"/>
<path d="M-230.667 267.031H617.333" stroke="#3B3D3F" stroke-linecap="square" stroke-linejoin="round"/>
<path d="M-230.667 283.031H617.333" stroke="#3B3D3F" stroke-linecap="square" stroke-linejoin="round"/>
<path d="M9.33301 -4.96875L9.33302 302.031" stroke="#3B3D3F" stroke-linecap="square" stroke-linejoin="round"/>
<path d="M25.333 -4.96875L25.333 302.031" stroke="#3B3D3F" stroke-linecap="square" stroke-linejoin="round"/>
<path d="M41.333 -4.96875L41.333 302.031" stroke="#3B3D3F" stroke-linecap="square" stroke-linejoin="round"/>
<path d="M57.333 -4.96875L57.333 302.031" stroke="#3B3D3F" stroke-linecap="square" stroke-linejoin="round"/>
<path d="M73.333 -4.96875L73.333 302.031" stroke="#3B3D3F" stroke-linecap="square" stroke-linejoin="round"/>
<path d="M89.333 -4.96875L89.333 302.031" stroke="#3B3D3F" stroke-linecap="square" stroke-linejoin="round"/>
<path d="M105.333 -4.96875L105.333 302.031" stroke="#3B3D3F" stroke-linecap="square" stroke-linejoin="round"/>
<path d="M121.333 -4.96875L121.333 302.031" stroke="#3B3D3F" stroke-linecap="square" stroke-linejoin="round"/>
<path d="M137.333 -4.96875L137.333 302.031" stroke="#3B3D3F" stroke-linecap="square" stroke-linejoin="round"/>
<path d="M153.333 -4.96875L153.333 302.031" stroke="#3B3D3F" stroke-linecap="square" stroke-linejoin="round"/>
<path d="M169.333 -4.96875L169.333 302.031" stroke="#3B3D3F" stroke-linecap="square" stroke-linejoin="round"/>
<path d="M185.333 -4.96875L185.333 302.031" stroke="#3B3D3F" stroke-linecap="square" stroke-linejoin="round"/>
<path d="M201.333 -4.96875L201.333 302.031" stroke="#3B3D3F" stroke-linecap="square" stroke-linejoin="round"/>
<path d="M217.333 -4.96875L217.333 302.031" stroke="#3B3D3F" stroke-linecap="square" stroke-linejoin="round"/>
<path d="M233.333 -4.96875L233.333 302.031" stroke="#3B3D3F" stroke-linecap="square" stroke-linejoin="round"/>
<path d="M249.333 -4.96875L249.333 302.031" stroke="#3B3D3F" stroke-linecap="square" stroke-linejoin="round"/>
<path d="M265.333 -4.96875L265.333 302.031" stroke="#3B3D3F" stroke-linecap="square" stroke-linejoin="round"/>
<path d="M281.333 -4.96875L281.333 302.031" stroke="#3B3D3F" stroke-linecap="square" stroke-linejoin="round"/>
<path d="M297.333 -4.96875L297.333 302.031" stroke="#3B3D3F" stroke-linecap="square" stroke-linejoin="round"/>
<path d="M313.333 -4.96875L313.333 302.031" stroke="#3B3D3F" stroke-linecap="square" stroke-linejoin="round"/>
<path d="M329.333 -4.96875L329.333 302.031" stroke="#3B3D3F" stroke-linecap="square" stroke-linejoin="round"/>
<path d="M345.333 -4.96875L345.333 302.031" stroke="#3B3D3F" stroke-linecap="square" stroke-linejoin="round"/>
<path d="M361.333 -4.96875L361.333 302.031" stroke="#3B3D3F" stroke-linecap="square" stroke-linejoin="round"/>
<path d="M377.333 -4.96875L377.333 302.031" stroke="#3B3D3F" stroke-linecap="square" stroke-linejoin="round"/>
</g>
<path d="M266.001 155L386.001 155" stroke="#3B3D3F" stroke-dasharray="1 4"/>
<path d="M-14.999 155H121.001" stroke="#3B3D3F" stroke-dasharray="1 4"/>
<path d="M33.001 159V195C33.001 199.418 36.5827 203 41.001 203H73.001" stroke="#3B3D3F" stroke-dasharray="1 4"/>
<path d="M363.001 158V195C363.001 199.418 359.419 203 355.001 203H315.001" stroke="#3B3D3F" stroke-dasharray="1 4"/>
<path d="M130.001 155H81.001C76.5827 155 73.001 158.582 73.001 163V271C73.001 275.418 76.5827 279 81.001 279H171.001" stroke="#3B3D3F" stroke-dasharray="1 4"/>
<path d="M193.337 15.9297L193.337 73.8125" stroke="url(#paint0_linear_8233_45766)" stroke-dasharray="1 4"/>
<path d="M257.14 155H306.333C310.751 155 314.333 158.582 314.333 163V271C314.333 275.418 310.751 279 306.333 279H216.001" stroke="#3B3D3F" stroke-dasharray="1 4"/>
<path d="M193.333 235L193.333 287" stroke="#3B3D3F" stroke-opacity="0.46" stroke-linecap="round"/>
<path d="M257.333 155.031H306.333C310.751 155.031 314.333 158.613 314.333 163.031V199.031" stroke="#25292C" stroke-linecap="round"/>
<path d="M130.333 155.031H81.001C76.5827 155.031 73.001 158.613 73.001 163.031V199.031" stroke="#25292C" stroke-linecap="round"/>
<path d="M245.333 155.031H306.333C310.751 155.031 314.333 151.45 314.333 147.031V81.0312" stroke="#25292C" stroke-linecap="round"/>
<rect x="69.437" y="198.436" width="7.97175" height="7.97175" rx="3.98587" fill="url(#paint1_linear_8233_45766)" stroke="url(#paint2_linear_8233_45766)" stroke-width="0.872003"/>
<rect x="310.437" y="199.436" width="7.97175" height="7.97175" rx="3.98587" fill="url(#paint3_linear_8233_45766)" stroke="url(#paint4_linear_8233_45766)" stroke-width="0.872003"/>
<rect x="29.3471" y="150.545" width="7.97175" height="7.97175" rx="3.98587" fill="url(#paint5_linear_8233_45766)" stroke="url(#paint6_linear_8233_45766)" stroke-width="0.872003"/>
<rect x="357.347" y="151.045" width="7.97175" height="7.97175" rx="3.98587" fill="url(#paint7_linear_8233_45766)" stroke="url(#paint8_linear_8233_45766)" stroke-width="0.872003"/>
<path d="M141.333 155H81.333C76.9147 155 73.333 151.418 73.333 147V83.2266" stroke="#25292C" stroke-linecap="round"/>
<rect x="-6.66699" y="223.383" width="400" height="102.617" fill="url(#paint9_linear_8233_45766)"/>
<g filter="url(#filter0_f_8233_45766)">
<path d="M188.108 82.6266C191.342 80.7595 195.326 80.7595 198.56 82.6266L258.258 117.093C261.492 118.96 263.484 122.411 263.484 126.145V195.078C263.484 198.812 261.492 202.263 258.258 204.13L198.56 238.597C195.326 240.464 191.342 240.464 188.108 238.597L128.41 204.13C125.176 202.263 123.184 198.812 123.184 195.078V126.145C123.184 122.411 125.176 118.96 128.41 117.093L188.108 82.6266Z" fill="#0A0D0F"/>
</g>
<path d="M185.234 79.6632C188.311 77.8869 189.751 77.0625 191.27 76.7396C192.631 76.4503 194.038 76.4503 195.399 76.7396C196.918 77.0625 198.358 77.8869 201.435 79.6632L254.862 110.509C257.938 112.286 259.372 113.12 260.411 114.275C261.343 115.309 262.046 116.527 262.476 117.85C262.956 119.327 262.962 120.987 262.962 124.539V186.231C262.962 189.784 262.956 191.443 262.476 192.92C262.046 194.244 261.343 195.462 260.411 196.496C259.372 197.65 257.938 198.485 254.862 200.261L201.435 231.107C198.358 232.884 196.918 233.708 195.399 234.031C194.038 234.32 192.631 234.32 191.27 234.031C189.751 233.708 188.311 232.884 185.234 231.107L131.807 200.261C128.731 198.485 127.297 197.65 126.258 196.496C125.326 195.462 124.623 194.244 124.193 192.92C123.713 191.443 123.707 189.784 123.707 186.231V124.539C123.707 120.987 123.713 119.327 124.193 117.85C124.623 116.527 125.326 115.309 126.258 114.275C127.297 113.12 128.731 112.286 131.807 110.509L185.234 79.6632Z" fill="#0A0D0F" stroke="url(#paint10_linear_8233_45766)" stroke-width="1.04519"/>
<g filter="url(#filter1_i_8233_45766)">
<path d="M191.662 83.7105C192.271 83.3587 192.575 83.1829 192.899 83.114C193.186 83.0531 193.482 83.0531 193.768 83.114C194.092 83.1829 194.397 83.3587 195.006 83.7105L254.566 118.097C255.175 118.448 255.479 118.624 255.701 118.87C255.897 119.088 256.045 119.345 256.136 119.623C256.238 119.938 256.238 120.29 256.238 120.993V189.766C256.238 190.469 256.238 190.821 256.136 191.136C256.045 191.414 255.897 191.671 255.701 191.889C255.479 192.135 255.175 192.311 254.566 192.662L195.006 227.049C194.397 227.4 194.092 227.576 193.768 227.645C193.482 227.706 193.186 227.706 192.899 227.645C192.575 227.576 192.271 227.4 191.662 227.049L132.102 192.662C131.493 192.311 131.188 192.135 130.967 191.889C130.771 191.671 130.623 191.414 130.532 191.136C130.43 190.821 130.43 190.469 130.43 189.766V120.993C130.43 120.29 130.43 119.938 130.532 119.623C130.623 119.345 130.771 119.088 130.967 118.87C131.188 118.624 131.493 118.448 132.102 118.097L191.662 83.7105Z" fill="#060809"/>
</g>
<path d="M193.008 83.6252L192.899 83.114L193.008 83.6252C193.223 83.5795 193.445 83.5795 193.66 83.6252C193.883 83.6728 194.105 83.7937 194.745 84.163L195.006 83.7107L194.745 84.163L254.304 118.549C254.944 118.919 255.16 119.05 255.313 119.22C255.46 119.383 255.571 119.576 255.639 119.785C255.709 120.002 255.715 120.255 255.715 120.993V189.766C255.715 190.504 255.709 190.757 255.639 190.974C255.571 191.183 255.46 191.376 255.313 191.539C255.16 191.709 254.944 191.84 254.304 192.21L194.745 226.596C194.105 226.965 193.883 227.086 193.66 227.134C193.445 227.179 193.223 227.179 193.008 227.134C192.784 227.086 192.563 226.965 191.923 226.596L132.363 192.21C131.724 191.84 131.508 191.709 131.355 191.539C131.208 191.376 131.097 191.183 131.029 190.974C130.958 190.757 130.952 190.504 130.952 189.766V120.993C130.952 120.255 130.958 120.002 131.029 119.785C131.097 119.576 131.208 119.383 131.355 119.22C131.508 119.05 131.724 118.919 132.363 118.549L191.923 84.163C192.563 83.7937 192.784 83.6728 193.008 83.6252Z" stroke="url(#paint11_linear_8233_45766)" stroke-width="1.04519"/>
<path d="M135.493 189.277C135.715 189.523 136.019 189.699 136.628 190.051L191.662 221.825C192.271 222.177 192.576 222.353 192.9 222.421C193.186 222.482 193.482 222.482 193.769 222.421L135.493 189.277ZM135.493 189.277C135.297 189.06 135.149 188.803 135.058 188.525M135.493 189.277L135.058 188.525M135.058 188.525C134.956 188.21 134.956 187.858 134.956 187.155M135.058 188.525L134.956 187.155M134.956 187.155V123.607M134.956 187.155V123.607M134.956 123.607C134.956 122.903 134.956 122.551 135.058 122.237M134.956 123.607L135.058 122.237M135.058 122.237C135.149 121.958 135.297 121.701 135.493 121.484L135.058 122.237ZM191.923 89.3887C192.563 89.0193 192.785 88.8984 193.008 88.8509C193.223 88.8052 193.445 88.8052 193.66 88.8509C193.884 88.8984 194.106 89.0193 194.745 89.3887L249.779 121.163C250.419 121.532 250.634 121.663 250.787 121.833C250.934 121.997 251.046 122.189 251.113 122.398C251.184 122.615 251.19 122.868 251.19 123.607V187.155C251.19 187.893 251.184 188.146 251.113 188.363C251.046 188.572 250.934 188.764 250.787 188.928C250.634 189.098 250.419 189.229 249.779 189.598L194.745 221.372C194.106 221.742 193.884 221.863 193.66 221.91C193.445 221.956 193.223 221.956 193.008 221.91C192.785 221.863 192.563 221.742 191.923 221.372L136.89 189.598C136.25 189.229 136.034 189.098 135.881 188.928L135.493 189.277L135.881 188.928C135.734 188.764 135.623 188.572 135.555 188.363C135.485 188.146 135.479 187.893 135.479 187.155V123.607C135.479 122.868 135.485 122.615 135.555 122.398C135.623 122.189 135.734 121.997 135.881 121.833C136.034 121.663 136.25 121.532 136.89 121.163L191.923 89.3887Z" fill="#0A0D0F" stroke="url(#paint12_linear_8233_45766)" stroke-width="1.04519"/>
<g filter="url(#filter2_i_8233_45766)">
<path d="M191.634 94.2087C192.253 93.8435 192.562 93.6609 192.892 93.5895C193.183 93.5263 193.485 93.5263 193.777 93.5895C194.106 93.6609 194.416 93.8435 195.034 94.2087L244.355 123.322C244.954 123.676 245.254 123.853 245.472 124.098C245.665 124.315 245.81 124.57 245.899 124.846C245.999 125.158 245.999 125.507 245.999 126.203V184.559C245.999 185.255 245.999 185.603 245.899 185.916C245.81 186.192 245.665 186.447 245.472 186.664C245.254 186.909 244.954 187.086 244.355 187.44L195.034 216.553C194.416 216.918 194.106 217.101 193.777 217.172C193.485 217.236 193.183 217.236 192.892 217.172C192.562 217.101 192.253 216.918 191.634 216.553L142.313 187.44C141.714 187.086 141.414 186.909 141.196 186.664C141.004 186.447 140.858 186.192 140.769 185.916C140.669 185.603 140.669 185.255 140.669 184.559V126.203C140.669 125.507 140.669 125.158 140.769 124.846C140.858 124.57 141.004 124.315 141.196 124.098C141.414 123.853 141.714 123.676 142.313 123.322L191.634 94.2087Z" fill="#060809"/>
</g>
<path d="M191.9 94.6587C192.549 94.2752 192.775 94.1495 193.002 94.1002C193.221 94.0529 193.447 94.0529 193.666 94.1002C193.894 94.1495 194.119 94.2752 194.769 94.6587L244.089 123.772C244.719 124.144 244.931 124.276 245.081 124.445L245.472 124.098L245.081 124.445C245.226 124.608 245.335 124.799 245.402 125.006C245.471 125.222 245.477 125.472 245.477 126.203V184.559C245.477 185.29 245.471 185.54 245.402 185.756C245.335 185.963 245.226 186.154 245.081 186.317C244.931 186.486 244.719 186.618 244.089 186.99L194.769 216.103C194.119 216.487 193.894 216.612 193.666 216.662C193.447 216.709 193.221 216.709 193.002 216.662C192.775 216.612 192.549 216.487 191.9 216.103L142.579 186.99C141.95 186.618 141.738 186.486 141.587 186.317C141.443 186.154 141.333 185.963 141.267 185.756C141.197 185.54 141.191 185.29 141.191 184.559V126.203C141.191 125.472 141.197 125.222 141.267 125.006C141.333 124.799 141.443 124.608 141.587 124.445C141.738 124.276 141.95 124.144 142.579 123.772L191.9 94.6587L191.634 94.2087L191.9 94.6587Z" stroke="url(#paint13_linear_8233_45766)" stroke-width="1.04519"/>
<g filter="url(#filter3_i_8233_45766)">
<path d="M191.662 94.1753C192.271 93.8236 192.576 93.6477 192.9 93.5789C193.186 93.518 193.482 93.518 193.769 93.5789C194.093 93.6477 194.397 93.8236 195.007 94.1753L245.51 123.332C246.119 123.684 246.424 123.86 246.645 124.106C246.841 124.324 246.989 124.58 247.08 124.859C247.182 125.174 247.182 125.525 247.182 126.229V184.543C247.182 185.246 247.182 185.598 247.08 185.913C246.989 186.191 246.841 186.448 246.645 186.665C246.424 186.912 246.119 187.087 245.51 187.439L195.007 216.596C194.397 216.948 194.093 217.124 193.769 217.193C193.482 217.253 193.186 217.253 192.9 217.193C192.576 217.124 192.271 216.948 191.662 216.596L141.159 187.439C140.549 187.087 140.245 186.912 140.023 186.665C139.827 186.448 139.679 186.191 139.589 185.913C139.486 185.598 139.486 185.246 139.486 184.543V126.229C139.486 125.525 139.486 125.174 139.589 124.859C139.679 124.58 139.827 124.324 140.023 124.106C140.245 123.86 140.549 123.684 141.159 123.332L191.662 94.1753Z" fill="#060809"/>
</g>
<path d="M191.923 94.6279C192.563 94.2585 192.785 94.1376 193.008 94.0901C193.223 94.0444 193.445 94.0444 193.66 94.0901C193.884 94.1376 194.106 94.2585 194.745 94.6279L245.249 123.785C245.888 124.154 246.104 124.286 246.257 124.456C246.404 124.619 246.515 124.811 246.583 125.02C246.654 125.238 246.66 125.49 246.66 126.229V184.543C246.66 185.281 246.654 185.534 246.583 185.751C246.515 185.96 246.404 186.153 246.257 186.316C246.104 186.486 245.888 186.617 245.249 186.987L194.745 216.144C194.106 216.513 193.884 216.634 193.66 216.681C193.445 216.727 193.223 216.727 193.008 216.681C192.785 216.634 192.563 216.513 191.923 216.144L141.42 186.987C140.78 186.617 140.565 186.486 140.412 186.316C140.265 186.153 140.154 185.96 140.086 185.751C140.015 185.534 140.009 185.281 140.009 184.543V126.229C140.009 125.49 140.015 125.238 140.086 125.02C140.154 124.811 140.265 124.619 140.412 124.456C140.565 124.286 140.78 124.154 141.42 123.785L191.923 94.6279Z" stroke="url(#paint14_linear_8233_45766)" stroke-width="1.04519"/>
<path d="M191.923 99.873C192.563 99.5036 192.785 99.3827 193.008 99.3352C193.223 99.2895 193.445 99.2895 193.66 99.3352C193.884 99.3827 194.105 99.5036 194.745 99.873L240.708 126.409C241.348 126.778 241.564 126.91 241.717 127.08C241.864 127.243 241.975 127.435 242.043 127.644C242.113 127.862 242.12 128.114 242.12 128.853V181.924C242.12 182.663 242.113 182.915 242.043 183.133C241.975 183.342 241.864 183.534 241.717 183.697C241.564 183.867 241.348 183.999 240.708 184.368L194.745 210.904C194.105 211.273 193.884 211.394 193.66 211.442C193.445 211.488 193.223 211.488 193.008 211.442C192.785 211.394 192.563 211.273 191.923 210.904L145.96 184.368C145.32 183.999 145.105 183.867 144.952 183.697L144.563 184.047L144.952 183.697C144.805 183.534 144.694 183.342 144.626 183.133C144.555 182.915 144.549 182.663 144.549 181.924V128.853C144.549 128.114 144.555 127.862 144.626 127.644C144.694 127.435 144.805 127.243 144.952 127.08C145.105 126.91 145.32 126.778 145.96 126.409L191.923 99.873Z" fill="#0A0D0F" stroke="url(#paint15_linear_8233_45766)" stroke-width="1.04519"/>
<path fill-rule="evenodd" clip-rule="evenodd" d="M175.788 135.53C174.839 135.53 174.069 136.3 174.069 137.249V144.76C174.069 145.709 174.839 146.479 175.788 146.479H210.876C211.826 146.479 212.595 145.709 212.595 144.76V137.249C212.595 136.3 211.826 135.53 210.876 135.53H175.788ZM208.655 141.006C208.655 142.238 207.656 143.237 206.424 143.237C205.191 143.237 204.193 142.238 204.193 141.006C204.193 139.774 205.191 138.775 206.424 138.775C207.656 138.775 208.655 139.774 208.655 141.006ZM177.081 141.004C177.081 140.529 177.466 140.145 177.94 140.145H188.016C188.491 140.145 188.876 140.529 188.876 141.004C188.876 141.479 188.491 141.864 188.016 141.864H177.94C177.466 141.864 177.081 141.479 177.081 141.004Z" fill="#1C76FD"/>
<path fill-rule="evenodd" clip-rule="evenodd" d="M175.788 149.917C174.839 149.917 174.069 150.687 174.069 151.636V159.147C174.069 160.096 174.839 160.866 175.788 160.866H210.876C211.826 160.866 212.595 160.096 212.595 159.147V151.636C212.595 150.687 211.826 149.917 210.876 149.917H175.788ZM208.655 155.392C208.655 156.624 207.656 157.623 206.424 157.623C205.192 157.623 204.193 156.624 204.193 155.392C204.193 154.16 205.192 153.161 206.424 153.161C207.656 153.161 208.655 154.16 208.655 155.392ZM177.081 155.391C177.081 154.916 177.466 154.531 177.94 154.531H188.016C188.491 154.531 188.876 154.916 188.876 155.391C188.876 155.865 188.491 156.25 188.016 156.25H177.94C177.466 156.25 177.081 155.865 177.081 155.391Z" fill="#1C76FD"/>
<path fill-rule="evenodd" clip-rule="evenodd" d="M175.788 164.304C174.839 164.304 174.069 165.074 174.069 166.023V173.534C174.069 174.483 174.839 175.253 175.788 175.253H210.876C211.826 175.253 212.595 174.483 212.595 173.534V166.023C212.595 165.074 211.826 164.304 210.876 164.304H175.788ZM208.655 169.78C208.655 171.012 207.656 172.011 206.424 172.011C205.192 172.011 204.193 171.012 204.193 169.78C204.193 168.548 205.192 167.549 206.424 167.549C207.656 167.549 208.655 168.548 208.655 169.78ZM177.081 169.778C177.081 169.304 177.466 168.919 177.94 168.919H188.016C188.491 168.919 188.876 169.304 188.876 169.778C188.876 170.253 188.491 170.638 188.016 170.638H177.94C177.466 170.638 177.081 170.253 177.081 169.778Z" fill="#1C76FD"/>
<rect x="169.832" y="255.5" width="47" height="47" rx="11.5" fill="url(#paint16_linear_8233_45766)"/>
<rect x="169.832" y="255.5" width="47" height="47" rx="11.5" stroke="url(#paint17_linear_8233_45766)"/>
<path d="M203.332 267H183.332C181.675 267 180.332 268.343 180.332 270V284C180.332 285.657 181.675 287 183.332 287H203.332C204.989 287 206.332 285.657 206.332 284V270C206.332 268.343 204.989 267 203.332 267Z" fill="white"/>
<path d="M198.075 273.214L193.332 275.959L188.589 273.214C188.532 273.181 188.485 273.134 188.452 273.077C188.419 273.02 188.402 272.955 188.402 272.889C188.402 272.823 188.419 272.758 188.452 272.701C188.485 272.644 188.532 272.596 188.589 272.563L192.747 270.157C192.925 270.054 193.127 270 193.332 270C193.537 270 193.739 270.054 193.917 270.157L198.075 272.563C198.132 272.596 198.179 272.644 198.212 272.701C198.245 272.758 198.262 272.823 198.262 272.889C198.262 272.955 198.245 273.02 198.212 273.077C198.179 273.134 198.132 273.181 198.075 273.214ZM187.332 274.874V279.529C187.332 279.742 187.387 279.952 187.492 280.137C187.598 280.323 187.75 280.477 187.934 280.585L192.02 282.95C192.077 282.983 192.141 283 192.207 283C192.273 283 192.337 282.983 192.394 282.95C192.451 282.917 192.499 282.869 192.532 282.812C192.565 282.755 192.582 282.691 192.582 282.625V277.261L187.895 274.548C187.838 274.515 187.773 274.498 187.707 274.498C187.641 274.498 187.577 274.515 187.52 274.548C187.463 274.581 187.415 274.629 187.382 274.686C187.349 274.743 187.332 274.808 187.332 274.874ZM199.332 279.529V274.874C199.332 274.808 199.315 274.743 199.282 274.686C199.249 274.629 199.201 274.581 199.144 274.548C199.087 274.515 199.023 274.498 198.957 274.498C198.891 274.498 198.827 274.515 198.77 274.548L194.082 277.261V282.625C194.082 282.691 194.099 282.755 194.132 282.812C194.165 282.869 194.213 282.917 194.27 282.95C194.327 282.983 194.391 283 194.457 283C194.523 283 194.588 282.983 194.645 282.95L198.729 280.585C198.913 280.477 199.065 280.323 199.171 280.137C199.277 279.952 199.332 279.742 199.332 279.529Z" fill="#0A0D0F"/>
<path d="M197.332 289H189.332C189.067 289 188.812 289.105 188.625 289.293C188.437 289.48 188.332 289.735 188.332 290C188.332 290.265 188.437 290.52 188.625 290.707C188.812 290.895 189.067 291 189.332 291H197.332C197.597 291 197.852 290.895 198.039 290.707C198.227 290.52 198.332 290.265 198.332 290C198.332 289.735 198.227 289.48 198.039 289.293C197.852 289.105 197.597 289 197.332 289Z" fill="white"/>
<path d="M286.863 92.0808L286.851 92.0741L286.838 92.0683C280.894 89.3911 276.756 83.406 276.756 76.4527C276.756 67.0015 284.401 59.3414 293.829 59.3414C295.309 59.3414 296.669 58.428 297.217 57.0501C299.923 50.2441 306.558 45.436 314.311 45.436C324.469 45.436 332.706 53.689 332.706 63.8716C332.706 65.9565 334.264 67.9495 336.456 67.9495H337.106C344.162 67.9495 349.884 73.6826 349.884 80.7568C349.884 87.8309 344.162 93.564 337.106 93.564H292.838C290.679 93.564 288.646 93.0276 286.863 92.0808Z" fill="url(#paint18_linear_8233_45766)" stroke="url(#paint19_linear_8233_45766)" stroke-width="0.872003"/>
<g clip-path="url(#clip0_8233_45766)">
<path d="M317.402 68.5713H317.411L317.494 68.4913L319.611 66.4556L319.685 66.3847L319.697 66.2832L319.801 65.4189L319.819 65.2659L319.702 65.1662C318.452 64.1055 316.943 63.3696 315.317 63.0267C313.691 62.6838 312.001 62.7452 310.406 63.205C308.811 63.6649 307.364 64.5083 306.201 65.6569C305.037 66.8055 304.197 68.2213 303.759 69.7711L303.602 70.3276L304.14 70.1156C304.319 70.0451 304.518 70.0336 304.705 70.0831L304.763 70.0987L304.823 70.0892L309.057 69.4177L309.186 69.3974L309.255 69.2874L309.255 69.2873L309.255 69.2873L309.255 69.2872L309.255 69.2872L309.255 69.2872L309.256 69.2854L309.262 69.2769C309.267 69.2692 309.274 69.2579 309.284 69.2442C309.303 69.2162 309.329 69.1807 309.356 69.1472C309.366 69.1345 309.376 69.1234 309.384 69.1138L309.439 69.1244L309.547 69.0103C310.404 68.1053 311.591 67.5475 312.865 67.4543C314.139 67.3611 315.401 67.74 316.391 68.5109L316.552 68.3038V68.5713H316.567H317.295H317.402Z" fill="white" stroke="#0A0D0F" stroke-width="0.573214"/>
<path d="M319.74 65.1755L319.543 65.007L319.356 65.187L316.384 68.0441L316.147 68.2725L316.406 68.4761C316.991 68.936 317.459 69.5171 317.776 70.1748C318.092 70.8325 318.249 71.5501 318.235 72.2736L318.235 72.2736V72.2793V72.7864V73.073H318.522C318.833 73.073 319.141 73.132 319.428 73.2462C319.715 73.3605 319.975 73.5277 320.193 73.7378C320.411 73.9478 320.584 74.1966 320.702 74.4696C320.819 74.7425 320.88 75.0346 320.88 75.3293C320.88 75.624 320.819 75.9161 320.702 76.189C320.584 76.4619 320.411 76.7107 320.193 76.9207C319.975 77.1308 319.715 77.298 319.428 77.4123C319.141 77.5266 318.833 77.5855 318.522 77.5855H313.233H313.116L313.032 77.6669L312.505 78.1812L312.418 78.2656V78.3864V81.4364V81.5584L312.506 81.643L313.034 82.1502L313.117 82.2302H313.233H318.521C320.056 82.2414 321.556 81.7774 322.798 80.9051C324.04 80.0324 324.959 78.797 325.417 77.3801C325.875 75.963 325.846 74.4415 325.335 73.0414C324.837 71.6746 323.905 70.4961 322.675 69.6698C322.163 67.9323 321.144 66.3729 319.74 65.1755Z" fill="white" stroke="#0A0D0F" stroke-width="0.573214"/>
<path d="M313.226 82.1979H313.513V81.9113V77.8399V77.5533H313.226H307.937C307.599 77.5532 307.266 77.4834 306.96 77.3489L306.864 77.3066L306.763 77.3367L306.02 77.5581L305.954 77.5778L305.904 77.6255L303.772 79.6612L303.713 79.7175L303.693 79.7964L303.507 80.5106L303.458 80.6998L303.616 80.8147C304.861 81.719 306.379 82.2043 307.937 82.1979H313.226Z" fill="white" stroke="#0A0D0F" stroke-width="0.573214"/>
<path d="M307.934 68.4253L307.934 68.4254C306.444 68.4339 304.992 68.8897 303.783 69.7306C302.573 70.5716 301.665 71.7563 301.187 73.1205C300.709 74.4849 300.686 75.9592 301.122 77.3367C301.557 78.7141 302.429 79.9243 303.612 80.7995L303.807 80.9435L303.982 80.7757L307.05 77.8257L307.36 77.5276L306.965 77.3562C306.617 77.2048 306.313 76.9749 306.079 76.687C305.845 76.3993 305.687 76.0622 305.62 75.7049C305.552 75.3476 305.575 74.9799 305.688 74.6329C305.8 74.2858 305.999 73.9691 306.268 73.7103C306.538 73.4515 306.869 73.2585 307.234 73.1488C307.6 73.0392 307.988 73.0164 308.365 73.0825C308.742 73.1487 309.096 73.3017 309.396 73.5275C309.697 73.7533 309.934 74.0449 310.09 74.3767L310.26 74.7384L310.548 74.4614L313.616 71.5114L313.804 71.3306L313.642 71.1264C312.97 70.282 312.105 69.5994 311.115 69.1312C310.125 68.663 309.037 68.4216 307.934 68.4253Z" fill="white" stroke="#0A0D0F" stroke-width="0.573214"/>
</g>
<rect x="49.8589" y="46.436" width="47.128" height="47.128" rx="7.564" fill="url(#paint20_linear_8233_45766)"/>
<rect x="49.8589" y="46.436" width="47.128" height="47.128" rx="7.564" stroke="url(#paint21_linear_8233_45766)" stroke-width="0.872003"/>
<path d="M72.4313 67.8007L72.6043 64.8759C72.3956 64.8998 72.1882 64.934 71.9831 64.9783C70.8477 65.225 69.8626 65.7607 69.0924 66.4854L71.5984 68.1856L71.6034 68.1832C71.6883 68.2425 71.7927 68.2773 71.9059 68.2773C72.1822 68.2773 72.4072 68.0684 72.4188 67.8067L72.4313 67.8007Z" fill="white"/>
<path d="M77.5554 66.4866C76.6161 65.6063 75.3902 65.0319 74.0646 64.8759L74.2377 67.796L74.2402 67.7971C74.2449 67.9011 74.2841 68.0009 74.3522 68.0819C74.5245 68.2886 74.8359 68.3269 75.0569 68.1725L75.0656 68.176L77.5554 66.4866Z" fill="white"/>
<path d="M70.4718 69.5366L68.1835 67.578C67.5045 68.6367 67.1827 69.9066 67.332 71.2129L70.2651 70.4028L70.2676 70.3932C70.3728 70.3657 70.4661 70.3069 70.534 70.2253C70.7063 70.0185 70.6758 69.7204 70.4692 69.5485L70.4718 69.5366Z" fill="white"/>
<path d="M79.2187 69.3341C79.0654 68.6955 78.808 68.1065 78.468 67.5791L76.1923 69.5283L76.1935 69.5342C76.1115 69.6024 76.0543 69.6938 76.0304 69.7952C75.9689 70.0529 76.1312 70.3099 76.3952 70.3789L76.3977 70.3909L79.3457 71.2034C79.4081 70.5948 79.3701 69.965 79.2187 69.3341Z" fill="white"/>
<path d="M73.802 69.6879H72.8645L72.2806 70.3837L72.4898 71.2535L73.3339 71.6418L74.1755 71.2546L74.3846 70.3849L73.802 69.6879Z" fill="white"/>
<path d="M75.9881 72.0815C75.9493 72.0747 75.9097 72.0712 75.8698 72.0731C75.8034 72.0763 75.7368 72.0926 75.6731 72.122C75.4242 72.2367 75.3159 72.5188 75.4241 72.7594L75.4204 72.7642L76.5981 75.4865C77.7333 74.7944 78.5829 73.7602 79.027 72.5664L75.9931 72.0755L75.9881 72.0815Z" fill="white"/>
<path d="M71.2673 72.4675C71.2135 72.242 71.0058 72.0882 70.7743 72.085C70.7412 72.0846 70.7071 72.0875 70.6734 72.0934L70.6684 72.0874L67.6607 72.5759C68.1249 73.805 68.9926 74.8067 70.0821 75.4758L71.2474 72.7808L71.2386 72.7701C71.2802 72.6777 71.2925 72.5731 71.2673 72.4675Z" fill="white"/>
<path d="M73.5555 73.3146C73.4807 73.2798 73.3982 73.263 73.3152 73.2658C73.2253 73.269 73.138 73.2946 73.0618 73.3402C72.9855 73.3857 72.9231 73.4496 72.8807 73.5255H72.8782L71.3993 76.0846C72.4228 76.4184 73.5532 76.4931 74.6871 76.2467C74.8873 76.2033 75.0851 76.1504 75.2797 76.0882L73.797 73.5243H73.7858C73.7362 73.4356 73.6574 73.3616 73.5555 73.3146Z" fill="white"/>
<path fill-rule="evenodd" clip-rule="evenodd" d="M72.5216 57.3352C72.7449 57.2331 72.9874 57.1744 73.235 57.1625C73.5463 57.1474 73.8567 57.2068 74.1376 57.3352L83.873 61.7839C84.125 61.8991 84.3464 62.0666 84.5207 62.2741C84.6951 62.4816 84.8179 62.7237 84.8802 62.9825L87.2853 72.9808C87.3476 73.2396 87.3476 73.5085 87.2853 73.7674C87.223 74.0262 87.1001 74.2684 86.9256 74.476L80.1905 82.4942C80.0159 82.7014 79.7945 82.8687 79.5425 82.9836C79.2906 83.0984 79.0146 83.158 78.7351 83.1578L67.9303 83.1602C67.6507 83.1602 67.3746 83.1005 67.1227 82.9854C66.8707 82.8703 66.6494 82.7028 66.475 82.4953L59.7373 74.4784C59.6997 74.4332 59.6644 74.3863 59.6315 74.3378C59.4961 74.1395 59.404 73.9175 59.3605 73.6848C59.3171 73.4521 59.3233 73.2135 59.3788 72.9832L61.7803 62.9849C61.8426 62.7261 61.9654 62.484 62.1398 62.2765C62.3141 62.069 62.5355 61.9015 62.7874 61.7863L72.5216 57.3352ZM72.7513 61.1706C72.7512 60.8284 73.0121 60.5511 73.3339 60.551C73.6557 60.551 73.9165 60.8284 73.9165 61.1706C73.9166 61.1879 73.917 61.2075 73.9174 61.2274C73.9181 61.2631 73.9189 61.3002 73.9178 61.329C73.9127 61.4592 73.8914 61.5692 73.8697 61.6812C73.8586 61.739 73.8473 61.7973 73.8381 61.8592L73.8343 61.8894C73.7869 62.2651 73.7474 62.5787 73.7721 62.8707C73.7919 63.0002 73.8629 63.0621 73.9307 63.1213C73.9415 63.1307 73.9522 63.14 73.9626 63.1495C73.9643 63.1899 73.9711 63.3242 73.9763 63.3985C75.8288 63.556 77.5492 64.3667 78.8129 65.6348L79.0344 65.4835C79.0433 65.484 79.0534 65.4847 79.0645 65.4855C79.1478 65.4917 79.2883 65.502 79.388 65.4465C79.6423 65.2827 79.8745 65.057 80.1525 64.7867L80.1736 64.7662C80.2175 64.7217 80.2575 64.6779 80.2971 64.6344C80.3763 64.5476 80.454 64.4625 80.5582 64.3766C80.5839 64.3555 80.619 64.3293 80.6514 64.305C80.6642 64.2955 80.6765 64.2862 80.6877 64.2777C80.9672 64.0644 81.356 64.0871 81.5567 64.3278C81.7573 64.5685 81.693 64.9365 81.4135 65.1499C81.4005 65.1599 81.3862 65.1712 81.3716 65.1827C81.3418 65.2062 81.3104 65.231 81.2853 65.2488C81.1767 65.3255 81.0737 65.3777 80.9692 65.4307C80.9139 65.4588 80.8582 65.487 80.801 65.5192C80.4525 65.7252 80.1636 65.8959 79.9345 66.1018C79.8408 66.1978 79.8343 66.2893 79.8281 66.3771C79.8272 66.3907 79.8262 66.4041 79.825 66.4175C79.8094 66.4313 79.7747 66.4609 79.7363 66.4937C79.6951 66.5289 79.6495 66.5679 79.6183 66.5951C80.1205 67.3104 80.4971 68.1223 80.7101 69.01C80.9212 69.8896 80.9541 70.7686 80.8321 71.6133L81.0674 71.6788C81.0724 71.6855 81.0779 71.6933 81.0841 71.702C81.1306 71.7674 81.211 71.8806 81.3189 71.9206C81.6155 72.01 81.949 72.0435 82.3506 72.0838L82.3634 72.0851C82.4291 72.0903 82.4917 72.0926 82.5538 72.095C82.6725 72.0994 82.7893 72.1038 82.9224 72.128C82.9529 72.1335 82.9922 72.1428 83.0296 72.1517C83.0517 72.1569 83.0731 72.162 83.0917 72.1661C83.4351 72.2454 83.6556 72.5475 83.5847 72.8452C83.5137 73.1429 83.1782 73.3238 82.8328 73.2527C82.8302 73.2521 82.8267 73.252 82.824 73.2514C82.8201 73.2506 82.8167 73.2488 82.8128 73.2479C82.7953 73.2442 82.7762 73.2405 82.7569 73.2368C82.7232 73.2303 82.689 73.2238 82.6622 73.2169C82.5311 73.1833 82.4239 73.1389 82.3148 73.0937C82.258 73.0701 82.2007 73.0464 82.1393 73.0239L82.1213 73.0177C81.7438 72.8882 81.4296 72.7803 81.1235 72.738C80.9872 72.7277 80.9085 72.78 80.8333 72.83C80.8213 72.838 80.8093 72.8459 80.7973 72.8535C80.7547 72.8454 80.6237 72.8232 80.5483 72.8118C79.99 74.4909 78.8012 75.9447 77.1895 76.8555C77.1984 76.876 77.2092 76.904 77.2207 76.9334C77.2449 76.9957 77.2715 77.0642 77.2865 77.0806C77.2815 77.0936 77.276 77.1065 77.2705 77.1195C77.2364 77.2006 77.201 77.2847 77.2417 77.4094C77.3548 77.6901 77.5378 77.9645 77.7584 78.2947C77.7949 78.3468 77.8317 78.3949 77.8682 78.4425C77.9384 78.5341 78.0074 78.6242 78.0709 78.7391C78.0869 78.7681 78.1065 78.8078 78.1244 78.8442C78.1324 78.8602 78.14 78.8756 78.1468 78.8892C78.2966 79.1958 78.1867 79.5489 77.8991 79.6815C77.6092 79.8151 77.2487 79.674 77.0936 79.3657C77.0869 79.3525 77.0793 79.338 77.0716 79.323C77.0536 79.2885 77.0345 79.2515 77.0214 79.2228C76.9667 79.1028 76.9356 78.9943 76.904 78.8837C76.8879 78.8274 76.8716 78.7707 76.8521 78.7117L76.8464 78.6957C76.7166 78.3319 76.6089 78.0299 76.4524 77.774C76.3754 77.6651 76.2833 77.6385 76.195 77.6131C76.1815 77.6092 76.1681 77.6054 76.1549 77.6013C76.1452 77.5853 76.1216 77.5444 76.096 77.5C76.0728 77.4598 76.048 77.4167 76.0304 77.3868C75.7045 77.5049 75.3705 77.6012 75.0307 77.6752C73.5189 78.0036 72.0055 77.8704 70.6535 77.3737L70.5216 77.6025C70.4233 77.6276 70.3286 77.6532 70.2705 77.7195C70.1213 77.8897 70.0352 78.1323 69.9437 78.3901C69.9049 78.4992 69.8653 78.611 69.8194 78.7212C69.7995 78.7812 69.7832 78.8389 69.767 78.8961C69.736 79.0057 69.7056 79.1134 69.6513 79.2323C69.6388 79.2597 69.6207 79.2944 69.6034 79.3274C69.5948 79.3437 69.5864 79.3597 69.5791 79.3741C69.579 79.3743 69.5791 79.3739 69.5791 79.3741C69.5791 79.3743 69.5792 79.3751 69.5791 79.3753C69.579 79.3756 69.5786 79.3758 69.5783 79.3761C69.5781 79.3762 69.5783 79.3759 69.5783 79.3761C69.4228 79.6833 69.0631 79.8243 68.7737 79.691C68.486 79.5585 68.3762 79.2053 68.5259 78.8987C68.5341 78.8826 68.5431 78.8637 68.5525 78.8443C68.5688 78.8106 68.586 78.7751 68.6006 78.7486C68.6643 78.6331 68.7337 78.5422 68.8043 78.4497C68.8405 78.4024 68.8769 78.3547 68.9131 78.303C69.1337 77.9728 69.3274 77.6765 69.4404 77.3959C69.4689 77.3027 69.4268 77.175 69.3886 77.0806L69.4945 76.8376C67.9436 75.9581 66.7188 74.5566 66.1344 72.8225L65.8804 72.8642C65.8727 72.8601 65.8642 72.8554 65.8549 72.8502C65.7816 72.8095 65.6608 72.7424 65.5455 72.751C65.2391 72.7935 64.9247 72.9014 64.5469 73.0311L64.5297 73.037C64.4693 73.0591 64.4129 73.0823 64.357 73.1053C64.2469 73.1505 64.1389 73.195 64.0068 73.2288C63.9768 73.2365 63.9376 73.2444 63.9001 73.252C63.8849 73.255 63.87 73.2581 63.8561 73.261C63.8543 73.2614 63.8525 73.2621 63.8508 73.2627C63.8489 73.2634 63.847 73.2641 63.8449 73.2645C63.8436 73.2648 63.8421 73.265 63.8406 73.2651C63.839 73.2653 63.8375 73.2655 63.8362 73.2657C63.4907 73.337 63.1553 73.156 63.0843 72.8583C63.0133 72.5606 63.2339 72.2586 63.5773 72.1792C63.5798 72.1786 63.5833 72.1774 63.586 72.1768L63.591 72.1756C63.6059 72.1722 63.622 72.1685 63.6385 72.1646C63.6761 72.1559 63.7156 72.1467 63.7466 72.141C63.8794 72.117 63.9961 72.1126 64.1146 72.1081C64.1769 72.1058 64.2397 72.1034 64.3056 72.0982L64.3191 72.0968C64.7204 72.0565 65.0536 72.0231 65.3501 71.9338C65.4341 71.9008 65.5148 71.7992 65.5769 71.7212C65.585 71.7109 65.5929 71.7011 65.6003 71.6919L65.8443 71.624C65.5709 69.812 66.0336 68.0336 67.0332 66.5938L66.8465 66.4342C66.8452 66.4266 66.8438 66.4179 66.8424 66.4083C66.8303 66.3303 66.8091 66.1938 66.7294 66.1125C66.5004 65.9067 66.2116 65.736 65.8634 65.5302C65.8067 65.4983 65.7512 65.47 65.6966 65.4422C65.5919 65.3889 65.489 65.3366 65.3799 65.2595C65.3548 65.2417 65.3237 65.2172 65.294 65.1938C65.282 65.1844 65.2702 65.1751 65.2592 65.1666C65.2578 65.1655 65.2564 65.1646 65.255 65.1637C65.2535 65.1627 65.2519 65.1617 65.2505 65.1606C64.9709 64.9473 64.9067 64.5793 65.1073 64.3385C65.2201 64.2031 65.3926 64.1361 65.5717 64.1419C65.711 64.1465 65.8552 64.1952 65.9775 64.2885C65.9884 64.2967 66.0004 64.3057 66.0127 64.3149C66.0455 64.3395 66.0812 64.3661 66.107 64.3874C66.2105 64.4725 66.2872 64.5571 66.3654 64.6432C66.4054 64.6872 66.4458 64.7317 66.4904 64.777L66.5004 64.7867C66.7833 65.0616 67.0183 65.2901 67.276 65.456C67.3948 65.5223 67.4896 65.5079 67.5806 65.4942C67.5945 65.4921 67.6083 65.49 67.6221 65.4882C67.6916 65.5368 67.7617 65.5844 67.8325 65.6312C68.8241 64.6243 70.1267 63.8785 71.6395 63.5498C71.9863 63.4746 72.3383 63.4228 72.6927 63.3949L72.7064 63.159C72.784 63.0871 72.871 62.9837 72.8957 62.8707C72.9208 62.5728 72.8805 62.2525 72.8319 61.8667L72.8309 61.8592C72.8217 61.7974 72.8105 61.7392 72.7993 61.6815C72.7776 61.5694 72.7563 61.4593 72.7513 61.329C72.7502 61.3015 72.7509 61.2669 72.7516 61.233C72.752 61.2169 72.7523 61.201 72.7524 61.186C72.7524 61.1835 72.7521 61.1811 72.7519 61.1786C72.7516 61.176 72.7513 61.1733 72.7513 61.1706Z" fill="white"/>
<defs>
<filter id="filter0_f_8233_45766" x="116.913" y="74.9551" width="152.843" height="171.313" filterUnits="userSpaceOnUse" color-interpolation-filters="sRGB">
<feFlood flood-opacity="0" result="BackgroundImageFix"/>
<feBlend mode="normal" in="SourceGraphic" in2="BackgroundImageFix" result="shape"/>
<feGaussianBlur stdDeviation="3.13557" result="effect1_foregroundBlur_8233_45766"/>
</filter>
<filter id="filter1_i_8233_45766" x="130.43" y="83.0684" width="125.808" height="145.668" filterUnits="userSpaceOnUse" color-interpolation-filters="sRGB">
<feFlood flood-opacity="0" result="BackgroundImageFix"/>
<feBlend mode="normal" in="SourceGraphic" in2="BackgroundImageFix" result="shape"/>
<feColorMatrix in="SourceAlpha" type="matrix" values="0 0 0 0 0 0 0 0 0 0 0 0 0 0 0 0 0 0 127 0" result="hardAlpha"/>
<feOffset dy="1.04519"/>
<feGaussianBlur stdDeviation="1.04519"/>
<feComposite in2="hardAlpha" operator="arithmetic" k2="-1" k3="1"/>
<feColorMatrix type="matrix" values="0 0 0 0 0 0 0 0 0 0 0 0 0 0 0 0 0 0 1 0"/>
<feBlend mode="normal" in2="shape" result="effect1_innerShadow_8233_45766"/>
</filter>
<filter id="filter2_i_8233_45766" x="140.669" y="93.5421" width="105.331" height="124.723" filterUnits="userSpaceOnUse" color-interpolation-filters="sRGB">
<feFlood flood-opacity="0" result="BackgroundImageFix"/>
<feBlend mode="normal" in="SourceGraphic" in2="BackgroundImageFix" result="shape"/>
<feColorMatrix in="SourceAlpha" type="matrix" values="0 0 0 0 0 0 0 0 0 0 0 0 0 0 0 0 0 0 127 0" result="hardAlpha"/>
<feOffset dy="1.04519"/>
<feGaussianBlur stdDeviation="1.04519"/>
<feComposite in2="hardAlpha" operator="arithmetic" k2="-1" k3="1"/>
<feColorMatrix type="matrix" values="0 0 0 0 0 0 0 0 0 0 0 0 0 0 0 0 0 0 1 0"/>
<feBlend mode="normal" in2="shape" result="effect1_innerShadow_8233_45766"/>
</filter>
<filter id="filter3_i_8233_45766" x="139.486" y="93.5332" width="107.696" height="124.75" filterUnits="userSpaceOnUse" color-interpolation-filters="sRGB">
<feFlood flood-opacity="0" result="BackgroundImageFix"/>
<feBlend mode="normal" in="SourceGraphic" in2="BackgroundImageFix" result="shape"/>
<feColorMatrix in="SourceAlpha" type="matrix" values="0 0 0 0 0 0 0 0 0 0 0 0 0 0 0 0 0 0 127 0" result="hardAlpha"/>
<feOffset dy="1.04519"/>
<feGaussianBlur stdDeviation="1.04519"/>
<feComposite in2="hardAlpha" operator="arithmetic" k2="-1" k3="1"/>
<feColorMatrix type="matrix" values="0 0 0 0 0 0 0 0 0 0 0 0 0 0 0 0 0 0 1 0"/>
<feBlend mode="normal" in2="shape" result="effect1_innerShadow_8233_45766"/>
</filter>
<linearGradient id="paint0_linear_8233_45766" x1="192.837" y1="15.9297" x2="192.837" y2="73.8125" gradientUnits="userSpaceOnUse">
<stop stop-color="#3B3D3F" stop-opacity="0"/>
<stop offset="1" stop-color="#3B3D3F"/>
</linearGradient>
<linearGradient id="paint1_linear_8233_45766" x1="73.4229" y1="198" x2="73.4229" y2="206.844" gradientUnits="userSpaceOnUse">
<stop stop-color="#161C20"/>
<stop offset="1" stop-color="#0A0D0F"/>
</linearGradient>
<linearGradient id="paint2_linear_8233_45766" x1="73.4229" y1="202.419" x2="73.4229" y2="206.844" gradientUnits="userSpaceOnUse">
<stop stop-color="#3B3D3F" stop-opacity="0.5"/>
<stop offset="1" stop-color="#3B3D3F" stop-opacity="0.89"/>
</linearGradient>
<linearGradient id="paint3_linear_8233_45766" x1="314.423" y1="199" x2="314.423" y2="207.844" gradientUnits="userSpaceOnUse">
<stop stop-color="#161C20"/>
<stop offset="1" stop-color="#0A0D0F"/>
</linearGradient>
<linearGradient id="paint4_linear_8233_45766" x1="314.423" y1="203.419" x2="314.423" y2="207.844" gradientUnits="userSpaceOnUse">
<stop stop-color="#3B3D3F" stop-opacity="0.5"/>
<stop offset="1" stop-color="#3B3D3F" stop-opacity="0.89"/>
</linearGradient>
<linearGradient id="paint5_linear_8233_45766" x1="33.333" y1="150.109" x2="33.333" y2="158.953" gradientUnits="userSpaceOnUse">
<stop stop-color="#161C20"/>
<stop offset="1" stop-color="#0A0D0F"/>
</linearGradient>
<linearGradient id="paint6_linear_8233_45766" x1="33.333" y1="154.528" x2="33.333" y2="158.953" gradientUnits="userSpaceOnUse">
<stop stop-color="#3B3D3F" stop-opacity="0.5"/>
<stop offset="1" stop-color="#3B3D3F" stop-opacity="0.89"/>
</linearGradient>
<linearGradient id="paint7_linear_8233_45766" x1="361.333" y1="150.609" x2="361.333" y2="159.453" gradientUnits="userSpaceOnUse">
<stop stop-color="#161C20"/>
<stop offset="1" stop-color="#0A0D0F"/>
</linearGradient>
<linearGradient id="paint8_linear_8233_45766" x1="361.333" y1="155.028" x2="361.333" y2="159.453" gradientUnits="userSpaceOnUse">
<stop stop-color="#3B3D3F" stop-opacity="0.5"/>
<stop offset="1" stop-color="#3B3D3F" stop-opacity="0.89"/>
</linearGradient>
<linearGradient id="paint9_linear_8233_45766" x1="193.333" y1="223.383" x2="193.333" y2="326" gradientUnits="userSpaceOnUse">
<stop stop-color="#161C20" stop-opacity="0"/>
<stop offset="1" stop-color="#0E1114"/>
</linearGradient>
<linearGradient id="paint10_linear_8233_45766" x1="193.334" y1="155.331" x2="193.334" y2="236.387" gradientUnits="userSpaceOnUse">
<stop stop-color="#3B3D3F" stop-opacity="0.5"/>
<stop offset="1" stop-color="#3B3D3F" stop-opacity="0.89"/>
</linearGradient>
<linearGradient id="paint11_linear_8233_45766" x1="193.312" y1="82.0573" x2="193.369" y2="228.014" gradientUnits="userSpaceOnUse">
<stop stop-color="#1E1E1F" stop-opacity="0"/>
<stop offset="1" stop-color="#1E1E1F" stop-opacity="0.8"/>
</linearGradient>
<linearGradient id="paint12_linear_8233_45766" x1="193.334" y1="87.9706" x2="193.334" y2="222.79" gradientUnits="userSpaceOnUse">
<stop stop-color="#3B3D3F" stop-opacity="0.5"/>
<stop offset="1" stop-color="#3B3D3F" stop-opacity="0.8"/>
</linearGradient>
<linearGradient id="paint13_linear_8233_45766" x1="193.316" y1="92.6164" x2="193.366" y2="217.557" gradientUnits="userSpaceOnUse">
<stop stop-color="#1E1E1F" stop-opacity="0"/>
<stop offset="1" stop-color="#1E1E1F" stop-opacity="0.8"/>
</linearGradient>
<linearGradient id="paint14_linear_8233_45766" x1="193.315" y1="92.6211" x2="193.365" y2="217.561" gradientUnits="userSpaceOnUse">
<stop stop-color="#1E1E1F" stop-opacity="0"/>
<stop offset="1" stop-color="#1E1E1F" stop-opacity="0.8"/>
</linearGradient>
<linearGradient id="paint15_linear_8233_45766" x1="193.334" y1="98.455" x2="193.334" y2="212.322" gradientUnits="userSpaceOnUse">
<stop stop-color="#3B3D3F" stop-opacity="0.2"/>
<stop offset="1" stop-color="#3B3D3F" stop-opacity="0.4"/>
</linearGradient>
<linearGradient id="paint16_linear_8233_45766" x1="193.332" y1="255" x2="193.332" y2="303" gradientUnits="userSpaceOnUse">
<stop stop-color="#161C20"/>
<stop offset="1" stop-color="#0A0D0F"/>
</linearGradient>
<linearGradient id="paint17_linear_8233_45766" x1="193.332" y1="278.984" x2="193.332" y2="303" gradientUnits="userSpaceOnUse">
<stop stop-color="#3B3D3F" stop-opacity="0.5"/>
<stop offset="1" stop-color="#3B3D3F" stop-opacity="0.89"/>
</linearGradient>
<linearGradient id="paint18_linear_8233_45766" x1="313.32" y1="45" x2="313.32" y2="94" gradientUnits="userSpaceOnUse">
<stop stop-color="#161C20"/>
<stop offset="1" stop-color="#0A0D0F"/>
</linearGradient>
<linearGradient id="paint19_linear_8233_45766" x1="313.32" y1="69.4836" x2="313.32" y2="94" gradientUnits="userSpaceOnUse">
<stop stop-color="#3B3D3F" stop-opacity="0.5"/>
<stop offset="1" stop-color="#3B3D3F" stop-opacity="0.89"/>
</linearGradient>
<linearGradient id="paint20_linear_8233_45766" x1="73.4229" y1="46" x2="73.4229" y2="94" gradientUnits="userSpaceOnUse">
<stop stop-color="#161C20"/>
<stop offset="1" stop-color="#0A0D0F"/>
</linearGradient>
<linearGradient id="paint21_linear_8233_45766" x1="73.4229" y1="69.9839" x2="73.4229" y2="94" gradientUnits="userSpaceOnUse">
<stop stop-color="#3B3D3F" stop-opacity="0.5"/>
<stop offset="1" stop-color="#3B3D3F" stop-opacity="0.89"/>
</linearGradient>
<clipPath id="clip0_8233_45766">
<rect width="26" height="20" fill="white" transform="translate(300.32 63)"/>
</clipPath>
</defs>
</svg>
