<svg width="229" height="313" viewBox="0 0 229 313" fill="none" xmlns="http://www.w3.org/2000/svg">
<path d="M106.499 11.818C109.589 10.0104 111.134 9.10667 112.777 8.75293C114.23 8.43994 115.732 8.43994 117.186 8.75293C118.828 9.10667 120.373 10.0104 123.463 11.818L177.658 43.5209C180.748 45.3285 182.293 46.2322 183.417 47.4966C184.411 48.6154 185.162 49.9333 185.621 51.3651C186.14 52.9832 186.14 54.7907 186.14 58.4058V121.812C186.14 125.427 186.14 127.234 185.621 128.852C185.162 130.284 184.411 131.602 183.417 132.721C182.293 133.985 180.748 134.889 177.658 136.697L123.463 168.4C120.373 170.207 118.828 171.111 117.186 171.465C115.732 171.778 114.23 171.778 112.777 171.465C111.134 171.111 109.589 170.207 106.499 168.4L52.304 136.697C49.2141 134.889 47.6691 133.985 46.5455 132.721C45.5513 131.602 44.8003 130.284 44.3412 128.852C43.8223 127.234 43.8223 125.427 43.8223 121.812V58.4058C43.8223 54.7907 43.8223 52.9832 44.3412 51.3651C44.8003 49.9333 45.5513 48.6154 46.5455 47.4966C47.6691 46.2322 49.2141 45.3285 52.304 43.5209L106.499 11.818Z" stroke="#25292C" stroke-linecap="round"/>
<g opacity="0.1">
<path d="M18.3438 -26.1932V149.627" stroke="#3B3D3F" stroke-width="0.59"/>
<path d="M41.9443 -26.1932V149.627" stroke="#3B3D3F" stroke-width="0.59"/>
<path d="M65.5439 -26.1932V149.627" stroke="#3B3D3F" stroke-width="0.59"/>
<path d="M89.1445 -26.1932V149.627" stroke="#3B3D3F" stroke-width="0.59"/>
<path d="M112.744 -26.1932V149.627" stroke="#3B3D3F" stroke-width="0.59"/>
<path d="M136.344 -26.1932V149.627" stroke="#3B3D3F" stroke-width="0.59"/>
<path d="M159.944 -26.1932V149.627" stroke="#3B3D3F" stroke-width="0.59"/>
<path d="M183.544 -26.1932V149.627" stroke="#3B3D3F" stroke-width="0.59"/>
<path d="M207.145 -26.1932V149.627" stroke="#3B3D3F" stroke-width="0.59"/>
<g clip-path="url(#clip0_8269_62036)">
<rect x="-5.10836" y="20.1125" width="229.805" height="0.295" fill="#3B3D3F" stroke="#3B3D3F" stroke-width="0.295"/>
<rect x="-5.10836" y="44.3025" width="229.805" height="0.295" fill="#3B3D3F" stroke="#3B3D3F" stroke-width="0.295"/>
<rect x="-5.10836" y="68.4925" width="229.805" height="0.295" fill="#3B3D3F" stroke="#3B3D3F" stroke-width="0.295"/>
<rect x="-5.10836" y="92.6825" width="229.805" height="0.295" fill="#3B3D3F" stroke="#3B3D3F" stroke-width="0.295"/>
<rect x="-5.10836" y="116.873" width="229.805" height="0.295" fill="#3B3D3F" stroke="#3B3D3F" stroke-width="0.295"/>
<rect x="-5.10836" y="141.063" width="229.805" height="0.295" fill="#3B3D3F" stroke="#3B3D3F" stroke-width="0.295"/>
</g>
</g>
<circle cx="141.903" cy="22.6917" r="1.18" fill="#3B3D3F"/>
<circle cx="184.96" cy="130.342" r="1.18" fill="#3B3D3F"/>
<path d="M40.6406 51.7265L111.511 90.1829M182.382 51.7265L111.511 90.1829M111.511 90.1829V162.49" stroke="#25292C" stroke-linecap="round"/>
<circle cx="45.0023" cy="130.342" r="1.18" fill="#3B3D3F"/>
<rect x="-16.8662" y="211.383" width="400" height="102.617" fill="url(#paint0_linear_8269_62036)"/>
<g filter="url(#filter0_f_8269_62036)">
<path d="M110.708 47.1815C112.616 46.0799 114.967 46.0799 116.875 47.1815L152.096 67.5168C154.004 68.6184 155.18 70.6541 155.18 72.8572V113.528C155.18 115.731 154.004 117.767 152.096 118.868L116.875 139.204C114.967 140.305 112.616 140.305 110.708 139.204L75.4861 118.868C73.5782 117.767 72.4028 115.731 72.4028 113.528V72.8573C72.4028 70.6541 73.5782 68.6184 75.4861 67.5168L110.708 47.1815Z" fill="#0A0D0F"/>
</g>
<path d="M109.472 45.1613C111.287 44.1133 112.137 43.6269 113.033 43.4363C113.836 43.2657 114.666 43.2657 115.469 43.4363C116.365 43.6269 117.215 44.1133 119.03 45.1613L150.552 63.3604C152.367 64.4085 153.213 64.9011 153.826 65.582C154.376 66.1921 154.79 66.9109 155.044 67.6917C155.327 68.5631 155.331 69.5421 155.331 71.6381V108.036C155.331 110.133 155.327 111.112 155.044 111.983C154.79 112.764 154.376 113.483 153.826 114.093C153.213 114.774 152.367 115.266 150.552 116.314L119.03 134.513C117.215 135.561 116.365 136.048 115.469 136.238C114.666 136.409 113.836 136.409 113.033 136.238C112.137 136.048 111.287 135.561 109.472 134.513L77.9498 116.314C76.1345 115.266 75.2885 114.774 74.6754 114.093C74.126 113.483 73.7111 112.764 73.4574 111.983C73.1742 111.112 73.1706 110.133 73.1706 108.036V71.6381C73.1706 69.5421 73.1742 68.5631 73.4574 67.6917C73.7111 66.9109 74.126 66.1921 74.6754 65.582C75.2885 64.9011 76.1345 64.4085 77.9498 63.3604L109.472 45.1613Z" fill="#0A0D0F" stroke="url(#paint1_linear_8269_62036)" stroke-width="0.616662"/>
<g filter="url(#filter1_i_8269_62036)">
<path d="M112.989 47.3788C113.349 47.1713 113.528 47.0676 113.719 47.027C113.888 46.991 114.063 46.991 114.232 47.027C114.423 47.0676 114.603 47.1713 114.962 47.3788L150.103 67.6667C150.462 67.8743 150.642 67.978 150.772 68.1232C150.888 68.2516 150.975 68.403 151.029 68.5673C151.089 68.7531 151.089 68.9606 151.089 69.3757V109.951C151.089 110.367 151.089 110.574 151.029 110.76C150.975 110.924 150.888 111.076 150.772 111.204C150.642 111.349 150.462 111.453 150.103 111.66L114.962 131.948C114.603 132.156 114.423 132.26 114.232 132.3C114.063 132.336 113.888 132.336 113.719 132.3C113.528 132.26 113.349 132.156 112.989 131.948L77.849 111.66C77.4895 111.453 77.3098 111.349 77.1791 111.204C77.0634 111.076 76.9761 110.924 76.9227 110.76C76.8623 110.574 76.8623 110.367 76.8623 109.951V69.3757C76.8623 68.9606 76.8623 68.7531 76.9227 68.5673C76.9761 68.403 77.0634 68.2516 77.1791 68.1232C77.3098 67.978 77.4895 67.8743 77.849 67.6667L112.989 47.3788Z" fill="#060809"/>
</g>
<path d="M113.143 47.6459C113.521 47.4279 113.651 47.3566 113.783 47.3285C113.91 47.3016 114.041 47.3016 114.168 47.3285C114.3 47.3566 114.431 47.4279 114.808 47.6459L149.948 67.9338C150.326 68.1517 150.453 68.2293 150.543 68.3295C150.63 68.4258 150.696 68.5393 150.736 68.6626C150.777 68.7909 150.781 68.9398 150.781 69.3757V109.951C150.781 110.387 150.777 110.536 150.736 110.665C150.696 110.788 150.63 110.901 150.543 110.998C150.453 111.098 150.326 111.175 149.948 111.393L114.808 131.681C114.431 131.899 114.3 131.971 114.168 131.999C114.041 132.026 113.91 132.026 113.783 131.999C113.651 131.971 113.521 131.899 113.143 131.681L78.0031 111.393C77.6257 111.175 77.4985 111.098 77.4082 110.998L77.1791 111.204L77.4082 110.998C77.3215 110.901 77.256 110.788 77.2159 110.665C77.1742 110.536 77.1706 110.387 77.1706 109.951V69.3757C77.1706 68.9398 77.1742 68.7909 77.2159 68.6626C77.256 68.5393 77.3215 68.4258 77.4082 68.3295C77.4985 68.2293 77.6257 68.1517 78.0031 67.9338L113.143 47.6459Z" stroke="url(#paint2_linear_8269_62036)" stroke-width="0.616662"/>
<path d="M113.473 50.6459C113.85 50.428 113.981 50.3566 114.113 50.3285C114.24 50.3016 114.371 50.3016 114.498 50.3285C114.63 50.3566 114.761 50.428 115.138 50.6459L147.608 69.3925C147.985 69.6104 148.113 69.688 148.203 69.7883C148.29 69.8846 148.355 69.9981 148.395 70.1214C148.437 70.2497 148.44 70.3986 148.44 70.8344V108.328C148.44 108.764 148.437 108.912 148.395 109.041C148.355 109.164 148.29 109.278 148.203 109.374C148.113 109.474 147.985 109.552 147.608 109.77L115.138 128.516C114.761 128.734 114.63 128.806 114.498 128.834C114.371 128.861 114.24 128.861 114.113 128.834C113.981 128.806 113.85 128.734 113.473 128.516L81.0031 109.77C80.6257 109.552 80.4985 109.474 80.4082 109.374C80.3215 109.278 80.256 109.164 80.2159 109.041C80.1742 108.912 80.1706 108.764 80.1706 108.328V70.8344C80.1706 70.3986 80.1742 70.2497 80.2159 70.1214C80.256 69.9981 80.3215 69.8846 80.4082 69.7883C80.4985 69.688 80.6257 69.6104 81.0031 69.3925L113.473 50.6459Z" fill="#0A0D0F" stroke="url(#paint3_linear_8269_62036)" stroke-width="0.616662"/>
<g filter="url(#filter2_i_8269_62036)">
<path d="M113.739 53.5921C114.104 53.3767 114.286 53.2689 114.481 53.2268C114.653 53.1895 114.831 53.1895 115.003 53.2268C115.197 53.2689 115.38 53.3767 115.745 53.5921L144.844 70.7692C145.198 70.9779 145.375 71.0823 145.503 71.227C145.617 71.355 145.703 71.5053 145.755 71.6683C145.814 71.8525 145.814 72.0578 145.814 72.4685V106.899C145.814 107.31 145.814 107.515 145.755 107.699C145.703 107.862 145.617 108.013 145.503 108.141C145.375 108.285 145.198 108.39 144.844 108.598L115.745 125.775C115.38 125.991 115.197 126.099 115.003 126.141C114.831 126.178 114.653 126.178 114.481 126.141C114.286 126.099 114.104 125.991 113.739 125.775L84.6395 108.598C84.2858 108.39 84.109 108.285 83.9805 108.141C83.8668 108.013 83.7809 107.862 83.7285 107.699C83.6692 107.515 83.6692 107.31 83.6692 106.899V72.4685C83.6692 72.0578 83.6692 71.8525 83.7285 71.6683C83.7809 71.5053 83.8668 71.355 83.9805 71.227C84.109 71.0823 84.2858 70.9779 84.6395 70.7692L113.739 53.5921Z" fill="#060809"/>
</g>
<path d="M113.895 53.8576C114.279 53.6314 114.412 53.5572 114.546 53.5281C114.675 53.5002 114.809 53.5002 114.938 53.5281C115.072 53.5572 115.205 53.6314 115.588 53.8576L144.687 71.0347C145.059 71.2539 145.184 71.3318 145.273 71.4317C145.358 71.5278 145.422 71.6405 145.462 71.7627C145.502 71.89 145.506 72.0373 145.506 72.4685V106.899C145.506 107.33 145.502 107.478 145.462 107.605C145.422 107.727 145.358 107.84 145.273 107.936L145.503 108.141L145.273 107.936C145.184 108.036 145.059 108.114 144.687 108.333L115.588 125.51C115.205 125.736 115.072 125.81 114.938 125.839C114.809 125.867 114.675 125.867 114.546 125.839C114.412 125.81 114.279 125.736 113.895 125.51L84.7962 108.333C84.4248 108.114 84.2998 108.036 84.211 107.936C84.1257 107.84 84.0614 107.727 84.022 107.605L83.7285 107.699L84.022 107.605C83.9811 107.478 83.9776 107.33 83.9776 106.899V72.4685C83.9776 72.0373 83.9811 71.89 84.022 71.7627C84.0614 71.6405 84.1257 71.5278 84.211 71.4317L83.9805 71.227L84.211 71.4317C84.2998 71.3318 84.4248 71.2539 84.7962 71.0347L113.895 53.8576Z" stroke="url(#paint4_linear_8269_62036)" stroke-width="0.616662"/>
<path d="M85.2159 73.0309L84.9227 72.9356L85.2159 73.0309C85.256 72.9076 85.3215 72.7941 85.4082 72.6978L85.1797 72.492L85.4082 72.6977C85.4985 72.5975 85.6257 72.5199 86.0032 72.302L113.121 56.6459C113.499 56.4279 113.63 56.3566 113.762 56.3285C113.888 56.3016 114.019 56.3016 114.146 56.3285C114.278 56.3566 114.409 56.4279 114.786 56.6459L141.905 72.302C142.282 72.5199 142.409 72.5975 142.5 72.6977C142.586 72.7941 142.652 72.9076 142.692 73.0309C142.734 73.1592 142.737 73.3081 142.737 73.7439V105.056C142.737 105.492 142.734 105.641 142.692 105.769C142.652 105.892 142.586 106.006 142.5 106.102C142.409 106.203 142.282 106.28 141.905 106.498L114.786 122.154C114.409 122.372 114.278 122.443 114.146 122.472C114.019 122.498 113.888 122.498 113.762 122.472C113.63 122.443 113.499 122.372 113.121 122.154L86.0032 106.498C85.6257 106.28 85.4985 106.203 85.4082 106.102C85.3215 106.006 85.256 105.892 85.2159 105.769C85.1742 105.641 85.1706 105.492 85.1706 105.056V73.7439C85.1706 73.3081 85.1742 73.1592 85.2159 73.0309Z" fill="#0A0D0F" stroke="url(#paint5_linear_8269_62036)" stroke-width="0.616662"/>
<g clip-path="url(#clip1_8269_62036)">
<mask id="mask0_8269_62036" style="mask-type:luminance" maskUnits="userSpaceOnUse" x="94" y="76" width="40" height="43">
<path d="M94.7529 76.9889H133.102V118.78H94.7529V76.9889Z" fill="white"/>
</mask>
<g mask="url(#mask0_8269_62036)">
<path d="M107.987 90.2515L105.97 88.9958L106.012 90.9146L108.03 92.1703L107.987 90.2515ZM110.894 96.9675L110.851 95.0909L109.088 93.9904C109.06 93.9763 109.031 93.9481 109.017 93.934L109.06 95.8246L110.894 96.9675ZM104.587 99.493L99.9733 96.6288L99.8604 91.8317L102.118 90.8582L102.076 88.9393L98.4636 90.4913C98.1814 90.6183 98.0121 90.8723 98.0262 91.1686L98.1673 96.9251C98.1673 97.2214 98.3507 97.5177 98.6329 97.687L104.164 101.116C104.418 101.271 104.728 101.313 104.996 101.243C105.024 101.228 105.053 101.228 105.081 101.214L108.481 99.747L106.633 98.6041L104.587 99.493Z" fill="#FF5500"/>
</g>
<mask id="mask1_8269_62036" style="mask-type:luminance" maskUnits="userSpaceOnUse" x="94" y="76" width="40" height="43">
<path d="M94.7529 76.9889H133.102V118.78H94.7529V76.9889Z" fill="white"/>
</mask>
<g mask="url(#mask1_8269_62036)">
<path d="M119.5 88.8829C119.486 88.5443 119.288 88.1916 118.95 87.9941L112.234 83.8318L112.022 83.9165L112.064 85.9341L117.384 89.2357L117.511 94.6254L119.542 95.8811L119.655 95.8388L119.5 88.8829ZM111.458 98.3502L105.207 94.4843L105.052 87.9941L107.902 86.7666L107.846 84.5232L103.43 86.4279C103.105 86.569 102.907 86.8653 102.922 87.2181L103.105 94.837C103.105 95.1898 103.317 95.5284 103.655 95.7259L110.978 100.269C111.274 100.452 111.641 100.509 111.951 100.41C111.98 100.396 112.008 100.382 112.036 100.382L116.354 98.5195L114.209 97.1933L111.458 98.3502Z" fill="#FF5500"/>
</g>
<mask id="mask2_8269_62036" style="mask-type:luminance" maskUnits="userSpaceOnUse" x="94" y="76" width="40" height="43">
<path d="M94.7529 76.9889H133.102V118.78H94.7529V76.9889Z" fill="white"/>
</mask>
<g mask="url(#mask2_8269_62036)">
<path d="M129.023 83.5496L119.641 77.7366C119.288 77.525 118.879 77.4686 118.526 77.5814C118.498 77.5956 118.456 77.6097 118.427 77.6238L109.271 81.5743C108.904 81.7296 108.678 82.0682 108.692 82.4773L108.918 92.2409C108.932 92.636 109.172 93.031 109.553 93.2568L118.935 99.0698C119.274 99.2814 119.697 99.3378 120.05 99.225C120.078 99.2108 120.12 99.1967 120.149 99.1826L129.306 95.2321C129.672 95.0769 129.898 94.7241 129.884 94.3291L129.658 84.5655C129.644 84.1704 129.404 83.7895 129.023 83.5496ZM119.486 96.8828L111.33 91.8317L111.133 83.3521L119.091 79.9236L127.246 84.9747L127.443 93.4543L119.486 96.8828Z" fill="#FF5500"/>
</g>
</g>
<path d="M96.3103 181.968L96.3029 181.964L96.2952 181.96C92.7885 180.381 90.3471 176.85 90.3471 172.747C90.3471 167.171 94.8575 162.651 100.42 162.651C101.293 162.651 102.096 162.112 102.419 161.3C104.016 157.284 107.93 154.447 112.505 154.447C118.498 154.447 123.357 159.317 123.357 165.324C123.357 166.554 124.277 167.73 125.57 167.73H125.953C130.117 167.73 133.493 171.113 133.493 175.286C133.493 179.46 130.117 182.843 125.953 182.843H99.8354C98.5614 182.843 97.362 182.526 96.3103 181.968Z" fill="url(#paint6_linear_8269_62036)" stroke="url(#paint7_linear_8269_62036)" stroke-width="0.514482"/>
<g clip-path="url(#clip2_8269_62036)">
<path d="M107.742 170.039C107.742 170.281 107.767 170.477 107.812 170.62C107.863 170.764 107.927 170.921 108.016 171.091C108.048 171.143 108.06 171.195 108.06 171.241C108.06 171.306 108.022 171.371 107.939 171.437L107.538 171.711C107.481 171.75 107.423 171.77 107.372 171.77C107.309 171.77 107.245 171.737 107.181 171.678C107.092 171.58 107.016 171.476 106.952 171.371C106.888 171.26 106.825 171.136 106.754 170.986C106.257 171.587 105.633 171.887 104.881 171.887C104.346 171.887 103.919 171.731 103.607 171.417C103.295 171.104 103.136 170.686 103.136 170.163C103.136 169.608 103.327 169.158 103.715 168.818C104.104 168.479 104.62 168.309 105.276 168.309C105.493 168.309 105.716 168.328 105.952 168.361C106.187 168.394 106.43 168.446 106.684 168.505V168.028C106.684 167.532 106.582 167.186 106.385 166.983C106.181 166.781 105.837 166.683 105.346 166.683C105.123 166.683 104.894 166.709 104.658 166.768C104.423 166.827 104.193 166.898 103.97 166.99C103.868 167.036 103.792 167.062 103.747 167.075C103.703 167.088 103.671 167.094 103.645 167.094C103.556 167.094 103.512 167.029 103.512 166.892V166.572C103.512 166.467 103.524 166.389 103.556 166.343C103.588 166.298 103.645 166.252 103.735 166.206C103.958 166.089 104.225 165.991 104.537 165.912C104.85 165.827 105.181 165.788 105.531 165.788C106.289 165.788 106.844 165.965 107.2 166.317C107.551 166.67 107.729 167.205 107.729 167.924V170.039H107.742ZM105.155 171.032C105.366 171.032 105.582 170.993 105.812 170.914C106.041 170.836 106.245 170.692 106.417 170.496C106.519 170.372 106.595 170.235 106.633 170.078C106.672 169.922 106.697 169.732 106.697 169.51V169.236C106.512 169.19 106.315 169.151 106.111 169.125C105.907 169.099 105.71 169.086 105.512 169.086C105.085 169.086 104.773 169.171 104.563 169.347C104.353 169.523 104.251 169.772 104.251 170.098C104.251 170.405 104.327 170.634 104.486 170.79C104.639 170.954 104.862 171.032 105.155 171.032ZM110.271 171.737C110.156 171.737 110.08 171.718 110.029 171.672C109.978 171.633 109.934 171.541 109.895 171.417L108.398 166.369C108.36 166.239 108.341 166.154 108.341 166.108C108.341 166.004 108.392 165.945 108.494 165.945H109.118C109.239 165.945 109.322 165.965 109.366 166.01C109.417 166.049 109.456 166.141 109.494 166.265L110.564 170.588L111.558 166.265C111.59 166.134 111.628 166.049 111.679 166.01C111.73 165.971 111.819 165.945 111.934 165.945H112.444C112.565 165.945 112.648 165.965 112.698 166.01C112.749 166.049 112.794 166.141 112.82 166.265L113.826 170.64L114.928 166.265C114.967 166.134 115.011 166.049 115.056 166.01C115.107 165.971 115.19 165.945 115.304 165.945H115.897C115.999 165.945 116.056 165.997 116.056 166.108C116.056 166.141 116.05 166.174 116.043 166.213C116.037 166.252 116.024 166.304 115.999 166.376L114.463 171.424C114.425 171.554 114.38 171.639 114.329 171.678C114.278 171.718 114.196 171.744 114.087 171.744H113.539C113.418 171.744 113.336 171.724 113.285 171.678C113.234 171.633 113.189 171.548 113.164 171.417L112.176 167.205L111.195 171.411C111.163 171.541 111.125 171.626 111.074 171.672C111.023 171.718 110.934 171.737 110.819 171.737H110.271ZM118.458 171.913C118.127 171.913 117.795 171.874 117.477 171.796C117.158 171.718 116.91 171.633 116.744 171.535C116.642 171.476 116.572 171.411 116.547 171.352C116.521 171.293 116.508 171.228 116.508 171.169V170.836C116.508 170.699 116.559 170.634 116.655 170.634C116.693 170.634 116.731 170.64 116.769 170.653C116.808 170.666 116.865 170.692 116.929 170.718C117.145 170.816 117.381 170.895 117.63 170.947C117.884 170.999 118.133 171.025 118.388 171.025C118.789 171.025 119.101 170.954 119.318 170.81C119.534 170.666 119.649 170.457 119.649 170.19C119.649 170.007 119.592 169.856 119.477 169.732C119.362 169.608 119.146 169.497 118.834 169.393L117.91 169.099C117.445 168.949 117.101 168.727 116.891 168.433C116.68 168.146 116.572 167.826 116.572 167.486C116.572 167.212 116.629 166.97 116.744 166.761C116.859 166.552 117.012 166.369 117.203 166.226C117.394 166.076 117.61 165.965 117.865 165.886C118.12 165.808 118.388 165.775 118.668 165.775C118.808 165.775 118.955 165.782 119.095 165.801C119.241 165.821 119.375 165.847 119.509 165.873C119.636 165.906 119.757 165.938 119.872 165.978C119.987 166.017 120.076 166.056 120.14 166.095C120.229 166.147 120.293 166.2 120.331 166.258C120.369 166.311 120.388 166.383 120.388 166.474V166.781C120.388 166.918 120.337 166.99 120.242 166.99C120.191 166.99 120.108 166.964 120 166.911C119.636 166.742 119.229 166.657 118.776 166.657C118.413 166.657 118.127 166.716 117.929 166.84C117.732 166.964 117.63 167.153 117.63 167.421C117.63 167.604 117.693 167.76 117.821 167.884C117.948 168.008 118.184 168.133 118.522 168.244L119.426 168.537C119.885 168.688 120.216 168.897 120.414 169.164C120.611 169.432 120.707 169.739 120.707 170.078C120.707 170.359 120.649 170.614 120.541 170.836C120.426 171.058 120.274 171.254 120.076 171.411C119.879 171.574 119.643 171.691 119.369 171.776C119.082 171.868 118.783 171.913 118.458 171.913Z" fill="white"/>
<path fill-rule="evenodd" clip-rule="evenodd" d="M119.661 175.101C117.565 176.688 114.52 177.53 111.901 177.53C108.232 177.53 104.925 176.139 102.428 173.828C102.23 173.645 102.409 173.397 102.644 173.54C105.346 175.147 108.678 176.12 112.124 176.12C114.45 176.12 117.004 175.623 119.355 174.605C119.706 174.442 120.005 174.84 119.661 175.101Z" fill="white"/>
<path fill-rule="evenodd" clip-rule="evenodd" d="M120.534 174.079C120.266 173.726 118.763 173.909 118.081 173.994C117.877 174.02 117.845 173.837 118.03 173.7C119.228 172.838 121.196 173.086 121.426 173.373C121.655 173.667 121.362 175.685 120.241 176.652C120.069 176.802 119.903 176.723 119.98 176.527C120.234 175.881 120.801 174.425 120.534 174.079Z" fill="white"/>
</g>
<rect x="172.937" y="38.2172" width="27.8055" height="27.8055" rx="4.46276" fill="url(#paint8_linear_8269_62036)"/>
<rect x="172.937" y="38.2172" width="27.8055" height="27.8055" rx="4.46276" stroke="url(#paint9_linear_8269_62036)" stroke-width="0.514482"/>
<path fill-rule="evenodd" clip-rule="evenodd" d="M179.785 47.2433C179.416 47.2433 179.117 47.5422 179.117 47.9109V50.8276C179.117 51.1963 179.416 51.4951 179.785 51.4951H193.411C193.78 51.4951 194.078 51.1963 194.078 50.8276V47.9109C194.078 47.5422 193.78 47.2433 193.411 47.2433H179.785ZM192.546 49.3707C192.546 49.8492 192.158 50.2371 191.68 50.2371C191.201 50.2371 190.813 49.8492 190.813 49.3707C190.813 48.8922 191.201 48.5043 191.68 48.5043C192.158 48.5043 192.546 48.8922 192.546 49.3707ZM180.284 49.3704C180.284 49.186 180.434 49.0366 180.618 49.0366H184.531C184.715 49.0366 184.865 49.186 184.865 49.3704C184.865 49.5547 184.715 49.7042 184.531 49.7042H180.618C180.434 49.7042 180.284 49.5547 180.284 49.3704Z" fill="white"/>
<path fill-rule="evenodd" clip-rule="evenodd" d="M179.785 52.8303C179.416 52.8303 179.117 53.1291 179.117 53.4978V56.4145C179.117 56.7832 179.416 57.0821 179.785 57.0821H193.411C193.78 57.0821 194.078 56.7832 194.078 56.4145V53.4978C194.078 53.1291 193.78 52.8303 193.411 52.8303H179.785ZM192.546 54.9558C192.546 55.4343 192.158 55.8222 191.68 55.8222C191.201 55.8222 190.813 55.4343 190.813 54.9558C190.813 54.4773 191.201 54.0894 191.68 54.0894C192.158 54.0894 192.546 54.4773 192.546 54.9558ZM180.284 54.9555C180.284 54.7712 180.434 54.6217 180.618 54.6217H184.531C184.715 54.6217 184.865 54.7712 184.865 54.9555C184.865 55.1399 184.715 55.2893 184.531 55.2893H180.618C180.434 55.2893 180.284 55.1399 180.284 54.9555Z" fill="white"/>
<rect x="28.7397" y="38.2172" width="27.8055" height="27.8055" rx="4.46276" fill="url(#paint10_linear_8269_62036)"/>
<rect x="28.7397" y="38.2172" width="27.8055" height="27.8055" rx="4.46276" stroke="url(#paint11_linear_8269_62036)" stroke-width="0.514482"/>
<path fill-rule="evenodd" clip-rule="evenodd" d="M35.5875 47.2433C35.2188 47.2433 34.9199 47.5422 34.9199 47.9109V50.8276C34.9199 51.1963 35.2188 51.4951 35.5875 51.4951H49.2136C49.5822 51.4951 49.8811 51.1963 49.8811 50.8276V47.9109C49.8811 47.5422 49.5822 47.2433 49.2136 47.2433H35.5875ZM48.3488 49.3707C48.3488 49.8492 47.9609 50.2371 47.4824 50.2371C47.0039 50.2371 46.616 49.8492 46.616 49.3707C46.616 48.8922 47.0039 48.5043 47.4824 48.5043C47.9609 48.5043 48.3488 48.8922 48.3488 49.3707ZM36.087 49.3704C36.087 49.186 36.2365 49.0366 36.4208 49.0366H40.3337C40.518 49.0366 40.6675 49.186 40.6675 49.3704C40.6675 49.5547 40.518 49.7042 40.3337 49.7042H36.4208C36.2365 49.7042 36.087 49.5547 36.087 49.3704Z" fill="white"/>
<path fill-rule="evenodd" clip-rule="evenodd" d="M35.5875 52.8303C35.2188 52.8303 34.9199 53.1291 34.9199 53.4978V56.4145C34.9199 56.7832 35.2188 57.0821 35.5875 57.0821H49.2136C49.5822 57.0821 49.8811 56.7832 49.8811 56.4145V53.4978C49.8811 53.1291 49.5822 52.8303 49.2136 52.8303H35.5875ZM48.3488 54.9558C48.3488 55.4343 47.9609 55.8222 47.4824 55.8222C47.0039 55.8222 46.616 55.4343 46.616 54.9558C46.616 54.4773 47.0039 54.0894 47.4824 54.0894C47.9609 54.0894 48.3488 54.4773 48.3488 54.9558ZM36.087 54.9555C36.087 54.7712 36.2365 54.6217 36.4208 54.6217H40.3337C40.518 54.6217 40.6675 54.7712 40.6675 54.9555C40.6675 55.1399 40.518 55.2893 40.3337 55.2893H36.4208C36.2365 55.2893 36.087 55.1399 36.087 54.9555Z" fill="white"/>
<defs>
<filter id="filter0_f_8269_62036" x="68.7024" y="42.6553" width="90.1773" height="101.075" filterUnits="userSpaceOnUse" color-interpolation-filters="sRGB">
<feFlood flood-opacity="0" result="BackgroundImageFix"/>
<feBlend mode="normal" in="SourceGraphic" in2="BackgroundImageFix" result="shape"/>
<feGaussianBlur stdDeviation="1.84999" result="effect1_foregroundBlur_8269_62036"/>
</filter>
<filter id="filter1_i_8269_62036" x="76.8623" y="47" width="74.2266" height="85.9438" filterUnits="userSpaceOnUse" color-interpolation-filters="sRGB">
<feFlood flood-opacity="0" result="BackgroundImageFix"/>
<feBlend mode="normal" in="SourceGraphic" in2="BackgroundImageFix" result="shape"/>
<feColorMatrix in="SourceAlpha" type="matrix" values="0 0 0 0 0 0 0 0 0 0 0 0 0 0 0 0 0 0 127 0" result="hardAlpha"/>
<feOffset dy="0.616662"/>
<feGaussianBlur stdDeviation="0.616662"/>
<feComposite in2="hardAlpha" operator="arithmetic" k2="-1" k3="1"/>
<feColorMatrix type="matrix" values="0 0 0 0 0 0 0 0 0 0 0 0 0 0 0 0 0 0 1 0"/>
<feBlend mode="normal" in2="shape" result="effect1_innerShadow_8269_62036"/>
</filter>
<filter id="filter2_i_8269_62036" x="83.6689" y="53.1989" width="62.1455" height="73.5864" filterUnits="userSpaceOnUse" color-interpolation-filters="sRGB">
<feFlood flood-opacity="0" result="BackgroundImageFix"/>
<feBlend mode="normal" in="SourceGraphic" in2="BackgroundImageFix" result="shape"/>
<feColorMatrix in="SourceAlpha" type="matrix" values="0 0 0 0 0 0 0 0 0 0 0 0 0 0 0 0 0 0 127 0" result="hardAlpha"/>
<feOffset dy="0.616662"/>
<feGaussianBlur stdDeviation="0.616662"/>
<feComposite in2="hardAlpha" operator="arithmetic" k2="-1" k3="1"/>
<feColorMatrix type="matrix" values="0 0 0 0 0 0 0 0 0 0 0 0 0 0 0 0 0 0 1 0"/>
<feBlend mode="normal" in2="shape" result="effect1_innerShadow_8269_62036"/>
</filter>
<linearGradient id="paint0_linear_8269_62036" x1="183.134" y1="211.383" x2="183.134" y2="314" gradientUnits="userSpaceOnUse">
<stop stop-color="#161C20" stop-opacity="0"/>
<stop offset="1" stop-color="#0E1114"/>
</linearGradient>
<linearGradient id="paint1_linear_8269_62036" x1="114.251" y1="89.8053" x2="114.251" y2="137.629" gradientUnits="userSpaceOnUse">
<stop stop-color="#3B3D3F" stop-opacity="0.5"/>
<stop offset="1" stop-color="#3B3D3F" stop-opacity="0.89"/>
</linearGradient>
<linearGradient id="paint2_linear_8269_62036" x1="113.963" y1="46.4035" x2="113.997" y2="132.518" gradientUnits="userSpaceOnUse">
<stop stop-color="#1E1E1F" stop-opacity="0"/>
<stop offset="1" stop-color="#1E1E1F" stop-opacity="0.8"/>
</linearGradient>
<linearGradient id="paint3_linear_8269_62036" x1="114.305" y1="49.8092" x2="114.305" y2="129.353" gradientUnits="userSpaceOnUse">
<stop stop-color="#3B3D3F" stop-opacity="0.5"/>
<stop offset="1" stop-color="#3B3D3F" stop-opacity="0.8"/>
</linearGradient>
<linearGradient id="paint4_linear_8269_62036" x1="114.731" y1="52.6527" x2="114.761" y2="126.368" gradientUnits="userSpaceOnUse">
<stop stop-color="#1E1E1F" stop-opacity="0"/>
<stop offset="1" stop-color="#1E1E1F" stop-opacity="0.8"/>
</linearGradient>
<linearGradient id="paint5_linear_8269_62036" x1="113.954" y1="55.8092" x2="113.954" y2="122.991" gradientUnits="userSpaceOnUse">
<stop stop-color="#3B3D3F" stop-opacity="0.2"/>
<stop offset="1" stop-color="#3B3D3F" stop-opacity="0.4"/>
</linearGradient>
<linearGradient id="paint6_linear_8269_62036" x1="111.92" y1="154.19" x2="111.92" y2="183.1" gradientUnits="userSpaceOnUse">
<stop stop-color="#161C20"/>
<stop offset="1" stop-color="#0A0D0F"/>
</linearGradient>
<linearGradient id="paint7_linear_8269_62036" x1="111.92" y1="168.635" x2="111.92" y2="183.1" gradientUnits="userSpaceOnUse">
<stop stop-color="#3B3D3F" stop-opacity="0.5"/>
<stop offset="1" stop-color="#3B3D3F" stop-opacity="0.89"/>
</linearGradient>
<linearGradient id="paint8_linear_8269_62036" x1="186.84" y1="37.96" x2="186.84" y2="66.28" gradientUnits="userSpaceOnUse">
<stop stop-color="#161C20"/>
<stop offset="1" stop-color="#0A0D0F"/>
</linearGradient>
<linearGradient id="paint9_linear_8269_62036" x1="186.84" y1="52.1105" x2="186.84" y2="66.28" gradientUnits="userSpaceOnUse">
<stop stop-color="#3B3D3F" stop-opacity="0.5"/>
<stop offset="1" stop-color="#3B3D3F" stop-opacity="0.89"/>
</linearGradient>
<linearGradient id="paint10_linear_8269_62036" x1="42.6424" y1="37.96" x2="42.6424" y2="66.28" gradientUnits="userSpaceOnUse">
<stop stop-color="#161C20"/>
<stop offset="1" stop-color="#0A0D0F"/>
</linearGradient>
<linearGradient id="paint11_linear_8269_62036" x1="42.6424" y1="52.1105" x2="42.6424" y2="66.28" gradientUnits="userSpaceOnUse">
<stop stop-color="#3B3D3F" stop-opacity="0.5"/>
<stop offset="1" stop-color="#3B3D3F" stop-opacity="0.89"/>
</linearGradient>
<clipPath id="clip0_8269_62036">
<rect width="230.1" height="145.73" fill="white" transform="translate(-5.25586 -4.22498)"/>
</clipPath>
<clipPath id="clip1_8269_62036">
<rect width="31.86" height="31.86" fill="white" transform="translate(98.0244 73.47)"/>
</clipPath>
<clipPath id="clip2_8269_62036">
<rect width="19.3676" height="11.8847" fill="white" transform="translate(102.236 165.703)"/>
</clipPath>
</defs>
</svg>
