<svg width="388" height="326" viewBox="0 0 388 326" fill="none" xmlns="http://www.w3.org/2000/svg">
<path d="M181.218 23.6915C186.456 20.6279 189.074 19.0961 191.858 18.4965C194.321 17.966 196.867 17.966 199.33 18.4965C202.114 19.0961 204.733 20.6279 209.97 23.6915L301.827 77.4253C307.064 80.4889 309.683 82.0207 311.587 84.1638C313.272 86.0599 314.545 88.2938 315.323 90.7204C316.203 93.463 316.203 96.5267 316.203 102.654V210.122C316.203 216.249 316.203 219.312 315.323 222.055C314.545 224.482 313.272 226.715 311.587 228.612C309.683 230.755 307.064 232.286 301.827 235.35L209.97 289.084C204.733 292.148 202.114 293.679 199.33 294.279C196.867 294.809 194.321 294.809 191.858 294.279C189.074 293.679 186.456 292.148 181.218 289.084L89.3617 235.35C84.1245 232.286 81.5059 230.755 79.6015 228.612C77.9164 226.715 76.6435 224.482 75.8653 222.055C74.9858 219.312 74.9858 216.249 74.9858 210.122V102.654C74.9858 96.5267 74.9858 93.463 75.8653 90.7204C76.6435 88.2938 77.9164 86.0599 79.6015 84.1638C81.5059 82.0207 84.1245 80.4889 89.3617 77.4253L181.218 23.6915Z" stroke="#25292C" stroke-linecap="round"/>
<g opacity="0.1">
<path d="M35.1938 -40.7344V257.266" stroke="#3B3D3F"/>
<path d="M75.1938 -40.7344V257.266" stroke="#3B3D3F"/>
<path d="M115.194 -40.7344V257.266" stroke="#3B3D3F"/>
<path d="M155.194 -40.7344V257.266" stroke="#3B3D3F"/>
<path d="M195.194 -40.7344V257.266" stroke="#3B3D3F"/>
<path d="M235.194 -40.7344V257.266" stroke="#3B3D3F"/>
<path d="M275.194 -40.7344V257.266" stroke="#3B3D3F"/>
<path d="M315.194 -40.7344V257.266" stroke="#3B3D3F"/>
<path d="M355.194 -40.7344V257.266" stroke="#3B3D3F"/>
<g clip-path="url(#clip0_8269_78593)">
<rect x="-4.55615" y="37.75" width="389.5" height="0.5" fill="#3B3D3F" stroke="#3B3D3F" stroke-width="0.5"/>
<rect x="-4.55615" y="78.75" width="389.5" height="0.5" fill="#3B3D3F" stroke="#3B3D3F" stroke-width="0.5"/>
<rect x="-4.55615" y="119.75" width="389.5" height="0.5" fill="#3B3D3F" stroke="#3B3D3F" stroke-width="0.5"/>
<rect x="-4.55615" y="160.75" width="389.5" height="0.5" fill="#3B3D3F" stroke="#3B3D3F" stroke-width="0.5"/>
<rect x="-4.55615" y="201.75" width="389.5" height="0.5" fill="#3B3D3F" stroke="#3B3D3F" stroke-width="0.5"/>
<rect x="-4.55615" y="242.75" width="389.5" height="0.5" fill="#3B3D3F" stroke="#3B3D3F" stroke-width="0.5"/>
</g>
</g>
<circle cx="243.119" cy="44.2831" r="2" fill="#3B3D3F"/>
<circle cx="314.201" cy="223.38" r="2" fill="#3B3D3F"/>
<path d="M72.9839 91.3331L193.103 156.513M313.224 91.3331L193.103 156.513M193.103 156.513V279.067" stroke="#25292C" stroke-linecap="round"/>
<circle cx="76.3901" cy="223.383" r="2" fill="#3B3D3F"/>
<rect x="-6.3335" y="223.383" width="400" height="102.617" fill="url(#paint0_linear_8269_78593)"/>
<g filter="url(#filter0_f_8269_78593)">
<path d="M188.584 83.6295C191.818 81.7625 195.802 81.7625 199.036 83.6295L258.734 118.096C261.968 119.963 263.96 123.414 263.96 127.148V196.081C263.96 199.815 261.968 203.266 258.734 205.133L199.036 239.599C195.802 241.467 191.818 241.467 188.584 239.599L128.886 205.133C125.652 203.266 123.66 199.815 123.66 196.081V127.148C123.66 123.414 125.652 119.963 128.886 118.096L188.584 83.6295Z" fill="#0A0D0F"/>
</g>
<path d="M185.709 80.6671C188.786 78.8908 190.226 78.0664 191.745 77.7435C193.106 77.4542 194.513 77.4542 195.874 77.7435C197.393 78.0664 198.833 78.8908 201.91 80.6671L255.337 111.513C258.413 113.289 259.847 114.124 260.887 115.278C261.818 116.313 262.521 117.531 262.951 118.854C263.431 120.331 263.437 121.991 263.437 125.543V187.235C263.437 190.788 263.431 192.447 262.951 193.924C262.521 195.248 261.818 196.466 260.887 197.5C259.847 198.654 258.413 199.489 255.337 201.265L201.91 232.111C198.833 233.888 197.393 234.712 195.874 235.035C194.513 235.324 193.106 235.324 191.745 235.035C190.226 234.712 188.786 233.888 185.709 232.111L132.282 201.265C129.206 199.489 127.772 198.654 126.733 197.5C125.802 196.466 125.098 195.248 124.668 193.924C124.188 192.447 124.182 190.788 124.182 187.235V125.543C124.182 121.991 124.188 120.331 124.668 118.854C125.098 117.531 125.802 116.313 126.733 115.278C127.772 114.124 129.206 113.289 132.282 111.513L185.709 80.6671Z" fill="#0A0D0F" stroke="url(#paint1_linear_8269_78593)" stroke-width="1.04519"/>
<g filter="url(#filter1_i_8269_78593)">
<path d="M192.138 84.7134C192.747 84.3617 193.051 84.1858 193.375 84.117C193.662 84.0561 193.958 84.0561 194.245 84.117C194.568 84.1858 194.873 84.3617 195.482 84.7134L255.042 119.1C255.651 119.451 255.956 119.627 256.177 119.873C256.373 120.091 256.521 120.347 256.612 120.626C256.714 120.941 256.714 121.293 256.714 121.996V190.769C256.714 191.472 256.714 191.824 256.612 192.139C256.521 192.417 256.373 192.674 256.177 192.892C255.956 193.138 255.651 193.313 255.042 193.665L195.482 228.051C194.873 228.403 194.568 228.579 194.245 228.648C193.958 228.709 193.662 228.709 193.375 228.648C193.051 228.579 192.747 228.403 192.138 228.051L132.578 193.665C131.969 193.313 131.664 193.138 131.443 192.892C131.247 192.674 131.099 192.417 131.008 192.139C130.906 191.824 130.906 191.472 130.906 190.769V121.996C130.906 121.293 130.906 120.941 131.008 120.626C131.099 120.347 131.247 120.091 131.443 119.873C131.664 119.627 131.969 119.451 132.578 119.1L192.138 84.7134Z" fill="#060809"/>
</g>
<path d="M193.484 84.6281L193.375 84.117L193.484 84.6281C193.699 84.5825 193.921 84.5825 194.136 84.6281C194.36 84.6757 194.581 84.7966 195.221 85.166L195.482 84.7136L195.221 85.166L254.78 119.552C255.42 119.922 255.636 120.053 255.789 120.223C255.936 120.386 256.047 120.579 256.115 120.788C256.185 121.005 256.191 121.257 256.191 121.996V190.769C256.191 191.507 256.185 191.76 256.115 191.977C256.047 192.186 255.936 192.379 255.789 192.542C255.636 192.712 255.42 192.843 254.78 193.213L195.221 227.599C194.581 227.968 194.36 228.089 194.136 228.137C193.921 228.182 193.699 228.182 193.484 228.137C193.26 228.089 193.039 227.968 192.399 227.599L132.839 193.213C132.2 192.843 131.984 192.712 131.831 192.542C131.684 192.379 131.573 192.186 131.505 191.977C131.434 191.76 131.428 191.507 131.428 190.769V121.996C131.428 121.257 131.434 121.005 131.505 120.788C131.573 120.579 131.684 120.386 131.831 120.223C131.984 120.053 132.2 119.922 132.839 119.552L192.399 85.166C193.039 84.7966 193.26 84.6757 193.484 84.6281Z" stroke="url(#paint2_linear_8269_78593)" stroke-width="1.04519"/>
<path d="M135.969 190.281C136.191 190.527 136.495 190.703 137.104 191.055L192.138 222.829C192.747 223.18 193.052 223.356 193.376 223.425C193.662 223.486 193.959 223.486 194.245 223.425L135.969 190.281ZM135.969 190.281C135.773 190.063 135.625 189.807 135.534 189.528M135.969 190.281L135.534 189.528M135.534 189.528C135.432 189.213 135.432 188.862 135.432 188.158M135.534 189.528L135.432 188.158M135.432 188.158V124.61M135.432 188.158V124.61M135.432 124.61C135.432 123.907 135.432 123.555 135.534 123.24M135.432 124.61L135.534 123.24M135.534 123.24C135.625 122.962 135.773 122.705 135.969 122.487L135.534 123.24ZM192.399 90.3923C193.039 90.0229 193.261 89.902 193.485 89.8545C193.699 89.8088 193.922 89.8088 194.136 89.8545C194.36 89.902 194.582 90.0229 195.221 90.3923L250.255 122.166C250.895 122.536 251.111 122.667 251.264 122.837C251.411 123 251.522 123.193 251.589 123.402C251.66 123.619 251.666 123.871 251.666 124.61V188.158C251.666 188.897 251.66 189.149 251.589 189.367C251.522 189.576 251.411 189.768 251.264 189.931C251.111 190.101 250.895 190.233 250.255 190.602L195.221 222.376C194.582 222.745 194.36 222.866 194.136 222.914C193.922 222.96 193.699 222.96 193.484 222.914C193.261 222.866 193.039 222.745 192.399 222.376L137.366 190.602C136.726 190.233 136.51 190.101 136.357 189.931L135.969 190.281L136.357 189.931C136.21 189.768 136.099 189.576 136.031 189.367C135.961 189.149 135.955 188.897 135.955 188.158V124.61C135.955 123.871 135.961 123.619 136.031 123.402C136.099 123.193 136.21 123 136.357 122.837C136.51 122.667 136.726 122.536 137.366 122.166L192.399 90.3923Z" fill="#0A0D0F" stroke="url(#paint3_linear_8269_78593)" stroke-width="1.04519"/>
<g filter="url(#filter2_i_8269_78593)">
<path d="M192.11 95.2116C192.729 94.8464 193.038 94.6638 193.368 94.5924C193.659 94.5292 193.961 94.5292 194.253 94.5924C194.582 94.6638 194.892 94.8464 195.51 95.2116L244.831 124.325C245.43 124.679 245.73 124.856 245.948 125.101C246.141 125.318 246.286 125.573 246.375 125.849C246.476 126.161 246.476 126.509 246.476 127.205V185.562C246.476 186.258 246.476 186.606 246.375 186.919C246.286 187.195 246.141 187.45 245.948 187.667C245.73 187.912 245.43 188.089 244.831 188.442L195.51 217.556C194.892 217.921 194.582 218.104 194.253 218.175C193.961 218.238 193.659 218.238 193.368 218.175C193.038 218.104 192.729 217.921 192.11 217.556L142.789 188.442C142.19 188.089 141.89 187.912 141.672 187.667C141.48 187.45 141.334 187.195 141.245 186.919C141.145 186.606 141.145 186.258 141.145 185.562V127.205C141.145 126.509 141.145 126.161 141.245 125.849C141.334 125.573 141.48 125.318 141.672 125.101C141.89 124.856 142.19 124.679 142.789 124.325L192.11 95.2116Z" fill="#060809"/>
</g>
<path d="M192.376 95.6617C193.025 95.2781 193.251 95.1525 193.478 95.1032C193.697 95.0558 193.923 95.0558 194.142 95.1032C194.37 95.1525 194.595 95.2781 195.245 95.6616L244.565 124.775C245.195 125.147 245.407 125.279 245.557 125.448L245.948 125.101L245.557 125.448C245.702 125.611 245.811 125.802 245.878 126.009C245.947 126.225 245.953 126.475 245.953 127.205V185.562C245.953 186.293 245.947 186.543 245.878 186.758C245.811 186.966 245.702 187.157 245.557 187.319C245.407 187.489 245.195 187.621 244.565 187.992L195.245 217.106C194.595 217.49 194.37 217.615 194.142 217.665C193.923 217.712 193.697 217.712 193.478 217.665C193.251 217.615 193.025 217.49 192.376 217.106L143.055 187.992C142.426 187.621 142.214 187.489 142.063 187.319C141.919 187.157 141.81 186.966 141.743 186.758C141.673 186.543 141.668 186.293 141.668 185.562V127.205C141.668 126.475 141.673 126.225 141.743 126.009C141.81 125.802 141.919 125.611 142.063 125.448C142.214 125.279 142.426 125.147 143.055 124.775L192.376 95.6617L192.11 95.2116L192.376 95.6617Z" stroke="url(#paint4_linear_8269_78593)" stroke-width="1.04519"/>
<g filter="url(#filter3_i_8269_78593)">
<path d="M192.138 95.1782C192.747 94.8265 193.052 94.6506 193.376 94.5818C193.662 94.5209 193.958 94.5209 194.245 94.5818C194.569 94.6506 194.873 94.8265 195.483 95.1782L245.986 124.335C246.595 124.687 246.9 124.863 247.121 125.109C247.317 125.327 247.466 125.583 247.556 125.862C247.658 126.177 247.658 126.528 247.658 127.232V185.546C247.658 186.249 247.658 186.601 247.556 186.916C247.466 187.194 247.317 187.451 247.121 187.668C246.9 187.914 246.595 188.09 245.986 188.442L195.483 217.599C194.873 217.951 194.569 218.127 194.245 218.195C193.958 218.256 193.662 218.256 193.376 218.195C193.052 218.127 192.747 217.951 192.138 217.599L141.635 188.442C141.026 188.09 140.721 187.914 140.499 187.668C140.303 187.451 140.155 187.194 140.065 186.916C139.962 186.601 139.962 186.249 139.962 185.546V127.232C139.962 126.528 139.962 126.177 140.065 125.862C140.155 125.583 140.303 125.327 140.499 125.109C140.721 124.863 141.026 124.687 141.635 124.335L192.138 95.1782Z" fill="#060809"/>
</g>
<path d="M192.399 95.6308C193.039 95.2615 193.261 95.1405 193.484 95.093C193.699 95.0473 193.921 95.0473 194.136 95.093C194.36 95.1405 194.582 95.2615 195.221 95.6308L245.725 124.788C246.365 125.157 246.58 125.289 246.733 125.459C246.88 125.622 246.991 125.814 247.059 126.023C247.13 126.241 247.136 126.493 247.136 127.232V185.546C247.136 186.284 247.13 186.537 247.059 186.754C246.991 186.963 246.88 187.155 246.733 187.319C246.58 187.489 246.365 187.62 245.725 187.989L195.221 217.146C194.582 217.516 194.36 217.637 194.136 217.684C193.921 217.73 193.699 217.73 193.484 217.684C193.261 217.637 193.039 217.516 192.399 217.146L141.896 187.989C141.256 187.62 141.041 187.489 140.888 187.319C140.741 187.155 140.63 186.963 140.562 186.754C140.491 186.537 140.485 186.284 140.485 185.546V127.232C140.485 126.493 140.491 126.241 140.562 126.023C140.63 125.814 140.741 125.622 140.888 125.459C141.041 125.289 141.256 125.157 141.896 124.788L192.399 95.6308Z" stroke="url(#paint5_linear_8269_78593)" stroke-width="1.04519"/>
<path d="M192.897 101.095C193.537 100.725 193.758 100.604 193.982 100.557C194.197 100.511 194.419 100.511 194.634 100.557C194.857 100.604 195.079 100.725 195.719 101.095L241.682 127.631C242.322 128 242.537 128.131 242.69 128.301C242.837 128.465 242.949 128.657 243.016 128.866C243.087 129.083 243.093 129.336 243.093 130.074V183.146C243.093 183.885 243.087 184.137 243.016 184.355C242.949 184.564 242.837 184.756 242.69 184.919C242.537 185.089 242.322 185.221 241.682 185.59L195.719 212.126C195.079 212.495 194.857 212.616 194.634 212.664C194.419 212.709 194.197 212.709 193.982 212.664C193.758 212.616 193.537 212.495 192.897 212.126L146.934 185.59C146.294 185.221 146.078 185.089 145.925 184.919L145.537 185.269L145.925 184.919C145.778 184.756 145.667 184.564 145.599 184.355C145.529 184.137 145.523 183.885 145.523 183.146V130.074C145.523 129.336 145.529 129.083 145.599 128.866C145.667 128.657 145.778 128.465 145.925 128.301C146.078 128.131 146.294 128 146.934 127.631L192.897 101.095Z" fill="#0A0D0F" stroke="url(#paint6_linear_8269_78593)" stroke-width="1.04519"/>
<g clip-path="url(#clip1_8269_78593)">
<mask id="mask0_8269_78593" style="mask-type:luminance" maskUnits="userSpaceOnUse" x="161" y="134" width="66" height="72">
<path d="M161.454 134.964H226.452V205.797H161.454V134.964Z" fill="white"/>
</mask>
<g mask="url(#mask0_8269_78593)">
<path d="M183.885 157.443L180.465 155.315L180.537 158.567L183.957 160.695L183.885 157.443ZM188.811 168.826L188.74 165.646L185.75 163.78C185.703 163.756 185.655 163.709 185.631 163.685L185.703 166.889L188.811 168.826ZM178.122 173.107L170.302 168.252L170.111 160.121L173.937 158.471L173.865 155.219L167.743 157.85C167.265 158.065 166.978 158.495 167.002 158.998L167.241 168.754C167.241 169.257 167.552 169.759 168.03 170.046L177.404 175.857C177.835 176.12 178.361 176.192 178.815 176.072C178.863 176.048 178.911 176.048 178.959 176.024L184.722 173.537L181.589 171.6L178.122 173.107Z" fill="#FF5500"/>
</g>
<mask id="mask1_8269_78593" style="mask-type:luminance" maskUnits="userSpaceOnUse" x="161" y="134" width="66" height="72">
<path d="M161.454 134.964H226.452V205.797H161.454V134.964Z" fill="white"/>
</mask>
<g mask="url(#mask1_8269_78593)">
<path d="M203.398 155.123C203.374 154.55 203.04 153.952 202.466 153.617L191.083 146.562L190.724 146.706L190.796 150.125L199.811 155.721L200.027 164.856L203.47 166.985L203.661 166.913L203.398 155.123ZM189.767 171.17L179.174 164.617L178.911 153.617L183.741 151.536L183.645 147.734L176.16 150.962C175.61 151.202 175.276 151.704 175.3 152.302L175.61 165.215C175.61 165.813 175.969 166.387 176.543 166.722L188.954 174.422C189.457 174.733 190.078 174.829 190.604 174.661C190.652 174.637 190.7 174.613 190.748 174.613L198.066 171.457L194.431 169.209L189.767 171.17Z" fill="#FF5500"/>
</g>
<mask id="mask2_8269_78593" style="mask-type:luminance" maskUnits="userSpaceOnUse" x="161" y="134" width="66" height="72">
<path d="M161.454 134.964H226.452V205.797H161.454V134.964Z" fill="white"/>
</mask>
<g mask="url(#mask2_8269_78593)">
<path d="M219.541 146.084L203.638 136.232C203.04 135.873 202.346 135.777 201.749 135.968C201.701 135.992 201.629 136.016 201.581 136.04L186.061 142.736C185.439 142.999 185.057 143.573 185.081 144.267L185.463 160.815C185.487 161.485 185.894 162.154 186.539 162.537L202.442 172.389C203.016 172.748 203.733 172.844 204.331 172.652C204.379 172.628 204.451 172.605 204.499 172.581L220.019 165.885C220.641 165.622 221.023 165.024 220.999 164.354L220.617 147.806C220.593 147.136 220.186 146.491 219.541 146.084ZM203.375 168.683L189.553 160.121L189.218 145.749L202.705 139.938L216.527 148.499L216.862 162.872L203.375 168.683Z" fill="#FF5500"/>
</g>
</g>
<path d="M167.338 312.081L167.326 312.074L167.313 312.068C161.369 309.391 157.231 303.406 157.231 296.453C157.231 287.001 164.876 279.341 174.304 279.341C175.784 279.341 177.144 278.428 177.692 277.05C180.399 270.244 187.033 265.436 194.786 265.436C204.945 265.436 213.181 273.689 213.181 283.872C213.181 285.957 214.74 287.95 216.931 287.95H217.581C224.637 287.95 230.359 293.683 230.359 300.757C230.359 307.831 224.637 313.564 217.581 313.564H173.313C171.154 313.564 169.121 313.028 167.338 312.081Z" fill="url(#paint7_linear_8269_78593)" stroke="url(#paint8_linear_8269_78593)" stroke-width="0.872003"/>
<g clip-path="url(#clip2_8269_78593)">
<path d="M186.127 293.35C186.127 293.76 186.17 294.092 186.246 294.335C186.332 294.579 186.44 294.845 186.591 295.132C186.645 295.221 186.667 295.309 186.667 295.387C186.667 295.498 186.602 295.608 186.462 295.719L185.781 296.184C185.684 296.25 185.587 296.283 185.501 296.283C185.393 296.283 185.285 296.228 185.177 296.128C185.025 295.962 184.896 295.785 184.788 295.608C184.68 295.42 184.572 295.21 184.453 294.955C183.611 295.973 182.553 296.483 181.279 296.483C180.371 296.483 179.648 296.217 179.119 295.686C178.59 295.154 178.32 294.446 178.32 293.561C178.32 292.62 178.644 291.856 179.302 291.281C179.961 290.705 180.836 290.417 181.948 290.417C182.315 290.417 182.693 290.451 183.093 290.506C183.492 290.561 183.902 290.65 184.334 290.749V289.941C184.334 289.1 184.162 288.514 183.827 288.171C183.481 287.827 182.898 287.661 182.067 287.661C181.689 287.661 181.3 287.706 180.901 287.805C180.501 287.905 180.112 288.027 179.734 288.182C179.562 288.259 179.432 288.303 179.356 288.326C179.281 288.348 179.227 288.359 179.184 288.359C179.033 288.359 178.957 288.248 178.957 288.016V287.473C178.957 287.296 178.979 287.163 179.033 287.086C179.086 287.008 179.184 286.931 179.335 286.854C179.713 286.654 180.166 286.488 180.695 286.355C181.225 286.212 181.786 286.145 182.38 286.145C183.665 286.145 184.604 286.444 185.209 287.042C185.803 287.639 186.105 288.547 186.105 289.764V293.35H186.127ZM181.743 295.033C182.099 295.033 182.466 294.966 182.855 294.833C183.244 294.701 183.589 294.457 183.881 294.125C184.054 293.915 184.183 293.682 184.248 293.417C184.313 293.151 184.356 292.83 184.356 292.454V291.989C184.043 291.912 183.708 291.845 183.363 291.801C183.017 291.757 182.682 291.734 182.348 291.734C181.624 291.734 181.095 291.878 180.739 292.177C180.382 292.476 180.21 292.897 180.21 293.45C180.21 293.97 180.339 294.358 180.609 294.623C180.868 294.9 181.246 295.033 181.743 295.033ZM190.414 296.228C190.219 296.228 190.09 296.195 190.003 296.117C189.917 296.051 189.841 295.896 189.777 295.686L187.239 287.13C187.174 286.909 187.142 286.765 187.142 286.688C187.142 286.51 187.228 286.411 187.401 286.411H188.459C188.664 286.411 188.805 286.444 188.88 286.521C188.967 286.588 189.032 286.743 189.096 286.953L190.91 294.28L192.595 286.953C192.649 286.732 192.714 286.588 192.8 286.521C192.887 286.455 193.038 286.411 193.232 286.411H194.096C194.301 286.411 194.441 286.444 194.528 286.521C194.614 286.588 194.69 286.743 194.733 286.953L196.439 294.369L198.307 286.953C198.372 286.732 198.448 286.588 198.523 286.521C198.61 286.455 198.75 286.411 198.944 286.411H199.949C200.121 286.411 200.218 286.499 200.218 286.688C200.218 286.743 200.208 286.798 200.197 286.865C200.186 286.931 200.165 287.02 200.121 287.141L197.519 295.697C197.454 295.918 197.379 296.062 197.292 296.128C197.206 296.195 197.065 296.239 196.882 296.239H195.953C195.748 296.239 195.608 296.206 195.521 296.128C195.435 296.051 195.359 295.907 195.316 295.686L193.642 288.547L191.979 295.675C191.926 295.896 191.861 296.04 191.774 296.117C191.688 296.195 191.537 296.228 191.342 296.228H190.414ZM204.289 296.527C203.728 296.527 203.166 296.46 202.626 296.328C202.087 296.195 201.665 296.051 201.385 295.885C201.212 295.785 201.093 295.675 201.05 295.575C201.007 295.475 200.985 295.365 200.985 295.265V294.701C200.985 294.468 201.072 294.358 201.234 294.358C201.298 294.358 201.363 294.369 201.428 294.391C201.493 294.413 201.59 294.457 201.698 294.501C202.065 294.667 202.465 294.8 202.886 294.889C203.318 294.977 203.739 295.022 204.171 295.022C204.851 295.022 205.38 294.9 205.747 294.656C206.114 294.413 206.309 294.059 206.309 293.605C206.309 293.295 206.211 293.04 206.017 292.83C205.823 292.62 205.456 292.432 204.926 292.255L203.361 291.757C202.572 291.502 201.989 291.126 201.633 290.628C201.277 290.141 201.093 289.598 201.093 289.023C201.093 288.558 201.19 288.148 201.385 287.794C201.579 287.44 201.838 287.13 202.162 286.887C202.486 286.632 202.853 286.444 203.285 286.311C203.717 286.178 204.171 286.123 204.646 286.123C204.883 286.123 205.132 286.134 205.369 286.167C205.618 286.201 205.844 286.245 206.071 286.289C206.287 286.344 206.492 286.4 206.687 286.466C206.881 286.533 207.032 286.599 207.14 286.665C207.291 286.754 207.399 286.842 207.464 286.942C207.529 287.031 207.561 287.152 207.561 287.307V287.827C207.561 288.06 207.475 288.182 207.313 288.182C207.226 288.182 207.086 288.137 206.903 288.049C206.287 287.761 205.596 287.617 204.829 287.617C204.214 287.617 203.728 287.717 203.393 287.927C203.058 288.137 202.886 288.458 202.886 288.912C202.886 289.222 202.994 289.488 203.21 289.698C203.426 289.908 203.825 290.119 204.397 290.307L205.931 290.805C206.708 291.059 207.27 291.413 207.604 291.867C207.939 292.321 208.101 292.841 208.101 293.417C208.101 293.893 208.004 294.324 207.82 294.701C207.626 295.077 207.367 295.409 207.032 295.675C206.697 295.951 206.298 296.151 205.834 296.294C205.348 296.449 204.84 296.527 204.289 296.527Z" fill="white"/>
<path fill-rule="evenodd" clip-rule="evenodd" d="M206.33 301.93C202.777 304.619 197.616 306.047 193.178 306.047C186.958 306.047 181.354 303.689 177.121 299.771C176.786 299.462 177.088 299.041 177.488 299.284C182.066 302.007 187.714 303.656 193.556 303.656C197.497 303.656 201.827 302.815 205.812 301.089C206.406 300.812 206.913 301.487 206.33 301.93Z" fill="white"/>
<path fill-rule="evenodd" clip-rule="evenodd" d="M207.809 300.197C207.356 299.599 204.807 299.909 203.652 300.053C203.306 300.097 203.252 299.787 203.565 299.555C205.596 298.094 208.932 298.515 209.321 299.002C209.71 299.5 209.213 302.92 207.312 304.558C207.021 304.812 206.74 304.679 206.87 304.347C207.302 303.252 208.263 300.783 207.809 300.197Z" fill="white"/>
</g>
<rect x="293.825" y="68.436" width="47.128" height="47.128" rx="7.564" fill="url(#paint9_linear_8269_78593)"/>
<rect x="293.825" y="68.436" width="47.128" height="47.128" rx="7.564" stroke="url(#paint10_linear_8269_78593)" stroke-width="0.872003"/>
<path fill-rule="evenodd" clip-rule="evenodd" d="M305.431 83.7344C304.806 83.7344 304.299 84.241 304.299 84.8659V89.8094C304.299 90.4343 304.806 90.9409 305.431 90.9409H328.526C329.151 90.9409 329.657 90.4343 329.657 89.8094V84.8659C329.657 84.241 329.151 83.7344 328.526 83.7344H305.431ZM327.06 87.3401C327.06 88.1512 326.403 88.8086 325.592 88.8086C324.781 88.8086 324.123 88.1512 324.123 87.3401C324.123 86.5291 324.781 85.8716 325.592 85.8716C326.403 85.8716 327.06 86.5291 327.06 87.3401ZM306.277 87.3397C306.277 87.0272 306.53 86.774 306.843 86.774H313.475C313.787 86.774 314.04 87.0272 314.04 87.3397C314.04 87.6521 313.787 87.9054 313.475 87.9054H306.843C306.53 87.9054 306.277 87.6521 306.277 87.3397Z" fill="white"/>
<path fill-rule="evenodd" clip-rule="evenodd" d="M305.431 93.2039C304.806 93.2039 304.299 93.7104 304.299 94.3353V99.2789C304.299 99.9038 304.806 100.41 305.431 100.41H328.526C329.151 100.41 329.657 99.9038 329.657 99.2789V94.3353C329.657 93.7104 329.151 93.2039 328.526 93.2039H305.431ZM327.06 96.8064C327.06 97.6175 326.403 98.2749 325.592 98.2749C324.781 98.2749 324.123 97.6175 324.123 96.8064C324.123 95.9954 324.781 95.3379 325.592 95.3379C326.403 95.3379 327.06 95.9954 327.06 96.8064ZM306.277 96.806C306.277 96.4935 306.53 96.2403 306.843 96.2403H313.475C313.787 96.2403 314.04 96.4935 314.04 96.806C314.04 97.1184 313.787 97.3717 313.475 97.3717H306.843C306.53 97.3717 306.277 97.1184 306.277 96.806Z" fill="white"/>
<rect x="49.4228" y="68.436" width="47.128" height="47.128" rx="7.564" fill="url(#paint11_linear_8269_78593)"/>
<rect x="49.4228" y="68.436" width="47.128" height="47.128" rx="7.564" stroke="url(#paint12_linear_8269_78593)" stroke-width="0.872003"/>
<path fill-rule="evenodd" clip-rule="evenodd" d="M61.0285 83.7344C60.4036 83.7344 59.897 84.241 59.897 84.8659V89.8094C59.897 90.4343 60.4036 90.9409 61.0284 90.9409H84.1235C84.7484 90.9409 85.255 90.4343 85.255 89.8094V84.8659C85.255 84.241 84.7484 83.7344 84.1235 83.7344H61.0285ZM82.6577 87.3401C82.6577 88.1512 82.0002 88.8086 81.1892 88.8086C80.3782 88.8086 79.7207 88.1512 79.7207 87.3401C79.7207 86.5291 80.3782 85.8716 81.1892 85.8716C82.0002 85.8716 82.6577 86.5291 82.6577 87.3401ZM61.8747 87.3397C61.8747 87.0272 62.128 86.774 62.4404 86.774H69.0724C69.3849 86.774 69.6381 87.0272 69.6381 87.3397C69.6381 87.6521 69.3849 87.9054 69.0724 87.9054H62.4404C62.128 87.9054 61.8747 87.6521 61.8747 87.3397Z" fill="white"/>
<path fill-rule="evenodd" clip-rule="evenodd" d="M61.0285 93.2039C60.4036 93.2039 59.897 93.7104 59.897 94.3353V99.2789C59.897 99.9038 60.4036 100.41 61.0284 100.41H84.1235C84.7484 100.41 85.255 99.9038 85.255 99.2789V94.3353C85.255 93.7104 84.7484 93.2039 84.1235 93.2039H61.0285ZM82.6577 96.8064C82.6577 97.6175 82.0002 98.2749 81.1892 98.2749C80.3782 98.2749 79.7207 97.6175 79.7207 96.8064C79.7207 95.9954 80.3782 95.3379 81.1892 95.3379C82.0002 95.3379 82.6577 95.9954 82.6577 96.8064ZM61.8747 96.806C61.8747 96.4935 62.128 96.2403 62.4404 96.2403H69.0724C69.3849 96.2403 69.6381 96.4935 69.6381 96.806C69.6381 97.1184 69.3849 97.3717 69.0724 97.3717H62.4404C62.128 97.3717 61.8747 97.1184 61.8747 96.806Z" fill="white"/>
<defs>
<filter id="filter0_f_8269_78593" x="117.389" y="75.9581" width="152.843" height="171.313" filterUnits="userSpaceOnUse" color-interpolation-filters="sRGB">
<feFlood flood-opacity="0" result="BackgroundImageFix"/>
<feBlend mode="normal" in="SourceGraphic" in2="BackgroundImageFix" result="shape"/>
<feGaussianBlur stdDeviation="3.13557" result="effect1_foregroundBlur_8269_78593"/>
</filter>
<filter id="filter1_i_8269_78593" x="130.906" y="84.0713" width="125.808" height="145.668" filterUnits="userSpaceOnUse" color-interpolation-filters="sRGB">
<feFlood flood-opacity="0" result="BackgroundImageFix"/>
<feBlend mode="normal" in="SourceGraphic" in2="BackgroundImageFix" result="shape"/>
<feColorMatrix in="SourceAlpha" type="matrix" values="0 0 0 0 0 0 0 0 0 0 0 0 0 0 0 0 0 0 127 0" result="hardAlpha"/>
<feOffset dy="1.04519"/>
<feGaussianBlur stdDeviation="1.04519"/>
<feComposite in2="hardAlpha" operator="arithmetic" k2="-1" k3="1"/>
<feColorMatrix type="matrix" values="0 0 0 0 0 0 0 0 0 0 0 0 0 0 0 0 0 0 1 0"/>
<feBlend mode="normal" in2="shape" result="effect1_innerShadow_8269_78593"/>
</filter>
<filter id="filter2_i_8269_78593" x="141.145" y="94.545" width="105.331" height="124.723" filterUnits="userSpaceOnUse" color-interpolation-filters="sRGB">
<feFlood flood-opacity="0" result="BackgroundImageFix"/>
<feBlend mode="normal" in="SourceGraphic" in2="BackgroundImageFix" result="shape"/>
<feColorMatrix in="SourceAlpha" type="matrix" values="0 0 0 0 0 0 0 0 0 0 0 0 0 0 0 0 0 0 127 0" result="hardAlpha"/>
<feOffset dy="1.04519"/>
<feGaussianBlur stdDeviation="1.04519"/>
<feComposite in2="hardAlpha" operator="arithmetic" k2="-1" k3="1"/>
<feColorMatrix type="matrix" values="0 0 0 0 0 0 0 0 0 0 0 0 0 0 0 0 0 0 1 0"/>
<feBlend mode="normal" in2="shape" result="effect1_innerShadow_8269_78593"/>
</filter>
<filter id="filter3_i_8269_78593" x="139.962" y="94.5361" width="107.696" height="124.75" filterUnits="userSpaceOnUse" color-interpolation-filters="sRGB">
<feFlood flood-opacity="0" result="BackgroundImageFix"/>
<feBlend mode="normal" in="SourceGraphic" in2="BackgroundImageFix" result="shape"/>
<feColorMatrix in="SourceAlpha" type="matrix" values="0 0 0 0 0 0 0 0 0 0 0 0 0 0 0 0 0 0 127 0" result="hardAlpha"/>
<feOffset dy="1.04519"/>
<feGaussianBlur stdDeviation="1.04519"/>
<feComposite in2="hardAlpha" operator="arithmetic" k2="-1" k3="1"/>
<feColorMatrix type="matrix" values="0 0 0 0 0 0 0 0 0 0 0 0 0 0 0 0 0 0 1 0"/>
<feBlend mode="normal" in2="shape" result="effect1_innerShadow_8269_78593"/>
</filter>
<linearGradient id="paint0_linear_8269_78593" x1="193.667" y1="223.383" x2="193.667" y2="326" gradientUnits="userSpaceOnUse">
<stop stop-color="#161C20" stop-opacity="0"/>
<stop offset="1" stop-color="#0E1114"/>
</linearGradient>
<linearGradient id="paint1_linear_8269_78593" x1="193.81" y1="156.335" x2="193.81" y2="237.391" gradientUnits="userSpaceOnUse">
<stop stop-color="#3B3D3F" stop-opacity="0.5"/>
<stop offset="1" stop-color="#3B3D3F" stop-opacity="0.89"/>
</linearGradient>
<linearGradient id="paint2_linear_8269_78593" x1="193.788" y1="83.0602" x2="193.845" y2="229.017" gradientUnits="userSpaceOnUse">
<stop stop-color="#1E1E1F" stop-opacity="0"/>
<stop offset="1" stop-color="#1E1E1F" stop-opacity="0.8"/>
</linearGradient>
<linearGradient id="paint3_linear_8269_78593" x1="193.81" y1="88.9742" x2="193.81" y2="223.794" gradientUnits="userSpaceOnUse">
<stop stop-color="#3B3D3F" stop-opacity="0.5"/>
<stop offset="1" stop-color="#3B3D3F" stop-opacity="0.8"/>
</linearGradient>
<linearGradient id="paint4_linear_8269_78593" x1="193.792" y1="93.6193" x2="193.842" y2="218.56" gradientUnits="userSpaceOnUse">
<stop stop-color="#1E1E1F" stop-opacity="0"/>
<stop offset="1" stop-color="#1E1E1F" stop-opacity="0.8"/>
</linearGradient>
<linearGradient id="paint5_linear_8269_78593" x1="193.791" y1="93.624" x2="193.841" y2="218.564" gradientUnits="userSpaceOnUse">
<stop stop-color="#1E1E1F" stop-opacity="0"/>
<stop offset="1" stop-color="#1E1E1F" stop-opacity="0.8"/>
</linearGradient>
<linearGradient id="paint6_linear_8269_78593" x1="194.308" y1="99.6766" x2="194.308" y2="213.544" gradientUnits="userSpaceOnUse">
<stop stop-color="#3B3D3F" stop-opacity="0.2"/>
<stop offset="1" stop-color="#3B3D3F" stop-opacity="0.4"/>
</linearGradient>
<linearGradient id="paint7_linear_8269_78593" x1="193.795" y1="265" x2="193.795" y2="314" gradientUnits="userSpaceOnUse">
<stop stop-color="#161C20"/>
<stop offset="1" stop-color="#0A0D0F"/>
</linearGradient>
<linearGradient id="paint8_linear_8269_78593" x1="193.795" y1="289.484" x2="193.795" y2="314" gradientUnits="userSpaceOnUse">
<stop stop-color="#3B3D3F" stop-opacity="0.5"/>
<stop offset="1" stop-color="#3B3D3F" stop-opacity="0.89"/>
</linearGradient>
<linearGradient id="paint9_linear_8269_78593" x1="317.389" y1="68" x2="317.389" y2="116" gradientUnits="userSpaceOnUse">
<stop stop-color="#161C20"/>
<stop offset="1" stop-color="#0A0D0F"/>
</linearGradient>
<linearGradient id="paint10_linear_8269_78593" x1="317.389" y1="91.9839" x2="317.389" y2="116" gradientUnits="userSpaceOnUse">
<stop stop-color="#3B3D3F" stop-opacity="0.5"/>
<stop offset="1" stop-color="#3B3D3F" stop-opacity="0.89"/>
</linearGradient>
<linearGradient id="paint11_linear_8269_78593" x1="72.9868" y1="68" x2="72.9868" y2="116" gradientUnits="userSpaceOnUse">
<stop stop-color="#161C20"/>
<stop offset="1" stop-color="#0A0D0F"/>
</linearGradient>
<linearGradient id="paint12_linear_8269_78593" x1="72.9868" y1="91.9839" x2="72.9868" y2="116" gradientUnits="userSpaceOnUse">
<stop stop-color="#3B3D3F" stop-opacity="0.5"/>
<stop offset="1" stop-color="#3B3D3F" stop-opacity="0.89"/>
</linearGradient>
<clipPath id="clip0_8269_78593">
<rect width="390" height="247" fill="white" transform="translate(-4.80615 -3.5)"/>
</clipPath>
<clipPath id="clip1_8269_78593">
<rect width="54" height="54" fill="white" transform="translate(167 129)"/>
</clipPath>
<clipPath id="clip2_8269_78593">
<rect width="32.8264" height="20.1435" fill="white" transform="translate(176.795 286)"/>
</clipPath>
</defs>
</svg>
