<svg width="386" height="326" viewBox="0 0 386 326" fill="none" xmlns="http://www.w3.org/2000/svg">
<g clip-path="url(#clip0_8405_5036)">
<rect x="70.811" y="32.8125" width="243.375" height="243.375" rx="121.688" stroke="#3B3D3F" stroke-dasharray="1 4"/>
<rect opacity="0.1" x="22.9995" y="-15" width="339" height="339" rx="169.5" stroke="url(#paint0_linear_8405_5036)" stroke-linecap="square" stroke-linejoin="round"/>
<rect opacity="0.1" x="42.9995" y="5" width="299" height="299" rx="149.5" stroke="#3B3D3F" stroke-linecap="square" stroke-linejoin="round"/>
<path opacity="0.1" d="M2.99951 154.5C2.99951 49.842 87.8416 -35 192.5 -35V-35C297.157 -35 382 49.842 382 154.5V154.5C382 259.158 297.157 344 192.5 344V344C87.8416 344 2.99951 259.158 2.99951 154.5V154.5Z" stroke="url(#paint1_linear_8405_5036)" stroke-linecap="square" stroke-linejoin="round"/>
<path opacity="0.1" d="M-17.0005 154.5C-17.0005 38.7963 76.7959 -55 192.5 -55V-55C308.203 -55 402 38.7963 402 154.5V154.5C402 270.204 308.203 364 192.5 364V364C76.7959 364 -17.0005 270.204 -17.0005 154.5V154.5Z" stroke="url(#paint2_linear_8405_5036)" stroke-linecap="square" stroke-linejoin="round"/>
<path opacity="0.1" d="M-37.0005 154.5C-37.0005 27.7507 65.7502 -75 192.5 -75V-75C319.249 -75 422 27.7507 422 154.5V154.5C422 281.249 319.249 384 192.5 384V384C65.7502 384 -37.0005 281.249 -37.0005 154.5V154.5Z" stroke="url(#paint3_linear_8405_5036)" stroke-linecap="square" stroke-linejoin="round"/>
<path opacity="0.1" d="M-47.0005 154.5C-47.0005 22.2278 60.2273 -85 192.5 -85V-85C324.772 -85 432 22.2278 432 154.5V154.5C432 286.772 324.772 394 192.5 394V394C60.2273 394 -47.0005 286.772 -47.0005 154.5V154.5Z" stroke="url(#paint4_linear_8405_5036)" stroke-linecap="square" stroke-linejoin="round"/>
<g filter="url(#filter0_f_8405_5036)">
<path d="M190.779 83.6305C194.013 81.7634 197.997 81.7634 201.231 83.6305L260.929 118.097C264.162 119.964 266.155 123.415 266.155 127.149V196.082C266.155 199.816 264.162 203.267 260.929 205.134L201.231 239.6C197.997 241.467 194.013 241.467 190.779 239.6L131.081 205.134C127.847 203.267 125.855 199.816 125.855 196.082V127.149C125.855 123.415 127.847 119.964 131.081 118.097L190.779 83.6305Z" fill="#0A0D0F"/>
</g>
<path d="M187.905 80.6671C190.981 78.8908 192.421 78.0664 193.941 77.7435C195.302 77.4542 196.708 77.4542 198.069 77.7435C199.588 78.0664 201.028 78.8908 204.105 80.6671L257.532 111.513C260.609 113.289 262.043 114.124 263.082 115.278C264.013 116.313 264.716 117.531 265.146 118.854C265.626 120.331 265.632 121.991 265.632 125.543V187.235C265.632 190.788 265.626 192.447 265.146 193.924C264.716 195.248 264.013 196.466 263.082 197.5C262.043 198.654 260.609 199.489 257.532 201.265L204.105 232.111C201.028 233.888 199.588 234.712 198.069 235.035C196.708 235.324 195.302 235.324 193.941 235.035C192.421 234.712 190.981 233.888 187.905 232.111L134.478 201.265C131.401 199.489 129.967 198.654 128.928 197.5C127.997 196.466 127.294 195.248 126.864 193.924C126.384 192.447 126.378 190.788 126.378 187.235V125.543C126.378 121.991 126.384 120.331 126.864 118.854C127.294 117.531 127.997 116.313 128.928 115.278C129.967 114.124 131.401 113.289 134.478 111.513L187.905 80.6671Z" fill="#0A0D0F" stroke="url(#paint5_linear_8405_5036)" stroke-width="1.04519"/>
<g filter="url(#filter1_i_8405_5036)">
<path d="M194.332 84.7144C194.941 84.3626 195.246 84.1868 195.57 84.1179C195.856 84.057 196.152 84.057 196.439 84.1179C196.763 84.1868 197.067 84.3626 197.677 84.7144L257.236 119.101C257.845 119.452 258.15 119.628 258.371 119.874C258.567 120.092 258.716 120.348 258.806 120.627C258.908 120.942 258.908 121.294 258.908 121.997V190.77C258.908 191.473 258.908 191.825 258.806 192.14C258.716 192.418 258.567 192.675 258.371 192.893C258.15 193.139 257.845 193.314 257.236 193.666L197.677 228.052C197.067 228.404 196.763 228.58 196.439 228.649C196.152 228.71 195.856 228.71 195.57 228.649C195.246 228.58 194.941 228.404 194.332 228.052L134.772 193.666C134.163 193.314 133.859 193.139 133.637 192.893C133.441 192.675 133.293 192.418 133.202 192.14C133.1 191.825 133.1 191.473 133.1 190.77V121.997C133.1 121.294 133.1 120.942 133.202 120.627C133.293 120.348 133.441 120.092 133.637 119.874C133.859 119.628 134.163 119.452 134.772 119.101L194.332 84.7144Z" fill="#060809"/>
</g>
<path d="M195.678 84.6291L195.57 84.1179L195.678 84.6291C195.893 84.5834 196.115 84.5834 196.33 84.6291C196.554 84.6767 196.775 84.7976 197.415 85.167L197.676 84.7146L197.415 85.167L256.975 119.553C257.615 119.923 257.83 120.054 257.983 120.224C258.13 120.387 258.241 120.58 258.309 120.789C258.38 121.006 258.386 121.258 258.386 121.997V190.77C258.386 191.508 258.38 191.761 258.309 191.978C258.241 192.187 258.13 192.38 257.983 192.543C257.83 192.713 257.615 192.844 256.975 193.214L197.415 227.6C196.775 227.969 196.554 228.09 196.33 228.138C196.115 228.183 195.893 228.183 195.678 228.138C195.455 228.09 195.233 227.969 194.593 227.6L135.034 193.214C134.394 192.844 134.178 192.713 134.025 192.543C133.878 192.38 133.767 192.187 133.699 191.978C133.629 191.761 133.623 191.508 133.623 190.77V121.997C133.623 121.258 133.629 121.006 133.699 120.789C133.767 120.58 133.878 120.387 134.025 120.224C134.178 120.054 134.394 119.923 135.034 119.553L194.593 85.167C195.233 84.7976 195.455 84.6767 195.678 84.6291Z" stroke="url(#paint6_linear_8405_5036)" stroke-width="1.04519"/>
<path d="M138.163 190.281C138.385 190.527 138.69 190.703 139.299 191.055L194.332 222.829C194.942 223.181 195.246 223.357 195.57 223.425C195.857 223.486 196.153 223.486 196.439 223.425L138.163 190.281ZM138.163 190.281C137.967 190.064 137.819 189.807 137.729 189.529M138.163 190.281L137.729 189.529M137.729 189.529C137.626 189.214 137.626 188.862 137.626 188.158M137.729 189.529L137.626 188.158M137.626 188.158V124.611M137.626 188.158V124.611M137.626 124.611C137.626 123.907 137.626 123.555 137.729 123.24M137.626 124.611L137.729 123.24M137.729 123.24C137.819 122.962 137.967 122.705 138.163 122.488L137.729 123.24ZM194.594 90.3926C195.234 90.0233 195.455 89.9023 195.679 89.8548C195.894 89.8091 196.116 89.8091 196.331 89.8548C196.554 89.9023 196.776 90.0233 197.416 90.3926L252.45 122.167C253.089 122.536 253.305 122.667 253.458 122.837C253.605 123.001 253.716 123.193 253.784 123.402C253.854 123.619 253.861 123.872 253.861 124.611V188.158C253.861 188.897 253.854 189.15 253.784 189.367C253.716 189.576 253.605 189.768 253.458 189.932C253.305 190.102 253.089 190.233 252.45 190.602L197.416 222.376C196.776 222.746 196.554 222.867 196.331 222.914C196.116 222.96 195.894 222.96 195.679 222.914C195.455 222.867 195.234 222.746 194.594 222.376L139.56 190.602C138.92 190.233 138.705 190.102 138.552 189.932L138.164 190.281L138.552 189.932C138.405 189.768 138.294 189.576 138.226 189.367C138.155 189.15 138.149 188.897 138.149 188.158V124.611C138.149 123.872 138.155 123.619 138.226 123.402C138.294 123.193 138.405 123.001 138.552 122.837C138.705 122.667 138.92 122.536 139.56 122.167L194.594 90.3926Z" fill="#0A0D0F" stroke="url(#paint7_linear_8405_5036)" stroke-width="1.04519"/>
<g filter="url(#filter2_i_8405_5036)">
<path d="M194.304 95.2126C194.923 94.8474 195.232 94.6648 195.562 94.5934C195.854 94.5302 196.155 94.5302 196.447 94.5934C196.777 94.6648 197.086 94.8474 197.705 95.2126L247.025 124.326C247.625 124.68 247.925 124.857 248.142 125.102C248.335 125.319 248.481 125.574 248.569 125.85C248.67 126.162 248.67 126.51 248.67 127.206V185.563C248.67 186.259 248.67 186.607 248.569 186.92C248.481 187.196 248.335 187.451 248.142 187.668C247.925 187.913 247.625 188.09 247.025 188.443L197.705 217.557C197.086 217.922 196.777 218.105 196.447 218.176C196.155 218.239 195.854 218.239 195.562 218.176C195.232 218.105 194.923 217.922 194.304 217.557L144.984 188.443C144.384 188.09 144.085 187.913 143.867 187.668C143.674 187.451 143.529 187.196 143.44 186.92C143.339 186.607 143.339 186.259 143.339 185.563V127.206C143.339 126.51 143.339 126.162 143.44 125.85C143.529 125.574 143.674 125.319 143.867 125.102C144.085 124.857 144.384 124.68 144.984 124.326L194.304 95.2126Z" fill="#060809"/>
</g>
<path d="M194.57 95.6626C195.22 95.2791 195.445 95.1534 195.673 95.1041C195.891 95.0568 196.118 95.0568 196.336 95.1041C196.564 95.1534 196.789 95.2791 197.439 95.6626L246.76 124.776C247.389 125.148 247.601 125.28 247.752 125.449L248.142 125.102L247.752 125.449C247.896 125.612 248.005 125.803 248.072 126.01C248.141 126.226 248.147 126.476 248.147 127.206V185.563C248.147 186.294 248.141 186.544 248.072 186.759C248.005 186.967 247.896 187.158 247.752 187.32C247.601 187.49 247.389 187.622 246.76 187.993L197.439 217.107C196.789 217.491 196.564 217.616 196.336 217.666C196.118 217.713 195.891 217.713 195.673 217.666C195.445 217.616 195.22 217.491 194.57 217.107L145.249 187.993C144.62 187.622 144.408 187.49 144.257 187.32C144.113 187.158 144.004 186.967 143.937 186.759C143.868 186.544 143.862 186.294 143.862 185.563V127.206C143.862 126.476 143.868 126.226 143.937 126.01C144.004 125.803 144.113 125.612 144.257 125.449C144.408 125.28 144.62 125.148 145.249 124.776L194.57 95.6626L194.304 95.2126L194.57 95.6626Z" stroke="url(#paint8_linear_8405_5036)" stroke-width="1.04519"/>
<g filter="url(#filter3_i_8405_5036)">
<path d="M194.332 95.1792C194.942 94.8275 195.246 94.6516 195.57 94.5828C195.857 94.5219 196.153 94.5219 196.439 94.5828C196.763 94.6516 197.068 94.8275 197.677 95.1792L248.18 124.336C248.79 124.688 249.094 124.864 249.316 125.11C249.512 125.328 249.66 125.584 249.75 125.863C249.853 126.177 249.853 126.529 249.853 127.233V185.546C249.853 186.25 249.853 186.602 249.75 186.917C249.66 187.195 249.512 187.452 249.316 187.669C249.094 187.915 248.79 188.091 248.18 188.443L197.677 217.6C197.068 217.952 196.763 218.128 196.439 218.196C196.153 218.257 195.857 218.257 195.57 218.196C195.246 218.128 194.942 217.952 194.332 217.6L143.829 188.443C143.22 188.091 142.915 187.915 142.694 187.669C142.498 187.452 142.35 187.195 142.259 186.917C142.157 186.602 142.157 186.25 142.157 185.546V127.233C142.157 126.529 142.157 126.177 142.259 125.863C142.35 125.584 142.498 125.328 142.694 125.11C142.915 124.864 143.22 124.688 143.829 124.336L194.332 95.1792Z" fill="#060809"/>
</g>
<path d="M194.594 95.6318C195.234 95.2624 195.455 95.1415 195.679 95.094C195.894 95.0483 196.116 95.0483 196.331 95.094C196.554 95.1415 196.776 95.2624 197.416 95.6318L247.919 124.789C248.559 125.158 248.774 125.29 248.927 125.46C249.074 125.623 249.186 125.815 249.253 126.024C249.324 126.242 249.33 126.494 249.33 127.233V185.546C249.33 186.285 249.324 186.538 249.253 186.755C249.186 186.964 249.074 187.156 248.927 187.32C248.774 187.49 248.559 187.621 247.919 187.99L197.416 217.147C196.776 217.517 196.554 217.638 196.331 217.685C196.116 217.731 195.894 217.731 195.679 217.685C195.455 217.638 195.234 217.517 194.594 217.147L144.09 187.99C143.451 187.621 143.235 187.49 143.082 187.32C142.935 187.156 142.824 186.964 142.756 186.755C142.685 186.538 142.679 186.285 142.679 185.546V127.233C142.679 126.494 142.685 126.242 142.756 126.024C142.824 125.815 142.935 125.623 143.082 125.46C143.235 125.29 143.451 125.158 144.09 124.789L194.594 95.6318Z" stroke="url(#paint9_linear_8405_5036)" stroke-width="1.04519"/>
<path d="M194.594 100.877C195.233 100.508 195.455 100.387 195.679 100.339C195.894 100.293 196.116 100.293 196.331 100.339C196.554 100.387 196.776 100.508 197.416 100.877L243.379 127.413C244.019 127.782 244.234 127.914 244.387 128.083C244.534 128.247 244.645 128.439 244.713 128.648C244.784 128.866 244.79 129.118 244.79 129.857V182.928C244.79 183.667 244.784 183.919 244.713 184.137C244.645 184.346 244.534 184.538 244.387 184.701C244.234 184.871 244.019 185.003 243.379 185.372L197.416 211.908C196.776 212.277 196.554 212.398 196.331 212.446C196.116 212.491 195.894 212.491 195.679 212.446C195.455 212.398 195.233 212.277 194.594 211.908L148.63 185.372C147.991 185.003 147.775 184.871 147.622 184.701L147.234 185.051L147.622 184.701C147.475 184.538 147.364 184.346 147.296 184.137C147.225 183.919 147.219 183.667 147.219 182.928V129.857C147.219 129.118 147.225 128.866 147.296 128.648C147.364 128.439 147.475 128.247 147.622 128.083C147.775 127.914 147.991 127.782 148.63 127.413L194.594 100.877Z" fill="#0A0D0F" stroke="url(#paint10_linear_8405_5036)" stroke-width="1.04519"/>
<path d="M212.881 136.146H179.131C176.335 136.146 174.069 138.412 174.069 141.208V164.833C174.069 167.629 176.335 169.896 179.131 169.896H212.881C215.677 169.896 217.944 167.629 217.944 164.833V141.208C217.944 138.412 215.677 136.146 212.881 136.146Z" fill="#FFCB5C"/>
<path d="M191.669 154.889C191.881 155.049 192.021 155.285 192.059 155.548C192.096 155.811 192.028 156.077 191.869 156.289C191.71 156.502 191.473 156.642 191.21 156.679C190.948 156.717 190.681 156.649 190.469 156.489L186.469 153.489C186.345 153.396 186.244 153.275 186.174 153.137C186.105 152.998 186.069 152.845 186.069 152.689C186.069 152.534 186.105 152.381 186.174 152.242C186.244 152.103 186.345 151.983 186.469 151.889L190.469 148.889C190.681 148.73 190.948 148.662 191.21 148.699C191.473 148.737 191.71 148.877 191.869 149.089C192.028 149.302 192.096 149.568 192.059 149.831C192.021 150.093 191.881 150.33 191.669 150.489L188.735 152.689L191.669 154.889Z" fill="#0A0D0F"/>
<path d="M199.03 145.964L195.03 159.964C194.996 160.093 194.937 160.213 194.855 160.319C194.774 160.424 194.673 160.512 194.557 160.578C194.442 160.643 194.314 160.685 194.182 160.701C194.05 160.717 193.916 160.706 193.788 160.669C193.661 160.633 193.541 160.571 193.438 160.488C193.334 160.405 193.248 160.302 193.185 160.185C193.121 160.068 193.082 159.94 193.068 159.807C193.055 159.675 193.069 159.542 193.108 159.414L197.108 145.414C197.184 145.164 197.356 144.954 197.587 144.829C197.817 144.704 198.087 144.675 198.339 144.747C198.59 144.819 198.804 144.987 198.933 145.214C199.062 145.442 199.097 145.711 199.03 145.964Z" fill="#0A0D0F"/>
<path d="M205.669 153.489L201.669 156.489C201.457 156.649 201.19 156.717 200.927 156.679C200.665 156.642 200.428 156.502 200.269 156.289C200.11 156.077 200.041 155.811 200.079 155.548C200.116 155.285 200.257 155.049 200.469 154.889L203.403 152.689L200.469 150.489C200.364 150.411 200.275 150.312 200.208 150.199C200.141 150.086 200.097 149.961 200.079 149.831C200.06 149.701 200.068 149.568 200.1 149.441C200.133 149.314 200.19 149.194 200.269 149.089C200.348 148.984 200.446 148.896 200.559 148.829C200.672 148.762 200.797 148.718 200.927 148.699C201.057 148.681 201.19 148.688 201.317 148.721C201.444 148.753 201.564 148.811 201.669 148.889L205.669 151.889C205.793 151.983 205.894 152.103 205.963 152.242C206.033 152.381 206.069 152.534 206.069 152.689C206.069 152.845 206.033 152.998 205.963 153.137C205.894 153.275 205.793 153.396 205.669 153.489Z" fill="#0A0D0F"/>
<path d="M202.819 173.271H189.319C188.871 173.271 188.442 173.448 188.126 173.765C187.809 174.081 187.631 174.51 187.631 174.958C187.631 175.406 187.809 175.835 188.126 176.151C188.442 176.468 188.871 176.646 189.319 176.646H202.819C203.266 176.646 203.696 176.468 204.012 176.151C204.329 175.835 204.506 175.406 204.506 174.958C204.506 174.51 204.329 174.081 204.012 173.765C203.696 173.448 203.266 173.271 202.819 173.271Z" fill="#FFCB5C"/>
<circle cx="77.9985" cy="194.865" r="2" fill="#3B3D3F"/>
<circle cx="258.999" cy="52.03" r="2" fill="#3B3D3F"/>
<rect x="67.4384" y="60.5063" width="47.128" height="47.128" rx="7.564" fill="url(#paint11_linear_8405_5036)"/>
<rect x="67.4384" y="60.5063" width="47.128" height="47.128" rx="7.564" stroke="url(#paint12_linear_8405_5036)" stroke-width="0.872003"/>
<path d="M102.244 92.7007C102.244 92.9314 102.152 93.1525 101.989 93.3156C101.826 93.4787 101.605 93.5703 101.374 93.5703H80.5048C80.2742 93.5703 80.053 93.4787 79.8899 93.3156C79.7269 93.1525 79.6353 92.9314 79.6353 92.7007C79.6353 92.4701 79.7269 92.2489 79.8899 92.0859C80.053 91.9228 80.2742 91.8312 80.5048 91.8312H81.3744V84.8747C81.3744 84.644 81.466 84.4229 81.6291 84.2598C81.7921 84.0967 82.0133 84.0051 82.2439 84.0051H84.8526C85.0833 84.0051 85.3044 84.0967 85.4675 84.2598C85.6306 84.4229 85.7222 84.644 85.7222 84.8747V91.8312H87.4613V79.6573C87.4613 79.4266 87.553 79.2055 87.716 79.0424C87.8791 78.8793 88.1003 78.7877 88.3309 78.7877H91.8092C92.0398 78.7877 92.261 78.8793 92.424 79.0424C92.5871 79.2055 92.6787 79.4266 92.6787 79.6573V91.8312H94.4179V74.4399C94.4179 74.2093 94.5095 73.9881 94.6726 73.825C94.8356 73.6619 95.0568 73.5703 95.2874 73.5703H99.6353C99.8659 73.5703 100.087 73.6619 100.25 73.825C100.413 73.9881 100.505 74.2093 100.505 74.4399V91.8312H101.374C101.605 91.8312 101.826 91.9228 101.989 92.0859C102.152 92.2489 102.244 92.4701 102.244 92.7007Z" fill="white"/>
<rect x="285.091" y="94.0063" width="47.128" height="47.128" rx="7.564" fill="url(#paint13_linear_8405_5036)"/>
<rect x="285.091" y="94.0063" width="47.128" height="47.128" rx="7.564" stroke="url(#paint14_linear_8405_5036)" stroke-width="0.872003"/>
<path d="M320.03 117.758C319.997 117.682 319.187 115.886 317.387 114.085C314.988 111.687 311.958 110.419 308.624 110.419C305.289 110.419 302.259 111.687 299.86 114.085C298.06 115.886 297.246 117.685 297.217 117.758C297.173 117.855 297.151 117.961 297.151 118.068C297.151 118.175 297.173 118.281 297.217 118.379C297.25 118.455 298.06 120.25 299.86 122.05C302.259 124.448 305.289 125.716 308.624 125.716C311.958 125.716 314.988 124.448 317.387 122.05C319.187 120.25 319.997 118.455 320.03 118.379C320.074 118.281 320.096 118.175 320.096 118.068C320.096 117.961 320.074 117.855 320.03 117.758ZM308.624 121.892C307.867 121.892 307.128 121.667 306.499 121.247C305.87 120.827 305.38 120.23 305.09 119.531C304.801 118.832 304.725 118.063 304.873 117.321C305.02 116.579 305.385 115.898 305.919 115.363C306.454 114.828 307.136 114.464 307.877 114.317C308.619 114.169 309.388 114.245 310.087 114.534C310.786 114.824 311.383 115.314 311.803 115.943C312.223 116.572 312.448 117.311 312.448 118.067C312.448 119.082 312.045 120.054 311.328 120.772C310.61 121.489 309.638 121.892 308.624 121.892Z" fill="white"/>
<rect x="169.436" y="253.124" width="47.128" height="47.128" rx="7.564" fill="url(#paint15_linear_8405_5036)"/>
<rect x="169.436" y="253.124" width="47.128" height="47.128" rx="7.564" stroke="url(#paint16_linear_8405_5036)" stroke-width="0.872003"/>
<path d="M201.561 276.9C201.565 276.76 201.565 276.62 201.561 276.48L203.013 274.666C203.089 274.571 203.141 274.459 203.167 274.34C203.192 274.22 203.188 274.097 203.157 273.979C202.918 273.085 202.562 272.226 202.098 271.425C202.037 271.32 201.953 271.231 201.851 271.164C201.75 271.098 201.635 271.056 201.514 271.042L199.206 270.785C199.11 270.684 199.013 270.587 198.914 270.494L198.642 268.18C198.628 268.059 198.586 267.944 198.519 267.842C198.453 267.741 198.363 267.657 198.258 267.596C197.458 267.132 196.599 266.777 195.704 266.539C195.586 266.508 195.463 266.504 195.343 266.529C195.224 266.554 195.112 266.607 195.017 266.683L193.208 268.127C193.068 268.127 192.928 268.127 192.788 268.127L190.974 266.678C190.879 266.602 190.767 266.549 190.648 266.524C190.528 266.499 190.405 266.503 190.287 266.534C189.393 266.773 188.534 267.129 187.733 267.593C187.628 267.654 187.539 267.738 187.473 267.84C187.406 267.941 187.364 268.056 187.35 268.177L187.094 270.489C186.992 270.585 186.895 270.683 186.802 270.781L184.488 271.046C184.367 271.06 184.252 271.102 184.15 271.169C184.049 271.235 183.965 271.325 183.904 271.43C183.44 272.231 183.084 273.089 182.846 273.984C182.815 274.102 182.812 274.225 182.837 274.345C182.862 274.464 182.915 274.576 182.991 274.671L184.435 276.48C184.435 276.62 184.435 276.76 184.435 276.9L182.986 278.714C182.91 278.809 182.857 278.921 182.832 279.04C182.807 279.16 182.811 279.283 182.842 279.401C183.081 280.295 183.437 281.154 183.901 281.955C183.962 282.06 184.046 282.149 184.148 282.215C184.249 282.282 184.364 282.324 184.485 282.338L186.793 282.594C186.89 282.696 186.987 282.793 187.085 282.886L187.354 285.2C187.368 285.321 187.41 285.436 187.477 285.538C187.543 285.639 187.633 285.723 187.738 285.784C188.539 286.248 189.398 286.604 190.292 286.842C190.41 286.873 190.533 286.876 190.653 286.851C190.772 286.826 190.884 286.773 190.979 286.697L192.788 285.253C192.928 285.257 193.068 285.257 193.208 285.253L195.022 286.705C195.117 286.781 195.229 286.833 195.348 286.858C195.468 286.883 195.591 286.88 195.709 286.849C196.604 286.611 197.463 286.255 198.263 285.79C198.368 285.729 198.457 285.645 198.524 285.543C198.59 285.442 198.632 285.326 198.646 285.206L198.903 282.898C199.004 282.802 199.101 282.705 199.194 282.606L201.508 282.334C201.629 282.32 201.744 282.278 201.846 282.211C201.947 282.145 202.031 282.055 202.092 281.95C202.556 281.149 202.912 280.29 203.15 279.396C203.181 279.278 203.184 279.155 203.159 279.035C203.134 278.916 203.081 278.804 203.005 278.709L201.561 276.9ZM192.998 280.582C192.228 280.582 191.476 280.354 190.836 279.926C190.196 279.498 189.697 278.891 189.402 278.179C189.108 277.468 189.03 276.686 189.181 275.931C189.331 275.176 189.701 274.482 190.246 273.938C190.79 273.393 191.484 273.023 192.239 272.873C192.994 272.722 193.776 272.799 194.488 273.094C195.199 273.389 195.807 273.887 196.234 274.528C196.662 275.168 196.89 275.92 196.89 276.69C196.89 277.722 196.48 278.712 195.75 279.442C195.02 280.172 194.03 280.582 192.998 280.582Z" fill="white"/>
</g>
<defs>
<filter id="filter0_f_8405_5036" x="119.583" y="75.959" width="152.843" height="171.313" filterUnits="userSpaceOnUse" color-interpolation-filters="sRGB">
<feFlood flood-opacity="0" result="BackgroundImageFix"/>
<feBlend mode="normal" in="SourceGraphic" in2="BackgroundImageFix" result="shape"/>
<feGaussianBlur stdDeviation="3.13557" result="effect1_foregroundBlur_8405_5036"/>
</filter>
<filter id="filter1_i_8405_5036" x="133.1" y="84.0723" width="125.808" height="145.668" filterUnits="userSpaceOnUse" color-interpolation-filters="sRGB">
<feFlood flood-opacity="0" result="BackgroundImageFix"/>
<feBlend mode="normal" in="SourceGraphic" in2="BackgroundImageFix" result="shape"/>
<feColorMatrix in="SourceAlpha" type="matrix" values="0 0 0 0 0 0 0 0 0 0 0 0 0 0 0 0 0 0 127 0" result="hardAlpha"/>
<feOffset dy="1.04519"/>
<feGaussianBlur stdDeviation="1.04519"/>
<feComposite in2="hardAlpha" operator="arithmetic" k2="-1" k3="1"/>
<feColorMatrix type="matrix" values="0 0 0 0 0 0 0 0 0 0 0 0 0 0 0 0 0 0 1 0"/>
<feBlend mode="normal" in2="shape" result="effect1_innerShadow_8405_5036"/>
</filter>
<filter id="filter2_i_8405_5036" x="143.339" y="94.546" width="105.331" height="124.723" filterUnits="userSpaceOnUse" color-interpolation-filters="sRGB">
<feFlood flood-opacity="0" result="BackgroundImageFix"/>
<feBlend mode="normal" in="SourceGraphic" in2="BackgroundImageFix" result="shape"/>
<feColorMatrix in="SourceAlpha" type="matrix" values="0 0 0 0 0 0 0 0 0 0 0 0 0 0 0 0 0 0 127 0" result="hardAlpha"/>
<feOffset dy="1.04519"/>
<feGaussianBlur stdDeviation="1.04519"/>
<feComposite in2="hardAlpha" operator="arithmetic" k2="-1" k3="1"/>
<feColorMatrix type="matrix" values="0 0 0 0 0 0 0 0 0 0 0 0 0 0 0 0 0 0 1 0"/>
<feBlend mode="normal" in2="shape" result="effect1_innerShadow_8405_5036"/>
</filter>
<filter id="filter3_i_8405_5036" x="142.157" y="94.5371" width="107.696" height="124.75" filterUnits="userSpaceOnUse" color-interpolation-filters="sRGB">
<feFlood flood-opacity="0" result="BackgroundImageFix"/>
<feBlend mode="normal" in="SourceGraphic" in2="BackgroundImageFix" result="shape"/>
<feColorMatrix in="SourceAlpha" type="matrix" values="0 0 0 0 0 0 0 0 0 0 0 0 0 0 0 0 0 0 127 0" result="hardAlpha"/>
<feOffset dy="1.04519"/>
<feGaussianBlur stdDeviation="1.04519"/>
<feComposite in2="hardAlpha" operator="arithmetic" k2="-1" k3="1"/>
<feColorMatrix type="matrix" values="0 0 0 0 0 0 0 0 0 0 0 0 0 0 0 0 0 0 1 0"/>
<feBlend mode="normal" in2="shape" result="effect1_innerShadow_8405_5036"/>
</filter>
<linearGradient id="paint0_linear_8405_5036" x1="192.5" y1="-15" x2="192.5" y2="387.961" gradientUnits="userSpaceOnUse">
<stop offset="0.723597" stop-color="#3B3D3F"/>
<stop offset="1" stop-color="#3B3D3F" stop-opacity="0"/>
</linearGradient>
<linearGradient id="paint1_linear_8405_5036" x1="192.5" y1="-35" x2="192.5" y2="356.138" gradientUnits="userSpaceOnUse">
<stop offset="0.67127" stop-color="#3B3D3F"/>
<stop offset="1" stop-color="#3B3D3F" stop-opacity="0"/>
</linearGradient>
<linearGradient id="paint2_linear_8405_5036" x1="192.5" y1="-55" x2="192.5" y2="347.233" gradientUnits="userSpaceOnUse">
<stop offset="0.654622" stop-color="#3B3D3F"/>
<stop offset="1" stop-color="#3B3D3F" stop-opacity="0"/>
</linearGradient>
<linearGradient id="paint3_linear_8405_5036" x1="192.5" y1="-75" x2="192.5" y2="384" gradientUnits="userSpaceOnUse">
<stop stop-color="#3B3D3F"/>
<stop offset="1" stop-color="#3B3D3F" stop-opacity="0"/>
</linearGradient>
<linearGradient id="paint4_linear_8405_5036" x1="192.5" y1="-85" x2="192.5" y2="394" gradientUnits="userSpaceOnUse">
<stop stop-color="#3B3D3F"/>
<stop offset="1" stop-color="#3B3D3F" stop-opacity="0"/>
</linearGradient>
<linearGradient id="paint5_linear_8405_5036" x1="196.005" y1="156.335" x2="196.005" y2="237.391" gradientUnits="userSpaceOnUse">
<stop stop-color="#3B3D3F" stop-opacity="0.5"/>
<stop offset="1" stop-color="#3B3D3F" stop-opacity="0.89"/>
</linearGradient>
<linearGradient id="paint6_linear_8405_5036" x1="195.982" y1="83.0612" x2="196.04" y2="229.018" gradientUnits="userSpaceOnUse">
<stop stop-color="#1E1E1F" stop-opacity="0"/>
<stop offset="1" stop-color="#1E1E1F" stop-opacity="0.8"/>
</linearGradient>
<linearGradient id="paint7_linear_8405_5036" x1="196.005" y1="88.9745" x2="196.005" y2="223.794" gradientUnits="userSpaceOnUse">
<stop stop-color="#3B3D3F" stop-opacity="0.5"/>
<stop offset="1" stop-color="#3B3D3F" stop-opacity="0.8"/>
</linearGradient>
<linearGradient id="paint8_linear_8405_5036" x1="195.986" y1="93.6203" x2="196.037" y2="218.561" gradientUnits="userSpaceOnUse">
<stop stop-color="#1E1E1F" stop-opacity="0"/>
<stop offset="1" stop-color="#1E1E1F" stop-opacity="0.8"/>
</linearGradient>
<linearGradient id="paint9_linear_8405_5036" x1="195.986" y1="93.625" x2="196.035" y2="218.565" gradientUnits="userSpaceOnUse">
<stop stop-color="#1E1E1F" stop-opacity="0"/>
<stop offset="1" stop-color="#1E1E1F" stop-opacity="0.8"/>
</linearGradient>
<linearGradient id="paint10_linear_8405_5036" x1="196.004" y1="99.4589" x2="196.004" y2="213.326" gradientUnits="userSpaceOnUse">
<stop stop-color="#3B3D3F" stop-opacity="0.2"/>
<stop offset="1" stop-color="#3B3D3F" stop-opacity="0.4"/>
</linearGradient>
<linearGradient id="paint11_linear_8405_5036" x1="91.0024" y1="60.0703" x2="91.0024" y2="108.07" gradientUnits="userSpaceOnUse">
<stop stop-color="#161C20"/>
<stop offset="1" stop-color="#0A0D0F"/>
</linearGradient>
<linearGradient id="paint12_linear_8405_5036" x1="91.0024" y1="84.0542" x2="91.0024" y2="108.07" gradientUnits="userSpaceOnUse">
<stop stop-color="#3B3D3F" stop-opacity="0.5"/>
<stop offset="1" stop-color="#3B3D3F" stop-opacity="0.89"/>
</linearGradient>
<linearGradient id="paint13_linear_8405_5036" x1="308.655" y1="93.5703" x2="308.655" y2="141.57" gradientUnits="userSpaceOnUse">
<stop stop-color="#161C20"/>
<stop offset="1" stop-color="#0A0D0F"/>
</linearGradient>
<linearGradient id="paint14_linear_8405_5036" x1="308.655" y1="117.554" x2="308.655" y2="141.57" gradientUnits="userSpaceOnUse">
<stop stop-color="#3B3D3F" stop-opacity="0.5"/>
<stop offset="1" stop-color="#3B3D3F" stop-opacity="0.89"/>
</linearGradient>
<linearGradient id="paint15_linear_8405_5036" x1="193" y1="252.688" x2="193" y2="300.688" gradientUnits="userSpaceOnUse">
<stop stop-color="#161C20"/>
<stop offset="1" stop-color="#0A0D0F"/>
</linearGradient>
<linearGradient id="paint16_linear_8405_5036" x1="193" y1="276.671" x2="193" y2="300.687" gradientUnits="userSpaceOnUse">
<stop stop-color="#3B3D3F" stop-opacity="0.5"/>
<stop offset="1" stop-color="#3B3D3F" stop-opacity="0.89"/>
</linearGradient>
<clipPath id="clip0_8405_5036">
<rect width="386" height="326" fill="white"/>
</clipPath>
</defs>
</svg>
