<svg width="387" height="326" viewBox="0 0 387 326" fill="none" xmlns="http://www.w3.org/2000/svg">
<g opacity="0.1">
<path d="M-230.334 11.0312H617.666" stroke="#3B3D3F" stroke-linecap="square" stroke-linejoin="round"/>
<path d="M-230.334 27.0312H617.666" stroke="#3B3D3F" stroke-linecap="square" stroke-linejoin="round"/>
<path d="M-230.334 43.0312H617.666" stroke="#3B3D3F" stroke-linecap="square" stroke-linejoin="round"/>
<path d="M-230.334 59.0312H617.666" stroke="#3B3D3F" stroke-linecap="square" stroke-linejoin="round"/>
<path d="M-230.334 75.0312H617.666" stroke="#3B3D3F" stroke-linecap="square" stroke-linejoin="round"/>
<path d="M-230.334 91.0312H617.666" stroke="#3B3D3F" stroke-linecap="square" stroke-linejoin="round"/>
<path d="M-230.334 107.031H617.666" stroke="#3B3D3F" stroke-linecap="square" stroke-linejoin="round"/>
<path d="M-230.334 123.031H617.666" stroke="#3B3D3F" stroke-linecap="square" stroke-linejoin="round"/>
<path d="M-230.334 139.031H617.666" stroke="#3B3D3F" stroke-linecap="square" stroke-linejoin="round"/>
<path d="M-230.334 155.031H617.666" stroke="#3B3D3F" stroke-linecap="square" stroke-linejoin="round"/>
<path d="M-230.334 171.031H617.666" stroke="#3B3D3F" stroke-linecap="square" stroke-linejoin="round"/>
<path d="M-230.334 187.031H617.666" stroke="#3B3D3F" stroke-linecap="square" stroke-linejoin="round"/>
<path d="M-230.334 203.031H617.666" stroke="#3B3D3F" stroke-linecap="square" stroke-linejoin="round"/>
<path d="M-230.334 219.031H617.666" stroke="#3B3D3F" stroke-linecap="square" stroke-linejoin="round"/>
<path d="M-230.334 235.031H617.666" stroke="#3B3D3F" stroke-linecap="square" stroke-linejoin="round"/>
<path d="M-230.334 251.031H617.666" stroke="#3B3D3F" stroke-linecap="square" stroke-linejoin="round"/>
<path d="M-230.334 267.031H617.666" stroke="#3B3D3F" stroke-linecap="square" stroke-linejoin="round"/>
<path d="M-230.334 283.031H617.666" stroke="#3B3D3F" stroke-linecap="square" stroke-linejoin="round"/>
<path d="M9.66602 -4.96875L9.66603 302.031" stroke="#3B3D3F" stroke-linecap="square" stroke-linejoin="round"/>
<path d="M25.666 -4.96875L25.666 302.031" stroke="#3B3D3F" stroke-linecap="square" stroke-linejoin="round"/>
<path d="M41.666 -4.96875L41.666 302.031" stroke="#3B3D3F" stroke-linecap="square" stroke-linejoin="round"/>
<path d="M57.666 -4.96875L57.666 302.031" stroke="#3B3D3F" stroke-linecap="square" stroke-linejoin="round"/>
<path d="M73.666 -4.96875L73.666 302.031" stroke="#3B3D3F" stroke-linecap="square" stroke-linejoin="round"/>
<path d="M89.666 -4.96875L89.666 302.031" stroke="#3B3D3F" stroke-linecap="square" stroke-linejoin="round"/>
<path d="M105.666 -4.96875L105.666 302.031" stroke="#3B3D3F" stroke-linecap="square" stroke-linejoin="round"/>
<path d="M121.666 -4.96875L121.666 302.031" stroke="#3B3D3F" stroke-linecap="square" stroke-linejoin="round"/>
<path d="M137.666 -4.96875L137.666 302.031" stroke="#3B3D3F" stroke-linecap="square" stroke-linejoin="round"/>
<path d="M153.666 -4.96875L153.666 302.031" stroke="#3B3D3F" stroke-linecap="square" stroke-linejoin="round"/>
<path d="M169.666 -4.96875L169.666 302.031" stroke="#3B3D3F" stroke-linecap="square" stroke-linejoin="round"/>
<path d="M185.666 -4.96875L185.666 302.031" stroke="#3B3D3F" stroke-linecap="square" stroke-linejoin="round"/>
<path d="M201.666 -4.96875L201.666 302.031" stroke="#3B3D3F" stroke-linecap="square" stroke-linejoin="round"/>
<path d="M217.666 -4.96875L217.666 302.031" stroke="#3B3D3F" stroke-linecap="square" stroke-linejoin="round"/>
<path d="M233.666 -4.96875L233.666 302.031" stroke="#3B3D3F" stroke-linecap="square" stroke-linejoin="round"/>
<path d="M249.666 -4.96875L249.666 302.031" stroke="#3B3D3F" stroke-linecap="square" stroke-linejoin="round"/>
<path d="M265.666 -4.96875L265.666 302.031" stroke="#3B3D3F" stroke-linecap="square" stroke-linejoin="round"/>
<path d="M281.666 -4.96875L281.666 302.031" stroke="#3B3D3F" stroke-linecap="square" stroke-linejoin="round"/>
<path d="M297.666 -4.96875L297.666 302.031" stroke="#3B3D3F" stroke-linecap="square" stroke-linejoin="round"/>
<path d="M313.666 -4.96875L313.666 302.031" stroke="#3B3D3F" stroke-linecap="square" stroke-linejoin="round"/>
<path d="M329.666 -4.96875L329.666 302.031" stroke="#3B3D3F" stroke-linecap="square" stroke-linejoin="round"/>
<path d="M345.666 -4.96875L345.666 302.031" stroke="#3B3D3F" stroke-linecap="square" stroke-linejoin="round"/>
<path d="M361.666 -4.96875L361.666 302.031" stroke="#3B3D3F" stroke-linecap="square" stroke-linejoin="round"/>
<path d="M377.666 -4.96875L377.666 302.031" stroke="#3B3D3F" stroke-linecap="square" stroke-linejoin="round"/>
</g>
<path d="M79.2773 43.9999L308.055 44" stroke="url(#paint0_linear_8557_12986)" stroke-linecap="round"/>
<path d="M130.334 155H81.334C76.9157 155 73.334 158.582 73.334 163V279" stroke="#25292C" stroke-linecap="round"/>
<path d="M193.67 41.3447L193.67 78.8129" stroke="#25292C" stroke-linecap="round"/>
<path d="M257.473 155H306.666C311.084 155 314.666 158.582 314.666 163V279" stroke="#25292C" stroke-linecap="round"/>
<rect x="69.77" y="152.436" width="7.97175" height="7.97175" rx="3.98587" fill="url(#paint1_linear_8557_12986)" stroke="url(#paint2_linear_8557_12986)" stroke-width="0.872003"/>
<rect x="310.77" y="153.436" width="7.97175" height="7.97175" rx="3.98587" fill="url(#paint3_linear_8557_12986)" stroke="url(#paint4_linear_8557_12986)" stroke-width="0.872003"/>
<rect x="189.514" y="39.0454" width="7.97175" height="7.97175" rx="3.98587" fill="url(#paint5_linear_8557_12986)" stroke="url(#paint6_linear_8557_12986)" stroke-width="0.872003"/>
<rect x="-6.33398" y="223.383" width="400" height="102.617" fill="url(#paint7_linear_8557_12986)"/>
<g filter="url(#filter0_f_8557_12986)">
<path d="M188.441 82.6266C191.675 80.7595 195.659 80.7595 198.893 82.6266L258.591 117.093C261.825 118.96 263.817 122.411 263.817 126.145V195.078C263.817 198.812 261.825 202.263 258.591 204.13L198.893 238.597C195.659 240.464 191.675 240.464 188.441 238.597L128.743 204.13C125.509 202.263 123.517 198.812 123.517 195.078V126.145C123.517 122.411 125.509 118.96 128.743 117.093L188.441 82.6266Z" fill="#0A0D0F"/>
</g>
<path d="M185.567 79.6632C188.644 77.8869 190.084 77.0625 191.603 76.7396C192.964 76.4503 194.371 76.4503 195.732 76.7396C197.251 77.0625 198.691 77.8869 201.768 79.6632L255.195 110.509C258.271 112.286 259.705 113.12 260.744 114.275C261.676 115.309 262.379 116.527 262.809 117.85C263.289 119.327 263.295 120.987 263.295 124.539V186.231C263.295 189.784 263.289 191.443 262.809 192.92C262.379 194.244 261.676 195.462 260.744 196.496C259.705 197.65 258.271 198.485 255.195 200.261L201.768 231.107C198.691 232.884 197.251 233.708 195.732 234.031C194.371 234.32 192.964 234.32 191.603 234.031C190.084 233.708 188.644 232.884 185.567 231.107L132.14 200.261C129.064 198.485 127.63 197.65 126.591 196.496C125.659 195.462 124.956 194.244 124.526 192.92C124.046 191.443 124.04 189.784 124.04 186.231V124.539C124.04 120.987 124.046 119.327 124.526 117.85C124.956 116.527 125.659 115.309 126.591 114.275C127.63 113.12 129.064 112.286 132.14 110.509L185.567 79.6632Z" fill="#0A0D0F" stroke="url(#paint8_linear_8557_12986)" stroke-width="1.04519"/>
<g filter="url(#filter1_i_8557_12986)">
<path d="M191.995 83.7105C192.604 83.3587 192.908 83.1829 193.232 83.114C193.519 83.0531 193.815 83.0531 194.101 83.114C194.425 83.1829 194.73 83.3587 195.339 83.7105L254.899 118.097C255.508 118.448 255.812 118.624 256.034 118.87C256.23 119.088 256.378 119.345 256.469 119.623C256.571 119.938 256.571 120.29 256.571 120.993V189.766C256.571 190.469 256.571 190.821 256.469 191.136C256.378 191.414 256.23 191.671 256.034 191.889C255.812 192.135 255.508 192.311 254.899 192.662L195.339 227.049C194.73 227.4 194.425 227.576 194.101 227.645C193.815 227.706 193.519 227.706 193.232 227.645C192.908 227.576 192.604 227.4 191.995 227.049L132.435 192.662C131.826 192.311 131.521 192.135 131.3 191.889C131.104 191.671 130.956 191.414 130.865 191.136C130.763 190.821 130.763 190.469 130.763 189.766V120.993C130.763 120.29 130.763 119.938 130.865 119.623C130.956 119.345 131.104 119.088 131.3 118.87C131.521 118.624 131.826 118.448 132.435 118.097L191.995 83.7105Z" fill="#060809"/>
</g>
<path d="M193.341 83.6252L193.232 83.114L193.341 83.6252C193.556 83.5795 193.778 83.5795 193.993 83.6252C194.216 83.6728 194.438 83.7937 195.078 84.163L195.339 83.7107L195.078 84.163L254.637 118.549C255.277 118.919 255.493 119.05 255.646 119.22C255.793 119.383 255.904 119.576 255.972 119.785C256.042 120.002 256.048 120.255 256.048 120.993V189.766C256.048 190.504 256.042 190.757 255.972 190.974C255.904 191.183 255.793 191.376 255.646 191.539C255.493 191.709 255.277 191.84 254.637 192.21L195.078 226.596C194.438 226.965 194.216 227.086 193.993 227.134C193.778 227.179 193.556 227.179 193.341 227.134C193.117 227.086 192.896 226.965 192.256 226.596L132.696 192.21C132.057 191.84 131.841 191.709 131.688 191.539C131.541 191.376 131.43 191.183 131.362 190.974C131.291 190.757 131.285 190.504 131.285 189.766V120.993C131.285 120.255 131.291 120.002 131.362 119.785C131.43 119.576 131.541 119.383 131.688 119.22C131.841 119.05 132.057 118.919 132.696 118.549L192.256 84.163C192.896 83.7937 193.117 83.6728 193.341 83.6252Z" stroke="url(#paint9_linear_8557_12986)" stroke-width="1.04519"/>
<path d="M135.826 189.277C136.048 189.523 136.352 189.699 136.961 190.051L191.995 221.825C192.604 222.177 192.909 222.353 193.233 222.421C193.519 222.482 193.815 222.482 194.102 222.421L135.826 189.277ZM135.826 189.277C135.63 189.06 135.482 188.803 135.391 188.525M135.826 189.277L135.391 188.525M135.391 188.525C135.289 188.21 135.289 187.858 135.289 187.155M135.391 188.525L135.289 187.155M135.289 187.155V123.607M135.289 187.155V123.607M135.289 123.607C135.289 122.903 135.289 122.551 135.391 122.237M135.289 123.607L135.391 122.237M135.391 122.237C135.482 121.958 135.63 121.701 135.826 121.484L135.391 122.237ZM192.256 89.3887C192.896 89.0193 193.118 88.8984 193.341 88.8509C193.556 88.8052 193.778 88.8052 193.993 88.8509C194.217 88.8984 194.439 89.0193 195.078 89.3887L250.112 121.163C250.752 121.532 250.967 121.663 251.12 121.833C251.267 121.997 251.379 122.189 251.446 122.398C251.517 122.615 251.523 122.868 251.523 123.607V187.155C251.523 187.893 251.517 188.146 251.446 188.363C251.379 188.572 251.267 188.764 251.12 188.928C250.967 189.098 250.752 189.229 250.112 189.598L195.078 221.372C194.439 221.742 194.217 221.863 193.993 221.91C193.778 221.956 193.556 221.956 193.341 221.91C193.118 221.863 192.896 221.742 192.256 221.372L137.223 189.598C136.583 189.229 136.367 189.098 136.214 188.928L135.826 189.277L136.214 188.928C136.067 188.764 135.956 188.572 135.888 188.363C135.818 188.146 135.812 187.893 135.812 187.155V123.607C135.812 122.868 135.818 122.615 135.888 122.398C135.956 122.189 136.067 121.997 136.214 121.833C136.367 121.663 136.583 121.532 137.223 121.163L192.256 89.3887Z" fill="#0A0D0F" stroke="url(#paint10_linear_8557_12986)" stroke-width="1.04519"/>
<g filter="url(#filter2_i_8557_12986)">
<path d="M191.967 94.2087C192.586 93.8435 192.895 93.6609 193.225 93.5895C193.516 93.5263 193.818 93.5263 194.11 93.5895C194.439 93.6609 194.749 93.8435 195.367 94.2087L244.688 123.322C245.287 123.676 245.587 123.853 245.805 124.098C245.998 124.315 246.143 124.57 246.232 124.846C246.332 125.158 246.332 125.507 246.332 126.203V184.559C246.332 185.255 246.332 185.603 246.232 185.916C246.143 186.192 245.998 186.447 245.805 186.664C245.587 186.909 245.287 187.086 244.688 187.44L195.367 216.553C194.749 216.918 194.439 217.101 194.11 217.172C193.818 217.236 193.516 217.236 193.225 217.172C192.895 217.101 192.586 216.918 191.967 216.553L142.646 187.44C142.047 187.086 141.747 186.909 141.529 186.664C141.337 186.447 141.191 186.192 141.102 185.916C141.002 185.603 141.002 185.255 141.002 184.559V126.203C141.002 125.507 141.002 125.158 141.102 124.846C141.191 124.57 141.337 124.315 141.529 124.098C141.747 123.853 142.047 123.676 142.646 123.322L191.967 94.2087Z" fill="#060809"/>
</g>
<path d="M192.233 94.6587C192.882 94.2752 193.108 94.1495 193.335 94.1002C193.554 94.0529 193.78 94.0529 193.999 94.1002C194.227 94.1495 194.452 94.2752 195.102 94.6587L244.422 123.772C245.052 124.144 245.264 124.276 245.414 124.445L245.805 124.098L245.414 124.445C245.559 124.608 245.668 124.799 245.735 125.006C245.804 125.222 245.81 125.472 245.81 126.203V184.559C245.81 185.29 245.804 185.54 245.735 185.756C245.668 185.963 245.559 186.154 245.414 186.317C245.264 186.486 245.052 186.618 244.422 186.99L195.102 216.103C194.452 216.487 194.227 216.612 193.999 216.662C193.78 216.709 193.554 216.709 193.335 216.662C193.108 216.612 192.882 216.487 192.233 216.103L142.912 186.99C142.283 186.618 142.071 186.486 141.92 186.317C141.776 186.154 141.666 185.963 141.6 185.756C141.53 185.54 141.524 185.29 141.524 184.559V126.203C141.524 125.472 141.53 125.222 141.6 125.006C141.666 124.799 141.776 124.608 141.92 124.445C142.071 124.276 142.283 124.144 142.912 123.772L192.233 94.6587L191.967 94.2087L192.233 94.6587Z" stroke="url(#paint11_linear_8557_12986)" stroke-width="1.04519"/>
<g filter="url(#filter3_i_8557_12986)">
<path d="M191.995 94.1753C192.604 93.8236 192.909 93.6477 193.233 93.5789C193.519 93.518 193.815 93.518 194.102 93.5789C194.426 93.6477 194.73 93.8236 195.34 94.1753L245.843 123.332C246.452 123.684 246.757 123.86 246.978 124.106C247.174 124.324 247.323 124.58 247.413 124.859C247.515 125.174 247.515 125.525 247.515 126.229V184.543C247.515 185.246 247.515 185.598 247.413 185.913C247.323 186.191 247.174 186.448 246.978 186.665C246.757 186.912 246.452 187.087 245.843 187.439L195.34 216.596C194.73 216.948 194.426 217.124 194.102 217.193C193.815 217.253 193.519 217.253 193.233 217.193C192.909 217.124 192.604 216.948 191.995 216.596L141.492 187.439C140.882 187.087 140.578 186.912 140.356 186.665C140.16 186.448 140.012 186.191 139.922 185.913C139.819 185.598 139.819 185.246 139.819 184.543V126.229C139.819 125.525 139.819 125.174 139.922 124.859C140.012 124.58 140.16 124.324 140.356 124.106C140.578 123.86 140.882 123.684 141.492 123.332L191.995 94.1753Z" fill="#060809"/>
</g>
<path d="M192.256 94.6279C192.896 94.2585 193.118 94.1376 193.341 94.0901C193.556 94.0444 193.778 94.0444 193.993 94.0901C194.217 94.1376 194.439 94.2585 195.078 94.6279L245.582 123.785C246.221 124.154 246.437 124.286 246.59 124.456C246.737 124.619 246.848 124.811 246.916 125.02C246.987 125.238 246.993 125.49 246.993 126.229V184.543C246.993 185.281 246.987 185.534 246.916 185.751C246.848 185.96 246.737 186.153 246.59 186.316C246.437 186.486 246.221 186.617 245.582 186.987L195.078 216.144C194.439 216.513 194.217 216.634 193.993 216.681C193.778 216.727 193.556 216.727 193.341 216.681C193.118 216.634 192.896 216.513 192.256 216.144L141.753 186.987C141.113 186.617 140.898 186.486 140.745 186.316C140.598 186.153 140.487 185.96 140.419 185.751C140.348 185.534 140.342 185.281 140.342 184.543V126.229C140.342 125.49 140.348 125.238 140.419 125.02C140.487 124.811 140.598 124.619 140.745 124.456C140.898 124.286 141.113 124.154 141.753 123.785L192.256 94.6279Z" stroke="url(#paint12_linear_8557_12986)" stroke-width="1.04519"/>
<path d="M192.256 99.873C192.896 99.5036 193.118 99.3827 193.341 99.3352C193.556 99.2895 193.778 99.2895 193.993 99.3352C194.217 99.3827 194.438 99.5036 195.078 99.873L241.041 126.409C241.681 126.778 241.897 126.91 242.05 127.08C242.197 127.243 242.308 127.435 242.376 127.644C242.446 127.862 242.453 128.114 242.453 128.853V181.924C242.453 182.663 242.446 182.915 242.376 183.133C242.308 183.342 242.197 183.534 242.05 183.697C241.897 183.867 241.681 183.999 241.041 184.368L195.078 210.904C194.438 211.273 194.217 211.394 193.993 211.442C193.778 211.488 193.556 211.488 193.341 211.442C193.118 211.394 192.896 211.273 192.256 210.904L146.293 184.368C145.653 183.999 145.438 183.867 145.285 183.697L144.896 184.047L145.285 183.697C145.138 183.534 145.027 183.342 144.959 183.133C144.888 182.915 144.882 182.663 144.882 181.924V128.853C144.882 128.114 144.888 127.862 144.959 127.644C145.027 127.435 145.138 127.243 145.285 127.08C145.438 126.91 145.653 126.778 146.293 126.409L192.256 99.873Z" fill="#0A0D0F" stroke="url(#paint13_linear_8557_12986)" stroke-width="1.04519"/>
<g clip-path="url(#clip0_8557_12986)">
<mask id="mask0_8557_12986" style="mask-type:luminance" maskUnits="userSpaceOnUse" x="160" y="133" width="66" height="72">
<path d="M160.788 133.964H225.786V204.797H160.788V133.964Z" fill="white"/>
</mask>
<g mask="url(#mask0_8557_12986)">
<path d="M183.219 156.443L179.799 154.315L179.871 157.567L183.291 159.695L183.219 156.443ZM188.145 167.826L188.074 164.646L185.084 162.78C185.037 162.756 184.989 162.709 184.965 162.685L185.037 165.889L188.145 167.826ZM177.456 172.107L169.636 167.252L169.445 159.121L173.271 157.471L173.199 154.219L167.077 156.85C166.599 157.065 166.312 157.495 166.336 157.998L166.575 167.754C166.575 168.257 166.886 168.759 167.364 169.046L176.738 174.857C177.169 175.12 177.695 175.192 178.149 175.072C178.197 175.048 178.245 175.048 178.293 175.024L184.056 172.537L180.923 170.6L177.456 172.107Z" fill="#1C76FD"/>
</g>
<mask id="mask1_8557_12986" style="mask-type:luminance" maskUnits="userSpaceOnUse" x="160" y="133" width="66" height="72">
<path d="M160.788 133.964H225.786V204.797H160.788V133.964Z" fill="white"/>
</mask>
<g mask="url(#mask1_8557_12986)">
<path d="M202.732 154.123C202.708 153.55 202.374 152.952 201.8 152.617L190.417 145.562L190.058 145.706L190.13 149.125L199.145 154.721L199.36 163.856L202.804 165.985L202.995 165.913L202.732 154.123ZM189.101 170.17L178.508 163.617L178.245 152.617L183.075 150.536L182.979 146.734L175.494 149.962C174.944 150.202 174.61 150.704 174.634 151.302L174.944 164.215C174.944 164.813 175.303 165.387 175.877 165.722L188.288 173.422C188.791 173.733 189.412 173.829 189.938 173.661C189.986 173.637 190.034 173.613 190.082 173.613L197.4 170.457L193.765 168.209L189.101 170.17Z" fill="#1C76FD"/>
</g>
<mask id="mask2_8557_12986" style="mask-type:luminance" maskUnits="userSpaceOnUse" x="160" y="133" width="66" height="72">
<path d="M160.788 133.964H225.786V204.797H160.788V133.964Z" fill="white"/>
</mask>
<g mask="url(#mask2_8557_12986)">
<path d="M218.875 145.084L202.972 135.232C202.374 134.873 201.68 134.777 201.083 134.968C201.035 134.992 200.963 135.016 200.915 135.04L185.395 141.736C184.773 141.999 184.391 142.573 184.415 143.267L184.797 159.815C184.821 160.485 185.228 161.154 185.873 161.537L201.776 171.389C202.35 171.748 203.067 171.844 203.665 171.652C203.713 171.628 203.785 171.605 203.833 171.581L219.353 164.885C219.975 164.622 220.357 164.024 220.333 163.354L219.951 146.806C219.927 146.136 219.52 145.491 218.875 145.084ZM202.709 167.683L188.887 159.121L188.552 144.749L202.039 138.938L215.861 147.499L216.196 161.872L202.709 167.683Z" fill="#1C76FD"/>
</g>
</g>
<rect x="292.192" y="253.436" width="47.128" height="47.128" rx="7.564" fill="url(#paint14_linear_8557_12986)"/>
<rect x="292.192" y="253.436" width="47.128" height="47.128" rx="7.564" stroke="url(#paint15_linear_8557_12986)" stroke-width="0.872003"/>
<g clip-path="url(#clip1_8557_12986)">
<mask id="mask3_8557_12986" style="mask-type:luminance" maskUnits="userSpaceOnUse" x="298" y="266" width="35" height="37">
<path d="M298.879 266.091H332.582V302.819H298.879V266.091Z" fill="white"/>
</mask>
<g mask="url(#mask3_8557_12986)">
<path d="M310.511 277.747L308.738 276.644L308.775 278.33L310.548 279.434L310.511 277.747ZM313.065 283.65L313.028 282L311.478 281.033C311.453 281.021 311.428 280.996 311.416 280.984L311.453 282.645L313.065 283.65ZM307.522 285.869L303.468 283.352L303.369 279.136L305.353 278.28L305.315 276.594L302.141 277.958C301.893 278.07 301.744 278.293 301.757 278.553L301.881 283.612C301.881 283.873 302.042 284.133 302.29 284.282L307.15 287.295C307.374 287.432 307.646 287.469 307.882 287.407C307.907 287.394 307.932 287.394 307.956 287.382L310.945 286.092L309.32 285.088L307.522 285.869Z" fill="white"/>
</g>
<mask id="mask4_8557_12986" style="mask-type:luminance" maskUnits="userSpaceOnUse" x="298" y="266" width="35" height="37">
<path d="M298.879 266.091H332.582V302.819H298.879V266.091Z" fill="white"/>
</mask>
<g mask="url(#mask4_8557_12986)">
<path d="M320.628 276.545C320.616 276.247 320.442 275.937 320.145 275.764L314.243 272.106L314.057 272.18L314.094 273.953L318.769 276.855L318.88 281.592L320.666 282.695L320.765 282.658L320.628 276.545ZM313.561 284.865L308.067 281.468L307.931 275.764L310.436 274.685L310.386 272.713L306.505 274.387C306.22 274.511 306.046 274.772 306.059 275.082L306.22 281.778C306.22 282.088 306.406 282.385 306.704 282.559L313.139 286.551C313.399 286.713 313.722 286.762 313.995 286.675C314.019 286.663 314.044 286.651 314.069 286.651L317.863 285.014L315.979 283.848L313.561 284.865Z" fill="white"/>
</g>
<mask id="mask5_8557_12986" style="mask-type:luminance" maskUnits="userSpaceOnUse" x="298" y="266" width="35" height="37">
<path d="M298.879 266.091H332.582V302.819H298.879V266.091Z" fill="white"/>
</mask>
<g mask="url(#mask5_8557_12986)">
<path d="M328.999 271.858L320.753 266.749C320.443 266.563 320.083 266.513 319.773 266.613C319.748 266.625 319.711 266.637 319.686 266.65L311.639 270.122C311.316 270.258 311.118 270.556 311.13 270.915L311.329 279.496C311.341 279.843 311.552 280.19 311.887 280.389L320.133 285.497C320.43 285.683 320.802 285.733 321.112 285.634C321.137 285.621 321.174 285.609 321.199 285.597L329.247 282.125C329.569 281.988 329.767 281.678 329.755 281.331L329.557 272.75C329.544 272.403 329.333 272.068 328.999 271.858ZM320.616 283.575L313.449 279.136L313.276 271.684L320.269 268.671L327.436 273.11L327.61 280.562L320.616 283.575Z" fill="white"/>
</g>
</g>
<rect x="50.1919" y="253.436" width="47.128" height="47.128" rx="7.564" fill="url(#paint16_linear_8557_12986)"/>
<rect x="50.1919" y="253.436" width="47.128" height="47.128" rx="7.564" stroke="url(#paint17_linear_8557_12986)" stroke-width="0.872003"/>
<g clip-path="url(#clip2_8557_12986)">
<mask id="mask6_8557_12986" style="mask-type:luminance" maskUnits="userSpaceOnUse" x="56" y="266" width="35" height="37">
<path d="M56.8794 266.091H90.5821V302.819H56.8794V266.091Z" fill="white"/>
</mask>
<g mask="url(#mask6_8557_12986)">
<path d="M68.5108 277.747L66.7377 276.644L66.7749 278.33L68.548 279.434L68.5108 277.747ZM71.0652 283.65L71.028 282L69.478 281.033C69.4532 281.021 69.4284 280.996 69.416 280.984L69.4532 282.645L71.0652 283.65ZM65.5225 285.869L61.4678 283.352L61.3686 279.136L63.3525 278.28L63.3153 276.594L60.141 277.958C59.893 278.07 59.7442 278.293 59.7566 278.553L59.8806 283.612C59.8806 283.873 60.0418 284.133 60.2898 284.282L65.1505 287.295C65.3737 287.432 65.6465 287.469 65.8821 287.407C65.9069 287.394 65.9317 287.394 65.9565 287.382L68.9448 286.092L67.3205 285.088L65.5225 285.869Z" fill="white"/>
</g>
<mask id="mask7_8557_12986" style="mask-type:luminance" maskUnits="userSpaceOnUse" x="56" y="266" width="35" height="37">
<path d="M56.8794 266.091H90.5821V302.819H56.8794V266.091Z" fill="white"/>
</mask>
<g mask="url(#mask7_8557_12986)">
<path d="M78.6285 276.545C78.6161 276.247 78.4425 275.937 78.1449 275.764L72.2426 272.106L72.0566 272.18L72.0938 273.953L76.7685 276.855L76.8801 281.592L78.6657 282.695L78.7649 282.658L78.6285 276.545ZM71.5606 284.865L66.0675 281.468L65.9311 275.764L68.4359 274.685L68.3863 272.713L64.5051 274.387C64.2199 274.511 64.0463 274.772 64.0587 275.082L64.2199 281.778C64.2199 282.088 64.4059 282.385 64.7035 282.559L71.139 286.551C71.3994 286.713 71.7218 286.762 71.9946 286.675C72.0194 286.663 72.0442 286.651 72.069 286.651L75.8633 285.014L73.9786 283.848L71.5606 284.865Z" fill="white"/>
</g>
<mask id="mask8_8557_12986" style="mask-type:luminance" maskUnits="userSpaceOnUse" x="56" y="266" width="35" height="37">
<path d="M56.8794 266.091H90.5821V302.819H56.8794V266.091Z" fill="white"/>
</mask>
<g mask="url(#mask8_8557_12986)">
<path d="M86.9985 271.858L78.7527 266.749C78.4427 266.563 78.0831 266.513 77.7731 266.613C77.7483 266.625 77.7111 266.637 77.6863 266.65L69.6388 270.122C69.3164 270.258 69.118 270.556 69.1304 270.915L69.3288 279.496C69.3412 279.843 69.552 280.19 69.8868 280.389L78.1327 285.497C78.4303 285.683 78.8023 285.733 79.1123 285.634C79.1371 285.621 79.1743 285.609 79.1991 285.597L87.2465 282.125C87.5689 281.988 87.7673 281.678 87.7549 281.331L87.5565 272.75C87.5441 272.403 87.3333 272.068 86.9985 271.858ZM78.6163 283.575L71.4492 279.136L71.2756 271.684L78.2691 268.671L85.4362 273.11L85.6098 280.562L78.6163 283.575Z" fill="white"/>
</g>
</g>
<defs>
<filter id="filter0_f_8557_12986" x="117.246" y="74.9551" width="152.843" height="171.313" filterUnits="userSpaceOnUse" color-interpolation-filters="sRGB">
<feFlood flood-opacity="0" result="BackgroundImageFix"/>
<feBlend mode="normal" in="SourceGraphic" in2="BackgroundImageFix" result="shape"/>
<feGaussianBlur stdDeviation="3.13557" result="effect1_foregroundBlur_8557_12986"/>
</filter>
<filter id="filter1_i_8557_12986" x="130.763" y="83.0684" width="125.808" height="145.668" filterUnits="userSpaceOnUse" color-interpolation-filters="sRGB">
<feFlood flood-opacity="0" result="BackgroundImageFix"/>
<feBlend mode="normal" in="SourceGraphic" in2="BackgroundImageFix" result="shape"/>
<feColorMatrix in="SourceAlpha" type="matrix" values="0 0 0 0 0 0 0 0 0 0 0 0 0 0 0 0 0 0 127 0" result="hardAlpha"/>
<feOffset dy="1.04519"/>
<feGaussianBlur stdDeviation="1.04519"/>
<feComposite in2="hardAlpha" operator="arithmetic" k2="-1" k3="1"/>
<feColorMatrix type="matrix" values="0 0 0 0 0 0 0 0 0 0 0 0 0 0 0 0 0 0 1 0"/>
<feBlend mode="normal" in2="shape" result="effect1_innerShadow_8557_12986"/>
</filter>
<filter id="filter2_i_8557_12986" x="141.002" y="93.5421" width="105.331" height="124.723" filterUnits="userSpaceOnUse" color-interpolation-filters="sRGB">
<feFlood flood-opacity="0" result="BackgroundImageFix"/>
<feBlend mode="normal" in="SourceGraphic" in2="BackgroundImageFix" result="shape"/>
<feColorMatrix in="SourceAlpha" type="matrix" values="0 0 0 0 0 0 0 0 0 0 0 0 0 0 0 0 0 0 127 0" result="hardAlpha"/>
<feOffset dy="1.04519"/>
<feGaussianBlur stdDeviation="1.04519"/>
<feComposite in2="hardAlpha" operator="arithmetic" k2="-1" k3="1"/>
<feColorMatrix type="matrix" values="0 0 0 0 0 0 0 0 0 0 0 0 0 0 0 0 0 0 1 0"/>
<feBlend mode="normal" in2="shape" result="effect1_innerShadow_8557_12986"/>
</filter>
<filter id="filter3_i_8557_12986" x="139.819" y="93.5332" width="107.696" height="124.75" filterUnits="userSpaceOnUse" color-interpolation-filters="sRGB">
<feFlood flood-opacity="0" result="BackgroundImageFix"/>
<feBlend mode="normal" in="SourceGraphic" in2="BackgroundImageFix" result="shape"/>
<feColorMatrix in="SourceAlpha" type="matrix" values="0 0 0 0 0 0 0 0 0 0 0 0 0 0 0 0 0 0 127 0" result="hardAlpha"/>
<feOffset dy="1.04519"/>
<feGaussianBlur stdDeviation="1.04519"/>
<feComposite in2="hardAlpha" operator="arithmetic" k2="-1" k3="1"/>
<feColorMatrix type="matrix" values="0 0 0 0 0 0 0 0 0 0 0 0 0 0 0 0 0 0 1 0"/>
<feBlend mode="normal" in2="shape" result="effect1_innerShadow_8557_12986"/>
</filter>
<linearGradient id="paint0_linear_8557_12986" x1="79.2773" y1="43.9999" x2="308.055" y2="44" gradientUnits="userSpaceOnUse">
<stop stop-color="#25292C" stop-opacity="0"/>
<stop offset="0.5" stop-color="#25292C"/>
<stop offset="1" stop-color="#25292C" stop-opacity="0"/>
</linearGradient>
<linearGradient id="paint1_linear_8557_12986" x1="73.7559" y1="152" x2="73.7559" y2="160.844" gradientUnits="userSpaceOnUse">
<stop stop-color="#161C20"/>
<stop offset="1" stop-color="#0A0D0F"/>
</linearGradient>
<linearGradient id="paint2_linear_8557_12986" x1="73.7559" y1="156.419" x2="73.7559" y2="160.844" gradientUnits="userSpaceOnUse">
<stop stop-color="#3B3D3F" stop-opacity="0.5"/>
<stop offset="1" stop-color="#3B3D3F" stop-opacity="0.89"/>
</linearGradient>
<linearGradient id="paint3_linear_8557_12986" x1="314.756" y1="153" x2="314.756" y2="161.844" gradientUnits="userSpaceOnUse">
<stop stop-color="#161C20"/>
<stop offset="1" stop-color="#0A0D0F"/>
</linearGradient>
<linearGradient id="paint4_linear_8557_12986" x1="314.756" y1="157.419" x2="314.756" y2="161.844" gradientUnits="userSpaceOnUse">
<stop stop-color="#3B3D3F" stop-opacity="0.5"/>
<stop offset="1" stop-color="#3B3D3F" stop-opacity="0.89"/>
</linearGradient>
<linearGradient id="paint5_linear_8557_12986" x1="193.5" y1="38.6094" x2="193.5" y2="47.4531" gradientUnits="userSpaceOnUse">
<stop stop-color="#161C20"/>
<stop offset="1" stop-color="#0A0D0F"/>
</linearGradient>
<linearGradient id="paint6_linear_8557_12986" x1="193.5" y1="43.0283" x2="193.5" y2="47.4531" gradientUnits="userSpaceOnUse">
<stop stop-color="#3B3D3F" stop-opacity="0.5"/>
<stop offset="1" stop-color="#3B3D3F" stop-opacity="0.89"/>
</linearGradient>
<linearGradient id="paint7_linear_8557_12986" x1="193.666" y1="223.383" x2="193.666" y2="326" gradientUnits="userSpaceOnUse">
<stop stop-color="#161C20" stop-opacity="0"/>
<stop offset="1" stop-color="#0E1114"/>
</linearGradient>
<linearGradient id="paint8_linear_8557_12986" x1="193.667" y1="155.331" x2="193.667" y2="236.387" gradientUnits="userSpaceOnUse">
<stop stop-color="#3B3D3F" stop-opacity="0.5"/>
<stop offset="1" stop-color="#3B3D3F" stop-opacity="0.89"/>
</linearGradient>
<linearGradient id="paint9_linear_8557_12986" x1="193.645" y1="82.0573" x2="193.702" y2="228.014" gradientUnits="userSpaceOnUse">
<stop stop-color="#1E1E1F" stop-opacity="0"/>
<stop offset="1" stop-color="#1E1E1F" stop-opacity="0.8"/>
</linearGradient>
<linearGradient id="paint10_linear_8557_12986" x1="193.667" y1="87.9706" x2="193.667" y2="222.79" gradientUnits="userSpaceOnUse">
<stop stop-color="#3B3D3F" stop-opacity="0.5"/>
<stop offset="1" stop-color="#3B3D3F" stop-opacity="0.8"/>
</linearGradient>
<linearGradient id="paint11_linear_8557_12986" x1="193.649" y1="92.6164" x2="193.699" y2="217.557" gradientUnits="userSpaceOnUse">
<stop stop-color="#1E1E1F" stop-opacity="0"/>
<stop offset="1" stop-color="#1E1E1F" stop-opacity="0.8"/>
</linearGradient>
<linearGradient id="paint12_linear_8557_12986" x1="193.648" y1="92.6211" x2="193.698" y2="217.561" gradientUnits="userSpaceOnUse">
<stop stop-color="#1E1E1F" stop-opacity="0"/>
<stop offset="1" stop-color="#1E1E1F" stop-opacity="0.8"/>
</linearGradient>
<linearGradient id="paint13_linear_8557_12986" x1="193.667" y1="98.455" x2="193.667" y2="212.322" gradientUnits="userSpaceOnUse">
<stop stop-color="#3B3D3F" stop-opacity="0.2"/>
<stop offset="1" stop-color="#3B3D3F" stop-opacity="0.4"/>
</linearGradient>
<linearGradient id="paint14_linear_8557_12986" x1="315.756" y1="253" x2="315.756" y2="301" gradientUnits="userSpaceOnUse">
<stop stop-color="#161C20"/>
<stop offset="1" stop-color="#0A0D0F"/>
</linearGradient>
<linearGradient id="paint15_linear_8557_12986" x1="315.756" y1="276.984" x2="315.756" y2="301" gradientUnits="userSpaceOnUse">
<stop stop-color="#3B3D3F" stop-opacity="0.5"/>
<stop offset="1" stop-color="#3B3D3F" stop-opacity="0.89"/>
</linearGradient>
<linearGradient id="paint16_linear_8557_12986" x1="73.7559" y1="253" x2="73.7559" y2="301" gradientUnits="userSpaceOnUse">
<stop stop-color="#161C20"/>
<stop offset="1" stop-color="#0A0D0F"/>
</linearGradient>
<linearGradient id="paint17_linear_8557_12986" x1="73.7559" y1="276.984" x2="73.7559" y2="301" gradientUnits="userSpaceOnUse">
<stop stop-color="#3B3D3F" stop-opacity="0.5"/>
<stop offset="1" stop-color="#3B3D3F" stop-opacity="0.89"/>
</linearGradient>
<clipPath id="clip0_8557_12986">
<rect width="54" height="54" fill="white" transform="translate(166.334 128)"/>
</clipPath>
<clipPath id="clip1_8557_12986">
<rect width="28" height="28" fill="white" transform="translate(301.756 263)"/>
</clipPath>
<clipPath id="clip2_8557_12986">
<rect width="28" height="28" fill="white" transform="translate(59.7559 263)"/>
</clipPath>
</defs>
</svg>
