<svg width="388" height="326" viewBox="0 0 388 326" fill="none" xmlns="http://www.w3.org/2000/svg">
<path d="M180.552 23.6915C185.789 20.6279 188.408 19.0961 191.192 18.4965C193.655 17.966 196.201 17.966 198.664 18.4965C201.448 19.0961 204.066 20.6279 209.304 23.6915L301.16 77.4253C306.397 80.4889 309.016 82.0207 310.92 84.1638C312.606 86.0599 313.878 88.2938 314.657 90.7204C315.536 93.463 315.536 96.5267 315.536 102.654V210.122C315.536 216.249 315.536 219.312 314.657 222.055C313.878 224.482 312.606 226.715 310.92 228.612C309.016 230.755 306.397 232.286 301.16 235.35L209.304 289.084C204.066 292.148 201.448 293.679 198.664 294.279C196.201 294.809 193.655 294.809 191.192 294.279C188.408 293.679 185.789 292.148 180.552 289.084L88.6952 235.35C83.458 232.286 80.8394 230.755 78.935 228.612C77.2499 226.715 75.977 224.482 75.1988 222.055C74.3193 219.312 74.3193 216.249 74.3193 210.122V102.654C74.3193 96.5267 74.3193 93.463 75.1988 90.7204C75.977 88.2938 77.2499 86.0599 78.935 84.1638C80.8394 82.0207 83.458 80.4889 88.6952 77.4253L180.552 23.6915Z" stroke="#25292C" stroke-linecap="round"/>
<g opacity="0.1">
<path d="M34.5273 -40.7344V257.266" stroke="#3B3D3F"/>
<path d="M74.5273 -40.7344V257.266" stroke="#3B3D3F"/>
<path d="M114.527 -40.7344V257.266" stroke="#3B3D3F"/>
<path d="M154.527 -40.7344V257.266" stroke="#3B3D3F"/>
<path d="M194.527 -40.7344V257.266" stroke="#3B3D3F"/>
<path d="M234.527 -40.7344V257.266" stroke="#3B3D3F"/>
<path d="M274.527 -40.7344V257.266" stroke="#3B3D3F"/>
<path d="M314.527 -40.7344V257.266" stroke="#3B3D3F"/>
<path d="M354.527 -40.7344V257.266" stroke="#3B3D3F"/>
<g clip-path="url(#clip0_8557_13119)">
<rect x="-5.22266" y="37.75" width="389.5" height="0.5" fill="#3B3D3F" stroke="#3B3D3F" stroke-width="0.5"/>
<rect x="-5.22266" y="78.75" width="389.5" height="0.5" fill="#3B3D3F" stroke="#3B3D3F" stroke-width="0.5"/>
<rect x="-5.22266" y="119.75" width="389.5" height="0.5" fill="#3B3D3F" stroke="#3B3D3F" stroke-width="0.5"/>
<rect x="-5.22266" y="160.75" width="389.5" height="0.5" fill="#3B3D3F" stroke="#3B3D3F" stroke-width="0.5"/>
<rect x="-5.22266" y="201.75" width="389.5" height="0.5" fill="#3B3D3F" stroke="#3B3D3F" stroke-width="0.5"/>
<rect x="-5.22266" y="242.75" width="389.5" height="0.5" fill="#3B3D3F" stroke="#3B3D3F" stroke-width="0.5"/>
</g>
</g>
<circle cx="242.485" cy="43.0859" r="2" fill="#3B3D3F"/>
<circle cx="313.863" cy="224.237" r="2" fill="#3B3D3F"/>
<path d="M72.3174 91.333L192.436 156.513M312.557 91.333L192.436 156.513M192.436 156.513V279.067" stroke="#25292C" stroke-linecap="round"/>
<circle cx="76.3193" cy="224.882" r="2" fill="#3B3D3F"/>
<rect x="-7" y="223.383" width="400" height="102.617" fill="url(#paint0_linear_8557_13119)"/>
<g filter="url(#filter0_f_8557_13119)">
<path d="M187.918 83.6295C191.152 81.7625 195.136 81.7625 198.37 83.6295L258.068 118.096C261.302 119.963 263.294 123.414 263.294 127.148V196.081C263.294 199.815 261.302 203.266 258.068 205.133L198.37 239.599C195.136 241.467 191.152 241.467 187.918 239.599L128.22 205.133C124.986 203.266 122.994 199.815 122.994 196.081V127.148C122.994 123.414 124.986 119.963 128.22 118.096L187.918 83.6295Z" fill="#0A0D0F"/>
</g>
<path d="M185.043 80.6671C188.12 78.8908 189.56 78.0664 191.079 77.7435C192.44 77.4542 193.846 77.4542 195.208 77.7435C196.727 78.0664 198.167 78.8908 201.243 80.6671L254.67 111.513C257.747 113.289 259.181 114.124 260.22 115.278C261.151 116.313 261.855 117.531 262.285 118.854C262.764 120.331 262.77 121.991 262.77 125.543V187.235C262.77 190.788 262.764 192.447 262.285 193.924C261.855 195.248 261.151 196.466 260.22 197.5C259.181 198.654 257.747 199.489 254.67 201.265L201.243 232.111C198.167 233.888 196.727 234.712 195.208 235.035C193.846 235.324 192.44 235.324 191.079 235.035C189.56 234.712 188.12 233.888 185.043 232.111L131.616 201.265C128.539 199.489 127.105 198.654 126.066 197.5C125.135 196.466 124.432 195.248 124.002 193.924C123.522 192.447 123.516 190.788 123.516 187.235V125.543C123.516 121.991 123.522 120.331 124.002 118.854C124.432 117.531 125.135 116.313 126.066 115.278C127.105 114.124 128.539 113.289 131.616 111.513L185.043 80.6671Z" fill="#0A0D0F" stroke="url(#paint1_linear_8557_13119)" stroke-width="1.04519"/>
<g filter="url(#filter1_i_8557_13119)">
<path d="M191.471 84.7134C192.08 84.3617 192.385 84.1858 192.709 84.117C192.995 84.0561 193.291 84.0561 193.578 84.117C193.902 84.1858 194.206 84.3617 194.816 84.7134L254.375 119.1C254.984 119.451 255.289 119.627 255.511 119.873C255.707 120.091 255.855 120.347 255.945 120.626C256.048 120.941 256.048 121.293 256.048 121.996V190.769C256.048 191.472 256.048 191.824 255.945 192.139C255.855 192.417 255.707 192.674 255.511 192.892C255.289 193.138 254.984 193.313 254.375 193.665L194.816 228.051C194.206 228.403 193.902 228.579 193.578 228.648C193.291 228.709 192.995 228.709 192.709 228.648C192.385 228.579 192.08 228.403 191.471 228.051L131.912 193.665C131.302 193.313 130.998 193.138 130.776 192.892C130.58 192.674 130.432 192.417 130.342 192.139C130.239 191.824 130.239 191.472 130.239 190.769V121.996C130.239 121.293 130.239 120.941 130.342 120.626C130.432 120.347 130.58 120.091 130.776 119.873C130.998 119.627 131.302 119.451 131.912 119.1L191.471 84.7134Z" fill="#060809"/>
</g>
<path d="M192.817 84.6281L192.709 84.117L192.817 84.6281C193.032 84.5825 193.254 84.5825 193.469 84.6281C193.693 84.6757 193.915 84.7966 194.554 85.166L194.816 84.7136L194.554 85.166L254.114 119.552C254.754 119.922 254.969 120.053 255.122 120.223C255.269 120.386 255.38 120.579 255.448 120.788C255.519 121.005 255.525 121.257 255.525 121.996V190.769C255.525 191.507 255.519 191.76 255.448 191.977C255.38 192.186 255.269 192.379 255.122 192.542C254.969 192.712 254.754 192.843 254.114 193.213L194.554 227.599C193.915 227.968 193.693 228.089 193.469 228.137C193.254 228.182 193.032 228.182 192.817 228.137C192.594 228.089 192.372 227.968 191.732 227.599L132.173 193.213C131.533 192.843 131.318 192.712 131.165 192.542C131.018 192.379 130.906 192.186 130.839 191.977C130.768 191.76 130.762 191.507 130.762 190.769V121.996C130.762 121.257 130.768 121.005 130.839 120.788C130.906 120.579 131.018 120.386 131.165 120.223C131.318 120.053 131.533 119.922 132.173 119.552L191.732 85.166C192.372 84.7966 192.594 84.6757 192.817 84.6281Z" stroke="url(#paint2_linear_8557_13119)" stroke-width="1.04519"/>
<path d="M135.303 190.281C135.524 190.527 135.829 190.703 136.438 191.055L191.472 222.829C192.081 223.18 192.385 223.356 192.709 223.425C192.996 223.486 193.292 223.486 193.579 223.425L135.303 190.281ZM135.303 190.281C135.107 190.063 134.958 189.807 134.868 189.528M135.303 190.281L134.868 189.528M134.868 189.528C134.766 189.213 134.766 188.862 134.766 188.158M134.868 189.528L134.766 188.158M134.766 188.158V124.61M134.766 188.158V124.61M134.766 124.61C134.766 123.907 134.766 123.555 134.868 123.24M134.766 124.61L134.868 123.24M134.868 123.24C134.958 122.962 135.107 122.705 135.303 122.487L134.868 123.24ZM191.733 90.3923C192.373 90.0229 192.594 89.902 192.818 89.8545C193.033 89.8088 193.255 89.8088 193.47 89.8545C193.694 89.902 193.915 90.0229 194.555 90.3923L249.589 122.166C250.228 122.536 250.444 122.667 250.597 122.837C250.744 123 250.855 123.193 250.923 123.402C250.994 123.619 251 123.871 251 124.61V188.158C251 188.897 250.994 189.149 250.923 189.367C250.855 189.576 250.744 189.768 250.597 189.931C250.444 190.101 250.228 190.233 249.589 190.602L194.555 222.376C193.915 222.745 193.694 222.866 193.47 222.914C193.255 222.96 193.033 222.96 192.818 222.914C192.594 222.866 192.373 222.745 191.733 222.376L136.699 190.602C136.059 190.233 135.844 190.101 135.691 189.931L135.303 190.281L135.691 189.931C135.544 189.768 135.433 189.576 135.365 189.367C135.294 189.149 135.288 188.897 135.288 188.158V124.61C135.288 123.871 135.294 123.619 135.365 123.402C135.433 123.193 135.544 123 135.691 122.837C135.844 122.667 136.059 122.536 136.699 122.166L191.733 90.3923Z" fill="#0A0D0F" stroke="url(#paint3_linear_8557_13119)" stroke-width="1.04519"/>
<g filter="url(#filter2_i_8557_13119)">
<path d="M191.444 95.2116C192.062 94.8464 192.372 94.6638 192.701 94.5924C192.993 94.5292 193.295 94.5292 193.586 94.5924C193.916 94.6638 194.225 94.8464 194.844 95.2116L244.165 124.325C244.764 124.679 245.064 124.856 245.281 125.101C245.474 125.318 245.62 125.573 245.709 125.849C245.809 126.161 245.809 126.509 245.809 127.205V185.562C245.809 186.258 245.809 186.606 245.709 186.919C245.62 187.195 245.474 187.45 245.281 187.667C245.064 187.912 244.764 188.089 244.165 188.442L194.844 217.556C194.225 217.921 193.916 218.104 193.586 218.175C193.295 218.238 192.993 218.238 192.701 218.175C192.372 218.104 192.062 217.921 191.444 217.556L142.123 188.442C141.523 188.089 141.224 187.912 141.006 187.667C140.813 187.45 140.668 187.195 140.579 186.919C140.478 186.606 140.478 186.258 140.478 185.562V127.205C140.478 126.509 140.478 126.161 140.579 125.849C140.668 125.573 140.813 125.318 141.006 125.101C141.224 124.856 141.523 124.679 142.123 124.325L191.444 95.2116Z" fill="#060809"/>
</g>
<path d="M191.709 95.6617C192.359 95.2781 192.584 95.1525 192.812 95.1032C193.031 95.0558 193.257 95.0558 193.476 95.1032C193.703 95.1525 193.928 95.2781 194.578 95.6616L243.899 124.775C244.528 125.147 244.74 125.279 244.891 125.448L245.281 125.101L244.891 125.448C245.035 125.611 245.144 125.802 245.211 126.009C245.28 126.225 245.286 126.475 245.286 127.205V185.562C245.286 186.293 245.28 186.543 245.211 186.758C245.144 186.966 245.035 187.157 244.891 187.319C244.74 187.489 244.528 187.621 243.899 187.992L194.578 217.106C193.928 217.49 193.703 217.615 193.476 217.665C193.257 217.712 193.031 217.712 192.812 217.665C192.584 217.615 192.359 217.49 191.709 217.106L142.388 187.992C141.759 187.621 141.547 187.489 141.397 187.319C141.252 187.157 141.143 186.966 141.076 186.758C141.007 186.543 141.001 186.293 141.001 185.562V127.205C141.001 126.475 141.007 126.225 141.076 126.009C141.143 125.802 141.252 125.611 141.397 125.448C141.547 125.279 141.759 125.147 142.388 124.775L191.709 95.6617L191.444 95.2116L191.709 95.6617Z" stroke="url(#paint4_linear_8557_13119)" stroke-width="1.04519"/>
<g filter="url(#filter3_i_8557_13119)">
<path d="M191.472 95.1782C192.081 94.8265 192.385 94.6506 192.709 94.5818C192.996 94.5209 193.292 94.5209 193.578 94.5818C193.902 94.6506 194.207 94.8265 194.816 95.1782L245.32 124.335C245.929 124.687 246.233 124.863 246.455 125.109C246.651 125.327 246.799 125.583 246.89 125.862C246.992 126.177 246.992 126.528 246.992 127.232V185.546C246.992 186.249 246.992 186.601 246.89 186.916C246.799 187.194 246.651 187.451 246.455 187.668C246.233 187.914 245.929 188.09 245.32 188.442L194.816 217.599C194.207 217.951 193.902 218.127 193.578 218.195C193.292 218.256 192.996 218.256 192.709 218.195C192.385 218.127 192.081 217.951 191.472 217.599L140.968 188.442C140.359 188.09 140.054 187.914 139.833 187.668C139.637 187.451 139.489 187.194 139.398 186.916C139.296 186.601 139.296 186.249 139.296 185.546V127.232C139.296 126.528 139.296 126.177 139.398 125.862C139.489 125.583 139.637 125.327 139.833 125.109C140.054 124.863 140.359 124.687 140.968 124.335L191.472 95.1782Z" fill="#060809"/>
</g>
<path d="M191.733 95.6308C192.373 95.2615 192.594 95.1405 192.818 95.093C193.033 95.0473 193.255 95.0473 193.47 95.093C193.694 95.1405 193.915 95.2615 194.555 95.6308L245.058 124.788C245.698 125.157 245.914 125.289 246.067 125.459C246.214 125.622 246.325 125.814 246.393 126.023C246.463 126.241 246.469 126.493 246.469 127.232V185.546C246.469 186.284 246.463 186.537 246.393 186.754C246.325 186.963 246.214 187.155 246.067 187.319C245.914 187.489 245.698 187.62 245.058 187.989L194.555 217.146C193.915 217.516 193.694 217.637 193.47 217.684C193.255 217.73 193.033 217.73 192.818 217.684C192.594 217.637 192.373 217.516 191.733 217.146L141.23 187.989C140.59 187.62 140.374 187.489 140.221 187.319C140.074 187.155 139.963 186.963 139.895 186.754C139.825 186.537 139.818 186.284 139.818 185.546V127.232C139.818 126.493 139.825 126.241 139.895 126.023C139.963 125.814 140.074 125.622 140.221 125.459C140.374 125.289 140.59 125.157 141.23 124.788L191.733 95.6308Z" stroke="url(#paint5_linear_8557_13119)" stroke-width="1.04519"/>
<path d="M192.23 101.095C192.87 100.725 193.092 100.604 193.315 100.557C193.53 100.511 193.752 100.511 193.967 100.557C194.191 100.604 194.413 100.725 195.052 101.095L241.016 127.631C241.655 128 241.871 128.131 242.024 128.301C242.171 128.465 242.282 128.657 242.35 128.866C242.421 129.083 242.427 129.336 242.427 130.074V183.146C242.427 183.885 242.421 184.137 242.35 184.355C242.282 184.564 242.171 184.756 242.024 184.919C241.871 185.089 241.655 185.221 241.016 185.59L195.052 212.126C194.413 212.495 194.191 212.616 193.967 212.664C193.752 212.709 193.53 212.709 193.315 212.664C193.092 212.616 192.87 212.495 192.23 212.126L146.267 185.59C145.627 185.221 145.412 185.089 145.259 184.919L144.87 185.269L145.259 184.919C145.112 184.756 145.001 184.564 144.933 184.355C144.862 184.137 144.856 183.885 144.856 183.146V130.074C144.856 129.336 144.862 129.083 144.933 128.866C145.001 128.657 145.112 128.465 145.259 128.301C145.412 128.131 145.627 128 146.267 127.631L192.23 101.095Z" fill="#0A0D0F" stroke="url(#paint6_linear_8557_13119)" stroke-width="1.04519"/>
<path fill-rule="evenodd" clip-rule="evenodd" d="M173.907 165.142C173.72 165.51 173.72 165.992 173.72 166.955V172.401C173.72 173.364 173.72 173.846 173.907 174.214C174.072 174.538 174.335 174.801 174.659 174.966C175.027 175.153 175.508 175.153 176.472 175.153H181.918C182.881 175.153 183.363 175.153 183.731 174.966C184.054 174.801 184.317 174.538 184.482 174.214C184.67 173.846 184.67 173.364 184.67 172.401V166.955C184.67 165.992 184.67 165.51 184.482 165.142C184.317 164.819 184.054 164.555 183.731 164.391C183.363 164.203 182.881 164.203 181.918 164.203H176.472C175.508 164.203 175.027 164.203 174.659 164.391C174.335 164.555 174.072 164.819 173.907 165.142ZM175.747 168.178C175.747 167.848 176.015 167.58 176.345 167.58H182.044C182.374 167.58 182.642 167.848 182.642 168.178C182.642 168.508 182.374 168.776 182.044 168.776H176.345C176.015 168.776 175.747 168.508 175.747 168.178ZM175.747 171.178C175.747 170.848 176.015 170.58 176.345 170.58H182.044C182.374 170.58 182.642 170.848 182.642 171.178C182.642 171.508 182.374 171.776 182.044 171.776H176.345C176.015 171.776 175.747 171.508 175.747 171.178Z" fill="#FF5500"/>
<path fill-rule="evenodd" clip-rule="evenodd" d="M187.907 165.142C187.72 165.51 187.72 165.992 187.72 166.955V172.401C187.72 173.364 187.72 173.846 187.907 174.214C188.072 174.538 188.335 174.801 188.659 174.966C189.027 175.153 189.508 175.153 190.472 175.153H195.918C196.881 175.153 197.363 175.153 197.731 174.966C198.054 174.801 198.317 174.538 198.482 174.214C198.67 173.846 198.67 173.364 198.67 172.401V166.955C198.67 165.992 198.67 165.51 198.482 165.142C198.317 164.819 198.054 164.555 197.731 164.391C197.363 164.203 196.881 164.203 195.918 164.203H190.472C189.508 164.203 189.027 164.203 188.659 164.391C188.335 164.555 188.072 164.819 187.907 165.142ZM189.747 168.178C189.747 167.848 190.015 167.58 190.345 167.58H196.044C196.374 167.58 196.642 167.848 196.642 168.178C196.642 168.508 196.374 168.776 196.044 168.776H190.345C190.015 168.776 189.747 168.508 189.747 168.178ZM189.747 171.178C189.747 170.848 190.015 170.58 190.345 170.58H196.044C196.374 170.58 196.642 170.848 196.642 171.178C196.642 171.508 196.374 171.776 196.044 171.776H190.345C190.015 171.776 189.747 171.508 189.747 171.178Z" fill="#FF5500"/>
<path fill-rule="evenodd" clip-rule="evenodd" d="M201.907 165.142C201.72 165.51 201.72 165.992 201.72 166.955V172.401C201.72 173.364 201.72 173.846 201.907 174.214C202.072 174.538 202.335 174.801 202.659 174.966C203.027 175.153 203.508 175.153 204.472 175.153H209.918C210.881 175.153 211.363 175.153 211.731 174.966C212.054 174.801 212.317 174.538 212.482 174.214C212.67 173.846 212.67 173.364 212.67 172.401V166.955C212.67 165.992 212.67 165.51 212.482 165.142C212.317 164.819 212.054 164.555 211.731 164.391C211.363 164.203 210.881 164.203 209.918 164.203H204.472C203.508 164.203 203.027 164.203 202.659 164.391C202.335 164.555 202.072 164.819 201.907 165.142ZM203.747 168.178C203.747 167.848 204.015 167.58 204.345 167.58H210.044C210.374 167.58 210.642 167.848 210.642 168.178C210.642 168.508 210.374 168.776 210.044 168.776H204.345C204.015 168.776 203.747 168.508 203.747 168.178ZM203.747 171.178C203.747 170.848 204.015 170.58 204.345 170.58H210.044C210.374 170.58 210.642 170.848 210.642 171.178C210.642 171.508 210.374 171.776 210.044 171.776H204.345C204.015 171.776 203.747 171.508 203.747 171.178Z" fill="#FF5500"/>
<path d="M193.446 147.016V156.188M193.446 156.188H181.153C180.049 156.188 179.153 157.083 179.153 158.187V163.993M193.446 156.188H205.599C206.703 156.188 207.599 157.083 207.599 158.187V163.993M193.446 156.188V163.993" stroke="#FF5500" stroke-linecap="round"/>
<circle cx="193.378" cy="156.232" r="2.50586" fill="#FF5500"/>
<path fill-rule="evenodd" clip-rule="evenodd" d="M175.7 136C174.751 136 173.981 136.77 173.981 137.719V145.23C173.981 146.179 174.751 146.949 175.7 146.949H210.789C211.738 146.949 212.508 146.179 212.508 145.23V137.719C212.508 136.77 211.738 136 210.789 136H175.7ZM208.567 141.476C208.567 142.708 207.568 143.707 206.336 143.707C205.104 143.707 204.105 142.708 204.105 141.476C204.105 140.243 205.104 139.245 206.336 139.245C207.568 139.245 208.567 140.243 208.567 141.476ZM176.993 141.474C176.993 140.999 177.378 140.614 177.852 140.614H187.928C188.403 140.614 188.788 140.999 188.788 141.474C188.788 141.949 188.403 142.333 187.928 142.333H177.852C177.378 142.333 176.993 141.949 176.993 141.474Z" fill="#FF5500"/>
<path d="M166.672 312.081L166.659 312.074L166.647 312.068C160.703 309.391 156.565 303.406 156.565 296.453C156.565 287.001 164.21 279.341 173.638 279.341C175.117 279.341 176.478 278.428 177.026 277.05C179.732 270.244 186.367 265.436 194.12 265.436C204.278 265.436 212.514 273.689 212.514 283.872C212.514 285.957 214.073 287.95 216.264 287.95H216.915C223.971 287.95 229.693 293.683 229.693 300.757C229.693 307.831 223.971 313.564 216.915 313.564H172.647C170.488 313.564 168.455 313.028 166.672 312.081Z" fill="url(#paint7_linear_8557_13119)" stroke="url(#paint8_linear_8557_13119)" stroke-width="0.872003"/>
<g clip-path="url(#clip1_8557_13119)">
<path d="M185.46 293.35C185.46 293.76 185.504 294.092 185.579 294.335C185.666 294.579 185.774 294.845 185.925 295.132C185.979 295.221 186 295.309 186 295.387C186 295.498 185.936 295.608 185.795 295.719L185.115 296.184C185.018 296.25 184.92 296.283 184.834 296.283C184.726 296.283 184.618 296.228 184.51 296.128C184.359 295.962 184.229 295.785 184.121 295.608C184.013 295.42 183.905 295.21 183.787 294.955C182.944 295.973 181.886 296.483 180.612 296.483C179.705 296.483 178.981 296.217 178.452 295.686C177.923 295.154 177.653 294.446 177.653 293.561C177.653 292.62 177.977 291.856 178.636 291.281C179.295 290.705 180.169 290.417 181.282 290.417C181.649 290.417 182.027 290.451 182.426 290.506C182.826 290.561 183.236 290.65 183.668 290.749V289.941C183.668 289.1 183.495 288.514 183.16 288.171C182.815 287.827 182.232 287.661 181.4 287.661C181.022 287.661 180.634 287.706 180.234 287.805C179.835 287.905 179.446 288.027 179.068 288.182C178.895 288.259 178.766 288.303 178.69 288.326C178.614 288.348 178.56 288.359 178.517 288.359C178.366 288.359 178.29 288.248 178.29 288.016V287.473C178.29 287.296 178.312 287.163 178.366 287.086C178.42 287.008 178.517 286.931 178.668 286.854C179.046 286.654 179.5 286.488 180.029 286.355C180.558 286.212 181.12 286.145 181.713 286.145C182.998 286.145 183.938 286.444 184.543 287.042C185.136 287.639 185.439 288.547 185.439 289.764V293.35H185.46ZM181.076 295.033C181.433 295.033 181.8 294.966 182.189 294.833C182.577 294.701 182.923 294.457 183.214 294.125C183.387 293.915 183.517 293.682 183.582 293.417C183.646 293.151 183.689 292.83 183.689 292.454V291.989C183.376 291.912 183.042 291.845 182.696 291.801C182.351 291.757 182.016 291.734 181.681 291.734C180.958 291.734 180.428 291.878 180.072 292.177C179.716 292.476 179.543 292.897 179.543 293.45C179.543 293.97 179.673 294.358 179.943 294.623C180.202 294.9 180.58 295.033 181.076 295.033ZM189.747 296.228C189.553 296.228 189.423 296.195 189.337 296.117C189.251 296.051 189.175 295.896 189.11 295.686L186.573 287.13C186.508 286.909 186.475 286.765 186.475 286.688C186.475 286.51 186.562 286.411 186.735 286.411H187.793C187.998 286.411 188.138 286.444 188.214 286.521C188.3 286.588 188.365 286.743 188.43 286.953L190.244 294.28L191.928 286.953C191.982 286.732 192.047 286.588 192.134 286.521C192.22 286.455 192.371 286.411 192.566 286.411H193.429C193.635 286.411 193.775 286.444 193.861 286.521C193.948 286.588 194.023 286.743 194.067 286.953L195.773 294.369L197.641 286.953C197.706 286.732 197.781 286.588 197.857 286.521C197.943 286.455 198.083 286.411 198.278 286.411H199.282C199.455 286.411 199.552 286.499 199.552 286.688C199.552 286.743 199.541 286.798 199.53 286.865C199.52 286.931 199.498 287.02 199.455 287.141L196.852 295.697C196.788 295.918 196.712 296.062 196.626 296.128C196.539 296.195 196.399 296.239 196.215 296.239H195.287C195.082 296.239 194.941 296.206 194.855 296.128C194.768 296.051 194.693 295.907 194.65 295.686L192.976 288.547L191.313 295.675C191.259 295.896 191.194 296.04 191.108 296.117C191.021 296.195 190.87 296.228 190.676 296.228H189.747ZM203.623 296.527C203.061 296.527 202.5 296.46 201.96 296.328C201.42 296.195 200.999 296.051 200.718 295.885C200.545 295.785 200.427 295.675 200.383 295.575C200.34 295.475 200.319 295.365 200.319 295.265V294.701C200.319 294.468 200.405 294.358 200.567 294.358C200.632 294.358 200.697 294.369 200.761 294.391C200.826 294.413 200.923 294.457 201.031 294.501C201.398 294.667 201.798 294.8 202.219 294.889C202.651 294.977 203.072 295.022 203.504 295.022C204.184 295.022 204.714 294.9 205.081 294.656C205.448 294.413 205.642 294.059 205.642 293.605C205.642 293.295 205.545 293.04 205.351 292.83C205.156 292.62 204.789 292.432 204.26 292.255L202.694 291.757C201.906 291.502 201.323 291.126 200.967 290.628C200.61 290.141 200.427 289.598 200.427 289.023C200.427 288.558 200.524 288.148 200.718 287.794C200.913 287.44 201.172 287.13 201.496 286.887C201.82 286.632 202.187 286.444 202.619 286.311C203.051 286.178 203.504 286.123 203.979 286.123C204.217 286.123 204.465 286.134 204.703 286.167C204.951 286.201 205.178 286.245 205.405 286.289C205.621 286.344 205.826 286.4 206.02 286.466C206.214 286.533 206.366 286.599 206.474 286.665C206.625 286.754 206.733 286.842 206.798 286.942C206.862 287.031 206.895 287.152 206.895 287.307V287.827C206.895 288.06 206.808 288.182 206.646 288.182C206.56 288.182 206.42 288.137 206.236 288.049C205.621 287.761 204.929 287.617 204.163 287.617C203.547 287.617 203.061 287.717 202.727 287.927C202.392 288.137 202.219 288.458 202.219 288.912C202.219 289.222 202.327 289.488 202.543 289.698C202.759 289.908 203.159 290.119 203.731 290.307L205.264 290.805C206.042 291.059 206.603 291.413 206.938 291.867C207.273 292.321 207.435 292.841 207.435 293.417C207.435 293.893 207.337 294.324 207.154 294.701C206.96 295.077 206.7 295.409 206.366 295.675C206.031 295.951 205.631 296.151 205.167 296.294C204.681 296.449 204.174 296.527 203.623 296.527Z" fill="white"/>
<path fill-rule="evenodd" clip-rule="evenodd" d="M205.663 301.93C202.111 304.619 196.949 306.047 192.511 306.047C186.292 306.047 180.687 303.689 176.454 299.771C176.12 299.462 176.422 299.041 176.822 299.284C181.4 302.007 187.047 303.656 192.889 303.656C196.831 303.656 201.161 302.815 205.145 301.089C205.739 300.812 206.247 301.487 205.663 301.93Z" fill="white"/>
<path fill-rule="evenodd" clip-rule="evenodd" d="M207.143 300.197C206.689 299.599 204.141 299.909 202.985 300.053C202.64 300.097 202.586 299.787 202.899 299.555C204.929 298.094 208.266 298.515 208.654 299.002C209.043 299.5 208.546 302.92 206.646 304.558C206.354 304.812 206.074 304.679 206.203 304.347C206.635 303.252 207.596 300.783 207.143 300.197Z" fill="white"/>
</g>
<rect x="293.159" y="68.436" width="47.128" height="47.128" rx="7.564" fill="url(#paint9_linear_8557_13119)"/>
<rect x="293.159" y="68.436" width="47.128" height="47.128" rx="7.564" stroke="url(#paint10_linear_8557_13119)" stroke-width="0.872003"/>
<path fill-rule="evenodd" clip-rule="evenodd" d="M304.764 83.7344C304.139 83.7344 303.633 84.241 303.633 84.8659V89.8094C303.633 90.4343 304.139 90.9409 304.764 90.9409H327.859C328.484 90.9409 328.991 90.4343 328.991 89.8094V84.8659C328.991 84.241 328.484 83.7344 327.859 83.7344H304.764ZM326.394 87.3401C326.394 88.1512 325.736 88.8086 324.925 88.8086C324.114 88.8086 323.457 88.1512 323.457 87.3401C323.457 86.5291 324.114 85.8716 324.925 85.8716C325.736 85.8716 326.394 86.5291 326.394 87.3401ZM305.611 87.3397C305.611 87.0272 305.864 86.774 306.176 86.774H312.808C313.121 86.774 313.374 87.0272 313.374 87.3397C313.374 87.6521 313.121 87.9054 312.808 87.9054H306.176C305.864 87.9054 305.611 87.6521 305.611 87.3397Z" fill="white"/>
<path fill-rule="evenodd" clip-rule="evenodd" d="M304.764 93.2039C304.139 93.2039 303.633 93.7104 303.633 94.3353V99.2789C303.633 99.9038 304.139 100.41 304.764 100.41H327.859C328.484 100.41 328.991 99.9038 328.991 99.2789V94.3353C328.991 93.7104 328.484 93.2039 327.859 93.2039H304.764ZM326.394 96.8064C326.394 97.6175 325.736 98.2749 324.925 98.2749C324.114 98.2749 323.457 97.6175 323.457 96.8064C323.457 95.9954 324.114 95.3379 324.925 95.3379C325.736 95.3379 326.394 95.9954 326.394 96.8064ZM305.611 96.806C305.611 96.4935 305.864 96.2403 306.176 96.2403H312.808C313.121 96.2403 313.374 96.4935 313.374 96.806C313.374 97.1184 313.121 97.3717 312.808 97.3717H306.176C305.864 97.3717 305.611 97.1184 305.611 96.806Z" fill="white"/>
<rect x="48.7563" y="68.436" width="47.128" height="47.128" rx="7.564" fill="url(#paint11_linear_8557_13119)"/>
<rect x="48.7563" y="68.436" width="47.128" height="47.128" rx="7.564" stroke="url(#paint12_linear_8557_13119)" stroke-width="0.872003"/>
<path fill-rule="evenodd" clip-rule="evenodd" d="M60.3619 83.7344C59.737 83.7344 59.2305 84.241 59.2305 84.8659V89.8094C59.2305 90.4343 59.737 90.9409 60.3619 90.9409H83.457C84.0819 90.9409 84.5884 90.4343 84.5884 89.8094V84.8659C84.5884 84.241 84.0819 83.7344 83.457 83.7344H60.3619ZM81.9912 87.3401C81.9912 88.1512 81.3337 88.8086 80.5227 88.8086C79.7117 88.8086 79.0542 88.1512 79.0542 87.3401C79.0542 86.5291 79.7117 85.8716 80.5227 85.8716C81.3337 85.8716 81.9912 86.5291 81.9912 87.3401ZM61.2082 87.3397C61.2082 87.0272 61.4615 86.774 61.7739 86.774H68.4059C68.7184 86.774 68.9716 87.0272 68.9716 87.3397C68.9716 87.6521 68.7184 87.9054 68.4059 87.9054H61.7739C61.4615 87.9054 61.2082 87.6521 61.2082 87.3397Z" fill="white"/>
<path fill-rule="evenodd" clip-rule="evenodd" d="M60.3619 93.2039C59.737 93.2039 59.2305 93.7104 59.2305 94.3353V99.2789C59.2305 99.9038 59.737 100.41 60.3619 100.41H83.457C84.0819 100.41 84.5884 99.9038 84.5884 99.2789V94.3353C84.5884 93.7104 84.0819 93.2039 83.457 93.2039H60.3619ZM81.9912 96.8064C81.9912 97.6175 81.3337 98.2749 80.5227 98.2749C79.7117 98.2749 79.0542 97.6175 79.0542 96.8064C79.0542 95.9954 79.7117 95.3379 80.5227 95.3379C81.3337 95.3379 81.9912 95.9954 81.9912 96.8064ZM61.2082 96.806C61.2082 96.4935 61.4615 96.2403 61.7739 96.2403H68.4059C68.7184 96.2403 68.9716 96.4935 68.9716 96.806C68.9716 97.1184 68.7184 97.3717 68.4059 97.3717H61.7739C61.4615 97.3717 61.2082 97.1184 61.2082 96.806Z" fill="white"/>
<defs>
<filter id="filter0_f_8557_13119" x="116.723" y="75.9581" width="152.843" height="171.313" filterUnits="userSpaceOnUse" color-interpolation-filters="sRGB">
<feFlood flood-opacity="0" result="BackgroundImageFix"/>
<feBlend mode="normal" in="SourceGraphic" in2="BackgroundImageFix" result="shape"/>
<feGaussianBlur stdDeviation="3.13557" result="effect1_foregroundBlur_8557_13119"/>
</filter>
<filter id="filter1_i_8557_13119" x="130.239" y="84.0713" width="125.808" height="145.668" filterUnits="userSpaceOnUse" color-interpolation-filters="sRGB">
<feFlood flood-opacity="0" result="BackgroundImageFix"/>
<feBlend mode="normal" in="SourceGraphic" in2="BackgroundImageFix" result="shape"/>
<feColorMatrix in="SourceAlpha" type="matrix" values="0 0 0 0 0 0 0 0 0 0 0 0 0 0 0 0 0 0 127 0" result="hardAlpha"/>
<feOffset dy="1.04519"/>
<feGaussianBlur stdDeviation="1.04519"/>
<feComposite in2="hardAlpha" operator="arithmetic" k2="-1" k3="1"/>
<feColorMatrix type="matrix" values="0 0 0 0 0 0 0 0 0 0 0 0 0 0 0 0 0 0 1 0"/>
<feBlend mode="normal" in2="shape" result="effect1_innerShadow_8557_13119"/>
</filter>
<filter id="filter2_i_8557_13119" x="140.479" y="94.545" width="105.331" height="124.723" filterUnits="userSpaceOnUse" color-interpolation-filters="sRGB">
<feFlood flood-opacity="0" result="BackgroundImageFix"/>
<feBlend mode="normal" in="SourceGraphic" in2="BackgroundImageFix" result="shape"/>
<feColorMatrix in="SourceAlpha" type="matrix" values="0 0 0 0 0 0 0 0 0 0 0 0 0 0 0 0 0 0 127 0" result="hardAlpha"/>
<feOffset dy="1.04519"/>
<feGaussianBlur stdDeviation="1.04519"/>
<feComposite in2="hardAlpha" operator="arithmetic" k2="-1" k3="1"/>
<feColorMatrix type="matrix" values="0 0 0 0 0 0 0 0 0 0 0 0 0 0 0 0 0 0 1 0"/>
<feBlend mode="normal" in2="shape" result="effect1_innerShadow_8557_13119"/>
</filter>
<filter id="filter3_i_8557_13119" x="139.296" y="94.5361" width="107.696" height="124.75" filterUnits="userSpaceOnUse" color-interpolation-filters="sRGB">
<feFlood flood-opacity="0" result="BackgroundImageFix"/>
<feBlend mode="normal" in="SourceGraphic" in2="BackgroundImageFix" result="shape"/>
<feColorMatrix in="SourceAlpha" type="matrix" values="0 0 0 0 0 0 0 0 0 0 0 0 0 0 0 0 0 0 127 0" result="hardAlpha"/>
<feOffset dy="1.04519"/>
<feGaussianBlur stdDeviation="1.04519"/>
<feComposite in2="hardAlpha" operator="arithmetic" k2="-1" k3="1"/>
<feColorMatrix type="matrix" values="0 0 0 0 0 0 0 0 0 0 0 0 0 0 0 0 0 0 1 0"/>
<feBlend mode="normal" in2="shape" result="effect1_innerShadow_8557_13119"/>
</filter>
<linearGradient id="paint0_linear_8557_13119" x1="193" y1="223.383" x2="193" y2="326" gradientUnits="userSpaceOnUse">
<stop stop-color="#161C20" stop-opacity="0"/>
<stop offset="1" stop-color="#0E1114"/>
</linearGradient>
<linearGradient id="paint1_linear_8557_13119" x1="193.143" y1="156.335" x2="193.143" y2="237.391" gradientUnits="userSpaceOnUse">
<stop stop-color="#3B3D3F" stop-opacity="0.5"/>
<stop offset="1" stop-color="#3B3D3F" stop-opacity="0.89"/>
</linearGradient>
<linearGradient id="paint2_linear_8557_13119" x1="193.121" y1="83.0602" x2="193.179" y2="229.017" gradientUnits="userSpaceOnUse">
<stop stop-color="#1E1E1F" stop-opacity="0"/>
<stop offset="1" stop-color="#1E1E1F" stop-opacity="0.8"/>
</linearGradient>
<linearGradient id="paint3_linear_8557_13119" x1="193.144" y1="88.9742" x2="193.144" y2="223.794" gradientUnits="userSpaceOnUse">
<stop stop-color="#3B3D3F" stop-opacity="0.5"/>
<stop offset="1" stop-color="#3B3D3F" stop-opacity="0.8"/>
</linearGradient>
<linearGradient id="paint4_linear_8557_13119" x1="193.125" y1="93.6193" x2="193.176" y2="218.56" gradientUnits="userSpaceOnUse">
<stop stop-color="#1E1E1F" stop-opacity="0"/>
<stop offset="1" stop-color="#1E1E1F" stop-opacity="0.8"/>
</linearGradient>
<linearGradient id="paint5_linear_8557_13119" x1="193.125" y1="93.624" x2="193.174" y2="218.564" gradientUnits="userSpaceOnUse">
<stop stop-color="#1E1E1F" stop-opacity="0"/>
<stop offset="1" stop-color="#1E1E1F" stop-opacity="0.8"/>
</linearGradient>
<linearGradient id="paint6_linear_8557_13119" x1="193.641" y1="99.6766" x2="193.641" y2="213.544" gradientUnits="userSpaceOnUse">
<stop stop-color="#3B3D3F" stop-opacity="0.2"/>
<stop offset="1" stop-color="#3B3D3F" stop-opacity="0.4"/>
</linearGradient>
<linearGradient id="paint7_linear_8557_13119" x1="193.129" y1="265" x2="193.129" y2="314" gradientUnits="userSpaceOnUse">
<stop stop-color="#161C20"/>
<stop offset="1" stop-color="#0A0D0F"/>
</linearGradient>
<linearGradient id="paint8_linear_8557_13119" x1="193.129" y1="289.484" x2="193.129" y2="314" gradientUnits="userSpaceOnUse">
<stop stop-color="#3B3D3F" stop-opacity="0.5"/>
<stop offset="1" stop-color="#3B3D3F" stop-opacity="0.89"/>
</linearGradient>
<linearGradient id="paint9_linear_8557_13119" x1="316.723" y1="68" x2="316.723" y2="116" gradientUnits="userSpaceOnUse">
<stop stop-color="#161C20"/>
<stop offset="1" stop-color="#0A0D0F"/>
</linearGradient>
<linearGradient id="paint10_linear_8557_13119" x1="316.723" y1="91.9839" x2="316.723" y2="116" gradientUnits="userSpaceOnUse">
<stop stop-color="#3B3D3F" stop-opacity="0.5"/>
<stop offset="1" stop-color="#3B3D3F" stop-opacity="0.89"/>
</linearGradient>
<linearGradient id="paint11_linear_8557_13119" x1="72.3203" y1="68" x2="72.3203" y2="116" gradientUnits="userSpaceOnUse">
<stop stop-color="#161C20"/>
<stop offset="1" stop-color="#0A0D0F"/>
</linearGradient>
<linearGradient id="paint12_linear_8557_13119" x1="72.3203" y1="91.9839" x2="72.3203" y2="116" gradientUnits="userSpaceOnUse">
<stop stop-color="#3B3D3F" stop-opacity="0.5"/>
<stop offset="1" stop-color="#3B3D3F" stop-opacity="0.89"/>
</linearGradient>
<clipPath id="clip0_8557_13119">
<rect width="390" height="247" fill="white" transform="translate(-5.47266 -3.5)"/>
</clipPath>
<clipPath id="clip1_8557_13119">
<rect width="32.8264" height="20.1435" fill="white" transform="translate(176.129 286)"/>
</clipPath>
</defs>
</svg>
