<svg width="18" height="18" viewBox="0 0 18 18" fill="none" xmlns="http://www.w3.org/2000/svg">
<path d="M18.0004 8.99993C18.0004 9.19884 17.9214 9.38961 17.7807 9.53026C17.6401 9.67091 17.4493 9.74993 17.2504 9.74993H9.00042C8.8015 9.74993 8.61074 9.67091 8.47009 9.53026C8.32943 9.38961 8.25042 9.19884 8.25042 8.99993C8.25042 8.80102 8.32943 8.61025 8.47009 8.4696C8.61074 8.32895 8.8015 8.24993 9.00042 8.24993H17.2504C17.4493 8.24993 17.6401 8.32895 17.7807 8.4696C17.9214 8.61025 18.0004 8.80102 18.0004 8.99993ZM9.00042 3.74993H17.2504C17.4493 3.74993 17.6401 3.67091 17.7807 3.53026C17.9214 3.38961 18.0004 3.19884 18.0004 2.99993C18.0004 2.80102 17.9214 2.61025 17.7807 2.4696C17.6401 2.32895 17.4493 2.24993 17.2504 2.24993H9.00042C8.8015 2.24993 8.61074 2.32895 8.47009 2.4696C8.32943 2.61025 8.25042 2.80102 8.25042 2.99993C8.25042 3.19884 8.32943 3.38961 8.47009 3.53026C8.61074 3.67091 8.8015 3.74993 9.00042 3.74993ZM17.2504 14.2499H9.00042C8.8015 14.2499 8.61074 14.3289 8.47009 14.4696C8.32943 14.6103 8.25042 14.801 8.25042 14.9999C8.25042 15.1988 8.32943 15.3896 8.47009 15.5303C8.61074 15.6709 8.8015 15.7499 9.00042 15.7499H17.2504C17.4493 15.7499 17.6401 15.6709 17.7807 15.5303C17.9214 15.3896 18.0004 15.1988 18.0004 14.9999C18.0004 14.801 17.9214 14.6103 17.7807 14.4696C17.6401 14.3289 17.4493 14.2499 17.2504 14.2499ZM4.71979 0.969304L2.25042 3.43962L1.28104 2.4693C1.14031 2.32857 0.94944 2.24951 0.750417 2.24951C0.551394 2.24951 0.360523 2.32857 0.219792 2.4693C0.0790615 2.61003 1.48284e-09 2.80091 0 2.99993C-1.48284e-09 3.19895 0.0790615 3.38982 0.219792 3.53055L1.71979 5.03055C1.78945 5.10029 1.87216 5.15561 1.96321 5.19335C2.05426 5.23109 2.15186 5.25052 2.25042 5.25052C2.34898 5.25052 2.44657 5.23109 2.53762 5.19335C2.62867 5.15561 2.71139 5.10029 2.78104 5.03055L5.78104 2.03055C5.92177 1.88982 6.00083 1.69895 6.00083 1.49993C6.00083 1.30091 5.92177 1.11003 5.78104 0.969304C5.64031 0.828573 5.44944 0.749512 5.25042 0.749512C5.05139 0.749512 4.86052 0.828573 4.71979 0.969304ZM4.71979 6.9693L2.25042 9.43962L1.28104 8.4693C1.14031 8.32857 0.94944 8.24951 0.750417 8.24951C0.551394 8.24951 0.360523 8.32857 0.219792 8.4693C0.0790615 8.61003 0 8.80091 0 8.99993C0 9.09847 0.0194101 9.19606 0.0571221 9.2871C0.0948341 9.37815 0.150109 9.46087 0.219792 9.53055L1.71979 11.0306C1.78945 11.1003 1.87216 11.1556 1.96321 11.1933C2.05426 11.2311 2.15186 11.2505 2.25042 11.2505C2.34898 11.2505 2.44657 11.2311 2.53762 11.1933C2.62867 11.1556 2.71139 11.1003 2.78104 11.0306L5.78104 8.03055C5.92177 7.88982 6.00083 7.69895 6.00083 7.49993C6.00083 7.30091 5.92177 7.11003 5.78104 6.9693C5.64031 6.82857 5.44944 6.74951 5.25042 6.74951C5.05139 6.74951 4.86052 6.82857 4.71979 6.9693ZM4.71979 12.9693L2.25042 15.4396L1.28104 14.4693C1.21136 14.3996 1.12863 14.3443 1.03759 14.3066C0.946545 14.2689 0.848963 14.2495 0.750417 14.2495C0.651871 14.2495 0.554289 14.2689 0.463245 14.3066C0.3722 14.3443 0.289475 14.3996 0.219792 14.4693C0.150109 14.539 0.0948341 14.6217 0.0571221 14.7128C0.0194101 14.8038 0 14.9014 0 14.9999C0 15.0985 0.0194101 15.1961 0.0571221 15.2871C0.0948341 15.3781 0.150109 15.4609 0.219792 15.5306L1.71979 17.0306C1.78945 17.1003 1.87216 17.1556 1.96321 17.1933C2.05426 17.2311 2.15186 17.2505 2.25042 17.2505C2.34898 17.2505 2.44657 17.2311 2.53762 17.1933C2.62867 17.1556 2.71139 17.1003 2.78104 17.0306L5.78104 14.0306C5.92177 13.8898 6.00083 13.699 6.00083 13.4999C6.00083 13.3009 5.92177 13.11 5.78104 12.9693C5.64031 12.8286 5.44944 12.7495 5.25042 12.7495C5.05139 12.7495 4.86052 12.8286 4.71979 12.9693Z" fill="#FF5500"/>
</svg>
