<svg width="18" height="21" viewBox="0 0 18 21" fill="none" xmlns="http://www.w3.org/2000/svg">
<path d="M16.5 1.75L9.45446 0.10604C9.1555 0.0362837 8.8445 0.0362837 8.54554 0.10604L1.5 1.75C1.10218 1.75 0.720644 1.90804 0.43934 2.18934C0.158035 2.47064 0 2.85218 0 3.25V8.76062C0 17.1616 7.10812 19.9487 8.53125 20.4222C8.8352 20.5256 9.1648 20.5256 9.46875 20.4222C10.8938 19.9487 18 17.1616 18 8.76062V3.25C18 2.85218 17.842 2.47064 17.5607 2.18934C17.2794 1.90804 16.8978 1.75 16.5 1.75ZM16.5 8.76156C16.5 16.1134 10.2797 18.5697 9 18.9972C7.73156 18.5744 1.5 16.12 1.5 8.76156V3.25L8.54554 1.60604C8.8445 1.53628 9.1555 1.53628 9.45446 1.60604L16.5 3.25V8.76156ZM4.71937 11.2806C4.57864 11.1399 4.49958 10.949 4.49958 10.75C4.49958 10.551 4.57864 10.3601 4.71937 10.2194C4.86011 10.0786 5.05098 9.99958 5.25 9.99958C5.44902 9.99958 5.63989 10.0786 5.78063 10.2194L7.5 11.9387L12.2194 7.21937C12.2891 7.14969 12.3718 7.09442 12.4628 7.0567C12.5539 7.01899 12.6515 6.99958 12.75 6.99958C12.8485 6.99958 12.9461 7.01899 13.0372 7.0567C13.1282 7.09442 13.2109 7.14969 13.2806 7.21937C13.3503 7.28906 13.4056 7.37178 13.4433 7.46283C13.481 7.55387 13.5004 7.65145 13.5004 7.75C13.5004 7.84855 13.481 7.94613 13.4433 8.03717C13.4056 8.12822 13.3503 8.21094 13.2806 8.28063L8.03063 13.5306C7.96097 13.6004 7.87825 13.6557 7.78721 13.6934C7.69616 13.7312 7.59856 13.7506 7.5 13.7506C7.40144 13.7506 7.30384 13.7312 7.21279 13.6934C7.12175 13.6557 7.03903 13.6004 6.96937 13.5306L4.71937 11.2806Z" fill="#FF5500"/>
</svg>
