<svg width="27" height="28" viewBox="0 0 27 28" fill="none" xmlns="http://www.w3.org/2000/svg">
<path d="M24.5001 14.2681C24.5051 14.0881 24.5051 13.9081 24.5001 13.7281L26.3651 11.3981C26.4628 11.2758 26.5305 11.1322 26.5627 10.9789C26.5948 10.8256 26.5905 10.6669 26.5501 10.5156C26.2438 9.36654 25.7865 8.26317 25.1901 7.23435C25.1119 7.09975 25.0034 6.98525 24.8732 6.89997C24.743 6.81468 24.5947 6.76097 24.4401 6.7431L21.4751 6.4131C21.3517 6.2831 21.2267 6.1581 21.1001 6.0381L20.7501 3.0656C20.7321 2.91087 20.6782 2.76248 20.5926 2.63227C20.5071 2.50205 20.3924 2.39362 20.2576 2.3156C19.2288 1.71967 18.1254 1.26316 16.9763 0.958104C16.825 0.917679 16.6663 0.913359 16.513 0.945493C16.3597 0.977626 16.2161 1.04531 16.0938 1.1431L13.7701 2.9981C13.5901 2.9981 13.4101 2.9981 13.2301 2.9981L10.9001 1.13685C10.7777 1.03906 10.6341 0.971376 10.4808 0.939243C10.3276 0.90711 10.1689 0.911429 10.0176 0.951854C8.86849 1.25814 7.76513 1.71546 6.73631 2.31185C6.6017 2.39001 6.4872 2.49851 6.40192 2.62871C6.31664 2.75892 6.26292 2.90723 6.24506 3.06185L5.91506 6.03185C5.78506 6.15602 5.66006 6.28102 5.54006 6.40685L2.56756 6.7481C2.41282 6.76611 2.26443 6.82001 2.13422 6.90552C2.00401 6.99102 1.89557 7.10577 1.81756 7.2406C1.22174 8.26956 0.76485 9.37291 0.458807 10.5219C0.418553 10.6733 0.414436 10.832 0.446787 10.9853C0.479139 11.1386 0.547053 11.2821 0.645057 11.4044L2.50006 13.7281C2.50006 13.9081 2.50006 14.0881 2.50006 14.2681L0.638807 16.5981C0.541018 16.7204 0.473329 16.864 0.441196 17.0173C0.409063 17.1706 0.413382 17.3293 0.453807 17.4806C0.760091 18.6297 1.21741 19.733 1.81381 20.7619C1.89196 20.8965 2.00046 21.011 2.13067 21.0962C2.26087 21.1815 2.40919 21.2352 2.56381 21.2531L5.52881 21.5831C5.65297 21.7131 5.77797 21.8381 5.90381 21.9581L6.25006 24.9306C6.26806 25.0853 6.32196 25.2337 6.40747 25.3639C6.49298 25.4942 6.60772 25.6026 6.74256 25.6806C7.77151 26.2764 8.87486 26.7333 10.0238 27.0394C10.1752 27.0796 10.334 27.0837 10.4872 27.0514C10.6405 27.019 10.7841 26.9511 10.9063 26.8531L13.2301 24.9981C13.4101 25.0031 13.5901 25.0031 13.7701 24.9981L16.1001 26.8631C16.2224 26.9609 16.366 27.0286 16.5193 27.0607C16.6726 27.0928 16.8312 27.0885 16.9826 27.0481C18.1318 26.7424 19.2352 26.285 20.2638 25.6881C20.3984 25.6099 20.5129 25.5014 20.5982 25.3712C20.6835 25.241 20.7372 25.0927 20.7551 24.9381L21.0851 21.9731C21.2151 21.8498 21.3401 21.7248 21.4601 21.5981L24.4326 21.2481C24.5873 21.2301 24.7357 21.1762 24.8659 21.0907C24.9961 21.0052 25.1045 20.8904 25.1826 20.7556C25.7784 19.7266 26.2353 18.6233 26.5413 17.4744C26.5816 17.3229 26.5857 17.1642 26.5533 17.0109C26.521 16.8576 26.4531 16.7141 26.3551 16.5919L24.5001 14.2681ZM13.5001 18.9981C12.5112 18.9981 11.5445 18.7049 10.7222 18.1555C9.89996 17.606 9.2591 16.8252 8.88066 15.9115C8.50222 14.9979 8.4032 13.9926 8.59613 13.0227C8.78906 12.0527 9.26526 11.1618 9.96452 10.4626C10.6638 9.76331 11.5547 9.2871 12.5246 9.09418C13.4945 8.90125 14.4998 9.00027 15.4135 9.37871C16.3271 9.75714 17.108 10.398 17.6574 11.2203C18.2068 12.0425 18.5001 13.0092 18.5001 13.9981C18.5001 15.3242 17.9733 16.596 17.0356 17.5336C16.0979 18.4713 14.8261 18.9981 13.5001 18.9981Z" fill="white"/>
</svg>
