<svg width="26" height="25" viewBox="0 0 26 25" fill="none" xmlns="http://www.w3.org/2000/svg">
<path d="M10.4722 19.2424C10.4235 19.4361 9.20471 23.9999 2.50096 23.9999C2.23575 23.9999 1.98139 23.8945 1.79386 23.707C1.60632 23.5195 1.50096 23.2651 1.50096 22.9999C1.50096 16.2961 6.06471 15.0774 6.25846 15.0286C6.51589 14.9643 6.78832 15.0049 7.01583 15.1415C7.24333 15.278 7.40727 15.4993 7.47159 15.7568C7.5359 16.0142 7.49532 16.2866 7.35877 16.5141C7.22222 16.7416 7.00089 16.9056 6.74346 16.9699C6.63096 17.0011 3.94096 17.7874 3.54846 21.9524C7.71346 21.5599 8.50096 18.8749 8.53346 18.7499C8.59977 18.4928 8.76549 18.2726 8.99416 18.1377C9.22284 18.0028 9.49574 17.9642 9.75284 18.0305C10.0099 18.0968 10.2302 18.2625 10.3651 18.4912C10.5 18.7199 10.5385 18.9928 10.4722 19.2499V19.2424ZM22.0972 10.8174L21.501 11.4136V18.7049C21.5024 18.9685 21.4515 19.2299 21.3511 19.4736C21.2506 19.7174 21.1027 19.9388 20.916 20.1249L16.626 24.4124C16.441 24.5987 16.2209 24.7466 15.9785 24.8474C15.736 24.9482 15.476 25.0001 15.2135 24.9999C14.9968 24.9998 14.7815 24.9648 14.576 24.8961C14.2231 24.7794 13.9099 24.5663 13.6718 24.2809C13.4336 23.9955 13.2801 23.6492 13.2285 23.2811L12.5572 18.4699L7.03096 12.9436L2.22221 12.2724C1.85364 12.2207 1.50681 12.0672 1.22072 11.8291C0.934636 11.5911 0.720653 11.2779 0.602843 10.9249C0.485033 10.5718 0.468069 10.1929 0.553861 9.83076C0.639653 9.4686 0.824796 9.13757 1.08846 8.8749L5.37596 4.5849C5.56206 4.39813 5.78344 4.25022 6.02722 4.14979C6.271 4.04936 6.53231 3.99841 6.79596 3.9999H14.0872L14.6835 3.40365C18.0185 0.0698953 22.036 -0.0738546 23.6097 0.0198954C24.0973 0.0495266 24.5572 0.256584 24.9026 0.601999C25.248 0.947415 25.4551 1.4073 25.4847 1.8949C25.576 3.46365 25.4322 7.4824 22.0985 10.8174H22.0972ZM12.0872 5.9999H6.79596L2.50096 10.2924L7.14471 10.9399L12.0872 5.9999ZM19.501 13.4136L14.5597 18.3549L15.2097 22.9999L19.501 18.7049V13.4136Z" fill="white"/>
</svg>
